G75*
%MOIN*%
%OFA0B0*%
%FSLAX25Y25*%
%IPPOS*%
%LPD*%
%AMOC8*
5,1,8,0,0,1.08239X$1,22.5*
%
%ADD10R,0.05118X0.05906*%
%ADD11R,0.03150X0.04724*%
%ADD12R,0.06299X0.10236*%
%ADD13R,0.01772X0.03937*%
%ADD14C,0.02165*%
%ADD15R,0.08661X0.05512*%
%ADD16R,0.03543X0.05512*%
%ADD17R,0.05906X0.05118*%
%ADD18R,0.04724X0.02165*%
%ADD19R,0.05000X0.02000*%
%ADD20R,0.02000X0.05000*%
%ADD21R,0.22000X0.08300*%
%ADD22R,0.04331X0.03937*%
%ADD23R,0.07874X0.09843*%
%ADD24R,0.04724X0.09843*%
%ADD25R,0.05906X0.08268*%
%ADD26R,0.03937X0.04331*%
%ADD27R,0.03937X0.09843*%
D10*
X0049060Y0129800D03*
X0056540Y0129800D03*
X0093060Y0140863D03*
X0100540Y0140863D03*
X0100224Y0149890D03*
X0092744Y0149890D03*
X0163060Y0214925D03*
X0170540Y0214925D03*
X0179211Y0222206D03*
X0186692Y0222206D03*
X0253685Y0268988D03*
X0261165Y0268988D03*
X0280560Y0261800D03*
X0288040Y0261800D03*
X0297435Y0229300D03*
X0304915Y0229300D03*
X0493060Y0086800D03*
X0500540Y0086800D03*
D11*
X0287843Y0268675D03*
X0280757Y0268675D03*
X0040343Y0199300D03*
X0033257Y0199300D03*
D12*
X0113675Y0131074D03*
X0113675Y0116901D03*
X0076175Y0110762D03*
X0076175Y0096588D03*
X0466800Y0104713D03*
X0466800Y0118887D03*
D13*
X0100326Y0114667D03*
X0097767Y0114667D03*
X0095208Y0114667D03*
X0092649Y0114667D03*
X0092649Y0130808D03*
X0095208Y0130808D03*
X0097767Y0130808D03*
X0100326Y0130808D03*
D14*
X0110619Y0107181D02*
X0110619Y0084543D01*
X0104123Y0084543D01*
X0104123Y0107181D01*
X0110619Y0107181D01*
X0110619Y0086707D02*
X0104123Y0086707D01*
X0104123Y0088871D02*
X0110619Y0088871D01*
X0110619Y0091035D02*
X0104123Y0091035D01*
X0104123Y0093199D02*
X0110619Y0093199D01*
X0110619Y0095363D02*
X0104123Y0095363D01*
X0104123Y0097527D02*
X0110619Y0097527D01*
X0110619Y0099691D02*
X0104123Y0099691D01*
X0104123Y0101855D02*
X0110619Y0101855D01*
X0110619Y0104019D02*
X0104123Y0104019D01*
X0104123Y0106183D02*
X0110619Y0106183D01*
X0087981Y0107181D02*
X0087981Y0084543D01*
X0087981Y0107181D02*
X0094477Y0107181D01*
X0094477Y0084543D01*
X0087981Y0084543D01*
X0087981Y0086707D02*
X0094477Y0086707D01*
X0094477Y0088871D02*
X0087981Y0088871D01*
X0087981Y0091035D02*
X0094477Y0091035D01*
X0094477Y0093199D02*
X0087981Y0093199D01*
X0087981Y0095363D02*
X0094477Y0095363D01*
X0094477Y0097527D02*
X0087981Y0097527D01*
X0087981Y0099691D02*
X0094477Y0099691D01*
X0094477Y0101855D02*
X0087981Y0101855D01*
X0087981Y0104019D02*
X0094477Y0104019D01*
X0094477Y0106183D02*
X0087981Y0106183D01*
D15*
X0124300Y0096175D03*
D16*
X0134300Y0096175D03*
D17*
X0110862Y0144935D03*
X0110862Y0152415D03*
D18*
X0199806Y0215872D03*
X0199806Y0219612D03*
X0199806Y0223353D03*
X0210044Y0223353D03*
X0210044Y0215872D03*
D19*
X0063700Y0170324D03*
X0063700Y0167174D03*
X0063700Y0164024D03*
X0063700Y0160875D03*
X0063700Y0157725D03*
X0063700Y0154576D03*
X0063700Y0151426D03*
X0063700Y0148276D03*
X0029900Y0148276D03*
X0029900Y0151426D03*
X0029900Y0154576D03*
X0029900Y0157725D03*
X0029900Y0160875D03*
X0029900Y0164024D03*
X0029900Y0167174D03*
X0029900Y0170324D03*
D20*
X0035776Y0176200D03*
X0038926Y0176200D03*
X0042076Y0176200D03*
X0045225Y0176200D03*
X0048375Y0176200D03*
X0051524Y0176200D03*
X0054674Y0176200D03*
X0057824Y0176200D03*
X0057824Y0142400D03*
X0054674Y0142400D03*
X0051524Y0142400D03*
X0048375Y0142400D03*
X0045225Y0142400D03*
X0042076Y0142400D03*
X0038926Y0142400D03*
X0035776Y0142400D03*
D21*
X0058100Y0209300D03*
X0095500Y0209300D03*
D22*
X0070146Y0179300D03*
X0063454Y0179300D03*
X0078454Y0169300D03*
X0085146Y0169300D03*
X0080146Y0157300D03*
X0073454Y0157300D03*
X0073454Y0150300D03*
X0080146Y0150300D03*
X0080146Y0144100D03*
X0073454Y0144100D03*
D23*
G36*
X0400059Y0064821D02*
X0402752Y0057423D01*
X0393505Y0054057D01*
X0390812Y0061455D01*
X0400059Y0064821D01*
G37*
G36*
X0412249Y0076801D02*
X0404851Y0074108D01*
X0401485Y0083355D01*
X0408883Y0086048D01*
X0412249Y0076801D01*
G37*
G36*
X0435550Y0046736D02*
X0438243Y0039338D01*
X0428996Y0035972D01*
X0426303Y0043370D01*
X0435550Y0046736D01*
G37*
G36*
X0412582Y0030415D02*
X0415275Y0023017D01*
X0406028Y0019651D01*
X0403335Y0027049D01*
X0412582Y0030415D01*
G37*
D24*
G36*
X0432228Y0027093D02*
X0430612Y0031531D01*
X0439860Y0034897D01*
X0441476Y0030459D01*
X0432228Y0027093D01*
G37*
D25*
X0103887Y0074300D03*
X0089713Y0074300D03*
D26*
X0084300Y0131454D03*
X0084300Y0138146D03*
D27*
G36*
X0101532Y0066966D02*
X0105295Y0065815D01*
X0102418Y0056404D01*
X0098655Y0057555D01*
X0101532Y0066966D01*
G37*
G36*
X0094002Y0069268D02*
X0097765Y0068117D01*
X0094888Y0058706D01*
X0091125Y0059857D01*
X0094002Y0069268D01*
G37*
G36*
X0078942Y0073872D02*
X0082705Y0072721D01*
X0079828Y0063310D01*
X0076065Y0064461D01*
X0078942Y0073872D01*
G37*
G36*
X0071412Y0076174D02*
X0075175Y0075023D01*
X0072298Y0065612D01*
X0068535Y0066763D01*
X0071412Y0076174D01*
G37*
M02*
