G75*
%MOIN*%
%OFA0B0*%
%FSLAX25Y25*%
%IPPOS*%
%LPD*%
%AMOC8*
5,1,8,0,0,1.08239X$1,22.5*
%
%ADD10R,0.01378X0.05118*%
%ADD11R,0.05906X0.05118*%
%ADD12R,0.03150X0.03543*%
%ADD13R,0.05512X0.08661*%
%ADD14R,0.05512X0.03543*%
%ADD15R,0.05118X0.05906*%
%ADD16R,0.02362X0.08661*%
%ADD17R,0.07874X0.02362*%
%ADD18R,0.01575X0.02953*%
%ADD19R,0.01300X0.02700*%
%ADD20R,0.04724X0.02165*%
%ADD21R,0.05000X0.02500*%
%ADD22R,0.06299X0.05906*%
%ADD23R,0.04724X0.04724*%
%ADD24R,0.03543X0.05512*%
%ADD25R,0.08661X0.05512*%
%ADD26R,0.05512X0.01181*%
%ADD27C,0.00012*%
%ADD28R,0.07874X0.09449*%
%ADD29R,0.01969X0.09087*%
%ADD30R,0.03937X0.04331*%
%ADD31R,0.08268X0.05906*%
D10*
X0287843Y0232981D03*
X0290402Y0232981D03*
X0292961Y0232981D03*
X0295520Y0232981D03*
X0298080Y0232981D03*
X0300639Y0232981D03*
X0303198Y0232981D03*
X0305757Y0232981D03*
X0305757Y0255619D03*
X0303198Y0255619D03*
X0300639Y0255619D03*
X0298080Y0255619D03*
X0295520Y0255619D03*
X0292961Y0255619D03*
X0290402Y0255619D03*
X0287843Y0255619D03*
D11*
X0279300Y0251165D03*
X0270550Y0251165D03*
X0261800Y0251165D03*
X0261800Y0243685D03*
X0270550Y0243685D03*
X0279300Y0243685D03*
X0313050Y0248372D03*
X0313050Y0255853D03*
X0321521Y0242204D03*
X0321521Y0234724D03*
X0385181Y0234467D03*
X0394241Y0234339D03*
X0394241Y0241820D03*
X0385181Y0241948D03*
X0418424Y0223070D03*
X0418424Y0215589D03*
X0453296Y0234339D03*
X0453296Y0241820D03*
X0414300Y0130540D03*
X0414300Y0123060D03*
X0399925Y0122747D03*
X0399925Y0130228D03*
X0405862Y0113040D03*
X0405862Y0105560D03*
X0405862Y0090540D03*
X0405862Y0083060D03*
X0416800Y0083060D03*
X0416800Y0090540D03*
X0426800Y0090540D03*
X0436800Y0090540D03*
X0436800Y0083060D03*
X0426800Y0083060D03*
D12*
X0275550Y0226844D03*
X0271810Y0235112D03*
X0279290Y0235112D03*
D13*
X0126800Y0134300D03*
D14*
X0126800Y0144300D03*
D15*
X0403060Y0194300D03*
X0410540Y0194300D03*
X0409792Y0249891D03*
X0402312Y0249891D03*
X0402312Y0261702D03*
X0409792Y0261702D03*
X0470560Y0131800D03*
X0478040Y0131800D03*
D16*
X0436800Y0122036D03*
X0431800Y0122036D03*
X0426800Y0122036D03*
X0421800Y0122036D03*
X0421800Y0101564D03*
X0426800Y0101564D03*
X0431800Y0101564D03*
X0436800Y0101564D03*
D17*
X0150146Y0186898D03*
X0150146Y0190835D03*
X0150146Y0194772D03*
X0150146Y0198709D03*
X0150146Y0202646D03*
X0150146Y0206583D03*
X0150146Y0210520D03*
X0150146Y0214457D03*
X0150146Y0218394D03*
X0150146Y0222331D03*
X0150146Y0226269D03*
X0150146Y0230206D03*
X0150146Y0234143D03*
X0150146Y0238080D03*
X0150146Y0242017D03*
X0150146Y0245954D03*
X0150146Y0249891D03*
X0150146Y0253828D03*
D18*
X0140894Y0199147D03*
X0135776Y0199147D03*
D19*
X0135685Y0192649D03*
X0138335Y0192649D03*
X0140985Y0192649D03*
D20*
X0404870Y0234339D03*
X0415107Y0234339D03*
X0415107Y0238080D03*
X0415107Y0241820D03*
X0404870Y0241820D03*
D21*
X0439871Y0250550D03*
X0447371Y0250550D03*
X0447371Y0254428D03*
X0439871Y0254428D03*
D22*
X0435146Y0218394D03*
D23*
X0448237Y0214457D03*
X0448237Y0222331D03*
D24*
X0071800Y0104300D03*
D25*
X0061800Y0104300D03*
D26*
X0038139Y0060363D03*
X0038139Y0062331D03*
X0038139Y0064300D03*
X0038139Y0066269D03*
X0038139Y0068237D03*
X0055461Y0068237D03*
X0055461Y0066269D03*
X0055461Y0064300D03*
X0055461Y0062331D03*
D27*
X0058211Y0059779D02*
X0052711Y0059779D01*
X0052711Y0060947D01*
X0058211Y0060947D01*
X0058211Y0059779D01*
X0058211Y0059790D02*
X0052711Y0059790D01*
X0052711Y0059801D02*
X0058211Y0059801D01*
X0058211Y0059812D02*
X0052711Y0059812D01*
X0052711Y0059823D02*
X0058211Y0059823D01*
X0058211Y0059834D02*
X0052711Y0059834D01*
X0052711Y0059845D02*
X0058211Y0059845D01*
X0058211Y0059856D02*
X0052711Y0059856D01*
X0052711Y0059867D02*
X0058211Y0059867D01*
X0058211Y0059878D02*
X0052711Y0059878D01*
X0052711Y0059889D02*
X0058211Y0059889D01*
X0058211Y0059900D02*
X0052711Y0059900D01*
X0052711Y0059911D02*
X0058211Y0059911D01*
X0058211Y0059922D02*
X0052711Y0059922D01*
X0052711Y0059933D02*
X0058211Y0059933D01*
X0058211Y0059944D02*
X0052711Y0059944D01*
X0052711Y0059955D02*
X0058211Y0059955D01*
X0058211Y0059966D02*
X0052711Y0059966D01*
X0052711Y0059977D02*
X0058211Y0059977D01*
X0058211Y0059988D02*
X0052711Y0059988D01*
X0052711Y0059999D02*
X0058211Y0059999D01*
X0058211Y0060010D02*
X0052711Y0060010D01*
X0052711Y0060021D02*
X0058211Y0060021D01*
X0058211Y0060032D02*
X0052711Y0060032D01*
X0052711Y0060043D02*
X0058211Y0060043D01*
X0058211Y0060054D02*
X0052711Y0060054D01*
X0052711Y0060065D02*
X0058211Y0060065D01*
X0058211Y0060076D02*
X0052711Y0060076D01*
X0052711Y0060087D02*
X0058211Y0060087D01*
X0058211Y0060098D02*
X0052711Y0060098D01*
X0052711Y0060109D02*
X0058211Y0060109D01*
X0058211Y0060120D02*
X0052711Y0060120D01*
X0052711Y0060131D02*
X0058211Y0060131D01*
X0058211Y0060142D02*
X0052711Y0060142D01*
X0052711Y0060153D02*
X0058211Y0060153D01*
X0058211Y0060164D02*
X0052711Y0060164D01*
X0052711Y0060175D02*
X0058211Y0060175D01*
X0058211Y0060186D02*
X0052711Y0060186D01*
X0052711Y0060197D02*
X0058211Y0060197D01*
X0058211Y0060208D02*
X0052711Y0060208D01*
X0052711Y0060219D02*
X0058211Y0060219D01*
X0058211Y0060230D02*
X0052711Y0060230D01*
X0052711Y0060241D02*
X0058211Y0060241D01*
X0058211Y0060252D02*
X0052711Y0060252D01*
X0052711Y0060263D02*
X0058211Y0060263D01*
X0058211Y0060274D02*
X0052711Y0060274D01*
X0052711Y0060285D02*
X0058211Y0060285D01*
X0058211Y0060296D02*
X0052711Y0060296D01*
X0052711Y0060307D02*
X0058211Y0060307D01*
X0058211Y0060318D02*
X0052711Y0060318D01*
X0052711Y0060329D02*
X0058211Y0060329D01*
X0058211Y0060340D02*
X0052711Y0060340D01*
X0052711Y0060351D02*
X0058211Y0060351D01*
X0058211Y0060362D02*
X0052711Y0060362D01*
X0052711Y0060373D02*
X0058211Y0060373D01*
X0058211Y0060384D02*
X0052711Y0060384D01*
X0052711Y0060395D02*
X0058211Y0060395D01*
X0058211Y0060406D02*
X0052711Y0060406D01*
X0052711Y0060417D02*
X0058211Y0060417D01*
X0058211Y0060428D02*
X0052711Y0060428D01*
X0052711Y0060439D02*
X0058211Y0060439D01*
X0058211Y0060450D02*
X0052711Y0060450D01*
X0052711Y0060461D02*
X0058211Y0060461D01*
X0058211Y0060472D02*
X0052711Y0060472D01*
X0052711Y0060483D02*
X0058211Y0060483D01*
X0058211Y0060494D02*
X0052711Y0060494D01*
X0052711Y0060505D02*
X0058211Y0060505D01*
X0058211Y0060516D02*
X0052711Y0060516D01*
X0052711Y0060527D02*
X0058211Y0060527D01*
X0058211Y0060538D02*
X0052711Y0060538D01*
X0052711Y0060549D02*
X0058211Y0060549D01*
X0058211Y0060560D02*
X0052711Y0060560D01*
X0052711Y0060571D02*
X0058211Y0060571D01*
X0058211Y0060582D02*
X0052711Y0060582D01*
X0052711Y0060593D02*
X0058211Y0060593D01*
X0058211Y0060604D02*
X0052711Y0060604D01*
X0052711Y0060615D02*
X0058211Y0060615D01*
X0058211Y0060626D02*
X0052711Y0060626D01*
X0052711Y0060637D02*
X0058211Y0060637D01*
X0058211Y0060648D02*
X0052711Y0060648D01*
X0052711Y0060659D02*
X0058211Y0060659D01*
X0058211Y0060670D02*
X0052711Y0060670D01*
X0052711Y0060681D02*
X0058211Y0060681D01*
X0058211Y0060692D02*
X0052711Y0060692D01*
X0052711Y0060703D02*
X0058211Y0060703D01*
X0058211Y0060714D02*
X0052711Y0060714D01*
X0052711Y0060725D02*
X0058211Y0060725D01*
X0058211Y0060736D02*
X0052711Y0060736D01*
X0052711Y0060747D02*
X0058211Y0060747D01*
X0058211Y0060758D02*
X0052711Y0060758D01*
X0052711Y0060769D02*
X0058211Y0060769D01*
X0058211Y0060780D02*
X0052711Y0060780D01*
X0052711Y0060791D02*
X0058211Y0060791D01*
X0058211Y0060802D02*
X0052711Y0060802D01*
X0052711Y0060813D02*
X0058211Y0060813D01*
X0058211Y0060824D02*
X0052711Y0060824D01*
X0052711Y0060835D02*
X0058211Y0060835D01*
X0058211Y0060846D02*
X0052711Y0060846D01*
X0052711Y0060857D02*
X0058211Y0060857D01*
X0058211Y0060868D02*
X0052711Y0060868D01*
X0052711Y0060879D02*
X0058211Y0060879D01*
X0058211Y0060890D02*
X0052711Y0060890D01*
X0052711Y0060901D02*
X0058211Y0060901D01*
X0058211Y0060912D02*
X0052711Y0060912D01*
X0052711Y0060923D02*
X0058211Y0060923D01*
X0058211Y0060934D02*
X0052711Y0060934D01*
X0052711Y0060945D02*
X0058211Y0060945D01*
D28*
X0277977Y0267520D03*
X0312623Y0267520D03*
X0312623Y0289174D03*
X0277977Y0289174D03*
D29*
X0289001Y0265300D03*
X0292150Y0265300D03*
X0295300Y0265300D03*
X0298450Y0265300D03*
X0301599Y0265300D03*
D30*
X0424300Y0070146D03*
X0424300Y0063454D03*
D31*
X0147800Y0088213D03*
X0147800Y0102387D03*
X0111800Y0132213D03*
X0111800Y0146387D03*
M02*
