G75*
%MOIN*%
%OFA0B0*%
%FSLAX25Y25*%
%IPPOS*%
%LPD*%
%AMOC8*
5,1,8,0,0,1.08239X$1,22.5*
%
%ADD10C,0.12211*%
%ADD11C,0.10400*%
%ADD12C,0.10243*%
%ADD13C,0.15361*%
%ADD14C,0.16148*%
%ADD15R,0.07400X0.07400*%
%ADD16C,0.07400*%
%ADD17C,0.01615*%
%ADD18C,0.06337*%
%ADD19R,0.05518X0.06306*%
%ADD20R,0.03550X0.05124*%
%ADD21C,0.10243*%
%ADD22R,0.21654X0.21654*%
%ADD23R,0.06699X0.10636*%
%ADD24R,0.01969X0.04232*%
%ADD25C,0.02265*%
%ADD26R,0.09061X0.05912*%
%ADD27R,0.03943X0.05912*%
%ADD28R,0.06306X0.05518*%
%ADD29R,0.05124X0.02565*%
%ADD30R,0.05400X0.02400*%
%ADD31R,0.02400X0.05400*%
%ADD32R,0.22400X0.08700*%
%ADD33R,0.04731X0.04337*%
%ADD34C,0.06800*%
%ADD35C,0.04337*%
%ADD36C,0.04400*%
%ADD37C,0.13061*%
%ADD38C,0.09000*%
%ADD39R,0.08274X0.10243*%
%ADD40R,0.05124X0.10243*%
%ADD41C,0.08274*%
%ADD42R,0.06306X0.08668*%
%ADD43R,0.04337X0.04731*%
%ADD44C,0.03550*%
%ADD45R,0.04337X0.10243*%
D10*
X0014587Y0065675D03*
X0084214Y0233792D03*
X0439862Y0233573D03*
X0511143Y0064593D03*
D11*
X0498675Y0104910D03*
X0498675Y0118690D03*
X0400690Y0287932D03*
X0124524Y0288343D03*
D12*
X0052507Y0118128D03*
X0075266Y0081566D03*
X0475103Y0156893D03*
D13*
X0454922Y0199091D03*
D14*
X0497964Y0138167D03*
X0022964Y0122855D03*
D15*
X0171800Y0160363D03*
D16*
X0181800Y0160363D03*
X0191800Y0160363D03*
X0201800Y0160363D03*
X0211800Y0160363D03*
X0221800Y0160363D03*
X0231800Y0160363D03*
X0241800Y0160363D03*
X0251800Y0160363D03*
X0261800Y0160363D03*
X0271800Y0160363D03*
X0281800Y0160363D03*
X0291800Y0160363D03*
X0301800Y0160363D03*
X0311800Y0160363D03*
X0321800Y0160363D03*
X0331800Y0160363D03*
X0341800Y0160363D03*
X0351800Y0160363D03*
X0361800Y0160363D03*
X0361800Y0150363D03*
X0351800Y0150363D03*
X0341800Y0150363D03*
X0331800Y0150363D03*
X0321800Y0150363D03*
X0311800Y0150363D03*
X0301800Y0150363D03*
X0291800Y0150363D03*
X0281800Y0150363D03*
X0271800Y0150363D03*
X0261800Y0150363D03*
X0251800Y0150363D03*
X0241800Y0150363D03*
X0231800Y0150363D03*
X0221800Y0150363D03*
X0211800Y0150363D03*
X0201800Y0150363D03*
X0191800Y0150363D03*
X0181800Y0150363D03*
X0171800Y0150363D03*
D17*
X0020930Y0223294D02*
X0020122Y0224102D01*
X0021658Y0226295D01*
X0024292Y0226760D01*
X0026485Y0225224D01*
X0026950Y0222590D01*
X0025414Y0220397D01*
X0022780Y0219932D01*
X0020587Y0221468D01*
X0020122Y0224102D01*
X0021403Y0223818D01*
X0022363Y0225189D01*
X0024008Y0225479D01*
X0025379Y0224519D01*
X0025669Y0222874D01*
X0024709Y0221503D01*
X0023064Y0221213D01*
X0021693Y0222173D01*
X0021403Y0223818D01*
X0022684Y0223534D01*
X0023067Y0224082D01*
X0023724Y0224198D01*
X0024272Y0223815D01*
X0024388Y0223158D01*
X0024005Y0222610D01*
X0023348Y0222494D01*
X0022800Y0222877D01*
X0022684Y0223534D01*
X0024564Y0233374D02*
X0025372Y0232566D01*
X0023836Y0230373D01*
X0021202Y0229908D01*
X0019009Y0231444D01*
X0018544Y0234078D01*
X0020080Y0236271D01*
X0022714Y0236736D01*
X0024907Y0235200D01*
X0025372Y0232566D01*
X0024091Y0232850D01*
X0023131Y0231479D01*
X0021486Y0231189D01*
X0020115Y0232149D01*
X0019825Y0233794D01*
X0020785Y0235165D01*
X0022430Y0235455D01*
X0023801Y0234495D01*
X0024091Y0232850D01*
X0022810Y0233134D01*
X0022427Y0232586D01*
X0021770Y0232470D01*
X0021222Y0232853D01*
X0021106Y0233510D01*
X0021489Y0234058D01*
X0022146Y0234174D01*
X0022694Y0233791D01*
X0022810Y0233134D01*
X0059459Y0239527D02*
X0060267Y0238719D01*
X0058731Y0236526D01*
X0056097Y0236061D01*
X0053904Y0237597D01*
X0053439Y0240231D01*
X0054975Y0242424D01*
X0057609Y0242889D01*
X0059802Y0241353D01*
X0060267Y0238719D01*
X0058986Y0239003D01*
X0058026Y0237632D01*
X0056381Y0237342D01*
X0055010Y0238302D01*
X0054720Y0239947D01*
X0055680Y0241318D01*
X0057325Y0241608D01*
X0058696Y0240648D01*
X0058986Y0239003D01*
X0057705Y0239287D01*
X0057322Y0238739D01*
X0056665Y0238623D01*
X0056117Y0239006D01*
X0056001Y0239663D01*
X0056384Y0240211D01*
X0057041Y0240327D01*
X0057589Y0239944D01*
X0057705Y0239287D01*
X0055825Y0229447D02*
X0055017Y0230255D01*
X0056553Y0232448D01*
X0059187Y0232913D01*
X0061380Y0231377D01*
X0061845Y0228743D01*
X0060309Y0226550D01*
X0057675Y0226085D01*
X0055482Y0227621D01*
X0055017Y0230255D01*
X0056298Y0229971D01*
X0057258Y0231342D01*
X0058903Y0231632D01*
X0060274Y0230672D01*
X0060564Y0229027D01*
X0059604Y0227656D01*
X0057959Y0227366D01*
X0056588Y0228326D01*
X0056298Y0229971D01*
X0057579Y0229687D01*
X0057962Y0230235D01*
X0058619Y0230351D01*
X0059167Y0229968D01*
X0059283Y0229311D01*
X0058900Y0228763D01*
X0058243Y0228647D01*
X0057695Y0229030D01*
X0057579Y0229687D01*
X0464028Y0229569D02*
X0463220Y0230377D01*
X0465413Y0231913D01*
X0468047Y0231448D01*
X0469583Y0229255D01*
X0469118Y0226621D01*
X0466925Y0225085D01*
X0464291Y0225550D01*
X0462755Y0227743D01*
X0463220Y0230377D01*
X0464326Y0229672D01*
X0465697Y0230632D01*
X0467342Y0230342D01*
X0468302Y0228971D01*
X0468012Y0227326D01*
X0466641Y0226366D01*
X0464996Y0226656D01*
X0464036Y0228027D01*
X0464326Y0229672D01*
X0465433Y0228968D01*
X0465981Y0229351D01*
X0466638Y0229235D01*
X0467021Y0228687D01*
X0466905Y0228030D01*
X0466357Y0227647D01*
X0465700Y0227763D01*
X0465317Y0228311D01*
X0465433Y0228968D01*
X0469855Y0237518D02*
X0470663Y0236710D01*
X0468470Y0235174D01*
X0465836Y0235639D01*
X0464300Y0237832D01*
X0464765Y0240466D01*
X0466958Y0242002D01*
X0469592Y0241537D01*
X0471128Y0239344D01*
X0470663Y0236710D01*
X0469557Y0237415D01*
X0468186Y0236455D01*
X0466541Y0236745D01*
X0465581Y0238116D01*
X0465871Y0239761D01*
X0467242Y0240721D01*
X0468887Y0240431D01*
X0469847Y0239060D01*
X0469557Y0237415D01*
X0468450Y0238119D01*
X0467902Y0237736D01*
X0467245Y0237852D01*
X0466862Y0238400D01*
X0466978Y0239057D01*
X0467526Y0239440D01*
X0468183Y0239324D01*
X0468566Y0238776D01*
X0468450Y0238119D01*
X0498923Y0223416D02*
X0498115Y0224224D01*
X0500308Y0225760D01*
X0502942Y0225295D01*
X0504478Y0223102D01*
X0504013Y0220468D01*
X0501820Y0218932D01*
X0499186Y0219397D01*
X0497650Y0221590D01*
X0498115Y0224224D01*
X0499221Y0223519D01*
X0500592Y0224479D01*
X0502237Y0224189D01*
X0503197Y0222818D01*
X0502907Y0221173D01*
X0501536Y0220213D01*
X0499891Y0220503D01*
X0498931Y0221874D01*
X0499221Y0223519D01*
X0500328Y0222815D01*
X0500876Y0223198D01*
X0501533Y0223082D01*
X0501916Y0222534D01*
X0501800Y0221877D01*
X0501252Y0221494D01*
X0500595Y0221610D01*
X0500212Y0222158D01*
X0500328Y0222815D01*
X0504750Y0231365D02*
X0505558Y0230557D01*
X0503365Y0229021D01*
X0500731Y0229486D01*
X0499195Y0231679D01*
X0499660Y0234313D01*
X0501853Y0235849D01*
X0504487Y0235384D01*
X0506023Y0233191D01*
X0505558Y0230557D01*
X0504452Y0231262D01*
X0503081Y0230302D01*
X0501436Y0230592D01*
X0500476Y0231963D01*
X0500766Y0233608D01*
X0502137Y0234568D01*
X0503782Y0234278D01*
X0504742Y0232907D01*
X0504452Y0231262D01*
X0503345Y0231966D01*
X0502797Y0231583D01*
X0502140Y0231699D01*
X0501757Y0232247D01*
X0501873Y0232904D01*
X0502421Y0233287D01*
X0503078Y0233171D01*
X0503461Y0232623D01*
X0503345Y0231966D01*
D18*
X0494049Y0233578D03*
X0495594Y0243666D03*
X0478147Y0246743D03*
X0476602Y0236654D03*
X0047998Y0237654D03*
X0046420Y0247629D03*
X0028973Y0244553D03*
X0030551Y0234578D03*
D19*
X0163060Y0214925D03*
X0170540Y0214925D03*
X0179211Y0222206D03*
X0186692Y0222206D03*
X0253685Y0268988D03*
X0261165Y0268988D03*
X0280560Y0261800D03*
X0288040Y0261800D03*
X0297435Y0229300D03*
X0304915Y0229300D03*
X0100224Y0149890D03*
X0092744Y0149890D03*
X0093060Y0140863D03*
X0100540Y0140863D03*
X0056540Y0129800D03*
X0049060Y0129800D03*
X0493060Y0086800D03*
X0500540Y0086800D03*
D20*
X0287843Y0268675D03*
X0280757Y0268675D03*
X0040343Y0199300D03*
X0033257Y0199300D03*
D21*
X0123129Y0084517D02*
X0132971Y0084517D01*
X0132971Y0074674D02*
X0123129Y0074674D01*
X0123129Y0059910D02*
X0132971Y0059910D01*
X0132971Y0050068D02*
X0123129Y0050068D01*
D22*
X0128050Y0054989D03*
X0128050Y0079595D03*
D23*
X0076175Y0096588D03*
X0076175Y0110762D03*
X0113675Y0116901D03*
X0113675Y0131074D03*
X0466800Y0118887D03*
X0466800Y0104713D03*
D24*
X0100326Y0114617D03*
X0097767Y0114617D03*
X0095208Y0114617D03*
X0092649Y0114617D03*
X0092649Y0130858D03*
X0095208Y0130858D03*
X0097767Y0130858D03*
X0100326Y0130858D03*
D25*
X0110769Y0107331D02*
X0110769Y0084393D01*
X0103973Y0084393D01*
X0103973Y0107331D01*
X0110769Y0107331D01*
X0110769Y0086657D02*
X0103973Y0086657D01*
X0103973Y0088921D02*
X0110769Y0088921D01*
X0110769Y0091185D02*
X0103973Y0091185D01*
X0103973Y0093449D02*
X0110769Y0093449D01*
X0110769Y0095713D02*
X0103973Y0095713D01*
X0103973Y0097977D02*
X0110769Y0097977D01*
X0110769Y0100241D02*
X0103973Y0100241D01*
X0103973Y0102505D02*
X0110769Y0102505D01*
X0110769Y0104769D02*
X0103973Y0104769D01*
X0103973Y0107033D02*
X0110769Y0107033D01*
X0087831Y0107331D02*
X0087831Y0084393D01*
X0087831Y0107331D02*
X0094627Y0107331D01*
X0094627Y0084393D01*
X0087831Y0084393D01*
X0087831Y0086657D02*
X0094627Y0086657D01*
X0094627Y0088921D02*
X0087831Y0088921D01*
X0087831Y0091185D02*
X0094627Y0091185D01*
X0094627Y0093449D02*
X0087831Y0093449D01*
X0087831Y0095713D02*
X0094627Y0095713D01*
X0094627Y0097977D02*
X0087831Y0097977D01*
X0087831Y0100241D02*
X0094627Y0100241D01*
X0094627Y0102505D02*
X0087831Y0102505D01*
X0087831Y0104769D02*
X0094627Y0104769D01*
X0094627Y0107033D02*
X0087831Y0107033D01*
D26*
X0124300Y0096175D03*
D27*
X0134300Y0096175D03*
D28*
X0110862Y0144935D03*
X0110862Y0152415D03*
D29*
X0199806Y0215872D03*
X0199806Y0219612D03*
X0199806Y0223353D03*
X0210044Y0223353D03*
X0210044Y0215872D03*
D30*
X0063700Y0170324D03*
X0063700Y0167174D03*
X0063700Y0164024D03*
X0063700Y0160875D03*
X0063700Y0157725D03*
X0063700Y0154576D03*
X0063700Y0151426D03*
X0063700Y0148276D03*
X0029900Y0148276D03*
X0029900Y0151426D03*
X0029900Y0154576D03*
X0029900Y0157725D03*
X0029900Y0160875D03*
X0029900Y0164024D03*
X0029900Y0167174D03*
X0029900Y0170324D03*
D31*
X0035776Y0176200D03*
X0038926Y0176200D03*
X0042076Y0176200D03*
X0045225Y0176200D03*
X0048375Y0176200D03*
X0051524Y0176200D03*
X0054674Y0176200D03*
X0057824Y0176200D03*
X0057824Y0142400D03*
X0054674Y0142400D03*
X0051524Y0142400D03*
X0048375Y0142400D03*
X0045225Y0142400D03*
X0042076Y0142400D03*
X0038926Y0142400D03*
X0035776Y0142400D03*
D32*
X0058100Y0209300D03*
X0095500Y0209300D03*
D33*
X0070146Y0179300D03*
X0063454Y0179300D03*
X0078454Y0169300D03*
X0085146Y0169300D03*
X0080146Y0157300D03*
X0073454Y0157300D03*
X0073454Y0150300D03*
X0080146Y0150300D03*
X0080146Y0144100D03*
X0073454Y0144100D03*
D34*
X0046800Y0099300D03*
X0036800Y0099300D03*
X0036800Y0089300D03*
X0046800Y0089300D03*
X0046800Y0079300D03*
X0036800Y0079300D03*
D35*
X0286639Y0277363D03*
X0303961Y0277363D03*
D36*
X0024300Y0211800D03*
X0024300Y0206800D03*
X0024300Y0201800D03*
X0024300Y0196800D03*
D37*
X0442779Y0042658D03*
X0499821Y0057942D03*
D38*
X0479461Y0076127D03*
X0464269Y0076540D03*
X0451319Y0068586D03*
D39*
G36*
X0435670Y0046992D02*
X0438500Y0039218D01*
X0428876Y0035716D01*
X0426046Y0043490D01*
X0435670Y0046992D01*
G37*
G36*
X0412702Y0030671D02*
X0415532Y0022897D01*
X0405908Y0019395D01*
X0403078Y0027169D01*
X0412702Y0030671D01*
G37*
G36*
X0400179Y0065077D02*
X0403009Y0057303D01*
X0393385Y0053801D01*
X0390555Y0061575D01*
X0400179Y0065077D01*
G37*
G36*
X0412505Y0076681D02*
X0404731Y0073851D01*
X0401229Y0083475D01*
X0409003Y0086305D01*
X0412505Y0076681D01*
G37*
D40*
G36*
X0432109Y0026837D02*
X0430356Y0031651D01*
X0439979Y0035153D01*
X0441732Y0030339D01*
X0432109Y0026837D01*
G37*
D41*
X0420587Y0033749D03*
X0411161Y0059646D03*
D42*
X0103887Y0074300D03*
X0089713Y0074300D03*
D43*
X0084300Y0131454D03*
X0084300Y0138146D03*
D44*
X0101800Y0046300D03*
X0063397Y0058041D03*
D45*
G36*
X0078809Y0074122D02*
X0082955Y0072854D01*
X0079961Y0063060D01*
X0075815Y0064328D01*
X0078809Y0074122D01*
G37*
G36*
X0071279Y0076424D02*
X0075425Y0075156D01*
X0072431Y0065362D01*
X0068285Y0066630D01*
X0071279Y0076424D01*
G37*
G36*
X0093869Y0069518D02*
X0098015Y0068250D01*
X0095021Y0058456D01*
X0090875Y0059724D01*
X0093869Y0069518D01*
G37*
G36*
X0101399Y0067216D02*
X0105545Y0065948D01*
X0102551Y0056154D01*
X0098405Y0057422D01*
X0101399Y0067216D01*
G37*
M02*
