G75*
%MOIN*%
%OFA0B0*%
%FSLAX25Y25*%
%IPPOS*%
%LPD*%
%AMOC8*
5,1,8,0,0,1.08239X$1,22.5*
%
%ADD10R,0.07000X0.07000*%
%ADD11C,0.07000*%
%ADD12C,0.01535*%
%ADD13C,0.05937*%
%ADD14R,0.05118X0.05906*%
%ADD15R,0.03150X0.04724*%
%ADD16C,0.10000*%
%ADD17C,0.09843*%
%ADD18R,0.06299X0.10236*%
%ADD19R,0.01772X0.03937*%
%ADD20C,0.02165*%
%ADD21R,0.08661X0.05512*%
%ADD22R,0.03543X0.05512*%
%ADD23R,0.05906X0.05118*%
%ADD24R,0.04724X0.02165*%
%ADD25R,0.05000X0.02000*%
%ADD26R,0.02000X0.05000*%
%ADD27R,0.22000X0.08300*%
%ADD28R,0.04331X0.03937*%
%ADD29C,0.06400*%
%ADD30C,0.04000*%
%ADD31C,0.12661*%
%ADD32C,0.08600*%
%ADD33R,0.07874X0.09843*%
%ADD34R,0.04724X0.09843*%
%ADD35R,0.05906X0.08268*%
%ADD36R,0.03937X0.04331*%
%ADD37R,0.03937X0.09843*%
%ADD38C,0.01600*%
%ADD39C,0.03562*%
%ADD40C,0.01000*%
%ADD41C,0.03169*%
%ADD42C,0.03200*%
%ADD43C,0.00600*%
%ADD44C,0.01200*%
%ADD45C,0.05315*%
%ADD46C,0.05600*%
%ADD47C,0.04000*%
%ADD48C,0.02500*%
%ADD49C,0.02000*%
%ADD50C,0.01800*%
%ADD51C,0.05000*%
%ADD52C,0.01100*%
%ADD53R,0.03562X0.03562*%
D10*
X0171800Y0160363D03*
D11*
X0181800Y0160363D03*
X0191800Y0160363D03*
X0201800Y0160363D03*
X0211800Y0160363D03*
X0221800Y0160363D03*
X0231800Y0160363D03*
X0241800Y0160363D03*
X0251800Y0160363D03*
X0261800Y0160363D03*
X0271800Y0160363D03*
X0281800Y0160363D03*
X0291800Y0160363D03*
X0301800Y0160363D03*
X0311800Y0160363D03*
X0321800Y0160363D03*
X0331800Y0160363D03*
X0341800Y0160363D03*
X0351800Y0160363D03*
X0361800Y0160363D03*
X0361800Y0150363D03*
X0351800Y0150363D03*
X0341800Y0150363D03*
X0331800Y0150363D03*
X0321800Y0150363D03*
X0311800Y0150363D03*
X0301800Y0150363D03*
X0291800Y0150363D03*
X0281800Y0150363D03*
X0271800Y0150363D03*
X0261800Y0150363D03*
X0251800Y0150363D03*
X0241800Y0150363D03*
X0231800Y0150363D03*
X0221800Y0150363D03*
X0211800Y0150363D03*
X0201800Y0150363D03*
X0191800Y0150363D03*
X0181800Y0150363D03*
X0171800Y0150363D03*
D12*
X0021059Y0223297D02*
X0020291Y0224065D01*
X0021751Y0226149D01*
X0024255Y0226591D01*
X0026339Y0225131D01*
X0026781Y0222627D01*
X0025321Y0220543D01*
X0022817Y0220101D01*
X0020733Y0221561D01*
X0020291Y0224065D01*
X0021509Y0223795D01*
X0022420Y0225097D01*
X0023985Y0225373D01*
X0025287Y0224462D01*
X0025563Y0222897D01*
X0024652Y0221595D01*
X0023087Y0221319D01*
X0021785Y0222230D01*
X0021509Y0223795D01*
X0022726Y0223524D01*
X0023091Y0224046D01*
X0023714Y0224156D01*
X0024236Y0223791D01*
X0024346Y0223168D01*
X0023981Y0222646D01*
X0023358Y0222536D01*
X0022836Y0222901D01*
X0022726Y0223524D01*
X0024435Y0233371D02*
X0025203Y0232603D01*
X0023743Y0230519D01*
X0021239Y0230077D01*
X0019155Y0231537D01*
X0018713Y0234041D01*
X0020173Y0236125D01*
X0022677Y0236567D01*
X0024761Y0235107D01*
X0025203Y0232603D01*
X0023985Y0232873D01*
X0023074Y0231571D01*
X0021509Y0231295D01*
X0020207Y0232206D01*
X0019931Y0233771D01*
X0020842Y0235073D01*
X0022407Y0235349D01*
X0023709Y0234438D01*
X0023985Y0232873D01*
X0022768Y0233144D01*
X0022403Y0232622D01*
X0021780Y0232512D01*
X0021258Y0232877D01*
X0021148Y0233500D01*
X0021513Y0234022D01*
X0022136Y0234132D01*
X0022658Y0233767D01*
X0022768Y0233144D01*
X0059330Y0239524D02*
X0060098Y0238756D01*
X0058638Y0236672D01*
X0056134Y0236230D01*
X0054050Y0237690D01*
X0053608Y0240194D01*
X0055068Y0242278D01*
X0057572Y0242720D01*
X0059656Y0241260D01*
X0060098Y0238756D01*
X0058880Y0239026D01*
X0057969Y0237724D01*
X0056404Y0237448D01*
X0055102Y0238359D01*
X0054826Y0239924D01*
X0055737Y0241226D01*
X0057302Y0241502D01*
X0058604Y0240591D01*
X0058880Y0239026D01*
X0057663Y0239297D01*
X0057298Y0238775D01*
X0056675Y0238665D01*
X0056153Y0239030D01*
X0056043Y0239653D01*
X0056408Y0240175D01*
X0057031Y0240285D01*
X0057553Y0239920D01*
X0057663Y0239297D01*
X0055954Y0229450D02*
X0055186Y0230218D01*
X0056646Y0232302D01*
X0059150Y0232744D01*
X0061234Y0231284D01*
X0061676Y0228780D01*
X0060216Y0226696D01*
X0057712Y0226254D01*
X0055628Y0227714D01*
X0055186Y0230218D01*
X0056404Y0229948D01*
X0057315Y0231250D01*
X0058880Y0231526D01*
X0060182Y0230615D01*
X0060458Y0229050D01*
X0059547Y0227748D01*
X0057982Y0227472D01*
X0056680Y0228383D01*
X0056404Y0229948D01*
X0057621Y0229677D01*
X0057986Y0230199D01*
X0058609Y0230309D01*
X0059131Y0229944D01*
X0059241Y0229321D01*
X0058876Y0228799D01*
X0058253Y0228689D01*
X0057731Y0229054D01*
X0057621Y0229677D01*
X0464134Y0229516D02*
X0463366Y0230284D01*
X0465450Y0231744D01*
X0467954Y0231302D01*
X0469414Y0229218D01*
X0468972Y0226714D01*
X0466888Y0225254D01*
X0464384Y0225696D01*
X0462924Y0227780D01*
X0463366Y0230284D01*
X0464418Y0229615D01*
X0465720Y0230526D01*
X0467285Y0230250D01*
X0468196Y0228948D01*
X0467920Y0227383D01*
X0466618Y0226472D01*
X0465053Y0226748D01*
X0464142Y0228050D01*
X0464418Y0229615D01*
X0465469Y0228944D01*
X0465991Y0229309D01*
X0466614Y0229199D01*
X0466979Y0228677D01*
X0466869Y0228054D01*
X0466347Y0227689D01*
X0465724Y0227799D01*
X0465359Y0228321D01*
X0465469Y0228944D01*
X0469749Y0237571D02*
X0470517Y0236803D01*
X0468433Y0235343D01*
X0465929Y0235785D01*
X0464469Y0237869D01*
X0464911Y0240373D01*
X0466995Y0241833D01*
X0469499Y0241391D01*
X0470959Y0239307D01*
X0470517Y0236803D01*
X0469465Y0237472D01*
X0468163Y0236561D01*
X0466598Y0236837D01*
X0465687Y0238139D01*
X0465963Y0239704D01*
X0467265Y0240615D01*
X0468830Y0240339D01*
X0469741Y0239037D01*
X0469465Y0237472D01*
X0468414Y0238143D01*
X0467892Y0237778D01*
X0467269Y0237888D01*
X0466904Y0238410D01*
X0467014Y0239033D01*
X0467536Y0239398D01*
X0468159Y0239288D01*
X0468524Y0238766D01*
X0468414Y0238143D01*
X0499029Y0223363D02*
X0498261Y0224131D01*
X0500345Y0225591D01*
X0502849Y0225149D01*
X0504309Y0223065D01*
X0503867Y0220561D01*
X0501783Y0219101D01*
X0499279Y0219543D01*
X0497819Y0221627D01*
X0498261Y0224131D01*
X0499313Y0223462D01*
X0500615Y0224373D01*
X0502180Y0224097D01*
X0503091Y0222795D01*
X0502815Y0221230D01*
X0501513Y0220319D01*
X0499948Y0220595D01*
X0499037Y0221897D01*
X0499313Y0223462D01*
X0500364Y0222791D01*
X0500886Y0223156D01*
X0501509Y0223046D01*
X0501874Y0222524D01*
X0501764Y0221901D01*
X0501242Y0221536D01*
X0500619Y0221646D01*
X0500254Y0222168D01*
X0500364Y0222791D01*
X0504644Y0231418D02*
X0505412Y0230650D01*
X0503328Y0229190D01*
X0500824Y0229632D01*
X0499364Y0231716D01*
X0499806Y0234220D01*
X0501890Y0235680D01*
X0504394Y0235238D01*
X0505854Y0233154D01*
X0505412Y0230650D01*
X0504360Y0231319D01*
X0503058Y0230408D01*
X0501493Y0230684D01*
X0500582Y0231986D01*
X0500858Y0233551D01*
X0502160Y0234462D01*
X0503725Y0234186D01*
X0504636Y0232884D01*
X0504360Y0231319D01*
X0503309Y0231990D01*
X0502787Y0231625D01*
X0502164Y0231735D01*
X0501799Y0232257D01*
X0501909Y0232880D01*
X0502431Y0233245D01*
X0503054Y0233135D01*
X0503419Y0232613D01*
X0503309Y0231990D01*
D13*
X0494049Y0233578D03*
X0495594Y0243666D03*
X0478147Y0246743D03*
X0476602Y0236654D03*
X0047998Y0237654D03*
X0046420Y0247629D03*
X0028973Y0244553D03*
X0030551Y0234578D03*
D14*
X0163060Y0214925D03*
X0170540Y0214925D03*
X0179211Y0222206D03*
X0186692Y0222206D03*
X0253685Y0268988D03*
X0261165Y0268988D03*
X0280560Y0261800D03*
X0288040Y0261800D03*
X0297435Y0229300D03*
X0304915Y0229300D03*
X0100224Y0149890D03*
X0092744Y0149890D03*
X0093060Y0140863D03*
X0100540Y0140863D03*
X0056540Y0129800D03*
X0049060Y0129800D03*
X0493060Y0086800D03*
X0500540Y0086800D03*
D15*
X0287843Y0268675D03*
X0280757Y0268675D03*
X0040343Y0199300D03*
X0033257Y0199300D03*
D16*
X0498675Y0118690D03*
X0498675Y0104910D03*
D17*
X0132971Y0084517D02*
X0123129Y0084517D01*
X0123129Y0074674D02*
X0132971Y0074674D01*
X0132971Y0059910D02*
X0123129Y0059910D01*
X0123129Y0050068D02*
X0132971Y0050068D01*
D18*
X0076175Y0096588D03*
X0076175Y0110762D03*
X0113675Y0116901D03*
X0113675Y0131074D03*
X0466800Y0118887D03*
X0466800Y0104713D03*
D19*
X0100326Y0114667D03*
X0097767Y0114667D03*
X0095208Y0114667D03*
X0092649Y0114667D03*
X0092649Y0130808D03*
X0095208Y0130808D03*
X0097767Y0130808D03*
X0100326Y0130808D03*
D20*
X0110619Y0107181D02*
X0110619Y0084543D01*
X0104123Y0084543D01*
X0104123Y0107181D01*
X0110619Y0107181D01*
X0110619Y0086707D02*
X0104123Y0086707D01*
X0104123Y0088871D02*
X0110619Y0088871D01*
X0110619Y0091035D02*
X0104123Y0091035D01*
X0104123Y0093199D02*
X0110619Y0093199D01*
X0110619Y0095363D02*
X0104123Y0095363D01*
X0104123Y0097527D02*
X0110619Y0097527D01*
X0110619Y0099691D02*
X0104123Y0099691D01*
X0104123Y0101855D02*
X0110619Y0101855D01*
X0110619Y0104019D02*
X0104123Y0104019D01*
X0104123Y0106183D02*
X0110619Y0106183D01*
X0087981Y0107181D02*
X0087981Y0084543D01*
X0087981Y0107181D02*
X0094477Y0107181D01*
X0094477Y0084543D01*
X0087981Y0084543D01*
X0087981Y0086707D02*
X0094477Y0086707D01*
X0094477Y0088871D02*
X0087981Y0088871D01*
X0087981Y0091035D02*
X0094477Y0091035D01*
X0094477Y0093199D02*
X0087981Y0093199D01*
X0087981Y0095363D02*
X0094477Y0095363D01*
X0094477Y0097527D02*
X0087981Y0097527D01*
X0087981Y0099691D02*
X0094477Y0099691D01*
X0094477Y0101855D02*
X0087981Y0101855D01*
X0087981Y0104019D02*
X0094477Y0104019D01*
X0094477Y0106183D02*
X0087981Y0106183D01*
D21*
X0124300Y0096175D03*
D22*
X0134300Y0096175D03*
D23*
X0110862Y0144935D03*
X0110862Y0152415D03*
D24*
X0199806Y0215872D03*
X0199806Y0219612D03*
X0199806Y0223353D03*
X0210044Y0223353D03*
X0210044Y0215872D03*
D25*
X0063700Y0170324D03*
X0063700Y0167174D03*
X0063700Y0164024D03*
X0063700Y0160875D03*
X0063700Y0157725D03*
X0063700Y0154576D03*
X0063700Y0151426D03*
X0063700Y0148276D03*
X0029900Y0148276D03*
X0029900Y0151426D03*
X0029900Y0154576D03*
X0029900Y0157725D03*
X0029900Y0160875D03*
X0029900Y0164024D03*
X0029900Y0167174D03*
X0029900Y0170324D03*
D26*
X0035776Y0176200D03*
X0038926Y0176200D03*
X0042076Y0176200D03*
X0045225Y0176200D03*
X0048375Y0176200D03*
X0051524Y0176200D03*
X0054674Y0176200D03*
X0057824Y0176200D03*
X0057824Y0142400D03*
X0054674Y0142400D03*
X0051524Y0142400D03*
X0048375Y0142400D03*
X0045225Y0142400D03*
X0042076Y0142400D03*
X0038926Y0142400D03*
X0035776Y0142400D03*
D27*
X0058100Y0209300D03*
X0095500Y0209300D03*
D28*
X0070146Y0179300D03*
X0063454Y0179300D03*
X0078454Y0169300D03*
X0085146Y0169300D03*
X0080146Y0157300D03*
X0073454Y0157300D03*
X0073454Y0150300D03*
X0080146Y0150300D03*
X0080146Y0144100D03*
X0073454Y0144100D03*
D29*
X0046800Y0099300D03*
X0036800Y0099300D03*
X0036800Y0089300D03*
X0046800Y0089300D03*
X0046800Y0079300D03*
X0036800Y0079300D03*
D30*
X0024300Y0196800D03*
X0024300Y0201800D03*
X0024300Y0206800D03*
X0024300Y0211800D03*
D31*
X0442779Y0042658D03*
X0499821Y0057942D03*
D32*
X0479461Y0076127D03*
X0464269Y0076540D03*
X0451319Y0068586D03*
D33*
G36*
X0435550Y0046736D02*
X0438243Y0039338D01*
X0428996Y0035972D01*
X0426303Y0043370D01*
X0435550Y0046736D01*
G37*
G36*
X0412582Y0030415D02*
X0415275Y0023017D01*
X0406028Y0019651D01*
X0403335Y0027049D01*
X0412582Y0030415D01*
G37*
G36*
X0400059Y0064821D02*
X0402752Y0057423D01*
X0393505Y0054057D01*
X0390812Y0061455D01*
X0400059Y0064821D01*
G37*
G36*
X0412249Y0076801D02*
X0404851Y0074108D01*
X0401485Y0083355D01*
X0408883Y0086048D01*
X0412249Y0076801D01*
G37*
D34*
G36*
X0432228Y0027093D02*
X0430612Y0031531D01*
X0439860Y0034897D01*
X0441476Y0030459D01*
X0432228Y0027093D01*
G37*
D35*
X0103887Y0074300D03*
X0089713Y0074300D03*
D36*
X0084300Y0131454D03*
X0084300Y0138146D03*
D37*
G36*
X0071412Y0076174D02*
X0075175Y0075023D01*
X0072298Y0065612D01*
X0068535Y0066763D01*
X0071412Y0076174D01*
G37*
G36*
X0078942Y0073872D02*
X0082705Y0072721D01*
X0079828Y0063310D01*
X0076065Y0064461D01*
X0078942Y0073872D01*
G37*
G36*
X0094002Y0069268D02*
X0097765Y0068117D01*
X0094888Y0058706D01*
X0091125Y0059857D01*
X0094002Y0069268D01*
G37*
G36*
X0101532Y0066966D02*
X0105295Y0065815D01*
X0102418Y0056404D01*
X0098655Y0057555D01*
X0101532Y0066966D01*
G37*
D38*
X0054619Y0045843D02*
X0014682Y0057788D01*
X0016155Y0057788D01*
X0019054Y0058989D01*
X0021273Y0061208D01*
X0022473Y0064106D01*
X0022473Y0067244D01*
X0021273Y0070142D01*
X0019054Y0072361D01*
X0016877Y0073263D01*
X0022297Y0073263D01*
X0023457Y0074423D01*
X0023457Y0109528D01*
X0022297Y0110688D01*
X0013704Y0110688D01*
X0013704Y0119458D01*
X0014609Y0117272D01*
X0017381Y0114500D01*
X0021003Y0113000D01*
X0024924Y0113000D01*
X0028546Y0114500D01*
X0031319Y0117272D01*
X0032819Y0120894D01*
X0032819Y0124815D01*
X0031484Y0128038D01*
X0032548Y0128038D01*
X0033638Y0128489D01*
X0034137Y0111958D01*
X0033611Y0111431D01*
X0033038Y0110048D01*
X0033038Y0108552D01*
X0033611Y0107169D01*
X0034669Y0106111D01*
X0036052Y0105538D01*
X0037548Y0105538D01*
X0038931Y0106111D01*
X0039219Y0106398D01*
X0039219Y0103906D01*
X0037831Y0104481D01*
X0035769Y0104481D01*
X0033865Y0103692D01*
X0032408Y0102235D01*
X0032220Y0101781D01*
X0031306Y0101781D01*
X0030395Y0101403D01*
X0029697Y0100705D01*
X0027197Y0098205D01*
X0026819Y0097294D01*
X0026819Y0069639D01*
X0026111Y0068931D01*
X0025538Y0067548D01*
X0025538Y0066052D01*
X0026111Y0064669D01*
X0027169Y0063611D01*
X0028552Y0063038D01*
X0030048Y0063038D01*
X0031431Y0063611D01*
X0032489Y0064669D01*
X0033062Y0066052D01*
X0033062Y0067548D01*
X0032489Y0068931D01*
X0031781Y0069639D01*
X0031781Y0077878D01*
X0032408Y0076365D01*
X0033865Y0074908D01*
X0035769Y0074119D01*
X0037831Y0074119D01*
X0039735Y0074908D01*
X0041192Y0076365D01*
X0041923Y0078129D01*
X0042166Y0077381D01*
X0042524Y0076679D01*
X0042986Y0076043D01*
X0043543Y0075486D01*
X0044179Y0075024D01*
X0044881Y0074666D01*
X0045629Y0074423D01*
X0046406Y0074300D01*
X0046714Y0074300D01*
X0046714Y0079214D01*
X0046886Y0079214D01*
X0046886Y0079386D01*
X0051800Y0079386D01*
X0051800Y0079694D01*
X0051677Y0080471D01*
X0051434Y0081219D01*
X0051179Y0081719D01*
X0053898Y0081719D01*
X0053611Y0081431D01*
X0053038Y0080048D01*
X0053038Y0078552D01*
X0053611Y0077169D01*
X0054669Y0076111D01*
X0056052Y0075538D01*
X0057548Y0075538D01*
X0058719Y0076023D01*
X0058719Y0066787D01*
X0059112Y0065838D01*
X0062112Y0062838D01*
X0062838Y0062112D01*
X0063787Y0061719D01*
X0065731Y0061719D01*
X0069612Y0057838D01*
X0070338Y0057112D01*
X0071287Y0056719D01*
X0084813Y0056719D01*
X0085762Y0057112D01*
X0086488Y0057838D01*
X0086881Y0058787D01*
X0086881Y0067817D01*
X0087249Y0068185D01*
X0091598Y0068185D01*
X0088989Y0059651D01*
X0089760Y0058202D01*
X0095094Y0056571D01*
X0096528Y0057333D01*
X0097290Y0055900D01*
X0102624Y0054269D01*
X0104073Y0055039D01*
X0105406Y0059397D01*
X0105647Y0059497D01*
X0110369Y0064219D01*
X0117963Y0064219D01*
X0117528Y0063652D01*
X0117088Y0062889D01*
X0116751Y0062075D01*
X0116522Y0061224D01*
X0116407Y0060351D01*
X0116407Y0060094D01*
X0118175Y0060094D01*
X0118175Y0059726D01*
X0116407Y0059726D01*
X0116407Y0059470D01*
X0116522Y0058596D01*
X0116751Y0057745D01*
X0117088Y0056931D01*
X0117528Y0056168D01*
X0118065Y0055469D01*
X0118545Y0054989D01*
X0118065Y0054509D01*
X0117528Y0053810D01*
X0117088Y0053047D01*
X0116751Y0052233D01*
X0116522Y0051382D01*
X0116407Y0050508D01*
X0116407Y0050252D01*
X0122112Y0050252D01*
X0122112Y0049883D01*
X0116407Y0049883D01*
X0116407Y0049627D01*
X0116522Y0048754D01*
X0116751Y0047903D01*
X0117088Y0047089D01*
X0117528Y0046326D01*
X0118065Y0045627D01*
X0118688Y0045004D01*
X0119387Y0044467D01*
X0120150Y0044027D01*
X0120964Y0043689D01*
X0121815Y0043461D01*
X0122688Y0043346D01*
X0127866Y0043346D01*
X0127866Y0045114D01*
X0128234Y0045114D01*
X0128234Y0043346D01*
X0133412Y0043346D01*
X0134285Y0043461D01*
X0135136Y0043689D01*
X0135950Y0044027D01*
X0136713Y0044467D01*
X0137412Y0045004D01*
X0138035Y0045627D01*
X0138572Y0046326D01*
X0139012Y0047089D01*
X0139349Y0047903D01*
X0139377Y0048005D01*
X0139377Y0042545D01*
X0136635Y0042545D01*
X0135474Y0041384D01*
X0135474Y0026526D01*
X0119048Y0026526D01*
X0096936Y0033332D01*
X0099829Y0043268D01*
X0101093Y0042744D01*
X0102507Y0042744D01*
X0103814Y0043285D01*
X0104815Y0044286D01*
X0105356Y0045593D01*
X0105356Y0047007D01*
X0104815Y0048314D01*
X0103814Y0049315D01*
X0102507Y0049856D01*
X0101093Y0049856D01*
X0099786Y0049315D01*
X0098785Y0048314D01*
X0098452Y0047509D01*
X0066806Y0056977D01*
X0066953Y0057334D01*
X0066953Y0058748D01*
X0066412Y0060055D01*
X0065411Y0061055D01*
X0064105Y0061597D01*
X0062690Y0061597D01*
X0061383Y0061055D01*
X0060383Y0060055D01*
X0059881Y0058843D01*
X0059430Y0058600D01*
X0058722Y0058244D01*
X0058712Y0058212D01*
X0058682Y0058197D01*
X0058455Y0057438D01*
X0054619Y0045843D01*
X0054748Y0046233D02*
X0053313Y0046233D01*
X0055277Y0047832D02*
X0047969Y0047832D01*
X0042625Y0049430D02*
X0055806Y0049430D01*
X0056335Y0051029D02*
X0037281Y0051029D01*
X0031937Y0052627D02*
X0056863Y0052627D01*
X0057392Y0054226D02*
X0026593Y0054226D01*
X0021249Y0055824D02*
X0057921Y0055824D01*
X0058450Y0057423D02*
X0015905Y0057423D01*
X0019086Y0059021D02*
X0059954Y0059021D01*
X0060947Y0060620D02*
X0020685Y0060620D01*
X0021691Y0062218D02*
X0062732Y0062218D01*
X0061133Y0063817D02*
X0031637Y0063817D01*
X0032799Y0065415D02*
X0059535Y0065415D01*
X0058719Y0067014D02*
X0033062Y0067014D01*
X0032622Y0068612D02*
X0058719Y0068612D01*
X0058719Y0070211D02*
X0031781Y0070211D01*
X0031781Y0071809D02*
X0058719Y0071809D01*
X0058719Y0073408D02*
X0031781Y0073408D01*
X0031781Y0075006D02*
X0033767Y0075006D01*
X0032308Y0076605D02*
X0031781Y0076605D01*
X0026819Y0076605D02*
X0023457Y0076605D01*
X0023457Y0078203D02*
X0026819Y0078203D01*
X0026819Y0079802D02*
X0023457Y0079802D01*
X0023457Y0081400D02*
X0026819Y0081400D01*
X0026819Y0082999D02*
X0023457Y0082999D01*
X0023457Y0084597D02*
X0026819Y0084597D01*
X0026819Y0086196D02*
X0023457Y0086196D01*
X0023457Y0087794D02*
X0026819Y0087794D01*
X0026819Y0089393D02*
X0023457Y0089393D01*
X0023457Y0090991D02*
X0026819Y0090991D01*
X0026819Y0092590D02*
X0023457Y0092590D01*
X0023457Y0094188D02*
X0026819Y0094188D01*
X0026819Y0095787D02*
X0023457Y0095787D01*
X0023457Y0097385D02*
X0026857Y0097385D01*
X0027975Y0098984D02*
X0023457Y0098984D01*
X0023457Y0100582D02*
X0029574Y0100582D01*
X0032385Y0102181D02*
X0023457Y0102181D01*
X0023457Y0103779D02*
X0034075Y0103779D01*
X0033803Y0106976D02*
X0023457Y0106976D01*
X0023457Y0105378D02*
X0039219Y0105378D01*
X0033038Y0108575D02*
X0023457Y0108575D01*
X0022811Y0110173D02*
X0033090Y0110173D01*
X0033951Y0111772D02*
X0013704Y0111772D01*
X0013704Y0113370D02*
X0020108Y0113370D01*
X0016912Y0114969D02*
X0013704Y0114969D01*
X0013704Y0116568D02*
X0015314Y0116568D01*
X0014239Y0118166D02*
X0013704Y0118166D01*
X0025820Y0113370D02*
X0034095Y0113370D01*
X0034046Y0114969D02*
X0029015Y0114969D01*
X0030614Y0116568D02*
X0033998Y0116568D01*
X0033950Y0118166D02*
X0031689Y0118166D01*
X0032351Y0119765D02*
X0033902Y0119765D01*
X0033853Y0121363D02*
X0032819Y0121363D01*
X0032819Y0122962D02*
X0033805Y0122962D01*
X0033757Y0124560D02*
X0032819Y0124560D01*
X0032262Y0126159D02*
X0033708Y0126159D01*
X0033660Y0127757D02*
X0031600Y0127757D01*
X0047781Y0134734D02*
X0047781Y0137919D01*
X0059644Y0137919D01*
X0060805Y0139079D01*
X0060805Y0145295D01*
X0066421Y0145295D01*
X0066705Y0144067D01*
X0066697Y0143911D01*
X0066819Y0143571D01*
X0066900Y0143219D01*
X0066991Y0143092D01*
X0067044Y0142945D01*
X0067287Y0142677D01*
X0067497Y0142383D01*
X0067629Y0142300D01*
X0067734Y0142185D01*
X0068061Y0142031D01*
X0068367Y0141839D01*
X0068522Y0141813D01*
X0068663Y0141747D01*
X0069024Y0141729D01*
X0069307Y0141682D01*
X0069307Y0141311D01*
X0070468Y0140150D01*
X0074269Y0140150D01*
X0074269Y0136285D01*
X0061080Y0132688D01*
X0061080Y0133573D01*
X0059920Y0134734D01*
X0053160Y0134734D01*
X0052800Y0134373D01*
X0052439Y0134734D01*
X0047781Y0134734D01*
X0047781Y0135750D02*
X0072306Y0135750D01*
X0074269Y0137348D02*
X0047781Y0137348D01*
X0056540Y0129800D02*
X0060300Y0129800D01*
X0062972Y0127853D02*
X0077974Y0131945D01*
X0078067Y0132017D01*
X0078299Y0131921D01*
X0078251Y0131902D01*
X0065338Y0118988D01*
X0065338Y0118988D01*
X0064612Y0118262D01*
X0064562Y0118142D01*
X0064562Y0119548D01*
X0063989Y0120931D01*
X0063253Y0121667D01*
X0062972Y0127853D01*
X0062977Y0127757D02*
X0074107Y0127757D01*
X0075705Y0129356D02*
X0068480Y0129356D01*
X0072508Y0126159D02*
X0063049Y0126159D01*
X0063122Y0124560D02*
X0070910Y0124560D01*
X0069311Y0122962D02*
X0063195Y0122962D01*
X0063558Y0121363D02*
X0067713Y0121363D01*
X0066114Y0119765D02*
X0064473Y0119765D01*
X0064562Y0118166D02*
X0064572Y0118166D01*
X0064219Y0117223D02*
X0064219Y0103347D01*
X0064051Y0103173D01*
X0064047Y0103164D01*
X0064040Y0103157D01*
X0063866Y0102707D01*
X0063687Y0102256D01*
X0063687Y0102246D01*
X0063683Y0102237D01*
X0063694Y0101754D01*
X0063806Y0094381D01*
X0063787Y0094381D01*
X0063584Y0094297D01*
X0063367Y0094261D01*
X0063114Y0094102D01*
X0062838Y0093988D01*
X0062683Y0093833D01*
X0059281Y0091707D01*
X0059281Y0109794D01*
X0058903Y0110705D01*
X0058205Y0111403D01*
X0057294Y0111781D01*
X0055220Y0111781D01*
X0056417Y0112277D01*
X0058359Y0114219D01*
X0058896Y0115516D01*
X0060052Y0115038D01*
X0061548Y0115038D01*
X0062931Y0115611D01*
X0063989Y0116669D01*
X0064219Y0117223D01*
X0064219Y0116568D02*
X0063888Y0116568D01*
X0064219Y0114969D02*
X0058669Y0114969D01*
X0057511Y0113370D02*
X0064219Y0113370D01*
X0064219Y0111772D02*
X0057316Y0111772D01*
X0059124Y0110173D02*
X0064219Y0110173D01*
X0064219Y0108575D02*
X0059281Y0108575D01*
X0059281Y0106976D02*
X0064219Y0106976D01*
X0064219Y0105378D02*
X0059281Y0105378D01*
X0059281Y0103779D02*
X0064219Y0103779D01*
X0063685Y0102181D02*
X0059281Y0102181D01*
X0059281Y0100582D02*
X0063712Y0100582D01*
X0063736Y0098984D02*
X0059281Y0098984D01*
X0059281Y0097385D02*
X0063760Y0097385D01*
X0063785Y0095787D02*
X0059281Y0095787D01*
X0059281Y0094188D02*
X0063251Y0094188D01*
X0060694Y0092590D02*
X0059281Y0092590D01*
X0053598Y0081400D02*
X0051341Y0081400D01*
X0051783Y0079802D02*
X0053038Y0079802D01*
X0051800Y0079214D02*
X0046886Y0079214D01*
X0046886Y0074300D01*
X0047194Y0074300D01*
X0047971Y0074423D01*
X0048719Y0074666D01*
X0049421Y0075024D01*
X0050057Y0075486D01*
X0050614Y0076043D01*
X0051076Y0076679D01*
X0051434Y0077381D01*
X0051677Y0078129D01*
X0051800Y0078906D01*
X0051800Y0079214D01*
X0051689Y0078203D02*
X0053182Y0078203D01*
X0054175Y0076605D02*
X0051022Y0076605D01*
X0049386Y0075006D02*
X0058719Y0075006D01*
X0046886Y0075006D02*
X0046714Y0075006D01*
X0046714Y0076605D02*
X0046886Y0076605D01*
X0046886Y0078203D02*
X0046714Y0078203D01*
X0044214Y0075006D02*
X0039833Y0075006D01*
X0041292Y0076605D02*
X0042578Y0076605D01*
X0041923Y0078129D02*
X0041923Y0078129D01*
X0026819Y0075006D02*
X0023457Y0075006D01*
X0022442Y0073408D02*
X0026819Y0073408D01*
X0026819Y0071809D02*
X0019606Y0071809D01*
X0021204Y0070211D02*
X0026819Y0070211D01*
X0025978Y0068612D02*
X0021906Y0068612D01*
X0022473Y0067014D02*
X0025538Y0067014D01*
X0025801Y0065415D02*
X0022473Y0065415D01*
X0022353Y0063817D02*
X0026963Y0063817D01*
X0065847Y0060620D02*
X0066830Y0060620D01*
X0066840Y0059021D02*
X0068429Y0059021D01*
X0066953Y0057423D02*
X0070027Y0057423D01*
X0070660Y0055824D02*
X0097537Y0055824D01*
X0092308Y0057423D02*
X0086073Y0057423D01*
X0086881Y0059021D02*
X0089324Y0059021D01*
X0089286Y0060620D02*
X0086881Y0060620D01*
X0086881Y0062218D02*
X0089774Y0062218D01*
X0090263Y0063817D02*
X0086881Y0063817D01*
X0086881Y0065415D02*
X0090752Y0065415D01*
X0091240Y0067014D02*
X0086881Y0067014D01*
X0105291Y0059021D02*
X0116467Y0059021D01*
X0116443Y0060620D02*
X0106770Y0060620D01*
X0108368Y0062218D02*
X0116810Y0062218D01*
X0117654Y0063817D02*
X0109967Y0063817D01*
X0104802Y0057423D02*
X0116884Y0057423D01*
X0117792Y0055824D02*
X0104313Y0055824D01*
X0103535Y0049430D02*
X0116433Y0049430D01*
X0116476Y0051029D02*
X0086687Y0051029D01*
X0081345Y0052627D02*
X0116914Y0052627D01*
X0117847Y0054226D02*
X0076003Y0054226D01*
X0092030Y0049430D02*
X0100065Y0049430D01*
X0098586Y0047832D02*
X0097372Y0047832D01*
X0099762Y0043036D02*
X0100388Y0043036D01*
X0099296Y0041437D02*
X0135527Y0041437D01*
X0135474Y0039839D02*
X0098830Y0039839D01*
X0098365Y0038240D02*
X0135474Y0038240D01*
X0135474Y0036642D02*
X0097899Y0036642D01*
X0097434Y0035043D02*
X0135474Y0035043D01*
X0135474Y0033445D02*
X0096968Y0033445D01*
X0101762Y0031846D02*
X0135474Y0031846D01*
X0135474Y0030248D02*
X0106956Y0030248D01*
X0112149Y0028649D02*
X0135474Y0028649D01*
X0135474Y0027051D02*
X0117343Y0027051D01*
X0103212Y0043036D02*
X0139377Y0043036D01*
X0139377Y0044634D02*
X0136931Y0044634D01*
X0138501Y0046233D02*
X0139377Y0046233D01*
X0139377Y0047832D02*
X0139320Y0047832D01*
X0128234Y0044634D02*
X0127866Y0044634D01*
X0119169Y0044634D02*
X0104959Y0044634D01*
X0105356Y0046233D02*
X0117599Y0046233D01*
X0116780Y0047832D02*
X0105015Y0047832D01*
X0114300Y0081800D02*
X0091800Y0081800D01*
X0091229Y0081800D01*
X0091229Y0095862D01*
X0092649Y0095407D01*
X0092649Y0114667D01*
X0095208Y0114667D02*
X0096800Y0114667D01*
X0097767Y0114667D01*
X0097459Y0114667D02*
X0095531Y0114667D01*
X0095531Y0114667D01*
X0097459Y0114667D01*
X0097459Y0114667D01*
X0100326Y0114667D02*
X0101433Y0114667D01*
X0106800Y0109300D01*
X0106800Y0094558D01*
X0107371Y0095862D01*
X0114300Y0091487D02*
X0114300Y0081800D01*
X0114300Y0091487D02*
X0114925Y0091487D01*
X0113683Y0102702D02*
X0113683Y0107791D01*
X0113216Y0108917D01*
X0112354Y0109779D01*
X0111862Y0109983D01*
X0112900Y0109983D01*
X0112900Y0116126D01*
X0108725Y0116126D01*
X0108725Y0111546D01*
X0108813Y0111220D01*
X0108375Y0111658D01*
X0103193Y0116840D01*
X0103193Y0117456D01*
X0102033Y0118616D01*
X0098620Y0118616D01*
X0098439Y0118435D01*
X0097767Y0118435D01*
X0096644Y0118435D01*
X0096487Y0118393D01*
X0096331Y0118435D01*
X0095208Y0118435D01*
X0095208Y0117764D01*
X0095208Y0118435D01*
X0094536Y0118435D01*
X0094355Y0118616D01*
X0093640Y0118616D01*
X0093544Y0118656D01*
X0090994Y0118656D01*
X0090082Y0118278D01*
X0089384Y0117580D01*
X0088759Y0116955D01*
X0088381Y0116044D01*
X0088381Y0114078D01*
X0081125Y0106821D01*
X0081125Y0109987D01*
X0076950Y0109987D01*
X0076950Y0111536D01*
X0081125Y0111536D01*
X0081125Y0116117D01*
X0081002Y0116574D01*
X0080765Y0116985D01*
X0080430Y0117320D01*
X0080019Y0117557D01*
X0079562Y0117680D01*
X0076950Y0117680D01*
X0076950Y0111536D01*
X0075400Y0111536D01*
X0075400Y0109987D01*
X0071225Y0109987D01*
X0071225Y0105407D01*
X0071348Y0104949D01*
X0071585Y0104538D01*
X0071716Y0104408D01*
X0069381Y0104355D01*
X0069381Y0115731D01*
X0080783Y0127132D01*
X0085227Y0127132D01*
X0085649Y0127307D01*
X0087089Y0127307D01*
X0088250Y0128468D01*
X0088250Y0128618D01*
X0088952Y0128327D01*
X0089782Y0128327D01*
X0089782Y0128019D01*
X0090942Y0126859D01*
X0097474Y0126859D01*
X0097822Y0126020D01*
X0098520Y0125322D01*
X0099770Y0124072D01*
X0100518Y0123762D01*
X0100669Y0123611D01*
X0102052Y0123038D01*
X0103548Y0123038D01*
X0104931Y0123611D01*
X0105014Y0123694D01*
X0109826Y0123694D01*
X0109420Y0123459D01*
X0109085Y0123124D01*
X0108848Y0122714D01*
X0108725Y0122256D01*
X0108725Y0117676D01*
X0112900Y0117676D01*
X0112900Y0116126D01*
X0114450Y0116126D01*
X0117476Y0116126D01*
X0117838Y0116488D01*
X0118584Y0117234D01*
X0118401Y0117676D01*
X0114450Y0117676D01*
X0114450Y0116126D01*
X0114450Y0109983D01*
X0116719Y0109983D01*
X0116719Y0103231D01*
X0116290Y0102962D01*
X0116048Y0103062D01*
X0114552Y0103062D01*
X0113683Y0102702D01*
X0113683Y0103779D02*
X0116719Y0103779D01*
X0116719Y0105378D02*
X0113683Y0105378D01*
X0113683Y0106976D02*
X0116719Y0106976D01*
X0116719Y0108575D02*
X0113358Y0108575D01*
X0112900Y0110173D02*
X0114450Y0110173D01*
X0114450Y0111772D02*
X0112900Y0111772D01*
X0112900Y0113370D02*
X0114450Y0113370D01*
X0114450Y0114969D02*
X0112900Y0114969D01*
X0112900Y0116568D02*
X0103466Y0116568D01*
X0102483Y0118166D02*
X0108725Y0118166D01*
X0108725Y0119765D02*
X0073415Y0119765D01*
X0072788Y0117680D02*
X0072331Y0117557D01*
X0071920Y0117320D01*
X0071585Y0116985D01*
X0071348Y0116574D01*
X0071225Y0116117D01*
X0071225Y0111536D01*
X0075400Y0111536D01*
X0075400Y0117680D01*
X0072788Y0117680D01*
X0071816Y0118166D02*
X0089970Y0118166D01*
X0088598Y0116568D02*
X0081004Y0116568D01*
X0081125Y0114969D02*
X0088381Y0114969D01*
X0087674Y0113370D02*
X0081125Y0113370D01*
X0081125Y0111772D02*
X0086076Y0111772D01*
X0084477Y0110173D02*
X0076950Y0110173D01*
X0075400Y0110173D02*
X0069381Y0110173D01*
X0069381Y0108575D02*
X0071225Y0108575D01*
X0071225Y0106976D02*
X0069381Y0106976D01*
X0069381Y0105378D02*
X0071233Y0105378D01*
X0071225Y0111772D02*
X0069381Y0111772D01*
X0069381Y0113370D02*
X0071225Y0113370D01*
X0071225Y0114969D02*
X0069381Y0114969D01*
X0070218Y0116568D02*
X0071346Y0116568D01*
X0075400Y0116568D02*
X0076950Y0116568D01*
X0076950Y0114969D02*
X0075400Y0114969D01*
X0075400Y0113370D02*
X0076950Y0113370D01*
X0076950Y0111772D02*
X0075400Y0111772D01*
X0081125Y0108575D02*
X0082879Y0108575D01*
X0081280Y0106976D02*
X0081125Y0106976D01*
X0095208Y0117764D02*
X0095208Y0117764D01*
X0095208Y0118166D02*
X0095208Y0118166D01*
X0097767Y0118166D02*
X0097767Y0118166D01*
X0097767Y0118435D02*
X0097767Y0117764D01*
X0097767Y0117764D01*
X0097767Y0118435D01*
X0099281Y0124560D02*
X0078210Y0124560D01*
X0076612Y0122962D02*
X0108991Y0122962D01*
X0108725Y0121363D02*
X0075013Y0121363D01*
X0079809Y0126159D02*
X0097764Y0126159D01*
X0090044Y0127757D02*
X0087539Y0127757D01*
X0089973Y0133789D02*
X0089428Y0134334D01*
X0089143Y0134652D01*
X0089081Y0134681D01*
X0089032Y0134730D01*
X0088638Y0134894D01*
X0088253Y0135078D01*
X0088184Y0135082D01*
X0088120Y0135108D01*
X0087843Y0135108D01*
X0087946Y0135286D01*
X0088068Y0135744D01*
X0088068Y0137962D01*
X0084484Y0137962D01*
X0084484Y0138331D01*
X0084116Y0138331D01*
X0084116Y0141134D01*
X0084293Y0141311D01*
X0084293Y0146889D01*
X0083982Y0147200D01*
X0084293Y0147511D01*
X0084293Y0148589D01*
X0084617Y0148662D01*
X0084669Y0148611D01*
X0086052Y0148038D01*
X0087548Y0148038D01*
X0088203Y0148309D01*
X0088203Y0146117D01*
X0089102Y0145218D01*
X0088520Y0144636D01*
X0088520Y0137089D01*
X0089680Y0135929D01*
X0091038Y0135929D01*
X0091259Y0135395D01*
X0091896Y0134758D01*
X0090942Y0134758D01*
X0089973Y0133789D01*
X0089611Y0134151D02*
X0090336Y0134151D01*
X0091112Y0135750D02*
X0088068Y0135750D01*
X0088068Y0137348D02*
X0088520Y0137348D01*
X0088068Y0138331D02*
X0084484Y0138331D01*
X0084484Y0142112D01*
X0086505Y0142112D01*
X0086963Y0141989D01*
X0087374Y0141752D01*
X0087709Y0141417D01*
X0087946Y0141007D01*
X0088068Y0140549D01*
X0088068Y0138331D01*
X0088068Y0138947D02*
X0088520Y0138947D01*
X0088520Y0140545D02*
X0088068Y0140545D01*
X0088520Y0142144D02*
X0084293Y0142144D01*
X0084293Y0143742D02*
X0088520Y0143742D01*
X0088980Y0145341D02*
X0084293Y0145341D01*
X0084243Y0146939D02*
X0088203Y0146939D01*
X0084845Y0148538D02*
X0084293Y0148538D01*
X0083564Y0153818D02*
X0083454Y0153928D01*
X0083752Y0154226D01*
X0083989Y0154637D01*
X0084112Y0155095D01*
X0084112Y0157116D01*
X0080331Y0157116D01*
X0080331Y0157484D01*
X0084112Y0157484D01*
X0084112Y0158041D01*
X0085153Y0157610D01*
X0086572Y0157610D01*
X0087882Y0158152D01*
X0088424Y0158694D01*
X0101669Y0158694D01*
X0102580Y0159072D01*
X0105653Y0162144D01*
X0122204Y0162144D01*
X0122122Y0156502D01*
X0115615Y0149995D01*
X0115615Y0151936D01*
X0111342Y0151936D01*
X0111342Y0152895D01*
X0110383Y0152895D01*
X0110383Y0156774D01*
X0107673Y0156774D01*
X0107215Y0156652D01*
X0106805Y0156415D01*
X0106469Y0156079D01*
X0106232Y0155669D01*
X0106110Y0155211D01*
X0106110Y0152895D01*
X0110383Y0152895D01*
X0110383Y0151936D01*
X0106110Y0151936D01*
X0106110Y0149619D01*
X0106232Y0149161D01*
X0106363Y0148935D01*
X0106259Y0148830D01*
X0104583Y0147154D01*
X0104583Y0149411D01*
X0100703Y0149411D01*
X0100703Y0150370D01*
X0099744Y0150370D01*
X0099744Y0154643D01*
X0097428Y0154643D01*
X0096970Y0154520D01*
X0096626Y0154322D01*
X0096123Y0154824D01*
X0089364Y0154824D01*
X0089230Y0154690D01*
X0088931Y0154989D01*
X0087548Y0155562D01*
X0086052Y0155562D01*
X0084669Y0154989D01*
X0083611Y0153931D01*
X0083564Y0153818D01*
X0084068Y0154932D02*
X0084611Y0154932D01*
X0084112Y0156530D02*
X0107005Y0156530D01*
X0106110Y0154932D02*
X0088989Y0154932D01*
X0087825Y0158129D02*
X0122145Y0158129D01*
X0122169Y0159727D02*
X0103236Y0159727D01*
X0104835Y0161326D02*
X0122192Y0161326D01*
X0122122Y0156530D02*
X0114720Y0156530D01*
X0114920Y0156415D02*
X0114510Y0156652D01*
X0114052Y0156774D01*
X0111342Y0156774D01*
X0111342Y0152895D01*
X0115615Y0152895D01*
X0115615Y0155211D01*
X0115493Y0155669D01*
X0115256Y0156079D01*
X0114920Y0156415D01*
X0115615Y0154932D02*
X0120552Y0154932D01*
X0118953Y0153333D02*
X0115615Y0153333D01*
X0115615Y0151735D02*
X0117355Y0151735D01*
X0115756Y0150136D02*
X0115615Y0150136D01*
X0111342Y0153333D02*
X0110383Y0153333D01*
X0110383Y0154932D02*
X0111342Y0154932D01*
X0111342Y0156530D02*
X0110383Y0156530D01*
X0106110Y0153333D02*
X0104515Y0153333D01*
X0104460Y0153538D02*
X0104223Y0153948D01*
X0103888Y0154284D01*
X0103478Y0154520D01*
X0103020Y0154643D01*
X0100703Y0154643D01*
X0100703Y0150370D01*
X0104583Y0150370D01*
X0104583Y0153080D01*
X0104460Y0153538D01*
X0104583Y0151735D02*
X0106110Y0151735D01*
X0106110Y0150136D02*
X0100703Y0150136D01*
X0100703Y0151735D02*
X0099744Y0151735D01*
X0099744Y0153333D02*
X0100703Y0153333D01*
X0104583Y0148538D02*
X0105966Y0148538D01*
X0084484Y0140545D02*
X0084116Y0140545D01*
X0084116Y0138947D02*
X0084484Y0138947D01*
X0074269Y0138947D02*
X0060672Y0138947D01*
X0060805Y0140545D02*
X0070073Y0140545D01*
X0067821Y0142144D02*
X0060805Y0142144D01*
X0060805Y0143742D02*
X0066758Y0143742D01*
X0066445Y0134151D02*
X0060503Y0134151D01*
X0074341Y0130954D02*
X0077304Y0130954D01*
X0105064Y0114969D02*
X0108725Y0114969D01*
X0108725Y0113370D02*
X0106663Y0113370D01*
X0108261Y0111772D02*
X0108725Y0111772D01*
X0114450Y0116568D02*
X0117917Y0116568D01*
X0135238Y0106487D02*
X0135550Y0106800D01*
X0135550Y0138050D01*
X0141800Y0144300D01*
X0235737Y0144300D01*
X0241800Y0150363D01*
X0243237Y0141800D02*
X0251800Y0150363D01*
X0243237Y0141800D02*
X0143050Y0141800D01*
X0138050Y0136800D01*
X0138050Y0114300D01*
X0146175Y0106175D01*
X0146175Y0098362D01*
X0143363Y0095550D01*
X0141488Y0095550D01*
X0134300Y0096175D02*
X0133675Y0096175D01*
X0135238Y0104300D02*
X0135238Y0106487D01*
X0113409Y0130808D02*
X0113675Y0131074D01*
X0080331Y0157484D02*
X0079962Y0157484D01*
X0079962Y0161068D01*
X0079381Y0161068D01*
X0079381Y0161313D01*
X0078988Y0162262D01*
X0078262Y0162988D01*
X0077313Y0163381D01*
X0068000Y0163381D01*
X0068000Y0164024D01*
X0063700Y0164024D01*
X0063700Y0164024D01*
X0068000Y0164024D01*
X0068000Y0164219D01*
X0072313Y0164219D01*
X0073262Y0164612D01*
X0073988Y0165338D01*
X0074381Y0166287D01*
X0074381Y0166437D01*
X0075468Y0165350D01*
X0081439Y0165350D01*
X0081942Y0165853D01*
X0082286Y0165654D01*
X0082744Y0165531D01*
X0084962Y0165531D01*
X0084962Y0169116D01*
X0085331Y0169116D01*
X0085331Y0169484D01*
X0089112Y0169484D01*
X0089112Y0171505D01*
X0088989Y0171963D01*
X0088752Y0172374D01*
X0088417Y0172709D01*
X0088007Y0172946D01*
X0087549Y0173068D01*
X0085331Y0173068D01*
X0085331Y0169484D01*
X0084962Y0169484D01*
X0084962Y0173068D01*
X0082744Y0173068D01*
X0082286Y0172946D01*
X0081942Y0172747D01*
X0081439Y0173250D01*
X0081035Y0173250D01*
X0081035Y0174219D01*
X0087313Y0174219D01*
X0088262Y0174612D01*
X0088988Y0175338D01*
X0089381Y0176287D01*
X0089381Y0203169D01*
X0107321Y0203169D01*
X0108481Y0204329D01*
X0108481Y0214019D01*
X0114231Y0214019D01*
X0114714Y0213995D01*
X0114782Y0214019D01*
X0114853Y0214019D01*
X0115300Y0214204D01*
X0115756Y0214367D01*
X0115809Y0214415D01*
X0115875Y0214442D01*
X0116218Y0214785D01*
X0116577Y0215109D01*
X0116607Y0215174D01*
X0116658Y0215225D01*
X0116843Y0215672D01*
X0123173Y0229035D01*
X0123067Y0221698D01*
X0122747Y0221378D01*
X0122019Y0219621D01*
X0122019Y0208349D01*
X0122747Y0206592D01*
X0122846Y0206492D01*
X0122827Y0205176D01*
X0122161Y0203569D01*
X0122161Y0201724D01*
X0122756Y0200288D01*
X0122637Y0192081D01*
X0106839Y0192081D01*
X0106431Y0192489D01*
X0105048Y0193062D01*
X0103552Y0193062D01*
X0102169Y0192489D01*
X0101111Y0191431D01*
X0100538Y0190048D01*
X0100538Y0188552D01*
X0101111Y0187169D01*
X0102169Y0186111D01*
X0103552Y0185538D01*
X0105048Y0185538D01*
X0106431Y0186111D01*
X0106839Y0186519D01*
X0122557Y0186519D01*
X0122284Y0167706D01*
X0104372Y0167706D01*
X0103350Y0167283D01*
X0102567Y0166500D01*
X0102267Y0165776D01*
X0100147Y0163656D01*
X0088424Y0163656D01*
X0087882Y0164198D01*
X0086572Y0164740D01*
X0085153Y0164740D01*
X0083843Y0164198D01*
X0082840Y0163195D01*
X0082297Y0161884D01*
X0082297Y0161068D01*
X0080331Y0161068D01*
X0080331Y0157484D01*
X0080331Y0158129D02*
X0079962Y0158129D01*
X0079962Y0159727D02*
X0080331Y0159727D01*
X0079376Y0161326D02*
X0082297Y0161326D01*
X0082728Y0162924D02*
X0078326Y0162924D01*
X0074697Y0166121D02*
X0074313Y0166121D01*
X0073047Y0164523D02*
X0084628Y0164523D01*
X0085331Y0165531D02*
X0087549Y0165531D01*
X0088007Y0165654D01*
X0088417Y0165891D01*
X0088752Y0166226D01*
X0088989Y0166637D01*
X0089112Y0167095D01*
X0089112Y0169116D01*
X0085331Y0169116D01*
X0085331Y0165531D01*
X0085331Y0166121D02*
X0084962Y0166121D01*
X0084962Y0167720D02*
X0085331Y0167720D01*
X0085331Y0169318D02*
X0122308Y0169318D01*
X0122284Y0167720D02*
X0089112Y0167720D01*
X0088647Y0166121D02*
X0102410Y0166121D01*
X0101014Y0164523D02*
X0087097Y0164523D01*
X0085331Y0170917D02*
X0084962Y0170917D01*
X0084962Y0172515D02*
X0085331Y0172515D01*
X0088610Y0172515D02*
X0122354Y0172515D01*
X0122331Y0170917D02*
X0089112Y0170917D01*
X0081035Y0174114D02*
X0122377Y0174114D01*
X0122400Y0175712D02*
X0089143Y0175712D01*
X0089381Y0177311D02*
X0122423Y0177311D01*
X0122447Y0178909D02*
X0089381Y0178909D01*
X0089381Y0180508D02*
X0122470Y0180508D01*
X0122493Y0182106D02*
X0089381Y0182106D01*
X0089381Y0183705D02*
X0122516Y0183705D01*
X0122539Y0185303D02*
X0089381Y0185303D01*
X0089381Y0186902D02*
X0101377Y0186902D01*
X0100559Y0188501D02*
X0089381Y0188501D01*
X0089381Y0190099D02*
X0100559Y0190099D01*
X0101377Y0191698D02*
X0089381Y0191698D01*
X0089381Y0193296D02*
X0122655Y0193296D01*
X0122678Y0194895D02*
X0089381Y0194895D01*
X0089381Y0196493D02*
X0122701Y0196493D01*
X0122725Y0198092D02*
X0089381Y0198092D01*
X0089381Y0199690D02*
X0122748Y0199690D01*
X0122342Y0201289D02*
X0089381Y0201289D01*
X0089381Y0202887D02*
X0122161Y0202887D01*
X0122541Y0204486D02*
X0108481Y0204486D01*
X0108481Y0206084D02*
X0122840Y0206084D01*
X0122295Y0207683D02*
X0108481Y0207683D01*
X0108481Y0209281D02*
X0122019Y0209281D01*
X0122019Y0210880D02*
X0108481Y0210880D01*
X0108481Y0212478D02*
X0122019Y0212478D01*
X0122019Y0214077D02*
X0114993Y0214077D01*
X0116845Y0215675D02*
X0122019Y0215675D01*
X0122019Y0217274D02*
X0117602Y0217274D01*
X0118359Y0218872D02*
X0122019Y0218872D01*
X0122371Y0220471D02*
X0119116Y0220471D01*
X0119873Y0222069D02*
X0123072Y0222069D01*
X0123095Y0223668D02*
X0120630Y0223668D01*
X0121388Y0225266D02*
X0123118Y0225266D01*
X0123142Y0226865D02*
X0122145Y0226865D01*
X0122902Y0228463D02*
X0123165Y0228463D01*
X0114300Y0216800D02*
X0136800Y0264300D01*
X0211800Y0264300D01*
X0231800Y0244300D01*
X0236800Y0249300D02*
X0216800Y0269300D01*
X0131800Y0269300D01*
X0110129Y0242629D01*
X0063800Y0242800D01*
X0060971Y0247629D01*
X0046420Y0247629D01*
X0041471Y0247645D02*
X0032620Y0247645D01*
X0032610Y0247659D02*
X0032079Y0248190D01*
X0031472Y0248631D01*
X0030803Y0248972D01*
X0030090Y0249204D01*
X0029348Y0249321D01*
X0028598Y0249321D01*
X0028327Y0249278D01*
X0029122Y0244766D01*
X0028760Y0244702D01*
X0028759Y0244702D02*
X0028823Y0244339D01*
X0024305Y0243543D01*
X0024322Y0243436D01*
X0024554Y0242722D01*
X0024895Y0242054D01*
X0025336Y0241446D01*
X0025867Y0240916D01*
X0026474Y0240474D01*
X0027143Y0240134D01*
X0027856Y0239902D01*
X0028598Y0239784D01*
X0029348Y0239784D01*
X0029619Y0239827D01*
X0028824Y0244339D01*
X0029186Y0244403D01*
X0029983Y0239885D01*
X0030090Y0239902D01*
X0030803Y0240134D01*
X0031184Y0240328D01*
X0031326Y0239527D01*
X0029566Y0239527D01*
X0027747Y0238774D01*
X0026355Y0237381D01*
X0026344Y0237355D01*
X0023322Y0239471D01*
X0020970Y0239057D01*
X0024353Y0243925D01*
X0028759Y0244702D01*
X0028760Y0244702D02*
X0027977Y0249141D01*
X0028157Y0249401D01*
X0043843Y0251919D01*
X0043617Y0251825D01*
X0042224Y0250433D01*
X0041471Y0248614D01*
X0041471Y0246645D01*
X0042224Y0244826D01*
X0042991Y0244059D01*
X0042719Y0244011D01*
X0033689Y0242419D01*
X0033193Y0242331D01*
X0033392Y0242722D01*
X0033624Y0243436D01*
X0033741Y0244178D01*
X0033741Y0244928D01*
X0033699Y0245199D01*
X0029187Y0244403D01*
X0029123Y0244766D01*
X0033641Y0245563D01*
X0033624Y0245669D01*
X0033392Y0246383D01*
X0033051Y0247052D01*
X0032610Y0247659D01*
X0033501Y0246047D02*
X0041718Y0246047D01*
X0042601Y0244448D02*
X0033741Y0244448D01*
X0033434Y0242850D02*
X0036133Y0242850D01*
X0031303Y0239653D02*
X0021384Y0239653D01*
X0022495Y0241251D02*
X0025531Y0241251D01*
X0024512Y0242850D02*
X0023605Y0242850D01*
X0027320Y0244448D02*
X0028804Y0244448D01*
X0029179Y0244448D02*
X0029442Y0244448D01*
X0029460Y0242850D02*
X0029086Y0242850D01*
X0029368Y0241251D02*
X0029742Y0241251D01*
X0027028Y0238054D02*
X0025346Y0238054D01*
X0028522Y0246047D02*
X0028897Y0246047D01*
X0028615Y0247645D02*
X0028241Y0247645D01*
X0028333Y0249244D02*
X0028048Y0249244D01*
X0029837Y0249244D02*
X0041732Y0249244D01*
X0042634Y0250842D02*
X0037137Y0250842D01*
X0045827Y0242680D02*
X0047405Y0242680D01*
X0049224Y0243433D01*
X0050616Y0244826D01*
X0050626Y0244848D01*
X0053815Y0244848D01*
X0053469Y0244787D01*
X0051049Y0241332D01*
X0050497Y0241732D01*
X0049829Y0242073D01*
X0049115Y0242305D01*
X0048373Y0242423D01*
X0047623Y0242423D01*
X0047352Y0242380D01*
X0048148Y0237868D01*
X0047785Y0237804D01*
X0046988Y0242322D01*
X0046882Y0242305D01*
X0046168Y0242073D01*
X0045953Y0241964D01*
X0045827Y0242680D01*
X0047177Y0241251D02*
X0047551Y0241251D01*
X0047459Y0239653D02*
X0047833Y0239653D01*
X0047741Y0238054D02*
X0048115Y0238054D01*
X0048212Y0237504D02*
X0049008Y0232986D01*
X0049115Y0233003D01*
X0049829Y0233235D01*
X0050497Y0233576D01*
X0051105Y0234017D01*
X0051635Y0234548D01*
X0052077Y0235155D01*
X0052287Y0235567D01*
X0054494Y0234022D01*
X0052281Y0230863D01*
X0053118Y0226115D01*
X0055594Y0224381D01*
X0039457Y0224381D01*
X0045977Y0225531D01*
X0047610Y0225819D01*
X0048548Y0227159D01*
X0048560Y0227176D01*
X0048273Y0228809D01*
X0047552Y0232897D01*
X0047623Y0232886D01*
X0048373Y0232886D01*
X0048644Y0232928D01*
X0047849Y0237440D01*
X0048212Y0237504D01*
X0048397Y0236456D02*
X0048022Y0236456D01*
X0048304Y0234857D02*
X0048678Y0234857D01*
X0048586Y0233259D02*
X0048960Y0233259D01*
X0049876Y0233259D02*
X0053959Y0233259D01*
X0053301Y0234857D02*
X0051861Y0234857D01*
X0052840Y0231660D02*
X0047770Y0231660D01*
X0048052Y0230062D02*
X0052422Y0230062D01*
X0052704Y0228463D02*
X0048333Y0228463D01*
X0048342Y0226865D02*
X0052986Y0226865D01*
X0054330Y0225266D02*
X0044477Y0225266D01*
X0033241Y0218038D02*
X0033038Y0217548D01*
X0033038Y0216052D01*
X0033611Y0214669D01*
X0034319Y0213961D01*
X0034319Y0206781D01*
X0028806Y0206781D01*
X0028281Y0206563D01*
X0028281Y0207592D01*
X0027675Y0209055D01*
X0027292Y0209438D01*
X0027668Y0210000D01*
X0027954Y0210692D01*
X0028100Y0211426D01*
X0028100Y0211800D01*
X0028100Y0212174D01*
X0027954Y0212908D01*
X0027668Y0213600D01*
X0027252Y0214222D01*
X0026722Y0214752D01*
X0026100Y0215168D01*
X0025408Y0215454D01*
X0024674Y0215600D01*
X0024300Y0215600D01*
X0024300Y0215320D01*
X0024300Y0215321D01*
X0024300Y0215600D01*
X0024256Y0215600D01*
X0024312Y0216142D01*
X0024125Y0216372D01*
X0023936Y0217507D01*
X0026921Y0218034D01*
X0028038Y0219629D01*
X0028038Y0219198D01*
X0029198Y0218038D01*
X0033241Y0218038D01*
X0033038Y0217274D02*
X0023974Y0217274D01*
X0024264Y0215675D02*
X0033194Y0215675D01*
X0034203Y0214077D02*
X0027349Y0214077D01*
X0028040Y0212478D02*
X0034319Y0212478D01*
X0034319Y0210880D02*
X0027991Y0210880D01*
X0028100Y0211800D02*
X0024300Y0211800D01*
X0028100Y0211800D01*
X0027449Y0209281D02*
X0034319Y0209281D01*
X0034319Y0207683D02*
X0028244Y0207683D01*
X0024300Y0211800D02*
X0024300Y0211800D01*
X0021308Y0209438D02*
X0020925Y0209055D01*
X0020319Y0207592D01*
X0020319Y0206008D01*
X0020925Y0204545D01*
X0021170Y0204300D01*
X0020925Y0204055D01*
X0020319Y0202592D01*
X0020319Y0201008D01*
X0020925Y0199545D01*
X0021170Y0199300D01*
X0020925Y0199055D01*
X0020319Y0197592D01*
X0020319Y0196881D01*
X0012787Y0196881D01*
X0012485Y0196756D01*
X0012879Y0197637D01*
X0012913Y0197652D01*
X0013211Y0198382D01*
X0013216Y0198392D01*
X0013514Y0198690D01*
X0013514Y0199058D01*
X0013533Y0199102D01*
X0013520Y0199136D01*
X0013677Y0199520D01*
X0013514Y0199909D01*
X0013514Y0209634D01*
X0019052Y0209634D01*
X0019429Y0209471D01*
X0019840Y0209634D01*
X0020282Y0209634D01*
X0020573Y0209924D01*
X0020909Y0210058D01*
X0020932Y0210000D01*
X0021308Y0209438D01*
X0021151Y0209281D02*
X0013514Y0209281D01*
X0013514Y0207683D02*
X0020356Y0207683D01*
X0020319Y0206084D02*
X0013514Y0206084D01*
X0013514Y0204486D02*
X0020984Y0204486D01*
X0020441Y0202887D02*
X0013514Y0202887D01*
X0013514Y0201289D02*
X0020319Y0201289D01*
X0020865Y0199690D02*
X0013606Y0199690D01*
X0013093Y0198092D02*
X0020526Y0198092D01*
X0031781Y0195138D02*
X0031781Y0191306D01*
X0031403Y0190395D01*
X0030705Y0189697D01*
X0029794Y0189319D01*
X0019281Y0189319D01*
X0019281Y0162139D01*
X0019989Y0161431D01*
X0020562Y0160048D01*
X0020562Y0158552D01*
X0019989Y0157169D01*
X0018931Y0156111D01*
X0018554Y0155954D01*
X0019689Y0155062D01*
X0021048Y0155062D01*
X0021719Y0154784D01*
X0021719Y0170837D01*
X0022112Y0171786D01*
X0022838Y0172512D01*
X0023787Y0172905D01*
X0026179Y0172905D01*
X0026579Y0173305D01*
X0032795Y0173305D01*
X0032795Y0179521D01*
X0033956Y0180681D01*
X0039019Y0180681D01*
X0039019Y0186838D01*
X0038768Y0186942D01*
X0037986Y0187725D01*
X0037562Y0188747D01*
X0037562Y0195342D01*
X0036787Y0196117D01*
X0036787Y0201819D01*
X0036631Y0201819D01*
X0036631Y0199300D01*
X0033257Y0199300D01*
X0033257Y0199300D01*
X0036631Y0199300D01*
X0036631Y0196701D01*
X0036509Y0196243D01*
X0036272Y0195833D01*
X0035937Y0195497D01*
X0035526Y0195260D01*
X0035068Y0195138D01*
X0033257Y0195138D01*
X0033257Y0199300D01*
X0033257Y0199300D01*
X0033257Y0195138D01*
X0031781Y0195138D01*
X0031781Y0194895D02*
X0037562Y0194895D01*
X0037562Y0193296D02*
X0031781Y0193296D01*
X0031781Y0191698D02*
X0037562Y0191698D01*
X0037562Y0190099D02*
X0031108Y0190099D01*
X0037664Y0188501D02*
X0019281Y0188501D01*
X0019281Y0186902D02*
X0038865Y0186902D01*
X0039019Y0185303D02*
X0019281Y0185303D01*
X0019281Y0183705D02*
X0039019Y0183705D01*
X0039019Y0182106D02*
X0019281Y0182106D01*
X0019281Y0180508D02*
X0033783Y0180508D01*
X0032795Y0178909D02*
X0019281Y0178909D01*
X0019281Y0177311D02*
X0032795Y0177311D01*
X0032795Y0175712D02*
X0019281Y0175712D01*
X0019281Y0174114D02*
X0032795Y0174114D01*
X0041800Y0176200D02*
X0041800Y0189300D01*
X0040343Y0189300D01*
X0040343Y0199300D01*
X0036787Y0199690D02*
X0036631Y0199690D01*
X0036631Y0198092D02*
X0036787Y0198092D01*
X0036787Y0196493D02*
X0036576Y0196493D01*
X0033257Y0196493D02*
X0033257Y0196493D01*
X0033257Y0198092D02*
X0033257Y0198092D01*
X0036631Y0201289D02*
X0036787Y0201289D01*
X0043899Y0201192D02*
X0050395Y0194697D01*
X0051306Y0194319D01*
X0056819Y0194319D01*
X0056819Y0182828D01*
X0055720Y0181729D01*
X0055343Y0180817D01*
X0055343Y0180681D01*
X0046554Y0180681D01*
X0046373Y0180500D01*
X0045225Y0180500D01*
X0044581Y0180500D01*
X0044581Y0189853D01*
X0044158Y0190875D01*
X0043375Y0191658D01*
X0043124Y0191762D01*
X0043124Y0195342D01*
X0043899Y0196117D01*
X0043899Y0201192D01*
X0043899Y0199690D02*
X0045401Y0199690D01*
X0043899Y0198092D02*
X0047000Y0198092D01*
X0048598Y0196493D02*
X0043899Y0196493D01*
X0043124Y0194895D02*
X0050197Y0194895D01*
X0056819Y0193296D02*
X0043124Y0193296D01*
X0043279Y0191698D02*
X0056819Y0191698D01*
X0056819Y0190099D02*
X0044479Y0190099D01*
X0044581Y0188501D02*
X0056819Y0188501D01*
X0056819Y0186902D02*
X0044581Y0186902D01*
X0044581Y0185303D02*
X0056819Y0185303D01*
X0056819Y0183705D02*
X0044581Y0183705D01*
X0044581Y0182106D02*
X0056098Y0182106D01*
X0046381Y0180508D02*
X0044581Y0180508D01*
X0045225Y0180500D02*
X0045225Y0176200D01*
X0045225Y0176200D01*
X0045225Y0176200D01*
X0045225Y0171900D01*
X0044077Y0171900D01*
X0043896Y0171719D01*
X0043062Y0171719D01*
X0043062Y0168694D01*
X0045482Y0165620D01*
X0045611Y0165931D01*
X0046669Y0166989D01*
X0048052Y0167562D01*
X0049548Y0167562D01*
X0050931Y0166989D01*
X0051989Y0165931D01*
X0052562Y0164548D01*
X0052562Y0163052D01*
X0052481Y0162856D01*
X0059219Y0152412D01*
X0059219Y0158294D01*
X0058337Y0158294D01*
X0057310Y0158294D01*
X0056362Y0158687D01*
X0055635Y0159413D01*
X0055243Y0160361D01*
X0055243Y0171719D01*
X0046554Y0171719D01*
X0046373Y0171900D01*
X0045225Y0171900D01*
X0045225Y0176200D01*
X0045225Y0180500D01*
X0045225Y0178909D02*
X0045225Y0178909D01*
X0045225Y0177311D02*
X0045225Y0177311D01*
X0045225Y0175712D02*
X0045225Y0175712D01*
X0045225Y0174114D02*
X0045225Y0174114D01*
X0045225Y0172515D02*
X0045225Y0172515D01*
X0043062Y0170917D02*
X0055243Y0170917D01*
X0055243Y0169318D02*
X0043062Y0169318D01*
X0043829Y0167720D02*
X0055243Y0167720D01*
X0055243Y0166121D02*
X0051799Y0166121D01*
X0052562Y0164523D02*
X0055243Y0164523D01*
X0055243Y0162924D02*
X0052509Y0162924D01*
X0053468Y0161326D02*
X0055243Y0161326D01*
X0055505Y0159727D02*
X0054499Y0159727D01*
X0055530Y0158129D02*
X0059219Y0158129D01*
X0059219Y0156530D02*
X0056562Y0156530D01*
X0057593Y0154932D02*
X0059219Y0154932D01*
X0059219Y0153333D02*
X0058624Y0153333D01*
X0045801Y0166121D02*
X0045087Y0166121D01*
X0042076Y0176200D02*
X0041800Y0176200D01*
X0022847Y0172515D02*
X0019281Y0172515D01*
X0019281Y0170917D02*
X0021752Y0170917D01*
X0021719Y0169318D02*
X0019281Y0169318D01*
X0019281Y0167720D02*
X0021719Y0167720D01*
X0021719Y0166121D02*
X0019281Y0166121D01*
X0019281Y0164523D02*
X0021719Y0164523D01*
X0021719Y0162924D02*
X0019281Y0162924D01*
X0020033Y0161326D02*
X0021719Y0161326D01*
X0021719Y0159727D02*
X0020562Y0159727D01*
X0020387Y0158129D02*
X0021719Y0158129D01*
X0021719Y0156530D02*
X0019351Y0156530D01*
X0021363Y0154932D02*
X0021719Y0154932D01*
X0063454Y0170324D02*
X0063454Y0179300D01*
X0069962Y0179484D02*
X0069962Y0183068D01*
X0069331Y0183068D01*
X0069331Y0199219D01*
X0072313Y0199219D01*
X0073262Y0199612D01*
X0075762Y0202112D01*
X0076025Y0202375D01*
X0076111Y0202169D01*
X0077169Y0201111D01*
X0078552Y0200538D01*
X0080048Y0200538D01*
X0081431Y0201111D01*
X0082489Y0202169D01*
X0083062Y0203552D01*
X0083062Y0203786D01*
X0083679Y0203169D01*
X0084219Y0203169D01*
X0084219Y0179381D01*
X0077940Y0179381D01*
X0076991Y0178988D01*
X0076265Y0178262D01*
X0075872Y0177313D01*
X0075872Y0173250D01*
X0075468Y0173250D01*
X0074307Y0172089D01*
X0074307Y0171881D01*
X0072202Y0171881D01*
X0072489Y0172169D01*
X0073062Y0173552D01*
X0073062Y0175048D01*
X0072831Y0175607D01*
X0073007Y0175654D01*
X0073417Y0175891D01*
X0073752Y0176226D01*
X0073989Y0176637D01*
X0074112Y0177095D01*
X0074112Y0179116D01*
X0070331Y0179116D01*
X0070331Y0179484D01*
X0074112Y0179484D01*
X0074112Y0181505D01*
X0073989Y0181963D01*
X0073752Y0182374D01*
X0073417Y0182709D01*
X0073007Y0182946D01*
X0072549Y0183068D01*
X0070331Y0183068D01*
X0070331Y0179484D01*
X0069962Y0179484D01*
X0069962Y0180508D02*
X0070331Y0180508D01*
X0070331Y0182106D02*
X0069962Y0182106D01*
X0069331Y0183705D02*
X0084219Y0183705D01*
X0084219Y0185303D02*
X0069331Y0185303D01*
X0069331Y0186902D02*
X0084219Y0186902D01*
X0084219Y0188501D02*
X0069331Y0188501D01*
X0069331Y0190099D02*
X0084219Y0190099D01*
X0084219Y0191698D02*
X0069331Y0191698D01*
X0069331Y0193296D02*
X0084219Y0193296D01*
X0084219Y0194895D02*
X0069331Y0194895D01*
X0069331Y0196493D02*
X0084219Y0196493D01*
X0084219Y0198092D02*
X0069331Y0198092D01*
X0073340Y0199690D02*
X0084219Y0199690D01*
X0084219Y0201289D02*
X0081609Y0201289D01*
X0082787Y0202887D02*
X0084219Y0202887D01*
X0079300Y0204300D02*
X0079300Y0214300D01*
X0081800Y0216800D01*
X0114300Y0216800D01*
X0133675Y0210550D02*
X0138988Y0210550D01*
X0143050Y0206487D01*
X0197425Y0206487D01*
X0201487Y0202425D01*
X0213139Y0197459D02*
X0213139Y0209925D01*
X0212201Y0210862D01*
X0203050Y0210862D01*
X0200119Y0214419D01*
X0199806Y0215872D01*
X0193675Y0217425D02*
X0193675Y0219612D01*
X0199806Y0219612D01*
X0199806Y0223353D02*
X0210044Y0223353D01*
X0199806Y0223353D02*
X0185963Y0223353D01*
X0186692Y0222206D01*
X0179211Y0222206D02*
X0164394Y0222206D01*
X0164300Y0222112D01*
X0163060Y0214925D02*
X0156465Y0218394D01*
X0126800Y0189300D02*
X0104300Y0189300D01*
X0084219Y0182106D02*
X0073906Y0182106D01*
X0074112Y0180508D02*
X0084219Y0180508D01*
X0076913Y0178909D02*
X0074112Y0178909D01*
X0074112Y0177311D02*
X0075872Y0177311D01*
X0075872Y0175712D02*
X0073107Y0175712D01*
X0073062Y0174114D02*
X0075872Y0174114D01*
X0074733Y0172515D02*
X0072633Y0172515D01*
X0063700Y0170324D02*
X0063454Y0170324D01*
X0104925Y0164925D02*
X0138675Y0164925D01*
X0153970Y0170413D02*
X0139771Y0184612D01*
X0138988Y0184612D01*
X0139925Y0175550D02*
X0126800Y0189300D01*
X0169300Y0169300D02*
X0172425Y0166800D01*
X0179300Y0166800D01*
X0180550Y0167425D01*
X0219925Y0167425D01*
X0221800Y0165550D01*
X0221800Y0160363D01*
X0231800Y0160363D02*
X0231800Y0166175D01*
X0226800Y0171175D01*
X0177425Y0171175D01*
X0176800Y0170550D01*
X0187425Y0186987D02*
X0282425Y0186987D01*
X0291175Y0190237D02*
X0291175Y0181362D01*
X0291800Y0180737D01*
X0311800Y0194300D02*
X0304925Y0201175D01*
X0278050Y0201175D01*
X0262425Y0216800D01*
X0230800Y0216300D01*
X0237300Y0219925D02*
X0263550Y0220925D01*
X0278675Y0206800D01*
X0309925Y0206800D01*
X0321800Y0194925D01*
X0321800Y0194300D01*
X0295550Y0196175D02*
X0295486Y0196111D01*
X0242986Y0196111D01*
X0240862Y0193987D01*
X0229300Y0193987D01*
X0228675Y0194612D01*
X0236175Y0197425D02*
X0237737Y0197425D01*
X0240550Y0200237D01*
X0265238Y0200237D01*
X0268363Y0203362D01*
X0267113Y0202112D01*
X0257112Y0207425D02*
X0253675Y0210862D01*
X0220550Y0210862D01*
X0215540Y0215872D01*
X0210044Y0215872D01*
X0201328Y0190835D02*
X0265461Y0190835D01*
X0265988Y0191362D01*
X0241800Y0169800D02*
X0386175Y0169800D01*
X0401800Y0177425D02*
X0426487Y0177425D01*
X0411800Y0184300D02*
X0469805Y0184300D01*
X0476800Y0180128D02*
X0476798Y0180041D01*
X0476792Y0179954D01*
X0476783Y0179867D01*
X0476770Y0179781D01*
X0476753Y0179695D01*
X0476732Y0179610D01*
X0476707Y0179527D01*
X0476679Y0179444D01*
X0476648Y0179363D01*
X0476613Y0179283D01*
X0476574Y0179205D01*
X0476532Y0179128D01*
X0476487Y0179053D01*
X0476438Y0178981D01*
X0476387Y0178910D01*
X0476332Y0178842D01*
X0476275Y0178777D01*
X0476214Y0178714D01*
X0451800Y0154300D01*
X0406800Y0154300D01*
X0411800Y0146800D02*
X0416800Y0149300D01*
X0431800Y0149300D01*
X0425370Y0134800D02*
X0424933Y0134981D01*
X0423667Y0134981D01*
X0422498Y0134497D01*
X0421603Y0133602D01*
X0421119Y0132433D01*
X0421119Y0131167D01*
X0421603Y0129998D01*
X0422498Y0129103D01*
X0423667Y0128619D01*
X0424933Y0128619D01*
X0425370Y0128800D01*
X0440557Y0128800D01*
X0444257Y0125101D01*
X0444376Y0124981D01*
X0443667Y0124981D01*
X0442498Y0124497D01*
X0441603Y0123602D01*
X0441119Y0122433D01*
X0441119Y0121167D01*
X0441603Y0119998D01*
X0442498Y0119103D01*
X0443667Y0118619D01*
X0444933Y0118619D01*
X0445370Y0118800D01*
X0462250Y0118800D01*
X0462250Y0113189D01*
X0463070Y0112369D01*
X0470530Y0112369D01*
X0471350Y0113189D01*
X0471350Y0115887D01*
X0492909Y0115887D01*
X0493249Y0115064D01*
X0495050Y0113264D01*
X0497402Y0112290D01*
X0499948Y0112290D01*
X0502300Y0113264D01*
X0504101Y0115064D01*
X0505050Y0117356D01*
X0505050Y0108668D01*
X0504340Y0107958D01*
X0504101Y0108536D01*
X0502300Y0110336D01*
X0499948Y0111310D01*
X0497402Y0111310D01*
X0495050Y0110336D01*
X0493249Y0108536D01*
X0492275Y0106183D01*
X0492275Y0103637D01*
X0493249Y0101285D01*
X0495050Y0099485D01*
X0497402Y0098510D01*
X0499948Y0098510D01*
X0502300Y0099485D01*
X0504101Y0101285D01*
X0504360Y0101910D01*
X0506132Y0101910D01*
X0507235Y0102367D01*
X0510593Y0105726D01*
X0511050Y0106828D01*
X0511050Y0124272D01*
X0510593Y0125374D01*
X0509749Y0126218D01*
X0506624Y0129343D01*
X0505522Y0129800D01*
X0503043Y0129800D01*
X0503444Y0129966D01*
X0506165Y0132687D01*
X0507638Y0136243D01*
X0507638Y0140091D01*
X0506930Y0141800D01*
X0512206Y0141800D01*
X0512206Y0106481D01*
X0513261Y0105427D01*
X0518316Y0105427D01*
X0518316Y0067413D01*
X0517676Y0068958D01*
X0515508Y0071125D01*
X0512676Y0072298D01*
X0509611Y0072298D01*
X0506779Y0071125D01*
X0504611Y0068958D01*
X0503438Y0066126D01*
X0503438Y0064812D01*
X0501359Y0065673D01*
X0498284Y0065673D01*
X0495442Y0064496D01*
X0493268Y0062321D01*
X0492091Y0059480D01*
X0492091Y0056405D01*
X0493268Y0053563D01*
X0495442Y0051389D01*
X0498284Y0050212D01*
X0501359Y0050212D01*
X0504201Y0051389D01*
X0504250Y0051438D01*
X0503900Y0050480D01*
X0502667Y0048728D01*
X0500512Y0047303D01*
X0497100Y0045738D01*
X0496440Y0045461D01*
X0496427Y0045430D01*
X0496396Y0045416D01*
X0496147Y0044744D01*
X0494426Y0040534D01*
X0434020Y0024133D01*
X0429879Y0026168D01*
X0429871Y0026190D01*
X0429212Y0026495D01*
X0428561Y0026815D01*
X0428539Y0026808D01*
X0428518Y0026817D01*
X0427836Y0026568D01*
X0427150Y0026334D01*
X0427140Y0026313D01*
X0416550Y0022437D01*
X0416790Y0022951D01*
X0413700Y0031440D01*
X0412649Y0031930D01*
X0411505Y0031514D01*
X0411505Y0038393D01*
X0414000Y0040889D01*
X0414000Y0042940D01*
X0417319Y0044600D01*
X0417711Y0044600D01*
X0418103Y0044992D01*
X0418599Y0045240D01*
X0418723Y0045612D01*
X0430095Y0056984D01*
X0448278Y0054711D01*
X0448389Y0054600D01*
X0449163Y0054600D01*
X0449931Y0054504D01*
X0450055Y0054600D01*
X0450211Y0054600D01*
X0450759Y0055148D01*
X0451370Y0055623D01*
X0451389Y0055778D01*
X0451500Y0055889D01*
X0451500Y0056663D01*
X0451596Y0057431D01*
X0451500Y0057555D01*
X0451500Y0062886D01*
X0452453Y0062886D01*
X0454548Y0063754D01*
X0456152Y0065358D01*
X0457019Y0067453D01*
X0457019Y0069720D01*
X0456152Y0071815D01*
X0454548Y0073419D01*
X0452453Y0074286D01*
X0450186Y0074286D01*
X0448091Y0073419D01*
X0446487Y0071815D01*
X0445619Y0069720D01*
X0445619Y0067453D01*
X0446487Y0065358D01*
X0447100Y0064745D01*
X0447100Y0064536D01*
X0446920Y0064132D01*
X0447100Y0063661D01*
X0447100Y0059292D01*
X0430322Y0061389D01*
X0430211Y0061500D01*
X0429437Y0061500D01*
X0428669Y0061596D01*
X0428545Y0061500D01*
X0428389Y0061500D01*
X0427841Y0060952D01*
X0427230Y0060477D01*
X0427211Y0060322D01*
X0415497Y0048608D01*
X0411500Y0046610D01*
X0411500Y0047711D01*
X0410211Y0049000D01*
X0406500Y0052711D01*
X0406500Y0056194D01*
X0407912Y0054782D01*
X0410020Y0053909D01*
X0412303Y0053909D01*
X0414411Y0054782D01*
X0416025Y0056396D01*
X0416898Y0058504D01*
X0416898Y0060787D01*
X0416025Y0062895D01*
X0414411Y0064509D01*
X0412303Y0065383D01*
X0410020Y0065383D01*
X0407912Y0064509D01*
X0406500Y0063098D01*
X0406500Y0067001D01*
X0406997Y0067498D01*
X0407481Y0068667D01*
X0407481Y0069933D01*
X0406997Y0071102D01*
X0406102Y0071997D01*
X0404933Y0072481D01*
X0403667Y0072481D01*
X0402498Y0071997D01*
X0401603Y0071102D01*
X0401119Y0069933D01*
X0401119Y0068667D01*
X0401603Y0067498D01*
X0402100Y0067001D01*
X0402100Y0063310D01*
X0401177Y0065846D01*
X0400126Y0066336D01*
X0389787Y0062573D01*
X0389300Y0061528D01*
X0389300Y0068923D01*
X0391953Y0070728D01*
X0392145Y0070728D01*
X0392552Y0071135D01*
X0393028Y0071458D01*
X0393064Y0071647D01*
X0393199Y0071782D01*
X0393199Y0072358D01*
X0393307Y0072923D01*
X0393199Y0073082D01*
X0393199Y0139009D01*
X0392145Y0140064D01*
X0389300Y0140064D01*
X0389300Y0141800D01*
X0488997Y0141800D01*
X0488290Y0140091D01*
X0488290Y0136243D01*
X0489763Y0132687D01*
X0492484Y0129966D01*
X0492885Y0129800D01*
X0448043Y0129800D01*
X0443499Y0134343D01*
X0442397Y0134800D01*
X0425370Y0134800D01*
X0422152Y0134151D02*
X0393199Y0134151D01*
X0393199Y0132553D02*
X0421169Y0132553D01*
X0421207Y0130954D02*
X0393199Y0130954D01*
X0393199Y0129356D02*
X0422246Y0129356D01*
X0441600Y0127757D02*
X0393199Y0127757D01*
X0393199Y0126159D02*
X0443199Y0126159D01*
X0442651Y0124560D02*
X0393199Y0124560D01*
X0393199Y0122962D02*
X0441338Y0122962D01*
X0441119Y0121363D02*
X0393199Y0121363D01*
X0393199Y0119765D02*
X0441837Y0119765D01*
X0446889Y0130954D02*
X0491496Y0130954D01*
X0489897Y0132553D02*
X0445290Y0132553D01*
X0443691Y0134151D02*
X0489156Y0134151D01*
X0488494Y0135750D02*
X0393199Y0135750D01*
X0393199Y0137348D02*
X0488290Y0137348D01*
X0488290Y0138947D02*
X0393199Y0138947D01*
X0389300Y0140545D02*
X0488478Y0140545D01*
X0504432Y0130954D02*
X0512206Y0130954D01*
X0512206Y0129356D02*
X0506595Y0129356D01*
X0508211Y0127757D02*
X0512206Y0127757D01*
X0512206Y0126159D02*
X0509809Y0126159D01*
X0510931Y0124560D02*
X0512206Y0124560D01*
X0512206Y0122962D02*
X0511050Y0122962D01*
X0511050Y0121363D02*
X0512206Y0121363D01*
X0512206Y0119765D02*
X0511050Y0119765D01*
X0511050Y0118166D02*
X0512206Y0118166D01*
X0512206Y0116568D02*
X0511050Y0116568D01*
X0511050Y0114969D02*
X0512206Y0114969D01*
X0512206Y0113370D02*
X0511050Y0113370D01*
X0511050Y0111772D02*
X0512206Y0111772D01*
X0512206Y0110173D02*
X0511050Y0110173D01*
X0511050Y0108575D02*
X0512206Y0108575D01*
X0512206Y0106976D02*
X0511050Y0106976D01*
X0510246Y0105378D02*
X0518316Y0105378D01*
X0518316Y0103779D02*
X0508647Y0103779D01*
X0506785Y0102181D02*
X0518316Y0102181D01*
X0518316Y0100582D02*
X0503398Y0100582D01*
X0501092Y0098984D02*
X0518316Y0098984D01*
X0518316Y0097385D02*
X0485164Y0097385D01*
X0484933Y0097481D02*
X0483667Y0097481D01*
X0482498Y0096997D01*
X0481603Y0096102D01*
X0481119Y0094933D01*
X0481119Y0093667D01*
X0481603Y0092498D01*
X0482498Y0091603D01*
X0482592Y0091564D01*
X0485199Y0078206D01*
X0485114Y0078468D01*
X0484678Y0079324D01*
X0484113Y0080101D01*
X0483434Y0080780D01*
X0482658Y0081344D01*
X0481802Y0081780D01*
X0480889Y0082077D01*
X0479941Y0082227D01*
X0478980Y0082227D01*
X0478252Y0082111D01*
X0479730Y0076594D01*
X0478994Y0076396D01*
X0479191Y0075660D01*
X0473678Y0074183D01*
X0473807Y0073785D01*
X0474243Y0072930D01*
X0474808Y0072153D01*
X0475487Y0071474D01*
X0476263Y0070910D01*
X0477119Y0070474D01*
X0478032Y0070177D01*
X0478980Y0070027D01*
X0479941Y0070027D01*
X0480670Y0070142D01*
X0479191Y0075660D01*
X0479927Y0075857D01*
X0481404Y0070344D01*
X0481802Y0070474D01*
X0482658Y0070910D01*
X0483434Y0071474D01*
X0484113Y0072153D01*
X0484678Y0072930D01*
X0485114Y0073785D01*
X0485410Y0074698D01*
X0485561Y0075647D01*
X0485561Y0076352D01*
X0486746Y0070276D01*
X0457896Y0062655D01*
X0456808Y0063106D01*
X0455542Y0063106D01*
X0454373Y0062622D01*
X0453478Y0061727D01*
X0452994Y0060558D01*
X0452994Y0059292D01*
X0453478Y0058123D01*
X0454373Y0057228D01*
X0455542Y0056744D01*
X0456808Y0056744D01*
X0457977Y0057228D01*
X0458872Y0058123D01*
X0458983Y0058391D01*
X0489792Y0066530D01*
X0490616Y0066690D01*
X0490662Y0066759D01*
X0490743Y0066781D01*
X0491165Y0067506D01*
X0491634Y0068202D01*
X0491618Y0068284D01*
X0491660Y0068356D01*
X0491445Y0069167D01*
X0487534Y0089215D01*
X0489101Y0087648D01*
X0489101Y0083267D01*
X0489921Y0082447D01*
X0496199Y0082447D01*
X0496800Y0083048D01*
X0497401Y0082447D01*
X0503679Y0082447D01*
X0504499Y0083267D01*
X0504499Y0084600D01*
X0507001Y0084600D01*
X0507498Y0084103D01*
X0508667Y0083619D01*
X0509933Y0083619D01*
X0511102Y0084103D01*
X0511997Y0084998D01*
X0512481Y0086167D01*
X0512481Y0087433D01*
X0511997Y0088602D01*
X0511102Y0089497D01*
X0509933Y0089981D01*
X0508667Y0089981D01*
X0507498Y0089497D01*
X0507001Y0089000D01*
X0504499Y0089000D01*
X0504499Y0090333D01*
X0503679Y0091153D01*
X0497401Y0091153D01*
X0496800Y0090552D01*
X0496199Y0091153D01*
X0491818Y0091153D01*
X0487087Y0095884D01*
X0486997Y0096102D01*
X0486102Y0096997D01*
X0484933Y0097481D01*
X0483436Y0097385D02*
X0471500Y0097385D01*
X0471500Y0096599D02*
X0471500Y0103125D01*
X0471350Y0103275D01*
X0471350Y0110411D01*
X0470530Y0111231D01*
X0463070Y0111231D01*
X0462250Y0110411D01*
X0462250Y0099015D01*
X0463070Y0098195D01*
X0467100Y0098195D01*
X0467100Y0096599D01*
X0466603Y0096102D01*
X0466119Y0094933D01*
X0466119Y0093667D01*
X0466603Y0092498D01*
X0467498Y0091603D01*
X0468667Y0091119D01*
X0469933Y0091119D01*
X0471102Y0091603D01*
X0471997Y0092498D01*
X0472481Y0093667D01*
X0472481Y0094933D01*
X0471997Y0096102D01*
X0471500Y0096599D01*
X0472127Y0095787D02*
X0481473Y0095787D01*
X0481119Y0094188D02*
X0472481Y0094188D01*
X0472035Y0092590D02*
X0481565Y0092590D01*
X0482704Y0090991D02*
X0441603Y0090991D01*
X0441500Y0090889D02*
X0444230Y0093619D01*
X0444933Y0093619D01*
X0446102Y0094103D01*
X0446997Y0094998D01*
X0447481Y0096167D01*
X0447481Y0097433D01*
X0446997Y0098602D01*
X0446102Y0099497D01*
X0444933Y0099981D01*
X0443667Y0099981D01*
X0442498Y0099497D01*
X0441603Y0098602D01*
X0441119Y0097433D01*
X0441119Y0096730D01*
X0437100Y0092711D01*
X0437100Y0072711D01*
X0435550Y0071161D01*
X0424433Y0082278D01*
X0411746Y0082278D01*
X0410000Y0087073D01*
X0408949Y0087563D01*
X0400460Y0084473D01*
X0399970Y0083422D01*
X0403733Y0073083D01*
X0404784Y0072593D01*
X0413273Y0075683D01*
X0413763Y0076734D01*
X0413347Y0077878D01*
X0422610Y0077878D01*
X0432666Y0067823D01*
X0432666Y0066455D01*
X0433955Y0065166D01*
X0435777Y0065166D01*
X0436461Y0065850D01*
X0436461Y0065850D01*
X0437750Y0067139D01*
X0440211Y0069600D01*
X0441500Y0070889D01*
X0441500Y0090889D01*
X0441500Y0089393D02*
X0483016Y0089393D01*
X0483328Y0087794D02*
X0441500Y0087794D01*
X0441500Y0086196D02*
X0483640Y0086196D01*
X0483952Y0084597D02*
X0441500Y0084597D01*
X0441500Y0082999D02*
X0484264Y0082999D01*
X0484576Y0081400D02*
X0482547Y0081400D01*
X0484331Y0079802D02*
X0484887Y0079802D01*
X0489059Y0081400D02*
X0518316Y0081400D01*
X0518316Y0079802D02*
X0489370Y0079802D01*
X0489682Y0078203D02*
X0518316Y0078203D01*
X0518316Y0076605D02*
X0489994Y0076605D01*
X0490306Y0075006D02*
X0518316Y0075006D01*
X0518316Y0073408D02*
X0490618Y0073408D01*
X0490930Y0071809D02*
X0508430Y0071809D01*
X0505864Y0070211D02*
X0491242Y0070211D01*
X0491592Y0068612D02*
X0504468Y0068612D01*
X0503806Y0067014D02*
X0490879Y0067014D01*
X0489300Y0068675D02*
X0456175Y0059925D01*
X0453969Y0062218D02*
X0451500Y0062218D01*
X0451500Y0060620D02*
X0453020Y0060620D01*
X0453106Y0059021D02*
X0451500Y0059021D01*
X0451595Y0057423D02*
X0454179Y0057423D01*
X0451435Y0055824D02*
X0492331Y0055824D01*
X0492091Y0057423D02*
X0458171Y0057423D01*
X0461367Y0059021D02*
X0492091Y0059021D01*
X0492563Y0060620D02*
X0467419Y0060620D01*
X0468345Y0065415D02*
X0456175Y0065415D01*
X0456838Y0067014D02*
X0474396Y0067014D01*
X0477928Y0070211D02*
X0456816Y0070211D01*
X0457019Y0068612D02*
X0480448Y0068612D01*
X0480651Y0070211D02*
X0486499Y0070211D01*
X0486447Y0071809D02*
X0483770Y0071809D01*
X0484921Y0073408D02*
X0486135Y0073408D01*
X0485823Y0075006D02*
X0485459Y0075006D01*
X0480584Y0073408D02*
X0479795Y0073408D01*
X0478787Y0074300D02*
X0479461Y0076127D01*
X0478994Y0076396D02*
X0473476Y0074918D01*
X0473361Y0075647D01*
X0473361Y0076607D01*
X0473511Y0077555D01*
X0473807Y0078468D01*
X0474243Y0079324D01*
X0474808Y0080101D01*
X0475487Y0080780D01*
X0476263Y0081344D01*
X0477119Y0081780D01*
X0477517Y0081909D01*
X0478994Y0076396D01*
X0478938Y0076605D02*
X0479727Y0076605D01*
X0479366Y0075006D02*
X0480155Y0075006D01*
X0478787Y0074300D02*
X0474300Y0081800D01*
X0474300Y0086800D01*
X0471800Y0084300D01*
X0454300Y0084300D01*
X0449300Y0079300D01*
X0446800Y0079300D01*
X0443675Y0076175D01*
X0443675Y0069300D01*
X0445619Y0068612D02*
X0439223Y0068612D01*
X0437750Y0067139D02*
X0437750Y0067139D01*
X0437625Y0067014D02*
X0445801Y0067014D01*
X0446463Y0065415D02*
X0436026Y0065415D01*
X0434866Y0067366D02*
X0435550Y0068050D01*
X0423522Y0080078D01*
X0406867Y0080078D01*
X0401870Y0078203D02*
X0393199Y0078203D01*
X0393199Y0076605D02*
X0402451Y0076605D01*
X0403033Y0075006D02*
X0393199Y0075006D01*
X0393199Y0073408D02*
X0403615Y0073408D01*
X0402310Y0071809D02*
X0393199Y0071809D01*
X0391193Y0070211D02*
X0401234Y0070211D01*
X0401142Y0068612D02*
X0389300Y0068612D01*
X0389300Y0067014D02*
X0402088Y0067014D01*
X0402100Y0065415D02*
X0401334Y0065415D01*
X0401916Y0063817D02*
X0402100Y0063817D01*
X0406500Y0063817D02*
X0407219Y0063817D01*
X0406500Y0065415D02*
X0433706Y0065415D01*
X0432666Y0067014D02*
X0406512Y0067014D01*
X0407458Y0068612D02*
X0431877Y0068612D01*
X0430278Y0070211D02*
X0407366Y0070211D01*
X0406290Y0071809D02*
X0428680Y0071809D01*
X0427081Y0073408D02*
X0407022Y0073408D01*
X0411414Y0075006D02*
X0425483Y0075006D01*
X0423884Y0076605D02*
X0413703Y0076605D01*
X0411483Y0082999D02*
X0437100Y0082999D01*
X0437100Y0084597D02*
X0410901Y0084597D01*
X0410320Y0086196D02*
X0437100Y0086196D01*
X0437100Y0087794D02*
X0393199Y0087794D01*
X0393199Y0086196D02*
X0405193Y0086196D01*
X0400801Y0084597D02*
X0393199Y0084597D01*
X0393199Y0082999D02*
X0400124Y0082999D01*
X0400706Y0081400D02*
X0393199Y0081400D01*
X0393199Y0079802D02*
X0401288Y0079802D01*
X0404300Y0069300D02*
X0404300Y0051800D01*
X0409300Y0046800D01*
X0409300Y0044300D01*
X0411800Y0041800D01*
X0409305Y0039305D01*
X0409305Y0025033D01*
X0415297Y0027051D02*
X0430752Y0027051D01*
X0431110Y0026068D02*
X0432161Y0025578D01*
X0442500Y0029341D01*
X0442990Y0030392D01*
X0441339Y0034927D01*
X0444316Y0034927D01*
X0447158Y0036104D01*
X0449332Y0038279D01*
X0450509Y0041120D01*
X0450509Y0044195D01*
X0449332Y0047037D01*
X0447158Y0049211D01*
X0444316Y0050388D01*
X0441241Y0050388D01*
X0438399Y0049211D01*
X0436743Y0047555D01*
X0436669Y0047760D01*
X0435617Y0048250D01*
X0434473Y0047834D01*
X0434473Y0049975D01*
X0434497Y0049998D01*
X0434981Y0051167D01*
X0434981Y0052433D01*
X0434497Y0053602D01*
X0433602Y0054497D01*
X0432433Y0054981D01*
X0431167Y0054981D01*
X0429998Y0054497D01*
X0429103Y0053602D01*
X0428619Y0052433D01*
X0428619Y0051167D01*
X0429103Y0049998D01*
X0429998Y0049103D01*
X0430073Y0049072D01*
X0430073Y0046233D01*
X0419344Y0046233D01*
X0417746Y0044634D02*
X0425683Y0044634D01*
X0425279Y0044487D02*
X0424789Y0043436D01*
X0427878Y0034947D01*
X0428929Y0034457D01*
X0437080Y0037424D01*
X0438399Y0036104D01*
X0438718Y0035972D01*
X0429588Y0032649D01*
X0429097Y0031598D01*
X0431110Y0026068D01*
X0431335Y0025452D02*
X0438880Y0025452D01*
X0436208Y0027051D02*
X0444767Y0027051D01*
X0442923Y0030248D02*
X0456542Y0030248D01*
X0462429Y0031846D02*
X0442461Y0031846D01*
X0441879Y0033445D02*
X0468316Y0033445D01*
X0474204Y0035043D02*
X0444597Y0035043D01*
X0447696Y0036642D02*
X0480091Y0036642D01*
X0485978Y0038240D02*
X0449294Y0038240D01*
X0449979Y0039839D02*
X0491866Y0039839D01*
X0494795Y0041437D02*
X0450509Y0041437D01*
X0450509Y0043036D02*
X0495449Y0043036D01*
X0496102Y0044634D02*
X0450327Y0044634D01*
X0449665Y0046233D02*
X0498179Y0046233D01*
X0501312Y0047832D02*
X0448538Y0047832D01*
X0446630Y0049430D02*
X0503161Y0049430D01*
X0503331Y0051029D02*
X0504101Y0051029D01*
X0496311Y0051029D02*
X0434924Y0051029D01*
X0434901Y0052627D02*
X0494204Y0052627D01*
X0492993Y0054226D02*
X0433873Y0054226D01*
X0431800Y0051800D02*
X0432273Y0051327D01*
X0432273Y0041354D01*
X0430073Y0046233D02*
X0425279Y0044487D01*
X0424934Y0043036D02*
X0414191Y0043036D01*
X0414000Y0041437D02*
X0425516Y0041437D01*
X0426098Y0039839D02*
X0412950Y0039839D01*
X0411505Y0038240D02*
X0416966Y0038240D01*
X0417337Y0038612D02*
X0415724Y0036998D01*
X0414850Y0034890D01*
X0414850Y0032607D01*
X0415724Y0030499D01*
X0417337Y0028885D01*
X0419446Y0028012D01*
X0421728Y0028012D01*
X0423837Y0028885D01*
X0425451Y0030499D01*
X0426324Y0032607D01*
X0426324Y0034890D01*
X0425451Y0036998D01*
X0423837Y0038612D01*
X0421728Y0039486D01*
X0419446Y0039486D01*
X0417337Y0038612D01*
X0415576Y0036642D02*
X0411505Y0036642D01*
X0411505Y0035043D02*
X0414914Y0035043D01*
X0414850Y0033445D02*
X0411505Y0033445D01*
X0411505Y0031846D02*
X0412419Y0031846D01*
X0412828Y0031846D02*
X0415165Y0031846D01*
X0415974Y0030248D02*
X0414134Y0030248D01*
X0414716Y0028649D02*
X0417906Y0028649D01*
X0415879Y0025452D02*
X0424789Y0025452D01*
X0423268Y0028649D02*
X0430170Y0028649D01*
X0429589Y0030248D02*
X0425200Y0030248D01*
X0426009Y0031846D02*
X0429213Y0031846D01*
X0431775Y0033445D02*
X0426324Y0033445D01*
X0426260Y0035043D02*
X0427843Y0035043D01*
X0427261Y0036642D02*
X0425598Y0036642D01*
X0426680Y0038240D02*
X0424209Y0038240D01*
X0430540Y0035043D02*
X0436167Y0035043D01*
X0434932Y0036642D02*
X0437861Y0036642D01*
X0440599Y0028649D02*
X0450655Y0028649D01*
X0437020Y0047832D02*
X0436516Y0047832D01*
X0434473Y0049430D02*
X0438927Y0049430D01*
X0439370Y0055824D02*
X0428935Y0055824D01*
X0429727Y0054226D02*
X0427337Y0054226D01*
X0428699Y0052627D02*
X0425738Y0052627D01*
X0424140Y0051029D02*
X0428676Y0051029D01*
X0429671Y0049430D02*
X0422541Y0049430D01*
X0420943Y0047832D02*
X0430073Y0047832D01*
X0422713Y0055824D02*
X0415453Y0055824D01*
X0416450Y0057423D02*
X0424311Y0057423D01*
X0425910Y0059021D02*
X0416898Y0059021D01*
X0416898Y0060620D02*
X0427413Y0060620D01*
X0429300Y0059300D02*
X0449300Y0056800D01*
X0449300Y0064067D01*
X0451319Y0068586D01*
X0445823Y0070211D02*
X0440822Y0070211D01*
X0441500Y0071809D02*
X0446485Y0071809D01*
X0448080Y0073408D02*
X0441500Y0073408D01*
X0441500Y0075006D02*
X0458735Y0075006D01*
X0458569Y0075406D02*
X0459437Y0073311D01*
X0461040Y0071707D01*
X0463135Y0070840D01*
X0465403Y0070840D01*
X0467498Y0071707D01*
X0469101Y0073311D01*
X0469969Y0075406D01*
X0469969Y0077674D01*
X0469101Y0079769D01*
X0467498Y0081372D01*
X0465403Y0082240D01*
X0463135Y0082240D01*
X0461040Y0081372D01*
X0459437Y0079769D01*
X0458569Y0077674D01*
X0458569Y0075406D01*
X0458569Y0076605D02*
X0441500Y0076605D01*
X0441500Y0078203D02*
X0458789Y0078203D01*
X0459470Y0079802D02*
X0441500Y0079802D01*
X0441500Y0081400D02*
X0461109Y0081400D01*
X0467430Y0081400D02*
X0476374Y0081400D01*
X0477653Y0081400D02*
X0478442Y0081400D01*
X0478081Y0079802D02*
X0478870Y0079802D01*
X0478510Y0078203D02*
X0479299Y0078203D01*
X0476751Y0075006D02*
X0473806Y0075006D01*
X0473462Y0075006D02*
X0469804Y0075006D01*
X0469969Y0076605D02*
X0473361Y0076605D01*
X0473721Y0078203D02*
X0469750Y0078203D01*
X0469068Y0079802D02*
X0474591Y0079802D01*
X0474000Y0073408D02*
X0469141Y0073408D01*
X0467600Y0071809D02*
X0475151Y0071809D01*
X0480223Y0071809D02*
X0481012Y0071809D01*
X0489300Y0068675D02*
X0484300Y0094300D01*
X0485560Y0094300D01*
X0493060Y0086800D01*
X0489101Y0086196D02*
X0488123Y0086196D01*
X0487811Y0087794D02*
X0488954Y0087794D01*
X0489101Y0084597D02*
X0488435Y0084597D01*
X0488747Y0082999D02*
X0489369Y0082999D01*
X0496750Y0082999D02*
X0496850Y0082999D01*
X0500540Y0086800D02*
X0509300Y0086800D01*
X0511596Y0084597D02*
X0518316Y0084597D01*
X0518316Y0082999D02*
X0504231Y0082999D01*
X0504499Y0084597D02*
X0507004Y0084597D01*
X0512481Y0086196D02*
X0518316Y0086196D01*
X0518316Y0087794D02*
X0512331Y0087794D01*
X0511206Y0089393D02*
X0518316Y0089393D01*
X0518316Y0090991D02*
X0503841Y0090991D01*
X0504499Y0089393D02*
X0507394Y0089393D01*
X0518316Y0092590D02*
X0490381Y0092590D01*
X0488783Y0094188D02*
X0518316Y0094188D01*
X0518316Y0095787D02*
X0487184Y0095787D01*
X0493952Y0100582D02*
X0471500Y0100582D01*
X0471500Y0098984D02*
X0496258Y0098984D01*
X0492878Y0102181D02*
X0471500Y0102181D01*
X0471350Y0103779D02*
X0492275Y0103779D01*
X0492275Y0105378D02*
X0471350Y0105378D01*
X0471350Y0106976D02*
X0492604Y0106976D01*
X0493289Y0108575D02*
X0471350Y0108575D01*
X0471350Y0110173D02*
X0494887Y0110173D01*
X0494943Y0113370D02*
X0471350Y0113370D01*
X0471350Y0114969D02*
X0493345Y0114969D01*
X0498675Y0118690D02*
X0500353Y0118887D01*
X0504723Y0116568D02*
X0505050Y0116568D01*
X0505050Y0114969D02*
X0504005Y0114969D01*
X0505050Y0113370D02*
X0502407Y0113370D01*
X0505050Y0111772D02*
X0393199Y0111772D01*
X0393199Y0113370D02*
X0462250Y0113370D01*
X0462250Y0114969D02*
X0393199Y0114969D01*
X0393199Y0116568D02*
X0462250Y0116568D01*
X0462250Y0118166D02*
X0393199Y0118166D01*
X0393199Y0110173D02*
X0462250Y0110173D01*
X0462250Y0108575D02*
X0393199Y0108575D01*
X0393199Y0106976D02*
X0462250Y0106976D01*
X0462250Y0105378D02*
X0393199Y0105378D01*
X0393199Y0103779D02*
X0462250Y0103779D01*
X0462250Y0102181D02*
X0393199Y0102181D01*
X0393199Y0100582D02*
X0462250Y0100582D01*
X0462282Y0098984D02*
X0446615Y0098984D01*
X0447481Y0097385D02*
X0467100Y0097385D01*
X0466473Y0095787D02*
X0447324Y0095787D01*
X0446187Y0094188D02*
X0466119Y0094188D01*
X0466565Y0092590D02*
X0443201Y0092590D01*
X0439300Y0091800D02*
X0444300Y0096800D01*
X0441985Y0098984D02*
X0393199Y0098984D01*
X0393199Y0097385D02*
X0441119Y0097385D01*
X0440176Y0095787D02*
X0393199Y0095787D01*
X0393199Y0094188D02*
X0438577Y0094188D01*
X0437100Y0092590D02*
X0393199Y0092590D01*
X0393199Y0090991D02*
X0437100Y0090991D01*
X0437100Y0089393D02*
X0393199Y0089393D01*
X0414300Y0096800D02*
X0414300Y0099300D01*
X0439300Y0091800D02*
X0439300Y0071800D01*
X0435550Y0068050D01*
X0434902Y0071809D02*
X0436198Y0071809D01*
X0437100Y0073408D02*
X0433304Y0073408D01*
X0431705Y0075006D02*
X0437100Y0075006D01*
X0437100Y0076605D02*
X0430107Y0076605D01*
X0431800Y0076800D02*
X0432425Y0077425D01*
X0428508Y0078203D02*
X0437100Y0078203D01*
X0437100Y0079802D02*
X0426910Y0079802D01*
X0425311Y0081400D02*
X0437100Y0081400D01*
X0454559Y0073408D02*
X0459397Y0073408D01*
X0460939Y0071809D02*
X0456154Y0071809D01*
X0454611Y0063817D02*
X0462293Y0063817D01*
X0473470Y0062218D02*
X0493225Y0062218D01*
X0494763Y0063817D02*
X0479522Y0063817D01*
X0485573Y0065415D02*
X0497661Y0065415D01*
X0501982Y0065415D02*
X0503438Y0065415D01*
X0513857Y0071809D02*
X0518316Y0071809D01*
X0518316Y0070211D02*
X0516423Y0070211D01*
X0517819Y0068612D02*
X0518316Y0068612D01*
X0497240Y0090991D02*
X0496360Y0090991D01*
X0504061Y0108575D02*
X0504957Y0108575D01*
X0505050Y0110173D02*
X0502463Y0110173D01*
X0469300Y0102213D02*
X0469300Y0094300D01*
X0469300Y0102213D02*
X0466800Y0104713D01*
X0466800Y0118887D02*
X0463887Y0121800D01*
X0506030Y0132553D02*
X0512206Y0132553D01*
X0512206Y0134151D02*
X0506771Y0134151D01*
X0507433Y0135750D02*
X0512206Y0135750D01*
X0512206Y0137348D02*
X0507638Y0137348D01*
X0507638Y0138947D02*
X0512206Y0138947D01*
X0512206Y0140545D02*
X0507450Y0140545D01*
X0476800Y0180128D02*
X0476800Y0204300D01*
X0500009Y0232509D01*
X0500594Y0233923D02*
X0495594Y0243666D01*
X0500594Y0233923D02*
X0500592Y0233836D01*
X0500586Y0233749D01*
X0500577Y0233662D01*
X0500564Y0233576D01*
X0500547Y0233490D01*
X0500526Y0233405D01*
X0500501Y0233322D01*
X0500473Y0233239D01*
X0500442Y0233158D01*
X0500407Y0233078D01*
X0500368Y0233000D01*
X0500326Y0232923D01*
X0500281Y0232848D01*
X0500232Y0232776D01*
X0500181Y0232705D01*
X0500126Y0232637D01*
X0500069Y0232572D01*
X0500008Y0232509D01*
X0474300Y0219300D02*
X0426800Y0219300D01*
X0426800Y0201800D01*
X0424300Y0201800D01*
X0424300Y0189300D01*
X0409925Y0198862D02*
X0391800Y0180737D01*
X0387863Y0180737D01*
X0409925Y0198862D02*
X0409925Y0215520D01*
X0418050Y0225550D02*
X0416175Y0227425D01*
X0416175Y0252425D01*
X0413050Y0255550D01*
X0397425Y0255550D01*
X0394300Y0258675D01*
X0429674Y0249891D02*
X0429674Y0235393D01*
X0425737Y0231456D01*
X0428050Y0225550D02*
X0418050Y0225550D01*
X0444300Y0245237D02*
X0446487Y0247425D01*
X0446487Y0258675D01*
X0311800Y0229300D02*
X0301800Y0239300D01*
X0301800Y0246800D01*
X0304915Y0229300D02*
X0311800Y0229300D01*
X0276800Y0261800D02*
X0274300Y0259300D01*
X0276800Y0261800D02*
X0280560Y0261800D01*
X0282944Y0266488D02*
X0280757Y0268675D01*
X0282944Y0266488D02*
X0283675Y0266488D01*
X0288040Y0262122D01*
X0288040Y0261800D01*
X0301833Y0268833D02*
X0301845Y0268844D01*
X0302843Y0268844D01*
X0076991Y0201289D02*
X0074939Y0201289D01*
X0028364Y0218872D02*
X0027508Y0218872D01*
X0047816Y0242850D02*
X0052112Y0242850D01*
X0053231Y0244448D02*
X0050239Y0244448D01*
X0389300Y0065415D02*
X0397596Y0065415D01*
X0393204Y0063817D02*
X0389300Y0063817D01*
X0389300Y0062218D02*
X0389622Y0062218D01*
X0396782Y0059439D02*
X0399300Y0056921D01*
X0399300Y0051800D01*
X0406584Y0052627D02*
X0419516Y0052627D01*
X0421114Y0054226D02*
X0413068Y0054226D01*
X0409255Y0054226D02*
X0406500Y0054226D01*
X0406500Y0055824D02*
X0406870Y0055824D01*
X0408183Y0051029D02*
X0417917Y0051029D01*
X0416319Y0049430D02*
X0409781Y0049430D01*
X0411380Y0047832D02*
X0413944Y0047832D01*
X0416800Y0046800D02*
X0411800Y0044300D01*
X0411800Y0041800D01*
X0416800Y0046800D02*
X0429300Y0059300D01*
X0436480Y0060620D02*
X0447100Y0060620D01*
X0447100Y0062218D02*
X0416305Y0062218D01*
X0415104Y0063817D02*
X0447040Y0063817D01*
X0420422Y0023854D02*
X0416461Y0023854D01*
D39*
X0431800Y0051800D03*
X0456175Y0059925D03*
X0443675Y0069300D03*
X0404300Y0069300D03*
X0399300Y0051800D03*
X0444300Y0096800D03*
X0469300Y0094300D03*
X0484300Y0094300D03*
X0509300Y0086800D03*
X0444300Y0121800D03*
X0424300Y0131800D03*
X0418300Y0145800D03*
X0411800Y0146800D03*
X0406800Y0154300D03*
X0405300Y0159800D03*
X0389300Y0161800D03*
X0386175Y0169800D03*
X0401800Y0177425D03*
X0411800Y0184300D03*
X0424300Y0189300D03*
X0426487Y0177425D03*
X0416800Y0171800D03*
X0391800Y0189300D03*
X0369300Y0174300D03*
X0349300Y0174300D03*
X0338050Y0174300D03*
X0321800Y0194300D03*
X0311800Y0194300D03*
X0295550Y0196175D03*
X0282425Y0186987D03*
X0265988Y0191362D03*
X0241800Y0169800D03*
X0201328Y0190835D03*
X0213139Y0197459D03*
X0201487Y0202425D03*
X0187425Y0186987D03*
X0169300Y0169300D03*
X0161175Y0168050D03*
X0154300Y0158800D03*
X0139300Y0159300D03*
X0138675Y0164925D03*
X0119300Y0159300D03*
X0104300Y0171800D03*
X0104300Y0189300D03*
X0079300Y0204300D03*
X0074300Y0216800D03*
X0040800Y0208800D03*
X0036800Y0216800D03*
X0014800Y0199300D03*
X0034300Y0189300D03*
X0045800Y0186800D03*
X0055800Y0184300D03*
X0071800Y0184300D03*
X0069300Y0174300D03*
X0048800Y0163800D03*
X0069300Y0156800D03*
X0086800Y0151800D03*
X0087300Y0146300D03*
X0071800Y0139300D03*
X0069300Y0126800D03*
X0060800Y0118800D03*
X0047800Y0124300D03*
X0031800Y0131800D03*
X0024300Y0136800D03*
X0036800Y0149300D03*
X0020300Y0151300D03*
X0016800Y0159300D03*
X0102800Y0126800D03*
X0116800Y0119300D03*
X0121800Y0119300D03*
X0135238Y0104300D03*
X0115300Y0099300D03*
X0091800Y0081800D03*
X0070800Y0088300D03*
X0064300Y0086800D03*
X0056800Y0079300D03*
X0033800Y0071800D03*
X0029300Y0066800D03*
X0061300Y0095300D03*
X0046800Y0106800D03*
X0036800Y0109300D03*
X0110862Y0139300D03*
X0146800Y0081800D03*
X0301800Y0166300D03*
X0301800Y0214800D03*
X0291800Y0219300D03*
X0311800Y0229300D03*
X0301800Y0246800D03*
X0291800Y0247800D03*
X0274300Y0259300D03*
X0302843Y0268844D03*
X0266800Y0234300D03*
X0237300Y0219925D03*
X0230800Y0216300D03*
X0221800Y0224800D03*
X0231800Y0244300D03*
X0236800Y0249300D03*
X0164300Y0236800D03*
X0164300Y0222112D03*
X0134300Y0234300D03*
X0106800Y0246300D03*
X0091800Y0246800D03*
X0133675Y0210550D03*
X0394300Y0258675D03*
X0429674Y0249891D03*
X0425737Y0231456D03*
X0428050Y0225550D03*
X0409925Y0215520D03*
X0469805Y0184300D03*
X0474300Y0219300D03*
X0439300Y0149300D03*
X0431800Y0149300D03*
X0414300Y0099300D03*
D40*
X0418300Y0145800D02*
X0439300Y0145800D01*
X0439300Y0149300D01*
X0391800Y0189300D02*
X0331800Y0189300D01*
X0311800Y0209300D01*
X0281800Y0209300D01*
X0266800Y0224800D01*
X0221800Y0224800D01*
X0164300Y0236800D02*
X0136800Y0236800D01*
X0134300Y0234300D01*
X0059300Y0196800D02*
X0051800Y0196800D01*
X0044300Y0204300D01*
X0044300Y0211800D01*
X0036800Y0216800D02*
X0036800Y0204300D01*
X0029300Y0204300D01*
X0029300Y0191800D01*
X0016800Y0191800D01*
X0016800Y0159300D01*
X0035776Y0149300D02*
X0035776Y0142400D01*
X0045225Y0142400D02*
X0045300Y0142325D01*
X0045300Y0134800D01*
X0044300Y0133800D01*
X0044300Y0116800D01*
X0049300Y0109300D01*
X0056800Y0109300D01*
X0056800Y0079300D01*
X0046800Y0079300D02*
X0039300Y0071800D01*
X0033800Y0071800D01*
X0029300Y0066800D02*
X0029300Y0096800D01*
X0031800Y0099300D01*
X0036800Y0099300D01*
X0061300Y0095300D02*
X0061800Y0094300D01*
X0068500Y0094121D02*
X0071525Y0094121D01*
X0071525Y0093123D02*
X0068500Y0093123D01*
X0068500Y0092124D02*
X0071525Y0092124D01*
X0071525Y0091273D02*
X0071572Y0091099D01*
X0071373Y0091181D01*
X0070227Y0091181D01*
X0069168Y0090742D01*
X0068358Y0089932D01*
X0068151Y0089433D01*
X0066369Y0089022D01*
X0066352Y0090100D01*
X0067504Y0090100D01*
X0068500Y0091096D01*
X0068500Y0101853D01*
X0071530Y0101922D01*
X0071525Y0101904D01*
X0071525Y0097088D01*
X0075675Y0097088D01*
X0075675Y0096088D01*
X0076675Y0096088D01*
X0076675Y0089970D01*
X0079522Y0089970D01*
X0079904Y0090073D01*
X0080246Y0090270D01*
X0080525Y0090549D01*
X0080722Y0090891D01*
X0080825Y0091273D01*
X0080825Y0096088D01*
X0076675Y0096088D01*
X0076675Y0097088D01*
X0080825Y0097088D01*
X0080825Y0101904D01*
X0080722Y0102285D01*
X0080525Y0102628D01*
X0080482Y0102670D01*
X0085436Y0107623D01*
X0085398Y0107436D01*
X0085398Y0096362D01*
X0090729Y0096362D01*
X0090729Y0095363D01*
X0085398Y0095363D01*
X0085398Y0084289D01*
X0085498Y0083790D01*
X0085692Y0083320D01*
X0085975Y0082897D01*
X0086335Y0082538D01*
X0086758Y0082255D01*
X0087228Y0082060D01*
X0087727Y0081961D01*
X0090729Y0081961D01*
X0090729Y0095362D01*
X0091729Y0095362D01*
X0091729Y0081961D01*
X0094732Y0081961D01*
X0095230Y0082060D01*
X0095237Y0082063D01*
X0095237Y0081800D01*
X0081687Y0081800D01*
X0081687Y0082843D01*
X0080710Y0085203D01*
X0078903Y0087009D01*
X0076543Y0087987D01*
X0073989Y0087987D01*
X0073681Y0087859D01*
X0073681Y0088873D01*
X0073242Y0089932D01*
X0073204Y0089970D01*
X0075675Y0089970D01*
X0075675Y0096088D01*
X0071525Y0096088D01*
X0071525Y0091273D01*
X0071506Y0091126D02*
X0071565Y0091126D01*
X0070093Y0091126D02*
X0068500Y0091126D01*
X0068553Y0090127D02*
X0067531Y0090127D01*
X0066831Y0089129D02*
X0066367Y0089129D01*
X0073575Y0089129D02*
X0085398Y0089129D01*
X0085398Y0090127D02*
X0079999Y0090127D01*
X0080785Y0091126D02*
X0085398Y0091126D01*
X0085398Y0092124D02*
X0080825Y0092124D01*
X0080825Y0093123D02*
X0085398Y0093123D01*
X0085398Y0094121D02*
X0080825Y0094121D01*
X0080825Y0095120D02*
X0085398Y0095120D01*
X0085398Y0097117D02*
X0080825Y0097117D01*
X0080825Y0098115D02*
X0085398Y0098115D01*
X0085398Y0099114D02*
X0080825Y0099114D01*
X0080825Y0100112D02*
X0085398Y0100112D01*
X0085398Y0101111D02*
X0080825Y0101111D01*
X0080770Y0102109D02*
X0085398Y0102109D01*
X0085398Y0103108D02*
X0080920Y0103108D01*
X0081919Y0104106D02*
X0085398Y0104106D01*
X0085398Y0105105D02*
X0082917Y0105105D01*
X0083916Y0106103D02*
X0085398Y0106103D01*
X0085398Y0107102D02*
X0084915Y0107102D01*
X0081800Y0108675D02*
X0080863Y0107737D01*
X0080825Y0107705D01*
X0080825Y0110262D01*
X0076675Y0110262D01*
X0076675Y0111262D01*
X0075675Y0111262D01*
X0075675Y0117380D01*
X0072828Y0117380D01*
X0072738Y0117355D01*
X0072738Y0120333D01*
X0073892Y0121487D01*
X0088987Y0121487D01*
X0090862Y0123362D01*
X0102425Y0123362D01*
X0104300Y0121487D01*
X0109025Y0121487D01*
X0109025Y0117401D01*
X0113175Y0117401D01*
X0113175Y0116401D01*
X0109025Y0116401D01*
X0109025Y0112700D01*
X0103362Y0118362D01*
X0098362Y0118362D01*
X0098362Y0118135D01*
X0097767Y0118135D01*
X0096684Y0118135D01*
X0096487Y0118083D01*
X0096291Y0118135D01*
X0095208Y0118135D01*
X0095208Y0114667D01*
X0095208Y0114667D01*
X0095208Y0118135D01*
X0094612Y0118135D01*
X0094612Y0118675D01*
X0090862Y0118675D01*
X0086800Y0114300D01*
X0081800Y0114300D01*
X0081800Y0108675D01*
X0081800Y0109099D02*
X0080825Y0109099D01*
X0080825Y0108101D02*
X0081226Y0108101D01*
X0080825Y0110098D02*
X0081800Y0110098D01*
X0081800Y0111096D02*
X0076675Y0111096D01*
X0076675Y0111262D02*
X0080825Y0111262D01*
X0080825Y0116077D01*
X0080722Y0116459D01*
X0080525Y0116801D01*
X0080246Y0117080D01*
X0079904Y0117277D01*
X0079522Y0117380D01*
X0076675Y0117380D01*
X0076675Y0111262D01*
X0076175Y0110762D02*
X0074300Y0108887D01*
X0074300Y0106800D01*
X0075675Y0112095D02*
X0076675Y0112095D01*
X0076675Y0113093D02*
X0075675Y0113093D01*
X0075675Y0114092D02*
X0076675Y0114092D01*
X0076675Y0115090D02*
X0075675Y0115090D01*
X0075675Y0116089D02*
X0076675Y0116089D01*
X0076675Y0117087D02*
X0075675Y0117087D01*
X0072738Y0118086D02*
X0090315Y0118086D01*
X0089388Y0117087D02*
X0080233Y0117087D01*
X0080822Y0116089D02*
X0088461Y0116089D01*
X0087534Y0115090D02*
X0080825Y0115090D01*
X0080825Y0114092D02*
X0081800Y0114092D01*
X0081800Y0113093D02*
X0080825Y0113093D01*
X0080825Y0112095D02*
X0081800Y0112095D01*
X0087539Y0109727D02*
X0090274Y0112461D01*
X0090365Y0112119D01*
X0090563Y0111777D01*
X0090842Y0111498D01*
X0091184Y0111300D01*
X0091566Y0111198D01*
X0092649Y0111198D01*
X0093050Y0111198D01*
X0093050Y0109764D01*
X0091729Y0109764D01*
X0091729Y0096363D01*
X0090729Y0096363D01*
X0090729Y0109764D01*
X0087727Y0109764D01*
X0087539Y0109727D01*
X0087910Y0110098D02*
X0093050Y0110098D01*
X0093050Y0111096D02*
X0088909Y0111096D01*
X0089907Y0112095D02*
X0090380Y0112095D01*
X0092649Y0112095D02*
X0092649Y0112095D01*
X0092649Y0111198D02*
X0092649Y0114666D01*
X0092649Y0114666D01*
X0092649Y0111198D01*
X0092649Y0113093D02*
X0092649Y0113093D01*
X0092649Y0114092D02*
X0092649Y0114092D01*
X0095208Y0114667D02*
X0095208Y0114667D01*
X0097594Y0114667D01*
X0097767Y0114667D01*
X0097767Y0118135D01*
X0097767Y0114667D01*
X0097767Y0114667D01*
X0097767Y0114667D01*
X0095208Y0114667D01*
X0095208Y0115090D02*
X0095208Y0115090D01*
X0095208Y0116089D02*
X0095208Y0116089D01*
X0095208Y0117087D02*
X0095208Y0117087D01*
X0095208Y0118086D02*
X0095208Y0118086D01*
X0096476Y0118086D02*
X0096499Y0118086D01*
X0097767Y0118086D02*
X0097767Y0118086D01*
X0097767Y0117087D02*
X0097767Y0117087D01*
X0097767Y0116089D02*
X0097767Y0116089D01*
X0097767Y0115090D02*
X0097767Y0115090D01*
X0103639Y0118086D02*
X0109025Y0118086D01*
X0109025Y0119084D02*
X0072738Y0119084D01*
X0072738Y0120083D02*
X0109025Y0120083D01*
X0109025Y0121081D02*
X0073485Y0121081D01*
X0084713Y0129713D02*
X0087627Y0132627D01*
X0084300Y0131454D01*
X0087627Y0132627D02*
X0089445Y0130808D01*
X0092649Y0130808D01*
X0095208Y0130808D02*
X0095208Y0134955D01*
X0093362Y0136800D01*
X0093362Y0140560D01*
X0093060Y0140863D01*
X0092744Y0141179D01*
X0092744Y0149890D01*
X0100224Y0149890D02*
X0100224Y0155251D01*
X0098362Y0157113D01*
X0101175Y0161175D02*
X0104925Y0164925D01*
X0101175Y0161175D02*
X0085863Y0161175D01*
X0084024Y0164024D02*
X0086800Y0166800D01*
X0086800Y0169300D01*
X0101800Y0169300D01*
X0104300Y0171800D01*
X0084024Y0164024D02*
X0074024Y0164024D01*
X0074300Y0164300D01*
X0074024Y0164024D02*
X0063700Y0164024D01*
X0057824Y0176200D02*
X0057824Y0180324D01*
X0059300Y0181800D01*
X0059300Y0196800D01*
X0046800Y0191800D02*
X0045800Y0186800D01*
X0036200Y0186616D02*
X0036200Y0194900D01*
X0034300Y0196800D01*
X0033257Y0199300D02*
X0033257Y0189559D01*
X0036200Y0186616D01*
X0055800Y0184300D02*
X0056616Y0184116D01*
X0070146Y0182646D02*
X0070146Y0179300D01*
X0070146Y0182646D02*
X0071800Y0185300D01*
X0036800Y0149300D02*
X0035776Y0149300D01*
X0089580Y0122080D02*
X0103708Y0122080D01*
X0102709Y0123078D02*
X0090578Y0123078D01*
X0100010Y0127340D02*
X0100326Y0127340D01*
X0100326Y0130808D01*
X0100326Y0130808D01*
X0100326Y0127340D01*
X0101409Y0127340D01*
X0101791Y0127442D01*
X0102133Y0127640D01*
X0102412Y0127919D01*
X0102610Y0128261D01*
X0102712Y0128642D01*
X0102712Y0130808D01*
X0100326Y0130808D01*
X0100326Y0130808D01*
X0102712Y0130808D01*
X0102712Y0132974D01*
X0102610Y0133356D01*
X0102412Y0133698D01*
X0102133Y0133977D01*
X0101791Y0134175D01*
X0101409Y0134277D01*
X0100326Y0134277D01*
X0099925Y0134277D01*
X0099925Y0134925D01*
X0098440Y0136410D01*
X0100040Y0136410D01*
X0100040Y0140362D01*
X0101040Y0140362D01*
X0101040Y0136410D01*
X0103297Y0136410D01*
X0103678Y0136512D01*
X0104020Y0136709D01*
X0104299Y0136989D01*
X0104497Y0137331D01*
X0104599Y0137712D01*
X0104599Y0140363D01*
X0101040Y0140363D01*
X0101040Y0141362D01*
X0104599Y0141362D01*
X0104599Y0144013D01*
X0104522Y0144300D01*
X0105237Y0144300D01*
X0106410Y0145472D01*
X0106410Y0145435D01*
X0110362Y0145435D01*
X0110362Y0144435D01*
X0106410Y0144435D01*
X0106410Y0142178D01*
X0106512Y0141797D01*
X0106709Y0141455D01*
X0106989Y0141175D01*
X0107331Y0140978D01*
X0107712Y0140876D01*
X0110363Y0140876D01*
X0110363Y0144435D01*
X0111362Y0144435D01*
X0111362Y0140876D01*
X0114013Y0140876D01*
X0114394Y0140978D01*
X0114736Y0141175D01*
X0115016Y0141455D01*
X0115213Y0141797D01*
X0115315Y0142178D01*
X0115315Y0144435D01*
X0111363Y0144435D01*
X0111363Y0145435D01*
X0115315Y0145435D01*
X0115315Y0147425D01*
X0118362Y0147425D01*
X0118362Y0127737D01*
X0118325Y0127700D01*
X0118325Y0130574D01*
X0114175Y0130574D01*
X0114175Y0131574D01*
X0118325Y0131574D01*
X0118325Y0136390D01*
X0118222Y0136771D01*
X0118025Y0137113D01*
X0117746Y0137393D01*
X0117404Y0137590D01*
X0117022Y0137692D01*
X0114175Y0137692D01*
X0114175Y0131574D01*
X0113175Y0131574D01*
X0113175Y0130574D01*
X0109025Y0130574D01*
X0109025Y0126175D01*
X0101175Y0126175D01*
X0100010Y0127340D01*
X0100278Y0127072D02*
X0109025Y0127072D01*
X0109025Y0128071D02*
X0102500Y0128071D01*
X0102712Y0129069D02*
X0109025Y0129069D01*
X0109025Y0130068D02*
X0102712Y0130068D01*
X0102712Y0131066D02*
X0113175Y0131066D01*
X0113175Y0131574D02*
X0109025Y0131574D01*
X0109025Y0136390D01*
X0109128Y0136771D01*
X0109325Y0137113D01*
X0109604Y0137393D01*
X0109946Y0137590D01*
X0110328Y0137692D01*
X0113175Y0137692D01*
X0113175Y0131574D01*
X0113175Y0132065D02*
X0114175Y0132065D01*
X0114175Y0133063D02*
X0113175Y0133063D01*
X0113175Y0134062D02*
X0114175Y0134062D01*
X0114175Y0135060D02*
X0113175Y0135060D01*
X0113175Y0136059D02*
X0114175Y0136059D01*
X0114175Y0137057D02*
X0113175Y0137057D01*
X0109293Y0137057D02*
X0104339Y0137057D01*
X0104599Y0138056D02*
X0118362Y0138056D01*
X0118362Y0139054D02*
X0104599Y0139054D01*
X0104599Y0140053D02*
X0118362Y0140053D01*
X0118362Y0141051D02*
X0114521Y0141051D01*
X0115281Y0142050D02*
X0118362Y0142050D01*
X0118362Y0143048D02*
X0115315Y0143048D01*
X0115315Y0144047D02*
X0118362Y0144047D01*
X0118362Y0145045D02*
X0111363Y0145045D01*
X0111362Y0144047D02*
X0110363Y0144047D01*
X0110362Y0145045D02*
X0105983Y0145045D01*
X0106410Y0144047D02*
X0104590Y0144047D01*
X0104599Y0143048D02*
X0106410Y0143048D01*
X0106444Y0142050D02*
X0104599Y0142050D01*
X0107204Y0141051D02*
X0101040Y0141051D01*
X0100540Y0140863D02*
X0100326Y0140648D01*
X0100040Y0140053D02*
X0101040Y0140053D01*
X0101040Y0139054D02*
X0100040Y0139054D01*
X0100040Y0138056D02*
X0101040Y0138056D01*
X0101040Y0137057D02*
X0100040Y0137057D01*
X0098791Y0136059D02*
X0109025Y0136059D01*
X0109025Y0135060D02*
X0099790Y0135060D01*
X0100326Y0134277D02*
X0100326Y0130808D01*
X0100326Y0130808D01*
X0100326Y0134277D01*
X0100326Y0134062D02*
X0100326Y0134062D01*
X0100326Y0133063D02*
X0100326Y0133063D01*
X0100326Y0132065D02*
X0100326Y0132065D01*
X0100326Y0131066D02*
X0100326Y0131066D01*
X0100326Y0130068D02*
X0100326Y0130068D01*
X0100326Y0129069D02*
X0100326Y0129069D01*
X0100326Y0128071D02*
X0100326Y0128071D01*
X0102712Y0132065D02*
X0109025Y0132065D01*
X0109025Y0133063D02*
X0102688Y0133063D01*
X0101986Y0134062D02*
X0109025Y0134062D01*
X0114175Y0131066D02*
X0118362Y0131066D01*
X0118325Y0130068D02*
X0118362Y0130068D01*
X0118325Y0129069D02*
X0118362Y0129069D01*
X0118325Y0128071D02*
X0118362Y0128071D01*
X0118325Y0132065D02*
X0118362Y0132065D01*
X0118325Y0133063D02*
X0118362Y0133063D01*
X0118325Y0134062D02*
X0118362Y0134062D01*
X0118325Y0135060D02*
X0118362Y0135060D01*
X0118325Y0136059D02*
X0118362Y0136059D01*
X0118362Y0137057D02*
X0118057Y0137057D01*
X0111362Y0141051D02*
X0110363Y0141051D01*
X0110363Y0142050D02*
X0111362Y0142050D01*
X0111362Y0143048D02*
X0110363Y0143048D01*
X0115315Y0146044D02*
X0118362Y0146044D01*
X0118362Y0147042D02*
X0115315Y0147042D01*
X0114175Y0117401D02*
X0116487Y0117401D01*
X0116487Y0116401D01*
X0114175Y0116401D01*
X0114175Y0117401D01*
X0114175Y0117087D02*
X0116487Y0117087D01*
X0113175Y0117087D02*
X0104638Y0117087D01*
X0105636Y0116089D02*
X0109025Y0116089D01*
X0109025Y0115090D02*
X0106635Y0115090D01*
X0107633Y0114092D02*
X0109025Y0114092D01*
X0109025Y0113093D02*
X0108632Y0113093D01*
X0091729Y0109099D02*
X0090729Y0109099D01*
X0090729Y0108101D02*
X0091729Y0108101D01*
X0091729Y0107102D02*
X0090729Y0107102D01*
X0090729Y0106103D02*
X0091729Y0106103D01*
X0091729Y0105105D02*
X0090729Y0105105D01*
X0090729Y0104106D02*
X0091729Y0104106D01*
X0091729Y0103108D02*
X0090729Y0103108D01*
X0090729Y0102109D02*
X0091729Y0102109D01*
X0091729Y0101111D02*
X0090729Y0101111D01*
X0090729Y0100112D02*
X0091729Y0100112D01*
X0091729Y0099114D02*
X0090729Y0099114D01*
X0090729Y0098115D02*
X0091729Y0098115D01*
X0091729Y0097117D02*
X0090729Y0097117D01*
X0090729Y0096118D02*
X0076675Y0096118D01*
X0076675Y0095120D02*
X0075675Y0095120D01*
X0075675Y0096118D02*
X0068500Y0096118D01*
X0068500Y0095120D02*
X0071525Y0095120D01*
X0071525Y0097117D02*
X0068500Y0097117D01*
X0068500Y0098115D02*
X0071525Y0098115D01*
X0071525Y0099114D02*
X0068500Y0099114D01*
X0068500Y0100112D02*
X0071525Y0100112D01*
X0071525Y0101111D02*
X0068500Y0101111D01*
X0075675Y0094121D02*
X0076675Y0094121D01*
X0076675Y0093123D02*
X0075675Y0093123D01*
X0075675Y0092124D02*
X0076675Y0092124D01*
X0076675Y0091126D02*
X0075675Y0091126D01*
X0075675Y0090127D02*
X0076675Y0090127D01*
X0078608Y0087132D02*
X0085398Y0087132D01*
X0085398Y0088130D02*
X0073681Y0088130D01*
X0079780Y0086133D02*
X0085398Y0086133D01*
X0085398Y0085135D02*
X0080738Y0085135D01*
X0081152Y0084136D02*
X0085429Y0084136D01*
X0085814Y0083138D02*
X0081565Y0083138D01*
X0081687Y0082139D02*
X0087037Y0082139D01*
X0090729Y0082139D02*
X0091729Y0082139D01*
X0091800Y0081800D02*
X0091229Y0082371D01*
X0091229Y0095862D01*
X0091729Y0096118D02*
X0095237Y0096118D01*
X0095237Y0096362D02*
X0091729Y0096362D01*
X0091729Y0095363D01*
X0095237Y0095363D01*
X0095237Y0096362D01*
X0091729Y0095120D02*
X0090729Y0095120D01*
X0090729Y0094121D02*
X0091729Y0094121D01*
X0091729Y0093123D02*
X0090729Y0093123D01*
X0090729Y0092124D02*
X0091729Y0092124D01*
X0091729Y0091126D02*
X0090729Y0091126D01*
X0090729Y0090127D02*
X0091729Y0090127D01*
X0091729Y0089129D02*
X0090729Y0089129D01*
X0090729Y0088130D02*
X0091729Y0088130D01*
X0091729Y0087132D02*
X0090729Y0087132D01*
X0090729Y0086133D02*
X0091729Y0086133D01*
X0091800Y0086800D02*
X0091711Y0086889D01*
X0091800Y0086800D02*
X0091800Y0081800D01*
X0091729Y0083138D02*
X0090729Y0083138D01*
X0090729Y0084136D02*
X0091729Y0084136D01*
X0091729Y0085135D02*
X0090729Y0085135D01*
X0279300Y0244300D02*
X0279300Y0260540D01*
X0280560Y0261800D01*
X0296800Y0246800D02*
X0294300Y0244300D01*
X0279300Y0244300D01*
X0296800Y0246800D02*
X0301800Y0246800D01*
D41*
X0246800Y0264300D03*
X0193675Y0217425D03*
X0181800Y0214300D03*
X0156465Y0218394D03*
X0138988Y0184612D03*
X0139925Y0175550D03*
X0112112Y0158988D03*
X0098362Y0157113D03*
X0085863Y0161175D03*
X0089612Y0120862D03*
X0096487Y0120862D03*
X0100862Y0120862D03*
X0106612Y0118550D03*
X0127425Y0121800D03*
X0129612Y0114550D03*
X0141488Y0095550D03*
X0076175Y0119612D03*
X0176800Y0170550D03*
X0228675Y0194612D03*
X0236175Y0197425D03*
X0257112Y0207425D03*
X0268363Y0203362D03*
X0291175Y0190237D03*
X0444300Y0245237D03*
X0446487Y0258675D03*
D42*
X0302843Y0268844D02*
X0301833Y0268833D01*
X0287843Y0268675D01*
X0280757Y0268675D02*
X0276175Y0268675D01*
X0269300Y0261800D01*
X0262112Y0268988D01*
X0261165Y0268988D01*
X0253685Y0268988D02*
X0251487Y0268988D01*
X0246800Y0264300D01*
X0266800Y0259300D02*
X0266800Y0234300D01*
X0266800Y0259300D02*
X0269300Y0261800D01*
X0181800Y0214300D02*
X0181175Y0214925D01*
X0170540Y0214925D01*
X0112112Y0158988D02*
X0110862Y0157738D01*
X0110862Y0152415D01*
X0127425Y0121800D02*
X0124300Y0113675D01*
X0124300Y0096175D01*
X0119612Y0096175D01*
X0114925Y0091487D01*
X0114925Y0082425D01*
X0092649Y0087826D02*
X0091711Y0086889D01*
X0089501Y0084678D01*
X0092649Y0087826D02*
X0092649Y0095407D01*
X0091229Y0095862D02*
X0076901Y0095862D01*
X0076175Y0096588D01*
X0424300Y0131800D02*
X0441800Y0131800D01*
X0446800Y0126800D01*
X0504925Y0126800D01*
X0508050Y0123675D01*
X0508050Y0107425D01*
X0505535Y0104910D01*
X0498675Y0104910D01*
X0500353Y0118887D02*
X0466800Y0118887D01*
X0463887Y0121800D02*
X0444300Y0121800D01*
D43*
X0097459Y0114667D02*
X0096800Y0114300D01*
X0096800Y0114667D01*
D44*
X0113675Y0116901D02*
X0114401Y0116901D01*
X0116800Y0119300D01*
X0121800Y0119300D02*
X0121800Y0116800D01*
X0119300Y0114300D01*
X0119300Y0101800D01*
X0115300Y0099300D01*
X0091800Y0081800D02*
X0084300Y0081800D01*
X0070800Y0088300D02*
X0064300Y0086800D01*
X0060300Y0089300D02*
X0061300Y0076800D01*
X0061300Y0067300D01*
X0064300Y0064300D01*
X0066800Y0064300D01*
X0071800Y0059300D01*
X0084300Y0059300D01*
X0084300Y0068887D01*
X0089713Y0074300D01*
X0079385Y0071885D02*
X0079385Y0068591D01*
X0101975Y0061685D02*
X0104185Y0061685D01*
X0109300Y0066800D01*
X0109300Y0068887D01*
X0103887Y0074300D01*
X0109300Y0066800D02*
X0136800Y0066800D01*
X0139300Y0069300D01*
X0139300Y0074300D01*
X0146800Y0081800D01*
X0102800Y0126800D02*
X0100326Y0130774D01*
X0100326Y0130808D01*
X0084713Y0129713D02*
X0079713Y0129713D01*
X0066800Y0116800D01*
X0066800Y0091800D01*
X0064300Y0091800D01*
X0060300Y0089300D01*
X0061800Y0094300D02*
X0064300Y0096300D01*
X0064300Y0121300D01*
X0066800Y0121800D01*
X0071800Y0126800D01*
X0076800Y0134300D02*
X0060300Y0129800D01*
X0060800Y0118800D01*
X0049060Y0125560D02*
X0047800Y0124300D01*
X0049060Y0125560D02*
X0049060Y0129800D01*
X0041800Y0126800D02*
X0041800Y0089300D01*
X0036800Y0089300D01*
X0036800Y0084300D02*
X0036800Y0079300D01*
X0036800Y0084300D02*
X0054300Y0084300D01*
X0054300Y0106800D01*
X0046800Y0106800D01*
X0036800Y0109300D02*
X0035800Y0142400D01*
X0035776Y0142400D01*
X0038926Y0142400D02*
X0039300Y0142400D01*
X0039300Y0126800D01*
X0041800Y0126800D01*
X0031800Y0131800D02*
X0031800Y0148276D01*
X0029900Y0148276D01*
X0020300Y0151300D02*
X0013300Y0156800D01*
X0013300Y0194300D01*
X0021800Y0194300D01*
X0024300Y0196800D01*
X0016800Y0199300D02*
X0014300Y0196800D01*
X0014800Y0199300D01*
X0040800Y0208800D02*
X0044300Y0211800D01*
X0058100Y0209300D02*
X0063454Y0209300D01*
X0063454Y0179300D01*
X0057824Y0176200D02*
X0054674Y0176200D01*
X0057824Y0176200D02*
X0057824Y0160875D01*
X0063700Y0160875D01*
X0063700Y0160800D01*
X0076800Y0160800D01*
X0073454Y0157300D02*
X0069800Y0157300D01*
X0069300Y0156800D01*
X0069300Y0154300D02*
X0063976Y0154300D01*
X0063700Y0154576D01*
X0064074Y0151800D02*
X0063700Y0151426D01*
X0064074Y0151800D02*
X0067800Y0150800D01*
X0069300Y0144300D01*
X0073454Y0144100D01*
X0080146Y0144100D02*
X0080146Y0135146D01*
X0079300Y0134300D01*
X0082646Y0134300D01*
X0084300Y0131454D01*
X0084300Y0138146D02*
X0088146Y0142646D01*
X0087300Y0146300D01*
X0086800Y0151800D02*
X0080146Y0150300D01*
X0073454Y0150300D02*
X0073454Y0157300D01*
X0069300Y0154300D02*
X0073454Y0150300D01*
X0063700Y0148276D02*
X0059800Y0148276D01*
X0058800Y0148300D01*
X0048800Y0163800D01*
X0039300Y0169300D02*
X0057800Y0145800D01*
X0057800Y0142400D01*
X0057824Y0142400D01*
X0024300Y0136800D02*
X0024300Y0170324D01*
X0029900Y0170324D01*
X0063700Y0167174D02*
X0063700Y0166800D01*
X0071800Y0166800D01*
X0071800Y0169300D01*
X0078454Y0169300D01*
X0078454Y0176800D01*
X0086800Y0176800D01*
X0086800Y0209300D01*
X0095500Y0209300D01*
X0096800Y0221800D02*
X0031800Y0221800D01*
X0066800Y0201800D02*
X0071800Y0201800D01*
X0074300Y0204300D01*
X0074300Y0216800D01*
X0091800Y0246800D02*
X0101800Y0246800D01*
X0121800Y0266800D01*
X0121800Y0269300D01*
X0124300Y0274300D01*
X0224300Y0274300D01*
X0251800Y0246800D01*
X0251800Y0244300D01*
X0261800Y0234300D01*
X0261800Y0229300D01*
X0271800Y0229300D01*
X0286800Y0214300D01*
X0301800Y0214800D01*
X0311800Y0211800D02*
X0284300Y0211800D01*
X0269300Y0226800D01*
X0259300Y0226800D01*
X0259300Y0231800D01*
X0249300Y0241800D01*
X0249300Y0244300D01*
X0221800Y0271800D01*
X0126800Y0271800D01*
X0126800Y0269300D01*
X0106800Y0246300D01*
X0069300Y0174300D02*
X0066800Y0174300D01*
X0119300Y0159300D02*
X0139300Y0159300D01*
X0154300Y0158800D02*
X0157800Y0155300D01*
X0186300Y0155300D01*
X0191237Y0150363D01*
X0191800Y0150363D01*
X0191800Y0149300D01*
X0301800Y0166300D02*
X0302800Y0165800D01*
X0346800Y0165800D01*
X0348300Y0164300D01*
X0349300Y0164300D01*
X0351800Y0161800D01*
X0351800Y0160363D01*
X0351800Y0150363D02*
X0351800Y0141800D01*
X0381800Y0141800D01*
X0381800Y0154300D01*
X0389300Y0161800D01*
X0405300Y0160300D02*
X0405300Y0159800D01*
X0405300Y0160300D02*
X0416800Y0171800D01*
X0416800Y0189300D02*
X0416800Y0201800D01*
X0379300Y0201800D02*
X0324300Y0201800D01*
X0311800Y0211800D01*
X0291800Y0219300D02*
X0291800Y0223665D01*
X0297435Y0229300D01*
X0291800Y0247800D02*
X0288040Y0261800D01*
X0349300Y0174300D02*
X0369300Y0174300D01*
D45*
X0252509Y0230206D03*
X0246175Y0230206D03*
X0126800Y0209300D03*
X0126800Y0202646D03*
D46*
X0126800Y0209300D02*
X0126800Y0218670D01*
X0138335Y0230206D01*
X0252509Y0230206D01*
X0291800Y0180737D02*
X0163237Y0180737D01*
X0153970Y0170413D01*
X0153086Y0169428D01*
X0150572Y0166628D01*
X0146800Y0162425D01*
X0146800Y0154300D01*
X0151170Y0149930D01*
X0171800Y0150363D01*
X0181800Y0150363D01*
X0291800Y0180737D02*
X0387863Y0180737D01*
X0399300Y0169300D01*
X0399300Y0101800D01*
X0401800Y0099300D01*
X0414300Y0099300D01*
D47*
X0146800Y0154300D02*
X0125550Y0154300D01*
X0117112Y0145863D01*
X0117112Y0140550D01*
X0115862Y0139300D01*
X0110862Y0139300D01*
X0110862Y0144935D01*
D48*
X0084300Y0081800D02*
X0081800Y0076800D01*
X0079385Y0071885D01*
D49*
X0167425Y0174300D02*
X0338050Y0174300D01*
D50*
X0167425Y0174300D02*
X0161175Y0168050D01*
X0129612Y0114550D02*
X0129612Y0100862D01*
X0134300Y0096175D01*
D51*
X0134300Y0090767D01*
X0128050Y0084517D01*
X0127799Y0074925D02*
X0128050Y0074674D01*
D52*
X0076800Y0134300D02*
X0076800Y0160800D01*
X0066800Y0174300D02*
X0066800Y0201800D01*
D53*
X0096800Y0221800D03*
X0031800Y0221800D03*
X0039300Y0169300D03*
X0379300Y0201800D03*
X0416800Y0201800D03*
X0416800Y0189300D03*
M02*
