G75*
%MOIN*%
%OFA0B0*%
%FSLAX25Y25*%
%IPPOS*%
%LPD*%
%AMOC8*
5,1,8,0,0,1.08239X$1,22.5*
%
%ADD10C,0.00000*%
%ADD11C,0.12211*%
%ADD12C,0.10400*%
%ADD13C,0.10243*%
%ADD14C,0.15361*%
%ADD15C,0.16148*%
%ADD16C,0.13386*%
%ADD17C,0.07874*%
%ADD18R,0.07400X0.07400*%
%ADD19C,0.07400*%
%ADD20C,0.00039*%
%ADD21C,0.01615*%
%ADD22C,0.06337*%
%ADD23C,0.00100*%
%ADD24R,0.01778X0.05518*%
%ADD25R,0.06306X0.05518*%
%ADD26R,0.03550X0.03943*%
%ADD27R,0.05912X0.09061*%
%ADD28R,0.05912X0.03943*%
%ADD29R,0.05518X0.06306*%
%ADD30C,0.10243*%
%ADD31R,0.21654X0.21654*%
%ADD32R,0.02762X0.09061*%
%ADD33R,0.08274X0.02762*%
%ADD34R,0.18110X0.03543*%
%ADD35R,0.01975X0.03353*%
%ADD36R,0.05124X0.02565*%
%ADD37R,0.05400X0.02900*%
%ADD38R,0.06699X0.06306*%
%ADD39R,0.05124X0.05124*%
%ADD40C,0.06800*%
%ADD41R,0.03943X0.05912*%
%ADD42R,0.09061X0.05912*%
%ADD43R,0.05912X0.01581*%
%ADD44C,0.00016*%
%ADD45R,0.08274X0.09849*%
%ADD46R,0.02369X0.09487*%
%ADD47C,0.04337*%
%ADD48C,0.04400*%
%ADD49C,0.13061*%
%ADD50C,0.09000*%
%ADD51C,0.08274*%
%ADD52R,0.04337X0.04731*%
%ADD53R,0.08668X0.06306*%
%ADD54C,0.03550*%
D10*
X0009602Y0057240D02*
X0055895Y0043393D01*
X0060345Y0056843D01*
X0098403Y0045455D01*
X0094488Y0032013D01*
X0118750Y0024545D01*
X0137455Y0024545D01*
X0137455Y0040564D01*
X0141358Y0040564D01*
X0141358Y0069902D01*
X0142017Y0072901D01*
X0144094Y0075934D01*
X0146330Y0077410D01*
X0153863Y0077410D01*
X0153863Y0086553D01*
X0159644Y0089064D01*
X0159644Y0104722D01*
X0153773Y0107915D01*
X0153773Y0119698D01*
X0144067Y0119698D01*
X0142565Y0120609D01*
X0141603Y0122094D01*
X0141335Y0124257D01*
X0141335Y0131200D01*
X0142324Y0134249D01*
X0144466Y0136969D01*
X0146362Y0138411D01*
X0149658Y0138699D01*
X0238092Y0138173D01*
X0238092Y0133747D01*
X0287386Y0133747D01*
X0287386Y0138264D01*
X0391399Y0138264D01*
X0391399Y0072528D01*
X0385624Y0068600D01*
X0385624Y0013034D01*
X0385625Y0013034D02*
X0385627Y0012947D01*
X0385633Y0012860D01*
X0385642Y0012773D01*
X0385655Y0012687D01*
X0385672Y0012602D01*
X0385693Y0012517D01*
X0385717Y0012434D01*
X0385745Y0012351D01*
X0385776Y0012270D01*
X0385811Y0012190D01*
X0385850Y0012112D01*
X0385892Y0012036D01*
X0385937Y0011961D01*
X0385985Y0011889D01*
X0386036Y0011818D01*
X0386091Y0011750D01*
X0386148Y0011685D01*
X0386208Y0011622D01*
X0386271Y0011562D01*
X0386336Y0011504D01*
X0386404Y0011450D01*
X0386474Y0011398D01*
X0386546Y0011349D01*
X0386621Y0011304D01*
X0386697Y0011262D01*
X0386775Y0011223D01*
X0386854Y0011188D01*
X0386936Y0011156D01*
X0387018Y0011128D01*
X0387101Y0011104D01*
X0387186Y0011083D01*
X0387271Y0011065D01*
X0387357Y0011052D01*
X0387444Y0011042D01*
X0387531Y0011036D01*
X0387618Y0011034D01*
X0387617Y0011034D02*
X0400773Y0010988D01*
X0401275Y0010922D02*
X0405925Y0009698D01*
X0407521Y0009953D02*
X0415283Y0014980D01*
X0415283Y0014979D02*
X0415355Y0015028D01*
X0415425Y0015080D01*
X0415493Y0015135D01*
X0415558Y0015193D01*
X0415621Y0015254D01*
X0415680Y0015318D01*
X0415737Y0015384D01*
X0415792Y0015452D01*
X0415843Y0015523D01*
X0415891Y0015596D01*
X0415935Y0015671D01*
X0415977Y0015747D01*
X0416015Y0015826D01*
X0416049Y0015906D01*
X0416080Y0015988D01*
X0416108Y0016070D01*
X0416132Y0016154D01*
X0416152Y0016239D01*
X0416168Y0016325D01*
X0416181Y0016411D01*
X0416190Y0016498D01*
X0416195Y0016585D01*
X0416196Y0016672D01*
X0416193Y0016759D01*
X0416187Y0016846D01*
X0416177Y0016933D01*
X0416177Y0016934D02*
X0415721Y0020217D01*
X0428437Y0024871D01*
X0433837Y0022218D01*
X0495728Y0039022D01*
X0496073Y0039807D01*
X0497824Y0044090D01*
X0501389Y0045724D01*
X0503943Y0047414D01*
X0505509Y0049639D01*
X0506292Y0051782D01*
X0506292Y0055523D01*
X0514665Y0055523D01*
X0517566Y0057534D01*
X0519478Y0059578D01*
X0520116Y0062643D01*
X0520116Y0107227D01*
X0514006Y0107227D01*
X0514006Y0169460D01*
X0515984Y0172344D01*
X0517674Y0175558D01*
X0518374Y0178937D01*
X0518704Y0183841D01*
X0518704Y0186272D01*
X0517674Y0190640D01*
X0515819Y0195007D01*
X0514020Y0197397D01*
X0514020Y0219346D01*
X0509531Y0219346D01*
X0509531Y0235264D01*
X0498199Y0250439D01*
X0460244Y0256444D01*
X0460244Y0265015D01*
X0440176Y0265015D01*
X0438610Y0262831D01*
X0436427Y0261101D01*
X0433542Y0259741D01*
X0430905Y0259082D01*
X0421469Y0259082D01*
X0419491Y0260235D01*
X0418214Y0261925D01*
X0407655Y0290871D01*
X0406676Y0293344D01*
X0404410Y0295249D01*
X0402504Y0295919D01*
X0386897Y0295919D01*
X0386897Y0282577D01*
X0345892Y0282577D01*
X0345892Y0293329D01*
X0334947Y0293329D01*
X0334947Y0277426D01*
X0322392Y0277426D01*
X0322392Y0296732D01*
X0271302Y0296732D01*
X0271302Y0293089D01*
X0179743Y0293089D01*
X0179750Y0284354D01*
X0165504Y0284354D01*
X0165504Y0277596D01*
X0152977Y0277596D01*
X0152977Y0284280D01*
X0140649Y0284280D01*
X0139264Y0284939D01*
X0138671Y0286257D01*
X0138671Y0296686D01*
X0123199Y0296686D01*
X0120232Y0295162D01*
X0118254Y0292895D01*
X0107384Y0262144D01*
X0106406Y0260598D01*
X0104500Y0259259D01*
X0102440Y0258749D01*
X0093776Y0258749D01*
X0092899Y0259034D01*
X0089355Y0260806D01*
X0086677Y0262866D01*
X0085441Y0265132D01*
X0064879Y0265132D01*
X0064879Y0257303D01*
X0027011Y0251223D01*
X0016244Y0235727D01*
X0016244Y0220539D01*
X0018327Y0220170D01*
X0020411Y0219063D01*
X0021888Y0217744D01*
X0022257Y0215529D01*
X0022072Y0213736D01*
X0020886Y0212180D01*
X0019461Y0211615D01*
X0011533Y0211615D01*
X0011533Y0199511D01*
X0011390Y0199161D01*
X0010137Y0196359D01*
X0008423Y0192172D01*
X0006940Y0188250D01*
X0005918Y0180503D01*
X0005588Y0175130D01*
X0006346Y0167746D01*
X0007698Y0161120D01*
X0009412Y0156010D01*
X0011723Y0151494D01*
X0011723Y0108707D01*
X0021476Y0108707D01*
X0021476Y0075244D01*
X0005849Y0075244D01*
X0005849Y0063303D01*
X0006125Y0061554D01*
X0007542Y0059043D01*
X0009602Y0057240D01*
X0008681Y0065675D02*
X0008683Y0065828D01*
X0008689Y0065982D01*
X0008699Y0066135D01*
X0008713Y0066287D01*
X0008731Y0066440D01*
X0008753Y0066591D01*
X0008778Y0066742D01*
X0008808Y0066893D01*
X0008842Y0067043D01*
X0008879Y0067191D01*
X0008920Y0067339D01*
X0008965Y0067485D01*
X0009014Y0067631D01*
X0009067Y0067775D01*
X0009123Y0067917D01*
X0009183Y0068058D01*
X0009247Y0068198D01*
X0009314Y0068336D01*
X0009385Y0068472D01*
X0009460Y0068606D01*
X0009537Y0068738D01*
X0009619Y0068868D01*
X0009703Y0068996D01*
X0009791Y0069122D01*
X0009882Y0069245D01*
X0009976Y0069366D01*
X0010074Y0069484D01*
X0010174Y0069600D01*
X0010278Y0069713D01*
X0010384Y0069824D01*
X0010493Y0069932D01*
X0010605Y0070037D01*
X0010719Y0070138D01*
X0010837Y0070237D01*
X0010956Y0070333D01*
X0011078Y0070426D01*
X0011203Y0070515D01*
X0011330Y0070602D01*
X0011459Y0070684D01*
X0011590Y0070764D01*
X0011723Y0070840D01*
X0011858Y0070913D01*
X0011995Y0070982D01*
X0012134Y0071047D01*
X0012274Y0071109D01*
X0012416Y0071167D01*
X0012559Y0071222D01*
X0012704Y0071273D01*
X0012850Y0071320D01*
X0012997Y0071363D01*
X0013145Y0071402D01*
X0013294Y0071438D01*
X0013444Y0071469D01*
X0013595Y0071497D01*
X0013746Y0071521D01*
X0013899Y0071541D01*
X0014051Y0071557D01*
X0014204Y0071569D01*
X0014357Y0071577D01*
X0014510Y0071581D01*
X0014664Y0071581D01*
X0014817Y0071577D01*
X0014970Y0071569D01*
X0015123Y0071557D01*
X0015275Y0071541D01*
X0015428Y0071521D01*
X0015579Y0071497D01*
X0015730Y0071469D01*
X0015880Y0071438D01*
X0016029Y0071402D01*
X0016177Y0071363D01*
X0016324Y0071320D01*
X0016470Y0071273D01*
X0016615Y0071222D01*
X0016758Y0071167D01*
X0016900Y0071109D01*
X0017040Y0071047D01*
X0017179Y0070982D01*
X0017316Y0070913D01*
X0017451Y0070840D01*
X0017584Y0070764D01*
X0017715Y0070684D01*
X0017844Y0070602D01*
X0017971Y0070515D01*
X0018096Y0070426D01*
X0018218Y0070333D01*
X0018337Y0070237D01*
X0018455Y0070138D01*
X0018569Y0070037D01*
X0018681Y0069932D01*
X0018790Y0069824D01*
X0018896Y0069713D01*
X0019000Y0069600D01*
X0019100Y0069484D01*
X0019198Y0069366D01*
X0019292Y0069245D01*
X0019383Y0069122D01*
X0019471Y0068996D01*
X0019555Y0068868D01*
X0019637Y0068738D01*
X0019714Y0068606D01*
X0019789Y0068472D01*
X0019860Y0068336D01*
X0019927Y0068198D01*
X0019991Y0068058D01*
X0020051Y0067917D01*
X0020107Y0067775D01*
X0020160Y0067631D01*
X0020209Y0067485D01*
X0020254Y0067339D01*
X0020295Y0067191D01*
X0020332Y0067043D01*
X0020366Y0066893D01*
X0020396Y0066742D01*
X0020421Y0066591D01*
X0020443Y0066440D01*
X0020461Y0066287D01*
X0020475Y0066135D01*
X0020485Y0065982D01*
X0020491Y0065828D01*
X0020493Y0065675D01*
X0020491Y0065522D01*
X0020485Y0065368D01*
X0020475Y0065215D01*
X0020461Y0065063D01*
X0020443Y0064910D01*
X0020421Y0064759D01*
X0020396Y0064608D01*
X0020366Y0064457D01*
X0020332Y0064307D01*
X0020295Y0064159D01*
X0020254Y0064011D01*
X0020209Y0063865D01*
X0020160Y0063719D01*
X0020107Y0063575D01*
X0020051Y0063433D01*
X0019991Y0063292D01*
X0019927Y0063152D01*
X0019860Y0063014D01*
X0019789Y0062878D01*
X0019714Y0062744D01*
X0019637Y0062612D01*
X0019555Y0062482D01*
X0019471Y0062354D01*
X0019383Y0062228D01*
X0019292Y0062105D01*
X0019198Y0061984D01*
X0019100Y0061866D01*
X0019000Y0061750D01*
X0018896Y0061637D01*
X0018790Y0061526D01*
X0018681Y0061418D01*
X0018569Y0061313D01*
X0018455Y0061212D01*
X0018337Y0061113D01*
X0018218Y0061017D01*
X0018096Y0060924D01*
X0017971Y0060835D01*
X0017844Y0060748D01*
X0017715Y0060666D01*
X0017584Y0060586D01*
X0017451Y0060510D01*
X0017316Y0060437D01*
X0017179Y0060368D01*
X0017040Y0060303D01*
X0016900Y0060241D01*
X0016758Y0060183D01*
X0016615Y0060128D01*
X0016470Y0060077D01*
X0016324Y0060030D01*
X0016177Y0059987D01*
X0016029Y0059948D01*
X0015880Y0059912D01*
X0015730Y0059881D01*
X0015579Y0059853D01*
X0015428Y0059829D01*
X0015275Y0059809D01*
X0015123Y0059793D01*
X0014970Y0059781D01*
X0014817Y0059773D01*
X0014664Y0059769D01*
X0014510Y0059769D01*
X0014357Y0059773D01*
X0014204Y0059781D01*
X0014051Y0059793D01*
X0013899Y0059809D01*
X0013746Y0059829D01*
X0013595Y0059853D01*
X0013444Y0059881D01*
X0013294Y0059912D01*
X0013145Y0059948D01*
X0012997Y0059987D01*
X0012850Y0060030D01*
X0012704Y0060077D01*
X0012559Y0060128D01*
X0012416Y0060183D01*
X0012274Y0060241D01*
X0012134Y0060303D01*
X0011995Y0060368D01*
X0011858Y0060437D01*
X0011723Y0060510D01*
X0011590Y0060586D01*
X0011459Y0060666D01*
X0011330Y0060748D01*
X0011203Y0060835D01*
X0011078Y0060924D01*
X0010956Y0061017D01*
X0010837Y0061113D01*
X0010719Y0061212D01*
X0010605Y0061313D01*
X0010493Y0061418D01*
X0010384Y0061526D01*
X0010278Y0061637D01*
X0010174Y0061750D01*
X0010074Y0061866D01*
X0009976Y0061984D01*
X0009882Y0062105D01*
X0009791Y0062228D01*
X0009703Y0062354D01*
X0009619Y0062482D01*
X0009537Y0062612D01*
X0009460Y0062744D01*
X0009385Y0062878D01*
X0009314Y0063014D01*
X0009247Y0063152D01*
X0009183Y0063292D01*
X0009123Y0063433D01*
X0009067Y0063575D01*
X0009014Y0063719D01*
X0008965Y0063865D01*
X0008920Y0064011D01*
X0008879Y0064159D01*
X0008842Y0064307D01*
X0008808Y0064457D01*
X0008778Y0064608D01*
X0008753Y0064759D01*
X0008731Y0064910D01*
X0008713Y0065063D01*
X0008699Y0065215D01*
X0008689Y0065368D01*
X0008683Y0065522D01*
X0008681Y0065675D01*
X0061822Y0058041D02*
X0061824Y0058120D01*
X0061830Y0058199D01*
X0061840Y0058278D01*
X0061854Y0058356D01*
X0061871Y0058433D01*
X0061893Y0058509D01*
X0061918Y0058584D01*
X0061948Y0058657D01*
X0061980Y0058729D01*
X0062017Y0058800D01*
X0062057Y0058868D01*
X0062100Y0058934D01*
X0062146Y0058998D01*
X0062196Y0059060D01*
X0062249Y0059119D01*
X0062304Y0059175D01*
X0062363Y0059229D01*
X0062424Y0059279D01*
X0062487Y0059327D01*
X0062553Y0059371D01*
X0062621Y0059412D01*
X0062691Y0059449D01*
X0062762Y0059483D01*
X0062836Y0059513D01*
X0062910Y0059539D01*
X0062986Y0059561D01*
X0063063Y0059580D01*
X0063141Y0059595D01*
X0063219Y0059606D01*
X0063298Y0059613D01*
X0063377Y0059616D01*
X0063456Y0059615D01*
X0063535Y0059610D01*
X0063614Y0059601D01*
X0063692Y0059588D01*
X0063769Y0059571D01*
X0063846Y0059551D01*
X0063921Y0059526D01*
X0063995Y0059498D01*
X0064068Y0059466D01*
X0064138Y0059431D01*
X0064207Y0059392D01*
X0064274Y0059349D01*
X0064339Y0059303D01*
X0064401Y0059255D01*
X0064461Y0059203D01*
X0064518Y0059148D01*
X0064572Y0059090D01*
X0064623Y0059030D01*
X0064671Y0058967D01*
X0064716Y0058902D01*
X0064758Y0058834D01*
X0064796Y0058765D01*
X0064830Y0058694D01*
X0064861Y0058621D01*
X0064889Y0058546D01*
X0064912Y0058471D01*
X0064932Y0058394D01*
X0064948Y0058317D01*
X0064960Y0058238D01*
X0064968Y0058160D01*
X0064972Y0058081D01*
X0064972Y0058001D01*
X0064968Y0057922D01*
X0064960Y0057844D01*
X0064948Y0057765D01*
X0064932Y0057688D01*
X0064912Y0057611D01*
X0064889Y0057536D01*
X0064861Y0057461D01*
X0064830Y0057388D01*
X0064796Y0057317D01*
X0064758Y0057248D01*
X0064716Y0057180D01*
X0064671Y0057115D01*
X0064623Y0057052D01*
X0064572Y0056992D01*
X0064518Y0056934D01*
X0064461Y0056879D01*
X0064401Y0056827D01*
X0064339Y0056779D01*
X0064274Y0056733D01*
X0064207Y0056690D01*
X0064138Y0056651D01*
X0064068Y0056616D01*
X0063995Y0056584D01*
X0063921Y0056556D01*
X0063846Y0056531D01*
X0063769Y0056511D01*
X0063692Y0056494D01*
X0063614Y0056481D01*
X0063535Y0056472D01*
X0063456Y0056467D01*
X0063377Y0056466D01*
X0063298Y0056469D01*
X0063219Y0056476D01*
X0063141Y0056487D01*
X0063063Y0056502D01*
X0062986Y0056521D01*
X0062910Y0056543D01*
X0062836Y0056569D01*
X0062762Y0056599D01*
X0062691Y0056633D01*
X0062621Y0056670D01*
X0062553Y0056711D01*
X0062487Y0056755D01*
X0062424Y0056803D01*
X0062363Y0056853D01*
X0062304Y0056907D01*
X0062249Y0056963D01*
X0062196Y0057022D01*
X0062146Y0057084D01*
X0062100Y0057148D01*
X0062057Y0057214D01*
X0062017Y0057282D01*
X0061980Y0057353D01*
X0061948Y0057425D01*
X0061918Y0057498D01*
X0061893Y0057573D01*
X0061871Y0057649D01*
X0061854Y0057726D01*
X0061840Y0057804D01*
X0061830Y0057883D01*
X0061824Y0057962D01*
X0061822Y0058041D01*
X0100225Y0046300D02*
X0100227Y0046379D01*
X0100233Y0046458D01*
X0100243Y0046537D01*
X0100257Y0046615D01*
X0100274Y0046692D01*
X0100296Y0046768D01*
X0100321Y0046843D01*
X0100351Y0046916D01*
X0100383Y0046988D01*
X0100420Y0047059D01*
X0100460Y0047127D01*
X0100503Y0047193D01*
X0100549Y0047257D01*
X0100599Y0047319D01*
X0100652Y0047378D01*
X0100707Y0047434D01*
X0100766Y0047488D01*
X0100827Y0047538D01*
X0100890Y0047586D01*
X0100956Y0047630D01*
X0101024Y0047671D01*
X0101094Y0047708D01*
X0101165Y0047742D01*
X0101239Y0047772D01*
X0101313Y0047798D01*
X0101389Y0047820D01*
X0101466Y0047839D01*
X0101544Y0047854D01*
X0101622Y0047865D01*
X0101701Y0047872D01*
X0101780Y0047875D01*
X0101859Y0047874D01*
X0101938Y0047869D01*
X0102017Y0047860D01*
X0102095Y0047847D01*
X0102172Y0047830D01*
X0102249Y0047810D01*
X0102324Y0047785D01*
X0102398Y0047757D01*
X0102471Y0047725D01*
X0102541Y0047690D01*
X0102610Y0047651D01*
X0102677Y0047608D01*
X0102742Y0047562D01*
X0102804Y0047514D01*
X0102864Y0047462D01*
X0102921Y0047407D01*
X0102975Y0047349D01*
X0103026Y0047289D01*
X0103074Y0047226D01*
X0103119Y0047161D01*
X0103161Y0047093D01*
X0103199Y0047024D01*
X0103233Y0046953D01*
X0103264Y0046880D01*
X0103292Y0046805D01*
X0103315Y0046730D01*
X0103335Y0046653D01*
X0103351Y0046576D01*
X0103363Y0046497D01*
X0103371Y0046419D01*
X0103375Y0046340D01*
X0103375Y0046260D01*
X0103371Y0046181D01*
X0103363Y0046103D01*
X0103351Y0046024D01*
X0103335Y0045947D01*
X0103315Y0045870D01*
X0103292Y0045795D01*
X0103264Y0045720D01*
X0103233Y0045647D01*
X0103199Y0045576D01*
X0103161Y0045507D01*
X0103119Y0045439D01*
X0103074Y0045374D01*
X0103026Y0045311D01*
X0102975Y0045251D01*
X0102921Y0045193D01*
X0102864Y0045138D01*
X0102804Y0045086D01*
X0102742Y0045038D01*
X0102677Y0044992D01*
X0102610Y0044949D01*
X0102541Y0044910D01*
X0102471Y0044875D01*
X0102398Y0044843D01*
X0102324Y0044815D01*
X0102249Y0044790D01*
X0102172Y0044770D01*
X0102095Y0044753D01*
X0102017Y0044740D01*
X0101938Y0044731D01*
X0101859Y0044726D01*
X0101780Y0044725D01*
X0101701Y0044728D01*
X0101622Y0044735D01*
X0101544Y0044746D01*
X0101466Y0044761D01*
X0101389Y0044780D01*
X0101313Y0044802D01*
X0101239Y0044828D01*
X0101165Y0044858D01*
X0101094Y0044892D01*
X0101024Y0044929D01*
X0100956Y0044970D01*
X0100890Y0045014D01*
X0100827Y0045062D01*
X0100766Y0045112D01*
X0100707Y0045166D01*
X0100652Y0045222D01*
X0100599Y0045281D01*
X0100549Y0045343D01*
X0100503Y0045407D01*
X0100460Y0045473D01*
X0100420Y0045541D01*
X0100383Y0045612D01*
X0100351Y0045684D01*
X0100321Y0045757D01*
X0100296Y0045832D01*
X0100274Y0045908D01*
X0100257Y0045985D01*
X0100243Y0046063D01*
X0100233Y0046142D01*
X0100227Y0046221D01*
X0100225Y0046300D01*
X0070345Y0081566D02*
X0070347Y0081706D01*
X0070353Y0081846D01*
X0070363Y0081985D01*
X0070377Y0082124D01*
X0070395Y0082263D01*
X0070416Y0082401D01*
X0070442Y0082539D01*
X0070472Y0082676D01*
X0070505Y0082811D01*
X0070543Y0082946D01*
X0070584Y0083080D01*
X0070629Y0083213D01*
X0070677Y0083344D01*
X0070730Y0083473D01*
X0070786Y0083602D01*
X0070845Y0083728D01*
X0070909Y0083853D01*
X0070975Y0083976D01*
X0071046Y0084097D01*
X0071119Y0084216D01*
X0071196Y0084333D01*
X0071277Y0084447D01*
X0071360Y0084559D01*
X0071447Y0084669D01*
X0071537Y0084777D01*
X0071629Y0084881D01*
X0071725Y0084983D01*
X0071824Y0085083D01*
X0071925Y0085179D01*
X0072029Y0085273D01*
X0072136Y0085363D01*
X0072245Y0085450D01*
X0072357Y0085535D01*
X0072471Y0085616D01*
X0072587Y0085694D01*
X0072705Y0085768D01*
X0072826Y0085839D01*
X0072948Y0085907D01*
X0073073Y0085971D01*
X0073199Y0086032D01*
X0073326Y0086089D01*
X0073456Y0086142D01*
X0073587Y0086192D01*
X0073719Y0086237D01*
X0073852Y0086280D01*
X0073987Y0086318D01*
X0074122Y0086352D01*
X0074259Y0086383D01*
X0074396Y0086410D01*
X0074534Y0086432D01*
X0074673Y0086451D01*
X0074812Y0086466D01*
X0074951Y0086477D01*
X0075091Y0086484D01*
X0075231Y0086487D01*
X0075371Y0086486D01*
X0075511Y0086481D01*
X0075650Y0086472D01*
X0075790Y0086459D01*
X0075929Y0086442D01*
X0076067Y0086421D01*
X0076205Y0086397D01*
X0076342Y0086368D01*
X0076478Y0086336D01*
X0076613Y0086299D01*
X0076747Y0086259D01*
X0076880Y0086215D01*
X0077011Y0086167D01*
X0077141Y0086116D01*
X0077270Y0086061D01*
X0077397Y0086002D01*
X0077522Y0085939D01*
X0077645Y0085874D01*
X0077767Y0085804D01*
X0077886Y0085731D01*
X0078004Y0085655D01*
X0078119Y0085576D01*
X0078232Y0085493D01*
X0078342Y0085407D01*
X0078450Y0085318D01*
X0078555Y0085226D01*
X0078658Y0085131D01*
X0078758Y0085033D01*
X0078855Y0084933D01*
X0078949Y0084829D01*
X0079041Y0084723D01*
X0079129Y0084615D01*
X0079214Y0084504D01*
X0079296Y0084390D01*
X0079375Y0084274D01*
X0079450Y0084157D01*
X0079522Y0084037D01*
X0079590Y0083915D01*
X0079655Y0083791D01*
X0079717Y0083665D01*
X0079775Y0083538D01*
X0079829Y0083409D01*
X0079880Y0083278D01*
X0079926Y0083146D01*
X0079969Y0083013D01*
X0080009Y0082879D01*
X0080044Y0082744D01*
X0080076Y0082607D01*
X0080103Y0082470D01*
X0080127Y0082332D01*
X0080147Y0082194D01*
X0080163Y0082055D01*
X0080175Y0081915D01*
X0080183Y0081776D01*
X0080187Y0081636D01*
X0080187Y0081496D01*
X0080183Y0081356D01*
X0080175Y0081217D01*
X0080163Y0081077D01*
X0080147Y0080938D01*
X0080127Y0080800D01*
X0080103Y0080662D01*
X0080076Y0080525D01*
X0080044Y0080388D01*
X0080009Y0080253D01*
X0079969Y0080119D01*
X0079926Y0079986D01*
X0079880Y0079854D01*
X0079829Y0079723D01*
X0079775Y0079594D01*
X0079717Y0079467D01*
X0079655Y0079341D01*
X0079590Y0079217D01*
X0079522Y0079095D01*
X0079450Y0078975D01*
X0079375Y0078858D01*
X0079296Y0078742D01*
X0079214Y0078628D01*
X0079129Y0078517D01*
X0079041Y0078409D01*
X0078949Y0078303D01*
X0078855Y0078199D01*
X0078758Y0078099D01*
X0078658Y0078001D01*
X0078555Y0077906D01*
X0078450Y0077814D01*
X0078342Y0077725D01*
X0078232Y0077639D01*
X0078119Y0077556D01*
X0078004Y0077477D01*
X0077886Y0077401D01*
X0077767Y0077328D01*
X0077645Y0077258D01*
X0077522Y0077193D01*
X0077397Y0077130D01*
X0077270Y0077071D01*
X0077141Y0077016D01*
X0077011Y0076965D01*
X0076880Y0076917D01*
X0076747Y0076873D01*
X0076613Y0076833D01*
X0076478Y0076796D01*
X0076342Y0076764D01*
X0076205Y0076735D01*
X0076067Y0076711D01*
X0075929Y0076690D01*
X0075790Y0076673D01*
X0075650Y0076660D01*
X0075511Y0076651D01*
X0075371Y0076646D01*
X0075231Y0076645D01*
X0075091Y0076648D01*
X0074951Y0076655D01*
X0074812Y0076666D01*
X0074673Y0076681D01*
X0074534Y0076700D01*
X0074396Y0076722D01*
X0074259Y0076749D01*
X0074122Y0076780D01*
X0073987Y0076814D01*
X0073852Y0076852D01*
X0073719Y0076895D01*
X0073587Y0076940D01*
X0073456Y0076990D01*
X0073326Y0077043D01*
X0073199Y0077100D01*
X0073073Y0077161D01*
X0072948Y0077225D01*
X0072826Y0077293D01*
X0072705Y0077364D01*
X0072587Y0077438D01*
X0072471Y0077516D01*
X0072357Y0077597D01*
X0072245Y0077682D01*
X0072136Y0077769D01*
X0072029Y0077859D01*
X0071925Y0077953D01*
X0071824Y0078049D01*
X0071725Y0078149D01*
X0071629Y0078251D01*
X0071537Y0078355D01*
X0071447Y0078463D01*
X0071360Y0078573D01*
X0071277Y0078685D01*
X0071196Y0078799D01*
X0071119Y0078916D01*
X0071046Y0079035D01*
X0070975Y0079156D01*
X0070909Y0079279D01*
X0070845Y0079404D01*
X0070786Y0079530D01*
X0070730Y0079659D01*
X0070677Y0079788D01*
X0070629Y0079919D01*
X0070584Y0080052D01*
X0070543Y0080186D01*
X0070505Y0080321D01*
X0070472Y0080456D01*
X0070442Y0080593D01*
X0070416Y0080731D01*
X0070395Y0080869D01*
X0070377Y0081008D01*
X0070363Y0081147D01*
X0070353Y0081286D01*
X0070347Y0081426D01*
X0070345Y0081566D01*
X0047586Y0118128D02*
X0047588Y0118268D01*
X0047594Y0118408D01*
X0047604Y0118547D01*
X0047618Y0118686D01*
X0047636Y0118825D01*
X0047657Y0118963D01*
X0047683Y0119101D01*
X0047713Y0119238D01*
X0047746Y0119373D01*
X0047784Y0119508D01*
X0047825Y0119642D01*
X0047870Y0119775D01*
X0047918Y0119906D01*
X0047971Y0120035D01*
X0048027Y0120164D01*
X0048086Y0120290D01*
X0048150Y0120415D01*
X0048216Y0120538D01*
X0048287Y0120659D01*
X0048360Y0120778D01*
X0048437Y0120895D01*
X0048518Y0121009D01*
X0048601Y0121121D01*
X0048688Y0121231D01*
X0048778Y0121339D01*
X0048870Y0121443D01*
X0048966Y0121545D01*
X0049065Y0121645D01*
X0049166Y0121741D01*
X0049270Y0121835D01*
X0049377Y0121925D01*
X0049486Y0122012D01*
X0049598Y0122097D01*
X0049712Y0122178D01*
X0049828Y0122256D01*
X0049946Y0122330D01*
X0050067Y0122401D01*
X0050189Y0122469D01*
X0050314Y0122533D01*
X0050440Y0122594D01*
X0050567Y0122651D01*
X0050697Y0122704D01*
X0050828Y0122754D01*
X0050960Y0122799D01*
X0051093Y0122842D01*
X0051228Y0122880D01*
X0051363Y0122914D01*
X0051500Y0122945D01*
X0051637Y0122972D01*
X0051775Y0122994D01*
X0051914Y0123013D01*
X0052053Y0123028D01*
X0052192Y0123039D01*
X0052332Y0123046D01*
X0052472Y0123049D01*
X0052612Y0123048D01*
X0052752Y0123043D01*
X0052891Y0123034D01*
X0053031Y0123021D01*
X0053170Y0123004D01*
X0053308Y0122983D01*
X0053446Y0122959D01*
X0053583Y0122930D01*
X0053719Y0122898D01*
X0053854Y0122861D01*
X0053988Y0122821D01*
X0054121Y0122777D01*
X0054252Y0122729D01*
X0054382Y0122678D01*
X0054511Y0122623D01*
X0054638Y0122564D01*
X0054763Y0122501D01*
X0054886Y0122436D01*
X0055008Y0122366D01*
X0055127Y0122293D01*
X0055245Y0122217D01*
X0055360Y0122138D01*
X0055473Y0122055D01*
X0055583Y0121969D01*
X0055691Y0121880D01*
X0055796Y0121788D01*
X0055899Y0121693D01*
X0055999Y0121595D01*
X0056096Y0121495D01*
X0056190Y0121391D01*
X0056282Y0121285D01*
X0056370Y0121177D01*
X0056455Y0121066D01*
X0056537Y0120952D01*
X0056616Y0120836D01*
X0056691Y0120719D01*
X0056763Y0120599D01*
X0056831Y0120477D01*
X0056896Y0120353D01*
X0056958Y0120227D01*
X0057016Y0120100D01*
X0057070Y0119971D01*
X0057121Y0119840D01*
X0057167Y0119708D01*
X0057210Y0119575D01*
X0057250Y0119441D01*
X0057285Y0119306D01*
X0057317Y0119169D01*
X0057344Y0119032D01*
X0057368Y0118894D01*
X0057388Y0118756D01*
X0057404Y0118617D01*
X0057416Y0118477D01*
X0057424Y0118338D01*
X0057428Y0118198D01*
X0057428Y0118058D01*
X0057424Y0117918D01*
X0057416Y0117779D01*
X0057404Y0117639D01*
X0057388Y0117500D01*
X0057368Y0117362D01*
X0057344Y0117224D01*
X0057317Y0117087D01*
X0057285Y0116950D01*
X0057250Y0116815D01*
X0057210Y0116681D01*
X0057167Y0116548D01*
X0057121Y0116416D01*
X0057070Y0116285D01*
X0057016Y0116156D01*
X0056958Y0116029D01*
X0056896Y0115903D01*
X0056831Y0115779D01*
X0056763Y0115657D01*
X0056691Y0115537D01*
X0056616Y0115420D01*
X0056537Y0115304D01*
X0056455Y0115190D01*
X0056370Y0115079D01*
X0056282Y0114971D01*
X0056190Y0114865D01*
X0056096Y0114761D01*
X0055999Y0114661D01*
X0055899Y0114563D01*
X0055796Y0114468D01*
X0055691Y0114376D01*
X0055583Y0114287D01*
X0055473Y0114201D01*
X0055360Y0114118D01*
X0055245Y0114039D01*
X0055127Y0113963D01*
X0055008Y0113890D01*
X0054886Y0113820D01*
X0054763Y0113755D01*
X0054638Y0113692D01*
X0054511Y0113633D01*
X0054382Y0113578D01*
X0054252Y0113527D01*
X0054121Y0113479D01*
X0053988Y0113435D01*
X0053854Y0113395D01*
X0053719Y0113358D01*
X0053583Y0113326D01*
X0053446Y0113297D01*
X0053308Y0113273D01*
X0053170Y0113252D01*
X0053031Y0113235D01*
X0052891Y0113222D01*
X0052752Y0113213D01*
X0052612Y0113208D01*
X0052472Y0113207D01*
X0052332Y0113210D01*
X0052192Y0113217D01*
X0052053Y0113228D01*
X0051914Y0113243D01*
X0051775Y0113262D01*
X0051637Y0113284D01*
X0051500Y0113311D01*
X0051363Y0113342D01*
X0051228Y0113376D01*
X0051093Y0113414D01*
X0050960Y0113457D01*
X0050828Y0113502D01*
X0050697Y0113552D01*
X0050567Y0113605D01*
X0050440Y0113662D01*
X0050314Y0113723D01*
X0050189Y0113787D01*
X0050067Y0113855D01*
X0049946Y0113926D01*
X0049828Y0114000D01*
X0049712Y0114078D01*
X0049598Y0114159D01*
X0049486Y0114244D01*
X0049377Y0114331D01*
X0049270Y0114421D01*
X0049166Y0114515D01*
X0049065Y0114611D01*
X0048966Y0114711D01*
X0048870Y0114813D01*
X0048778Y0114917D01*
X0048688Y0115025D01*
X0048601Y0115135D01*
X0048518Y0115247D01*
X0048437Y0115361D01*
X0048360Y0115478D01*
X0048287Y0115597D01*
X0048216Y0115718D01*
X0048150Y0115841D01*
X0048086Y0115966D01*
X0048027Y0116092D01*
X0047971Y0116221D01*
X0047918Y0116350D01*
X0047870Y0116481D01*
X0047825Y0116614D01*
X0047784Y0116748D01*
X0047746Y0116883D01*
X0047713Y0117018D01*
X0047683Y0117155D01*
X0047657Y0117293D01*
X0047636Y0117431D01*
X0047618Y0117570D01*
X0047604Y0117709D01*
X0047594Y0117848D01*
X0047588Y0117988D01*
X0047586Y0118128D01*
X0015090Y0122855D02*
X0015092Y0123048D01*
X0015099Y0123241D01*
X0015111Y0123434D01*
X0015128Y0123627D01*
X0015149Y0123819D01*
X0015175Y0124010D01*
X0015206Y0124201D01*
X0015241Y0124391D01*
X0015281Y0124580D01*
X0015326Y0124768D01*
X0015375Y0124955D01*
X0015429Y0125141D01*
X0015487Y0125325D01*
X0015550Y0125508D01*
X0015618Y0125689D01*
X0015689Y0125868D01*
X0015766Y0126046D01*
X0015846Y0126222D01*
X0015931Y0126395D01*
X0016020Y0126567D01*
X0016113Y0126736D01*
X0016210Y0126903D01*
X0016312Y0127068D01*
X0016417Y0127230D01*
X0016526Y0127389D01*
X0016640Y0127546D01*
X0016757Y0127699D01*
X0016877Y0127850D01*
X0017002Y0127998D01*
X0017130Y0128143D01*
X0017261Y0128284D01*
X0017396Y0128423D01*
X0017535Y0128558D01*
X0017676Y0128689D01*
X0017821Y0128817D01*
X0017969Y0128942D01*
X0018120Y0129062D01*
X0018273Y0129179D01*
X0018430Y0129293D01*
X0018589Y0129402D01*
X0018751Y0129507D01*
X0018916Y0129609D01*
X0019083Y0129706D01*
X0019252Y0129799D01*
X0019424Y0129888D01*
X0019597Y0129973D01*
X0019773Y0130053D01*
X0019951Y0130130D01*
X0020130Y0130201D01*
X0020311Y0130269D01*
X0020494Y0130332D01*
X0020678Y0130390D01*
X0020864Y0130444D01*
X0021051Y0130493D01*
X0021239Y0130538D01*
X0021428Y0130578D01*
X0021618Y0130613D01*
X0021809Y0130644D01*
X0022000Y0130670D01*
X0022192Y0130691D01*
X0022385Y0130708D01*
X0022578Y0130720D01*
X0022771Y0130727D01*
X0022964Y0130729D01*
X0023157Y0130727D01*
X0023350Y0130720D01*
X0023543Y0130708D01*
X0023736Y0130691D01*
X0023928Y0130670D01*
X0024119Y0130644D01*
X0024310Y0130613D01*
X0024500Y0130578D01*
X0024689Y0130538D01*
X0024877Y0130493D01*
X0025064Y0130444D01*
X0025250Y0130390D01*
X0025434Y0130332D01*
X0025617Y0130269D01*
X0025798Y0130201D01*
X0025977Y0130130D01*
X0026155Y0130053D01*
X0026331Y0129973D01*
X0026504Y0129888D01*
X0026676Y0129799D01*
X0026845Y0129706D01*
X0027012Y0129609D01*
X0027177Y0129507D01*
X0027339Y0129402D01*
X0027498Y0129293D01*
X0027655Y0129179D01*
X0027808Y0129062D01*
X0027959Y0128942D01*
X0028107Y0128817D01*
X0028252Y0128689D01*
X0028393Y0128558D01*
X0028532Y0128423D01*
X0028667Y0128284D01*
X0028798Y0128143D01*
X0028926Y0127998D01*
X0029051Y0127850D01*
X0029171Y0127699D01*
X0029288Y0127546D01*
X0029402Y0127389D01*
X0029511Y0127230D01*
X0029616Y0127068D01*
X0029718Y0126903D01*
X0029815Y0126736D01*
X0029908Y0126567D01*
X0029997Y0126395D01*
X0030082Y0126222D01*
X0030162Y0126046D01*
X0030239Y0125868D01*
X0030310Y0125689D01*
X0030378Y0125508D01*
X0030441Y0125325D01*
X0030499Y0125141D01*
X0030553Y0124955D01*
X0030602Y0124768D01*
X0030647Y0124580D01*
X0030687Y0124391D01*
X0030722Y0124201D01*
X0030753Y0124010D01*
X0030779Y0123819D01*
X0030800Y0123627D01*
X0030817Y0123434D01*
X0030829Y0123241D01*
X0030836Y0123048D01*
X0030838Y0122855D01*
X0030836Y0122662D01*
X0030829Y0122469D01*
X0030817Y0122276D01*
X0030800Y0122083D01*
X0030779Y0121891D01*
X0030753Y0121700D01*
X0030722Y0121509D01*
X0030687Y0121319D01*
X0030647Y0121130D01*
X0030602Y0120942D01*
X0030553Y0120755D01*
X0030499Y0120569D01*
X0030441Y0120385D01*
X0030378Y0120202D01*
X0030310Y0120021D01*
X0030239Y0119842D01*
X0030162Y0119664D01*
X0030082Y0119488D01*
X0029997Y0119315D01*
X0029908Y0119143D01*
X0029815Y0118974D01*
X0029718Y0118807D01*
X0029616Y0118642D01*
X0029511Y0118480D01*
X0029402Y0118321D01*
X0029288Y0118164D01*
X0029171Y0118011D01*
X0029051Y0117860D01*
X0028926Y0117712D01*
X0028798Y0117567D01*
X0028667Y0117426D01*
X0028532Y0117287D01*
X0028393Y0117152D01*
X0028252Y0117021D01*
X0028107Y0116893D01*
X0027959Y0116768D01*
X0027808Y0116648D01*
X0027655Y0116531D01*
X0027498Y0116417D01*
X0027339Y0116308D01*
X0027177Y0116203D01*
X0027012Y0116101D01*
X0026845Y0116004D01*
X0026676Y0115911D01*
X0026504Y0115822D01*
X0026331Y0115737D01*
X0026155Y0115657D01*
X0025977Y0115580D01*
X0025798Y0115509D01*
X0025617Y0115441D01*
X0025434Y0115378D01*
X0025250Y0115320D01*
X0025064Y0115266D01*
X0024877Y0115217D01*
X0024689Y0115172D01*
X0024500Y0115132D01*
X0024310Y0115097D01*
X0024119Y0115066D01*
X0023928Y0115040D01*
X0023736Y0115019D01*
X0023543Y0115002D01*
X0023350Y0114990D01*
X0023157Y0114983D01*
X0022964Y0114981D01*
X0022771Y0114983D01*
X0022578Y0114990D01*
X0022385Y0115002D01*
X0022192Y0115019D01*
X0022000Y0115040D01*
X0021809Y0115066D01*
X0021618Y0115097D01*
X0021428Y0115132D01*
X0021239Y0115172D01*
X0021051Y0115217D01*
X0020864Y0115266D01*
X0020678Y0115320D01*
X0020494Y0115378D01*
X0020311Y0115441D01*
X0020130Y0115509D01*
X0019951Y0115580D01*
X0019773Y0115657D01*
X0019597Y0115737D01*
X0019424Y0115822D01*
X0019252Y0115911D01*
X0019083Y0116004D01*
X0018916Y0116101D01*
X0018751Y0116203D01*
X0018589Y0116308D01*
X0018430Y0116417D01*
X0018273Y0116531D01*
X0018120Y0116648D01*
X0017969Y0116768D01*
X0017821Y0116893D01*
X0017676Y0117021D01*
X0017535Y0117152D01*
X0017396Y0117287D01*
X0017261Y0117426D01*
X0017130Y0117567D01*
X0017002Y0117712D01*
X0016877Y0117860D01*
X0016757Y0118011D01*
X0016640Y0118164D01*
X0016526Y0118321D01*
X0016417Y0118480D01*
X0016312Y0118642D01*
X0016210Y0118807D01*
X0016113Y0118974D01*
X0016020Y0119143D01*
X0015931Y0119315D01*
X0015846Y0119488D01*
X0015766Y0119664D01*
X0015689Y0119842D01*
X0015618Y0120021D01*
X0015550Y0120202D01*
X0015487Y0120385D01*
X0015429Y0120569D01*
X0015375Y0120755D01*
X0015326Y0120942D01*
X0015281Y0121130D01*
X0015241Y0121319D01*
X0015206Y0121509D01*
X0015175Y0121700D01*
X0015149Y0121891D01*
X0015128Y0122083D01*
X0015111Y0122276D01*
X0015099Y0122469D01*
X0015092Y0122662D01*
X0015090Y0122855D01*
X0078308Y0233792D02*
X0078310Y0233945D01*
X0078316Y0234099D01*
X0078326Y0234252D01*
X0078340Y0234404D01*
X0078358Y0234557D01*
X0078380Y0234708D01*
X0078405Y0234859D01*
X0078435Y0235010D01*
X0078469Y0235160D01*
X0078506Y0235308D01*
X0078547Y0235456D01*
X0078592Y0235602D01*
X0078641Y0235748D01*
X0078694Y0235892D01*
X0078750Y0236034D01*
X0078810Y0236175D01*
X0078874Y0236315D01*
X0078941Y0236453D01*
X0079012Y0236589D01*
X0079087Y0236723D01*
X0079164Y0236855D01*
X0079246Y0236985D01*
X0079330Y0237113D01*
X0079418Y0237239D01*
X0079509Y0237362D01*
X0079603Y0237483D01*
X0079701Y0237601D01*
X0079801Y0237717D01*
X0079905Y0237830D01*
X0080011Y0237941D01*
X0080120Y0238049D01*
X0080232Y0238154D01*
X0080346Y0238255D01*
X0080464Y0238354D01*
X0080583Y0238450D01*
X0080705Y0238543D01*
X0080830Y0238632D01*
X0080957Y0238719D01*
X0081086Y0238801D01*
X0081217Y0238881D01*
X0081350Y0238957D01*
X0081485Y0239030D01*
X0081622Y0239099D01*
X0081761Y0239164D01*
X0081901Y0239226D01*
X0082043Y0239284D01*
X0082186Y0239339D01*
X0082331Y0239390D01*
X0082477Y0239437D01*
X0082624Y0239480D01*
X0082772Y0239519D01*
X0082921Y0239555D01*
X0083071Y0239586D01*
X0083222Y0239614D01*
X0083373Y0239638D01*
X0083526Y0239658D01*
X0083678Y0239674D01*
X0083831Y0239686D01*
X0083984Y0239694D01*
X0084137Y0239698D01*
X0084291Y0239698D01*
X0084444Y0239694D01*
X0084597Y0239686D01*
X0084750Y0239674D01*
X0084902Y0239658D01*
X0085055Y0239638D01*
X0085206Y0239614D01*
X0085357Y0239586D01*
X0085507Y0239555D01*
X0085656Y0239519D01*
X0085804Y0239480D01*
X0085951Y0239437D01*
X0086097Y0239390D01*
X0086242Y0239339D01*
X0086385Y0239284D01*
X0086527Y0239226D01*
X0086667Y0239164D01*
X0086806Y0239099D01*
X0086943Y0239030D01*
X0087078Y0238957D01*
X0087211Y0238881D01*
X0087342Y0238801D01*
X0087471Y0238719D01*
X0087598Y0238632D01*
X0087723Y0238543D01*
X0087845Y0238450D01*
X0087964Y0238354D01*
X0088082Y0238255D01*
X0088196Y0238154D01*
X0088308Y0238049D01*
X0088417Y0237941D01*
X0088523Y0237830D01*
X0088627Y0237717D01*
X0088727Y0237601D01*
X0088825Y0237483D01*
X0088919Y0237362D01*
X0089010Y0237239D01*
X0089098Y0237113D01*
X0089182Y0236985D01*
X0089264Y0236855D01*
X0089341Y0236723D01*
X0089416Y0236589D01*
X0089487Y0236453D01*
X0089554Y0236315D01*
X0089618Y0236175D01*
X0089678Y0236034D01*
X0089734Y0235892D01*
X0089787Y0235748D01*
X0089836Y0235602D01*
X0089881Y0235456D01*
X0089922Y0235308D01*
X0089959Y0235160D01*
X0089993Y0235010D01*
X0090023Y0234859D01*
X0090048Y0234708D01*
X0090070Y0234557D01*
X0090088Y0234404D01*
X0090102Y0234252D01*
X0090112Y0234099D01*
X0090118Y0233945D01*
X0090120Y0233792D01*
X0090118Y0233639D01*
X0090112Y0233485D01*
X0090102Y0233332D01*
X0090088Y0233180D01*
X0090070Y0233027D01*
X0090048Y0232876D01*
X0090023Y0232725D01*
X0089993Y0232574D01*
X0089959Y0232424D01*
X0089922Y0232276D01*
X0089881Y0232128D01*
X0089836Y0231982D01*
X0089787Y0231836D01*
X0089734Y0231692D01*
X0089678Y0231550D01*
X0089618Y0231409D01*
X0089554Y0231269D01*
X0089487Y0231131D01*
X0089416Y0230995D01*
X0089341Y0230861D01*
X0089264Y0230729D01*
X0089182Y0230599D01*
X0089098Y0230471D01*
X0089010Y0230345D01*
X0088919Y0230222D01*
X0088825Y0230101D01*
X0088727Y0229983D01*
X0088627Y0229867D01*
X0088523Y0229754D01*
X0088417Y0229643D01*
X0088308Y0229535D01*
X0088196Y0229430D01*
X0088082Y0229329D01*
X0087964Y0229230D01*
X0087845Y0229134D01*
X0087723Y0229041D01*
X0087598Y0228952D01*
X0087471Y0228865D01*
X0087342Y0228783D01*
X0087211Y0228703D01*
X0087078Y0228627D01*
X0086943Y0228554D01*
X0086806Y0228485D01*
X0086667Y0228420D01*
X0086527Y0228358D01*
X0086385Y0228300D01*
X0086242Y0228245D01*
X0086097Y0228194D01*
X0085951Y0228147D01*
X0085804Y0228104D01*
X0085656Y0228065D01*
X0085507Y0228029D01*
X0085357Y0227998D01*
X0085206Y0227970D01*
X0085055Y0227946D01*
X0084902Y0227926D01*
X0084750Y0227910D01*
X0084597Y0227898D01*
X0084444Y0227890D01*
X0084291Y0227886D01*
X0084137Y0227886D01*
X0083984Y0227890D01*
X0083831Y0227898D01*
X0083678Y0227910D01*
X0083526Y0227926D01*
X0083373Y0227946D01*
X0083222Y0227970D01*
X0083071Y0227998D01*
X0082921Y0228029D01*
X0082772Y0228065D01*
X0082624Y0228104D01*
X0082477Y0228147D01*
X0082331Y0228194D01*
X0082186Y0228245D01*
X0082043Y0228300D01*
X0081901Y0228358D01*
X0081761Y0228420D01*
X0081622Y0228485D01*
X0081485Y0228554D01*
X0081350Y0228627D01*
X0081217Y0228703D01*
X0081086Y0228783D01*
X0080957Y0228865D01*
X0080830Y0228952D01*
X0080705Y0229041D01*
X0080583Y0229134D01*
X0080464Y0229230D01*
X0080346Y0229329D01*
X0080232Y0229430D01*
X0080120Y0229535D01*
X0080011Y0229643D01*
X0079905Y0229754D01*
X0079801Y0229867D01*
X0079701Y0229983D01*
X0079603Y0230101D01*
X0079509Y0230222D01*
X0079418Y0230345D01*
X0079330Y0230471D01*
X0079246Y0230599D01*
X0079164Y0230729D01*
X0079087Y0230861D01*
X0079012Y0230995D01*
X0078941Y0231131D01*
X0078874Y0231269D01*
X0078810Y0231409D01*
X0078750Y0231550D01*
X0078694Y0231692D01*
X0078641Y0231836D01*
X0078592Y0231982D01*
X0078547Y0232128D01*
X0078506Y0232276D01*
X0078469Y0232424D01*
X0078435Y0232574D01*
X0078405Y0232725D01*
X0078380Y0232876D01*
X0078358Y0233027D01*
X0078340Y0233180D01*
X0078326Y0233332D01*
X0078316Y0233485D01*
X0078310Y0233639D01*
X0078308Y0233792D01*
X0119524Y0288343D02*
X0119526Y0288484D01*
X0119532Y0288625D01*
X0119542Y0288765D01*
X0119556Y0288905D01*
X0119574Y0289045D01*
X0119595Y0289184D01*
X0119621Y0289323D01*
X0119650Y0289461D01*
X0119684Y0289597D01*
X0119721Y0289733D01*
X0119762Y0289868D01*
X0119807Y0290002D01*
X0119856Y0290134D01*
X0119908Y0290265D01*
X0119964Y0290394D01*
X0120024Y0290521D01*
X0120087Y0290647D01*
X0120153Y0290771D01*
X0120224Y0290894D01*
X0120297Y0291014D01*
X0120374Y0291132D01*
X0120454Y0291248D01*
X0120538Y0291361D01*
X0120624Y0291472D01*
X0120714Y0291581D01*
X0120807Y0291687D01*
X0120902Y0291790D01*
X0121001Y0291891D01*
X0121102Y0291989D01*
X0121206Y0292084D01*
X0121313Y0292176D01*
X0121422Y0292265D01*
X0121534Y0292350D01*
X0121648Y0292433D01*
X0121764Y0292513D01*
X0121883Y0292589D01*
X0122004Y0292661D01*
X0122126Y0292731D01*
X0122251Y0292796D01*
X0122377Y0292859D01*
X0122505Y0292917D01*
X0122635Y0292972D01*
X0122766Y0293024D01*
X0122899Y0293071D01*
X0123033Y0293115D01*
X0123168Y0293156D01*
X0123304Y0293192D01*
X0123441Y0293224D01*
X0123579Y0293253D01*
X0123717Y0293278D01*
X0123857Y0293298D01*
X0123997Y0293315D01*
X0124137Y0293328D01*
X0124278Y0293337D01*
X0124418Y0293342D01*
X0124559Y0293343D01*
X0124700Y0293340D01*
X0124841Y0293333D01*
X0124981Y0293322D01*
X0125121Y0293307D01*
X0125261Y0293288D01*
X0125400Y0293266D01*
X0125538Y0293239D01*
X0125676Y0293209D01*
X0125812Y0293174D01*
X0125948Y0293136D01*
X0126082Y0293094D01*
X0126216Y0293048D01*
X0126348Y0292999D01*
X0126478Y0292945D01*
X0126607Y0292888D01*
X0126734Y0292828D01*
X0126860Y0292764D01*
X0126983Y0292696D01*
X0127105Y0292625D01*
X0127225Y0292551D01*
X0127342Y0292473D01*
X0127457Y0292392D01*
X0127570Y0292308D01*
X0127681Y0292221D01*
X0127789Y0292130D01*
X0127894Y0292037D01*
X0127997Y0291940D01*
X0128097Y0291841D01*
X0128194Y0291739D01*
X0128288Y0291634D01*
X0128379Y0291527D01*
X0128467Y0291417D01*
X0128552Y0291305D01*
X0128634Y0291190D01*
X0128713Y0291073D01*
X0128788Y0290954D01*
X0128860Y0290833D01*
X0128928Y0290710D01*
X0128993Y0290585D01*
X0129055Y0290458D01*
X0129112Y0290329D01*
X0129167Y0290199D01*
X0129217Y0290068D01*
X0129264Y0289935D01*
X0129307Y0289801D01*
X0129346Y0289665D01*
X0129381Y0289529D01*
X0129413Y0289392D01*
X0129440Y0289254D01*
X0129464Y0289115D01*
X0129484Y0288975D01*
X0129500Y0288835D01*
X0129512Y0288695D01*
X0129520Y0288554D01*
X0129524Y0288413D01*
X0129524Y0288273D01*
X0129520Y0288132D01*
X0129512Y0287991D01*
X0129500Y0287851D01*
X0129484Y0287711D01*
X0129464Y0287571D01*
X0129440Y0287432D01*
X0129413Y0287294D01*
X0129381Y0287157D01*
X0129346Y0287021D01*
X0129307Y0286885D01*
X0129264Y0286751D01*
X0129217Y0286618D01*
X0129167Y0286487D01*
X0129112Y0286357D01*
X0129055Y0286228D01*
X0128993Y0286101D01*
X0128928Y0285976D01*
X0128860Y0285853D01*
X0128788Y0285732D01*
X0128713Y0285613D01*
X0128634Y0285496D01*
X0128552Y0285381D01*
X0128467Y0285269D01*
X0128379Y0285159D01*
X0128288Y0285052D01*
X0128194Y0284947D01*
X0128097Y0284845D01*
X0127997Y0284746D01*
X0127894Y0284649D01*
X0127789Y0284556D01*
X0127681Y0284465D01*
X0127570Y0284378D01*
X0127457Y0284294D01*
X0127342Y0284213D01*
X0127225Y0284135D01*
X0127105Y0284061D01*
X0126983Y0283990D01*
X0126860Y0283922D01*
X0126734Y0283858D01*
X0126607Y0283798D01*
X0126478Y0283741D01*
X0126348Y0283687D01*
X0126216Y0283638D01*
X0126082Y0283592D01*
X0125948Y0283550D01*
X0125812Y0283512D01*
X0125676Y0283477D01*
X0125538Y0283447D01*
X0125400Y0283420D01*
X0125261Y0283398D01*
X0125121Y0283379D01*
X0124981Y0283364D01*
X0124841Y0283353D01*
X0124700Y0283346D01*
X0124559Y0283343D01*
X0124418Y0283344D01*
X0124278Y0283349D01*
X0124137Y0283358D01*
X0123997Y0283371D01*
X0123857Y0283388D01*
X0123717Y0283408D01*
X0123579Y0283433D01*
X0123441Y0283462D01*
X0123304Y0283494D01*
X0123168Y0283530D01*
X0123033Y0283571D01*
X0122899Y0283615D01*
X0122766Y0283662D01*
X0122635Y0283714D01*
X0122505Y0283769D01*
X0122377Y0283827D01*
X0122251Y0283890D01*
X0122126Y0283955D01*
X0122004Y0284025D01*
X0121883Y0284097D01*
X0121764Y0284173D01*
X0121648Y0284253D01*
X0121534Y0284336D01*
X0121422Y0284421D01*
X0121313Y0284510D01*
X0121206Y0284602D01*
X0121102Y0284697D01*
X0121001Y0284795D01*
X0120902Y0284896D01*
X0120807Y0284999D01*
X0120714Y0285105D01*
X0120624Y0285214D01*
X0120538Y0285325D01*
X0120454Y0285438D01*
X0120374Y0285554D01*
X0120297Y0285672D01*
X0120224Y0285792D01*
X0120153Y0285915D01*
X0120087Y0286039D01*
X0120024Y0286165D01*
X0119964Y0286292D01*
X0119908Y0286421D01*
X0119856Y0286552D01*
X0119807Y0286684D01*
X0119762Y0286818D01*
X0119721Y0286953D01*
X0119684Y0287089D01*
X0119650Y0287225D01*
X0119621Y0287363D01*
X0119595Y0287502D01*
X0119574Y0287641D01*
X0119556Y0287781D01*
X0119542Y0287921D01*
X0119532Y0288061D01*
X0119526Y0288202D01*
X0119524Y0288343D01*
X0284670Y0277363D02*
X0284672Y0277451D01*
X0284678Y0277539D01*
X0284688Y0277627D01*
X0284702Y0277715D01*
X0284719Y0277801D01*
X0284741Y0277887D01*
X0284766Y0277971D01*
X0284796Y0278055D01*
X0284828Y0278137D01*
X0284865Y0278217D01*
X0284905Y0278296D01*
X0284949Y0278373D01*
X0284996Y0278448D01*
X0285046Y0278520D01*
X0285100Y0278591D01*
X0285156Y0278658D01*
X0285216Y0278724D01*
X0285278Y0278786D01*
X0285344Y0278846D01*
X0285411Y0278902D01*
X0285482Y0278956D01*
X0285554Y0279006D01*
X0285629Y0279053D01*
X0285706Y0279097D01*
X0285785Y0279137D01*
X0285865Y0279174D01*
X0285947Y0279206D01*
X0286031Y0279236D01*
X0286115Y0279261D01*
X0286201Y0279283D01*
X0286287Y0279300D01*
X0286375Y0279314D01*
X0286463Y0279324D01*
X0286551Y0279330D01*
X0286639Y0279332D01*
X0286727Y0279330D01*
X0286815Y0279324D01*
X0286903Y0279314D01*
X0286991Y0279300D01*
X0287077Y0279283D01*
X0287163Y0279261D01*
X0287247Y0279236D01*
X0287331Y0279206D01*
X0287413Y0279174D01*
X0287493Y0279137D01*
X0287572Y0279097D01*
X0287649Y0279053D01*
X0287724Y0279006D01*
X0287796Y0278956D01*
X0287867Y0278902D01*
X0287934Y0278846D01*
X0288000Y0278786D01*
X0288062Y0278724D01*
X0288122Y0278658D01*
X0288178Y0278591D01*
X0288232Y0278520D01*
X0288282Y0278448D01*
X0288329Y0278373D01*
X0288373Y0278296D01*
X0288413Y0278217D01*
X0288450Y0278137D01*
X0288482Y0278055D01*
X0288512Y0277971D01*
X0288537Y0277887D01*
X0288559Y0277801D01*
X0288576Y0277715D01*
X0288590Y0277627D01*
X0288600Y0277539D01*
X0288606Y0277451D01*
X0288608Y0277363D01*
X0288606Y0277275D01*
X0288600Y0277187D01*
X0288590Y0277099D01*
X0288576Y0277011D01*
X0288559Y0276925D01*
X0288537Y0276839D01*
X0288512Y0276755D01*
X0288482Y0276671D01*
X0288450Y0276589D01*
X0288413Y0276509D01*
X0288373Y0276430D01*
X0288329Y0276353D01*
X0288282Y0276278D01*
X0288232Y0276206D01*
X0288178Y0276135D01*
X0288122Y0276068D01*
X0288062Y0276002D01*
X0288000Y0275940D01*
X0287934Y0275880D01*
X0287867Y0275824D01*
X0287796Y0275770D01*
X0287724Y0275720D01*
X0287649Y0275673D01*
X0287572Y0275629D01*
X0287493Y0275589D01*
X0287413Y0275552D01*
X0287331Y0275520D01*
X0287247Y0275490D01*
X0287163Y0275465D01*
X0287077Y0275443D01*
X0286991Y0275426D01*
X0286903Y0275412D01*
X0286815Y0275402D01*
X0286727Y0275396D01*
X0286639Y0275394D01*
X0286551Y0275396D01*
X0286463Y0275402D01*
X0286375Y0275412D01*
X0286287Y0275426D01*
X0286201Y0275443D01*
X0286115Y0275465D01*
X0286031Y0275490D01*
X0285947Y0275520D01*
X0285865Y0275552D01*
X0285785Y0275589D01*
X0285706Y0275629D01*
X0285629Y0275673D01*
X0285554Y0275720D01*
X0285482Y0275770D01*
X0285411Y0275824D01*
X0285344Y0275880D01*
X0285278Y0275940D01*
X0285216Y0276002D01*
X0285156Y0276068D01*
X0285100Y0276135D01*
X0285046Y0276206D01*
X0284996Y0276278D01*
X0284949Y0276353D01*
X0284905Y0276430D01*
X0284865Y0276509D01*
X0284828Y0276589D01*
X0284796Y0276671D01*
X0284766Y0276755D01*
X0284741Y0276839D01*
X0284719Y0276925D01*
X0284702Y0277011D01*
X0284688Y0277099D01*
X0284678Y0277187D01*
X0284672Y0277275D01*
X0284670Y0277363D01*
X0301992Y0277363D02*
X0301994Y0277451D01*
X0302000Y0277539D01*
X0302010Y0277627D01*
X0302024Y0277715D01*
X0302041Y0277801D01*
X0302063Y0277887D01*
X0302088Y0277971D01*
X0302118Y0278055D01*
X0302150Y0278137D01*
X0302187Y0278217D01*
X0302227Y0278296D01*
X0302271Y0278373D01*
X0302318Y0278448D01*
X0302368Y0278520D01*
X0302422Y0278591D01*
X0302478Y0278658D01*
X0302538Y0278724D01*
X0302600Y0278786D01*
X0302666Y0278846D01*
X0302733Y0278902D01*
X0302804Y0278956D01*
X0302876Y0279006D01*
X0302951Y0279053D01*
X0303028Y0279097D01*
X0303107Y0279137D01*
X0303187Y0279174D01*
X0303269Y0279206D01*
X0303353Y0279236D01*
X0303437Y0279261D01*
X0303523Y0279283D01*
X0303609Y0279300D01*
X0303697Y0279314D01*
X0303785Y0279324D01*
X0303873Y0279330D01*
X0303961Y0279332D01*
X0304049Y0279330D01*
X0304137Y0279324D01*
X0304225Y0279314D01*
X0304313Y0279300D01*
X0304399Y0279283D01*
X0304485Y0279261D01*
X0304569Y0279236D01*
X0304653Y0279206D01*
X0304735Y0279174D01*
X0304815Y0279137D01*
X0304894Y0279097D01*
X0304971Y0279053D01*
X0305046Y0279006D01*
X0305118Y0278956D01*
X0305189Y0278902D01*
X0305256Y0278846D01*
X0305322Y0278786D01*
X0305384Y0278724D01*
X0305444Y0278658D01*
X0305500Y0278591D01*
X0305554Y0278520D01*
X0305604Y0278448D01*
X0305651Y0278373D01*
X0305695Y0278296D01*
X0305735Y0278217D01*
X0305772Y0278137D01*
X0305804Y0278055D01*
X0305834Y0277971D01*
X0305859Y0277887D01*
X0305881Y0277801D01*
X0305898Y0277715D01*
X0305912Y0277627D01*
X0305922Y0277539D01*
X0305928Y0277451D01*
X0305930Y0277363D01*
X0305928Y0277275D01*
X0305922Y0277187D01*
X0305912Y0277099D01*
X0305898Y0277011D01*
X0305881Y0276925D01*
X0305859Y0276839D01*
X0305834Y0276755D01*
X0305804Y0276671D01*
X0305772Y0276589D01*
X0305735Y0276509D01*
X0305695Y0276430D01*
X0305651Y0276353D01*
X0305604Y0276278D01*
X0305554Y0276206D01*
X0305500Y0276135D01*
X0305444Y0276068D01*
X0305384Y0276002D01*
X0305322Y0275940D01*
X0305256Y0275880D01*
X0305189Y0275824D01*
X0305118Y0275770D01*
X0305046Y0275720D01*
X0304971Y0275673D01*
X0304894Y0275629D01*
X0304815Y0275589D01*
X0304735Y0275552D01*
X0304653Y0275520D01*
X0304569Y0275490D01*
X0304485Y0275465D01*
X0304399Y0275443D01*
X0304313Y0275426D01*
X0304225Y0275412D01*
X0304137Y0275402D01*
X0304049Y0275396D01*
X0303961Y0275394D01*
X0303873Y0275396D01*
X0303785Y0275402D01*
X0303697Y0275412D01*
X0303609Y0275426D01*
X0303523Y0275443D01*
X0303437Y0275465D01*
X0303353Y0275490D01*
X0303269Y0275520D01*
X0303187Y0275552D01*
X0303107Y0275589D01*
X0303028Y0275629D01*
X0302951Y0275673D01*
X0302876Y0275720D01*
X0302804Y0275770D01*
X0302733Y0275824D01*
X0302666Y0275880D01*
X0302600Y0275940D01*
X0302538Y0276002D01*
X0302478Y0276068D01*
X0302422Y0276135D01*
X0302368Y0276206D01*
X0302318Y0276278D01*
X0302271Y0276353D01*
X0302227Y0276430D01*
X0302187Y0276509D01*
X0302150Y0276589D01*
X0302118Y0276671D01*
X0302088Y0276755D01*
X0302063Y0276839D01*
X0302041Y0276925D01*
X0302024Y0277011D01*
X0302010Y0277099D01*
X0302000Y0277187D01*
X0301994Y0277275D01*
X0301992Y0277363D01*
X0395690Y0287932D02*
X0395692Y0288073D01*
X0395698Y0288214D01*
X0395708Y0288354D01*
X0395722Y0288494D01*
X0395740Y0288634D01*
X0395761Y0288773D01*
X0395787Y0288912D01*
X0395816Y0289050D01*
X0395850Y0289186D01*
X0395887Y0289322D01*
X0395928Y0289457D01*
X0395973Y0289591D01*
X0396022Y0289723D01*
X0396074Y0289854D01*
X0396130Y0289983D01*
X0396190Y0290110D01*
X0396253Y0290236D01*
X0396319Y0290360D01*
X0396390Y0290483D01*
X0396463Y0290603D01*
X0396540Y0290721D01*
X0396620Y0290837D01*
X0396704Y0290950D01*
X0396790Y0291061D01*
X0396880Y0291170D01*
X0396973Y0291276D01*
X0397068Y0291379D01*
X0397167Y0291480D01*
X0397268Y0291578D01*
X0397372Y0291673D01*
X0397479Y0291765D01*
X0397588Y0291854D01*
X0397700Y0291939D01*
X0397814Y0292022D01*
X0397930Y0292102D01*
X0398049Y0292178D01*
X0398170Y0292250D01*
X0398292Y0292320D01*
X0398417Y0292385D01*
X0398543Y0292448D01*
X0398671Y0292506D01*
X0398801Y0292561D01*
X0398932Y0292613D01*
X0399065Y0292660D01*
X0399199Y0292704D01*
X0399334Y0292745D01*
X0399470Y0292781D01*
X0399607Y0292813D01*
X0399745Y0292842D01*
X0399883Y0292867D01*
X0400023Y0292887D01*
X0400163Y0292904D01*
X0400303Y0292917D01*
X0400444Y0292926D01*
X0400584Y0292931D01*
X0400725Y0292932D01*
X0400866Y0292929D01*
X0401007Y0292922D01*
X0401147Y0292911D01*
X0401287Y0292896D01*
X0401427Y0292877D01*
X0401566Y0292855D01*
X0401704Y0292828D01*
X0401842Y0292798D01*
X0401978Y0292763D01*
X0402114Y0292725D01*
X0402248Y0292683D01*
X0402382Y0292637D01*
X0402514Y0292588D01*
X0402644Y0292534D01*
X0402773Y0292477D01*
X0402900Y0292417D01*
X0403026Y0292353D01*
X0403149Y0292285D01*
X0403271Y0292214D01*
X0403391Y0292140D01*
X0403508Y0292062D01*
X0403623Y0291981D01*
X0403736Y0291897D01*
X0403847Y0291810D01*
X0403955Y0291719D01*
X0404060Y0291626D01*
X0404163Y0291529D01*
X0404263Y0291430D01*
X0404360Y0291328D01*
X0404454Y0291223D01*
X0404545Y0291116D01*
X0404633Y0291006D01*
X0404718Y0290894D01*
X0404800Y0290779D01*
X0404879Y0290662D01*
X0404954Y0290543D01*
X0405026Y0290422D01*
X0405094Y0290299D01*
X0405159Y0290174D01*
X0405221Y0290047D01*
X0405278Y0289918D01*
X0405333Y0289788D01*
X0405383Y0289657D01*
X0405430Y0289524D01*
X0405473Y0289390D01*
X0405512Y0289254D01*
X0405547Y0289118D01*
X0405579Y0288981D01*
X0405606Y0288843D01*
X0405630Y0288704D01*
X0405650Y0288564D01*
X0405666Y0288424D01*
X0405678Y0288284D01*
X0405686Y0288143D01*
X0405690Y0288002D01*
X0405690Y0287862D01*
X0405686Y0287721D01*
X0405678Y0287580D01*
X0405666Y0287440D01*
X0405650Y0287300D01*
X0405630Y0287160D01*
X0405606Y0287021D01*
X0405579Y0286883D01*
X0405547Y0286746D01*
X0405512Y0286610D01*
X0405473Y0286474D01*
X0405430Y0286340D01*
X0405383Y0286207D01*
X0405333Y0286076D01*
X0405278Y0285946D01*
X0405221Y0285817D01*
X0405159Y0285690D01*
X0405094Y0285565D01*
X0405026Y0285442D01*
X0404954Y0285321D01*
X0404879Y0285202D01*
X0404800Y0285085D01*
X0404718Y0284970D01*
X0404633Y0284858D01*
X0404545Y0284748D01*
X0404454Y0284641D01*
X0404360Y0284536D01*
X0404263Y0284434D01*
X0404163Y0284335D01*
X0404060Y0284238D01*
X0403955Y0284145D01*
X0403847Y0284054D01*
X0403736Y0283967D01*
X0403623Y0283883D01*
X0403508Y0283802D01*
X0403391Y0283724D01*
X0403271Y0283650D01*
X0403149Y0283579D01*
X0403026Y0283511D01*
X0402900Y0283447D01*
X0402773Y0283387D01*
X0402644Y0283330D01*
X0402514Y0283276D01*
X0402382Y0283227D01*
X0402248Y0283181D01*
X0402114Y0283139D01*
X0401978Y0283101D01*
X0401842Y0283066D01*
X0401704Y0283036D01*
X0401566Y0283009D01*
X0401427Y0282987D01*
X0401287Y0282968D01*
X0401147Y0282953D01*
X0401007Y0282942D01*
X0400866Y0282935D01*
X0400725Y0282932D01*
X0400584Y0282933D01*
X0400444Y0282938D01*
X0400303Y0282947D01*
X0400163Y0282960D01*
X0400023Y0282977D01*
X0399883Y0282997D01*
X0399745Y0283022D01*
X0399607Y0283051D01*
X0399470Y0283083D01*
X0399334Y0283119D01*
X0399199Y0283160D01*
X0399065Y0283204D01*
X0398932Y0283251D01*
X0398801Y0283303D01*
X0398671Y0283358D01*
X0398543Y0283416D01*
X0398417Y0283479D01*
X0398292Y0283544D01*
X0398170Y0283614D01*
X0398049Y0283686D01*
X0397930Y0283762D01*
X0397814Y0283842D01*
X0397700Y0283925D01*
X0397588Y0284010D01*
X0397479Y0284099D01*
X0397372Y0284191D01*
X0397268Y0284286D01*
X0397167Y0284384D01*
X0397068Y0284485D01*
X0396973Y0284588D01*
X0396880Y0284694D01*
X0396790Y0284803D01*
X0396704Y0284914D01*
X0396620Y0285027D01*
X0396540Y0285143D01*
X0396463Y0285261D01*
X0396390Y0285381D01*
X0396319Y0285504D01*
X0396253Y0285628D01*
X0396190Y0285754D01*
X0396130Y0285881D01*
X0396074Y0286010D01*
X0396022Y0286141D01*
X0395973Y0286273D01*
X0395928Y0286407D01*
X0395887Y0286542D01*
X0395850Y0286678D01*
X0395816Y0286814D01*
X0395787Y0286952D01*
X0395761Y0287091D01*
X0395740Y0287230D01*
X0395722Y0287370D01*
X0395708Y0287510D01*
X0395698Y0287650D01*
X0395692Y0287791D01*
X0395690Y0287932D01*
X0433956Y0233573D02*
X0433958Y0233726D01*
X0433964Y0233880D01*
X0433974Y0234033D01*
X0433988Y0234185D01*
X0434006Y0234338D01*
X0434028Y0234489D01*
X0434053Y0234640D01*
X0434083Y0234791D01*
X0434117Y0234941D01*
X0434154Y0235089D01*
X0434195Y0235237D01*
X0434240Y0235383D01*
X0434289Y0235529D01*
X0434342Y0235673D01*
X0434398Y0235815D01*
X0434458Y0235956D01*
X0434522Y0236096D01*
X0434589Y0236234D01*
X0434660Y0236370D01*
X0434735Y0236504D01*
X0434812Y0236636D01*
X0434894Y0236766D01*
X0434978Y0236894D01*
X0435066Y0237020D01*
X0435157Y0237143D01*
X0435251Y0237264D01*
X0435349Y0237382D01*
X0435449Y0237498D01*
X0435553Y0237611D01*
X0435659Y0237722D01*
X0435768Y0237830D01*
X0435880Y0237935D01*
X0435994Y0238036D01*
X0436112Y0238135D01*
X0436231Y0238231D01*
X0436353Y0238324D01*
X0436478Y0238413D01*
X0436605Y0238500D01*
X0436734Y0238582D01*
X0436865Y0238662D01*
X0436998Y0238738D01*
X0437133Y0238811D01*
X0437270Y0238880D01*
X0437409Y0238945D01*
X0437549Y0239007D01*
X0437691Y0239065D01*
X0437834Y0239120D01*
X0437979Y0239171D01*
X0438125Y0239218D01*
X0438272Y0239261D01*
X0438420Y0239300D01*
X0438569Y0239336D01*
X0438719Y0239367D01*
X0438870Y0239395D01*
X0439021Y0239419D01*
X0439174Y0239439D01*
X0439326Y0239455D01*
X0439479Y0239467D01*
X0439632Y0239475D01*
X0439785Y0239479D01*
X0439939Y0239479D01*
X0440092Y0239475D01*
X0440245Y0239467D01*
X0440398Y0239455D01*
X0440550Y0239439D01*
X0440703Y0239419D01*
X0440854Y0239395D01*
X0441005Y0239367D01*
X0441155Y0239336D01*
X0441304Y0239300D01*
X0441452Y0239261D01*
X0441599Y0239218D01*
X0441745Y0239171D01*
X0441890Y0239120D01*
X0442033Y0239065D01*
X0442175Y0239007D01*
X0442315Y0238945D01*
X0442454Y0238880D01*
X0442591Y0238811D01*
X0442726Y0238738D01*
X0442859Y0238662D01*
X0442990Y0238582D01*
X0443119Y0238500D01*
X0443246Y0238413D01*
X0443371Y0238324D01*
X0443493Y0238231D01*
X0443612Y0238135D01*
X0443730Y0238036D01*
X0443844Y0237935D01*
X0443956Y0237830D01*
X0444065Y0237722D01*
X0444171Y0237611D01*
X0444275Y0237498D01*
X0444375Y0237382D01*
X0444473Y0237264D01*
X0444567Y0237143D01*
X0444658Y0237020D01*
X0444746Y0236894D01*
X0444830Y0236766D01*
X0444912Y0236636D01*
X0444989Y0236504D01*
X0445064Y0236370D01*
X0445135Y0236234D01*
X0445202Y0236096D01*
X0445266Y0235956D01*
X0445326Y0235815D01*
X0445382Y0235673D01*
X0445435Y0235529D01*
X0445484Y0235383D01*
X0445529Y0235237D01*
X0445570Y0235089D01*
X0445607Y0234941D01*
X0445641Y0234791D01*
X0445671Y0234640D01*
X0445696Y0234489D01*
X0445718Y0234338D01*
X0445736Y0234185D01*
X0445750Y0234033D01*
X0445760Y0233880D01*
X0445766Y0233726D01*
X0445768Y0233573D01*
X0445766Y0233420D01*
X0445760Y0233266D01*
X0445750Y0233113D01*
X0445736Y0232961D01*
X0445718Y0232808D01*
X0445696Y0232657D01*
X0445671Y0232506D01*
X0445641Y0232355D01*
X0445607Y0232205D01*
X0445570Y0232057D01*
X0445529Y0231909D01*
X0445484Y0231763D01*
X0445435Y0231617D01*
X0445382Y0231473D01*
X0445326Y0231331D01*
X0445266Y0231190D01*
X0445202Y0231050D01*
X0445135Y0230912D01*
X0445064Y0230776D01*
X0444989Y0230642D01*
X0444912Y0230510D01*
X0444830Y0230380D01*
X0444746Y0230252D01*
X0444658Y0230126D01*
X0444567Y0230003D01*
X0444473Y0229882D01*
X0444375Y0229764D01*
X0444275Y0229648D01*
X0444171Y0229535D01*
X0444065Y0229424D01*
X0443956Y0229316D01*
X0443844Y0229211D01*
X0443730Y0229110D01*
X0443612Y0229011D01*
X0443493Y0228915D01*
X0443371Y0228822D01*
X0443246Y0228733D01*
X0443119Y0228646D01*
X0442990Y0228564D01*
X0442859Y0228484D01*
X0442726Y0228408D01*
X0442591Y0228335D01*
X0442454Y0228266D01*
X0442315Y0228201D01*
X0442175Y0228139D01*
X0442033Y0228081D01*
X0441890Y0228026D01*
X0441745Y0227975D01*
X0441599Y0227928D01*
X0441452Y0227885D01*
X0441304Y0227846D01*
X0441155Y0227810D01*
X0441005Y0227779D01*
X0440854Y0227751D01*
X0440703Y0227727D01*
X0440550Y0227707D01*
X0440398Y0227691D01*
X0440245Y0227679D01*
X0440092Y0227671D01*
X0439939Y0227667D01*
X0439785Y0227667D01*
X0439632Y0227671D01*
X0439479Y0227679D01*
X0439326Y0227691D01*
X0439174Y0227707D01*
X0439021Y0227727D01*
X0438870Y0227751D01*
X0438719Y0227779D01*
X0438569Y0227810D01*
X0438420Y0227846D01*
X0438272Y0227885D01*
X0438125Y0227928D01*
X0437979Y0227975D01*
X0437834Y0228026D01*
X0437691Y0228081D01*
X0437549Y0228139D01*
X0437409Y0228201D01*
X0437270Y0228266D01*
X0437133Y0228335D01*
X0436998Y0228408D01*
X0436865Y0228484D01*
X0436734Y0228564D01*
X0436605Y0228646D01*
X0436478Y0228733D01*
X0436353Y0228822D01*
X0436231Y0228915D01*
X0436112Y0229011D01*
X0435994Y0229110D01*
X0435880Y0229211D01*
X0435768Y0229316D01*
X0435659Y0229424D01*
X0435553Y0229535D01*
X0435449Y0229648D01*
X0435349Y0229764D01*
X0435251Y0229882D01*
X0435157Y0230003D01*
X0435066Y0230126D01*
X0434978Y0230252D01*
X0434894Y0230380D01*
X0434812Y0230510D01*
X0434735Y0230642D01*
X0434660Y0230776D01*
X0434589Y0230912D01*
X0434522Y0231050D01*
X0434458Y0231190D01*
X0434398Y0231331D01*
X0434342Y0231473D01*
X0434289Y0231617D01*
X0434240Y0231763D01*
X0434195Y0231909D01*
X0434154Y0232057D01*
X0434117Y0232205D01*
X0434083Y0232355D01*
X0434053Y0232506D01*
X0434028Y0232657D01*
X0434006Y0232808D01*
X0433988Y0232961D01*
X0433974Y0233113D01*
X0433964Y0233266D01*
X0433958Y0233420D01*
X0433956Y0233573D01*
X0447442Y0199091D02*
X0447444Y0199275D01*
X0447451Y0199458D01*
X0447462Y0199641D01*
X0447478Y0199824D01*
X0447498Y0200007D01*
X0447523Y0200189D01*
X0447552Y0200370D01*
X0447586Y0200550D01*
X0447624Y0200730D01*
X0447666Y0200908D01*
X0447713Y0201086D01*
X0447764Y0201262D01*
X0447820Y0201437D01*
X0447879Y0201611D01*
X0447943Y0201783D01*
X0448011Y0201953D01*
X0448084Y0202122D01*
X0448160Y0202289D01*
X0448241Y0202454D01*
X0448325Y0202617D01*
X0448414Y0202778D01*
X0448506Y0202936D01*
X0448602Y0203093D01*
X0448703Y0203247D01*
X0448806Y0203398D01*
X0448914Y0203547D01*
X0449025Y0203693D01*
X0449140Y0203836D01*
X0449258Y0203977D01*
X0449380Y0204114D01*
X0449505Y0204249D01*
X0449633Y0204380D01*
X0449764Y0204508D01*
X0449899Y0204633D01*
X0450036Y0204755D01*
X0450177Y0204873D01*
X0450320Y0204988D01*
X0450466Y0205099D01*
X0450615Y0205207D01*
X0450766Y0205310D01*
X0450920Y0205411D01*
X0451077Y0205507D01*
X0451235Y0205599D01*
X0451396Y0205688D01*
X0451559Y0205772D01*
X0451724Y0205853D01*
X0451891Y0205929D01*
X0452060Y0206002D01*
X0452230Y0206070D01*
X0452402Y0206134D01*
X0452576Y0206193D01*
X0452751Y0206249D01*
X0452927Y0206300D01*
X0453105Y0206347D01*
X0453283Y0206389D01*
X0453463Y0206427D01*
X0453643Y0206461D01*
X0453824Y0206490D01*
X0454006Y0206515D01*
X0454189Y0206535D01*
X0454372Y0206551D01*
X0454555Y0206562D01*
X0454738Y0206569D01*
X0454922Y0206571D01*
X0455106Y0206569D01*
X0455289Y0206562D01*
X0455472Y0206551D01*
X0455655Y0206535D01*
X0455838Y0206515D01*
X0456020Y0206490D01*
X0456201Y0206461D01*
X0456381Y0206427D01*
X0456561Y0206389D01*
X0456739Y0206347D01*
X0456917Y0206300D01*
X0457093Y0206249D01*
X0457268Y0206193D01*
X0457442Y0206134D01*
X0457614Y0206070D01*
X0457784Y0206002D01*
X0457953Y0205929D01*
X0458120Y0205853D01*
X0458285Y0205772D01*
X0458448Y0205688D01*
X0458609Y0205599D01*
X0458767Y0205507D01*
X0458924Y0205411D01*
X0459078Y0205310D01*
X0459229Y0205207D01*
X0459378Y0205099D01*
X0459524Y0204988D01*
X0459667Y0204873D01*
X0459808Y0204755D01*
X0459945Y0204633D01*
X0460080Y0204508D01*
X0460211Y0204380D01*
X0460339Y0204249D01*
X0460464Y0204114D01*
X0460586Y0203977D01*
X0460704Y0203836D01*
X0460819Y0203693D01*
X0460930Y0203547D01*
X0461038Y0203398D01*
X0461141Y0203247D01*
X0461242Y0203093D01*
X0461338Y0202936D01*
X0461430Y0202778D01*
X0461519Y0202617D01*
X0461603Y0202454D01*
X0461684Y0202289D01*
X0461760Y0202122D01*
X0461833Y0201953D01*
X0461901Y0201783D01*
X0461965Y0201611D01*
X0462024Y0201437D01*
X0462080Y0201262D01*
X0462131Y0201086D01*
X0462178Y0200908D01*
X0462220Y0200730D01*
X0462258Y0200550D01*
X0462292Y0200370D01*
X0462321Y0200189D01*
X0462346Y0200007D01*
X0462366Y0199824D01*
X0462382Y0199641D01*
X0462393Y0199458D01*
X0462400Y0199275D01*
X0462402Y0199091D01*
X0462400Y0198907D01*
X0462393Y0198724D01*
X0462382Y0198541D01*
X0462366Y0198358D01*
X0462346Y0198175D01*
X0462321Y0197993D01*
X0462292Y0197812D01*
X0462258Y0197632D01*
X0462220Y0197452D01*
X0462178Y0197274D01*
X0462131Y0197096D01*
X0462080Y0196920D01*
X0462024Y0196745D01*
X0461965Y0196571D01*
X0461901Y0196399D01*
X0461833Y0196229D01*
X0461760Y0196060D01*
X0461684Y0195893D01*
X0461603Y0195728D01*
X0461519Y0195565D01*
X0461430Y0195404D01*
X0461338Y0195246D01*
X0461242Y0195089D01*
X0461141Y0194935D01*
X0461038Y0194784D01*
X0460930Y0194635D01*
X0460819Y0194489D01*
X0460704Y0194346D01*
X0460586Y0194205D01*
X0460464Y0194068D01*
X0460339Y0193933D01*
X0460211Y0193802D01*
X0460080Y0193674D01*
X0459945Y0193549D01*
X0459808Y0193427D01*
X0459667Y0193309D01*
X0459524Y0193194D01*
X0459378Y0193083D01*
X0459229Y0192975D01*
X0459078Y0192872D01*
X0458924Y0192771D01*
X0458767Y0192675D01*
X0458609Y0192583D01*
X0458448Y0192494D01*
X0458285Y0192410D01*
X0458120Y0192329D01*
X0457953Y0192253D01*
X0457784Y0192180D01*
X0457614Y0192112D01*
X0457442Y0192048D01*
X0457268Y0191989D01*
X0457093Y0191933D01*
X0456917Y0191882D01*
X0456739Y0191835D01*
X0456561Y0191793D01*
X0456381Y0191755D01*
X0456201Y0191721D01*
X0456020Y0191692D01*
X0455838Y0191667D01*
X0455655Y0191647D01*
X0455472Y0191631D01*
X0455289Y0191620D01*
X0455106Y0191613D01*
X0454922Y0191611D01*
X0454738Y0191613D01*
X0454555Y0191620D01*
X0454372Y0191631D01*
X0454189Y0191647D01*
X0454006Y0191667D01*
X0453824Y0191692D01*
X0453643Y0191721D01*
X0453463Y0191755D01*
X0453283Y0191793D01*
X0453105Y0191835D01*
X0452927Y0191882D01*
X0452751Y0191933D01*
X0452576Y0191989D01*
X0452402Y0192048D01*
X0452230Y0192112D01*
X0452060Y0192180D01*
X0451891Y0192253D01*
X0451724Y0192329D01*
X0451559Y0192410D01*
X0451396Y0192494D01*
X0451235Y0192583D01*
X0451077Y0192675D01*
X0450920Y0192771D01*
X0450766Y0192872D01*
X0450615Y0192975D01*
X0450466Y0193083D01*
X0450320Y0193194D01*
X0450177Y0193309D01*
X0450036Y0193427D01*
X0449899Y0193549D01*
X0449764Y0193674D01*
X0449633Y0193802D01*
X0449505Y0193933D01*
X0449380Y0194068D01*
X0449258Y0194205D01*
X0449140Y0194346D01*
X0449025Y0194489D01*
X0448914Y0194635D01*
X0448806Y0194784D01*
X0448703Y0194935D01*
X0448602Y0195089D01*
X0448506Y0195246D01*
X0448414Y0195404D01*
X0448325Y0195565D01*
X0448241Y0195728D01*
X0448160Y0195893D01*
X0448084Y0196060D01*
X0448011Y0196229D01*
X0447943Y0196399D01*
X0447879Y0196571D01*
X0447820Y0196745D01*
X0447764Y0196920D01*
X0447713Y0197096D01*
X0447666Y0197274D01*
X0447624Y0197452D01*
X0447586Y0197632D01*
X0447552Y0197812D01*
X0447523Y0197993D01*
X0447498Y0198175D01*
X0447478Y0198358D01*
X0447462Y0198541D01*
X0447451Y0198724D01*
X0447444Y0198907D01*
X0447442Y0199091D01*
X0470182Y0156893D02*
X0470184Y0157033D01*
X0470190Y0157173D01*
X0470200Y0157312D01*
X0470214Y0157451D01*
X0470232Y0157590D01*
X0470253Y0157728D01*
X0470279Y0157866D01*
X0470309Y0158003D01*
X0470342Y0158138D01*
X0470380Y0158273D01*
X0470421Y0158407D01*
X0470466Y0158540D01*
X0470514Y0158671D01*
X0470567Y0158800D01*
X0470623Y0158929D01*
X0470682Y0159055D01*
X0470746Y0159180D01*
X0470812Y0159303D01*
X0470883Y0159424D01*
X0470956Y0159543D01*
X0471033Y0159660D01*
X0471114Y0159774D01*
X0471197Y0159886D01*
X0471284Y0159996D01*
X0471374Y0160104D01*
X0471466Y0160208D01*
X0471562Y0160310D01*
X0471661Y0160410D01*
X0471762Y0160506D01*
X0471866Y0160600D01*
X0471973Y0160690D01*
X0472082Y0160777D01*
X0472194Y0160862D01*
X0472308Y0160943D01*
X0472424Y0161021D01*
X0472542Y0161095D01*
X0472663Y0161166D01*
X0472785Y0161234D01*
X0472910Y0161298D01*
X0473036Y0161359D01*
X0473163Y0161416D01*
X0473293Y0161469D01*
X0473424Y0161519D01*
X0473556Y0161564D01*
X0473689Y0161607D01*
X0473824Y0161645D01*
X0473959Y0161679D01*
X0474096Y0161710D01*
X0474233Y0161737D01*
X0474371Y0161759D01*
X0474510Y0161778D01*
X0474649Y0161793D01*
X0474788Y0161804D01*
X0474928Y0161811D01*
X0475068Y0161814D01*
X0475208Y0161813D01*
X0475348Y0161808D01*
X0475487Y0161799D01*
X0475627Y0161786D01*
X0475766Y0161769D01*
X0475904Y0161748D01*
X0476042Y0161724D01*
X0476179Y0161695D01*
X0476315Y0161663D01*
X0476450Y0161626D01*
X0476584Y0161586D01*
X0476717Y0161542D01*
X0476848Y0161494D01*
X0476978Y0161443D01*
X0477107Y0161388D01*
X0477234Y0161329D01*
X0477359Y0161266D01*
X0477482Y0161201D01*
X0477604Y0161131D01*
X0477723Y0161058D01*
X0477841Y0160982D01*
X0477956Y0160903D01*
X0478069Y0160820D01*
X0478179Y0160734D01*
X0478287Y0160645D01*
X0478392Y0160553D01*
X0478495Y0160458D01*
X0478595Y0160360D01*
X0478692Y0160260D01*
X0478786Y0160156D01*
X0478878Y0160050D01*
X0478966Y0159942D01*
X0479051Y0159831D01*
X0479133Y0159717D01*
X0479212Y0159601D01*
X0479287Y0159484D01*
X0479359Y0159364D01*
X0479427Y0159242D01*
X0479492Y0159118D01*
X0479554Y0158992D01*
X0479612Y0158865D01*
X0479666Y0158736D01*
X0479717Y0158605D01*
X0479763Y0158473D01*
X0479806Y0158340D01*
X0479846Y0158206D01*
X0479881Y0158071D01*
X0479913Y0157934D01*
X0479940Y0157797D01*
X0479964Y0157659D01*
X0479984Y0157521D01*
X0480000Y0157382D01*
X0480012Y0157242D01*
X0480020Y0157103D01*
X0480024Y0156963D01*
X0480024Y0156823D01*
X0480020Y0156683D01*
X0480012Y0156544D01*
X0480000Y0156404D01*
X0479984Y0156265D01*
X0479964Y0156127D01*
X0479940Y0155989D01*
X0479913Y0155852D01*
X0479881Y0155715D01*
X0479846Y0155580D01*
X0479806Y0155446D01*
X0479763Y0155313D01*
X0479717Y0155181D01*
X0479666Y0155050D01*
X0479612Y0154921D01*
X0479554Y0154794D01*
X0479492Y0154668D01*
X0479427Y0154544D01*
X0479359Y0154422D01*
X0479287Y0154302D01*
X0479212Y0154185D01*
X0479133Y0154069D01*
X0479051Y0153955D01*
X0478966Y0153844D01*
X0478878Y0153736D01*
X0478786Y0153630D01*
X0478692Y0153526D01*
X0478595Y0153426D01*
X0478495Y0153328D01*
X0478392Y0153233D01*
X0478287Y0153141D01*
X0478179Y0153052D01*
X0478069Y0152966D01*
X0477956Y0152883D01*
X0477841Y0152804D01*
X0477723Y0152728D01*
X0477604Y0152655D01*
X0477482Y0152585D01*
X0477359Y0152520D01*
X0477234Y0152457D01*
X0477107Y0152398D01*
X0476978Y0152343D01*
X0476848Y0152292D01*
X0476717Y0152244D01*
X0476584Y0152200D01*
X0476450Y0152160D01*
X0476315Y0152123D01*
X0476179Y0152091D01*
X0476042Y0152062D01*
X0475904Y0152038D01*
X0475766Y0152017D01*
X0475627Y0152000D01*
X0475487Y0151987D01*
X0475348Y0151978D01*
X0475208Y0151973D01*
X0475068Y0151972D01*
X0474928Y0151975D01*
X0474788Y0151982D01*
X0474649Y0151993D01*
X0474510Y0152008D01*
X0474371Y0152027D01*
X0474233Y0152049D01*
X0474096Y0152076D01*
X0473959Y0152107D01*
X0473824Y0152141D01*
X0473689Y0152179D01*
X0473556Y0152222D01*
X0473424Y0152267D01*
X0473293Y0152317D01*
X0473163Y0152370D01*
X0473036Y0152427D01*
X0472910Y0152488D01*
X0472785Y0152552D01*
X0472663Y0152620D01*
X0472542Y0152691D01*
X0472424Y0152765D01*
X0472308Y0152843D01*
X0472194Y0152924D01*
X0472082Y0153009D01*
X0471973Y0153096D01*
X0471866Y0153186D01*
X0471762Y0153280D01*
X0471661Y0153376D01*
X0471562Y0153476D01*
X0471466Y0153578D01*
X0471374Y0153682D01*
X0471284Y0153790D01*
X0471197Y0153900D01*
X0471114Y0154012D01*
X0471033Y0154126D01*
X0470956Y0154243D01*
X0470883Y0154362D01*
X0470812Y0154483D01*
X0470746Y0154606D01*
X0470682Y0154731D01*
X0470623Y0154857D01*
X0470567Y0154986D01*
X0470514Y0155115D01*
X0470466Y0155246D01*
X0470421Y0155379D01*
X0470380Y0155513D01*
X0470342Y0155648D01*
X0470309Y0155783D01*
X0470279Y0155920D01*
X0470253Y0156058D01*
X0470232Y0156196D01*
X0470214Y0156335D01*
X0470200Y0156474D01*
X0470190Y0156613D01*
X0470184Y0156753D01*
X0470182Y0156893D01*
X0490090Y0138167D02*
X0490092Y0138360D01*
X0490099Y0138553D01*
X0490111Y0138746D01*
X0490128Y0138939D01*
X0490149Y0139131D01*
X0490175Y0139322D01*
X0490206Y0139513D01*
X0490241Y0139703D01*
X0490281Y0139892D01*
X0490326Y0140080D01*
X0490375Y0140267D01*
X0490429Y0140453D01*
X0490487Y0140637D01*
X0490550Y0140820D01*
X0490618Y0141001D01*
X0490689Y0141180D01*
X0490766Y0141358D01*
X0490846Y0141534D01*
X0490931Y0141707D01*
X0491020Y0141879D01*
X0491113Y0142048D01*
X0491210Y0142215D01*
X0491312Y0142380D01*
X0491417Y0142542D01*
X0491526Y0142701D01*
X0491640Y0142858D01*
X0491757Y0143011D01*
X0491877Y0143162D01*
X0492002Y0143310D01*
X0492130Y0143455D01*
X0492261Y0143596D01*
X0492396Y0143735D01*
X0492535Y0143870D01*
X0492676Y0144001D01*
X0492821Y0144129D01*
X0492969Y0144254D01*
X0493120Y0144374D01*
X0493273Y0144491D01*
X0493430Y0144605D01*
X0493589Y0144714D01*
X0493751Y0144819D01*
X0493916Y0144921D01*
X0494083Y0145018D01*
X0494252Y0145111D01*
X0494424Y0145200D01*
X0494597Y0145285D01*
X0494773Y0145365D01*
X0494951Y0145442D01*
X0495130Y0145513D01*
X0495311Y0145581D01*
X0495494Y0145644D01*
X0495678Y0145702D01*
X0495864Y0145756D01*
X0496051Y0145805D01*
X0496239Y0145850D01*
X0496428Y0145890D01*
X0496618Y0145925D01*
X0496809Y0145956D01*
X0497000Y0145982D01*
X0497192Y0146003D01*
X0497385Y0146020D01*
X0497578Y0146032D01*
X0497771Y0146039D01*
X0497964Y0146041D01*
X0498157Y0146039D01*
X0498350Y0146032D01*
X0498543Y0146020D01*
X0498736Y0146003D01*
X0498928Y0145982D01*
X0499119Y0145956D01*
X0499310Y0145925D01*
X0499500Y0145890D01*
X0499689Y0145850D01*
X0499877Y0145805D01*
X0500064Y0145756D01*
X0500250Y0145702D01*
X0500434Y0145644D01*
X0500617Y0145581D01*
X0500798Y0145513D01*
X0500977Y0145442D01*
X0501155Y0145365D01*
X0501331Y0145285D01*
X0501504Y0145200D01*
X0501676Y0145111D01*
X0501845Y0145018D01*
X0502012Y0144921D01*
X0502177Y0144819D01*
X0502339Y0144714D01*
X0502498Y0144605D01*
X0502655Y0144491D01*
X0502808Y0144374D01*
X0502959Y0144254D01*
X0503107Y0144129D01*
X0503252Y0144001D01*
X0503393Y0143870D01*
X0503532Y0143735D01*
X0503667Y0143596D01*
X0503798Y0143455D01*
X0503926Y0143310D01*
X0504051Y0143162D01*
X0504171Y0143011D01*
X0504288Y0142858D01*
X0504402Y0142701D01*
X0504511Y0142542D01*
X0504616Y0142380D01*
X0504718Y0142215D01*
X0504815Y0142048D01*
X0504908Y0141879D01*
X0504997Y0141707D01*
X0505082Y0141534D01*
X0505162Y0141358D01*
X0505239Y0141180D01*
X0505310Y0141001D01*
X0505378Y0140820D01*
X0505441Y0140637D01*
X0505499Y0140453D01*
X0505553Y0140267D01*
X0505602Y0140080D01*
X0505647Y0139892D01*
X0505687Y0139703D01*
X0505722Y0139513D01*
X0505753Y0139322D01*
X0505779Y0139131D01*
X0505800Y0138939D01*
X0505817Y0138746D01*
X0505829Y0138553D01*
X0505836Y0138360D01*
X0505838Y0138167D01*
X0505836Y0137974D01*
X0505829Y0137781D01*
X0505817Y0137588D01*
X0505800Y0137395D01*
X0505779Y0137203D01*
X0505753Y0137012D01*
X0505722Y0136821D01*
X0505687Y0136631D01*
X0505647Y0136442D01*
X0505602Y0136254D01*
X0505553Y0136067D01*
X0505499Y0135881D01*
X0505441Y0135697D01*
X0505378Y0135514D01*
X0505310Y0135333D01*
X0505239Y0135154D01*
X0505162Y0134976D01*
X0505082Y0134800D01*
X0504997Y0134627D01*
X0504908Y0134455D01*
X0504815Y0134286D01*
X0504718Y0134119D01*
X0504616Y0133954D01*
X0504511Y0133792D01*
X0504402Y0133633D01*
X0504288Y0133476D01*
X0504171Y0133323D01*
X0504051Y0133172D01*
X0503926Y0133024D01*
X0503798Y0132879D01*
X0503667Y0132738D01*
X0503532Y0132599D01*
X0503393Y0132464D01*
X0503252Y0132333D01*
X0503107Y0132205D01*
X0502959Y0132080D01*
X0502808Y0131960D01*
X0502655Y0131843D01*
X0502498Y0131729D01*
X0502339Y0131620D01*
X0502177Y0131515D01*
X0502012Y0131413D01*
X0501845Y0131316D01*
X0501676Y0131223D01*
X0501504Y0131134D01*
X0501331Y0131049D01*
X0501155Y0130969D01*
X0500977Y0130892D01*
X0500798Y0130821D01*
X0500617Y0130753D01*
X0500434Y0130690D01*
X0500250Y0130632D01*
X0500064Y0130578D01*
X0499877Y0130529D01*
X0499689Y0130484D01*
X0499500Y0130444D01*
X0499310Y0130409D01*
X0499119Y0130378D01*
X0498928Y0130352D01*
X0498736Y0130331D01*
X0498543Y0130314D01*
X0498350Y0130302D01*
X0498157Y0130295D01*
X0497964Y0130293D01*
X0497771Y0130295D01*
X0497578Y0130302D01*
X0497385Y0130314D01*
X0497192Y0130331D01*
X0497000Y0130352D01*
X0496809Y0130378D01*
X0496618Y0130409D01*
X0496428Y0130444D01*
X0496239Y0130484D01*
X0496051Y0130529D01*
X0495864Y0130578D01*
X0495678Y0130632D01*
X0495494Y0130690D01*
X0495311Y0130753D01*
X0495130Y0130821D01*
X0494951Y0130892D01*
X0494773Y0130969D01*
X0494597Y0131049D01*
X0494424Y0131134D01*
X0494252Y0131223D01*
X0494083Y0131316D01*
X0493916Y0131413D01*
X0493751Y0131515D01*
X0493589Y0131620D01*
X0493430Y0131729D01*
X0493273Y0131843D01*
X0493120Y0131960D01*
X0492969Y0132080D01*
X0492821Y0132205D01*
X0492676Y0132333D01*
X0492535Y0132464D01*
X0492396Y0132599D01*
X0492261Y0132738D01*
X0492130Y0132879D01*
X0492002Y0133024D01*
X0491877Y0133172D01*
X0491757Y0133323D01*
X0491640Y0133476D01*
X0491526Y0133633D01*
X0491417Y0133792D01*
X0491312Y0133954D01*
X0491210Y0134119D01*
X0491113Y0134286D01*
X0491020Y0134455D01*
X0490931Y0134627D01*
X0490846Y0134800D01*
X0490766Y0134976D01*
X0490689Y0135154D01*
X0490618Y0135333D01*
X0490550Y0135514D01*
X0490487Y0135697D01*
X0490429Y0135881D01*
X0490375Y0136067D01*
X0490326Y0136254D01*
X0490281Y0136442D01*
X0490241Y0136631D01*
X0490206Y0136821D01*
X0490175Y0137012D01*
X0490149Y0137203D01*
X0490128Y0137395D01*
X0490111Y0137588D01*
X0490099Y0137781D01*
X0490092Y0137974D01*
X0490090Y0138167D01*
X0505237Y0064593D02*
X0505239Y0064746D01*
X0505245Y0064900D01*
X0505255Y0065053D01*
X0505269Y0065205D01*
X0505287Y0065358D01*
X0505309Y0065509D01*
X0505334Y0065660D01*
X0505364Y0065811D01*
X0505398Y0065961D01*
X0505435Y0066109D01*
X0505476Y0066257D01*
X0505521Y0066403D01*
X0505570Y0066549D01*
X0505623Y0066693D01*
X0505679Y0066835D01*
X0505739Y0066976D01*
X0505803Y0067116D01*
X0505870Y0067254D01*
X0505941Y0067390D01*
X0506016Y0067524D01*
X0506093Y0067656D01*
X0506175Y0067786D01*
X0506259Y0067914D01*
X0506347Y0068040D01*
X0506438Y0068163D01*
X0506532Y0068284D01*
X0506630Y0068402D01*
X0506730Y0068518D01*
X0506834Y0068631D01*
X0506940Y0068742D01*
X0507049Y0068850D01*
X0507161Y0068955D01*
X0507275Y0069056D01*
X0507393Y0069155D01*
X0507512Y0069251D01*
X0507634Y0069344D01*
X0507759Y0069433D01*
X0507886Y0069520D01*
X0508015Y0069602D01*
X0508146Y0069682D01*
X0508279Y0069758D01*
X0508414Y0069831D01*
X0508551Y0069900D01*
X0508690Y0069965D01*
X0508830Y0070027D01*
X0508972Y0070085D01*
X0509115Y0070140D01*
X0509260Y0070191D01*
X0509406Y0070238D01*
X0509553Y0070281D01*
X0509701Y0070320D01*
X0509850Y0070356D01*
X0510000Y0070387D01*
X0510151Y0070415D01*
X0510302Y0070439D01*
X0510455Y0070459D01*
X0510607Y0070475D01*
X0510760Y0070487D01*
X0510913Y0070495D01*
X0511066Y0070499D01*
X0511220Y0070499D01*
X0511373Y0070495D01*
X0511526Y0070487D01*
X0511679Y0070475D01*
X0511831Y0070459D01*
X0511984Y0070439D01*
X0512135Y0070415D01*
X0512286Y0070387D01*
X0512436Y0070356D01*
X0512585Y0070320D01*
X0512733Y0070281D01*
X0512880Y0070238D01*
X0513026Y0070191D01*
X0513171Y0070140D01*
X0513314Y0070085D01*
X0513456Y0070027D01*
X0513596Y0069965D01*
X0513735Y0069900D01*
X0513872Y0069831D01*
X0514007Y0069758D01*
X0514140Y0069682D01*
X0514271Y0069602D01*
X0514400Y0069520D01*
X0514527Y0069433D01*
X0514652Y0069344D01*
X0514774Y0069251D01*
X0514893Y0069155D01*
X0515011Y0069056D01*
X0515125Y0068955D01*
X0515237Y0068850D01*
X0515346Y0068742D01*
X0515452Y0068631D01*
X0515556Y0068518D01*
X0515656Y0068402D01*
X0515754Y0068284D01*
X0515848Y0068163D01*
X0515939Y0068040D01*
X0516027Y0067914D01*
X0516111Y0067786D01*
X0516193Y0067656D01*
X0516270Y0067524D01*
X0516345Y0067390D01*
X0516416Y0067254D01*
X0516483Y0067116D01*
X0516547Y0066976D01*
X0516607Y0066835D01*
X0516663Y0066693D01*
X0516716Y0066549D01*
X0516765Y0066403D01*
X0516810Y0066257D01*
X0516851Y0066109D01*
X0516888Y0065961D01*
X0516922Y0065811D01*
X0516952Y0065660D01*
X0516977Y0065509D01*
X0516999Y0065358D01*
X0517017Y0065205D01*
X0517031Y0065053D01*
X0517041Y0064900D01*
X0517047Y0064746D01*
X0517049Y0064593D01*
X0517047Y0064440D01*
X0517041Y0064286D01*
X0517031Y0064133D01*
X0517017Y0063981D01*
X0516999Y0063828D01*
X0516977Y0063677D01*
X0516952Y0063526D01*
X0516922Y0063375D01*
X0516888Y0063225D01*
X0516851Y0063077D01*
X0516810Y0062929D01*
X0516765Y0062783D01*
X0516716Y0062637D01*
X0516663Y0062493D01*
X0516607Y0062351D01*
X0516547Y0062210D01*
X0516483Y0062070D01*
X0516416Y0061932D01*
X0516345Y0061796D01*
X0516270Y0061662D01*
X0516193Y0061530D01*
X0516111Y0061400D01*
X0516027Y0061272D01*
X0515939Y0061146D01*
X0515848Y0061023D01*
X0515754Y0060902D01*
X0515656Y0060784D01*
X0515556Y0060668D01*
X0515452Y0060555D01*
X0515346Y0060444D01*
X0515237Y0060336D01*
X0515125Y0060231D01*
X0515011Y0060130D01*
X0514893Y0060031D01*
X0514774Y0059935D01*
X0514652Y0059842D01*
X0514527Y0059753D01*
X0514400Y0059666D01*
X0514271Y0059584D01*
X0514140Y0059504D01*
X0514007Y0059428D01*
X0513872Y0059355D01*
X0513735Y0059286D01*
X0513596Y0059221D01*
X0513456Y0059159D01*
X0513314Y0059101D01*
X0513171Y0059046D01*
X0513026Y0058995D01*
X0512880Y0058948D01*
X0512733Y0058905D01*
X0512585Y0058866D01*
X0512436Y0058830D01*
X0512286Y0058799D01*
X0512135Y0058771D01*
X0511984Y0058747D01*
X0511831Y0058727D01*
X0511679Y0058711D01*
X0511526Y0058699D01*
X0511373Y0058691D01*
X0511220Y0058687D01*
X0511066Y0058687D01*
X0510913Y0058691D01*
X0510760Y0058699D01*
X0510607Y0058711D01*
X0510455Y0058727D01*
X0510302Y0058747D01*
X0510151Y0058771D01*
X0510000Y0058799D01*
X0509850Y0058830D01*
X0509701Y0058866D01*
X0509553Y0058905D01*
X0509406Y0058948D01*
X0509260Y0058995D01*
X0509115Y0059046D01*
X0508972Y0059101D01*
X0508830Y0059159D01*
X0508690Y0059221D01*
X0508551Y0059286D01*
X0508414Y0059355D01*
X0508279Y0059428D01*
X0508146Y0059504D01*
X0508015Y0059584D01*
X0507886Y0059666D01*
X0507759Y0059753D01*
X0507634Y0059842D01*
X0507512Y0059935D01*
X0507393Y0060031D01*
X0507275Y0060130D01*
X0507161Y0060231D01*
X0507049Y0060336D01*
X0506940Y0060444D01*
X0506834Y0060555D01*
X0506730Y0060668D01*
X0506630Y0060784D01*
X0506532Y0060902D01*
X0506438Y0061023D01*
X0506347Y0061146D01*
X0506259Y0061272D01*
X0506175Y0061400D01*
X0506093Y0061530D01*
X0506016Y0061662D01*
X0505941Y0061796D01*
X0505870Y0061932D01*
X0505803Y0062070D01*
X0505739Y0062210D01*
X0505679Y0062351D01*
X0505623Y0062493D01*
X0505570Y0062637D01*
X0505521Y0062783D01*
X0505476Y0062929D01*
X0505435Y0063077D01*
X0505398Y0063225D01*
X0505364Y0063375D01*
X0505334Y0063526D01*
X0505309Y0063677D01*
X0505287Y0063828D01*
X0505269Y0063981D01*
X0505255Y0064133D01*
X0505245Y0064286D01*
X0505239Y0064440D01*
X0505237Y0064593D01*
X0416650Y0033749D02*
X0416652Y0033874D01*
X0416658Y0033999D01*
X0416668Y0034123D01*
X0416682Y0034247D01*
X0416699Y0034371D01*
X0416721Y0034494D01*
X0416747Y0034616D01*
X0416776Y0034738D01*
X0416809Y0034858D01*
X0416847Y0034977D01*
X0416887Y0035096D01*
X0416932Y0035212D01*
X0416980Y0035327D01*
X0417032Y0035441D01*
X0417088Y0035553D01*
X0417147Y0035663D01*
X0417209Y0035771D01*
X0417275Y0035878D01*
X0417344Y0035982D01*
X0417417Y0036083D01*
X0417492Y0036183D01*
X0417571Y0036280D01*
X0417653Y0036374D01*
X0417738Y0036466D01*
X0417825Y0036555D01*
X0417916Y0036641D01*
X0418009Y0036724D01*
X0418105Y0036805D01*
X0418203Y0036882D01*
X0418303Y0036956D01*
X0418406Y0037027D01*
X0418511Y0037094D01*
X0418619Y0037159D01*
X0418728Y0037219D01*
X0418839Y0037277D01*
X0418952Y0037330D01*
X0419066Y0037380D01*
X0419182Y0037427D01*
X0419299Y0037469D01*
X0419418Y0037508D01*
X0419538Y0037544D01*
X0419659Y0037575D01*
X0419781Y0037603D01*
X0419903Y0037626D01*
X0420027Y0037646D01*
X0420151Y0037662D01*
X0420275Y0037674D01*
X0420400Y0037682D01*
X0420525Y0037686D01*
X0420649Y0037686D01*
X0420774Y0037682D01*
X0420899Y0037674D01*
X0421023Y0037662D01*
X0421147Y0037646D01*
X0421271Y0037626D01*
X0421393Y0037603D01*
X0421515Y0037575D01*
X0421636Y0037544D01*
X0421756Y0037508D01*
X0421875Y0037469D01*
X0421992Y0037427D01*
X0422108Y0037380D01*
X0422222Y0037330D01*
X0422335Y0037277D01*
X0422446Y0037219D01*
X0422556Y0037159D01*
X0422663Y0037094D01*
X0422768Y0037027D01*
X0422871Y0036956D01*
X0422971Y0036882D01*
X0423069Y0036805D01*
X0423165Y0036724D01*
X0423258Y0036641D01*
X0423349Y0036555D01*
X0423436Y0036466D01*
X0423521Y0036374D01*
X0423603Y0036280D01*
X0423682Y0036183D01*
X0423757Y0036083D01*
X0423830Y0035982D01*
X0423899Y0035878D01*
X0423965Y0035771D01*
X0424027Y0035663D01*
X0424086Y0035553D01*
X0424142Y0035441D01*
X0424194Y0035327D01*
X0424242Y0035212D01*
X0424287Y0035096D01*
X0424327Y0034977D01*
X0424365Y0034858D01*
X0424398Y0034738D01*
X0424427Y0034616D01*
X0424453Y0034494D01*
X0424475Y0034371D01*
X0424492Y0034247D01*
X0424506Y0034123D01*
X0424516Y0033999D01*
X0424522Y0033874D01*
X0424524Y0033749D01*
X0424522Y0033624D01*
X0424516Y0033499D01*
X0424506Y0033375D01*
X0424492Y0033251D01*
X0424475Y0033127D01*
X0424453Y0033004D01*
X0424427Y0032882D01*
X0424398Y0032760D01*
X0424365Y0032640D01*
X0424327Y0032521D01*
X0424287Y0032402D01*
X0424242Y0032286D01*
X0424194Y0032171D01*
X0424142Y0032057D01*
X0424086Y0031945D01*
X0424027Y0031835D01*
X0423965Y0031727D01*
X0423899Y0031620D01*
X0423830Y0031516D01*
X0423757Y0031415D01*
X0423682Y0031315D01*
X0423603Y0031218D01*
X0423521Y0031124D01*
X0423436Y0031032D01*
X0423349Y0030943D01*
X0423258Y0030857D01*
X0423165Y0030774D01*
X0423069Y0030693D01*
X0422971Y0030616D01*
X0422871Y0030542D01*
X0422768Y0030471D01*
X0422663Y0030404D01*
X0422555Y0030339D01*
X0422446Y0030279D01*
X0422335Y0030221D01*
X0422222Y0030168D01*
X0422108Y0030118D01*
X0421992Y0030071D01*
X0421875Y0030029D01*
X0421756Y0029990D01*
X0421636Y0029954D01*
X0421515Y0029923D01*
X0421393Y0029895D01*
X0421271Y0029872D01*
X0421147Y0029852D01*
X0421023Y0029836D01*
X0420899Y0029824D01*
X0420774Y0029816D01*
X0420649Y0029812D01*
X0420525Y0029812D01*
X0420400Y0029816D01*
X0420275Y0029824D01*
X0420151Y0029836D01*
X0420027Y0029852D01*
X0419903Y0029872D01*
X0419781Y0029895D01*
X0419659Y0029923D01*
X0419538Y0029954D01*
X0419418Y0029990D01*
X0419299Y0030029D01*
X0419182Y0030071D01*
X0419066Y0030118D01*
X0418952Y0030168D01*
X0418839Y0030221D01*
X0418728Y0030279D01*
X0418618Y0030339D01*
X0418511Y0030404D01*
X0418406Y0030471D01*
X0418303Y0030542D01*
X0418203Y0030616D01*
X0418105Y0030693D01*
X0418009Y0030774D01*
X0417916Y0030857D01*
X0417825Y0030943D01*
X0417738Y0031032D01*
X0417653Y0031124D01*
X0417571Y0031218D01*
X0417492Y0031315D01*
X0417417Y0031415D01*
X0417344Y0031516D01*
X0417275Y0031620D01*
X0417209Y0031727D01*
X0417147Y0031835D01*
X0417088Y0031945D01*
X0417032Y0032057D01*
X0416980Y0032171D01*
X0416932Y0032286D01*
X0416887Y0032402D01*
X0416847Y0032521D01*
X0416809Y0032640D01*
X0416776Y0032760D01*
X0416747Y0032882D01*
X0416721Y0033004D01*
X0416699Y0033127D01*
X0416682Y0033251D01*
X0416668Y0033375D01*
X0416658Y0033499D01*
X0416652Y0033624D01*
X0416650Y0033749D01*
X0407521Y0009953D02*
X0407447Y0009907D01*
X0407370Y0009865D01*
X0407292Y0009825D01*
X0407212Y0009789D01*
X0407130Y0009757D01*
X0407048Y0009728D01*
X0406964Y0009703D01*
X0406879Y0009682D01*
X0406793Y0009665D01*
X0406707Y0009651D01*
X0406620Y0009641D01*
X0406532Y0009634D01*
X0406445Y0009632D01*
X0406357Y0009633D01*
X0406270Y0009639D01*
X0406183Y0009648D01*
X0406096Y0009661D01*
X0406010Y0009677D01*
X0405925Y0009698D01*
X0401275Y0010922D02*
X0401193Y0010942D01*
X0401110Y0010958D01*
X0401026Y0010971D01*
X0400942Y0010980D01*
X0400858Y0010986D01*
X0400773Y0010988D01*
X0407224Y0059646D02*
X0407226Y0059771D01*
X0407232Y0059896D01*
X0407242Y0060020D01*
X0407256Y0060144D01*
X0407273Y0060268D01*
X0407295Y0060391D01*
X0407321Y0060513D01*
X0407350Y0060635D01*
X0407383Y0060755D01*
X0407421Y0060874D01*
X0407461Y0060993D01*
X0407506Y0061109D01*
X0407554Y0061224D01*
X0407606Y0061338D01*
X0407662Y0061450D01*
X0407721Y0061560D01*
X0407783Y0061668D01*
X0407849Y0061775D01*
X0407918Y0061879D01*
X0407991Y0061980D01*
X0408066Y0062080D01*
X0408145Y0062177D01*
X0408227Y0062271D01*
X0408312Y0062363D01*
X0408399Y0062452D01*
X0408490Y0062538D01*
X0408583Y0062621D01*
X0408679Y0062702D01*
X0408777Y0062779D01*
X0408877Y0062853D01*
X0408980Y0062924D01*
X0409085Y0062991D01*
X0409193Y0063056D01*
X0409302Y0063116D01*
X0409413Y0063174D01*
X0409526Y0063227D01*
X0409640Y0063277D01*
X0409756Y0063324D01*
X0409873Y0063366D01*
X0409992Y0063405D01*
X0410112Y0063441D01*
X0410233Y0063472D01*
X0410355Y0063500D01*
X0410477Y0063523D01*
X0410601Y0063543D01*
X0410725Y0063559D01*
X0410849Y0063571D01*
X0410974Y0063579D01*
X0411099Y0063583D01*
X0411223Y0063583D01*
X0411348Y0063579D01*
X0411473Y0063571D01*
X0411597Y0063559D01*
X0411721Y0063543D01*
X0411845Y0063523D01*
X0411967Y0063500D01*
X0412089Y0063472D01*
X0412210Y0063441D01*
X0412330Y0063405D01*
X0412449Y0063366D01*
X0412566Y0063324D01*
X0412682Y0063277D01*
X0412796Y0063227D01*
X0412909Y0063174D01*
X0413020Y0063116D01*
X0413130Y0063056D01*
X0413237Y0062991D01*
X0413342Y0062924D01*
X0413445Y0062853D01*
X0413545Y0062779D01*
X0413643Y0062702D01*
X0413739Y0062621D01*
X0413832Y0062538D01*
X0413923Y0062452D01*
X0414010Y0062363D01*
X0414095Y0062271D01*
X0414177Y0062177D01*
X0414256Y0062080D01*
X0414331Y0061980D01*
X0414404Y0061879D01*
X0414473Y0061775D01*
X0414539Y0061668D01*
X0414601Y0061560D01*
X0414660Y0061450D01*
X0414716Y0061338D01*
X0414768Y0061224D01*
X0414816Y0061109D01*
X0414861Y0060993D01*
X0414901Y0060874D01*
X0414939Y0060755D01*
X0414972Y0060635D01*
X0415001Y0060513D01*
X0415027Y0060391D01*
X0415049Y0060268D01*
X0415066Y0060144D01*
X0415080Y0060020D01*
X0415090Y0059896D01*
X0415096Y0059771D01*
X0415098Y0059646D01*
X0415096Y0059521D01*
X0415090Y0059396D01*
X0415080Y0059272D01*
X0415066Y0059148D01*
X0415049Y0059024D01*
X0415027Y0058901D01*
X0415001Y0058779D01*
X0414972Y0058657D01*
X0414939Y0058537D01*
X0414901Y0058418D01*
X0414861Y0058299D01*
X0414816Y0058183D01*
X0414768Y0058068D01*
X0414716Y0057954D01*
X0414660Y0057842D01*
X0414601Y0057732D01*
X0414539Y0057624D01*
X0414473Y0057517D01*
X0414404Y0057413D01*
X0414331Y0057312D01*
X0414256Y0057212D01*
X0414177Y0057115D01*
X0414095Y0057021D01*
X0414010Y0056929D01*
X0413923Y0056840D01*
X0413832Y0056754D01*
X0413739Y0056671D01*
X0413643Y0056590D01*
X0413545Y0056513D01*
X0413445Y0056439D01*
X0413342Y0056368D01*
X0413237Y0056301D01*
X0413129Y0056236D01*
X0413020Y0056176D01*
X0412909Y0056118D01*
X0412796Y0056065D01*
X0412682Y0056015D01*
X0412566Y0055968D01*
X0412449Y0055926D01*
X0412330Y0055887D01*
X0412210Y0055851D01*
X0412089Y0055820D01*
X0411967Y0055792D01*
X0411845Y0055769D01*
X0411721Y0055749D01*
X0411597Y0055733D01*
X0411473Y0055721D01*
X0411348Y0055713D01*
X0411223Y0055709D01*
X0411099Y0055709D01*
X0410974Y0055713D01*
X0410849Y0055721D01*
X0410725Y0055733D01*
X0410601Y0055749D01*
X0410477Y0055769D01*
X0410355Y0055792D01*
X0410233Y0055820D01*
X0410112Y0055851D01*
X0409992Y0055887D01*
X0409873Y0055926D01*
X0409756Y0055968D01*
X0409640Y0056015D01*
X0409526Y0056065D01*
X0409413Y0056118D01*
X0409302Y0056176D01*
X0409192Y0056236D01*
X0409085Y0056301D01*
X0408980Y0056368D01*
X0408877Y0056439D01*
X0408777Y0056513D01*
X0408679Y0056590D01*
X0408583Y0056671D01*
X0408490Y0056754D01*
X0408399Y0056840D01*
X0408312Y0056929D01*
X0408227Y0057021D01*
X0408145Y0057115D01*
X0408066Y0057212D01*
X0407991Y0057312D01*
X0407918Y0057413D01*
X0407849Y0057517D01*
X0407783Y0057624D01*
X0407721Y0057732D01*
X0407662Y0057842D01*
X0407606Y0057954D01*
X0407554Y0058068D01*
X0407506Y0058183D01*
X0407461Y0058299D01*
X0407421Y0058418D01*
X0407383Y0058537D01*
X0407350Y0058657D01*
X0407321Y0058779D01*
X0407295Y0058901D01*
X0407273Y0059024D01*
X0407256Y0059148D01*
X0407242Y0059272D01*
X0407232Y0059396D01*
X0407226Y0059521D01*
X0407224Y0059646D01*
D11*
X0511143Y0064593D03*
X0439862Y0233573D03*
X0084214Y0233792D03*
X0014587Y0065675D03*
D12*
X0124524Y0288343D03*
X0400690Y0287932D03*
X0498675Y0118690D03*
X0498675Y0104910D03*
D13*
X0475103Y0156893D03*
X0075266Y0081566D03*
X0052507Y0118128D03*
D14*
X0454922Y0199091D03*
D15*
X0497964Y0138167D03*
X0022964Y0122855D03*
D16*
X0051388Y0143700D02*
X0051390Y0143841D01*
X0051396Y0143982D01*
X0051406Y0144122D01*
X0051420Y0144262D01*
X0051438Y0144402D01*
X0051459Y0144541D01*
X0051485Y0144680D01*
X0051514Y0144818D01*
X0051548Y0144954D01*
X0051585Y0145090D01*
X0051626Y0145225D01*
X0051671Y0145359D01*
X0051720Y0145491D01*
X0051772Y0145622D01*
X0051828Y0145751D01*
X0051888Y0145878D01*
X0051951Y0146004D01*
X0052017Y0146128D01*
X0052088Y0146251D01*
X0052161Y0146371D01*
X0052238Y0146489D01*
X0052318Y0146605D01*
X0052402Y0146718D01*
X0052488Y0146829D01*
X0052578Y0146938D01*
X0052671Y0147044D01*
X0052766Y0147147D01*
X0052865Y0147248D01*
X0052966Y0147346D01*
X0053070Y0147441D01*
X0053177Y0147533D01*
X0053286Y0147622D01*
X0053398Y0147707D01*
X0053512Y0147790D01*
X0053628Y0147870D01*
X0053747Y0147946D01*
X0053868Y0148018D01*
X0053990Y0148088D01*
X0054115Y0148153D01*
X0054241Y0148216D01*
X0054369Y0148274D01*
X0054499Y0148329D01*
X0054630Y0148381D01*
X0054763Y0148428D01*
X0054897Y0148472D01*
X0055032Y0148513D01*
X0055168Y0148549D01*
X0055305Y0148581D01*
X0055443Y0148610D01*
X0055581Y0148635D01*
X0055721Y0148655D01*
X0055861Y0148672D01*
X0056001Y0148685D01*
X0056142Y0148694D01*
X0056282Y0148699D01*
X0056423Y0148700D01*
X0056564Y0148697D01*
X0056705Y0148690D01*
X0056845Y0148679D01*
X0056985Y0148664D01*
X0057125Y0148645D01*
X0057264Y0148623D01*
X0057402Y0148596D01*
X0057540Y0148566D01*
X0057676Y0148531D01*
X0057812Y0148493D01*
X0057946Y0148451D01*
X0058080Y0148405D01*
X0058212Y0148356D01*
X0058342Y0148302D01*
X0058471Y0148245D01*
X0058598Y0148185D01*
X0058724Y0148121D01*
X0058847Y0148053D01*
X0058969Y0147982D01*
X0059089Y0147908D01*
X0059206Y0147830D01*
X0059321Y0147749D01*
X0059434Y0147665D01*
X0059545Y0147578D01*
X0059653Y0147487D01*
X0059758Y0147394D01*
X0059861Y0147297D01*
X0059961Y0147198D01*
X0060058Y0147096D01*
X0060152Y0146991D01*
X0060243Y0146884D01*
X0060331Y0146774D01*
X0060416Y0146662D01*
X0060498Y0146547D01*
X0060577Y0146430D01*
X0060652Y0146311D01*
X0060724Y0146190D01*
X0060792Y0146067D01*
X0060857Y0145942D01*
X0060919Y0145815D01*
X0060976Y0145686D01*
X0061031Y0145556D01*
X0061081Y0145425D01*
X0061128Y0145292D01*
X0061171Y0145158D01*
X0061210Y0145022D01*
X0061245Y0144886D01*
X0061277Y0144749D01*
X0061304Y0144611D01*
X0061328Y0144472D01*
X0061348Y0144332D01*
X0061364Y0144192D01*
X0061376Y0144052D01*
X0061384Y0143911D01*
X0061388Y0143770D01*
X0061388Y0143630D01*
X0061384Y0143489D01*
X0061376Y0143348D01*
X0061364Y0143208D01*
X0061348Y0143068D01*
X0061328Y0142928D01*
X0061304Y0142789D01*
X0061277Y0142651D01*
X0061245Y0142514D01*
X0061210Y0142378D01*
X0061171Y0142242D01*
X0061128Y0142108D01*
X0061081Y0141975D01*
X0061031Y0141844D01*
X0060976Y0141714D01*
X0060919Y0141585D01*
X0060857Y0141458D01*
X0060792Y0141333D01*
X0060724Y0141210D01*
X0060652Y0141089D01*
X0060577Y0140970D01*
X0060498Y0140853D01*
X0060416Y0140738D01*
X0060331Y0140626D01*
X0060243Y0140516D01*
X0060152Y0140409D01*
X0060058Y0140304D01*
X0059961Y0140202D01*
X0059861Y0140103D01*
X0059758Y0140006D01*
X0059653Y0139913D01*
X0059545Y0139822D01*
X0059434Y0139735D01*
X0059321Y0139651D01*
X0059206Y0139570D01*
X0059089Y0139492D01*
X0058969Y0139418D01*
X0058847Y0139347D01*
X0058724Y0139279D01*
X0058598Y0139215D01*
X0058471Y0139155D01*
X0058342Y0139098D01*
X0058212Y0139044D01*
X0058080Y0138995D01*
X0057946Y0138949D01*
X0057812Y0138907D01*
X0057676Y0138869D01*
X0057540Y0138834D01*
X0057402Y0138804D01*
X0057264Y0138777D01*
X0057125Y0138755D01*
X0056985Y0138736D01*
X0056845Y0138721D01*
X0056705Y0138710D01*
X0056564Y0138703D01*
X0056423Y0138700D01*
X0056282Y0138701D01*
X0056142Y0138706D01*
X0056001Y0138715D01*
X0055861Y0138728D01*
X0055721Y0138745D01*
X0055581Y0138765D01*
X0055443Y0138790D01*
X0055305Y0138819D01*
X0055168Y0138851D01*
X0055032Y0138887D01*
X0054897Y0138928D01*
X0054763Y0138972D01*
X0054630Y0139019D01*
X0054499Y0139071D01*
X0054369Y0139126D01*
X0054241Y0139184D01*
X0054115Y0139247D01*
X0053990Y0139312D01*
X0053868Y0139382D01*
X0053747Y0139454D01*
X0053628Y0139530D01*
X0053512Y0139610D01*
X0053398Y0139693D01*
X0053286Y0139778D01*
X0053177Y0139867D01*
X0053070Y0139959D01*
X0052966Y0140054D01*
X0052865Y0140152D01*
X0052766Y0140253D01*
X0052671Y0140356D01*
X0052578Y0140462D01*
X0052488Y0140571D01*
X0052402Y0140682D01*
X0052318Y0140795D01*
X0052238Y0140911D01*
X0052161Y0141029D01*
X0052088Y0141149D01*
X0052017Y0141272D01*
X0051951Y0141396D01*
X0051888Y0141522D01*
X0051828Y0141649D01*
X0051772Y0141778D01*
X0051720Y0141909D01*
X0051671Y0142041D01*
X0051626Y0142175D01*
X0051585Y0142310D01*
X0051548Y0142446D01*
X0051514Y0142582D01*
X0051485Y0142720D01*
X0051459Y0142859D01*
X0051438Y0142998D01*
X0051420Y0143138D01*
X0051406Y0143278D01*
X0051396Y0143418D01*
X0051390Y0143559D01*
X0051388Y0143700D01*
X0019950Y0174116D02*
X0019952Y0174257D01*
X0019958Y0174398D01*
X0019968Y0174538D01*
X0019982Y0174678D01*
X0020000Y0174818D01*
X0020021Y0174957D01*
X0020047Y0175096D01*
X0020076Y0175234D01*
X0020110Y0175370D01*
X0020147Y0175506D01*
X0020188Y0175641D01*
X0020233Y0175775D01*
X0020282Y0175907D01*
X0020334Y0176038D01*
X0020390Y0176167D01*
X0020450Y0176294D01*
X0020513Y0176420D01*
X0020579Y0176544D01*
X0020650Y0176667D01*
X0020723Y0176787D01*
X0020800Y0176905D01*
X0020880Y0177021D01*
X0020964Y0177134D01*
X0021050Y0177245D01*
X0021140Y0177354D01*
X0021233Y0177460D01*
X0021328Y0177563D01*
X0021427Y0177664D01*
X0021528Y0177762D01*
X0021632Y0177857D01*
X0021739Y0177949D01*
X0021848Y0178038D01*
X0021960Y0178123D01*
X0022074Y0178206D01*
X0022190Y0178286D01*
X0022309Y0178362D01*
X0022430Y0178434D01*
X0022552Y0178504D01*
X0022677Y0178569D01*
X0022803Y0178632D01*
X0022931Y0178690D01*
X0023061Y0178745D01*
X0023192Y0178797D01*
X0023325Y0178844D01*
X0023459Y0178888D01*
X0023594Y0178929D01*
X0023730Y0178965D01*
X0023867Y0178997D01*
X0024005Y0179026D01*
X0024143Y0179051D01*
X0024283Y0179071D01*
X0024423Y0179088D01*
X0024563Y0179101D01*
X0024704Y0179110D01*
X0024844Y0179115D01*
X0024985Y0179116D01*
X0025126Y0179113D01*
X0025267Y0179106D01*
X0025407Y0179095D01*
X0025547Y0179080D01*
X0025687Y0179061D01*
X0025826Y0179039D01*
X0025964Y0179012D01*
X0026102Y0178982D01*
X0026238Y0178947D01*
X0026374Y0178909D01*
X0026508Y0178867D01*
X0026642Y0178821D01*
X0026774Y0178772D01*
X0026904Y0178718D01*
X0027033Y0178661D01*
X0027160Y0178601D01*
X0027286Y0178537D01*
X0027409Y0178469D01*
X0027531Y0178398D01*
X0027651Y0178324D01*
X0027768Y0178246D01*
X0027883Y0178165D01*
X0027996Y0178081D01*
X0028107Y0177994D01*
X0028215Y0177903D01*
X0028320Y0177810D01*
X0028423Y0177713D01*
X0028523Y0177614D01*
X0028620Y0177512D01*
X0028714Y0177407D01*
X0028805Y0177300D01*
X0028893Y0177190D01*
X0028978Y0177078D01*
X0029060Y0176963D01*
X0029139Y0176846D01*
X0029214Y0176727D01*
X0029286Y0176606D01*
X0029354Y0176483D01*
X0029419Y0176358D01*
X0029481Y0176231D01*
X0029538Y0176102D01*
X0029593Y0175972D01*
X0029643Y0175841D01*
X0029690Y0175708D01*
X0029733Y0175574D01*
X0029772Y0175438D01*
X0029807Y0175302D01*
X0029839Y0175165D01*
X0029866Y0175027D01*
X0029890Y0174888D01*
X0029910Y0174748D01*
X0029926Y0174608D01*
X0029938Y0174468D01*
X0029946Y0174327D01*
X0029950Y0174186D01*
X0029950Y0174046D01*
X0029946Y0173905D01*
X0029938Y0173764D01*
X0029926Y0173624D01*
X0029910Y0173484D01*
X0029890Y0173344D01*
X0029866Y0173205D01*
X0029839Y0173067D01*
X0029807Y0172930D01*
X0029772Y0172794D01*
X0029733Y0172658D01*
X0029690Y0172524D01*
X0029643Y0172391D01*
X0029593Y0172260D01*
X0029538Y0172130D01*
X0029481Y0172001D01*
X0029419Y0171874D01*
X0029354Y0171749D01*
X0029286Y0171626D01*
X0029214Y0171505D01*
X0029139Y0171386D01*
X0029060Y0171269D01*
X0028978Y0171154D01*
X0028893Y0171042D01*
X0028805Y0170932D01*
X0028714Y0170825D01*
X0028620Y0170720D01*
X0028523Y0170618D01*
X0028423Y0170519D01*
X0028320Y0170422D01*
X0028215Y0170329D01*
X0028107Y0170238D01*
X0027996Y0170151D01*
X0027883Y0170067D01*
X0027768Y0169986D01*
X0027651Y0169908D01*
X0027531Y0169834D01*
X0027409Y0169763D01*
X0027286Y0169695D01*
X0027160Y0169631D01*
X0027033Y0169571D01*
X0026904Y0169514D01*
X0026774Y0169460D01*
X0026642Y0169411D01*
X0026508Y0169365D01*
X0026374Y0169323D01*
X0026238Y0169285D01*
X0026102Y0169250D01*
X0025964Y0169220D01*
X0025826Y0169193D01*
X0025687Y0169171D01*
X0025547Y0169152D01*
X0025407Y0169137D01*
X0025267Y0169126D01*
X0025126Y0169119D01*
X0024985Y0169116D01*
X0024844Y0169117D01*
X0024704Y0169122D01*
X0024563Y0169131D01*
X0024423Y0169144D01*
X0024283Y0169161D01*
X0024143Y0169181D01*
X0024005Y0169206D01*
X0023867Y0169235D01*
X0023730Y0169267D01*
X0023594Y0169303D01*
X0023459Y0169344D01*
X0023325Y0169388D01*
X0023192Y0169435D01*
X0023061Y0169487D01*
X0022931Y0169542D01*
X0022803Y0169600D01*
X0022677Y0169663D01*
X0022552Y0169728D01*
X0022430Y0169798D01*
X0022309Y0169870D01*
X0022190Y0169946D01*
X0022074Y0170026D01*
X0021960Y0170109D01*
X0021848Y0170194D01*
X0021739Y0170283D01*
X0021632Y0170375D01*
X0021528Y0170470D01*
X0021427Y0170568D01*
X0021328Y0170669D01*
X0021233Y0170772D01*
X0021140Y0170878D01*
X0021050Y0170987D01*
X0020964Y0171098D01*
X0020880Y0171211D01*
X0020800Y0171327D01*
X0020723Y0171445D01*
X0020650Y0171565D01*
X0020579Y0171688D01*
X0020513Y0171812D01*
X0020450Y0171938D01*
X0020390Y0172065D01*
X0020334Y0172194D01*
X0020282Y0172325D01*
X0020233Y0172457D01*
X0020188Y0172591D01*
X0020147Y0172726D01*
X0020110Y0172862D01*
X0020076Y0172998D01*
X0020047Y0173136D01*
X0020021Y0173275D01*
X0020000Y0173414D01*
X0019982Y0173554D01*
X0019968Y0173694D01*
X0019958Y0173834D01*
X0019952Y0173975D01*
X0019950Y0174116D01*
X0051623Y0206119D02*
X0051625Y0206260D01*
X0051631Y0206401D01*
X0051641Y0206541D01*
X0051655Y0206681D01*
X0051673Y0206821D01*
X0051694Y0206960D01*
X0051720Y0207099D01*
X0051749Y0207237D01*
X0051783Y0207373D01*
X0051820Y0207509D01*
X0051861Y0207644D01*
X0051906Y0207778D01*
X0051955Y0207910D01*
X0052007Y0208041D01*
X0052063Y0208170D01*
X0052123Y0208297D01*
X0052186Y0208423D01*
X0052252Y0208547D01*
X0052323Y0208670D01*
X0052396Y0208790D01*
X0052473Y0208908D01*
X0052553Y0209024D01*
X0052637Y0209137D01*
X0052723Y0209248D01*
X0052813Y0209357D01*
X0052906Y0209463D01*
X0053001Y0209566D01*
X0053100Y0209667D01*
X0053201Y0209765D01*
X0053305Y0209860D01*
X0053412Y0209952D01*
X0053521Y0210041D01*
X0053633Y0210126D01*
X0053747Y0210209D01*
X0053863Y0210289D01*
X0053982Y0210365D01*
X0054103Y0210437D01*
X0054225Y0210507D01*
X0054350Y0210572D01*
X0054476Y0210635D01*
X0054604Y0210693D01*
X0054734Y0210748D01*
X0054865Y0210800D01*
X0054998Y0210847D01*
X0055132Y0210891D01*
X0055267Y0210932D01*
X0055403Y0210968D01*
X0055540Y0211000D01*
X0055678Y0211029D01*
X0055816Y0211054D01*
X0055956Y0211074D01*
X0056096Y0211091D01*
X0056236Y0211104D01*
X0056377Y0211113D01*
X0056517Y0211118D01*
X0056658Y0211119D01*
X0056799Y0211116D01*
X0056940Y0211109D01*
X0057080Y0211098D01*
X0057220Y0211083D01*
X0057360Y0211064D01*
X0057499Y0211042D01*
X0057637Y0211015D01*
X0057775Y0210985D01*
X0057911Y0210950D01*
X0058047Y0210912D01*
X0058181Y0210870D01*
X0058315Y0210824D01*
X0058447Y0210775D01*
X0058577Y0210721D01*
X0058706Y0210664D01*
X0058833Y0210604D01*
X0058959Y0210540D01*
X0059082Y0210472D01*
X0059204Y0210401D01*
X0059324Y0210327D01*
X0059441Y0210249D01*
X0059556Y0210168D01*
X0059669Y0210084D01*
X0059780Y0209997D01*
X0059888Y0209906D01*
X0059993Y0209813D01*
X0060096Y0209716D01*
X0060196Y0209617D01*
X0060293Y0209515D01*
X0060387Y0209410D01*
X0060478Y0209303D01*
X0060566Y0209193D01*
X0060651Y0209081D01*
X0060733Y0208966D01*
X0060812Y0208849D01*
X0060887Y0208730D01*
X0060959Y0208609D01*
X0061027Y0208486D01*
X0061092Y0208361D01*
X0061154Y0208234D01*
X0061211Y0208105D01*
X0061266Y0207975D01*
X0061316Y0207844D01*
X0061363Y0207711D01*
X0061406Y0207577D01*
X0061445Y0207441D01*
X0061480Y0207305D01*
X0061512Y0207168D01*
X0061539Y0207030D01*
X0061563Y0206891D01*
X0061583Y0206751D01*
X0061599Y0206611D01*
X0061611Y0206471D01*
X0061619Y0206330D01*
X0061623Y0206189D01*
X0061623Y0206049D01*
X0061619Y0205908D01*
X0061611Y0205767D01*
X0061599Y0205627D01*
X0061583Y0205487D01*
X0061563Y0205347D01*
X0061539Y0205208D01*
X0061512Y0205070D01*
X0061480Y0204933D01*
X0061445Y0204797D01*
X0061406Y0204661D01*
X0061363Y0204527D01*
X0061316Y0204394D01*
X0061266Y0204263D01*
X0061211Y0204133D01*
X0061154Y0204004D01*
X0061092Y0203877D01*
X0061027Y0203752D01*
X0060959Y0203629D01*
X0060887Y0203508D01*
X0060812Y0203389D01*
X0060733Y0203272D01*
X0060651Y0203157D01*
X0060566Y0203045D01*
X0060478Y0202935D01*
X0060387Y0202828D01*
X0060293Y0202723D01*
X0060196Y0202621D01*
X0060096Y0202522D01*
X0059993Y0202425D01*
X0059888Y0202332D01*
X0059780Y0202241D01*
X0059669Y0202154D01*
X0059556Y0202070D01*
X0059441Y0201989D01*
X0059324Y0201911D01*
X0059204Y0201837D01*
X0059082Y0201766D01*
X0058959Y0201698D01*
X0058833Y0201634D01*
X0058706Y0201574D01*
X0058577Y0201517D01*
X0058447Y0201463D01*
X0058315Y0201414D01*
X0058181Y0201368D01*
X0058047Y0201326D01*
X0057911Y0201288D01*
X0057775Y0201253D01*
X0057637Y0201223D01*
X0057499Y0201196D01*
X0057360Y0201174D01*
X0057220Y0201155D01*
X0057080Y0201140D01*
X0056940Y0201129D01*
X0056799Y0201122D01*
X0056658Y0201119D01*
X0056517Y0201120D01*
X0056377Y0201125D01*
X0056236Y0201134D01*
X0056096Y0201147D01*
X0055956Y0201164D01*
X0055816Y0201184D01*
X0055678Y0201209D01*
X0055540Y0201238D01*
X0055403Y0201270D01*
X0055267Y0201306D01*
X0055132Y0201347D01*
X0054998Y0201391D01*
X0054865Y0201438D01*
X0054734Y0201490D01*
X0054604Y0201545D01*
X0054476Y0201603D01*
X0054350Y0201666D01*
X0054225Y0201731D01*
X0054103Y0201801D01*
X0053982Y0201873D01*
X0053863Y0201949D01*
X0053747Y0202029D01*
X0053633Y0202112D01*
X0053521Y0202197D01*
X0053412Y0202286D01*
X0053305Y0202378D01*
X0053201Y0202473D01*
X0053100Y0202571D01*
X0053001Y0202672D01*
X0052906Y0202775D01*
X0052813Y0202881D01*
X0052723Y0202990D01*
X0052637Y0203101D01*
X0052553Y0203214D01*
X0052473Y0203330D01*
X0052396Y0203448D01*
X0052323Y0203568D01*
X0052252Y0203691D01*
X0052186Y0203815D01*
X0052123Y0203941D01*
X0052063Y0204068D01*
X0052007Y0204197D01*
X0051955Y0204328D01*
X0051906Y0204460D01*
X0051861Y0204594D01*
X0051820Y0204729D01*
X0051783Y0204865D01*
X0051749Y0205001D01*
X0051720Y0205139D01*
X0051694Y0205278D01*
X0051673Y0205417D01*
X0051655Y0205557D01*
X0051641Y0205697D01*
X0051631Y0205837D01*
X0051625Y0205978D01*
X0051623Y0206119D01*
X0082948Y0174965D02*
X0082950Y0175106D01*
X0082956Y0175247D01*
X0082966Y0175387D01*
X0082980Y0175527D01*
X0082998Y0175667D01*
X0083019Y0175806D01*
X0083045Y0175945D01*
X0083074Y0176083D01*
X0083108Y0176219D01*
X0083145Y0176355D01*
X0083186Y0176490D01*
X0083231Y0176624D01*
X0083280Y0176756D01*
X0083332Y0176887D01*
X0083388Y0177016D01*
X0083448Y0177143D01*
X0083511Y0177269D01*
X0083577Y0177393D01*
X0083648Y0177516D01*
X0083721Y0177636D01*
X0083798Y0177754D01*
X0083878Y0177870D01*
X0083962Y0177983D01*
X0084048Y0178094D01*
X0084138Y0178203D01*
X0084231Y0178309D01*
X0084326Y0178412D01*
X0084425Y0178513D01*
X0084526Y0178611D01*
X0084630Y0178706D01*
X0084737Y0178798D01*
X0084846Y0178887D01*
X0084958Y0178972D01*
X0085072Y0179055D01*
X0085188Y0179135D01*
X0085307Y0179211D01*
X0085428Y0179283D01*
X0085550Y0179353D01*
X0085675Y0179418D01*
X0085801Y0179481D01*
X0085929Y0179539D01*
X0086059Y0179594D01*
X0086190Y0179646D01*
X0086323Y0179693D01*
X0086457Y0179737D01*
X0086592Y0179778D01*
X0086728Y0179814D01*
X0086865Y0179846D01*
X0087003Y0179875D01*
X0087141Y0179900D01*
X0087281Y0179920D01*
X0087421Y0179937D01*
X0087561Y0179950D01*
X0087702Y0179959D01*
X0087842Y0179964D01*
X0087983Y0179965D01*
X0088124Y0179962D01*
X0088265Y0179955D01*
X0088405Y0179944D01*
X0088545Y0179929D01*
X0088685Y0179910D01*
X0088824Y0179888D01*
X0088962Y0179861D01*
X0089100Y0179831D01*
X0089236Y0179796D01*
X0089372Y0179758D01*
X0089506Y0179716D01*
X0089640Y0179670D01*
X0089772Y0179621D01*
X0089902Y0179567D01*
X0090031Y0179510D01*
X0090158Y0179450D01*
X0090284Y0179386D01*
X0090407Y0179318D01*
X0090529Y0179247D01*
X0090649Y0179173D01*
X0090766Y0179095D01*
X0090881Y0179014D01*
X0090994Y0178930D01*
X0091105Y0178843D01*
X0091213Y0178752D01*
X0091318Y0178659D01*
X0091421Y0178562D01*
X0091521Y0178463D01*
X0091618Y0178361D01*
X0091712Y0178256D01*
X0091803Y0178149D01*
X0091891Y0178039D01*
X0091976Y0177927D01*
X0092058Y0177812D01*
X0092137Y0177695D01*
X0092212Y0177576D01*
X0092284Y0177455D01*
X0092352Y0177332D01*
X0092417Y0177207D01*
X0092479Y0177080D01*
X0092536Y0176951D01*
X0092591Y0176821D01*
X0092641Y0176690D01*
X0092688Y0176557D01*
X0092731Y0176423D01*
X0092770Y0176287D01*
X0092805Y0176151D01*
X0092837Y0176014D01*
X0092864Y0175876D01*
X0092888Y0175737D01*
X0092908Y0175597D01*
X0092924Y0175457D01*
X0092936Y0175317D01*
X0092944Y0175176D01*
X0092948Y0175035D01*
X0092948Y0174895D01*
X0092944Y0174754D01*
X0092936Y0174613D01*
X0092924Y0174473D01*
X0092908Y0174333D01*
X0092888Y0174193D01*
X0092864Y0174054D01*
X0092837Y0173916D01*
X0092805Y0173779D01*
X0092770Y0173643D01*
X0092731Y0173507D01*
X0092688Y0173373D01*
X0092641Y0173240D01*
X0092591Y0173109D01*
X0092536Y0172979D01*
X0092479Y0172850D01*
X0092417Y0172723D01*
X0092352Y0172598D01*
X0092284Y0172475D01*
X0092212Y0172354D01*
X0092137Y0172235D01*
X0092058Y0172118D01*
X0091976Y0172003D01*
X0091891Y0171891D01*
X0091803Y0171781D01*
X0091712Y0171674D01*
X0091618Y0171569D01*
X0091521Y0171467D01*
X0091421Y0171368D01*
X0091318Y0171271D01*
X0091213Y0171178D01*
X0091105Y0171087D01*
X0090994Y0171000D01*
X0090881Y0170916D01*
X0090766Y0170835D01*
X0090649Y0170757D01*
X0090529Y0170683D01*
X0090407Y0170612D01*
X0090284Y0170544D01*
X0090158Y0170480D01*
X0090031Y0170420D01*
X0089902Y0170363D01*
X0089772Y0170309D01*
X0089640Y0170260D01*
X0089506Y0170214D01*
X0089372Y0170172D01*
X0089236Y0170134D01*
X0089100Y0170099D01*
X0088962Y0170069D01*
X0088824Y0170042D01*
X0088685Y0170020D01*
X0088545Y0170001D01*
X0088405Y0169986D01*
X0088265Y0169975D01*
X0088124Y0169968D01*
X0087983Y0169965D01*
X0087842Y0169966D01*
X0087702Y0169971D01*
X0087561Y0169980D01*
X0087421Y0169993D01*
X0087281Y0170010D01*
X0087141Y0170030D01*
X0087003Y0170055D01*
X0086865Y0170084D01*
X0086728Y0170116D01*
X0086592Y0170152D01*
X0086457Y0170193D01*
X0086323Y0170237D01*
X0086190Y0170284D01*
X0086059Y0170336D01*
X0085929Y0170391D01*
X0085801Y0170449D01*
X0085675Y0170512D01*
X0085550Y0170577D01*
X0085428Y0170647D01*
X0085307Y0170719D01*
X0085188Y0170795D01*
X0085072Y0170875D01*
X0084958Y0170958D01*
X0084846Y0171043D01*
X0084737Y0171132D01*
X0084630Y0171224D01*
X0084526Y0171319D01*
X0084425Y0171417D01*
X0084326Y0171518D01*
X0084231Y0171621D01*
X0084138Y0171727D01*
X0084048Y0171836D01*
X0083962Y0171947D01*
X0083878Y0172060D01*
X0083798Y0172176D01*
X0083721Y0172294D01*
X0083648Y0172414D01*
X0083577Y0172537D01*
X0083511Y0172661D01*
X0083448Y0172787D01*
X0083388Y0172914D01*
X0083332Y0173043D01*
X0083280Y0173174D01*
X0083231Y0173306D01*
X0083186Y0173440D01*
X0083145Y0173575D01*
X0083108Y0173711D01*
X0083074Y0173847D01*
X0083045Y0173985D01*
X0083019Y0174124D01*
X0082998Y0174263D01*
X0082980Y0174403D01*
X0082966Y0174543D01*
X0082956Y0174683D01*
X0082950Y0174824D01*
X0082948Y0174965D01*
X0438780Y0167449D02*
X0438782Y0167590D01*
X0438788Y0167731D01*
X0438798Y0167871D01*
X0438812Y0168011D01*
X0438830Y0168151D01*
X0438851Y0168290D01*
X0438877Y0168429D01*
X0438906Y0168567D01*
X0438940Y0168703D01*
X0438977Y0168839D01*
X0439018Y0168974D01*
X0439063Y0169108D01*
X0439112Y0169240D01*
X0439164Y0169371D01*
X0439220Y0169500D01*
X0439280Y0169627D01*
X0439343Y0169753D01*
X0439409Y0169877D01*
X0439480Y0170000D01*
X0439553Y0170120D01*
X0439630Y0170238D01*
X0439710Y0170354D01*
X0439794Y0170467D01*
X0439880Y0170578D01*
X0439970Y0170687D01*
X0440063Y0170793D01*
X0440158Y0170896D01*
X0440257Y0170997D01*
X0440358Y0171095D01*
X0440462Y0171190D01*
X0440569Y0171282D01*
X0440678Y0171371D01*
X0440790Y0171456D01*
X0440904Y0171539D01*
X0441020Y0171619D01*
X0441139Y0171695D01*
X0441260Y0171767D01*
X0441382Y0171837D01*
X0441507Y0171902D01*
X0441633Y0171965D01*
X0441761Y0172023D01*
X0441891Y0172078D01*
X0442022Y0172130D01*
X0442155Y0172177D01*
X0442289Y0172221D01*
X0442424Y0172262D01*
X0442560Y0172298D01*
X0442697Y0172330D01*
X0442835Y0172359D01*
X0442973Y0172384D01*
X0443113Y0172404D01*
X0443253Y0172421D01*
X0443393Y0172434D01*
X0443534Y0172443D01*
X0443674Y0172448D01*
X0443815Y0172449D01*
X0443956Y0172446D01*
X0444097Y0172439D01*
X0444237Y0172428D01*
X0444377Y0172413D01*
X0444517Y0172394D01*
X0444656Y0172372D01*
X0444794Y0172345D01*
X0444932Y0172315D01*
X0445068Y0172280D01*
X0445204Y0172242D01*
X0445338Y0172200D01*
X0445472Y0172154D01*
X0445604Y0172105D01*
X0445734Y0172051D01*
X0445863Y0171994D01*
X0445990Y0171934D01*
X0446116Y0171870D01*
X0446239Y0171802D01*
X0446361Y0171731D01*
X0446481Y0171657D01*
X0446598Y0171579D01*
X0446713Y0171498D01*
X0446826Y0171414D01*
X0446937Y0171327D01*
X0447045Y0171236D01*
X0447150Y0171143D01*
X0447253Y0171046D01*
X0447353Y0170947D01*
X0447450Y0170845D01*
X0447544Y0170740D01*
X0447635Y0170633D01*
X0447723Y0170523D01*
X0447808Y0170411D01*
X0447890Y0170296D01*
X0447969Y0170179D01*
X0448044Y0170060D01*
X0448116Y0169939D01*
X0448184Y0169816D01*
X0448249Y0169691D01*
X0448311Y0169564D01*
X0448368Y0169435D01*
X0448423Y0169305D01*
X0448473Y0169174D01*
X0448520Y0169041D01*
X0448563Y0168907D01*
X0448602Y0168771D01*
X0448637Y0168635D01*
X0448669Y0168498D01*
X0448696Y0168360D01*
X0448720Y0168221D01*
X0448740Y0168081D01*
X0448756Y0167941D01*
X0448768Y0167801D01*
X0448776Y0167660D01*
X0448780Y0167519D01*
X0448780Y0167379D01*
X0448776Y0167238D01*
X0448768Y0167097D01*
X0448756Y0166957D01*
X0448740Y0166817D01*
X0448720Y0166677D01*
X0448696Y0166538D01*
X0448669Y0166400D01*
X0448637Y0166263D01*
X0448602Y0166127D01*
X0448563Y0165991D01*
X0448520Y0165857D01*
X0448473Y0165724D01*
X0448423Y0165593D01*
X0448368Y0165463D01*
X0448311Y0165334D01*
X0448249Y0165207D01*
X0448184Y0165082D01*
X0448116Y0164959D01*
X0448044Y0164838D01*
X0447969Y0164719D01*
X0447890Y0164602D01*
X0447808Y0164487D01*
X0447723Y0164375D01*
X0447635Y0164265D01*
X0447544Y0164158D01*
X0447450Y0164053D01*
X0447353Y0163951D01*
X0447253Y0163852D01*
X0447150Y0163755D01*
X0447045Y0163662D01*
X0446937Y0163571D01*
X0446826Y0163484D01*
X0446713Y0163400D01*
X0446598Y0163319D01*
X0446481Y0163241D01*
X0446361Y0163167D01*
X0446239Y0163096D01*
X0446116Y0163028D01*
X0445990Y0162964D01*
X0445863Y0162904D01*
X0445734Y0162847D01*
X0445604Y0162793D01*
X0445472Y0162744D01*
X0445338Y0162698D01*
X0445204Y0162656D01*
X0445068Y0162618D01*
X0444932Y0162583D01*
X0444794Y0162553D01*
X0444656Y0162526D01*
X0444517Y0162504D01*
X0444377Y0162485D01*
X0444237Y0162470D01*
X0444097Y0162459D01*
X0443956Y0162452D01*
X0443815Y0162449D01*
X0443674Y0162450D01*
X0443534Y0162455D01*
X0443393Y0162464D01*
X0443253Y0162477D01*
X0443113Y0162494D01*
X0442973Y0162514D01*
X0442835Y0162539D01*
X0442697Y0162568D01*
X0442560Y0162600D01*
X0442424Y0162636D01*
X0442289Y0162677D01*
X0442155Y0162721D01*
X0442022Y0162768D01*
X0441891Y0162820D01*
X0441761Y0162875D01*
X0441633Y0162933D01*
X0441507Y0162996D01*
X0441382Y0163061D01*
X0441260Y0163131D01*
X0441139Y0163203D01*
X0441020Y0163279D01*
X0440904Y0163359D01*
X0440790Y0163442D01*
X0440678Y0163527D01*
X0440569Y0163616D01*
X0440462Y0163708D01*
X0440358Y0163803D01*
X0440257Y0163901D01*
X0440158Y0164002D01*
X0440063Y0164105D01*
X0439970Y0164211D01*
X0439880Y0164320D01*
X0439794Y0164431D01*
X0439710Y0164544D01*
X0439630Y0164660D01*
X0439553Y0164778D01*
X0439480Y0164898D01*
X0439409Y0165021D01*
X0439343Y0165145D01*
X0439280Y0165271D01*
X0439220Y0165398D01*
X0439164Y0165527D01*
X0439112Y0165658D01*
X0439063Y0165790D01*
X0439018Y0165924D01*
X0438977Y0166059D01*
X0438940Y0166195D01*
X0438906Y0166331D01*
X0438877Y0166469D01*
X0438851Y0166608D01*
X0438830Y0166747D01*
X0438812Y0166887D01*
X0438798Y0167027D01*
X0438788Y0167167D01*
X0438782Y0167308D01*
X0438780Y0167449D01*
X0488958Y0184703D02*
X0488960Y0184844D01*
X0488966Y0184985D01*
X0488976Y0185125D01*
X0488990Y0185265D01*
X0489008Y0185405D01*
X0489029Y0185544D01*
X0489055Y0185683D01*
X0489084Y0185821D01*
X0489118Y0185957D01*
X0489155Y0186093D01*
X0489196Y0186228D01*
X0489241Y0186362D01*
X0489290Y0186494D01*
X0489342Y0186625D01*
X0489398Y0186754D01*
X0489458Y0186881D01*
X0489521Y0187007D01*
X0489587Y0187131D01*
X0489658Y0187254D01*
X0489731Y0187374D01*
X0489808Y0187492D01*
X0489888Y0187608D01*
X0489972Y0187721D01*
X0490058Y0187832D01*
X0490148Y0187941D01*
X0490241Y0188047D01*
X0490336Y0188150D01*
X0490435Y0188251D01*
X0490536Y0188349D01*
X0490640Y0188444D01*
X0490747Y0188536D01*
X0490856Y0188625D01*
X0490968Y0188710D01*
X0491082Y0188793D01*
X0491198Y0188873D01*
X0491317Y0188949D01*
X0491438Y0189021D01*
X0491560Y0189091D01*
X0491685Y0189156D01*
X0491811Y0189219D01*
X0491939Y0189277D01*
X0492069Y0189332D01*
X0492200Y0189384D01*
X0492333Y0189431D01*
X0492467Y0189475D01*
X0492602Y0189516D01*
X0492738Y0189552D01*
X0492875Y0189584D01*
X0493013Y0189613D01*
X0493151Y0189638D01*
X0493291Y0189658D01*
X0493431Y0189675D01*
X0493571Y0189688D01*
X0493712Y0189697D01*
X0493852Y0189702D01*
X0493993Y0189703D01*
X0494134Y0189700D01*
X0494275Y0189693D01*
X0494415Y0189682D01*
X0494555Y0189667D01*
X0494695Y0189648D01*
X0494834Y0189626D01*
X0494972Y0189599D01*
X0495110Y0189569D01*
X0495246Y0189534D01*
X0495382Y0189496D01*
X0495516Y0189454D01*
X0495650Y0189408D01*
X0495782Y0189359D01*
X0495912Y0189305D01*
X0496041Y0189248D01*
X0496168Y0189188D01*
X0496294Y0189124D01*
X0496417Y0189056D01*
X0496539Y0188985D01*
X0496659Y0188911D01*
X0496776Y0188833D01*
X0496891Y0188752D01*
X0497004Y0188668D01*
X0497115Y0188581D01*
X0497223Y0188490D01*
X0497328Y0188397D01*
X0497431Y0188300D01*
X0497531Y0188201D01*
X0497628Y0188099D01*
X0497722Y0187994D01*
X0497813Y0187887D01*
X0497901Y0187777D01*
X0497986Y0187665D01*
X0498068Y0187550D01*
X0498147Y0187433D01*
X0498222Y0187314D01*
X0498294Y0187193D01*
X0498362Y0187070D01*
X0498427Y0186945D01*
X0498489Y0186818D01*
X0498546Y0186689D01*
X0498601Y0186559D01*
X0498651Y0186428D01*
X0498698Y0186295D01*
X0498741Y0186161D01*
X0498780Y0186025D01*
X0498815Y0185889D01*
X0498847Y0185752D01*
X0498874Y0185614D01*
X0498898Y0185475D01*
X0498918Y0185335D01*
X0498934Y0185195D01*
X0498946Y0185055D01*
X0498954Y0184914D01*
X0498958Y0184773D01*
X0498958Y0184633D01*
X0498954Y0184492D01*
X0498946Y0184351D01*
X0498934Y0184211D01*
X0498918Y0184071D01*
X0498898Y0183931D01*
X0498874Y0183792D01*
X0498847Y0183654D01*
X0498815Y0183517D01*
X0498780Y0183381D01*
X0498741Y0183245D01*
X0498698Y0183111D01*
X0498651Y0182978D01*
X0498601Y0182847D01*
X0498546Y0182717D01*
X0498489Y0182588D01*
X0498427Y0182461D01*
X0498362Y0182336D01*
X0498294Y0182213D01*
X0498222Y0182092D01*
X0498147Y0181973D01*
X0498068Y0181856D01*
X0497986Y0181741D01*
X0497901Y0181629D01*
X0497813Y0181519D01*
X0497722Y0181412D01*
X0497628Y0181307D01*
X0497531Y0181205D01*
X0497431Y0181106D01*
X0497328Y0181009D01*
X0497223Y0180916D01*
X0497115Y0180825D01*
X0497004Y0180738D01*
X0496891Y0180654D01*
X0496776Y0180573D01*
X0496659Y0180495D01*
X0496539Y0180421D01*
X0496417Y0180350D01*
X0496294Y0180282D01*
X0496168Y0180218D01*
X0496041Y0180158D01*
X0495912Y0180101D01*
X0495782Y0180047D01*
X0495650Y0179998D01*
X0495516Y0179952D01*
X0495382Y0179910D01*
X0495246Y0179872D01*
X0495110Y0179837D01*
X0494972Y0179807D01*
X0494834Y0179780D01*
X0494695Y0179758D01*
X0494555Y0179739D01*
X0494415Y0179724D01*
X0494275Y0179713D01*
X0494134Y0179706D01*
X0493993Y0179703D01*
X0493852Y0179704D01*
X0493712Y0179709D01*
X0493571Y0179718D01*
X0493431Y0179731D01*
X0493291Y0179748D01*
X0493151Y0179768D01*
X0493013Y0179793D01*
X0492875Y0179822D01*
X0492738Y0179854D01*
X0492602Y0179890D01*
X0492467Y0179931D01*
X0492333Y0179975D01*
X0492200Y0180022D01*
X0492069Y0180074D01*
X0491939Y0180129D01*
X0491811Y0180187D01*
X0491685Y0180250D01*
X0491560Y0180315D01*
X0491438Y0180385D01*
X0491317Y0180457D01*
X0491198Y0180533D01*
X0491082Y0180613D01*
X0490968Y0180696D01*
X0490856Y0180781D01*
X0490747Y0180870D01*
X0490640Y0180962D01*
X0490536Y0181057D01*
X0490435Y0181155D01*
X0490336Y0181256D01*
X0490241Y0181359D01*
X0490148Y0181465D01*
X0490058Y0181574D01*
X0489972Y0181685D01*
X0489888Y0181798D01*
X0489808Y0181914D01*
X0489731Y0182032D01*
X0489658Y0182152D01*
X0489587Y0182275D01*
X0489521Y0182399D01*
X0489458Y0182525D01*
X0489398Y0182652D01*
X0489342Y0182781D01*
X0489290Y0182912D01*
X0489241Y0183044D01*
X0489196Y0183178D01*
X0489155Y0183313D01*
X0489118Y0183449D01*
X0489084Y0183585D01*
X0489055Y0183723D01*
X0489029Y0183862D01*
X0489008Y0184001D01*
X0488990Y0184141D01*
X0488976Y0184281D01*
X0488966Y0184421D01*
X0488960Y0184562D01*
X0488958Y0184703D01*
D17*
X0090492Y0097505D02*
X0090494Y0097630D01*
X0090500Y0097755D01*
X0090510Y0097879D01*
X0090524Y0098003D01*
X0090541Y0098127D01*
X0090563Y0098250D01*
X0090589Y0098372D01*
X0090618Y0098494D01*
X0090651Y0098614D01*
X0090689Y0098733D01*
X0090729Y0098852D01*
X0090774Y0098968D01*
X0090822Y0099083D01*
X0090874Y0099197D01*
X0090930Y0099309D01*
X0090989Y0099419D01*
X0091051Y0099527D01*
X0091117Y0099634D01*
X0091186Y0099738D01*
X0091259Y0099839D01*
X0091334Y0099939D01*
X0091413Y0100036D01*
X0091495Y0100130D01*
X0091580Y0100222D01*
X0091667Y0100311D01*
X0091758Y0100397D01*
X0091851Y0100480D01*
X0091947Y0100561D01*
X0092045Y0100638D01*
X0092145Y0100712D01*
X0092248Y0100783D01*
X0092353Y0100850D01*
X0092461Y0100915D01*
X0092570Y0100975D01*
X0092681Y0101033D01*
X0092794Y0101086D01*
X0092908Y0101136D01*
X0093024Y0101183D01*
X0093141Y0101225D01*
X0093260Y0101264D01*
X0093380Y0101300D01*
X0093501Y0101331D01*
X0093623Y0101359D01*
X0093745Y0101382D01*
X0093869Y0101402D01*
X0093993Y0101418D01*
X0094117Y0101430D01*
X0094242Y0101438D01*
X0094367Y0101442D01*
X0094491Y0101442D01*
X0094616Y0101438D01*
X0094741Y0101430D01*
X0094865Y0101418D01*
X0094989Y0101402D01*
X0095113Y0101382D01*
X0095235Y0101359D01*
X0095357Y0101331D01*
X0095478Y0101300D01*
X0095598Y0101264D01*
X0095717Y0101225D01*
X0095834Y0101183D01*
X0095950Y0101136D01*
X0096064Y0101086D01*
X0096177Y0101033D01*
X0096288Y0100975D01*
X0096398Y0100915D01*
X0096505Y0100850D01*
X0096610Y0100783D01*
X0096713Y0100712D01*
X0096813Y0100638D01*
X0096911Y0100561D01*
X0097007Y0100480D01*
X0097100Y0100397D01*
X0097191Y0100311D01*
X0097278Y0100222D01*
X0097363Y0100130D01*
X0097445Y0100036D01*
X0097524Y0099939D01*
X0097599Y0099839D01*
X0097672Y0099738D01*
X0097741Y0099634D01*
X0097807Y0099527D01*
X0097869Y0099419D01*
X0097928Y0099309D01*
X0097984Y0099197D01*
X0098036Y0099083D01*
X0098084Y0098968D01*
X0098129Y0098852D01*
X0098169Y0098733D01*
X0098207Y0098614D01*
X0098240Y0098494D01*
X0098269Y0098372D01*
X0098295Y0098250D01*
X0098317Y0098127D01*
X0098334Y0098003D01*
X0098348Y0097879D01*
X0098358Y0097755D01*
X0098364Y0097630D01*
X0098366Y0097505D01*
X0098364Y0097380D01*
X0098358Y0097255D01*
X0098348Y0097131D01*
X0098334Y0097007D01*
X0098317Y0096883D01*
X0098295Y0096760D01*
X0098269Y0096638D01*
X0098240Y0096516D01*
X0098207Y0096396D01*
X0098169Y0096277D01*
X0098129Y0096158D01*
X0098084Y0096042D01*
X0098036Y0095927D01*
X0097984Y0095813D01*
X0097928Y0095701D01*
X0097869Y0095591D01*
X0097807Y0095483D01*
X0097741Y0095376D01*
X0097672Y0095272D01*
X0097599Y0095171D01*
X0097524Y0095071D01*
X0097445Y0094974D01*
X0097363Y0094880D01*
X0097278Y0094788D01*
X0097191Y0094699D01*
X0097100Y0094613D01*
X0097007Y0094530D01*
X0096911Y0094449D01*
X0096813Y0094372D01*
X0096713Y0094298D01*
X0096610Y0094227D01*
X0096505Y0094160D01*
X0096397Y0094095D01*
X0096288Y0094035D01*
X0096177Y0093977D01*
X0096064Y0093924D01*
X0095950Y0093874D01*
X0095834Y0093827D01*
X0095717Y0093785D01*
X0095598Y0093746D01*
X0095478Y0093710D01*
X0095357Y0093679D01*
X0095235Y0093651D01*
X0095113Y0093628D01*
X0094989Y0093608D01*
X0094865Y0093592D01*
X0094741Y0093580D01*
X0094616Y0093572D01*
X0094491Y0093568D01*
X0094367Y0093568D01*
X0094242Y0093572D01*
X0094117Y0093580D01*
X0093993Y0093592D01*
X0093869Y0093608D01*
X0093745Y0093628D01*
X0093623Y0093651D01*
X0093501Y0093679D01*
X0093380Y0093710D01*
X0093260Y0093746D01*
X0093141Y0093785D01*
X0093024Y0093827D01*
X0092908Y0093874D01*
X0092794Y0093924D01*
X0092681Y0093977D01*
X0092570Y0094035D01*
X0092460Y0094095D01*
X0092353Y0094160D01*
X0092248Y0094227D01*
X0092145Y0094298D01*
X0092045Y0094372D01*
X0091947Y0094449D01*
X0091851Y0094530D01*
X0091758Y0094613D01*
X0091667Y0094699D01*
X0091580Y0094788D01*
X0091495Y0094880D01*
X0091413Y0094974D01*
X0091334Y0095071D01*
X0091259Y0095171D01*
X0091186Y0095272D01*
X0091117Y0095376D01*
X0091051Y0095483D01*
X0090989Y0095591D01*
X0090930Y0095701D01*
X0090874Y0095813D01*
X0090822Y0095927D01*
X0090774Y0096042D01*
X0090729Y0096158D01*
X0090689Y0096277D01*
X0090651Y0096396D01*
X0090618Y0096516D01*
X0090589Y0096638D01*
X0090563Y0096760D01*
X0090541Y0096883D01*
X0090524Y0097007D01*
X0090510Y0097131D01*
X0090500Y0097255D01*
X0090494Y0097380D01*
X0090492Y0097505D01*
X0090626Y0066439D02*
X0090628Y0066564D01*
X0090634Y0066689D01*
X0090644Y0066813D01*
X0090658Y0066937D01*
X0090675Y0067061D01*
X0090697Y0067184D01*
X0090723Y0067306D01*
X0090752Y0067428D01*
X0090785Y0067548D01*
X0090823Y0067667D01*
X0090863Y0067786D01*
X0090908Y0067902D01*
X0090956Y0068017D01*
X0091008Y0068131D01*
X0091064Y0068243D01*
X0091123Y0068353D01*
X0091185Y0068461D01*
X0091251Y0068568D01*
X0091320Y0068672D01*
X0091393Y0068773D01*
X0091468Y0068873D01*
X0091547Y0068970D01*
X0091629Y0069064D01*
X0091714Y0069156D01*
X0091801Y0069245D01*
X0091892Y0069331D01*
X0091985Y0069414D01*
X0092081Y0069495D01*
X0092179Y0069572D01*
X0092279Y0069646D01*
X0092382Y0069717D01*
X0092487Y0069784D01*
X0092595Y0069849D01*
X0092704Y0069909D01*
X0092815Y0069967D01*
X0092928Y0070020D01*
X0093042Y0070070D01*
X0093158Y0070117D01*
X0093275Y0070159D01*
X0093394Y0070198D01*
X0093514Y0070234D01*
X0093635Y0070265D01*
X0093757Y0070293D01*
X0093879Y0070316D01*
X0094003Y0070336D01*
X0094127Y0070352D01*
X0094251Y0070364D01*
X0094376Y0070372D01*
X0094501Y0070376D01*
X0094625Y0070376D01*
X0094750Y0070372D01*
X0094875Y0070364D01*
X0094999Y0070352D01*
X0095123Y0070336D01*
X0095247Y0070316D01*
X0095369Y0070293D01*
X0095491Y0070265D01*
X0095612Y0070234D01*
X0095732Y0070198D01*
X0095851Y0070159D01*
X0095968Y0070117D01*
X0096084Y0070070D01*
X0096198Y0070020D01*
X0096311Y0069967D01*
X0096422Y0069909D01*
X0096532Y0069849D01*
X0096639Y0069784D01*
X0096744Y0069717D01*
X0096847Y0069646D01*
X0096947Y0069572D01*
X0097045Y0069495D01*
X0097141Y0069414D01*
X0097234Y0069331D01*
X0097325Y0069245D01*
X0097412Y0069156D01*
X0097497Y0069064D01*
X0097579Y0068970D01*
X0097658Y0068873D01*
X0097733Y0068773D01*
X0097806Y0068672D01*
X0097875Y0068568D01*
X0097941Y0068461D01*
X0098003Y0068353D01*
X0098062Y0068243D01*
X0098118Y0068131D01*
X0098170Y0068017D01*
X0098218Y0067902D01*
X0098263Y0067786D01*
X0098303Y0067667D01*
X0098341Y0067548D01*
X0098374Y0067428D01*
X0098403Y0067306D01*
X0098429Y0067184D01*
X0098451Y0067061D01*
X0098468Y0066937D01*
X0098482Y0066813D01*
X0098492Y0066689D01*
X0098498Y0066564D01*
X0098500Y0066439D01*
X0098498Y0066314D01*
X0098492Y0066189D01*
X0098482Y0066065D01*
X0098468Y0065941D01*
X0098451Y0065817D01*
X0098429Y0065694D01*
X0098403Y0065572D01*
X0098374Y0065450D01*
X0098341Y0065330D01*
X0098303Y0065211D01*
X0098263Y0065092D01*
X0098218Y0064976D01*
X0098170Y0064861D01*
X0098118Y0064747D01*
X0098062Y0064635D01*
X0098003Y0064525D01*
X0097941Y0064417D01*
X0097875Y0064310D01*
X0097806Y0064206D01*
X0097733Y0064105D01*
X0097658Y0064005D01*
X0097579Y0063908D01*
X0097497Y0063814D01*
X0097412Y0063722D01*
X0097325Y0063633D01*
X0097234Y0063547D01*
X0097141Y0063464D01*
X0097045Y0063383D01*
X0096947Y0063306D01*
X0096847Y0063232D01*
X0096744Y0063161D01*
X0096639Y0063094D01*
X0096531Y0063029D01*
X0096422Y0062969D01*
X0096311Y0062911D01*
X0096198Y0062858D01*
X0096084Y0062808D01*
X0095968Y0062761D01*
X0095851Y0062719D01*
X0095732Y0062680D01*
X0095612Y0062644D01*
X0095491Y0062613D01*
X0095369Y0062585D01*
X0095247Y0062562D01*
X0095123Y0062542D01*
X0094999Y0062526D01*
X0094875Y0062514D01*
X0094750Y0062506D01*
X0094625Y0062502D01*
X0094501Y0062502D01*
X0094376Y0062506D01*
X0094251Y0062514D01*
X0094127Y0062526D01*
X0094003Y0062542D01*
X0093879Y0062562D01*
X0093757Y0062585D01*
X0093635Y0062613D01*
X0093514Y0062644D01*
X0093394Y0062680D01*
X0093275Y0062719D01*
X0093158Y0062761D01*
X0093042Y0062808D01*
X0092928Y0062858D01*
X0092815Y0062911D01*
X0092704Y0062969D01*
X0092594Y0063029D01*
X0092487Y0063094D01*
X0092382Y0063161D01*
X0092279Y0063232D01*
X0092179Y0063306D01*
X0092081Y0063383D01*
X0091985Y0063464D01*
X0091892Y0063547D01*
X0091801Y0063633D01*
X0091714Y0063722D01*
X0091629Y0063814D01*
X0091547Y0063908D01*
X0091468Y0064005D01*
X0091393Y0064105D01*
X0091320Y0064206D01*
X0091251Y0064310D01*
X0091185Y0064417D01*
X0091123Y0064525D01*
X0091064Y0064635D01*
X0091008Y0064747D01*
X0090956Y0064861D01*
X0090908Y0064976D01*
X0090863Y0065092D01*
X0090823Y0065211D01*
X0090785Y0065330D01*
X0090752Y0065450D01*
X0090723Y0065572D01*
X0090697Y0065694D01*
X0090675Y0065817D01*
X0090658Y0065941D01*
X0090644Y0066065D01*
X0090634Y0066189D01*
X0090628Y0066314D01*
X0090626Y0066439D01*
D18*
X0171800Y0160363D03*
D19*
X0181800Y0160363D03*
X0191800Y0160363D03*
X0201800Y0160363D03*
X0211800Y0160363D03*
X0221800Y0160363D03*
X0231800Y0160363D03*
X0241800Y0160363D03*
X0251800Y0160363D03*
X0261800Y0160363D03*
X0271800Y0160363D03*
X0281800Y0160363D03*
X0291800Y0160363D03*
X0301800Y0160363D03*
X0311800Y0160363D03*
X0321800Y0160363D03*
X0331800Y0160363D03*
X0341800Y0160363D03*
X0351800Y0160363D03*
X0361800Y0160363D03*
X0361800Y0150363D03*
X0351800Y0150363D03*
X0341800Y0150363D03*
X0331800Y0150363D03*
X0321800Y0150363D03*
X0311800Y0150363D03*
X0301800Y0150363D03*
X0291800Y0150363D03*
X0281800Y0150363D03*
X0271800Y0150363D03*
X0261800Y0150363D03*
X0251800Y0150363D03*
X0241800Y0150363D03*
X0231800Y0150363D03*
X0221800Y0150363D03*
X0211800Y0150363D03*
X0201800Y0150363D03*
X0191800Y0150363D03*
X0181800Y0150363D03*
X0171800Y0150363D03*
D20*
X0135924Y0087469D02*
X0120176Y0087469D01*
X0120176Y0081564D01*
X0135924Y0081564D01*
X0135924Y0087469D01*
X0131987Y0077627D02*
X0120176Y0077627D01*
X0120176Y0071721D01*
X0131987Y0071721D01*
X0131987Y0077627D01*
X0135924Y0062863D02*
X0120176Y0062863D01*
X0120176Y0056957D01*
X0135924Y0056957D01*
X0135924Y0062863D01*
X0135924Y0053020D02*
X0124113Y0053020D01*
X0124113Y0047115D01*
X0135924Y0047115D01*
X0135924Y0053020D01*
X0046446Y0227645D02*
X0035784Y0225765D01*
X0033220Y0240305D01*
X0043882Y0242185D01*
X0046446Y0227645D01*
X0478121Y0226759D02*
X0488784Y0224879D01*
X0491347Y0239418D01*
X0480685Y0241298D01*
X0478121Y0226759D01*
D21*
X0464028Y0229569D02*
X0463220Y0230377D01*
X0465413Y0231913D01*
X0468047Y0231448D01*
X0469583Y0229255D01*
X0469118Y0226621D01*
X0466925Y0225085D01*
X0464291Y0225550D01*
X0462755Y0227743D01*
X0463220Y0230377D01*
X0464326Y0229672D01*
X0465697Y0230632D01*
X0467342Y0230342D01*
X0468302Y0228971D01*
X0468012Y0227326D01*
X0466641Y0226366D01*
X0464996Y0226656D01*
X0464036Y0228027D01*
X0464326Y0229672D01*
X0465433Y0228968D01*
X0465981Y0229351D01*
X0466638Y0229235D01*
X0467021Y0228687D01*
X0466905Y0228030D01*
X0466357Y0227647D01*
X0465700Y0227763D01*
X0465317Y0228311D01*
X0465433Y0228968D01*
X0469855Y0237518D02*
X0470663Y0236710D01*
X0468470Y0235174D01*
X0465836Y0235639D01*
X0464300Y0237832D01*
X0464765Y0240466D01*
X0466958Y0242002D01*
X0469592Y0241537D01*
X0471128Y0239344D01*
X0470663Y0236710D01*
X0469557Y0237415D01*
X0468186Y0236455D01*
X0466541Y0236745D01*
X0465581Y0238116D01*
X0465871Y0239761D01*
X0467242Y0240721D01*
X0468887Y0240431D01*
X0469847Y0239060D01*
X0469557Y0237415D01*
X0468450Y0238119D01*
X0467902Y0237736D01*
X0467245Y0237852D01*
X0466862Y0238400D01*
X0466978Y0239057D01*
X0467526Y0239440D01*
X0468183Y0239324D01*
X0468566Y0238776D01*
X0468450Y0238119D01*
X0498923Y0223416D02*
X0498115Y0224224D01*
X0500308Y0225760D01*
X0502942Y0225295D01*
X0504478Y0223102D01*
X0504013Y0220468D01*
X0501820Y0218932D01*
X0499186Y0219397D01*
X0497650Y0221590D01*
X0498115Y0224224D01*
X0499221Y0223519D01*
X0500592Y0224479D01*
X0502237Y0224189D01*
X0503197Y0222818D01*
X0502907Y0221173D01*
X0501536Y0220213D01*
X0499891Y0220503D01*
X0498931Y0221874D01*
X0499221Y0223519D01*
X0500328Y0222815D01*
X0500876Y0223198D01*
X0501533Y0223082D01*
X0501916Y0222534D01*
X0501800Y0221877D01*
X0501252Y0221494D01*
X0500595Y0221610D01*
X0500212Y0222158D01*
X0500328Y0222815D01*
X0504750Y0231365D02*
X0505558Y0230557D01*
X0503365Y0229021D01*
X0500731Y0229486D01*
X0499195Y0231679D01*
X0499660Y0234313D01*
X0501853Y0235849D01*
X0504487Y0235384D01*
X0506023Y0233191D01*
X0505558Y0230557D01*
X0504452Y0231262D01*
X0503081Y0230302D01*
X0501436Y0230592D01*
X0500476Y0231963D01*
X0500766Y0233608D01*
X0502137Y0234568D01*
X0503782Y0234278D01*
X0504742Y0232907D01*
X0504452Y0231262D01*
X0503345Y0231966D01*
X0502797Y0231583D01*
X0502140Y0231699D01*
X0501757Y0232247D01*
X0501873Y0232904D01*
X0502421Y0233287D01*
X0503078Y0233171D01*
X0503461Y0232623D01*
X0503345Y0231966D01*
X0055825Y0229447D02*
X0055017Y0230255D01*
X0056553Y0232448D01*
X0059187Y0232913D01*
X0061380Y0231377D01*
X0061845Y0228743D01*
X0060309Y0226550D01*
X0057675Y0226085D01*
X0055482Y0227621D01*
X0055017Y0230255D01*
X0056298Y0229971D01*
X0057258Y0231342D01*
X0058903Y0231632D01*
X0060274Y0230672D01*
X0060564Y0229027D01*
X0059604Y0227656D01*
X0057959Y0227366D01*
X0056588Y0228326D01*
X0056298Y0229971D01*
X0057579Y0229687D01*
X0057962Y0230235D01*
X0058619Y0230351D01*
X0059167Y0229968D01*
X0059283Y0229311D01*
X0058900Y0228763D01*
X0058243Y0228647D01*
X0057695Y0229030D01*
X0057579Y0229687D01*
X0059459Y0239527D02*
X0060267Y0238719D01*
X0058731Y0236526D01*
X0056097Y0236061D01*
X0053904Y0237597D01*
X0053439Y0240231D01*
X0054975Y0242424D01*
X0057609Y0242889D01*
X0059802Y0241353D01*
X0060267Y0238719D01*
X0058986Y0239003D01*
X0058026Y0237632D01*
X0056381Y0237342D01*
X0055010Y0238302D01*
X0054720Y0239947D01*
X0055680Y0241318D01*
X0057325Y0241608D01*
X0058696Y0240648D01*
X0058986Y0239003D01*
X0057705Y0239287D01*
X0057322Y0238739D01*
X0056665Y0238623D01*
X0056117Y0239006D01*
X0056001Y0239663D01*
X0056384Y0240211D01*
X0057041Y0240327D01*
X0057589Y0239944D01*
X0057705Y0239287D01*
X0020930Y0223294D02*
X0020122Y0224102D01*
X0021658Y0226295D01*
X0024292Y0226760D01*
X0026485Y0225224D01*
X0026950Y0222590D01*
X0025414Y0220397D01*
X0022780Y0219932D01*
X0020587Y0221468D01*
X0020122Y0224102D01*
X0021403Y0223818D01*
X0022363Y0225189D01*
X0024008Y0225479D01*
X0025379Y0224519D01*
X0025669Y0222874D01*
X0024709Y0221503D01*
X0023064Y0221213D01*
X0021693Y0222173D01*
X0021403Y0223818D01*
X0022684Y0223534D01*
X0023067Y0224082D01*
X0023724Y0224198D01*
X0024272Y0223815D01*
X0024388Y0223158D01*
X0024005Y0222610D01*
X0023348Y0222494D01*
X0022800Y0222877D01*
X0022684Y0223534D01*
X0024564Y0233374D02*
X0025372Y0232566D01*
X0023836Y0230373D01*
X0021202Y0229908D01*
X0019009Y0231444D01*
X0018544Y0234078D01*
X0020080Y0236271D01*
X0022714Y0236736D01*
X0024907Y0235200D01*
X0025372Y0232566D01*
X0024091Y0232850D01*
X0023131Y0231479D01*
X0021486Y0231189D01*
X0020115Y0232149D01*
X0019825Y0233794D01*
X0020785Y0235165D01*
X0022430Y0235455D01*
X0023801Y0234495D01*
X0024091Y0232850D01*
X0022810Y0233134D01*
X0022427Y0232586D01*
X0021770Y0232470D01*
X0021222Y0232853D01*
X0021106Y0233510D01*
X0021489Y0234058D01*
X0022146Y0234174D01*
X0022694Y0233791D01*
X0022810Y0233134D01*
D22*
X0030551Y0234578D03*
X0028973Y0244553D03*
X0046420Y0247629D03*
X0047998Y0237654D03*
X0476602Y0236654D03*
X0478147Y0246743D03*
X0495594Y0243666D03*
X0494049Y0233578D03*
D23*
X0485044Y0235130D02*
X0484841Y0235420D01*
X0483609Y0235637D01*
X0483691Y0236102D02*
X0483864Y0237088D01*
X0483777Y0236595D02*
X0485256Y0236335D01*
X0485044Y0235130D02*
X0484957Y0234637D01*
X0484667Y0234434D01*
X0483435Y0234652D01*
X0483599Y0234143D02*
X0483309Y0233940D01*
X0483222Y0233447D01*
X0483425Y0233157D01*
X0484411Y0232983D01*
X0484701Y0233186D01*
X0484788Y0233679D01*
X0484585Y0233969D01*
X0483599Y0234143D01*
X0482841Y0231285D02*
X0482667Y0230299D01*
X0482585Y0229834D02*
X0483817Y0229617D01*
X0484020Y0229327D01*
X0483933Y0228834D01*
X0483644Y0228631D01*
X0482411Y0228848D01*
X0482576Y0228339D02*
X0482286Y0228137D01*
X0482199Y0227644D01*
X0482402Y0227354D01*
X0483388Y0227180D01*
X0483678Y0227383D01*
X0483764Y0227876D01*
X0483562Y0228166D01*
X0484233Y0230531D02*
X0482754Y0230792D01*
X0040771Y0228373D02*
X0040598Y0229358D01*
X0040516Y0229824D02*
X0039283Y0229606D01*
X0038994Y0229809D01*
X0038907Y0230302D01*
X0039110Y0230592D01*
X0040342Y0230809D01*
X0040013Y0231231D02*
X0040216Y0231521D01*
X0040129Y0232014D01*
X0039840Y0232217D01*
X0038854Y0232043D01*
X0038651Y0231753D01*
X0038738Y0231260D01*
X0039028Y0231057D01*
X0040013Y0231231D01*
X0040684Y0228866D02*
X0039206Y0228605D01*
X0039748Y0234176D02*
X0039574Y0235162D01*
X0039492Y0235627D02*
X0038260Y0235410D01*
X0037970Y0235613D01*
X0037883Y0236106D01*
X0038086Y0236395D01*
X0039318Y0236613D01*
X0038990Y0237035D02*
X0039193Y0237324D01*
X0039106Y0237817D01*
X0038816Y0238020D01*
X0037831Y0237846D01*
X0037628Y0237556D01*
X0037715Y0237064D01*
X0038004Y0236861D01*
X0038183Y0234408D02*
X0039661Y0234669D01*
D24*
X0287843Y0232981D03*
X0290402Y0232981D03*
X0292961Y0232981D03*
X0295520Y0232981D03*
X0298080Y0232981D03*
X0300639Y0232981D03*
X0303198Y0232981D03*
X0305757Y0232981D03*
X0305757Y0255619D03*
X0303198Y0255619D03*
X0300639Y0255619D03*
X0298080Y0255619D03*
X0295520Y0255619D03*
X0292961Y0255619D03*
X0290402Y0255619D03*
X0287843Y0255619D03*
D25*
X0279300Y0251165D03*
X0270550Y0251165D03*
X0261800Y0251165D03*
X0261800Y0243685D03*
X0270550Y0243685D03*
X0279300Y0243685D03*
X0313050Y0248372D03*
X0313050Y0255853D03*
X0321521Y0242204D03*
X0321521Y0234724D03*
X0385181Y0234467D03*
X0394241Y0234339D03*
X0394241Y0241820D03*
X0385181Y0241948D03*
X0418424Y0223070D03*
X0418424Y0215589D03*
X0453296Y0234339D03*
X0453296Y0241820D03*
X0414300Y0130540D03*
X0414300Y0123060D03*
X0399925Y0122747D03*
X0399925Y0130228D03*
X0405862Y0113040D03*
X0405862Y0105560D03*
X0405862Y0090540D03*
X0405862Y0083060D03*
X0416800Y0083060D03*
X0416800Y0090540D03*
X0426800Y0090540D03*
X0436800Y0090540D03*
X0436800Y0083060D03*
X0426800Y0083060D03*
D26*
X0275550Y0226844D03*
X0271810Y0235112D03*
X0279290Y0235112D03*
D27*
X0126800Y0134300D03*
D28*
X0126800Y0144300D03*
D29*
X0403060Y0194300D03*
X0410540Y0194300D03*
X0409792Y0249891D03*
X0402312Y0249891D03*
X0402312Y0261702D03*
X0409792Y0261702D03*
X0470560Y0131800D03*
X0478040Y0131800D03*
D30*
X0132971Y0084517D02*
X0123129Y0084517D01*
X0123129Y0074674D02*
X0132971Y0074674D01*
X0132971Y0059910D02*
X0123129Y0059910D01*
X0123129Y0050068D02*
X0132971Y0050068D01*
D31*
X0128050Y0054989D03*
X0128050Y0079595D03*
D32*
X0421800Y0101564D03*
X0426800Y0101564D03*
X0431800Y0101564D03*
X0436800Y0101564D03*
X0436800Y0122036D03*
X0431800Y0122036D03*
X0426800Y0122036D03*
X0421800Y0122036D03*
D33*
X0150146Y0186898D03*
X0150146Y0190835D03*
X0150146Y0194772D03*
X0150146Y0198709D03*
X0150146Y0202646D03*
X0150146Y0206583D03*
X0150146Y0210520D03*
X0150146Y0214457D03*
X0150146Y0218394D03*
X0150146Y0222331D03*
X0150146Y0226269D03*
X0150146Y0230206D03*
X0150146Y0234143D03*
X0150146Y0238080D03*
X0150146Y0242017D03*
X0150146Y0245954D03*
X0150146Y0249891D03*
X0150146Y0253828D03*
D34*
X0158808Y0257765D03*
X0158808Y0182961D03*
X0158808Y0182961D03*
D35*
X0140894Y0192651D03*
X0138335Y0192651D03*
X0135776Y0192651D03*
X0135776Y0199147D03*
X0140894Y0199147D03*
D36*
X0404870Y0234339D03*
X0415107Y0234339D03*
X0415107Y0238080D03*
X0415107Y0241820D03*
X0404870Y0241820D03*
D37*
X0439871Y0250550D03*
X0447371Y0250550D03*
X0447371Y0254428D03*
X0439871Y0254428D03*
D38*
X0435146Y0218394D03*
D39*
X0448237Y0214457D03*
X0448237Y0222331D03*
D40*
X0046800Y0099300D03*
X0036800Y0099300D03*
X0036800Y0089300D03*
X0046800Y0089300D03*
X0046800Y0079300D03*
X0036800Y0079300D03*
D41*
X0071800Y0104300D03*
D42*
X0061800Y0104300D03*
D43*
X0055461Y0068237D03*
X0055461Y0066269D03*
X0055461Y0064300D03*
X0055461Y0062331D03*
X0038139Y0062331D03*
X0038139Y0060363D03*
X0038139Y0064300D03*
X0038139Y0066269D03*
X0038139Y0068237D03*
D44*
X0052513Y0059581D02*
X0058409Y0059581D01*
X0052513Y0059581D02*
X0052513Y0061145D01*
X0058409Y0061145D01*
X0058409Y0059581D01*
X0058409Y0059596D02*
X0052513Y0059596D01*
X0052513Y0059611D02*
X0058409Y0059611D01*
X0058409Y0059626D02*
X0052513Y0059626D01*
X0052513Y0059641D02*
X0058409Y0059641D01*
X0058409Y0059656D02*
X0052513Y0059656D01*
X0052513Y0059671D02*
X0058409Y0059671D01*
X0058409Y0059686D02*
X0052513Y0059686D01*
X0052513Y0059701D02*
X0058409Y0059701D01*
X0058409Y0059716D02*
X0052513Y0059716D01*
X0052513Y0059731D02*
X0058409Y0059731D01*
X0058409Y0059746D02*
X0052513Y0059746D01*
X0052513Y0059761D02*
X0058409Y0059761D01*
X0058409Y0059776D02*
X0052513Y0059776D01*
X0052513Y0059791D02*
X0058409Y0059791D01*
X0058409Y0059806D02*
X0052513Y0059806D01*
X0052513Y0059821D02*
X0058409Y0059821D01*
X0058409Y0059836D02*
X0052513Y0059836D01*
X0052513Y0059851D02*
X0058409Y0059851D01*
X0058409Y0059866D02*
X0052513Y0059866D01*
X0052513Y0059881D02*
X0058409Y0059881D01*
X0058409Y0059896D02*
X0052513Y0059896D01*
X0052513Y0059911D02*
X0058409Y0059911D01*
X0058409Y0059926D02*
X0052513Y0059926D01*
X0052513Y0059941D02*
X0058409Y0059941D01*
X0058409Y0059956D02*
X0052513Y0059956D01*
X0052513Y0059971D02*
X0058409Y0059971D01*
X0058409Y0059986D02*
X0052513Y0059986D01*
X0052513Y0060001D02*
X0058409Y0060001D01*
X0058409Y0060016D02*
X0052513Y0060016D01*
X0052513Y0060031D02*
X0058409Y0060031D01*
X0058409Y0060046D02*
X0052513Y0060046D01*
X0052513Y0060061D02*
X0058409Y0060061D01*
X0058409Y0060076D02*
X0052513Y0060076D01*
X0052513Y0060091D02*
X0058409Y0060091D01*
X0058409Y0060106D02*
X0052513Y0060106D01*
X0052513Y0060121D02*
X0058409Y0060121D01*
X0058409Y0060136D02*
X0052513Y0060136D01*
X0052513Y0060151D02*
X0058409Y0060151D01*
X0058409Y0060166D02*
X0052513Y0060166D01*
X0052513Y0060181D02*
X0058409Y0060181D01*
X0058409Y0060196D02*
X0052513Y0060196D01*
X0052513Y0060211D02*
X0058409Y0060211D01*
X0058409Y0060226D02*
X0052513Y0060226D01*
X0052513Y0060241D02*
X0058409Y0060241D01*
X0058409Y0060256D02*
X0052513Y0060256D01*
X0052513Y0060271D02*
X0058409Y0060271D01*
X0058409Y0060286D02*
X0052513Y0060286D01*
X0052513Y0060301D02*
X0058409Y0060301D01*
X0058409Y0060316D02*
X0052513Y0060316D01*
X0052513Y0060331D02*
X0058409Y0060331D01*
X0058409Y0060346D02*
X0052513Y0060346D01*
X0052513Y0060361D02*
X0058409Y0060361D01*
X0058409Y0060376D02*
X0052513Y0060376D01*
X0052513Y0060391D02*
X0058409Y0060391D01*
X0058409Y0060406D02*
X0052513Y0060406D01*
X0052513Y0060421D02*
X0058409Y0060421D01*
X0058409Y0060436D02*
X0052513Y0060436D01*
X0052513Y0060451D02*
X0058409Y0060451D01*
X0058409Y0060466D02*
X0052513Y0060466D01*
X0052513Y0060481D02*
X0058409Y0060481D01*
X0058409Y0060496D02*
X0052513Y0060496D01*
X0052513Y0060511D02*
X0058409Y0060511D01*
X0058409Y0060526D02*
X0052513Y0060526D01*
X0052513Y0060541D02*
X0058409Y0060541D01*
X0058409Y0060556D02*
X0052513Y0060556D01*
X0052513Y0060571D02*
X0058409Y0060571D01*
X0058409Y0060586D02*
X0052513Y0060586D01*
X0052513Y0060601D02*
X0058409Y0060601D01*
X0058409Y0060616D02*
X0052513Y0060616D01*
X0052513Y0060631D02*
X0058409Y0060631D01*
X0058409Y0060646D02*
X0052513Y0060646D01*
X0052513Y0060661D02*
X0058409Y0060661D01*
X0058409Y0060676D02*
X0052513Y0060676D01*
X0052513Y0060691D02*
X0058409Y0060691D01*
X0058409Y0060706D02*
X0052513Y0060706D01*
X0052513Y0060721D02*
X0058409Y0060721D01*
X0058409Y0060736D02*
X0052513Y0060736D01*
X0052513Y0060751D02*
X0058409Y0060751D01*
X0058409Y0060766D02*
X0052513Y0060766D01*
X0052513Y0060781D02*
X0058409Y0060781D01*
X0058409Y0060796D02*
X0052513Y0060796D01*
X0052513Y0060811D02*
X0058409Y0060811D01*
X0058409Y0060826D02*
X0052513Y0060826D01*
X0052513Y0060841D02*
X0058409Y0060841D01*
X0058409Y0060856D02*
X0052513Y0060856D01*
X0052513Y0060871D02*
X0058409Y0060871D01*
X0058409Y0060886D02*
X0052513Y0060886D01*
X0052513Y0060901D02*
X0058409Y0060901D01*
X0058409Y0060916D02*
X0052513Y0060916D01*
X0052513Y0060931D02*
X0058409Y0060931D01*
X0058409Y0060946D02*
X0052513Y0060946D01*
X0052513Y0060961D02*
X0058409Y0060961D01*
X0058409Y0060976D02*
X0052513Y0060976D01*
X0052513Y0060991D02*
X0058409Y0060991D01*
X0058409Y0061006D02*
X0052513Y0061006D01*
X0052513Y0061021D02*
X0058409Y0061021D01*
X0058409Y0061036D02*
X0052513Y0061036D01*
X0052513Y0061051D02*
X0058409Y0061051D01*
X0058409Y0061066D02*
X0052513Y0061066D01*
X0052513Y0061081D02*
X0058409Y0061081D01*
X0058409Y0061096D02*
X0052513Y0061096D01*
X0052513Y0061111D02*
X0058409Y0061111D01*
X0058409Y0061126D02*
X0052513Y0061126D01*
X0052513Y0061141D02*
X0058409Y0061141D01*
D45*
X0277977Y0267520D03*
X0312623Y0267520D03*
X0312623Y0289174D03*
X0277977Y0289174D03*
D46*
X0289001Y0265300D03*
X0292150Y0265300D03*
X0295300Y0265300D03*
X0298450Y0265300D03*
X0301599Y0265300D03*
D47*
X0303961Y0277363D03*
X0286639Y0277363D03*
D48*
X0024300Y0211800D03*
X0024300Y0206800D03*
X0024300Y0201800D03*
X0024300Y0196800D03*
D49*
X0442779Y0042658D03*
X0499821Y0057942D03*
D50*
X0479461Y0076127D03*
X0464269Y0076540D03*
X0451319Y0068586D03*
D51*
X0411161Y0059646D03*
X0420587Y0033749D03*
D52*
X0424300Y0063454D03*
X0424300Y0070146D03*
D53*
X0147800Y0088213D03*
X0147800Y0102387D03*
X0111800Y0132213D03*
X0111800Y0146387D03*
D54*
X0063397Y0058041D03*
X0101800Y0046300D03*
M02*
