%
M48
M72
T01C0.0197
T02C0.0200
T03C0.0236
T04C0.0315
T05C0.0354
T06C0.0394
T07C0.0472
T08C0.0512
T09C0.0787
T10C0.0866
T11C0.0984
T12C0.1000
T13C0.1181
T14C0.1496
T15C0.1575
%
T01
X14149Y9555
X12961Y11455
X12743Y12180
X10661Y11855
X10086Y12086
X9649Y12086
X8961Y12086
X7618Y11961
X9836Y15711
X11211Y15899
X8586Y16118
X13993Y17555
X13899Y18461
X17680Y17055
X22868Y19461
X23618Y19743
X25711Y20743
X26836Y20336
X29118Y19024
X19368Y21743
X18180Y21430
X15647Y21839
X24680Y26430
X44430Y24524
X44649Y25868
T02
X2430Y21180
X2430Y20680
X2430Y20180
X2430Y19680
T03
X1480Y19930
X3430Y18930
X4580Y18680
X5580Y18430
X7180Y18430
X6930Y17430
X4880Y16380
X3930Y16930
X1680Y15930
X2030Y15130
X3680Y14930
X2430Y13680
X3180Y13180
X4780Y12430
X6080Y11880
X6930Y12680
X7180Y13930
X8730Y14630
X8680Y15180
X6930Y15680
X10430Y17180
X11930Y15930
X13930Y15930
X13868Y16493
X15430Y15880
X16118Y16805
X16930Y16930
X18743Y18699
X20133Y19084
X21314Y19746
X20149Y20243
X23080Y21630
X23730Y21993
X22180Y22480
X23180Y24430
X23680Y24930
X26680Y23430
X29180Y24780
X30180Y24680
X31180Y22930
X29180Y21930
X30180Y21480
X29555Y19618
X28243Y18699
X26599Y19136
X24180Y16980
X30180Y16630
X33805Y17430
X34930Y17430
X36930Y17430
X38618Y16980
X40180Y17743
X41180Y18430
X41680Y18930
X42430Y18930
X42649Y17743
X41680Y17180
X40530Y15980
X40680Y15430
X41180Y14680
X41830Y14580
X43180Y14930
X43930Y14930
X42430Y13180
X44430Y12180
X41430Y9930
X44430Y9680
X46930Y9430
X48430Y9430
X50930Y8680
X45618Y5993
X44368Y6930
X43180Y5180
X39930Y5180
X40430Y6930
X38930Y16180
X39180Y18930
X37930Y20180
X40993Y21552
X42805Y22555
X42574Y23146
X42967Y24989
X39430Y25868
X47430Y21930
X41680Y20180
X46981Y18430
X32180Y19430
X31180Y19430
X27430Y25930
X30284Y26884
X16430Y23680
X16430Y22211
X13430Y23430
X10680Y24630
X9180Y24680
X9680Y22180
X7430Y21680
X7930Y20430
X10430Y18930
X13368Y21055
X4080Y20880
X3680Y21680
X3180Y22180
X11086Y13930
X10280Y12680
X11680Y11930
X12180Y11930
X13524Y10430
X11530Y9930
X9180Y8180
X7080Y8830
X6430Y8680
X5680Y7930
X3380Y7180
X2930Y6680
X6130Y9530
X4680Y10680
X3680Y10930
X14680Y8180
T04
X10180Y4630
X6340Y5804
T05
X4680Y7930
X3680Y7930
X3680Y8930
X4680Y8930
X4680Y9930
X3680Y9930
X12680Y20265
X12680Y20930
X24618Y23021
X25251Y23021
T06
X28664Y27736
X30396Y27736
X47815Y24674
X47660Y23665
X49405Y23358
X49559Y24367
X36180Y16036
X35180Y16036
X34180Y16036
X33180Y16036
X32180Y16036
X31180Y16036
X30180Y16036
X29180Y16036
X28180Y16036
X27180Y16036
X26180Y16036
X25180Y16036
X24180Y16036
X23180Y16036
X22180Y16036
X21180Y16036
X20180Y16036
X19180Y16036
X18180Y16036
X17180Y16036
X17180Y15036
X18180Y15036
X19180Y15036
X20180Y15036
X21180Y15036
X22180Y15036
X23180Y15036
X24180Y15036
X25180Y15036
X26180Y15036
X27180Y15036
X28180Y15036
X29180Y15036
X30180Y15036
X31180Y15036
X32180Y15036
X33180Y15036
X34180Y15036
X35180Y15036
X36180Y15036
X49868Y11869
X49868Y10491
X12805Y8452
X12805Y7467
X12805Y5991
X12805Y5007
X3055Y23458
X2897Y24455
X4642Y24763
X4800Y23765
T07
X45132Y6859
X46427Y7654
X47946Y7613
T08
X50106Y22235
X50261Y23244
X46771Y23859
X46617Y22850
X5843Y22950
X5685Y23947
X2354Y22335
X2196Y23332
T09
X41116Y5965
X42059Y3375
T10
X44278Y4266
X49982Y5794
T11
X47510Y15689
X7527Y8157
X5251Y11813
T12
X12452Y28834
X40069Y28793
T13
X43986Y23357
X51114Y6459
X8421Y23379
X1459Y6568
T14
X45492Y19909
T15
X49796Y13817
X2296Y12285
M30
