G75*
%MOIN*%
%OFA0B0*%
%FSLAX25Y25*%
%IPPOS*%
%LPD*%
%AMOC8*
5,1,8,0,0,1.08239X$1,22.5*
%
%ADD10C,0.01600*%
%ADD11C,0.00000*%
%ADD12C,0.04895*%
%ADD13C,0.04558*%
%ADD14C,0.00400*%
%ADD15C,0.00600*%
%ADD16C,0.00200*%
%ADD17C,0.02400*%
%ADD18C,0.01682*%
%ADD19C,0.00800*%
%ADD20C,0.00500*%
%ADD21R,0.07500X0.01250*%
%ADD22C,0.03200*%
%ADD23C,0.00300*%
%ADD24C,0.01000*%
%ADD25C,0.01000*%
%ADD26R,0.07000X0.07000*%
%ADD27C,0.06900*%
%ADD28C,0.00690*%
%ADD29R,0.01250X0.07500*%
%ADD30C,0.00100*%
%ADD31R,0.03000X0.01500*%
D10*
X0081308Y0051447D02*
X0087445Y0048730D01*
X0095593Y0046417D01*
X0114506Y0046417D01*
X0114506Y0116335D01*
X0111589Y0116334D01*
X0087948Y0116334D01*
X0082012Y0113416D01*
X0078290Y0109091D01*
X0075172Y0100640D01*
X0075172Y0066939D01*
X0075876Y0060400D01*
X0077284Y0056879D01*
X0081308Y0051447D01*
X0053142Y0110410D02*
X0050325Y0110712D01*
X0047609Y0111718D01*
X0045295Y0114334D01*
X0037448Y0126003D01*
X0031010Y0128015D01*
X0023767Y0132945D01*
X0015618Y0140691D01*
X0011494Y0146626D01*
X0053142Y0110410D02*
X0056769Y0112255D01*
X0088655Y0134260D01*
X0093651Y0138329D01*
X0096844Y0141934D01*
X0101892Y0148785D01*
X0104880Y0153936D01*
X0107661Y0161250D01*
X0109258Y0167482D01*
X0110185Y0174281D01*
X0109979Y0180977D01*
X0108897Y0188188D01*
X0106013Y0197253D01*
X0102871Y0203692D01*
X0095711Y0212602D01*
X0088809Y0218835D01*
X0079589Y0224192D01*
X0074078Y0226355D01*
X0069597Y0227643D01*
X0064137Y0228621D01*
X0056772Y0229136D01*
X0049870Y0228570D01*
X0041629Y0227385D01*
X0045543Y0227360D02*
X0036851Y0225879D01*
X0036478Y0225479D02*
X0015566Y0220328D01*
X0416637Y0191859D02*
X0420827Y0182563D01*
X0418450Y0178310D01*
X0416637Y0172706D01*
X0416175Y0165882D01*
X0418483Y0155334D01*
X0420856Y0151147D01*
X0416406Y0142478D01*
X0442043Y0130819D01*
X0445966Y0139479D01*
X0447971Y0139875D01*
X0454643Y0131911D01*
X0476900Y0151268D01*
X0508723Y0151066D01*
X0508954Y0161516D01*
X0515844Y0166757D01*
X0465220Y0203682D02*
X0461660Y0208791D01*
X0459089Y0210341D01*
X0456056Y0210868D01*
X0452529Y0210868D01*
X0449876Y0210011D01*
X0447288Y0207703D01*
X0445672Y0205528D01*
X0416637Y0191859D01*
X0465220Y0203682D02*
X0479857Y0218071D01*
X0481933Y0217939D01*
X0487794Y0212040D01*
X0491461Y0212401D01*
X0495521Y0219363D01*
X0515232Y0213328D01*
D11*
X0490459Y0238321D02*
X0481059Y0240510D01*
X0426489Y0071179D02*
X0423687Y0070157D01*
X0426489Y0071179D02*
X0429620Y0064190D01*
X0433204Y0039053D02*
X0429619Y0037776D01*
X0433163Y0029370D01*
X0436789Y0030730D01*
X0433204Y0039053D01*
X0403761Y0026309D02*
X0407156Y0017804D01*
X0403827Y0016584D01*
X0400267Y0025353D01*
X0403761Y0026309D01*
X0041629Y0227385D02*
X0036478Y0225479D01*
D12*
X0453634Y0038984D03*
D13*
X0491653Y0049164D03*
D14*
X0435323Y0073250D02*
X0435323Y0077854D01*
X0433021Y0075552D01*
X0436090Y0075552D01*
X0431486Y0077087D02*
X0430719Y0077854D01*
X0429184Y0077854D01*
X0428417Y0077087D01*
X0428417Y0074017D01*
X0429184Y0073250D01*
X0430719Y0073250D01*
X0431486Y0074017D01*
X0418903Y0073705D02*
X0418903Y0074472D01*
X0418136Y0075239D01*
X0415834Y0075239D01*
X0415834Y0073705D01*
X0416601Y0072938D01*
X0418136Y0072938D01*
X0418903Y0073705D01*
X0417368Y0076774D02*
X0415834Y0075239D01*
X0414299Y0073705D02*
X0413532Y0072938D01*
X0411997Y0072938D01*
X0411230Y0073705D01*
X0411230Y0076774D01*
X0411997Y0077541D01*
X0413532Y0077541D01*
X0414299Y0076774D01*
X0417368Y0076774D02*
X0418903Y0077541D01*
X0408590Y0077229D02*
X0408590Y0076462D01*
X0405521Y0073392D01*
X0405521Y0072625D01*
X0403986Y0072625D02*
X0400917Y0072625D01*
X0402452Y0072625D02*
X0402452Y0077229D01*
X0400917Y0075694D01*
X0399382Y0076462D02*
X0398615Y0077229D01*
X0397081Y0077229D01*
X0396313Y0076462D01*
X0396313Y0073392D01*
X0397081Y0072625D01*
X0398615Y0072625D01*
X0399382Y0073392D01*
X0405521Y0077229D02*
X0408590Y0077229D01*
X0408761Y0096062D02*
X0407226Y0096062D01*
X0406459Y0096830D01*
X0406459Y0097597D01*
X0407226Y0098364D01*
X0408761Y0098364D01*
X0409528Y0097597D01*
X0409528Y0096830D01*
X0408761Y0096062D01*
X0408761Y0098364D02*
X0409528Y0099132D01*
X0409528Y0099899D01*
X0408761Y0100666D01*
X0407226Y0100666D01*
X0406459Y0099899D01*
X0406459Y0099132D01*
X0407226Y0098364D01*
X0404924Y0096062D02*
X0401855Y0096062D01*
X0403389Y0096062D02*
X0403389Y0100666D01*
X0401855Y0099132D01*
X0400320Y0099899D02*
X0399553Y0100666D01*
X0398018Y0100666D01*
X0397251Y0099899D01*
X0397251Y0096830D01*
X0398018Y0096062D01*
X0399553Y0096062D01*
X0400320Y0096830D01*
X0440292Y0109767D02*
X0441059Y0109000D01*
X0442594Y0109000D01*
X0443361Y0109767D01*
X0443361Y0113604D01*
X0444896Y0111302D02*
X0447965Y0111302D01*
X0447198Y0113604D02*
X0444896Y0111302D01*
X0447198Y0109000D02*
X0447198Y0113604D01*
X0440292Y0113604D02*
X0440292Y0109767D01*
X0426573Y0124500D02*
X0425038Y0124500D01*
X0424271Y0125267D01*
X0422736Y0125267D02*
X0421969Y0124500D01*
X0420434Y0124500D01*
X0419667Y0125267D01*
X0419667Y0128337D01*
X0420434Y0129104D01*
X0421969Y0129104D01*
X0422736Y0128337D01*
X0424271Y0129104D02*
X0424271Y0126802D01*
X0425806Y0127569D01*
X0426573Y0127569D01*
X0427340Y0126802D01*
X0427340Y0125267D01*
X0426573Y0124500D01*
X0427340Y0129104D02*
X0424271Y0129104D01*
X0405153Y0137142D02*
X0405153Y0138677D01*
X0404386Y0139444D01*
X0403618Y0139444D01*
X0402084Y0138677D01*
X0402084Y0140979D01*
X0405153Y0140979D01*
X0405153Y0137142D02*
X0404386Y0136375D01*
X0402851Y0136375D01*
X0402084Y0137142D01*
X0400549Y0136375D02*
X0397480Y0136375D01*
X0399014Y0136375D02*
X0399014Y0140979D01*
X0397480Y0139444D01*
X0395945Y0140212D02*
X0395178Y0140979D01*
X0393643Y0140979D01*
X0392876Y0140212D01*
X0392876Y0137142D01*
X0393643Y0136375D01*
X0395178Y0136375D01*
X0395945Y0137142D01*
X0450376Y0149399D02*
X0452678Y0149399D01*
X0453445Y0150166D01*
X0453445Y0150933D01*
X0452678Y0151701D01*
X0450376Y0151701D01*
X0450376Y0154002D02*
X0450376Y0149399D01*
X0452678Y0151701D02*
X0453445Y0152468D01*
X0453445Y0153235D01*
X0452678Y0154002D01*
X0450376Y0154002D01*
X0472000Y0141604D02*
X0474302Y0141604D01*
X0475069Y0140837D01*
X0475069Y0139302D01*
X0474302Y0138535D01*
X0472000Y0138535D01*
X0473535Y0138535D02*
X0475069Y0137000D01*
X0476604Y0137767D02*
X0476604Y0138535D01*
X0477371Y0139302D01*
X0478906Y0139302D01*
X0479673Y0138535D01*
X0479673Y0137767D01*
X0478906Y0137000D01*
X0477371Y0137000D01*
X0476604Y0137767D01*
X0477371Y0139302D02*
X0476604Y0140069D01*
X0476604Y0140837D01*
X0477371Y0141604D01*
X0478906Y0141604D01*
X0479673Y0140837D01*
X0479673Y0140069D01*
X0478906Y0139302D01*
X0472000Y0137000D02*
X0472000Y0141604D01*
X0500554Y0166653D02*
X0500554Y0169722D01*
X0502089Y0171257D01*
X0503624Y0169722D01*
X0503624Y0166653D01*
X0503624Y0168955D02*
X0500554Y0168955D01*
X0447842Y0201094D02*
X0444773Y0201094D01*
X0443238Y0201094D02*
X0440169Y0201094D01*
X0438634Y0201094D02*
X0437100Y0202629D01*
X0437867Y0202629D02*
X0435565Y0202629D01*
X0435565Y0201094D02*
X0435565Y0205698D01*
X0437867Y0205698D01*
X0438634Y0204931D01*
X0438634Y0203396D01*
X0437867Y0202629D01*
X0440169Y0204164D02*
X0441704Y0205698D01*
X0441704Y0201094D01*
X0444773Y0204164D02*
X0446308Y0205698D01*
X0446308Y0201094D01*
X0421748Y0208141D02*
X0420980Y0207374D01*
X0419446Y0207374D01*
X0418678Y0208141D01*
X0417144Y0207374D02*
X0414074Y0207374D01*
X0412540Y0207374D02*
X0411005Y0208909D01*
X0411772Y0208909D02*
X0409470Y0208909D01*
X0409470Y0207374D02*
X0409470Y0211978D01*
X0411772Y0211978D01*
X0412540Y0211211D01*
X0412540Y0209676D01*
X0411772Y0208909D01*
X0414074Y0210443D02*
X0415609Y0211978D01*
X0415609Y0207374D01*
X0416777Y0204104D02*
X0415242Y0203337D01*
X0413708Y0201802D01*
X0416010Y0201802D01*
X0416777Y0201035D01*
X0416777Y0200267D01*
X0416010Y0199500D01*
X0414475Y0199500D01*
X0413708Y0200267D01*
X0413708Y0201802D01*
X0412173Y0199500D02*
X0409104Y0199500D01*
X0410639Y0199500D02*
X0410639Y0204104D01*
X0409104Y0202569D01*
X0407569Y0201802D02*
X0406802Y0201035D01*
X0404500Y0201035D01*
X0406035Y0201035D02*
X0407569Y0199500D01*
X0407569Y0201802D02*
X0407569Y0203337D01*
X0406802Y0204104D01*
X0404500Y0204104D01*
X0404500Y0199500D01*
X0420213Y0209676D02*
X0420980Y0209676D01*
X0421748Y0208909D01*
X0421748Y0208141D01*
X0420980Y0209676D02*
X0421748Y0210443D01*
X0421748Y0211211D01*
X0420980Y0211978D01*
X0419446Y0211978D01*
X0418678Y0211211D01*
X0402373Y0224753D02*
X0399303Y0224753D01*
X0402373Y0227823D01*
X0402373Y0228590D01*
X0401605Y0229357D01*
X0400071Y0229357D01*
X0399303Y0228590D01*
X0396234Y0229357D02*
X0396234Y0224753D01*
X0394699Y0224753D02*
X0397769Y0224753D01*
X0394699Y0227823D02*
X0396234Y0229357D01*
X0393165Y0228590D02*
X0392397Y0229357D01*
X0390863Y0229357D01*
X0390095Y0228590D01*
X0390095Y0225521D01*
X0390863Y0224753D01*
X0392397Y0224753D01*
X0393165Y0225521D01*
X0387870Y0225523D02*
X0387870Y0227058D01*
X0387102Y0227825D01*
X0386335Y0227825D01*
X0384800Y0227058D01*
X0384800Y0229360D01*
X0387870Y0229360D01*
X0381731Y0229360D02*
X0381731Y0224756D01*
X0380196Y0224756D02*
X0383266Y0224756D01*
X0384800Y0225523D02*
X0385568Y0224756D01*
X0387102Y0224756D01*
X0387870Y0225523D01*
X0381731Y0229360D02*
X0380196Y0227825D01*
X0378662Y0227058D02*
X0377894Y0226291D01*
X0375593Y0226291D01*
X0377127Y0226291D02*
X0378662Y0224756D01*
X0378662Y0227058D02*
X0378662Y0228593D01*
X0377894Y0229360D01*
X0375593Y0229360D01*
X0375593Y0224756D01*
X0335644Y0238181D02*
X0334877Y0237414D01*
X0333342Y0237414D01*
X0332575Y0238181D01*
X0331040Y0237414D02*
X0329506Y0238949D01*
X0330273Y0238949D02*
X0327971Y0238949D01*
X0327971Y0237414D02*
X0327971Y0242018D01*
X0330273Y0242018D01*
X0331040Y0241251D01*
X0331040Y0239716D01*
X0330273Y0238949D01*
X0332575Y0241251D02*
X0333342Y0242018D01*
X0334877Y0242018D01*
X0335644Y0241251D01*
X0335644Y0240483D01*
X0334877Y0239716D01*
X0335644Y0238949D01*
X0335644Y0238181D01*
X0334877Y0239716D02*
X0334110Y0239716D01*
X0327173Y0249500D02*
X0324104Y0249500D01*
X0327173Y0252569D01*
X0327173Y0253337D01*
X0326406Y0254104D01*
X0324871Y0254104D01*
X0324104Y0253337D01*
X0322569Y0253337D02*
X0321802Y0254104D01*
X0319500Y0254104D01*
X0319500Y0249500D01*
X0319500Y0251035D02*
X0321802Y0251035D01*
X0322569Y0251802D01*
X0322569Y0253337D01*
X0321035Y0251035D02*
X0322569Y0249500D01*
X0321824Y0267937D02*
X0321824Y0272541D01*
X0324893Y0267937D01*
X0324893Y0272541D01*
X0326428Y0271006D02*
X0327962Y0272541D01*
X0327962Y0267937D01*
X0326428Y0267937D02*
X0329497Y0267937D01*
X0320289Y0268704D02*
X0319522Y0267937D01*
X0317987Y0267937D01*
X0317220Y0268704D01*
X0317220Y0271774D01*
X0317987Y0272541D01*
X0319522Y0272541D01*
X0320289Y0271774D01*
X0263590Y0259587D02*
X0263590Y0258819D01*
X0262823Y0258052D01*
X0263590Y0257285D01*
X0263590Y0256517D01*
X0262823Y0255750D01*
X0261288Y0255750D01*
X0260521Y0256517D01*
X0258986Y0256517D02*
X0258219Y0255750D01*
X0256684Y0255750D01*
X0255917Y0256517D01*
X0255917Y0259587D01*
X0256684Y0260354D01*
X0258219Y0260354D01*
X0258986Y0259587D01*
X0260521Y0259587D02*
X0261288Y0260354D01*
X0262823Y0260354D01*
X0263590Y0259587D01*
X0262823Y0258052D02*
X0262056Y0258052D01*
X0252793Y0275350D02*
X0252793Y0276217D01*
X0256263Y0279687D01*
X0256263Y0280554D01*
X0252793Y0280554D01*
X0249371Y0280554D02*
X0249371Y0275350D01*
X0247637Y0275350D02*
X0251106Y0275350D01*
X0247637Y0278820D02*
X0249371Y0280554D01*
X0245950Y0279687D02*
X0242480Y0276217D01*
X0243348Y0275350D01*
X0245082Y0275350D01*
X0245950Y0276217D01*
X0245950Y0279687D01*
X0245082Y0280554D01*
X0243348Y0280554D01*
X0242480Y0279687D01*
X0242480Y0276217D01*
X0240793Y0275350D02*
X0237324Y0275350D01*
X0240793Y0278820D01*
X0240793Y0279687D01*
X0239926Y0280554D01*
X0238191Y0280554D01*
X0237324Y0279687D01*
X0230457Y0276217D02*
X0230457Y0275350D01*
X0229589Y0275350D01*
X0229589Y0276217D01*
X0230457Y0276217D01*
X0227902Y0276217D02*
X0227035Y0275350D01*
X0225300Y0275350D01*
X0224433Y0276217D01*
X0224433Y0279687D01*
X0225300Y0280554D01*
X0227035Y0280554D01*
X0227902Y0279687D01*
X0217590Y0278820D02*
X0217590Y0276217D01*
X0216722Y0275350D01*
X0215855Y0276217D01*
X0214987Y0275350D01*
X0214120Y0276217D01*
X0214120Y0278820D01*
X0212433Y0277952D02*
X0212433Y0277085D01*
X0208964Y0277085D01*
X0208964Y0277952D02*
X0209831Y0278820D01*
X0211566Y0278820D01*
X0212433Y0277952D01*
X0211566Y0275350D02*
X0209831Y0275350D01*
X0208964Y0276217D01*
X0208964Y0277952D01*
X0207277Y0277952D02*
X0207277Y0275350D01*
X0207277Y0277952D02*
X0206409Y0278820D01*
X0204675Y0278820D01*
X0203807Y0277952D01*
X0202104Y0278820D02*
X0200370Y0278820D01*
X0201237Y0279687D02*
X0201237Y0276217D01*
X0202104Y0275350D01*
X0203807Y0275350D02*
X0203807Y0280554D01*
X0198667Y0278820D02*
X0196932Y0278820D01*
X0197799Y0279687D02*
X0197799Y0276217D01*
X0198667Y0275350D01*
X0195245Y0275350D02*
X0195245Y0277952D01*
X0194378Y0278820D01*
X0192643Y0278820D01*
X0192643Y0277085D02*
X0195245Y0277085D01*
X0195245Y0275350D02*
X0192643Y0275350D01*
X0191776Y0276217D01*
X0192643Y0277085D01*
X0190089Y0275350D02*
X0190089Y0280554D01*
X0188354Y0278820D01*
X0186619Y0280554D01*
X0186619Y0275350D01*
X0179776Y0275350D02*
X0177174Y0275350D01*
X0176306Y0276217D01*
X0176306Y0278820D01*
X0174620Y0278820D02*
X0173752Y0277952D01*
X0171150Y0277952D01*
X0171150Y0275350D02*
X0173752Y0275350D01*
X0174620Y0276217D01*
X0174620Y0277085D01*
X0173752Y0277952D01*
X0174620Y0278820D02*
X0174620Y0279687D01*
X0173752Y0280554D01*
X0171150Y0280554D01*
X0171150Y0275350D01*
X0178041Y0273615D02*
X0178909Y0273615D01*
X0179776Y0274483D01*
X0179776Y0278820D01*
X0133025Y0230954D02*
X0131491Y0229420D01*
X0133025Y0230954D02*
X0133025Y0226350D01*
X0131491Y0226350D02*
X0134560Y0226350D01*
X0128421Y0226350D02*
X0128421Y0230954D01*
X0126887Y0230954D02*
X0129956Y0230954D01*
X0125352Y0230954D02*
X0122283Y0230954D01*
X0122283Y0226350D01*
X0122283Y0228652D02*
X0123817Y0228652D01*
X0120748Y0230954D02*
X0117679Y0230954D01*
X0119213Y0230954D02*
X0119213Y0226350D01*
X0121723Y0197953D02*
X0121723Y0194117D01*
X0122491Y0193349D01*
X0124025Y0193349D01*
X0124793Y0194117D01*
X0124793Y0197953D01*
X0126327Y0197953D02*
X0126327Y0195651D01*
X0127862Y0196419D01*
X0128629Y0196419D01*
X0129397Y0195651D01*
X0129397Y0194117D01*
X0128629Y0193349D01*
X0127095Y0193349D01*
X0126327Y0194117D01*
X0126327Y0197953D02*
X0129397Y0197953D01*
X0097098Y0193019D02*
X0094029Y0193019D01*
X0095563Y0193019D02*
X0095563Y0188415D01*
X0092494Y0188415D02*
X0092494Y0193019D01*
X0092494Y0190717D02*
X0089425Y0190717D01*
X0087890Y0190717D02*
X0086356Y0190717D01*
X0087890Y0190717D02*
X0087890Y0189182D01*
X0087123Y0188415D01*
X0085588Y0188415D01*
X0084821Y0189182D01*
X0084821Y0192252D01*
X0085588Y0193019D01*
X0087123Y0193019D01*
X0087890Y0192252D01*
X0089425Y0193019D02*
X0089425Y0188415D01*
X0083286Y0188415D02*
X0081752Y0188415D01*
X0082519Y0188415D02*
X0082519Y0193019D01*
X0081752Y0193019D02*
X0083286Y0193019D01*
X0080217Y0192252D02*
X0080217Y0190717D01*
X0079450Y0189950D01*
X0077148Y0189950D01*
X0078682Y0189950D02*
X0080217Y0188415D01*
X0077148Y0188415D02*
X0077148Y0193019D01*
X0079450Y0193019D01*
X0080217Y0192252D01*
X0031031Y0192170D02*
X0027962Y0192170D01*
X0026427Y0192170D02*
X0023358Y0192170D01*
X0023358Y0187566D01*
X0021824Y0187566D02*
X0018754Y0187566D01*
X0018754Y0192170D01*
X0021824Y0192170D01*
X0023358Y0189868D02*
X0024893Y0189868D01*
X0020289Y0189868D02*
X0018754Y0189868D01*
X0017220Y0187566D02*
X0014150Y0187566D01*
X0014150Y0192170D01*
X0029497Y0192170D02*
X0029497Y0187566D01*
X0045588Y0161754D02*
X0047890Y0161754D01*
X0048657Y0160987D01*
X0048657Y0157918D01*
X0047890Y0157150D01*
X0045588Y0157150D01*
X0045588Y0161754D01*
X0050192Y0160987D02*
X0050192Y0157918D01*
X0050959Y0157150D01*
X0052494Y0157150D01*
X0053261Y0157918D01*
X0053261Y0160987D01*
X0052494Y0161754D01*
X0050959Y0161754D01*
X0050192Y0160987D01*
X0054796Y0161754D02*
X0054796Y0157150D01*
X0056330Y0158685D01*
X0057865Y0157150D01*
X0057865Y0161754D01*
X0059400Y0161754D02*
X0062469Y0157150D01*
X0062469Y0161754D01*
X0059400Y0161754D02*
X0059400Y0157150D01*
X0116496Y0149965D02*
X0116496Y0146896D01*
X0118798Y0146896D01*
X0118031Y0148431D01*
X0118031Y0149198D01*
X0118798Y0149965D01*
X0120333Y0149965D01*
X0121100Y0149198D01*
X0121100Y0147663D01*
X0120333Y0146896D01*
X0120333Y0145361D02*
X0117263Y0145361D01*
X0116496Y0144594D01*
X0116496Y0142292D01*
X0121100Y0142292D01*
X0121100Y0144594D01*
X0120333Y0145361D01*
X0107614Y0114309D02*
X0104544Y0114309D01*
X0106079Y0114309D02*
X0106079Y0109705D01*
X0103010Y0109705D02*
X0101475Y0111239D01*
X0102242Y0111239D02*
X0099940Y0111239D01*
X0099940Y0109705D02*
X0099940Y0114309D01*
X0102242Y0114309D01*
X0103010Y0113541D01*
X0103010Y0112007D01*
X0102242Y0111239D01*
X0098406Y0112007D02*
X0095336Y0112007D01*
X0095336Y0112774D02*
X0096871Y0114309D01*
X0098406Y0112774D01*
X0098406Y0109705D01*
X0095336Y0109705D02*
X0095336Y0112774D01*
X0093802Y0114309D02*
X0090732Y0114309D01*
X0092267Y0114309D02*
X0092267Y0109705D01*
X0089198Y0110472D02*
X0088431Y0109705D01*
X0086896Y0109705D01*
X0086129Y0110472D01*
X0086896Y0112007D02*
X0086129Y0112774D01*
X0086129Y0113541D01*
X0086896Y0114309D01*
X0088431Y0114309D01*
X0089198Y0113541D01*
X0088431Y0112007D02*
X0089198Y0111239D01*
X0089198Y0110472D01*
X0088431Y0112007D02*
X0086896Y0112007D01*
X0087031Y0083243D02*
X0086263Y0082475D01*
X0086263Y0081708D01*
X0087031Y0080941D01*
X0088565Y0080941D01*
X0089333Y0080173D01*
X0089333Y0079406D01*
X0088565Y0078639D01*
X0087031Y0078639D01*
X0086263Y0079406D01*
X0087031Y0083243D02*
X0088565Y0083243D01*
X0089333Y0082475D01*
X0090867Y0083243D02*
X0090867Y0078639D01*
X0093937Y0078639D01*
X0095471Y0078639D02*
X0098541Y0078639D01*
X0095471Y0078639D02*
X0095471Y0083243D01*
X0093937Y0083243D02*
X0090867Y0083243D01*
X0090867Y0080941D02*
X0092402Y0080941D01*
X0152496Y0098292D02*
X0152496Y0100594D01*
X0153263Y0101361D01*
X0156333Y0101361D01*
X0157100Y0100594D01*
X0157100Y0098292D01*
X0152496Y0098292D01*
X0152496Y0102896D02*
X0152496Y0105965D01*
X0153263Y0105965D01*
X0156333Y0102896D01*
X0157100Y0102896D01*
X0029600Y0092846D02*
X0029600Y0089777D01*
X0029600Y0091312D02*
X0024996Y0091312D01*
X0026531Y0089777D01*
X0027298Y0088242D02*
X0028065Y0087475D01*
X0028065Y0085173D01*
X0028065Y0083639D02*
X0028833Y0083639D01*
X0029600Y0082871D01*
X0029600Y0081337D01*
X0028833Y0080569D01*
X0029600Y0079035D02*
X0029600Y0077500D01*
X0029600Y0078267D02*
X0024996Y0078267D01*
X0024996Y0077500D02*
X0024996Y0079035D01*
X0025763Y0080569D02*
X0026531Y0080569D01*
X0027298Y0081337D01*
X0027298Y0082871D01*
X0028065Y0083639D01*
X0029600Y0085173D02*
X0024996Y0085173D01*
X0024996Y0087475D01*
X0025763Y0088242D01*
X0027298Y0088242D01*
X0025763Y0083639D02*
X0024996Y0082871D01*
X0024996Y0081337D01*
X0025763Y0080569D01*
X0272292Y0220142D02*
X0273059Y0219375D01*
X0274594Y0219375D01*
X0275361Y0220142D01*
X0275361Y0223212D01*
X0274594Y0223979D01*
X0273059Y0223979D01*
X0272292Y0223212D01*
X0272292Y0220142D01*
X0273827Y0220910D02*
X0275361Y0219375D01*
X0276896Y0219375D02*
X0279965Y0219375D01*
X0278431Y0219375D02*
X0278431Y0223979D01*
X0276896Y0222444D01*
X0298100Y0221967D02*
X0298867Y0221200D01*
X0300402Y0221200D01*
X0301169Y0221967D01*
X0301169Y0225804D01*
X0302704Y0225037D02*
X0303471Y0225804D01*
X0305006Y0225804D01*
X0305773Y0225037D01*
X0305773Y0224269D01*
X0302704Y0221200D01*
X0305773Y0221200D01*
X0298100Y0221967D02*
X0298100Y0225804D01*
X0382753Y0248983D02*
X0383520Y0248216D01*
X0385055Y0248216D01*
X0385822Y0248983D01*
X0387357Y0248216D02*
X0390426Y0248216D01*
X0391961Y0248216D02*
X0395030Y0248216D01*
X0393495Y0248216D02*
X0393495Y0252819D01*
X0391961Y0251285D01*
X0388891Y0252819D02*
X0388891Y0248216D01*
X0387357Y0251285D02*
X0388891Y0252819D01*
X0385822Y0252052D02*
X0385055Y0252819D01*
X0383520Y0252819D01*
X0382753Y0252052D01*
X0382753Y0248983D01*
X0390565Y0266902D02*
X0390565Y0271505D01*
X0392867Y0271505D01*
X0393634Y0270738D01*
X0393634Y0269204D01*
X0392867Y0268436D01*
X0390565Y0268436D01*
X0392100Y0268436D02*
X0393634Y0266902D01*
X0395169Y0266902D02*
X0398238Y0266902D01*
X0396704Y0266902D02*
X0396704Y0271505D01*
X0395169Y0269971D01*
X0399773Y0269204D02*
X0402842Y0269204D01*
X0402075Y0271505D02*
X0399773Y0269204D01*
X0402075Y0271505D02*
X0402075Y0266902D01*
X0419388Y0242543D02*
X0419388Y0238706D01*
X0420155Y0237939D01*
X0421690Y0237939D01*
X0422457Y0238706D01*
X0422457Y0242543D01*
X0423992Y0240241D02*
X0425526Y0241776D01*
X0427061Y0242543D01*
X0426293Y0240241D02*
X0423992Y0240241D01*
X0423992Y0238706D01*
X0424759Y0237939D01*
X0426293Y0237939D01*
X0427061Y0238706D01*
X0427061Y0239474D01*
X0426293Y0240241D01*
X0451488Y0247689D02*
X0453790Y0247689D01*
X0454557Y0248456D01*
X0454557Y0251526D01*
X0453790Y0252293D01*
X0451488Y0252293D01*
X0451488Y0247689D01*
X0456092Y0248456D02*
X0456859Y0247689D01*
X0458394Y0247689D01*
X0459161Y0248456D01*
X0459161Y0249224D01*
X0458394Y0249991D01*
X0457627Y0249991D01*
X0458394Y0249991D02*
X0459161Y0250758D01*
X0459161Y0251526D01*
X0458394Y0252293D01*
X0456859Y0252293D01*
X0456092Y0251526D01*
X0456147Y0229350D02*
X0453845Y0229350D01*
X0453845Y0224746D01*
X0453845Y0226281D02*
X0456147Y0226281D01*
X0456915Y0227048D01*
X0456915Y0228583D01*
X0456147Y0229350D01*
X0458449Y0227815D02*
X0459984Y0229350D01*
X0459984Y0224746D01*
X0458449Y0224746D02*
X0461519Y0224746D01*
X0463053Y0224746D02*
X0466123Y0227815D01*
X0466123Y0228583D01*
X0465355Y0229350D01*
X0463821Y0229350D01*
X0463053Y0228583D01*
X0463053Y0224746D02*
X0466123Y0224746D01*
X0456915Y0224746D02*
X0455380Y0226281D01*
X0488018Y0092982D02*
X0487251Y0092215D01*
X0487251Y0091447D01*
X0488018Y0090680D01*
X0489553Y0090680D01*
X0490320Y0089913D01*
X0490320Y0089145D01*
X0489553Y0088378D01*
X0488018Y0088378D01*
X0487251Y0089145D01*
X0488018Y0092982D02*
X0489553Y0092982D01*
X0490320Y0092215D01*
X0491855Y0092982D02*
X0494157Y0092982D01*
X0494924Y0092215D01*
X0494924Y0090680D01*
X0494157Y0089913D01*
X0491855Y0089913D01*
X0491855Y0088378D02*
X0491855Y0092982D01*
X0496459Y0091447D02*
X0497993Y0092982D01*
X0497993Y0088378D01*
X0496459Y0088378D02*
X0499528Y0088378D01*
X0449673Y0089729D02*
X0448139Y0088962D01*
X0446604Y0087427D01*
X0448906Y0087427D01*
X0449673Y0086660D01*
X0449673Y0085892D01*
X0448906Y0085125D01*
X0447371Y0085125D01*
X0446604Y0085892D01*
X0446604Y0087427D01*
X0445069Y0087427D02*
X0444302Y0086660D01*
X0442000Y0086660D01*
X0443535Y0086660D02*
X0445069Y0085125D01*
X0445069Y0087427D02*
X0445069Y0088962D01*
X0444302Y0089729D01*
X0442000Y0089729D01*
X0442000Y0085125D01*
X0053497Y0221871D02*
X0052729Y0221104D01*
X0050427Y0221104D01*
X0050427Y0219569D02*
X0050427Y0224173D01*
X0052729Y0224173D01*
X0053497Y0223406D01*
X0053497Y0221871D01*
X0048893Y0220336D02*
X0048893Y0224173D01*
X0045823Y0224173D02*
X0045823Y0220336D01*
X0046591Y0219569D01*
X0048125Y0219569D01*
X0048893Y0220336D01*
D15*
X0177937Y0216438D02*
X0177937Y0212168D01*
X0179005Y0211100D01*
X0181140Y0211100D01*
X0182207Y0212168D01*
X0184383Y0212168D02*
X0185450Y0213235D01*
X0188653Y0213235D01*
X0188653Y0214303D02*
X0188653Y0211100D01*
X0185450Y0211100D01*
X0184383Y0212168D01*
X0185450Y0215370D02*
X0187585Y0215370D01*
X0188653Y0214303D01*
X0190828Y0215370D02*
X0190828Y0211100D01*
X0190828Y0213235D02*
X0192963Y0215370D01*
X0194031Y0215370D01*
X0196199Y0214303D02*
X0197267Y0213235D01*
X0199402Y0213235D01*
X0200470Y0212168D01*
X0199402Y0211100D01*
X0196199Y0211100D01*
X0196199Y0214303D02*
X0197267Y0215370D01*
X0200470Y0215370D01*
X0202645Y0214303D02*
X0202645Y0212168D01*
X0203712Y0211100D01*
X0205848Y0211100D01*
X0206915Y0212168D01*
X0206915Y0214303D01*
X0205848Y0215370D01*
X0203712Y0215370D01*
X0202645Y0214303D01*
X0209090Y0215370D02*
X0209090Y0211100D01*
X0209090Y0215370D02*
X0212293Y0215370D01*
X0213361Y0214303D01*
X0213361Y0211100D01*
X0221981Y0211100D02*
X0225184Y0211100D01*
X0226252Y0212168D01*
X0226252Y0213235D01*
X0225184Y0214303D01*
X0221981Y0214303D01*
X0221981Y0217505D02*
X0221981Y0211100D01*
X0225184Y0214303D02*
X0226252Y0215370D01*
X0226252Y0216438D01*
X0225184Y0217505D01*
X0221981Y0217505D01*
X0224103Y0221600D02*
X0219833Y0221600D01*
X0219833Y0228005D01*
X0226278Y0224803D02*
X0227346Y0225870D01*
X0229481Y0225870D01*
X0230549Y0224803D01*
X0230549Y0223735D01*
X0226278Y0223735D01*
X0226278Y0222668D02*
X0226278Y0224803D01*
X0226278Y0222668D02*
X0227346Y0221600D01*
X0229481Y0221600D01*
X0232724Y0222668D02*
X0233791Y0221600D01*
X0234859Y0222668D01*
X0235927Y0221600D01*
X0236994Y0222668D01*
X0236994Y0225870D01*
X0239169Y0225870D02*
X0240237Y0225870D01*
X0240237Y0221600D01*
X0239169Y0221600D02*
X0241305Y0221600D01*
X0243466Y0221600D02*
X0246669Y0221600D01*
X0247737Y0222668D01*
X0246669Y0223735D01*
X0244534Y0223735D01*
X0243466Y0224803D01*
X0244534Y0225870D01*
X0247737Y0225870D01*
X0247763Y0232100D02*
X0250966Y0232100D01*
X0252034Y0233168D01*
X0250966Y0234235D01*
X0248831Y0234235D01*
X0247763Y0235303D01*
X0248831Y0236370D01*
X0252034Y0236370D01*
X0254209Y0235303D02*
X0254209Y0233168D01*
X0255276Y0232100D01*
X0257412Y0232100D01*
X0258479Y0233168D01*
X0258479Y0235303D01*
X0257412Y0236370D01*
X0255276Y0236370D01*
X0254209Y0235303D01*
X0260654Y0236370D02*
X0260654Y0232100D01*
X0260654Y0236370D02*
X0263857Y0236370D01*
X0264925Y0235303D01*
X0264925Y0232100D01*
X0245602Y0232100D02*
X0243466Y0232100D01*
X0244534Y0232100D02*
X0244534Y0238505D01*
X0243466Y0238505D01*
X0241298Y0236370D02*
X0240230Y0236370D01*
X0238095Y0234235D01*
X0238095Y0232100D02*
X0238095Y0236370D01*
X0235920Y0235303D02*
X0235920Y0232100D01*
X0232717Y0232100D01*
X0231650Y0233168D01*
X0232717Y0234235D01*
X0235920Y0234235D01*
X0235920Y0235303D02*
X0234852Y0236370D01*
X0232717Y0236370D01*
X0229474Y0237438D02*
X0228407Y0238505D01*
X0226272Y0238505D01*
X0225204Y0237438D01*
X0225204Y0233168D01*
X0226272Y0232100D01*
X0228407Y0232100D01*
X0229474Y0233168D01*
X0232724Y0225870D02*
X0232724Y0222668D01*
X0240237Y0228005D02*
X0240237Y0229073D01*
X0241318Y0217505D02*
X0241318Y0211100D01*
X0241318Y0213235D02*
X0244521Y0215370D01*
X0246689Y0214303D02*
X0247757Y0215370D01*
X0249892Y0215370D01*
X0250959Y0214303D01*
X0250959Y0213235D01*
X0246689Y0213235D01*
X0246689Y0212168D02*
X0246689Y0214303D01*
X0246689Y0212168D02*
X0247757Y0211100D01*
X0249892Y0211100D01*
X0253135Y0211100D02*
X0253135Y0215370D01*
X0253135Y0213235D02*
X0255270Y0215370D01*
X0256337Y0215370D01*
X0244521Y0211100D02*
X0241318Y0213235D01*
X0239143Y0214303D02*
X0239143Y0211100D01*
X0239143Y0214303D02*
X0238075Y0215370D01*
X0234872Y0215370D01*
X0234872Y0211100D01*
X0232697Y0211100D02*
X0232697Y0215370D01*
X0232697Y0211100D02*
X0229494Y0211100D01*
X0228427Y0212168D01*
X0228427Y0215370D01*
X0210151Y0225870D02*
X0208016Y0223735D01*
X0208016Y0221600D02*
X0208016Y0225870D01*
X0210151Y0225870D02*
X0211219Y0225870D01*
X0205841Y0224803D02*
X0204773Y0225870D01*
X0202638Y0225870D01*
X0201571Y0224803D01*
X0201571Y0222668D01*
X0202638Y0221600D01*
X0204773Y0221600D01*
X0205841Y0222668D01*
X0205841Y0224803D01*
X0199409Y0221600D02*
X0197274Y0221600D01*
X0198341Y0221600D02*
X0198341Y0228005D01*
X0197274Y0228005D01*
X0195098Y0225870D02*
X0195098Y0220532D01*
X0194031Y0219465D01*
X0192963Y0219465D01*
X0191896Y0221600D02*
X0195098Y0221600D01*
X0191896Y0221600D02*
X0190828Y0222668D01*
X0190828Y0225870D01*
X0188653Y0224803D02*
X0188653Y0221600D01*
X0185450Y0221600D01*
X0184383Y0222668D01*
X0185450Y0223735D01*
X0188653Y0223735D01*
X0188653Y0224803D02*
X0187585Y0225870D01*
X0185450Y0225870D01*
X0182207Y0228005D02*
X0177937Y0228005D01*
X0180072Y0228005D02*
X0180072Y0221600D01*
X0179005Y0217505D02*
X0177937Y0216438D01*
X0179005Y0217505D02*
X0181140Y0217505D01*
X0182207Y0216438D01*
X0182207Y0232100D02*
X0182207Y0238505D01*
X0180072Y0236370D01*
X0177937Y0238505D01*
X0177937Y0232100D01*
X0184383Y0232100D02*
X0186518Y0232100D01*
X0185450Y0232100D02*
X0185450Y0236370D01*
X0184383Y0236370D01*
X0185450Y0238505D02*
X0185450Y0239573D01*
X0185450Y0242600D02*
X0185450Y0246870D01*
X0184383Y0246870D01*
X0185450Y0249005D02*
X0185450Y0250073D01*
X0182207Y0249005D02*
X0182207Y0242600D01*
X0180072Y0244735D01*
X0177937Y0242600D01*
X0177937Y0249005D01*
X0184383Y0242600D02*
X0186518Y0242600D01*
X0189747Y0243668D02*
X0190815Y0242600D01*
X0189747Y0243668D02*
X0189747Y0247938D01*
X0188680Y0246870D02*
X0190815Y0246870D01*
X0192977Y0245803D02*
X0194044Y0246870D01*
X0196179Y0246870D01*
X0197247Y0245803D01*
X0197247Y0242600D01*
X0192977Y0242600D02*
X0192977Y0249005D01*
X0205868Y0249005D02*
X0205868Y0242600D01*
X0210138Y0242600D01*
X0212313Y0243668D02*
X0213381Y0242600D01*
X0215516Y0242600D01*
X0216583Y0243668D01*
X0216583Y0245803D01*
X0215516Y0246870D01*
X0213381Y0246870D01*
X0212313Y0245803D01*
X0212313Y0243668D01*
X0214462Y0238505D02*
X0215529Y0238505D01*
X0215529Y0232100D01*
X0214462Y0232100D02*
X0216597Y0232100D01*
X0212286Y0234235D02*
X0212286Y0235303D01*
X0211219Y0236370D01*
X0209084Y0236370D01*
X0208016Y0235303D01*
X0208016Y0233168D01*
X0209084Y0232100D01*
X0211219Y0232100D01*
X0212286Y0234235D02*
X0208016Y0234235D01*
X0205841Y0234235D02*
X0202638Y0234235D01*
X0201571Y0233168D01*
X0202638Y0232100D01*
X0205841Y0232100D01*
X0205841Y0235303D01*
X0204773Y0236370D01*
X0202638Y0236370D01*
X0199395Y0235303D02*
X0199395Y0232100D01*
X0199395Y0235303D02*
X0198328Y0236370D01*
X0196193Y0236370D01*
X0195125Y0235303D01*
X0192950Y0236370D02*
X0189747Y0236370D01*
X0188680Y0235303D01*
X0188680Y0233168D01*
X0189747Y0232100D01*
X0192950Y0232100D01*
X0195125Y0232100D02*
X0195125Y0238505D01*
X0218759Y0246870D02*
X0220894Y0242600D01*
X0223029Y0246870D01*
X0225204Y0245803D02*
X0225204Y0243668D01*
X0226272Y0242600D01*
X0228407Y0242600D01*
X0229474Y0244735D02*
X0225204Y0244735D01*
X0225204Y0245803D02*
X0226272Y0246870D01*
X0228407Y0246870D01*
X0229474Y0245803D01*
X0229474Y0244735D01*
X0238095Y0249005D02*
X0242365Y0249005D01*
X0240230Y0249005D02*
X0240230Y0242600D01*
X0244541Y0243668D02*
X0244541Y0245803D01*
X0245608Y0246870D01*
X0247743Y0246870D01*
X0248811Y0245803D01*
X0248811Y0243668D01*
X0247743Y0242600D01*
X0245608Y0242600D01*
X0244541Y0243668D01*
D16*
X0267000Y0255150D02*
X0267000Y0257952D01*
X0268401Y0257952D01*
X0268869Y0257485D01*
X0268869Y0256551D01*
X0268401Y0256084D01*
X0267000Y0256084D01*
X0267934Y0256084D02*
X0268869Y0255150D01*
X0269763Y0255617D02*
X0270230Y0255150D01*
X0271164Y0255150D01*
X0271631Y0255617D01*
X0271631Y0256551D01*
X0271164Y0257018D01*
X0270697Y0257018D01*
X0269763Y0256551D01*
X0269763Y0257952D01*
X0271631Y0257952D01*
X0278250Y0257952D02*
X0278250Y0255150D01*
X0278250Y0256084D02*
X0279651Y0256084D01*
X0280119Y0256551D01*
X0280119Y0257485D01*
X0279651Y0257952D01*
X0278250Y0257952D01*
X0279184Y0256084D02*
X0280119Y0255150D01*
X0281013Y0256551D02*
X0282881Y0256551D01*
X0282414Y0255150D02*
X0282414Y0257952D01*
X0281013Y0256551D01*
X0034788Y0212735D02*
X0034421Y0213102D01*
X0033320Y0213102D01*
X0033320Y0210900D01*
X0034421Y0210900D01*
X0034788Y0211267D01*
X0034788Y0212735D01*
X0032578Y0213102D02*
X0032578Y0210900D01*
X0031110Y0213102D01*
X0031110Y0210900D01*
X0030368Y0211267D02*
X0030368Y0212001D01*
X0029634Y0212001D01*
X0030368Y0212735D02*
X0030001Y0213102D01*
X0029267Y0213102D01*
X0028900Y0212735D01*
X0028900Y0211267D01*
X0029267Y0210900D01*
X0030001Y0210900D01*
X0030368Y0211267D01*
X0019788Y0207235D02*
X0019421Y0207602D01*
X0018687Y0207602D01*
X0018320Y0207235D01*
X0018320Y0205767D01*
X0018687Y0205400D01*
X0019421Y0205400D01*
X0019788Y0205767D01*
X0017578Y0205767D02*
X0017211Y0205400D01*
X0016477Y0205400D01*
X0016110Y0205767D01*
X0016110Y0207235D01*
X0016477Y0207602D01*
X0017211Y0207602D01*
X0017578Y0207235D01*
X0015368Y0207602D02*
X0015368Y0206134D01*
X0014634Y0205400D01*
X0013900Y0206134D01*
X0013900Y0207602D01*
X0015900Y0202602D02*
X0017368Y0202602D01*
X0016634Y0202602D02*
X0016634Y0200400D01*
X0018110Y0200400D02*
X0019578Y0202602D01*
X0018110Y0202602D02*
X0019578Y0200400D01*
X0019578Y0197602D02*
X0018110Y0195400D01*
X0017368Y0195400D02*
X0016634Y0196134D01*
X0017001Y0196134D02*
X0015900Y0196134D01*
X0015900Y0195400D02*
X0015900Y0197602D01*
X0017001Y0197602D01*
X0017368Y0197235D01*
X0017368Y0196501D01*
X0017001Y0196134D01*
X0018110Y0197602D02*
X0019578Y0195400D01*
X0023400Y0100602D02*
X0024134Y0099868D01*
X0024868Y0100602D01*
X0024868Y0098400D01*
X0025610Y0098400D02*
X0026344Y0098400D01*
X0025977Y0098400D02*
X0025977Y0100602D01*
X0025610Y0100602D02*
X0026344Y0100602D01*
X0027083Y0100235D02*
X0027450Y0100602D01*
X0028184Y0100602D01*
X0028551Y0100235D01*
X0029293Y0100235D02*
X0029660Y0100602D01*
X0030394Y0100602D01*
X0030761Y0100235D01*
X0030761Y0098767D01*
X0030394Y0098400D01*
X0029660Y0098400D01*
X0029293Y0098767D01*
X0029293Y0100235D01*
X0028551Y0099134D02*
X0028551Y0098767D01*
X0028184Y0098400D01*
X0027450Y0098400D01*
X0027083Y0098767D01*
X0027450Y0099501D02*
X0028184Y0099501D01*
X0028551Y0099134D01*
X0027450Y0099501D02*
X0027083Y0099868D01*
X0027083Y0100235D01*
X0023400Y0100602D02*
X0023400Y0098400D01*
X0025267Y0095102D02*
X0024900Y0094735D01*
X0024900Y0094368D01*
X0025267Y0094001D01*
X0026001Y0094001D01*
X0026368Y0093634D01*
X0026368Y0093267D01*
X0026001Y0092900D01*
X0025267Y0092900D01*
X0024900Y0093267D01*
X0025267Y0095102D02*
X0026001Y0095102D01*
X0026368Y0094735D01*
X0027110Y0094735D02*
X0027110Y0093267D01*
X0027477Y0092900D01*
X0028211Y0092900D01*
X0028578Y0093267D01*
X0029320Y0093634D02*
X0030788Y0095102D01*
X0029320Y0095102D02*
X0029320Y0092900D01*
X0029687Y0094001D02*
X0030788Y0092900D01*
X0028578Y0094735D02*
X0028211Y0095102D01*
X0027477Y0095102D01*
X0027110Y0094735D01*
X0053400Y0098134D02*
X0054134Y0097400D01*
X0054868Y0098134D01*
X0054868Y0099602D01*
X0055610Y0099235D02*
X0055610Y0097767D01*
X0055977Y0097400D01*
X0056711Y0097400D01*
X0057078Y0097767D01*
X0057820Y0097767D02*
X0058187Y0097400D01*
X0058921Y0097400D01*
X0059288Y0097767D01*
X0059288Y0099235D02*
X0058921Y0099602D01*
X0058187Y0099602D01*
X0057820Y0099235D01*
X0057820Y0097767D01*
X0057078Y0099235D02*
X0056711Y0099602D01*
X0055977Y0099602D01*
X0055610Y0099235D01*
X0053400Y0099602D02*
X0053400Y0098134D01*
X0053900Y0090102D02*
X0054634Y0089368D01*
X0055368Y0090102D01*
X0055368Y0087900D01*
X0056110Y0088267D02*
X0056477Y0087900D01*
X0057211Y0087900D01*
X0057578Y0088267D01*
X0057578Y0089735D01*
X0057211Y0090102D01*
X0056477Y0090102D01*
X0056110Y0089735D01*
X0056110Y0088267D01*
X0058320Y0088267D02*
X0058687Y0087900D01*
X0059421Y0087900D01*
X0059788Y0088267D01*
X0059788Y0088634D01*
X0059421Y0089001D01*
X0058687Y0089001D01*
X0058320Y0089368D01*
X0058320Y0089735D01*
X0058687Y0090102D01*
X0059421Y0090102D01*
X0059788Y0089735D01*
X0060530Y0090102D02*
X0061264Y0090102D01*
X0060897Y0090102D02*
X0060897Y0087900D01*
X0060530Y0087900D02*
X0061264Y0087900D01*
X0053900Y0087900D02*
X0053900Y0090102D01*
X0033207Y0075602D02*
X0031740Y0075602D01*
X0032473Y0075602D02*
X0032473Y0073400D01*
X0030998Y0073400D02*
X0029530Y0073400D01*
X0029530Y0075602D01*
X0030998Y0075602D01*
X0030264Y0074501D02*
X0029530Y0074501D01*
X0028788Y0074134D02*
X0028788Y0073767D01*
X0028421Y0073400D01*
X0027687Y0073400D01*
X0027320Y0073767D01*
X0027687Y0074501D02*
X0028421Y0074501D01*
X0028788Y0074134D01*
X0028788Y0075235D02*
X0028421Y0075602D01*
X0027687Y0075602D01*
X0027320Y0075235D01*
X0027320Y0074868D01*
X0027687Y0074501D01*
X0026578Y0075602D02*
X0025110Y0075602D01*
X0025110Y0073400D01*
X0026578Y0073400D01*
X0025844Y0074501D02*
X0025110Y0074501D01*
X0024368Y0074501D02*
X0024001Y0074134D01*
X0022900Y0074134D01*
X0023634Y0074134D02*
X0024368Y0073400D01*
X0024368Y0074501D02*
X0024368Y0075235D01*
X0024001Y0075602D01*
X0022900Y0075602D01*
X0022900Y0073400D01*
D17*
X0027091Y0238224D02*
X0050354Y0242326D01*
X0050475Y0242349D01*
X0050596Y0242376D01*
X0050715Y0242407D01*
X0050834Y0242442D01*
X0050952Y0242480D01*
X0051068Y0242523D01*
X0051183Y0242568D01*
X0051296Y0242618D01*
X0051408Y0242670D01*
X0051518Y0242727D01*
X0051627Y0242787D01*
X0051733Y0242850D01*
X0051837Y0242916D01*
X0051939Y0242986D01*
X0052039Y0243059D01*
X0052137Y0243135D01*
X0052232Y0243214D01*
X0052325Y0243296D01*
X0052415Y0243381D01*
X0052502Y0243468D01*
X0052587Y0243558D01*
X0052668Y0243651D01*
X0052747Y0243747D01*
X0052822Y0243845D01*
X0052895Y0243945D01*
X0052964Y0244047D01*
X0053030Y0244152D01*
X0053093Y0244258D01*
X0053153Y0244367D01*
X0053209Y0244477D01*
X0053261Y0244589D01*
X0053310Y0244703D01*
X0053355Y0244818D01*
X0053397Y0244934D01*
X0053435Y0245052D01*
X0053469Y0245171D01*
X0053500Y0245291D01*
X0053527Y0245411D01*
X0053550Y0245533D01*
X0053569Y0245655D01*
X0053584Y0245778D01*
X0053595Y0245901D01*
X0053603Y0246024D01*
X0053607Y0246148D01*
X0053606Y0246272D01*
X0053602Y0246395D01*
X0053594Y0246519D01*
X0053582Y0246642D01*
X0053567Y0246765D01*
X0053547Y0246887D01*
X0052180Y0254641D01*
X0021162Y0249172D01*
X0022530Y0241418D01*
X0022553Y0241297D01*
X0022580Y0241176D01*
X0022611Y0241057D01*
X0022646Y0240938D01*
X0022684Y0240820D01*
X0022727Y0240704D01*
X0022772Y0240589D01*
X0022822Y0240476D01*
X0022874Y0240364D01*
X0022931Y0240254D01*
X0022991Y0240145D01*
X0023054Y0240039D01*
X0023120Y0239935D01*
X0023190Y0239833D01*
X0023263Y0239733D01*
X0023339Y0239635D01*
X0023418Y0239540D01*
X0023500Y0239447D01*
X0023585Y0239357D01*
X0023672Y0239270D01*
X0023762Y0239185D01*
X0023855Y0239104D01*
X0023951Y0239025D01*
X0024049Y0238950D01*
X0024149Y0238877D01*
X0024251Y0238808D01*
X0024356Y0238742D01*
X0024462Y0238679D01*
X0024571Y0238619D01*
X0024681Y0238563D01*
X0024793Y0238511D01*
X0024907Y0238462D01*
X0025022Y0238417D01*
X0025138Y0238375D01*
X0025256Y0238337D01*
X0025375Y0238303D01*
X0025495Y0238272D01*
X0025615Y0238245D01*
X0025737Y0238222D01*
X0025859Y0238203D01*
X0025982Y0238188D01*
X0026105Y0238177D01*
X0026228Y0238169D01*
X0026352Y0238165D01*
X0026476Y0238166D01*
X0026599Y0238170D01*
X0026723Y0238178D01*
X0026846Y0238190D01*
X0026969Y0238205D01*
X0027091Y0238225D01*
X0471020Y0246001D02*
X0472387Y0253755D01*
X0503405Y0248286D01*
X0502038Y0240531D01*
X0502015Y0240410D01*
X0501988Y0240289D01*
X0501957Y0240170D01*
X0501922Y0240051D01*
X0501884Y0239933D01*
X0501841Y0239817D01*
X0501796Y0239702D01*
X0501746Y0239589D01*
X0501694Y0239477D01*
X0501637Y0239367D01*
X0501577Y0239258D01*
X0501514Y0239152D01*
X0501448Y0239048D01*
X0501378Y0238946D01*
X0501305Y0238846D01*
X0501229Y0238748D01*
X0501150Y0238653D01*
X0501068Y0238560D01*
X0500983Y0238470D01*
X0500896Y0238383D01*
X0500806Y0238298D01*
X0500713Y0238217D01*
X0500617Y0238138D01*
X0500519Y0238063D01*
X0500419Y0237990D01*
X0500317Y0237921D01*
X0500212Y0237855D01*
X0500106Y0237792D01*
X0499997Y0237732D01*
X0499887Y0237676D01*
X0499775Y0237624D01*
X0499661Y0237575D01*
X0499546Y0237530D01*
X0499430Y0237488D01*
X0499312Y0237450D01*
X0499193Y0237416D01*
X0499073Y0237385D01*
X0498953Y0237358D01*
X0498831Y0237335D01*
X0498709Y0237316D01*
X0498586Y0237301D01*
X0498463Y0237290D01*
X0498340Y0237282D01*
X0498216Y0237278D01*
X0498092Y0237279D01*
X0497969Y0237283D01*
X0497845Y0237291D01*
X0497722Y0237303D01*
X0497599Y0237318D01*
X0497477Y0237338D01*
X0474214Y0241440D01*
X0474213Y0241440D02*
X0474092Y0241463D01*
X0473971Y0241490D01*
X0473852Y0241521D01*
X0473733Y0241556D01*
X0473615Y0241594D01*
X0473499Y0241637D01*
X0473384Y0241682D01*
X0473271Y0241732D01*
X0473159Y0241784D01*
X0473049Y0241841D01*
X0472940Y0241901D01*
X0472834Y0241964D01*
X0472730Y0242030D01*
X0472628Y0242100D01*
X0472528Y0242173D01*
X0472430Y0242249D01*
X0472335Y0242328D01*
X0472242Y0242410D01*
X0472152Y0242495D01*
X0472065Y0242582D01*
X0471980Y0242672D01*
X0471899Y0242765D01*
X0471820Y0242861D01*
X0471745Y0242959D01*
X0471672Y0243059D01*
X0471603Y0243161D01*
X0471537Y0243266D01*
X0471474Y0243372D01*
X0471414Y0243481D01*
X0471358Y0243591D01*
X0471306Y0243703D01*
X0471257Y0243817D01*
X0471212Y0243932D01*
X0471170Y0244048D01*
X0471132Y0244166D01*
X0471098Y0244285D01*
X0471067Y0244405D01*
X0471040Y0244525D01*
X0471017Y0244647D01*
X0470998Y0244769D01*
X0470983Y0244892D01*
X0470972Y0245015D01*
X0470964Y0245138D01*
X0470960Y0245262D01*
X0470961Y0245386D01*
X0470965Y0245509D01*
X0470973Y0245633D01*
X0470985Y0245756D01*
X0471000Y0245879D01*
X0471020Y0246001D01*
D18*
X0289221Y0238099D03*
D19*
X0287357Y0235842D02*
X0306243Y0235842D01*
X0306243Y0252758D01*
X0287357Y0252758D01*
X0287357Y0235842D01*
X0281062Y0231569D02*
X0281062Y0228419D01*
X0278700Y0228419D01*
X0272400Y0228419D02*
X0270038Y0228419D01*
X0270038Y0231569D01*
X0407198Y0237023D02*
X0407198Y0239136D01*
X0408298Y0243080D02*
X0411680Y0243080D01*
X0411680Y0233080D02*
X0408298Y0233080D01*
X0419851Y0119280D02*
X0438749Y0119280D01*
X0438749Y0106288D01*
X0438749Y0104320D01*
X0419851Y0104320D01*
X0419851Y0106288D01*
X0419851Y0119280D01*
X0052706Y0070206D02*
X0040894Y0070206D01*
X0050400Y0061100D02*
X0050402Y0061140D01*
X0050408Y0061179D01*
X0050418Y0061218D01*
X0050431Y0061255D01*
X0050449Y0061291D01*
X0050470Y0061325D01*
X0050494Y0061357D01*
X0050521Y0061386D01*
X0050551Y0061413D01*
X0050583Y0061436D01*
X0050618Y0061456D01*
X0050654Y0061472D01*
X0050692Y0061485D01*
X0050731Y0061494D01*
X0050770Y0061499D01*
X0050810Y0061500D01*
X0050850Y0061497D01*
X0050889Y0061490D01*
X0050927Y0061479D01*
X0050965Y0061465D01*
X0051000Y0061446D01*
X0051033Y0061425D01*
X0051065Y0061400D01*
X0051093Y0061372D01*
X0051119Y0061342D01*
X0051141Y0061309D01*
X0051160Y0061274D01*
X0051176Y0061237D01*
X0051188Y0061199D01*
X0051196Y0061160D01*
X0051200Y0061120D01*
X0051200Y0061080D01*
X0051196Y0061040D01*
X0051188Y0061001D01*
X0051176Y0060963D01*
X0051160Y0060926D01*
X0051141Y0060891D01*
X0051119Y0060858D01*
X0051093Y0060828D01*
X0051065Y0060800D01*
X0051033Y0060775D01*
X0051000Y0060754D01*
X0050965Y0060735D01*
X0050927Y0060721D01*
X0050889Y0060710D01*
X0050850Y0060703D01*
X0050810Y0060700D01*
X0050770Y0060701D01*
X0050731Y0060706D01*
X0050692Y0060715D01*
X0050654Y0060728D01*
X0050618Y0060744D01*
X0050583Y0060764D01*
X0050551Y0060787D01*
X0050521Y0060814D01*
X0050494Y0060843D01*
X0050470Y0060875D01*
X0050449Y0060909D01*
X0050431Y0060945D01*
X0050418Y0060982D01*
X0050408Y0061021D01*
X0050402Y0061060D01*
X0050400Y0061100D01*
X0052706Y0058394D02*
X0040894Y0058394D01*
D20*
X0034800Y0074300D02*
X0031800Y0077300D01*
X0031800Y0082300D01*
X0033800Y0084300D01*
X0031800Y0086300D01*
X0031800Y0092300D01*
X0033800Y0094300D01*
X0031800Y0096300D01*
X0031800Y0101300D01*
X0034800Y0104300D01*
X0048800Y0104300D01*
X0051800Y0101300D01*
X0051800Y0096300D01*
X0049800Y0094300D01*
X0051800Y0092300D01*
X0051800Y0086300D01*
X0049800Y0084300D01*
X0051800Y0082300D01*
X0051800Y0077300D01*
X0048800Y0074300D01*
X0034800Y0074300D01*
X0055550Y0100550D02*
X0056800Y0100550D01*
X0056800Y0108050D01*
X0055550Y0108050D01*
X0055550Y0100550D01*
X0056800Y0100550D02*
X0074300Y0100550D01*
X0074300Y0108050D01*
X0056800Y0108050D01*
X0109925Y0138050D02*
X0111800Y0138050D01*
X0111800Y0137090D01*
X0111800Y0138050D02*
X0113675Y0138050D01*
X0111800Y0140550D01*
X0111800Y0141510D01*
X0111800Y0140550D02*
X0113675Y0140550D01*
X0111800Y0140550D02*
X0109925Y0140550D01*
X0111800Y0140550D02*
X0109925Y0138050D01*
X0123050Y0146800D02*
X0130550Y0146800D01*
X0130550Y0129300D01*
X0130550Y0128050D01*
X0123050Y0128050D01*
X0123050Y0129300D01*
X0130550Y0129300D01*
X0123050Y0129300D02*
X0123050Y0146800D01*
X0152115Y0175087D02*
X0169831Y0175087D01*
X0169831Y0173513D01*
X0173769Y0173513D01*
X0173769Y0267213D01*
X0169831Y0267213D01*
X0169831Y0265639D01*
X0152115Y0265639D01*
X0152115Y0264159D01*
X0152461Y0263324D02*
X0154083Y0261702D01*
X0152115Y0261702D01*
X0152461Y0263324D02*
X0152415Y0263372D01*
X0152373Y0263423D01*
X0152333Y0263476D01*
X0152296Y0263531D01*
X0152262Y0263588D01*
X0152232Y0263647D01*
X0152205Y0263707D01*
X0152181Y0263769D01*
X0152161Y0263832D01*
X0152145Y0263896D01*
X0152132Y0263961D01*
X0152122Y0264027D01*
X0152117Y0264093D01*
X0152115Y0264159D01*
X0142272Y0198360D02*
X0134398Y0198360D01*
X0134398Y0193439D01*
X0142272Y0193439D01*
X0142272Y0198360D01*
X0152115Y0179024D02*
X0154083Y0179024D01*
X0152461Y0177402D01*
X0152115Y0176567D02*
X0152115Y0175087D01*
X0152115Y0176567D02*
X0152117Y0176633D01*
X0152122Y0176699D01*
X0152132Y0176765D01*
X0152145Y0176830D01*
X0152161Y0176894D01*
X0152181Y0176957D01*
X0152205Y0177019D01*
X0152232Y0177079D01*
X0152262Y0177138D01*
X0152296Y0177195D01*
X0152333Y0177250D01*
X0152373Y0177303D01*
X0152415Y0177354D01*
X0152461Y0177402D01*
X0183318Y0194143D02*
X0190248Y0194143D01*
X0190527Y0193645D02*
X0183603Y0193645D01*
X0183888Y0193146D02*
X0190806Y0193146D01*
X0191085Y0192648D02*
X0184173Y0192648D01*
X0184457Y0192149D02*
X0191364Y0192149D01*
X0191643Y0191651D02*
X0184742Y0191651D01*
X0185027Y0191152D02*
X0191923Y0191152D01*
X0192202Y0190654D02*
X0185312Y0190654D01*
X0185597Y0190155D02*
X0192481Y0190155D01*
X0192760Y0189657D02*
X0185882Y0189657D01*
X0186167Y0189158D02*
X0193039Y0189158D01*
X0193318Y0188660D02*
X0186452Y0188660D01*
X0186736Y0188161D02*
X0193598Y0188161D01*
X0194002Y0188161D02*
X0200617Y0188161D01*
X0200318Y0187663D02*
X0187021Y0187663D01*
X0187306Y0187164D02*
X0200019Y0187164D01*
X0199720Y0186666D02*
X0187591Y0186666D01*
X0187876Y0186167D02*
X0199420Y0186167D01*
X0199121Y0185669D02*
X0188161Y0185669D01*
X0188446Y0185170D02*
X0198822Y0185170D01*
X0198523Y0184672D02*
X0188730Y0184672D01*
X0189015Y0184173D02*
X0198224Y0184173D01*
X0197925Y0183675D02*
X0189300Y0183675D01*
X0189585Y0183176D02*
X0197626Y0183176D01*
X0197327Y0182678D02*
X0189870Y0182678D01*
X0190155Y0182179D02*
X0197028Y0182179D01*
X0196728Y0181681D02*
X0190440Y0181681D01*
X0190724Y0181182D02*
X0196429Y0181182D01*
X0196130Y0180684D02*
X0191009Y0180684D01*
X0191294Y0180185D02*
X0195831Y0180185D01*
X0195532Y0179687D02*
X0191579Y0179687D01*
X0191800Y0179300D02*
X0179800Y0200300D01*
X0180300Y0200300D01*
X0186800Y0200300D01*
X0193800Y0187800D01*
X0200800Y0200300D01*
X0207800Y0200300D01*
X0207800Y0172300D01*
X0201300Y0172300D01*
X0201300Y0189300D01*
X0195300Y0179300D01*
X0191800Y0179300D01*
X0201300Y0179188D02*
X0207800Y0179188D01*
X0207800Y0178690D02*
X0201300Y0178690D01*
X0201300Y0178191D02*
X0207800Y0178191D01*
X0207800Y0177693D02*
X0201300Y0177693D01*
X0201300Y0177194D02*
X0207800Y0177194D01*
X0207800Y0176696D02*
X0201300Y0176696D01*
X0201300Y0176197D02*
X0207800Y0176197D01*
X0207800Y0175699D02*
X0201300Y0175699D01*
X0201300Y0175200D02*
X0207800Y0175200D01*
X0207800Y0174702D02*
X0201300Y0174702D01*
X0201300Y0174203D02*
X0207800Y0174203D01*
X0207800Y0173705D02*
X0201300Y0173705D01*
X0201300Y0173206D02*
X0207800Y0173206D01*
X0207800Y0172708D02*
X0201300Y0172708D01*
X0201300Y0179687D02*
X0207800Y0179687D01*
X0207800Y0180185D02*
X0201300Y0180185D01*
X0201300Y0180684D02*
X0207800Y0180684D01*
X0207800Y0181182D02*
X0201300Y0181182D01*
X0201300Y0181681D02*
X0207800Y0181681D01*
X0207800Y0182179D02*
X0201300Y0182179D01*
X0201300Y0182678D02*
X0207800Y0182678D01*
X0207800Y0183176D02*
X0201300Y0183176D01*
X0201300Y0183675D02*
X0207800Y0183675D01*
X0207800Y0184173D02*
X0201300Y0184173D01*
X0201300Y0184672D02*
X0207800Y0184672D01*
X0207800Y0185170D02*
X0201300Y0185170D01*
X0201300Y0185669D02*
X0207800Y0185669D01*
X0207800Y0186167D02*
X0201300Y0186167D01*
X0201300Y0186666D02*
X0207800Y0186666D01*
X0207800Y0187164D02*
X0201300Y0187164D01*
X0201300Y0187663D02*
X0207800Y0187663D01*
X0207800Y0188161D02*
X0201300Y0188161D01*
X0201300Y0188660D02*
X0207800Y0188660D01*
X0207800Y0189158D02*
X0201300Y0189158D01*
X0201215Y0189158D02*
X0194561Y0189158D01*
X0194282Y0188660D02*
X0200916Y0188660D01*
X0195957Y0191651D02*
X0207800Y0191651D01*
X0207800Y0192149D02*
X0196236Y0192149D01*
X0196515Y0192648D02*
X0207800Y0192648D01*
X0207800Y0193146D02*
X0196794Y0193146D01*
X0197073Y0193645D02*
X0207800Y0193645D01*
X0207800Y0194143D02*
X0197352Y0194143D01*
X0197632Y0194642D02*
X0207800Y0194642D01*
X0207800Y0195141D02*
X0197911Y0195141D01*
X0198190Y0195639D02*
X0207800Y0195639D01*
X0207800Y0196138D02*
X0198469Y0196138D01*
X0198748Y0196636D02*
X0207800Y0196636D01*
X0207800Y0197135D02*
X0199027Y0197135D01*
X0199307Y0197633D02*
X0207800Y0197633D01*
X0207800Y0198132D02*
X0199586Y0198132D01*
X0199865Y0198630D02*
X0207800Y0198630D01*
X0207800Y0199129D02*
X0200144Y0199129D01*
X0200423Y0199627D02*
X0207800Y0199627D01*
X0207800Y0200126D02*
X0200702Y0200126D01*
X0189968Y0194642D02*
X0183033Y0194642D01*
X0182748Y0195141D02*
X0189689Y0195141D01*
X0189410Y0195639D02*
X0182463Y0195639D01*
X0182179Y0196138D02*
X0189131Y0196138D01*
X0188852Y0196636D02*
X0181894Y0196636D01*
X0181609Y0197135D02*
X0188573Y0197135D01*
X0188293Y0197633D02*
X0181324Y0197633D01*
X0181039Y0198132D02*
X0188014Y0198132D01*
X0187735Y0198630D02*
X0180754Y0198630D01*
X0180469Y0199129D02*
X0187456Y0199129D01*
X0187177Y0199627D02*
X0180185Y0199627D01*
X0179900Y0200126D02*
X0186898Y0200126D01*
X0195677Y0191152D02*
X0207800Y0191152D01*
X0207800Y0190654D02*
X0195398Y0190654D01*
X0195119Y0190155D02*
X0207800Y0190155D01*
X0207800Y0189657D02*
X0194840Y0189657D01*
X0214505Y0182179D02*
X0218210Y0182179D01*
X0217715Y0182179D02*
X0235919Y0182179D01*
X0236115Y0181681D02*
X0217366Y0181681D01*
X0217018Y0181182D02*
X0236311Y0181182D01*
X0236506Y0180684D02*
X0216669Y0180684D01*
X0216320Y0180185D02*
X0236702Y0180185D01*
X0236898Y0179687D02*
X0215971Y0179687D01*
X0215622Y0179188D02*
X0237094Y0179188D01*
X0237290Y0178690D02*
X0215273Y0178690D01*
X0214924Y0178191D02*
X0237486Y0178191D01*
X0237681Y0177693D02*
X0214575Y0177693D01*
X0214226Y0177194D02*
X0237877Y0177194D01*
X0238073Y0176696D02*
X0230846Y0176696D01*
X0230800Y0176800D02*
X0232800Y0172300D01*
X0239800Y0172300D01*
X0228800Y0200300D01*
X0221300Y0200300D01*
X0210800Y0172300D01*
X0213300Y0172300D01*
X0213800Y0172300D01*
X0226300Y0200300D01*
X0221300Y0200300D01*
X0224800Y0192800D01*
X0228800Y0182800D01*
X0221300Y0182800D01*
X0224800Y0192300D01*
X0210800Y0172300D01*
X0217300Y0172300D01*
X0219300Y0176800D01*
X0230800Y0176800D01*
X0231068Y0176197D02*
X0238269Y0176197D01*
X0238465Y0175699D02*
X0231290Y0175699D01*
X0231511Y0175200D02*
X0238661Y0175200D01*
X0238857Y0174702D02*
X0231733Y0174702D01*
X0231954Y0174203D02*
X0239052Y0174203D01*
X0239248Y0173705D02*
X0232176Y0173705D01*
X0232397Y0173206D02*
X0239444Y0173206D01*
X0239640Y0172708D02*
X0232619Y0172708D01*
X0219254Y0176696D02*
X0213877Y0176696D01*
X0213528Y0176197D02*
X0219032Y0176197D01*
X0218810Y0175699D02*
X0213179Y0175699D01*
X0212830Y0175200D02*
X0218589Y0175200D01*
X0218367Y0174702D02*
X0212481Y0174702D01*
X0212132Y0174203D02*
X0218146Y0174203D01*
X0217924Y0173705D02*
X0211783Y0173705D01*
X0211327Y0173705D02*
X0214427Y0173705D01*
X0214650Y0174203D02*
X0211514Y0174203D01*
X0211701Y0174702D02*
X0214872Y0174702D01*
X0215095Y0175200D02*
X0211888Y0175200D01*
X0212074Y0175699D02*
X0215317Y0175699D01*
X0215540Y0176197D02*
X0212261Y0176197D01*
X0212448Y0176696D02*
X0215762Y0176696D01*
X0215985Y0177194D02*
X0212635Y0177194D01*
X0212822Y0177693D02*
X0216207Y0177693D01*
X0216430Y0178191D02*
X0213009Y0178191D01*
X0213196Y0178690D02*
X0216653Y0178690D01*
X0216875Y0179188D02*
X0213383Y0179188D01*
X0213570Y0179687D02*
X0217098Y0179687D01*
X0217320Y0180185D02*
X0213757Y0180185D01*
X0213944Y0180684D02*
X0217543Y0180684D01*
X0217765Y0181182D02*
X0214131Y0181182D01*
X0214318Y0181681D02*
X0217988Y0181681D01*
X0218064Y0182678D02*
X0235723Y0182678D01*
X0235527Y0183176D02*
X0228649Y0183176D01*
X0228450Y0183675D02*
X0235331Y0183675D01*
X0235136Y0184173D02*
X0228251Y0184173D01*
X0228051Y0184672D02*
X0234940Y0184672D01*
X0234744Y0185170D02*
X0227852Y0185170D01*
X0227652Y0185669D02*
X0234548Y0185669D01*
X0234352Y0186167D02*
X0227453Y0186167D01*
X0227254Y0186666D02*
X0234156Y0186666D01*
X0233960Y0187164D02*
X0227054Y0187164D01*
X0226855Y0187663D02*
X0233765Y0187663D01*
X0233569Y0188161D02*
X0226655Y0188161D01*
X0226456Y0188660D02*
X0233373Y0188660D01*
X0233177Y0189158D02*
X0226257Y0189158D01*
X0226057Y0189657D02*
X0232981Y0189657D01*
X0232785Y0190155D02*
X0225858Y0190155D01*
X0225658Y0190654D02*
X0232590Y0190654D01*
X0232394Y0191152D02*
X0225459Y0191152D01*
X0225260Y0191651D02*
X0232198Y0191651D01*
X0232002Y0192149D02*
X0225060Y0192149D01*
X0224785Y0192149D02*
X0221315Y0192149D01*
X0221077Y0191651D02*
X0224501Y0191651D01*
X0224561Y0191651D02*
X0224346Y0191651D01*
X0224377Y0191152D02*
X0223997Y0191152D01*
X0224216Y0191152D02*
X0220838Y0191152D01*
X0220600Y0190654D02*
X0223931Y0190654D01*
X0224194Y0190654D02*
X0223648Y0190654D01*
X0223646Y0190155D02*
X0220361Y0190155D01*
X0220123Y0189657D02*
X0223361Y0189657D01*
X0222950Y0189657D02*
X0223826Y0189657D01*
X0224010Y0190155D02*
X0223299Y0190155D01*
X0223076Y0189158D02*
X0219884Y0189158D01*
X0219646Y0188660D02*
X0222791Y0188660D01*
X0222601Y0189158D02*
X0223643Y0189158D01*
X0223459Y0188660D02*
X0222252Y0188660D01*
X0222506Y0188161D02*
X0219408Y0188161D01*
X0219169Y0187663D02*
X0222222Y0187663D01*
X0221937Y0187164D02*
X0218931Y0187164D01*
X0218692Y0186666D02*
X0221652Y0186666D01*
X0221367Y0186167D02*
X0218454Y0186167D01*
X0218216Y0185669D02*
X0221082Y0185669D01*
X0220797Y0185170D02*
X0217977Y0185170D01*
X0217800Y0184800D02*
X0220300Y0184300D01*
X0226300Y0194800D01*
X0223300Y0196300D01*
X0217800Y0184800D01*
X0218441Y0184672D02*
X0220512Y0184672D01*
X0219809Y0185170D02*
X0222173Y0185170D01*
X0221990Y0184672D02*
X0219460Y0184672D01*
X0219323Y0184672D02*
X0215439Y0184672D01*
X0215626Y0185170D02*
X0219546Y0185170D01*
X0219768Y0185669D02*
X0215813Y0185669D01*
X0216000Y0186167D02*
X0219991Y0186167D01*
X0220507Y0186167D02*
X0222541Y0186167D01*
X0222357Y0185669D02*
X0220158Y0185669D01*
X0220213Y0186666D02*
X0216187Y0186666D01*
X0216374Y0187164D02*
X0220436Y0187164D01*
X0220658Y0187663D02*
X0216561Y0187663D01*
X0216748Y0188161D02*
X0220881Y0188161D01*
X0221104Y0188660D02*
X0216935Y0188660D01*
X0217122Y0189158D02*
X0221326Y0189158D01*
X0221549Y0189657D02*
X0217309Y0189657D01*
X0217496Y0190155D02*
X0221771Y0190155D01*
X0221994Y0190654D02*
X0217683Y0190654D01*
X0217870Y0191152D02*
X0222216Y0191152D01*
X0222439Y0191651D02*
X0218057Y0191651D01*
X0218244Y0192149D02*
X0222661Y0192149D01*
X0222884Y0192648D02*
X0218430Y0192648D01*
X0218617Y0193146D02*
X0223106Y0193146D01*
X0223329Y0193645D02*
X0218804Y0193645D01*
X0218991Y0194143D02*
X0223552Y0194143D01*
X0223774Y0194642D02*
X0219178Y0194642D01*
X0219365Y0195141D02*
X0223997Y0195141D01*
X0223708Y0195141D02*
X0230827Y0195141D01*
X0230631Y0195639D02*
X0223475Y0195639D01*
X0222984Y0195639D02*
X0224622Y0195639D01*
X0224219Y0195639D02*
X0219552Y0195639D01*
X0219739Y0196138D02*
X0224442Y0196138D01*
X0224664Y0196636D02*
X0219926Y0196636D01*
X0220113Y0197135D02*
X0224887Y0197135D01*
X0225109Y0197633D02*
X0220300Y0197633D01*
X0220487Y0198132D02*
X0225332Y0198132D01*
X0225555Y0198630D02*
X0220674Y0198630D01*
X0220861Y0199129D02*
X0225777Y0199129D01*
X0226000Y0199627D02*
X0221048Y0199627D01*
X0221235Y0200126D02*
X0226222Y0200126D01*
X0228869Y0200126D02*
X0221381Y0200126D01*
X0221614Y0199627D02*
X0229064Y0199627D01*
X0229260Y0199129D02*
X0221847Y0199129D01*
X0222079Y0198630D02*
X0229456Y0198630D01*
X0229652Y0198132D02*
X0222312Y0198132D01*
X0222545Y0197633D02*
X0229848Y0197633D01*
X0230044Y0197135D02*
X0222777Y0197135D01*
X0223010Y0196636D02*
X0230239Y0196636D01*
X0230435Y0196138D02*
X0223242Y0196138D01*
X0223222Y0196138D02*
X0223625Y0196138D01*
X0222745Y0195141D02*
X0225619Y0195141D01*
X0226210Y0194642D02*
X0222507Y0194642D01*
X0222269Y0194143D02*
X0225925Y0194143D01*
X0225640Y0193645D02*
X0222030Y0193645D01*
X0221792Y0193146D02*
X0225355Y0193146D01*
X0225070Y0192648D02*
X0221553Y0192648D01*
X0224173Y0194143D02*
X0231219Y0194143D01*
X0231414Y0193645D02*
X0224406Y0193645D01*
X0224638Y0193146D02*
X0231610Y0193146D01*
X0231806Y0192648D02*
X0224861Y0192648D01*
X0224745Y0192149D02*
X0224695Y0192149D01*
X0223940Y0194642D02*
X0231023Y0194642D01*
X0241800Y0194642D02*
X0265300Y0194642D01*
X0265300Y0194300D02*
X0265300Y0200300D01*
X0241800Y0200300D01*
X0241800Y0194300D01*
X0250300Y0194300D01*
X0250300Y0172300D01*
X0256800Y0172300D01*
X0256800Y0194300D01*
X0265300Y0194300D01*
X0265300Y0195141D02*
X0241800Y0195141D01*
X0241800Y0195639D02*
X0265300Y0195639D01*
X0265300Y0196138D02*
X0241800Y0196138D01*
X0241800Y0196636D02*
X0265300Y0196636D01*
X0265300Y0197135D02*
X0241800Y0197135D01*
X0241800Y0197633D02*
X0265300Y0197633D01*
X0265300Y0198132D02*
X0241800Y0198132D01*
X0241800Y0198630D02*
X0265300Y0198630D01*
X0265300Y0199129D02*
X0241800Y0199129D01*
X0241800Y0199627D02*
X0265300Y0199627D01*
X0265300Y0200126D02*
X0241800Y0200126D01*
X0250300Y0194143D02*
X0256800Y0194143D01*
X0256800Y0193645D02*
X0250300Y0193645D01*
X0250300Y0193146D02*
X0256800Y0193146D01*
X0256800Y0192648D02*
X0250300Y0192648D01*
X0250300Y0192149D02*
X0256800Y0192149D01*
X0256800Y0191651D02*
X0250300Y0191651D01*
X0250300Y0191152D02*
X0256800Y0191152D01*
X0256800Y0190654D02*
X0250300Y0190654D01*
X0250300Y0190155D02*
X0256800Y0190155D01*
X0256800Y0189657D02*
X0250300Y0189657D01*
X0250300Y0189158D02*
X0256800Y0189158D01*
X0256800Y0188660D02*
X0250300Y0188660D01*
X0250300Y0188161D02*
X0256800Y0188161D01*
X0256800Y0187663D02*
X0250300Y0187663D01*
X0250300Y0187164D02*
X0256800Y0187164D01*
X0256800Y0186666D02*
X0250300Y0186666D01*
X0250300Y0186167D02*
X0256800Y0186167D01*
X0256800Y0185669D02*
X0250300Y0185669D01*
X0250300Y0185170D02*
X0256800Y0185170D01*
X0256800Y0184672D02*
X0250300Y0184672D01*
X0250300Y0184173D02*
X0256800Y0184173D01*
X0256800Y0183675D02*
X0250300Y0183675D01*
X0250300Y0183176D02*
X0256800Y0183176D01*
X0256800Y0182678D02*
X0250300Y0182678D01*
X0250300Y0182179D02*
X0256800Y0182179D01*
X0256800Y0181681D02*
X0250300Y0181681D01*
X0250300Y0181182D02*
X0256800Y0181182D01*
X0256800Y0180684D02*
X0250300Y0180684D01*
X0250300Y0180185D02*
X0256800Y0180185D01*
X0256800Y0179687D02*
X0250300Y0179687D01*
X0250300Y0179188D02*
X0256800Y0179188D01*
X0256800Y0178690D02*
X0250300Y0178690D01*
X0250300Y0178191D02*
X0256800Y0178191D01*
X0256800Y0177693D02*
X0250300Y0177693D01*
X0250300Y0177194D02*
X0256800Y0177194D01*
X0256800Y0176696D02*
X0250300Y0176696D01*
X0250300Y0176197D02*
X0256800Y0176197D01*
X0256800Y0175699D02*
X0250300Y0175699D01*
X0250300Y0175200D02*
X0256800Y0175200D01*
X0256800Y0174702D02*
X0250300Y0174702D01*
X0250300Y0174203D02*
X0256800Y0174203D01*
X0256800Y0173705D02*
X0250300Y0173705D01*
X0250300Y0173206D02*
X0256800Y0173206D01*
X0256800Y0172708D02*
X0250300Y0172708D01*
X0276800Y0172708D02*
X0282800Y0172708D01*
X0282800Y0172300D02*
X0276800Y0172300D01*
X0276800Y0194300D01*
X0267800Y0194300D01*
X0267800Y0200300D01*
X0291800Y0200300D01*
X0291800Y0194300D01*
X0282800Y0194300D01*
X0282800Y0172300D01*
X0282800Y0173206D02*
X0276800Y0173206D01*
X0276800Y0173705D02*
X0282800Y0173705D01*
X0282800Y0174203D02*
X0276800Y0174203D01*
X0276800Y0174702D02*
X0282800Y0174702D01*
X0282800Y0175200D02*
X0276800Y0175200D01*
X0276800Y0175699D02*
X0282800Y0175699D01*
X0282800Y0176197D02*
X0276800Y0176197D01*
X0276800Y0176696D02*
X0282800Y0176696D01*
X0282800Y0177194D02*
X0276800Y0177194D01*
X0276800Y0177693D02*
X0282800Y0177693D01*
X0282800Y0178191D02*
X0276800Y0178191D01*
X0276800Y0178690D02*
X0282800Y0178690D01*
X0282800Y0179188D02*
X0276800Y0179188D01*
X0276800Y0179687D02*
X0282800Y0179687D01*
X0282800Y0180185D02*
X0276800Y0180185D01*
X0276800Y0180684D02*
X0282800Y0180684D01*
X0282800Y0181182D02*
X0276800Y0181182D01*
X0276800Y0181681D02*
X0282800Y0181681D01*
X0282800Y0182179D02*
X0276800Y0182179D01*
X0276800Y0182678D02*
X0282800Y0182678D01*
X0282800Y0183176D02*
X0276800Y0183176D01*
X0276800Y0183675D02*
X0282800Y0183675D01*
X0282800Y0184173D02*
X0276800Y0184173D01*
X0276800Y0184672D02*
X0282800Y0184672D01*
X0282800Y0185170D02*
X0276800Y0185170D01*
X0276800Y0185669D02*
X0282800Y0185669D01*
X0282800Y0186167D02*
X0276800Y0186167D01*
X0276800Y0186666D02*
X0282800Y0186666D01*
X0282800Y0187164D02*
X0276800Y0187164D01*
X0276800Y0187663D02*
X0282800Y0187663D01*
X0282800Y0188161D02*
X0276800Y0188161D01*
X0276800Y0188660D02*
X0282800Y0188660D01*
X0282800Y0189158D02*
X0276800Y0189158D01*
X0276800Y0189657D02*
X0282800Y0189657D01*
X0282800Y0190155D02*
X0276800Y0190155D01*
X0276800Y0190654D02*
X0282800Y0190654D01*
X0282800Y0191152D02*
X0276800Y0191152D01*
X0276800Y0191651D02*
X0282800Y0191651D01*
X0282800Y0192149D02*
X0276800Y0192149D01*
X0276800Y0192648D02*
X0282800Y0192648D01*
X0282800Y0193146D02*
X0276800Y0193146D01*
X0276800Y0193645D02*
X0282800Y0193645D01*
X0282800Y0194143D02*
X0276800Y0194143D01*
X0267800Y0194642D02*
X0291800Y0194642D01*
X0291800Y0195141D02*
X0267800Y0195141D01*
X0267800Y0195639D02*
X0291800Y0195639D01*
X0291800Y0196138D02*
X0267800Y0196138D01*
X0267800Y0196636D02*
X0291800Y0196636D01*
X0291800Y0197135D02*
X0267800Y0197135D01*
X0267800Y0197633D02*
X0291800Y0197633D01*
X0291800Y0198132D02*
X0267800Y0198132D01*
X0267800Y0198630D02*
X0291800Y0198630D01*
X0291800Y0199129D02*
X0267800Y0199129D01*
X0267800Y0199627D02*
X0291800Y0199627D01*
X0291800Y0200126D02*
X0267800Y0200126D01*
X0295300Y0200126D02*
X0301800Y0200126D01*
X0301800Y0200300D02*
X0301800Y0172300D01*
X0295300Y0172300D01*
X0295300Y0200300D01*
X0301800Y0200300D01*
X0301800Y0199627D02*
X0295300Y0199627D01*
X0295300Y0199129D02*
X0301800Y0199129D01*
X0301800Y0198630D02*
X0295300Y0198630D01*
X0295300Y0198132D02*
X0301800Y0198132D01*
X0301800Y0197633D02*
X0295300Y0197633D01*
X0295300Y0197135D02*
X0301800Y0197135D01*
X0301800Y0196636D02*
X0295300Y0196636D01*
X0295300Y0196138D02*
X0301800Y0196138D01*
X0301800Y0195639D02*
X0295300Y0195639D01*
X0295300Y0195141D02*
X0301800Y0195141D01*
X0301800Y0194642D02*
X0295300Y0194642D01*
X0295300Y0194143D02*
X0301800Y0194143D01*
X0301800Y0193645D02*
X0295300Y0193645D01*
X0295300Y0193146D02*
X0301800Y0193146D01*
X0301800Y0192648D02*
X0295300Y0192648D01*
X0295300Y0192149D02*
X0301800Y0192149D01*
X0301800Y0191651D02*
X0295300Y0191651D01*
X0295300Y0191152D02*
X0301800Y0191152D01*
X0301800Y0190654D02*
X0295300Y0190654D01*
X0295300Y0190155D02*
X0301800Y0190155D01*
X0301800Y0189657D02*
X0295300Y0189657D01*
X0295300Y0189158D02*
X0301800Y0189158D01*
X0301800Y0188660D02*
X0295300Y0188660D01*
X0295300Y0188161D02*
X0301800Y0188161D01*
X0301800Y0187663D02*
X0295300Y0187663D01*
X0295300Y0187164D02*
X0301800Y0187164D01*
X0301800Y0186666D02*
X0295300Y0186666D01*
X0295300Y0186167D02*
X0301800Y0186167D01*
X0301800Y0185669D02*
X0295300Y0185669D01*
X0295300Y0185170D02*
X0301800Y0185170D01*
X0301800Y0184672D02*
X0295300Y0184672D01*
X0295300Y0184173D02*
X0301800Y0184173D01*
X0301800Y0183675D02*
X0295300Y0183675D01*
X0295300Y0183176D02*
X0301800Y0183176D01*
X0301800Y0182678D02*
X0295300Y0182678D01*
X0295300Y0182179D02*
X0301800Y0182179D01*
X0301800Y0181681D02*
X0295300Y0181681D01*
X0295300Y0181182D02*
X0301800Y0181182D01*
X0301800Y0180684D02*
X0295300Y0180684D01*
X0295300Y0180185D02*
X0301800Y0180185D01*
X0301800Y0179687D02*
X0295300Y0179687D01*
X0295300Y0179188D02*
X0301800Y0179188D01*
X0301800Y0178690D02*
X0295300Y0178690D01*
X0295300Y0178191D02*
X0301800Y0178191D01*
X0301800Y0177693D02*
X0295300Y0177693D01*
X0295300Y0177194D02*
X0301800Y0177194D01*
X0301800Y0176696D02*
X0295300Y0176696D01*
X0295300Y0176197D02*
X0301800Y0176197D01*
X0301800Y0175699D02*
X0295300Y0175699D01*
X0295300Y0175200D02*
X0301800Y0175200D01*
X0301800Y0174702D02*
X0295300Y0174702D01*
X0295300Y0174203D02*
X0301800Y0174203D01*
X0301800Y0173705D02*
X0295300Y0173705D01*
X0295300Y0173206D02*
X0301800Y0173206D01*
X0301800Y0172708D02*
X0295300Y0172708D01*
X0223275Y0188161D02*
X0221903Y0188161D01*
X0221554Y0187663D02*
X0223092Y0187663D01*
X0222908Y0187164D02*
X0221205Y0187164D01*
X0220856Y0186666D02*
X0222724Y0186666D01*
X0221806Y0184173D02*
X0219111Y0184173D01*
X0219101Y0184173D02*
X0215252Y0184173D01*
X0215066Y0183675D02*
X0218878Y0183675D01*
X0218762Y0183675D02*
X0221622Y0183675D01*
X0221439Y0183176D02*
X0218413Y0183176D01*
X0218655Y0183176D02*
X0214879Y0183176D01*
X0214692Y0182678D02*
X0218433Y0182678D01*
X0217703Y0173206D02*
X0211434Y0173206D01*
X0211140Y0173206D02*
X0214204Y0173206D01*
X0213982Y0172708D02*
X0210953Y0172708D01*
X0211085Y0172708D02*
X0217481Y0172708D01*
X0147800Y0097510D02*
X0147800Y0096550D01*
X0149675Y0096550D01*
X0147800Y0096550D02*
X0145925Y0096550D01*
X0147800Y0096550D02*
X0149675Y0094050D01*
X0147800Y0094050D01*
X0147800Y0093090D01*
X0147800Y0094050D02*
X0145925Y0094050D01*
X0147800Y0096550D01*
X0027800Y0195300D02*
X0025800Y0193300D01*
X0022800Y0193300D01*
X0020800Y0195300D01*
X0020800Y0198300D01*
X0021800Y0199300D01*
X0020800Y0200300D01*
X0020800Y0203300D01*
X0021800Y0204300D01*
X0020800Y0205300D01*
X0020800Y0208300D01*
X0021800Y0209300D01*
X0020800Y0210300D01*
X0020800Y0213300D01*
X0022800Y0215300D01*
X0025800Y0215300D01*
X0027800Y0213300D01*
X0027800Y0210300D01*
X0026800Y0209300D01*
X0027800Y0208300D01*
X0027800Y0205300D01*
X0026800Y0204300D01*
X0027800Y0203300D01*
X0027800Y0200300D01*
X0026800Y0199300D01*
X0027800Y0198300D01*
X0027800Y0195300D01*
X0279946Y0263190D02*
X0310654Y0263190D01*
X0307898Y0263190D02*
X0303568Y0263190D01*
X0287032Y0263190D02*
X0282702Y0263190D01*
X0279946Y0273032D02*
X0279946Y0283662D01*
X0279946Y0299410D02*
X0310654Y0299410D01*
X0310654Y0283662D02*
X0310654Y0273032D01*
X0442996Y0254364D02*
X0442996Y0252489D01*
X0444246Y0252489D01*
X0442996Y0252489D02*
X0442996Y0250614D01*
X0421278Y0109300D02*
X0421280Y0109384D01*
X0421286Y0109467D01*
X0421296Y0109550D01*
X0421310Y0109633D01*
X0421327Y0109715D01*
X0421349Y0109796D01*
X0421374Y0109875D01*
X0421403Y0109954D01*
X0421436Y0110031D01*
X0421472Y0110106D01*
X0421512Y0110180D01*
X0421555Y0110252D01*
X0421602Y0110321D01*
X0421652Y0110388D01*
X0421705Y0110453D01*
X0421761Y0110515D01*
X0421819Y0110575D01*
X0421881Y0110632D01*
X0421945Y0110685D01*
X0422012Y0110736D01*
X0422081Y0110783D01*
X0422152Y0110828D01*
X0422225Y0110868D01*
X0422300Y0110905D01*
X0422377Y0110939D01*
X0422455Y0110969D01*
X0422534Y0110995D01*
X0422615Y0111018D01*
X0422697Y0111036D01*
X0422779Y0111051D01*
X0422862Y0111062D01*
X0422945Y0111069D01*
X0423029Y0111072D01*
X0423113Y0111071D01*
X0423196Y0111066D01*
X0423280Y0111057D01*
X0423362Y0111044D01*
X0423444Y0111028D01*
X0423525Y0111007D01*
X0423606Y0110983D01*
X0423684Y0110955D01*
X0423762Y0110923D01*
X0423838Y0110887D01*
X0423912Y0110848D01*
X0423984Y0110806D01*
X0424054Y0110760D01*
X0424122Y0110711D01*
X0424187Y0110659D01*
X0424250Y0110604D01*
X0424310Y0110546D01*
X0424368Y0110485D01*
X0424422Y0110421D01*
X0424474Y0110355D01*
X0424522Y0110287D01*
X0424567Y0110216D01*
X0424608Y0110143D01*
X0424647Y0110069D01*
X0424681Y0109993D01*
X0424712Y0109915D01*
X0424739Y0109836D01*
X0424763Y0109755D01*
X0424782Y0109674D01*
X0424798Y0109592D01*
X0424810Y0109509D01*
X0424818Y0109425D01*
X0424822Y0109342D01*
X0424822Y0109258D01*
X0424818Y0109175D01*
X0424810Y0109091D01*
X0424798Y0109008D01*
X0424782Y0108926D01*
X0424763Y0108845D01*
X0424739Y0108764D01*
X0424712Y0108685D01*
X0424681Y0108607D01*
X0424647Y0108531D01*
X0424608Y0108457D01*
X0424567Y0108384D01*
X0424522Y0108313D01*
X0424474Y0108245D01*
X0424422Y0108179D01*
X0424368Y0108115D01*
X0424310Y0108054D01*
X0424250Y0107996D01*
X0424187Y0107941D01*
X0424122Y0107889D01*
X0424054Y0107840D01*
X0423984Y0107794D01*
X0423912Y0107752D01*
X0423838Y0107713D01*
X0423762Y0107677D01*
X0423684Y0107645D01*
X0423606Y0107617D01*
X0423525Y0107593D01*
X0423444Y0107572D01*
X0423362Y0107556D01*
X0423280Y0107543D01*
X0423196Y0107534D01*
X0423113Y0107529D01*
X0423029Y0107528D01*
X0422945Y0107531D01*
X0422862Y0107538D01*
X0422779Y0107549D01*
X0422697Y0107564D01*
X0422615Y0107582D01*
X0422534Y0107605D01*
X0422455Y0107631D01*
X0422377Y0107661D01*
X0422300Y0107695D01*
X0422225Y0107732D01*
X0422152Y0107772D01*
X0422081Y0107817D01*
X0422012Y0107864D01*
X0421945Y0107915D01*
X0421881Y0107968D01*
X0421819Y0108025D01*
X0421761Y0108085D01*
X0421705Y0108147D01*
X0421652Y0108212D01*
X0421602Y0108279D01*
X0421555Y0108348D01*
X0421512Y0108420D01*
X0421472Y0108494D01*
X0421436Y0108569D01*
X0421403Y0108646D01*
X0421374Y0108725D01*
X0421349Y0108804D01*
X0421327Y0108885D01*
X0421310Y0108967D01*
X0421296Y0109050D01*
X0421286Y0109133D01*
X0421280Y0109216D01*
X0421278Y0109300D01*
D21*
X0126800Y0128675D03*
D22*
X0486864Y0127548D02*
X0486864Y0096052D01*
X0510486Y0096052D01*
X0510486Y0127548D01*
X0486864Y0127548D01*
D23*
X0144091Y0183111D02*
X0144091Y0185580D01*
X0144091Y0184346D02*
X0140388Y0184346D01*
X0141622Y0183111D01*
X0141622Y0253978D02*
X0140388Y0255212D01*
X0144091Y0255212D01*
X0144091Y0253978D02*
X0144091Y0256446D01*
X0143474Y0257661D02*
X0142857Y0257661D01*
X0142239Y0258278D01*
X0142239Y0259512D01*
X0142857Y0260129D01*
X0143474Y0260129D01*
X0144091Y0259512D01*
X0144091Y0258278D01*
X0143474Y0257661D01*
X0142239Y0258278D02*
X0141622Y0257661D01*
X0141005Y0257661D01*
X0140388Y0258278D01*
X0140388Y0259512D01*
X0141005Y0260129D01*
X0141622Y0260129D01*
X0142239Y0259512D01*
X0031184Y0107153D02*
X0031184Y0103450D01*
X0029950Y0103450D02*
X0032419Y0103450D01*
X0029950Y0105919D02*
X0031184Y0107153D01*
D24*
X0413989Y0231780D03*
D25*
X0434162Y0224103D02*
X0434162Y0221741D01*
X0434162Y0224103D02*
X0442627Y0224103D01*
X0434162Y0215048D02*
X0434162Y0212686D01*
X0442627Y0212686D01*
D26*
X0182800Y0175800D03*
D27*
X0338600Y0186300D02*
X0338603Y0186582D01*
X0338614Y0186864D01*
X0338631Y0187146D01*
X0338655Y0187427D01*
X0338686Y0187708D01*
X0338724Y0187987D01*
X0338769Y0188266D01*
X0338821Y0188544D01*
X0338879Y0188820D01*
X0338945Y0189094D01*
X0339017Y0189367D01*
X0339095Y0189638D01*
X0339180Y0189907D01*
X0339272Y0190174D01*
X0339371Y0190439D01*
X0339475Y0190701D01*
X0339587Y0190960D01*
X0339704Y0191217D01*
X0339828Y0191471D01*
X0339958Y0191721D01*
X0340094Y0191968D01*
X0340236Y0192212D01*
X0340384Y0192452D01*
X0340538Y0192689D01*
X0340698Y0192922D01*
X0340863Y0193151D01*
X0341034Y0193375D01*
X0341210Y0193596D01*
X0341392Y0193811D01*
X0341579Y0194023D01*
X0341771Y0194230D01*
X0341968Y0194432D01*
X0342170Y0194629D01*
X0342377Y0194821D01*
X0342589Y0195008D01*
X0342804Y0195190D01*
X0343025Y0195366D01*
X0343249Y0195537D01*
X0343478Y0195702D01*
X0343711Y0195862D01*
X0343948Y0196016D01*
X0344188Y0196164D01*
X0344432Y0196306D01*
X0344679Y0196442D01*
X0344929Y0196572D01*
X0345183Y0196696D01*
X0345440Y0196813D01*
X0345699Y0196925D01*
X0345961Y0197029D01*
X0346226Y0197128D01*
X0346493Y0197220D01*
X0346762Y0197305D01*
X0347033Y0197383D01*
X0347306Y0197455D01*
X0347580Y0197521D01*
X0347856Y0197579D01*
X0348134Y0197631D01*
X0348413Y0197676D01*
X0348692Y0197714D01*
X0348973Y0197745D01*
X0349254Y0197769D01*
X0349536Y0197786D01*
X0349818Y0197797D01*
X0350100Y0197800D01*
X0350382Y0197797D01*
X0350664Y0197786D01*
X0350946Y0197769D01*
X0351227Y0197745D01*
X0351508Y0197714D01*
X0351787Y0197676D01*
X0352066Y0197631D01*
X0352344Y0197579D01*
X0352620Y0197521D01*
X0352894Y0197455D01*
X0353167Y0197383D01*
X0353438Y0197305D01*
X0353707Y0197220D01*
X0353974Y0197128D01*
X0354239Y0197029D01*
X0354501Y0196925D01*
X0354760Y0196813D01*
X0355017Y0196696D01*
X0355271Y0196572D01*
X0355521Y0196442D01*
X0355768Y0196306D01*
X0356012Y0196164D01*
X0356252Y0196016D01*
X0356489Y0195862D01*
X0356722Y0195702D01*
X0356951Y0195537D01*
X0357175Y0195366D01*
X0357396Y0195190D01*
X0357611Y0195008D01*
X0357823Y0194821D01*
X0358030Y0194629D01*
X0358232Y0194432D01*
X0358429Y0194230D01*
X0358621Y0194023D01*
X0358808Y0193811D01*
X0358990Y0193596D01*
X0359166Y0193375D01*
X0359337Y0193151D01*
X0359502Y0192922D01*
X0359662Y0192689D01*
X0359816Y0192452D01*
X0359964Y0192212D01*
X0360106Y0191968D01*
X0360242Y0191721D01*
X0360372Y0191471D01*
X0360496Y0191217D01*
X0360613Y0190960D01*
X0360725Y0190701D01*
X0360829Y0190439D01*
X0360928Y0190174D01*
X0361020Y0189907D01*
X0361105Y0189638D01*
X0361183Y0189367D01*
X0361255Y0189094D01*
X0361321Y0188820D01*
X0361379Y0188544D01*
X0361431Y0188266D01*
X0361476Y0187987D01*
X0361514Y0187708D01*
X0361545Y0187427D01*
X0361569Y0187146D01*
X0361586Y0186864D01*
X0361597Y0186582D01*
X0361600Y0186300D01*
X0361597Y0186018D01*
X0361586Y0185736D01*
X0361569Y0185454D01*
X0361545Y0185173D01*
X0361514Y0184892D01*
X0361476Y0184613D01*
X0361431Y0184334D01*
X0361379Y0184056D01*
X0361321Y0183780D01*
X0361255Y0183506D01*
X0361183Y0183233D01*
X0361105Y0182962D01*
X0361020Y0182693D01*
X0360928Y0182426D01*
X0360829Y0182161D01*
X0360725Y0181899D01*
X0360613Y0181640D01*
X0360496Y0181383D01*
X0360372Y0181129D01*
X0360242Y0180879D01*
X0360106Y0180632D01*
X0359964Y0180388D01*
X0359816Y0180148D01*
X0359662Y0179911D01*
X0359502Y0179678D01*
X0359337Y0179449D01*
X0359166Y0179225D01*
X0358990Y0179004D01*
X0358808Y0178789D01*
X0358621Y0178577D01*
X0358429Y0178370D01*
X0358232Y0178168D01*
X0358030Y0177971D01*
X0357823Y0177779D01*
X0357611Y0177592D01*
X0357396Y0177410D01*
X0357175Y0177234D01*
X0356951Y0177063D01*
X0356722Y0176898D01*
X0356489Y0176738D01*
X0356252Y0176584D01*
X0356012Y0176436D01*
X0355768Y0176294D01*
X0355521Y0176158D01*
X0355271Y0176028D01*
X0355017Y0175904D01*
X0354760Y0175787D01*
X0354501Y0175675D01*
X0354239Y0175571D01*
X0353974Y0175472D01*
X0353707Y0175380D01*
X0353438Y0175295D01*
X0353167Y0175217D01*
X0352894Y0175145D01*
X0352620Y0175079D01*
X0352344Y0175021D01*
X0352066Y0174969D01*
X0351787Y0174924D01*
X0351508Y0174886D01*
X0351227Y0174855D01*
X0350946Y0174831D01*
X0350664Y0174814D01*
X0350382Y0174803D01*
X0350100Y0174800D01*
X0349818Y0174803D01*
X0349536Y0174814D01*
X0349254Y0174831D01*
X0348973Y0174855D01*
X0348692Y0174886D01*
X0348413Y0174924D01*
X0348134Y0174969D01*
X0347856Y0175021D01*
X0347580Y0175079D01*
X0347306Y0175145D01*
X0347033Y0175217D01*
X0346762Y0175295D01*
X0346493Y0175380D01*
X0346226Y0175472D01*
X0345961Y0175571D01*
X0345699Y0175675D01*
X0345440Y0175787D01*
X0345183Y0175904D01*
X0344929Y0176028D01*
X0344679Y0176158D01*
X0344432Y0176294D01*
X0344188Y0176436D01*
X0343948Y0176584D01*
X0343711Y0176738D01*
X0343478Y0176898D01*
X0343249Y0177063D01*
X0343025Y0177234D01*
X0342804Y0177410D01*
X0342589Y0177592D01*
X0342377Y0177779D01*
X0342170Y0177971D01*
X0341968Y0178168D01*
X0341771Y0178370D01*
X0341579Y0178577D01*
X0341392Y0178789D01*
X0341210Y0179004D01*
X0341034Y0179225D01*
X0340863Y0179449D01*
X0340698Y0179678D01*
X0340538Y0179911D01*
X0340384Y0180148D01*
X0340236Y0180388D01*
X0340094Y0180632D01*
X0339958Y0180879D01*
X0339828Y0181129D01*
X0339704Y0181383D01*
X0339587Y0181640D01*
X0339475Y0181899D01*
X0339371Y0182161D01*
X0339272Y0182426D01*
X0339180Y0182693D01*
X0339095Y0182962D01*
X0339017Y0183233D01*
X0338945Y0183506D01*
X0338879Y0183780D01*
X0338821Y0184056D01*
X0338769Y0184334D01*
X0338724Y0184613D01*
X0338686Y0184892D01*
X0338655Y0185173D01*
X0338631Y0185454D01*
X0338614Y0185736D01*
X0338603Y0186018D01*
X0338600Y0186300D01*
D28*
X0332464Y0192922D02*
X0326833Y0190297D01*
X0326834Y0190297D02*
X0326739Y0190473D01*
X0326641Y0190647D01*
X0326538Y0190818D01*
X0326432Y0190987D01*
X0326321Y0191153D01*
X0326206Y0191316D01*
X0326087Y0191476D01*
X0325964Y0191633D01*
X0325837Y0191788D01*
X0325707Y0191939D01*
X0325573Y0192087D01*
X0325435Y0192231D01*
X0325294Y0192372D01*
X0325149Y0192510D01*
X0325001Y0192644D01*
X0324850Y0192775D01*
X0324696Y0192901D01*
X0324538Y0193024D01*
X0324378Y0193143D01*
X0324215Y0193258D01*
X0324049Y0193369D01*
X0323880Y0193475D01*
X0323709Y0193578D01*
X0323535Y0193676D01*
X0323359Y0193770D01*
X0323181Y0193860D01*
X0323000Y0193946D01*
X0322818Y0194026D01*
X0322633Y0194103D01*
X0322447Y0194175D01*
X0322259Y0194242D01*
X0322070Y0194304D01*
X0321879Y0194362D01*
X0321686Y0194416D01*
X0321493Y0194464D01*
X0321298Y0194508D01*
X0321102Y0194547D01*
X0320905Y0194581D01*
X0320708Y0194610D01*
X0320510Y0194635D01*
X0320311Y0194654D01*
X0320112Y0194669D01*
X0319913Y0194679D01*
X0319713Y0194683D01*
X0319513Y0194683D01*
X0319314Y0194678D01*
X0319115Y0194669D01*
X0318915Y0194654D01*
X0318717Y0194634D01*
X0318519Y0194610D01*
X0318321Y0194581D01*
X0318125Y0194546D01*
X0317929Y0194508D01*
X0317734Y0194464D01*
X0317540Y0194415D01*
X0317348Y0194362D01*
X0317157Y0194304D01*
X0316967Y0194241D01*
X0316779Y0194174D01*
X0316593Y0194102D01*
X0316409Y0194026D01*
X0316226Y0193945D01*
X0316046Y0193860D01*
X0315868Y0193770D01*
X0315692Y0193676D01*
X0315518Y0193577D01*
X0315347Y0193475D01*
X0315178Y0193368D01*
X0315012Y0193257D01*
X0314849Y0193142D01*
X0314688Y0193023D01*
X0314531Y0192900D01*
X0314377Y0192774D01*
X0314226Y0192643D01*
X0314078Y0192509D01*
X0313933Y0192372D01*
X0313792Y0192230D01*
X0313654Y0192086D01*
X0313520Y0191938D01*
X0313390Y0191787D01*
X0313263Y0191632D01*
X0313140Y0191475D01*
X0313022Y0191315D01*
X0312907Y0191151D01*
X0312796Y0190985D01*
X0312689Y0190817D01*
X0312586Y0190646D01*
X0312488Y0190472D01*
X0312394Y0190296D01*
X0312304Y0190118D01*
X0312219Y0189937D01*
X0312138Y0189755D01*
X0312061Y0189570D01*
X0311990Y0189384D01*
X0311922Y0189196D01*
X0311860Y0189006D01*
X0311802Y0188815D01*
X0311749Y0188623D01*
X0311700Y0188429D01*
X0311656Y0188235D01*
X0311617Y0188039D01*
X0311583Y0187842D01*
X0311554Y0187645D01*
X0311530Y0187446D01*
X0311510Y0187248D01*
X0311495Y0187049D01*
X0311486Y0186849D01*
X0311481Y0186650D01*
X0311481Y0186450D01*
X0311486Y0186251D01*
X0311495Y0186051D01*
X0311510Y0185852D01*
X0311530Y0185654D01*
X0311554Y0185455D01*
X0311583Y0185258D01*
X0311617Y0185061D01*
X0311656Y0184865D01*
X0311700Y0184671D01*
X0311749Y0184477D01*
X0311802Y0184285D01*
X0311860Y0184094D01*
X0311922Y0183904D01*
X0311990Y0183716D01*
X0312061Y0183530D01*
X0312138Y0183345D01*
X0312219Y0183163D01*
X0312304Y0182982D01*
X0312394Y0182804D01*
X0312488Y0182628D01*
X0312586Y0182454D01*
X0312689Y0182283D01*
X0312796Y0182115D01*
X0312907Y0181949D01*
X0313022Y0181785D01*
X0313140Y0181625D01*
X0313263Y0181468D01*
X0313390Y0181313D01*
X0313520Y0181162D01*
X0313654Y0181014D01*
X0313792Y0180870D01*
X0313933Y0180728D01*
X0314078Y0180591D01*
X0314226Y0180457D01*
X0314377Y0180326D01*
X0314531Y0180200D01*
X0314688Y0180077D01*
X0314849Y0179958D01*
X0315012Y0179843D01*
X0315178Y0179732D01*
X0315347Y0179625D01*
X0315518Y0179523D01*
X0315692Y0179424D01*
X0315868Y0179330D01*
X0316046Y0179240D01*
X0316226Y0179155D01*
X0316409Y0179074D01*
X0316593Y0178998D01*
X0316779Y0178926D01*
X0316967Y0178859D01*
X0317157Y0178796D01*
X0317348Y0178738D01*
X0317540Y0178685D01*
X0317734Y0178636D01*
X0317929Y0178592D01*
X0318125Y0178554D01*
X0318321Y0178519D01*
X0318519Y0178490D01*
X0318717Y0178466D01*
X0318915Y0178446D01*
X0319115Y0178431D01*
X0319314Y0178422D01*
X0319513Y0178417D01*
X0319713Y0178417D01*
X0319913Y0178421D01*
X0320112Y0178431D01*
X0320311Y0178446D01*
X0320510Y0178465D01*
X0320708Y0178490D01*
X0320905Y0178519D01*
X0321102Y0178553D01*
X0321298Y0178592D01*
X0321493Y0178636D01*
X0321686Y0178684D01*
X0321879Y0178738D01*
X0322070Y0178796D01*
X0322259Y0178858D01*
X0322447Y0178925D01*
X0322633Y0178997D01*
X0322818Y0179074D01*
X0323000Y0179154D01*
X0323181Y0179240D01*
X0323359Y0179330D01*
X0323535Y0179424D01*
X0323709Y0179522D01*
X0323880Y0179625D01*
X0324049Y0179731D01*
X0324215Y0179842D01*
X0324378Y0179957D01*
X0324538Y0180076D01*
X0324696Y0180199D01*
X0324850Y0180325D01*
X0325001Y0180456D01*
X0325149Y0180590D01*
X0325294Y0180728D01*
X0325435Y0180869D01*
X0325573Y0181013D01*
X0325707Y0181161D01*
X0325837Y0181312D01*
X0325964Y0181467D01*
X0326087Y0181624D01*
X0326206Y0181784D01*
X0326321Y0181947D01*
X0326432Y0182113D01*
X0326538Y0182282D01*
X0326641Y0182453D01*
X0326739Y0182627D01*
X0326834Y0182803D01*
X0332464Y0180178D01*
X0332465Y0180177D01*
X0332305Y0179864D01*
X0332137Y0179556D01*
X0331962Y0179251D01*
X0331780Y0178951D01*
X0331590Y0178655D01*
X0331393Y0178365D01*
X0331189Y0178079D01*
X0330978Y0177798D01*
X0330761Y0177522D01*
X0330536Y0177252D01*
X0330305Y0176987D01*
X0330068Y0176728D01*
X0329824Y0176475D01*
X0329575Y0176228D01*
X0329319Y0175988D01*
X0329058Y0175753D01*
X0328790Y0175525D01*
X0328518Y0175304D01*
X0328240Y0175089D01*
X0327956Y0174882D01*
X0327668Y0174681D01*
X0327375Y0174487D01*
X0327078Y0174301D01*
X0326775Y0174122D01*
X0326469Y0173950D01*
X0326158Y0173786D01*
X0325844Y0173630D01*
X0325526Y0173481D01*
X0325204Y0173340D01*
X0324879Y0173207D01*
X0324551Y0173082D01*
X0324219Y0172965D01*
X0323885Y0172857D01*
X0323549Y0172756D01*
X0323210Y0172664D01*
X0322869Y0172580D01*
X0322526Y0172505D01*
X0322181Y0172438D01*
X0321835Y0172379D01*
X0321487Y0172329D01*
X0321139Y0172287D01*
X0320789Y0172254D01*
X0320439Y0172230D01*
X0320088Y0172214D01*
X0319737Y0172207D01*
X0319385Y0172208D01*
X0319034Y0172218D01*
X0318684Y0172236D01*
X0318333Y0172263D01*
X0317984Y0172299D01*
X0317636Y0172343D01*
X0317288Y0172396D01*
X0316942Y0172457D01*
X0316598Y0172527D01*
X0316256Y0172605D01*
X0315915Y0172691D01*
X0315577Y0172786D01*
X0315241Y0172889D01*
X0314908Y0173000D01*
X0314578Y0173119D01*
X0314251Y0173246D01*
X0313926Y0173382D01*
X0313606Y0173525D01*
X0313289Y0173676D01*
X0312975Y0173835D01*
X0312666Y0174001D01*
X0312361Y0174175D01*
X0312060Y0174356D01*
X0311764Y0174545D01*
X0311472Y0174741D01*
X0311185Y0174944D01*
X0310904Y0175153D01*
X0310627Y0175370D01*
X0310356Y0175593D01*
X0310091Y0175823D01*
X0309831Y0176060D01*
X0309577Y0176302D01*
X0309329Y0176551D01*
X0309088Y0176806D01*
X0308852Y0177067D01*
X0308623Y0177333D01*
X0308401Y0177605D01*
X0308185Y0177882D01*
X0307976Y0178164D01*
X0307775Y0178452D01*
X0307580Y0178744D01*
X0307392Y0179041D01*
X0307212Y0179343D01*
X0307039Y0179648D01*
X0306874Y0179958D01*
X0306717Y0180272D01*
X0306567Y0180590D01*
X0306425Y0180911D01*
X0306291Y0181236D01*
X0306165Y0181564D01*
X0306047Y0181894D01*
X0305937Y0182228D01*
X0305835Y0182564D01*
X0305741Y0182903D01*
X0305656Y0183243D01*
X0305580Y0183586D01*
X0305511Y0183931D01*
X0305451Y0184277D01*
X0305400Y0184624D01*
X0305357Y0184973D01*
X0305323Y0185322D01*
X0305297Y0185672D01*
X0305280Y0186023D01*
X0305271Y0186374D01*
X0305271Y0186726D01*
X0305280Y0187077D01*
X0305297Y0187428D01*
X0305323Y0187778D01*
X0305357Y0188127D01*
X0305400Y0188476D01*
X0305451Y0188823D01*
X0305511Y0189169D01*
X0305580Y0189514D01*
X0305656Y0189857D01*
X0305741Y0190197D01*
X0305835Y0190536D01*
X0305937Y0190872D01*
X0306047Y0191206D01*
X0306165Y0191536D01*
X0306291Y0191864D01*
X0306425Y0192189D01*
X0306567Y0192510D01*
X0306717Y0192828D01*
X0306874Y0193142D01*
X0307039Y0193452D01*
X0307212Y0193757D01*
X0307392Y0194059D01*
X0307580Y0194356D01*
X0307775Y0194648D01*
X0307976Y0194936D01*
X0308185Y0195218D01*
X0308401Y0195495D01*
X0308623Y0195767D01*
X0308852Y0196033D01*
X0309088Y0196294D01*
X0309329Y0196549D01*
X0309577Y0196798D01*
X0309831Y0197040D01*
X0310091Y0197277D01*
X0310356Y0197507D01*
X0310627Y0197730D01*
X0310904Y0197947D01*
X0311185Y0198156D01*
X0311472Y0198359D01*
X0311764Y0198555D01*
X0312060Y0198744D01*
X0312361Y0198925D01*
X0312666Y0199099D01*
X0312975Y0199265D01*
X0313289Y0199424D01*
X0313606Y0199575D01*
X0313926Y0199718D01*
X0314251Y0199854D01*
X0314578Y0199981D01*
X0314908Y0200100D01*
X0315241Y0200211D01*
X0315577Y0200314D01*
X0315915Y0200409D01*
X0316256Y0200495D01*
X0316598Y0200573D01*
X0316942Y0200643D01*
X0317288Y0200704D01*
X0317636Y0200757D01*
X0317984Y0200801D01*
X0318333Y0200837D01*
X0318684Y0200864D01*
X0319034Y0200882D01*
X0319385Y0200892D01*
X0319737Y0200893D01*
X0320088Y0200886D01*
X0320439Y0200870D01*
X0320789Y0200846D01*
X0321139Y0200813D01*
X0321487Y0200771D01*
X0321835Y0200721D01*
X0322181Y0200662D01*
X0322526Y0200595D01*
X0322869Y0200520D01*
X0323210Y0200436D01*
X0323549Y0200344D01*
X0323885Y0200243D01*
X0324219Y0200135D01*
X0324551Y0200018D01*
X0324879Y0199893D01*
X0325204Y0199760D01*
X0325526Y0199619D01*
X0325844Y0199470D01*
X0326158Y0199314D01*
X0326469Y0199150D01*
X0326775Y0198978D01*
X0327078Y0198799D01*
X0327375Y0198613D01*
X0327668Y0198419D01*
X0327956Y0198218D01*
X0328240Y0198011D01*
X0328518Y0197796D01*
X0328790Y0197575D01*
X0329058Y0197347D01*
X0329319Y0197112D01*
X0329575Y0196872D01*
X0329824Y0196625D01*
X0330068Y0196372D01*
X0330305Y0196113D01*
X0330536Y0195848D01*
X0330761Y0195578D01*
X0330978Y0195302D01*
X0331189Y0195021D01*
X0331393Y0194735D01*
X0331590Y0194445D01*
X0331780Y0194149D01*
X0331962Y0193849D01*
X0332137Y0193544D01*
X0332305Y0193236D01*
X0332465Y0192923D01*
X0331871Y0192646D01*
X0331718Y0192944D01*
X0331558Y0193238D01*
X0331390Y0193529D01*
X0331216Y0193815D01*
X0331035Y0194097D01*
X0330847Y0194374D01*
X0330652Y0194646D01*
X0330451Y0194914D01*
X0330243Y0195177D01*
X0330028Y0195434D01*
X0329808Y0195687D01*
X0329581Y0195933D01*
X0329348Y0196174D01*
X0329110Y0196410D01*
X0328866Y0196639D01*
X0328616Y0196863D01*
X0328361Y0197080D01*
X0328101Y0197291D01*
X0327835Y0197495D01*
X0327565Y0197693D01*
X0327290Y0197884D01*
X0327010Y0198069D01*
X0326726Y0198246D01*
X0326438Y0198417D01*
X0326145Y0198580D01*
X0325849Y0198737D01*
X0325549Y0198886D01*
X0325245Y0199027D01*
X0324938Y0199161D01*
X0324628Y0199288D01*
X0324315Y0199407D01*
X0323999Y0199518D01*
X0323680Y0199621D01*
X0323359Y0199717D01*
X0323035Y0199805D01*
X0322710Y0199884D01*
X0322383Y0199956D01*
X0322054Y0200020D01*
X0321724Y0200075D01*
X0321392Y0200123D01*
X0321059Y0200163D01*
X0320726Y0200194D01*
X0320391Y0200217D01*
X0320057Y0200232D01*
X0319722Y0200239D01*
X0319387Y0200237D01*
X0319052Y0200227D01*
X0318717Y0200210D01*
X0318383Y0200184D01*
X0318050Y0200149D01*
X0317718Y0200107D01*
X0317386Y0200057D01*
X0317056Y0199998D01*
X0316728Y0199931D01*
X0316402Y0199857D01*
X0316077Y0199774D01*
X0315754Y0199684D01*
X0315434Y0199585D01*
X0315116Y0199479D01*
X0314801Y0199365D01*
X0314489Y0199243D01*
X0314180Y0199114D01*
X0313874Y0198977D01*
X0313572Y0198833D01*
X0313273Y0198682D01*
X0312978Y0198523D01*
X0312687Y0198357D01*
X0312400Y0198184D01*
X0312117Y0198004D01*
X0311839Y0197817D01*
X0311566Y0197623D01*
X0311297Y0197423D01*
X0311034Y0197216D01*
X0310775Y0197003D01*
X0310522Y0196784D01*
X0310274Y0196558D01*
X0310032Y0196326D01*
X0309796Y0196089D01*
X0309565Y0195846D01*
X0309341Y0195597D01*
X0309122Y0195343D01*
X0308910Y0195084D01*
X0308705Y0194819D01*
X0308506Y0194550D01*
X0308313Y0194275D01*
X0308128Y0193997D01*
X0307949Y0193713D01*
X0307777Y0193426D01*
X0307612Y0193134D01*
X0307455Y0192838D01*
X0307304Y0192539D01*
X0307162Y0192236D01*
X0307026Y0191929D01*
X0306898Y0191620D01*
X0306778Y0191307D01*
X0306665Y0190991D01*
X0306561Y0190673D01*
X0306464Y0190352D01*
X0306375Y0190029D01*
X0306293Y0189704D01*
X0306220Y0189377D01*
X0306155Y0189049D01*
X0306098Y0188719D01*
X0306049Y0188387D01*
X0306008Y0188055D01*
X0305975Y0187721D01*
X0305951Y0187387D01*
X0305934Y0187052D01*
X0305926Y0186718D01*
X0305926Y0186382D01*
X0305934Y0186048D01*
X0305951Y0185713D01*
X0305975Y0185379D01*
X0306008Y0185045D01*
X0306049Y0184713D01*
X0306098Y0184381D01*
X0306155Y0184051D01*
X0306220Y0183723D01*
X0306293Y0183396D01*
X0306375Y0183071D01*
X0306464Y0182748D01*
X0306561Y0182427D01*
X0306665Y0182109D01*
X0306778Y0181793D01*
X0306898Y0181480D01*
X0307026Y0181171D01*
X0307162Y0180864D01*
X0307304Y0180561D01*
X0307455Y0180262D01*
X0307612Y0179966D01*
X0307777Y0179674D01*
X0307949Y0179387D01*
X0308128Y0179103D01*
X0308313Y0178825D01*
X0308506Y0178550D01*
X0308705Y0178281D01*
X0308910Y0178016D01*
X0309122Y0177757D01*
X0309341Y0177503D01*
X0309565Y0177254D01*
X0309796Y0177011D01*
X0310032Y0176774D01*
X0310274Y0176542D01*
X0310522Y0176316D01*
X0310775Y0176097D01*
X0311034Y0175884D01*
X0311297Y0175677D01*
X0311566Y0175477D01*
X0311839Y0175283D01*
X0312117Y0175096D01*
X0312400Y0174916D01*
X0312687Y0174743D01*
X0312978Y0174577D01*
X0313273Y0174418D01*
X0313572Y0174267D01*
X0313874Y0174123D01*
X0314180Y0173986D01*
X0314489Y0173857D01*
X0314801Y0173735D01*
X0315116Y0173621D01*
X0315434Y0173515D01*
X0315754Y0173416D01*
X0316077Y0173326D01*
X0316402Y0173243D01*
X0316728Y0173169D01*
X0317056Y0173102D01*
X0317386Y0173043D01*
X0317718Y0172993D01*
X0318050Y0172951D01*
X0318383Y0172916D01*
X0318717Y0172890D01*
X0319052Y0172873D01*
X0319387Y0172863D01*
X0319722Y0172861D01*
X0320057Y0172868D01*
X0320391Y0172883D01*
X0320726Y0172906D01*
X0321059Y0172937D01*
X0321392Y0172977D01*
X0321724Y0173025D01*
X0322054Y0173080D01*
X0322383Y0173144D01*
X0322710Y0173216D01*
X0323035Y0173295D01*
X0323359Y0173383D01*
X0323680Y0173479D01*
X0323999Y0173582D01*
X0324315Y0173693D01*
X0324628Y0173812D01*
X0324938Y0173939D01*
X0325245Y0174073D01*
X0325549Y0174214D01*
X0325849Y0174363D01*
X0326145Y0174520D01*
X0326438Y0174683D01*
X0326726Y0174854D01*
X0327010Y0175031D01*
X0327290Y0175216D01*
X0327565Y0175407D01*
X0327835Y0175605D01*
X0328101Y0175809D01*
X0328361Y0176020D01*
X0328616Y0176237D01*
X0328866Y0176461D01*
X0329110Y0176690D01*
X0329348Y0176926D01*
X0329581Y0177167D01*
X0329808Y0177413D01*
X0330028Y0177666D01*
X0330243Y0177923D01*
X0330451Y0178186D01*
X0330652Y0178454D01*
X0330847Y0178726D01*
X0331035Y0179003D01*
X0331216Y0179285D01*
X0331390Y0179571D01*
X0331558Y0179862D01*
X0331718Y0180156D01*
X0331871Y0180454D01*
X0331277Y0180731D01*
X0331131Y0180447D01*
X0330978Y0180167D01*
X0330819Y0179891D01*
X0330653Y0179619D01*
X0330480Y0179351D01*
X0330300Y0179088D01*
X0330115Y0178829D01*
X0329923Y0178574D01*
X0329724Y0178324D01*
X0329520Y0178079D01*
X0329310Y0177840D01*
X0329094Y0177605D01*
X0328872Y0177376D01*
X0328645Y0177152D01*
X0328413Y0176934D01*
X0328175Y0176722D01*
X0327932Y0176515D01*
X0327684Y0176315D01*
X0327431Y0176120D01*
X0327174Y0175932D01*
X0326912Y0175750D01*
X0326645Y0175575D01*
X0326375Y0175406D01*
X0326100Y0175244D01*
X0325822Y0175089D01*
X0325539Y0174941D01*
X0325254Y0174799D01*
X0324965Y0174665D01*
X0324672Y0174538D01*
X0324377Y0174417D01*
X0324079Y0174304D01*
X0323778Y0174199D01*
X0323474Y0174101D01*
X0323169Y0174010D01*
X0322861Y0173927D01*
X0322551Y0173851D01*
X0322240Y0173783D01*
X0321927Y0173723D01*
X0321612Y0173670D01*
X0321296Y0173625D01*
X0320980Y0173588D01*
X0320662Y0173558D01*
X0320344Y0173536D01*
X0320026Y0173523D01*
X0319707Y0173516D01*
X0319388Y0173518D01*
X0319069Y0173527D01*
X0318751Y0173545D01*
X0318433Y0173570D01*
X0318116Y0173602D01*
X0317800Y0173643D01*
X0317484Y0173691D01*
X0317170Y0173747D01*
X0316858Y0173811D01*
X0316547Y0173882D01*
X0316238Y0173961D01*
X0315931Y0174047D01*
X0315627Y0174141D01*
X0315324Y0174242D01*
X0315024Y0174351D01*
X0314727Y0174467D01*
X0314433Y0174590D01*
X0314142Y0174720D01*
X0313855Y0174858D01*
X0313570Y0175002D01*
X0313290Y0175153D01*
X0313013Y0175311D01*
X0312740Y0175476D01*
X0312471Y0175648D01*
X0312206Y0175826D01*
X0311946Y0176010D01*
X0311691Y0176201D01*
X0311440Y0176398D01*
X0311194Y0176601D01*
X0310953Y0176810D01*
X0310718Y0177024D01*
X0310487Y0177245D01*
X0310262Y0177471D01*
X0310043Y0177702D01*
X0309829Y0177939D01*
X0309622Y0178181D01*
X0309420Y0178428D01*
X0309224Y0178680D01*
X0309035Y0178936D01*
X0308852Y0179197D01*
X0308675Y0179463D01*
X0308505Y0179732D01*
X0308342Y0180006D01*
X0308185Y0180284D01*
X0308035Y0180565D01*
X0307892Y0180850D01*
X0307756Y0181139D01*
X0307628Y0181430D01*
X0307506Y0181725D01*
X0307391Y0182023D01*
X0307284Y0182323D01*
X0307185Y0182626D01*
X0307092Y0182931D01*
X0307008Y0183239D01*
X0306930Y0183548D01*
X0306861Y0183859D01*
X0306799Y0184172D01*
X0306744Y0184486D01*
X0306698Y0184802D01*
X0306659Y0185118D01*
X0306628Y0185435D01*
X0306604Y0185753D01*
X0306589Y0186072D01*
X0306581Y0186391D01*
X0306581Y0186709D01*
X0306589Y0187028D01*
X0306604Y0187347D01*
X0306628Y0187665D01*
X0306659Y0187982D01*
X0306698Y0188298D01*
X0306744Y0188614D01*
X0306799Y0188928D01*
X0306861Y0189241D01*
X0306930Y0189552D01*
X0307008Y0189861D01*
X0307092Y0190169D01*
X0307185Y0190474D01*
X0307284Y0190777D01*
X0307391Y0191077D01*
X0307506Y0191375D01*
X0307628Y0191670D01*
X0307756Y0191961D01*
X0307892Y0192250D01*
X0308035Y0192535D01*
X0308185Y0192816D01*
X0308342Y0193094D01*
X0308505Y0193368D01*
X0308675Y0193637D01*
X0308852Y0193903D01*
X0309035Y0194164D01*
X0309224Y0194420D01*
X0309420Y0194672D01*
X0309622Y0194919D01*
X0309829Y0195161D01*
X0310043Y0195398D01*
X0310262Y0195629D01*
X0310487Y0195855D01*
X0310718Y0196076D01*
X0310953Y0196290D01*
X0311194Y0196499D01*
X0311440Y0196702D01*
X0311691Y0196899D01*
X0311946Y0197090D01*
X0312206Y0197274D01*
X0312471Y0197452D01*
X0312740Y0197624D01*
X0313013Y0197789D01*
X0313290Y0197947D01*
X0313570Y0198098D01*
X0313855Y0198242D01*
X0314142Y0198380D01*
X0314433Y0198510D01*
X0314727Y0198633D01*
X0315024Y0198749D01*
X0315324Y0198858D01*
X0315627Y0198959D01*
X0315931Y0199053D01*
X0316238Y0199139D01*
X0316547Y0199218D01*
X0316858Y0199289D01*
X0317170Y0199353D01*
X0317484Y0199409D01*
X0317800Y0199457D01*
X0318116Y0199498D01*
X0318433Y0199530D01*
X0318751Y0199555D01*
X0319069Y0199573D01*
X0319388Y0199582D01*
X0319707Y0199584D01*
X0320026Y0199577D01*
X0320344Y0199564D01*
X0320662Y0199542D01*
X0320980Y0199512D01*
X0321296Y0199475D01*
X0321612Y0199430D01*
X0321927Y0199377D01*
X0322240Y0199317D01*
X0322551Y0199249D01*
X0322861Y0199173D01*
X0323169Y0199090D01*
X0323474Y0198999D01*
X0323778Y0198901D01*
X0324079Y0198796D01*
X0324377Y0198683D01*
X0324672Y0198562D01*
X0324965Y0198435D01*
X0325254Y0198301D01*
X0325539Y0198159D01*
X0325822Y0198011D01*
X0326100Y0197856D01*
X0326375Y0197694D01*
X0326645Y0197525D01*
X0326912Y0197350D01*
X0327174Y0197168D01*
X0327431Y0196980D01*
X0327684Y0196785D01*
X0327932Y0196585D01*
X0328175Y0196378D01*
X0328413Y0196166D01*
X0328645Y0195948D01*
X0328872Y0195724D01*
X0329094Y0195495D01*
X0329310Y0195260D01*
X0329520Y0195021D01*
X0329724Y0194776D01*
X0329923Y0194526D01*
X0330115Y0194271D01*
X0330300Y0194012D01*
X0330480Y0193749D01*
X0330653Y0193481D01*
X0330819Y0193209D01*
X0330978Y0192933D01*
X0331131Y0192653D01*
X0331277Y0192369D01*
X0330683Y0192092D01*
X0330544Y0192361D01*
X0330399Y0192627D01*
X0330247Y0192889D01*
X0330089Y0193147D01*
X0329925Y0193401D01*
X0329754Y0193651D01*
X0329577Y0193897D01*
X0329395Y0194138D01*
X0329206Y0194375D01*
X0329012Y0194607D01*
X0328812Y0194834D01*
X0328607Y0195057D01*
X0328396Y0195274D01*
X0328180Y0195486D01*
X0327959Y0195693D01*
X0327733Y0195894D01*
X0327503Y0196090D01*
X0327267Y0196280D01*
X0327027Y0196464D01*
X0326782Y0196642D01*
X0326533Y0196815D01*
X0326280Y0196981D01*
X0326023Y0197141D01*
X0325762Y0197294D01*
X0325498Y0197441D01*
X0325230Y0197582D01*
X0324958Y0197716D01*
X0324684Y0197843D01*
X0324406Y0197964D01*
X0324126Y0198078D01*
X0323843Y0198184D01*
X0323557Y0198284D01*
X0323269Y0198377D01*
X0322979Y0198463D01*
X0322686Y0198542D01*
X0322392Y0198613D01*
X0322096Y0198678D01*
X0321799Y0198735D01*
X0321501Y0198784D01*
X0321201Y0198827D01*
X0320900Y0198862D01*
X0320599Y0198890D01*
X0320297Y0198910D01*
X0319995Y0198923D01*
X0319692Y0198929D01*
X0319389Y0198927D01*
X0319087Y0198918D01*
X0318785Y0198901D01*
X0318483Y0198877D01*
X0318182Y0198846D01*
X0317882Y0198807D01*
X0317582Y0198761D01*
X0317284Y0198708D01*
X0316988Y0198647D01*
X0316693Y0198579D01*
X0316400Y0198504D01*
X0316108Y0198422D01*
X0315819Y0198333D01*
X0315532Y0198237D01*
X0315248Y0198133D01*
X0314966Y0198023D01*
X0314687Y0197906D01*
X0314411Y0197782D01*
X0314138Y0197652D01*
X0313868Y0197514D01*
X0313601Y0197371D01*
X0313339Y0197220D01*
X0313080Y0197064D01*
X0312825Y0196901D01*
X0312574Y0196732D01*
X0312327Y0196557D01*
X0312084Y0196376D01*
X0311846Y0196189D01*
X0311613Y0195996D01*
X0311384Y0195797D01*
X0311161Y0195593D01*
X0310942Y0195384D01*
X0310729Y0195169D01*
X0310521Y0194950D01*
X0310318Y0194725D01*
X0310121Y0194495D01*
X0309930Y0194260D01*
X0309744Y0194021D01*
X0309564Y0193778D01*
X0309391Y0193530D01*
X0309223Y0193278D01*
X0309062Y0193022D01*
X0308906Y0192762D01*
X0308758Y0192498D01*
X0308616Y0192231D01*
X0308480Y0191961D01*
X0308351Y0191687D01*
X0308229Y0191410D01*
X0308113Y0191130D01*
X0308005Y0190847D01*
X0307903Y0190562D01*
X0307809Y0190275D01*
X0307721Y0189985D01*
X0307641Y0189693D01*
X0307567Y0189400D01*
X0307501Y0189104D01*
X0307443Y0188807D01*
X0307391Y0188509D01*
X0307347Y0188210D01*
X0307310Y0187909D01*
X0307280Y0187608D01*
X0307258Y0187306D01*
X0307243Y0187004D01*
X0307236Y0186701D01*
X0307236Y0186399D01*
X0307243Y0186096D01*
X0307258Y0185794D01*
X0307280Y0185492D01*
X0307310Y0185191D01*
X0307347Y0184890D01*
X0307391Y0184591D01*
X0307443Y0184293D01*
X0307501Y0183996D01*
X0307567Y0183700D01*
X0307641Y0183407D01*
X0307721Y0183115D01*
X0307809Y0182825D01*
X0307903Y0182538D01*
X0308005Y0182253D01*
X0308113Y0181970D01*
X0308229Y0181690D01*
X0308351Y0181413D01*
X0308480Y0181139D01*
X0308616Y0180869D01*
X0308758Y0180602D01*
X0308906Y0180338D01*
X0309062Y0180078D01*
X0309223Y0179822D01*
X0309391Y0179570D01*
X0309564Y0179322D01*
X0309744Y0179079D01*
X0309930Y0178840D01*
X0310121Y0178605D01*
X0310318Y0178375D01*
X0310521Y0178150D01*
X0310729Y0177931D01*
X0310942Y0177716D01*
X0311161Y0177507D01*
X0311384Y0177303D01*
X0311613Y0177104D01*
X0311846Y0176911D01*
X0312084Y0176724D01*
X0312327Y0176543D01*
X0312574Y0176368D01*
X0312825Y0176199D01*
X0313080Y0176036D01*
X0313339Y0175880D01*
X0313601Y0175729D01*
X0313868Y0175586D01*
X0314138Y0175448D01*
X0314411Y0175318D01*
X0314687Y0175194D01*
X0314966Y0175077D01*
X0315248Y0174967D01*
X0315532Y0174863D01*
X0315819Y0174767D01*
X0316108Y0174678D01*
X0316400Y0174596D01*
X0316693Y0174521D01*
X0316988Y0174453D01*
X0317284Y0174392D01*
X0317582Y0174339D01*
X0317882Y0174293D01*
X0318182Y0174254D01*
X0318483Y0174223D01*
X0318785Y0174199D01*
X0319087Y0174182D01*
X0319389Y0174173D01*
X0319692Y0174171D01*
X0319995Y0174177D01*
X0320297Y0174190D01*
X0320599Y0174210D01*
X0320900Y0174238D01*
X0321201Y0174273D01*
X0321501Y0174316D01*
X0321799Y0174365D01*
X0322096Y0174422D01*
X0322392Y0174487D01*
X0322686Y0174558D01*
X0322979Y0174637D01*
X0323269Y0174723D01*
X0323557Y0174816D01*
X0323843Y0174916D01*
X0324126Y0175022D01*
X0324406Y0175136D01*
X0324684Y0175257D01*
X0324958Y0175384D01*
X0325230Y0175518D01*
X0325498Y0175659D01*
X0325762Y0175806D01*
X0326023Y0175959D01*
X0326280Y0176119D01*
X0326533Y0176285D01*
X0326782Y0176458D01*
X0327027Y0176636D01*
X0327267Y0176820D01*
X0327503Y0177010D01*
X0327733Y0177206D01*
X0327959Y0177407D01*
X0328180Y0177614D01*
X0328396Y0177826D01*
X0328607Y0178043D01*
X0328812Y0178266D01*
X0329012Y0178493D01*
X0329206Y0178725D01*
X0329395Y0178962D01*
X0329577Y0179203D01*
X0329754Y0179449D01*
X0329925Y0179699D01*
X0330089Y0179953D01*
X0330247Y0180211D01*
X0330399Y0180473D01*
X0330544Y0180739D01*
X0330683Y0181008D01*
X0330089Y0181285D01*
X0329957Y0181030D01*
X0329819Y0180779D01*
X0329675Y0180532D01*
X0329525Y0180288D01*
X0329369Y0180047D01*
X0329208Y0179811D01*
X0329040Y0179578D01*
X0328867Y0179350D01*
X0328688Y0179126D01*
X0328504Y0178907D01*
X0328315Y0178692D01*
X0328120Y0178482D01*
X0327920Y0178276D01*
X0327716Y0178076D01*
X0327506Y0177880D01*
X0327292Y0177690D01*
X0327073Y0177505D01*
X0326850Y0177325D01*
X0326622Y0177151D01*
X0326391Y0176983D01*
X0326155Y0176820D01*
X0325915Y0176663D01*
X0325672Y0176512D01*
X0325425Y0176367D01*
X0325174Y0176228D01*
X0324920Y0176096D01*
X0324663Y0175969D01*
X0324403Y0175849D01*
X0324140Y0175735D01*
X0323875Y0175628D01*
X0323607Y0175527D01*
X0323336Y0175432D01*
X0323063Y0175345D01*
X0322788Y0175264D01*
X0322512Y0175190D01*
X0322233Y0175122D01*
X0321953Y0175062D01*
X0321672Y0175008D01*
X0321389Y0174961D01*
X0321106Y0174921D01*
X0320821Y0174888D01*
X0320536Y0174862D01*
X0320250Y0174843D01*
X0319964Y0174831D01*
X0319677Y0174826D01*
X0319391Y0174828D01*
X0319104Y0174837D01*
X0318818Y0174853D01*
X0318533Y0174876D01*
X0318248Y0174906D01*
X0317964Y0174943D01*
X0317680Y0174987D01*
X0317398Y0175037D01*
X0317118Y0175095D01*
X0316839Y0175159D01*
X0316561Y0175230D01*
X0316286Y0175308D01*
X0316012Y0175393D01*
X0315740Y0175484D01*
X0315471Y0175582D01*
X0315204Y0175687D01*
X0314940Y0175798D01*
X0314679Y0175915D01*
X0314420Y0176039D01*
X0314165Y0176169D01*
X0313913Y0176305D01*
X0313665Y0176448D01*
X0313420Y0176596D01*
X0313178Y0176750D01*
X0312941Y0176911D01*
X0312707Y0177077D01*
X0312478Y0177248D01*
X0312253Y0177425D01*
X0312032Y0177608D01*
X0311816Y0177796D01*
X0311604Y0177989D01*
X0311397Y0178187D01*
X0311195Y0178391D01*
X0310998Y0178599D01*
X0310807Y0178812D01*
X0310620Y0179029D01*
X0310439Y0179251D01*
X0310264Y0179477D01*
X0310094Y0179708D01*
X0309929Y0179943D01*
X0309771Y0180181D01*
X0309618Y0180424D01*
X0309471Y0180670D01*
X0309331Y0180919D01*
X0309196Y0181172D01*
X0309068Y0181429D01*
X0308946Y0181688D01*
X0308830Y0181950D01*
X0308721Y0182215D01*
X0308618Y0182482D01*
X0308522Y0182752D01*
X0308433Y0183024D01*
X0308350Y0183298D01*
X0308274Y0183575D01*
X0308205Y0183853D01*
X0308142Y0184132D01*
X0308086Y0184413D01*
X0308038Y0184696D01*
X0307996Y0184979D01*
X0307961Y0185263D01*
X0307933Y0185548D01*
X0307912Y0185834D01*
X0307898Y0186120D01*
X0307891Y0186407D01*
X0307891Y0186693D01*
X0307898Y0186980D01*
X0307912Y0187266D01*
X0307933Y0187552D01*
X0307961Y0187837D01*
X0307996Y0188121D01*
X0308038Y0188404D01*
X0308086Y0188687D01*
X0308142Y0188968D01*
X0308205Y0189247D01*
X0308274Y0189525D01*
X0308350Y0189802D01*
X0308433Y0190076D01*
X0308522Y0190348D01*
X0308618Y0190618D01*
X0308721Y0190885D01*
X0308830Y0191150D01*
X0308946Y0191412D01*
X0309068Y0191671D01*
X0309196Y0191928D01*
X0309331Y0192181D01*
X0309471Y0192430D01*
X0309618Y0192676D01*
X0309771Y0192919D01*
X0309929Y0193157D01*
X0310094Y0193392D01*
X0310264Y0193623D01*
X0310439Y0193849D01*
X0310620Y0194071D01*
X0310807Y0194288D01*
X0310998Y0194501D01*
X0311195Y0194709D01*
X0311397Y0194913D01*
X0311604Y0195111D01*
X0311816Y0195304D01*
X0312032Y0195492D01*
X0312253Y0195675D01*
X0312478Y0195852D01*
X0312707Y0196023D01*
X0312941Y0196189D01*
X0313178Y0196350D01*
X0313420Y0196504D01*
X0313665Y0196652D01*
X0313913Y0196795D01*
X0314165Y0196931D01*
X0314420Y0197061D01*
X0314679Y0197185D01*
X0314940Y0197302D01*
X0315204Y0197413D01*
X0315471Y0197518D01*
X0315740Y0197616D01*
X0316012Y0197707D01*
X0316286Y0197792D01*
X0316561Y0197870D01*
X0316839Y0197941D01*
X0317118Y0198005D01*
X0317398Y0198063D01*
X0317680Y0198113D01*
X0317964Y0198157D01*
X0318248Y0198194D01*
X0318533Y0198224D01*
X0318818Y0198247D01*
X0319104Y0198263D01*
X0319391Y0198272D01*
X0319677Y0198274D01*
X0319964Y0198269D01*
X0320250Y0198257D01*
X0320536Y0198238D01*
X0320821Y0198212D01*
X0321106Y0198179D01*
X0321389Y0198139D01*
X0321672Y0198092D01*
X0321953Y0198038D01*
X0322233Y0197978D01*
X0322512Y0197910D01*
X0322788Y0197836D01*
X0323063Y0197755D01*
X0323336Y0197668D01*
X0323607Y0197573D01*
X0323875Y0197472D01*
X0324140Y0197365D01*
X0324403Y0197251D01*
X0324663Y0197131D01*
X0324920Y0197004D01*
X0325174Y0196872D01*
X0325425Y0196733D01*
X0325672Y0196588D01*
X0325915Y0196437D01*
X0326155Y0196280D01*
X0326391Y0196117D01*
X0326622Y0195949D01*
X0326850Y0195775D01*
X0327073Y0195595D01*
X0327292Y0195410D01*
X0327506Y0195220D01*
X0327716Y0195024D01*
X0327920Y0194824D01*
X0328120Y0194618D01*
X0328315Y0194408D01*
X0328504Y0194193D01*
X0328688Y0193974D01*
X0328867Y0193750D01*
X0329040Y0193522D01*
X0329208Y0193289D01*
X0329369Y0193053D01*
X0329525Y0192812D01*
X0329675Y0192568D01*
X0329819Y0192321D01*
X0329957Y0192070D01*
X0330089Y0191815D01*
X0329495Y0191538D01*
X0329370Y0191779D01*
X0329239Y0192017D01*
X0329102Y0192251D01*
X0328959Y0192482D01*
X0328811Y0192710D01*
X0328657Y0192934D01*
X0328497Y0193154D01*
X0328333Y0193369D01*
X0328163Y0193581D01*
X0327988Y0193789D01*
X0327808Y0193992D01*
X0327623Y0194191D01*
X0327433Y0194385D01*
X0327238Y0194574D01*
X0327039Y0194759D01*
X0326836Y0194939D01*
X0326628Y0195113D01*
X0326415Y0195283D01*
X0326199Y0195447D01*
X0325979Y0195606D01*
X0325755Y0195759D01*
X0325527Y0195907D01*
X0325296Y0196049D01*
X0325061Y0196186D01*
X0324823Y0196317D01*
X0324582Y0196442D01*
X0324338Y0196560D01*
X0324091Y0196673D01*
X0323841Y0196780D01*
X0323589Y0196881D01*
X0323334Y0196975D01*
X0323077Y0197063D01*
X0322819Y0197145D01*
X0322558Y0197220D01*
X0322295Y0197289D01*
X0322031Y0197352D01*
X0321765Y0197408D01*
X0321498Y0197457D01*
X0321230Y0197500D01*
X0320961Y0197537D01*
X0320691Y0197566D01*
X0320420Y0197590D01*
X0320149Y0197606D01*
X0319878Y0197616D01*
X0319606Y0197619D01*
X0319335Y0197615D01*
X0319064Y0197605D01*
X0318792Y0197588D01*
X0318522Y0197565D01*
X0318252Y0197535D01*
X0317983Y0197498D01*
X0317715Y0197455D01*
X0317448Y0197405D01*
X0317182Y0197349D01*
X0316918Y0197286D01*
X0316656Y0197216D01*
X0316395Y0197141D01*
X0316136Y0197058D01*
X0315879Y0196970D01*
X0315625Y0196875D01*
X0315373Y0196774D01*
X0315123Y0196667D01*
X0314876Y0196554D01*
X0314632Y0196435D01*
X0314391Y0196310D01*
X0314154Y0196178D01*
X0313919Y0196042D01*
X0313688Y0195899D01*
X0313460Y0195751D01*
X0313237Y0195597D01*
X0313017Y0195438D01*
X0312801Y0195274D01*
X0312589Y0195104D01*
X0312381Y0194929D01*
X0312178Y0194749D01*
X0311979Y0194564D01*
X0311784Y0194374D01*
X0311595Y0194180D01*
X0311410Y0193981D01*
X0311230Y0193777D01*
X0311055Y0193570D01*
X0310886Y0193357D01*
X0310721Y0193141D01*
X0310562Y0192921D01*
X0310409Y0192697D01*
X0310261Y0192470D01*
X0310118Y0192238D01*
X0309982Y0192004D01*
X0309851Y0191766D01*
X0309726Y0191525D01*
X0309607Y0191281D01*
X0309494Y0191034D01*
X0309387Y0190784D01*
X0309286Y0190532D01*
X0309191Y0190277D01*
X0309103Y0190021D01*
X0309021Y0189762D01*
X0308946Y0189501D01*
X0308876Y0189238D01*
X0308814Y0188974D01*
X0308758Y0188709D01*
X0308708Y0188442D01*
X0308665Y0188173D01*
X0308628Y0187904D01*
X0308598Y0187634D01*
X0308575Y0187364D01*
X0308558Y0187093D01*
X0308548Y0186822D01*
X0308545Y0186550D01*
X0308548Y0186278D01*
X0308558Y0186007D01*
X0308575Y0185736D01*
X0308598Y0185466D01*
X0308628Y0185196D01*
X0308665Y0184927D01*
X0308708Y0184658D01*
X0308758Y0184391D01*
X0308814Y0184126D01*
X0308876Y0183862D01*
X0308946Y0183599D01*
X0309021Y0183338D01*
X0309103Y0183079D01*
X0309191Y0182823D01*
X0309286Y0182568D01*
X0309387Y0182316D01*
X0309494Y0182066D01*
X0309607Y0181819D01*
X0309726Y0181575D01*
X0309851Y0181334D01*
X0309982Y0181096D01*
X0310118Y0180862D01*
X0310261Y0180630D01*
X0310409Y0180403D01*
X0310562Y0180179D01*
X0310721Y0179959D01*
X0310886Y0179743D01*
X0311055Y0179530D01*
X0311230Y0179323D01*
X0311410Y0179119D01*
X0311595Y0178920D01*
X0311784Y0178726D01*
X0311979Y0178536D01*
X0312178Y0178351D01*
X0312381Y0178171D01*
X0312589Y0177996D01*
X0312801Y0177826D01*
X0313017Y0177662D01*
X0313237Y0177503D01*
X0313460Y0177349D01*
X0313688Y0177201D01*
X0313919Y0177058D01*
X0314154Y0176922D01*
X0314391Y0176790D01*
X0314632Y0176665D01*
X0314876Y0176546D01*
X0315123Y0176433D01*
X0315373Y0176326D01*
X0315625Y0176225D01*
X0315879Y0176130D01*
X0316136Y0176042D01*
X0316395Y0175959D01*
X0316656Y0175884D01*
X0316918Y0175814D01*
X0317182Y0175751D01*
X0317448Y0175695D01*
X0317715Y0175645D01*
X0317983Y0175602D01*
X0318252Y0175565D01*
X0318522Y0175535D01*
X0318792Y0175512D01*
X0319064Y0175495D01*
X0319335Y0175485D01*
X0319606Y0175481D01*
X0319878Y0175484D01*
X0320149Y0175494D01*
X0320420Y0175510D01*
X0320691Y0175534D01*
X0320961Y0175563D01*
X0321230Y0175600D01*
X0321498Y0175643D01*
X0321765Y0175692D01*
X0322031Y0175748D01*
X0322295Y0175811D01*
X0322558Y0175880D01*
X0322819Y0175955D01*
X0323077Y0176037D01*
X0323334Y0176125D01*
X0323589Y0176219D01*
X0323841Y0176320D01*
X0324091Y0176427D01*
X0324338Y0176540D01*
X0324582Y0176658D01*
X0324823Y0176783D01*
X0325061Y0176914D01*
X0325296Y0177051D01*
X0325527Y0177193D01*
X0325755Y0177341D01*
X0325979Y0177494D01*
X0326199Y0177653D01*
X0326415Y0177817D01*
X0326628Y0177987D01*
X0326836Y0178161D01*
X0327039Y0178341D01*
X0327238Y0178526D01*
X0327433Y0178715D01*
X0327623Y0178909D01*
X0327808Y0179108D01*
X0327988Y0179311D01*
X0328163Y0179519D01*
X0328333Y0179731D01*
X0328497Y0179946D01*
X0328657Y0180166D01*
X0328811Y0180390D01*
X0328959Y0180618D01*
X0329102Y0180849D01*
X0329239Y0181083D01*
X0329370Y0181321D01*
X0329495Y0181562D01*
X0328901Y0181839D01*
X0328783Y0181612D01*
X0328659Y0181389D01*
X0328530Y0181169D01*
X0328395Y0180952D01*
X0328256Y0180738D01*
X0328111Y0180528D01*
X0327960Y0180322D01*
X0327805Y0180119D01*
X0327645Y0179920D01*
X0327480Y0179725D01*
X0327311Y0179535D01*
X0327136Y0179348D01*
X0326957Y0179166D01*
X0326774Y0178988D01*
X0326587Y0178815D01*
X0326395Y0178646D01*
X0326199Y0178482D01*
X0326000Y0178323D01*
X0325796Y0178169D01*
X0325589Y0178020D01*
X0325378Y0177876D01*
X0325163Y0177738D01*
X0324946Y0177604D01*
X0324725Y0177476D01*
X0324501Y0177354D01*
X0324274Y0177237D01*
X0324044Y0177125D01*
X0323812Y0177020D01*
X0323577Y0176920D01*
X0323340Y0176825D01*
X0323100Y0176737D01*
X0322859Y0176654D01*
X0322615Y0176578D01*
X0322370Y0176507D01*
X0322123Y0176443D01*
X0321874Y0176384D01*
X0321625Y0176332D01*
X0321373Y0176286D01*
X0321121Y0176246D01*
X0320868Y0176212D01*
X0320615Y0176184D01*
X0320360Y0176163D01*
X0320105Y0176148D01*
X0319850Y0176139D01*
X0319595Y0176136D01*
X0319340Y0176140D01*
X0319084Y0176149D01*
X0318830Y0176166D01*
X0318575Y0176188D01*
X0318322Y0176216D01*
X0318069Y0176251D01*
X0317817Y0176292D01*
X0317566Y0176339D01*
X0317316Y0176393D01*
X0317068Y0176452D01*
X0316821Y0176517D01*
X0316576Y0176589D01*
X0316333Y0176666D01*
X0316092Y0176750D01*
X0315852Y0176839D01*
X0315615Y0176934D01*
X0315381Y0177035D01*
X0315149Y0177142D01*
X0314920Y0177254D01*
X0314693Y0177372D01*
X0314470Y0177495D01*
X0314249Y0177624D01*
X0314032Y0177758D01*
X0313818Y0177898D01*
X0313608Y0178042D01*
X0313401Y0178192D01*
X0313198Y0178347D01*
X0312999Y0178507D01*
X0312804Y0178671D01*
X0312613Y0178841D01*
X0312426Y0179015D01*
X0312243Y0179193D01*
X0312065Y0179376D01*
X0311892Y0179563D01*
X0311723Y0179754D01*
X0311559Y0179950D01*
X0311399Y0180149D01*
X0311245Y0180353D01*
X0311095Y0180560D01*
X0310951Y0180770D01*
X0310812Y0180984D01*
X0310678Y0181202D01*
X0310550Y0181422D01*
X0310427Y0181646D01*
X0310309Y0181873D01*
X0310198Y0182102D01*
X0310091Y0182334D01*
X0309991Y0182569D01*
X0309896Y0182806D01*
X0309807Y0183046D01*
X0309724Y0183287D01*
X0309647Y0183530D01*
X0309576Y0183776D01*
X0309511Y0184023D01*
X0309452Y0184271D01*
X0309400Y0184521D01*
X0309353Y0184772D01*
X0309312Y0185024D01*
X0309278Y0185277D01*
X0309250Y0185530D01*
X0309228Y0185785D01*
X0309213Y0186040D01*
X0309203Y0186295D01*
X0309200Y0186550D01*
X0309203Y0186805D01*
X0309213Y0187060D01*
X0309228Y0187315D01*
X0309250Y0187570D01*
X0309278Y0187823D01*
X0309312Y0188076D01*
X0309353Y0188328D01*
X0309400Y0188579D01*
X0309452Y0188829D01*
X0309511Y0189077D01*
X0309576Y0189324D01*
X0309647Y0189570D01*
X0309724Y0189813D01*
X0309807Y0190054D01*
X0309896Y0190294D01*
X0309991Y0190531D01*
X0310091Y0190766D01*
X0310198Y0190998D01*
X0310309Y0191227D01*
X0310427Y0191454D01*
X0310550Y0191678D01*
X0310678Y0191898D01*
X0310812Y0192116D01*
X0310951Y0192330D01*
X0311095Y0192540D01*
X0311245Y0192747D01*
X0311399Y0192951D01*
X0311559Y0193150D01*
X0311723Y0193346D01*
X0311892Y0193537D01*
X0312065Y0193724D01*
X0312243Y0193907D01*
X0312426Y0194085D01*
X0312613Y0194259D01*
X0312804Y0194429D01*
X0312999Y0194593D01*
X0313198Y0194753D01*
X0313401Y0194908D01*
X0313608Y0195058D01*
X0313818Y0195202D01*
X0314032Y0195342D01*
X0314249Y0195476D01*
X0314470Y0195605D01*
X0314693Y0195728D01*
X0314920Y0195846D01*
X0315149Y0195958D01*
X0315381Y0196065D01*
X0315615Y0196166D01*
X0315852Y0196261D01*
X0316092Y0196350D01*
X0316333Y0196434D01*
X0316576Y0196511D01*
X0316821Y0196583D01*
X0317068Y0196648D01*
X0317316Y0196707D01*
X0317566Y0196761D01*
X0317817Y0196808D01*
X0318069Y0196849D01*
X0318322Y0196884D01*
X0318575Y0196912D01*
X0318830Y0196934D01*
X0319084Y0196951D01*
X0319340Y0196960D01*
X0319595Y0196964D01*
X0319850Y0196961D01*
X0320105Y0196952D01*
X0320360Y0196937D01*
X0320615Y0196916D01*
X0320868Y0196888D01*
X0321121Y0196854D01*
X0321373Y0196814D01*
X0321625Y0196768D01*
X0321874Y0196716D01*
X0322123Y0196657D01*
X0322370Y0196593D01*
X0322615Y0196522D01*
X0322859Y0196446D01*
X0323100Y0196363D01*
X0323340Y0196275D01*
X0323577Y0196180D01*
X0323812Y0196080D01*
X0324044Y0195975D01*
X0324274Y0195863D01*
X0324501Y0195746D01*
X0324725Y0195624D01*
X0324946Y0195496D01*
X0325163Y0195362D01*
X0325378Y0195224D01*
X0325589Y0195080D01*
X0325796Y0194931D01*
X0326000Y0194777D01*
X0326199Y0194618D01*
X0326395Y0194454D01*
X0326587Y0194285D01*
X0326774Y0194112D01*
X0326957Y0193934D01*
X0327136Y0193752D01*
X0327311Y0193565D01*
X0327480Y0193375D01*
X0327645Y0193180D01*
X0327805Y0192981D01*
X0327960Y0192778D01*
X0328111Y0192572D01*
X0328256Y0192362D01*
X0328395Y0192148D01*
X0328530Y0191931D01*
X0328659Y0191711D01*
X0328783Y0191488D01*
X0328901Y0191261D01*
X0328307Y0190984D01*
X0328196Y0191196D01*
X0328080Y0191405D01*
X0327958Y0191611D01*
X0327832Y0191813D01*
X0327701Y0192013D01*
X0327564Y0192210D01*
X0327423Y0192403D01*
X0327278Y0192592D01*
X0327127Y0192778D01*
X0326973Y0192960D01*
X0326813Y0193138D01*
X0326650Y0193313D01*
X0326482Y0193483D01*
X0326310Y0193649D01*
X0326134Y0193811D01*
X0325954Y0193969D01*
X0325771Y0194122D01*
X0325584Y0194270D01*
X0325393Y0194414D01*
X0325198Y0194553D01*
X0325001Y0194688D01*
X0324800Y0194817D01*
X0324596Y0194942D01*
X0324389Y0195061D01*
X0324179Y0195176D01*
X0323966Y0195285D01*
X0323751Y0195389D01*
X0323533Y0195487D01*
X0323313Y0195581D01*
X0323091Y0195669D01*
X0322866Y0195751D01*
X0322640Y0195828D01*
X0322412Y0195899D01*
X0322182Y0195965D01*
X0321951Y0196025D01*
X0321718Y0196079D01*
X0321484Y0196128D01*
X0321249Y0196171D01*
X0321013Y0196208D01*
X0320776Y0196240D01*
X0320538Y0196265D01*
X0320300Y0196285D01*
X0320061Y0196299D01*
X0319822Y0196307D01*
X0319583Y0196309D01*
X0319344Y0196305D01*
X0319105Y0196296D01*
X0318867Y0196280D01*
X0318629Y0196259D01*
X0318391Y0196232D01*
X0318155Y0196199D01*
X0317919Y0196161D01*
X0317684Y0196116D01*
X0317450Y0196066D01*
X0317218Y0196010D01*
X0316987Y0195949D01*
X0316757Y0195882D01*
X0316530Y0195809D01*
X0316304Y0195730D01*
X0316080Y0195647D01*
X0315858Y0195557D01*
X0315639Y0195463D01*
X0315422Y0195363D01*
X0315207Y0195257D01*
X0314995Y0195147D01*
X0314786Y0195031D01*
X0314580Y0194910D01*
X0314376Y0194784D01*
X0314176Y0194654D01*
X0313979Y0194518D01*
X0313786Y0194378D01*
X0313596Y0194233D01*
X0313410Y0194083D01*
X0313227Y0193929D01*
X0313048Y0193770D01*
X0312873Y0193607D01*
X0312703Y0193440D01*
X0312536Y0193268D01*
X0312373Y0193093D01*
X0312215Y0192914D01*
X0312062Y0192731D01*
X0311913Y0192544D01*
X0311768Y0192353D01*
X0311628Y0192160D01*
X0311493Y0191962D01*
X0311363Y0191762D01*
X0311238Y0191558D01*
X0311118Y0191351D01*
X0311003Y0191142D01*
X0310893Y0190930D01*
X0310788Y0190715D01*
X0310689Y0190497D01*
X0310595Y0190278D01*
X0310506Y0190056D01*
X0310423Y0189831D01*
X0310346Y0189605D01*
X0310274Y0189377D01*
X0310207Y0189148D01*
X0310146Y0188917D01*
X0310091Y0188684D01*
X0310042Y0188450D01*
X0309998Y0188215D01*
X0309960Y0187979D01*
X0309928Y0187742D01*
X0309902Y0187505D01*
X0309881Y0187266D01*
X0309867Y0187028D01*
X0309858Y0186789D01*
X0309855Y0186550D01*
X0309858Y0186311D01*
X0309867Y0186072D01*
X0309881Y0185834D01*
X0309902Y0185595D01*
X0309928Y0185358D01*
X0309960Y0185121D01*
X0309998Y0184885D01*
X0310042Y0184650D01*
X0310091Y0184416D01*
X0310146Y0184183D01*
X0310207Y0183952D01*
X0310274Y0183723D01*
X0310346Y0183495D01*
X0310423Y0183269D01*
X0310506Y0183044D01*
X0310595Y0182822D01*
X0310689Y0182603D01*
X0310788Y0182385D01*
X0310893Y0182170D01*
X0311003Y0181958D01*
X0311118Y0181749D01*
X0311238Y0181542D01*
X0311363Y0181338D01*
X0311493Y0181138D01*
X0311628Y0180940D01*
X0311768Y0180747D01*
X0311913Y0180556D01*
X0312062Y0180369D01*
X0312215Y0180186D01*
X0312373Y0180007D01*
X0312536Y0179832D01*
X0312703Y0179660D01*
X0312873Y0179493D01*
X0313048Y0179330D01*
X0313227Y0179171D01*
X0313410Y0179017D01*
X0313596Y0178867D01*
X0313786Y0178722D01*
X0313979Y0178582D01*
X0314176Y0178446D01*
X0314376Y0178316D01*
X0314580Y0178190D01*
X0314786Y0178069D01*
X0314995Y0177953D01*
X0315207Y0177843D01*
X0315422Y0177737D01*
X0315639Y0177637D01*
X0315858Y0177543D01*
X0316080Y0177453D01*
X0316304Y0177370D01*
X0316530Y0177291D01*
X0316757Y0177218D01*
X0316987Y0177151D01*
X0317218Y0177090D01*
X0317450Y0177034D01*
X0317684Y0176984D01*
X0317919Y0176939D01*
X0318155Y0176901D01*
X0318391Y0176868D01*
X0318629Y0176841D01*
X0318867Y0176820D01*
X0319105Y0176804D01*
X0319344Y0176795D01*
X0319583Y0176791D01*
X0319822Y0176793D01*
X0320061Y0176801D01*
X0320300Y0176815D01*
X0320538Y0176835D01*
X0320776Y0176860D01*
X0321013Y0176892D01*
X0321249Y0176929D01*
X0321484Y0176972D01*
X0321718Y0177021D01*
X0321951Y0177075D01*
X0322182Y0177135D01*
X0322412Y0177201D01*
X0322640Y0177272D01*
X0322866Y0177349D01*
X0323091Y0177431D01*
X0323313Y0177519D01*
X0323533Y0177613D01*
X0323751Y0177711D01*
X0323966Y0177815D01*
X0324179Y0177924D01*
X0324389Y0178039D01*
X0324596Y0178158D01*
X0324800Y0178283D01*
X0325001Y0178412D01*
X0325198Y0178547D01*
X0325393Y0178686D01*
X0325584Y0178830D01*
X0325771Y0178978D01*
X0325954Y0179131D01*
X0326134Y0179289D01*
X0326310Y0179451D01*
X0326482Y0179617D01*
X0326650Y0179787D01*
X0326813Y0179962D01*
X0326973Y0180140D01*
X0327127Y0180322D01*
X0327278Y0180508D01*
X0327423Y0180697D01*
X0327564Y0180890D01*
X0327701Y0181087D01*
X0327832Y0181287D01*
X0327958Y0181489D01*
X0328080Y0181695D01*
X0328196Y0181904D01*
X0328307Y0182116D01*
X0327713Y0182393D01*
X0327609Y0182196D01*
X0327500Y0182001D01*
X0327387Y0181810D01*
X0327268Y0181621D01*
X0327145Y0181435D01*
X0327018Y0181252D01*
X0326886Y0181073D01*
X0326750Y0180897D01*
X0326609Y0180724D01*
X0326465Y0180554D01*
X0326316Y0180388D01*
X0326163Y0180226D01*
X0326007Y0180068D01*
X0325846Y0179913D01*
X0325682Y0179763D01*
X0325514Y0179616D01*
X0325342Y0179474D01*
X0325168Y0179336D01*
X0324989Y0179202D01*
X0324808Y0179073D01*
X0324624Y0178948D01*
X0324436Y0178828D01*
X0324246Y0178712D01*
X0324052Y0178601D01*
X0323857Y0178495D01*
X0323658Y0178394D01*
X0323457Y0178297D01*
X0323254Y0178206D01*
X0323049Y0178119D01*
X0322842Y0178037D01*
X0322633Y0177961D01*
X0322421Y0177890D01*
X0322209Y0177824D01*
X0321994Y0177763D01*
X0321779Y0177707D01*
X0321562Y0177657D01*
X0321343Y0177612D01*
X0321124Y0177572D01*
X0320904Y0177538D01*
X0320683Y0177509D01*
X0320462Y0177486D01*
X0320240Y0177468D01*
X0320017Y0177455D01*
X0319795Y0177448D01*
X0319572Y0177446D01*
X0319349Y0177450D01*
X0319126Y0177459D01*
X0318904Y0177474D01*
X0318682Y0177494D01*
X0318461Y0177519D01*
X0318240Y0177550D01*
X0318021Y0177587D01*
X0317802Y0177628D01*
X0317584Y0177675D01*
X0317367Y0177728D01*
X0317152Y0177785D01*
X0316938Y0177848D01*
X0316726Y0177916D01*
X0316516Y0177989D01*
X0316307Y0178068D01*
X0316101Y0178151D01*
X0315896Y0178240D01*
X0315694Y0178333D01*
X0315494Y0178431D01*
X0315297Y0178535D01*
X0315102Y0178643D01*
X0314910Y0178756D01*
X0314721Y0178873D01*
X0314534Y0178995D01*
X0314351Y0179122D01*
X0314171Y0179253D01*
X0313994Y0179388D01*
X0313820Y0179528D01*
X0313650Y0179671D01*
X0313484Y0179819D01*
X0313321Y0179971D01*
X0313162Y0180127D01*
X0313006Y0180287D01*
X0312855Y0180451D01*
X0312708Y0180618D01*
X0312565Y0180789D01*
X0312426Y0180963D01*
X0312291Y0181141D01*
X0312161Y0181321D01*
X0312036Y0181505D01*
X0311914Y0181692D01*
X0311798Y0181882D01*
X0311686Y0182075D01*
X0311579Y0182270D01*
X0311476Y0182468D01*
X0311379Y0182668D01*
X0311286Y0182871D01*
X0311199Y0183076D01*
X0311116Y0183283D01*
X0311039Y0183492D01*
X0310967Y0183702D01*
X0310900Y0183915D01*
X0310838Y0184129D01*
X0310781Y0184344D01*
X0310730Y0184561D01*
X0310684Y0184779D01*
X0310643Y0184998D01*
X0310608Y0185218D01*
X0310578Y0185439D01*
X0310554Y0185660D01*
X0310535Y0185882D01*
X0310521Y0186105D01*
X0310513Y0186327D01*
X0310510Y0186550D01*
X0310513Y0186773D01*
X0310521Y0186995D01*
X0310535Y0187218D01*
X0310554Y0187440D01*
X0310578Y0187661D01*
X0310608Y0187882D01*
X0310643Y0188102D01*
X0310684Y0188321D01*
X0310730Y0188539D01*
X0310781Y0188756D01*
X0310838Y0188971D01*
X0310900Y0189185D01*
X0310967Y0189398D01*
X0311039Y0189608D01*
X0311116Y0189817D01*
X0311199Y0190024D01*
X0311286Y0190229D01*
X0311379Y0190432D01*
X0311476Y0190632D01*
X0311579Y0190830D01*
X0311686Y0191025D01*
X0311798Y0191218D01*
X0311914Y0191408D01*
X0312036Y0191595D01*
X0312161Y0191779D01*
X0312291Y0191959D01*
X0312426Y0192137D01*
X0312565Y0192311D01*
X0312708Y0192482D01*
X0312855Y0192649D01*
X0313006Y0192813D01*
X0313162Y0192973D01*
X0313321Y0193129D01*
X0313484Y0193281D01*
X0313650Y0193429D01*
X0313820Y0193572D01*
X0313994Y0193712D01*
X0314171Y0193847D01*
X0314351Y0193978D01*
X0314534Y0194105D01*
X0314721Y0194227D01*
X0314910Y0194344D01*
X0315102Y0194457D01*
X0315297Y0194565D01*
X0315494Y0194669D01*
X0315694Y0194767D01*
X0315896Y0194860D01*
X0316101Y0194949D01*
X0316307Y0195032D01*
X0316516Y0195111D01*
X0316726Y0195184D01*
X0316938Y0195252D01*
X0317152Y0195315D01*
X0317367Y0195372D01*
X0317584Y0195425D01*
X0317802Y0195472D01*
X0318021Y0195513D01*
X0318240Y0195550D01*
X0318461Y0195581D01*
X0318682Y0195606D01*
X0318904Y0195626D01*
X0319126Y0195641D01*
X0319349Y0195650D01*
X0319572Y0195654D01*
X0319795Y0195652D01*
X0320017Y0195645D01*
X0320240Y0195632D01*
X0320462Y0195614D01*
X0320683Y0195591D01*
X0320904Y0195562D01*
X0321124Y0195528D01*
X0321343Y0195488D01*
X0321562Y0195443D01*
X0321779Y0195393D01*
X0321994Y0195337D01*
X0322209Y0195276D01*
X0322421Y0195210D01*
X0322633Y0195139D01*
X0322842Y0195063D01*
X0323049Y0194981D01*
X0323254Y0194894D01*
X0323457Y0194803D01*
X0323658Y0194706D01*
X0323857Y0194605D01*
X0324052Y0194499D01*
X0324246Y0194388D01*
X0324436Y0194272D01*
X0324624Y0194152D01*
X0324808Y0194027D01*
X0324989Y0193898D01*
X0325168Y0193764D01*
X0325342Y0193626D01*
X0325514Y0193484D01*
X0325682Y0193337D01*
X0325846Y0193187D01*
X0326007Y0193032D01*
X0326163Y0192874D01*
X0326316Y0192712D01*
X0326465Y0192546D01*
X0326609Y0192376D01*
X0326750Y0192203D01*
X0326886Y0192027D01*
X0327018Y0191848D01*
X0327145Y0191665D01*
X0327268Y0191479D01*
X0327387Y0191290D01*
X0327500Y0191099D01*
X0327609Y0190904D01*
X0327713Y0190707D01*
X0327119Y0190430D01*
X0327022Y0190613D01*
X0326921Y0190792D01*
X0326815Y0190970D01*
X0326705Y0191144D01*
X0326590Y0191316D01*
X0326472Y0191485D01*
X0326349Y0191652D01*
X0326222Y0191815D01*
X0326092Y0191975D01*
X0325957Y0192131D01*
X0325819Y0192285D01*
X0325677Y0192435D01*
X0325531Y0192581D01*
X0325382Y0192724D01*
X0325229Y0192863D01*
X0325073Y0192998D01*
X0324914Y0193130D01*
X0324752Y0193257D01*
X0324586Y0193381D01*
X0324418Y0193501D01*
X0324246Y0193616D01*
X0324072Y0193727D01*
X0323896Y0193834D01*
X0323716Y0193936D01*
X0323534Y0194034D01*
X0323350Y0194128D01*
X0323164Y0194217D01*
X0322976Y0194301D01*
X0322785Y0194381D01*
X0322593Y0194456D01*
X0322399Y0194527D01*
X0322203Y0194593D01*
X0322005Y0194653D01*
X0321807Y0194710D01*
X0321607Y0194761D01*
X0321405Y0194807D01*
X0321203Y0194848D01*
X0321000Y0194885D01*
X0320796Y0194916D01*
X0320591Y0194942D01*
X0320385Y0194964D01*
X0320179Y0194980D01*
X0319973Y0194991D01*
X0319767Y0194998D01*
X0319560Y0194999D01*
X0319354Y0194995D01*
X0319147Y0194986D01*
X0318941Y0194972D01*
X0318736Y0194953D01*
X0318531Y0194929D01*
X0318326Y0194900D01*
X0318122Y0194866D01*
X0317920Y0194827D01*
X0317718Y0194783D01*
X0317517Y0194735D01*
X0317318Y0194681D01*
X0317120Y0194622D01*
X0316923Y0194559D01*
X0316728Y0194491D01*
X0316535Y0194418D01*
X0316343Y0194340D01*
X0316154Y0194258D01*
X0315967Y0194171D01*
X0315782Y0194080D01*
X0315599Y0193984D01*
X0315418Y0193883D01*
X0315240Y0193779D01*
X0315065Y0193670D01*
X0314892Y0193556D01*
X0314722Y0193439D01*
X0314555Y0193317D01*
X0314391Y0193192D01*
X0314231Y0193062D01*
X0314073Y0192928D01*
X0313919Y0192791D01*
X0313768Y0192650D01*
X0313621Y0192505D01*
X0313477Y0192357D01*
X0313337Y0192205D01*
X0313200Y0192050D01*
X0313068Y0191892D01*
X0312939Y0191730D01*
X0312815Y0191566D01*
X0312694Y0191398D01*
X0312578Y0191227D01*
X0312466Y0191054D01*
X0312358Y0190878D01*
X0312254Y0190699D01*
X0312155Y0190518D01*
X0312060Y0190335D01*
X0311970Y0190149D01*
X0311884Y0189961D01*
X0311803Y0189771D01*
X0311727Y0189579D01*
X0311655Y0189385D01*
X0311588Y0189190D01*
X0311526Y0188993D01*
X0311469Y0188795D01*
X0311416Y0188595D01*
X0311369Y0188394D01*
X0311326Y0188192D01*
X0311288Y0187989D01*
X0311256Y0187785D01*
X0311228Y0187580D01*
X0311205Y0187375D01*
X0311188Y0187169D01*
X0311175Y0186963D01*
X0311168Y0186757D01*
X0311165Y0186550D01*
X0311168Y0186343D01*
X0311175Y0186137D01*
X0311188Y0185931D01*
X0311205Y0185725D01*
X0311228Y0185520D01*
X0311256Y0185315D01*
X0311288Y0185111D01*
X0311326Y0184908D01*
X0311369Y0184706D01*
X0311416Y0184505D01*
X0311469Y0184305D01*
X0311526Y0184107D01*
X0311588Y0183910D01*
X0311655Y0183715D01*
X0311727Y0183521D01*
X0311803Y0183329D01*
X0311884Y0183139D01*
X0311970Y0182951D01*
X0312060Y0182765D01*
X0312155Y0182582D01*
X0312254Y0182401D01*
X0312358Y0182222D01*
X0312466Y0182046D01*
X0312578Y0181873D01*
X0312694Y0181702D01*
X0312815Y0181534D01*
X0312939Y0181370D01*
X0313068Y0181208D01*
X0313200Y0181050D01*
X0313337Y0180895D01*
X0313477Y0180743D01*
X0313621Y0180595D01*
X0313768Y0180450D01*
X0313919Y0180309D01*
X0314073Y0180172D01*
X0314231Y0180038D01*
X0314391Y0179908D01*
X0314555Y0179783D01*
X0314722Y0179661D01*
X0314892Y0179544D01*
X0315065Y0179430D01*
X0315240Y0179321D01*
X0315418Y0179217D01*
X0315599Y0179116D01*
X0315782Y0179020D01*
X0315967Y0178929D01*
X0316154Y0178842D01*
X0316343Y0178760D01*
X0316535Y0178682D01*
X0316728Y0178609D01*
X0316923Y0178541D01*
X0317120Y0178478D01*
X0317318Y0178419D01*
X0317517Y0178365D01*
X0317718Y0178317D01*
X0317920Y0178273D01*
X0318122Y0178234D01*
X0318326Y0178200D01*
X0318531Y0178171D01*
X0318736Y0178147D01*
X0318941Y0178128D01*
X0319147Y0178114D01*
X0319354Y0178105D01*
X0319560Y0178101D01*
X0319767Y0178102D01*
X0319973Y0178109D01*
X0320179Y0178120D01*
X0320385Y0178136D01*
X0320591Y0178158D01*
X0320796Y0178184D01*
X0321000Y0178215D01*
X0321203Y0178252D01*
X0321405Y0178293D01*
X0321607Y0178339D01*
X0321807Y0178390D01*
X0322005Y0178447D01*
X0322203Y0178507D01*
X0322399Y0178573D01*
X0322593Y0178644D01*
X0322785Y0178719D01*
X0322976Y0178799D01*
X0323164Y0178883D01*
X0323350Y0178972D01*
X0323534Y0179066D01*
X0323716Y0179164D01*
X0323896Y0179266D01*
X0324072Y0179373D01*
X0324246Y0179484D01*
X0324418Y0179599D01*
X0324586Y0179719D01*
X0324752Y0179843D01*
X0324914Y0179970D01*
X0325073Y0180102D01*
X0325229Y0180237D01*
X0325382Y0180376D01*
X0325531Y0180519D01*
X0325677Y0180665D01*
X0325819Y0180815D01*
X0325957Y0180969D01*
X0326092Y0181125D01*
X0326222Y0181285D01*
X0326349Y0181448D01*
X0326472Y0181615D01*
X0326590Y0181784D01*
X0326705Y0181956D01*
X0326815Y0182130D01*
X0326921Y0182308D01*
X0327022Y0182487D01*
X0327119Y0182670D01*
D29*
X0056175Y0104300D03*
D30*
X0050502Y0057335D02*
X0050502Y0055066D01*
X0050219Y0055350D02*
X0050786Y0055350D01*
X0051069Y0055634D01*
X0051069Y0055917D01*
X0050786Y0056201D01*
X0050219Y0056201D01*
X0049935Y0056484D01*
X0049935Y0056768D01*
X0050219Y0057051D01*
X0050786Y0057051D01*
X0051069Y0056768D01*
X0051593Y0057051D02*
X0051593Y0056201D01*
X0052160Y0056484D01*
X0052443Y0056484D01*
X0052727Y0056201D01*
X0052727Y0055634D01*
X0052443Y0055350D01*
X0051876Y0055350D01*
X0051593Y0055634D01*
X0050219Y0055350D02*
X0049935Y0055634D01*
X0049412Y0055634D02*
X0049412Y0057051D01*
X0048278Y0057051D02*
X0048278Y0055634D01*
X0048561Y0055350D01*
X0049128Y0055350D01*
X0049412Y0055634D01*
X0051593Y0057051D02*
X0052727Y0057051D01*
X0427349Y0067403D02*
X0427349Y0068154D01*
X0427599Y0068404D01*
X0428099Y0068404D01*
X0428350Y0068154D01*
X0428350Y0067403D01*
X0428850Y0067403D02*
X0427349Y0067403D01*
X0428350Y0067904D02*
X0428850Y0068404D01*
X0428850Y0068877D02*
X0428850Y0069878D01*
X0428850Y0069377D02*
X0427349Y0069377D01*
X0427849Y0068877D01*
D31*
X0424300Y0066800D03*
M02*
