G75*
%MOIN*%
%OFA0B0*%
%FSLAX25Y25*%
%IPPOS*%
%LPD*%
%AMOC8*
5,1,8,0,0,1.08239X$1,22.5*
%
%ADD10C,0.01600*%
%ADD11C,0.00000*%
D10*
X0001800Y0002000D02*
X0131800Y0002000D01*
X0131800Y0212000D01*
X0001800Y0212000D01*
X0001800Y0002000D01*
D11*
X0110694Y0062539D02*
X0110696Y0062627D01*
X0110702Y0062715D01*
X0110712Y0062803D01*
X0110726Y0062891D01*
X0110743Y0062977D01*
X0110765Y0063063D01*
X0110790Y0063147D01*
X0110820Y0063231D01*
X0110852Y0063313D01*
X0110889Y0063393D01*
X0110929Y0063472D01*
X0110973Y0063549D01*
X0111020Y0063624D01*
X0111070Y0063696D01*
X0111124Y0063767D01*
X0111180Y0063834D01*
X0111240Y0063900D01*
X0111302Y0063962D01*
X0111368Y0064022D01*
X0111435Y0064078D01*
X0111506Y0064132D01*
X0111578Y0064182D01*
X0111653Y0064229D01*
X0111730Y0064273D01*
X0111809Y0064313D01*
X0111889Y0064350D01*
X0111971Y0064382D01*
X0112055Y0064412D01*
X0112139Y0064437D01*
X0112225Y0064459D01*
X0112311Y0064476D01*
X0112399Y0064490D01*
X0112487Y0064500D01*
X0112575Y0064506D01*
X0112663Y0064508D01*
X0112751Y0064506D01*
X0112839Y0064500D01*
X0112927Y0064490D01*
X0113015Y0064476D01*
X0113101Y0064459D01*
X0113187Y0064437D01*
X0113271Y0064412D01*
X0113355Y0064382D01*
X0113437Y0064350D01*
X0113517Y0064313D01*
X0113596Y0064273D01*
X0113673Y0064229D01*
X0113748Y0064182D01*
X0113820Y0064132D01*
X0113891Y0064078D01*
X0113958Y0064022D01*
X0114024Y0063962D01*
X0114086Y0063900D01*
X0114146Y0063834D01*
X0114202Y0063767D01*
X0114256Y0063696D01*
X0114306Y0063624D01*
X0114353Y0063549D01*
X0114397Y0063472D01*
X0114437Y0063393D01*
X0114474Y0063313D01*
X0114506Y0063231D01*
X0114536Y0063147D01*
X0114561Y0063063D01*
X0114583Y0062977D01*
X0114600Y0062891D01*
X0114614Y0062803D01*
X0114624Y0062715D01*
X0114630Y0062627D01*
X0114632Y0062539D01*
X0114630Y0062451D01*
X0114624Y0062363D01*
X0114614Y0062275D01*
X0114600Y0062187D01*
X0114583Y0062101D01*
X0114561Y0062015D01*
X0114536Y0061931D01*
X0114506Y0061847D01*
X0114474Y0061765D01*
X0114437Y0061685D01*
X0114397Y0061606D01*
X0114353Y0061529D01*
X0114306Y0061454D01*
X0114256Y0061382D01*
X0114202Y0061311D01*
X0114146Y0061244D01*
X0114086Y0061178D01*
X0114024Y0061116D01*
X0113958Y0061056D01*
X0113891Y0061000D01*
X0113820Y0060946D01*
X0113748Y0060896D01*
X0113673Y0060849D01*
X0113596Y0060805D01*
X0113517Y0060765D01*
X0113437Y0060728D01*
X0113355Y0060696D01*
X0113271Y0060666D01*
X0113187Y0060641D01*
X0113101Y0060619D01*
X0113015Y0060602D01*
X0112927Y0060588D01*
X0112839Y0060578D01*
X0112751Y0060572D01*
X0112663Y0060570D01*
X0112575Y0060572D01*
X0112487Y0060578D01*
X0112399Y0060588D01*
X0112311Y0060602D01*
X0112225Y0060619D01*
X0112139Y0060641D01*
X0112055Y0060666D01*
X0111971Y0060696D01*
X0111889Y0060728D01*
X0111809Y0060765D01*
X0111730Y0060805D01*
X0111653Y0060849D01*
X0111578Y0060896D01*
X0111506Y0060946D01*
X0111435Y0061000D01*
X0111368Y0061056D01*
X0111302Y0061116D01*
X0111240Y0061178D01*
X0111180Y0061244D01*
X0111124Y0061311D01*
X0111070Y0061382D01*
X0111020Y0061454D01*
X0110973Y0061529D01*
X0110929Y0061606D01*
X0110889Y0061685D01*
X0110852Y0061765D01*
X0110820Y0061847D01*
X0110790Y0061931D01*
X0110765Y0062015D01*
X0110743Y0062101D01*
X0110726Y0062187D01*
X0110712Y0062275D01*
X0110702Y0062363D01*
X0110696Y0062451D01*
X0110694Y0062539D01*
X0110694Y0079861D02*
X0110696Y0079949D01*
X0110702Y0080037D01*
X0110712Y0080125D01*
X0110726Y0080213D01*
X0110743Y0080299D01*
X0110765Y0080385D01*
X0110790Y0080469D01*
X0110820Y0080553D01*
X0110852Y0080635D01*
X0110889Y0080715D01*
X0110929Y0080794D01*
X0110973Y0080871D01*
X0111020Y0080946D01*
X0111070Y0081018D01*
X0111124Y0081089D01*
X0111180Y0081156D01*
X0111240Y0081222D01*
X0111302Y0081284D01*
X0111368Y0081344D01*
X0111435Y0081400D01*
X0111506Y0081454D01*
X0111578Y0081504D01*
X0111653Y0081551D01*
X0111730Y0081595D01*
X0111809Y0081635D01*
X0111889Y0081672D01*
X0111971Y0081704D01*
X0112055Y0081734D01*
X0112139Y0081759D01*
X0112225Y0081781D01*
X0112311Y0081798D01*
X0112399Y0081812D01*
X0112487Y0081822D01*
X0112575Y0081828D01*
X0112663Y0081830D01*
X0112751Y0081828D01*
X0112839Y0081822D01*
X0112927Y0081812D01*
X0113015Y0081798D01*
X0113101Y0081781D01*
X0113187Y0081759D01*
X0113271Y0081734D01*
X0113355Y0081704D01*
X0113437Y0081672D01*
X0113517Y0081635D01*
X0113596Y0081595D01*
X0113673Y0081551D01*
X0113748Y0081504D01*
X0113820Y0081454D01*
X0113891Y0081400D01*
X0113958Y0081344D01*
X0114024Y0081284D01*
X0114086Y0081222D01*
X0114146Y0081156D01*
X0114202Y0081089D01*
X0114256Y0081018D01*
X0114306Y0080946D01*
X0114353Y0080871D01*
X0114397Y0080794D01*
X0114437Y0080715D01*
X0114474Y0080635D01*
X0114506Y0080553D01*
X0114536Y0080469D01*
X0114561Y0080385D01*
X0114583Y0080299D01*
X0114600Y0080213D01*
X0114614Y0080125D01*
X0114624Y0080037D01*
X0114630Y0079949D01*
X0114632Y0079861D01*
X0114630Y0079773D01*
X0114624Y0079685D01*
X0114614Y0079597D01*
X0114600Y0079509D01*
X0114583Y0079423D01*
X0114561Y0079337D01*
X0114536Y0079253D01*
X0114506Y0079169D01*
X0114474Y0079087D01*
X0114437Y0079007D01*
X0114397Y0078928D01*
X0114353Y0078851D01*
X0114306Y0078776D01*
X0114256Y0078704D01*
X0114202Y0078633D01*
X0114146Y0078566D01*
X0114086Y0078500D01*
X0114024Y0078438D01*
X0113958Y0078378D01*
X0113891Y0078322D01*
X0113820Y0078268D01*
X0113748Y0078218D01*
X0113673Y0078171D01*
X0113596Y0078127D01*
X0113517Y0078087D01*
X0113437Y0078050D01*
X0113355Y0078018D01*
X0113271Y0077988D01*
X0113187Y0077963D01*
X0113101Y0077941D01*
X0113015Y0077924D01*
X0112927Y0077910D01*
X0112839Y0077900D01*
X0112751Y0077894D01*
X0112663Y0077892D01*
X0112575Y0077894D01*
X0112487Y0077900D01*
X0112399Y0077910D01*
X0112311Y0077924D01*
X0112225Y0077941D01*
X0112139Y0077963D01*
X0112055Y0077988D01*
X0111971Y0078018D01*
X0111889Y0078050D01*
X0111809Y0078087D01*
X0111730Y0078127D01*
X0111653Y0078171D01*
X0111578Y0078218D01*
X0111506Y0078268D01*
X0111435Y0078322D01*
X0111368Y0078378D01*
X0111302Y0078438D01*
X0111240Y0078500D01*
X0111180Y0078566D01*
X0111124Y0078633D01*
X0111070Y0078704D01*
X0111020Y0078776D01*
X0110973Y0078851D01*
X0110929Y0078928D01*
X0110889Y0079007D01*
X0110852Y0079087D01*
X0110820Y0079169D01*
X0110790Y0079253D01*
X0110765Y0079337D01*
X0110743Y0079423D01*
X0110726Y0079509D01*
X0110712Y0079597D01*
X0110702Y0079685D01*
X0110696Y0079773D01*
X0110694Y0079861D01*
M02*
