%
M48
M72
T01C0.0130
T02C0.0276
T03C0.0320
T04C0.0354
T05C0.0400
T06C0.0787
%
T01
X1978Y8919
X2759Y10052
X3205Y13593
X3205Y15845
X4753Y12046
X5386Y11874
X5668Y10990
X5949Y10709
X6230Y11694
X6230Y12186
X6230Y13523
X7708Y11944
X7810Y12694
X7426Y10568
X7356Y10146
X6934Y9231
X6864Y8598
X7169Y7308
X4964Y8778
X8591Y15219
T02
X8880Y16100
X8880Y17100
X9340Y15160
X9340Y14160
X7890Y14160
X7890Y15160
X6510Y15100
X6510Y14100
X5810Y4358
X5495Y3846
X5180Y4358
X4865Y3846
X4550Y4358
T03
X6730Y19500
X8630Y19500
T04
X4180Y14500
X1180Y14500
X3180Y8000
X3180Y6500
X7180Y6500
X7180Y8000
T05
X1130Y2500
X1230Y3500
X1130Y4500
X1230Y5500
X1130Y6500
X1230Y7500
X1130Y8500
X1230Y9500
X1130Y10500
X1230Y11500
X1180Y16500
X1180Y17500
X2180Y17500
X2180Y16500
X3180Y16500
X3180Y17500
X5700Y17580
X5700Y16580
X9130Y10500
X9230Y9500
X9130Y8500
X9230Y7500
X9130Y6500
X9230Y5500
X9130Y4500
X9230Y3500
X9130Y2500
X9230Y11500
T06
X6755Y3886
X6755Y2035
X3605Y2035
X3605Y3886
M30
