G75*
%MOIN*%
%OFA0B0*%
%FSLAX25Y25*%
%IPPOS*%
%LPD*%
%AMOC8*
5,1,8,0,0,1.08239X$1,22.5*
%
%ADD10R,0.07900X0.07900*%
%ADD11OC8,0.07900*%
%ADD12C,0.07000*%
%ADD13C,0.08062*%
%ADD14C,0.08246*%
%ADD15C,0.15500*%
%ADD16C,0.13098*%
%ADD17C,0.04656*%
%ADD18C,0.07900*%
%ADD19C,0.05300*%
%ADD20R,0.07000X0.07000*%
%ADD21C,0.03200*%
%ADD22C,0.04262*%
D10*
X0011800Y0175000D03*
X0057000Y0185800D03*
D11*
X0031800Y0185000D03*
X0031800Y0175000D03*
X0021800Y0175000D03*
X0021800Y0185000D03*
X0011800Y0185000D03*
D12*
X0065100Y0161000D03*
X0065100Y0151000D03*
X0078900Y0151600D03*
X0078900Y0141600D03*
X0093400Y0141600D03*
X0093400Y0151600D03*
X0088800Y0171000D03*
D13*
X0011800Y0155000D03*
D14*
X0041800Y0155000D03*
D15*
X0036052Y0020354D03*
X0067548Y0020354D03*
D16*
X0067548Y0038858D03*
X0036052Y0038858D03*
D17*
X0045501Y0043583D02*
X0045501Y0047739D01*
X0048650Y0038465D02*
X0048650Y0034309D01*
X0051800Y0043583D02*
X0051800Y0047739D01*
X0054950Y0038465D02*
X0054950Y0034309D01*
X0058099Y0043583D02*
X0058099Y0047739D01*
D18*
X0011300Y0025000D03*
X0012300Y0035000D03*
X0011300Y0045000D03*
X0012300Y0055000D03*
X0011300Y0065000D03*
X0012300Y0075000D03*
X0011300Y0085000D03*
X0012300Y0095000D03*
X0011300Y0105000D03*
X0012300Y0115000D03*
X0031800Y0080000D03*
X0031800Y0065000D03*
X0071800Y0065000D03*
X0071800Y0080000D03*
X0091300Y0085000D03*
X0092300Y0075000D03*
X0091300Y0065000D03*
X0092300Y0055000D03*
X0091300Y0045000D03*
X0092300Y0035000D03*
X0091300Y0025000D03*
X0092300Y0095000D03*
X0091300Y0105000D03*
X0092300Y0115000D03*
X0057000Y0175800D03*
D19*
X0067300Y0205000D03*
X0086300Y0205000D03*
D20*
X0088800Y0181000D03*
D21*
X0076175Y0124375D03*
X0073675Y0118125D03*
X0073675Y0114375D03*
X0073675Y0110000D03*
X0079750Y0108600D03*
X0082950Y0112000D03*
X0083350Y0120950D03*
X0087525Y0120525D03*
X0096175Y0100000D03*
X0098050Y0120000D03*
X0066800Y0100625D03*
X0056175Y0097500D03*
X0051175Y0098125D03*
X0047425Y0098125D03*
X0043050Y0098125D03*
X0044925Y0108125D03*
X0042425Y0110625D03*
X0043050Y0131875D03*
X0040550Y0142500D03*
X0045550Y0145000D03*
X0045550Y0148750D03*
X0052425Y0143125D03*
X0057425Y0141875D03*
X0053675Y0131875D03*
X0049925Y0131875D03*
X0029925Y0108750D03*
X0027425Y0123750D03*
X0027425Y0131250D03*
X0043675Y0086875D03*
X0005550Y0172500D03*
X0005550Y0208125D03*
D22*
X0029300Y0197500D03*
X0056800Y0127500D03*
X0056800Y0115000D03*
M02*
