G75*
%MOIN*%
%OFA0B0*%
%FSLAX25Y25*%
%IPPOS*%
%LPD*%
%AMOC8*
5,1,8,0,0,1.08239X$1,22.5*
%
%ADD10C,0.00400*%
%ADD11C,0.00591*%
%ADD12C,0.00500*%
%ADD13R,0.07000X0.07000*%
%ADD14C,0.06900*%
%ADD15C,0.00690*%
D10*
X0093567Y0170000D02*
X0092800Y0170767D01*
X0092800Y0172302D01*
X0093567Y0173069D01*
X0097404Y0173069D01*
X0097404Y0174604D02*
X0097404Y0177673D01*
X0096637Y0177673D01*
X0093567Y0174604D01*
X0092800Y0174604D01*
X0093567Y0170000D02*
X0097404Y0170000D01*
X0125203Y0067303D02*
X0122801Y0064901D01*
X0122200Y0064901D01*
X0122200Y0063620D02*
X0122200Y0061218D01*
X0122200Y0062419D02*
X0125803Y0062419D01*
X0124602Y0061218D01*
X0125203Y0059936D02*
X0125803Y0059336D01*
X0125803Y0058135D01*
X0125203Y0057534D01*
X0122801Y0057534D01*
X0125203Y0059936D01*
X0122801Y0059936D01*
X0122200Y0059336D01*
X0122200Y0058135D01*
X0122801Y0057534D01*
X0122200Y0056253D02*
X0122200Y0053851D01*
X0124602Y0056253D01*
X0125203Y0056253D01*
X0125803Y0055653D01*
X0125803Y0054452D01*
X0125203Y0053851D01*
X0124602Y0048887D02*
X0121599Y0048887D01*
X0120999Y0048287D01*
X0120999Y0047686D01*
X0122200Y0047086D02*
X0122801Y0046485D01*
X0124602Y0046485D01*
X0124602Y0045217D02*
X0124602Y0044617D01*
X0123401Y0043416D01*
X0122200Y0043416D02*
X0124602Y0043416D01*
X0124002Y0042135D02*
X0122200Y0042135D01*
X0122200Y0040333D01*
X0122801Y0039733D01*
X0123401Y0040333D01*
X0123401Y0042135D01*
X0124002Y0042135D02*
X0124602Y0041534D01*
X0124602Y0040333D01*
X0124602Y0038451D02*
X0122200Y0038451D01*
X0122200Y0036650D01*
X0122801Y0036049D01*
X0124602Y0036049D01*
X0124002Y0034768D02*
X0122200Y0034768D01*
X0124002Y0034768D02*
X0124602Y0034168D01*
X0124602Y0032366D01*
X0122200Y0032366D01*
X0122200Y0031085D02*
X0122200Y0029284D01*
X0122801Y0028683D01*
X0123401Y0029284D01*
X0123401Y0031085D01*
X0124002Y0031085D02*
X0122200Y0031085D01*
X0124002Y0031085D02*
X0124602Y0030485D01*
X0124602Y0029284D01*
X0125803Y0027402D02*
X0125803Y0026201D01*
X0125803Y0026802D02*
X0122801Y0026802D01*
X0122200Y0026201D01*
X0122200Y0025601D01*
X0122801Y0025000D01*
X0122200Y0047086D02*
X0122200Y0048887D01*
X0125803Y0064901D02*
X0125803Y0067303D01*
X0125203Y0067303D01*
D11*
X0124320Y0019461D02*
X0122880Y0019461D01*
X0122687Y0017556D01*
X0122046Y0017351D01*
X0121448Y0017043D01*
X0119964Y0018254D01*
X0118946Y0017236D01*
X0120157Y0015752D01*
X0119849Y0015154D01*
X0121895Y0014306D01*
X0122112Y0014691D01*
X0122414Y0015014D01*
X0122784Y0015255D01*
X0123200Y0015401D01*
X0123640Y0015445D01*
X0124077Y0015382D01*
X0124487Y0015218D01*
X0124846Y0014960D01*
X0125134Y0014625D01*
X0125334Y0014231D01*
X0125434Y0013801D01*
X0125429Y0013359D01*
X0125320Y0012931D01*
X0125111Y0012541D01*
X0124817Y0012212D01*
X0124452Y0011963D01*
X0124039Y0011807D01*
X0123600Y0011754D01*
X0123169Y0011805D01*
X0122762Y0011955D01*
X0122401Y0012197D01*
X0122107Y0012515D01*
X0121895Y0012894D01*
X0119849Y0012046D01*
X0120157Y0011448D01*
X0118946Y0009964D01*
X0119964Y0008946D01*
X0121448Y0010157D01*
X0122046Y0009849D01*
X0122687Y0009644D01*
X0122880Y0007739D01*
X0124320Y0007739D01*
X0124513Y0009644D01*
X0125154Y0009849D01*
X0125752Y0010157D01*
X0127236Y0008946D01*
X0128254Y0009964D01*
X0127043Y0011448D01*
X0127351Y0012046D01*
X0127556Y0012687D01*
X0129461Y0012880D01*
X0129461Y0014320D01*
X0127556Y0014513D01*
X0127351Y0015154D01*
X0127043Y0015752D01*
X0128254Y0017236D01*
X0127236Y0018254D01*
X0125752Y0017043D01*
X0125154Y0017351D01*
X0124513Y0017556D01*
X0124320Y0019461D01*
X0124379Y0018883D02*
X0122821Y0018883D01*
X0122762Y0018294D02*
X0124438Y0018294D01*
X0124498Y0017705D02*
X0122702Y0017705D01*
X0121589Y0017116D02*
X0125611Y0017116D01*
X0125840Y0017116D02*
X0128156Y0017116D01*
X0127785Y0017705D02*
X0126563Y0017705D01*
X0127675Y0016527D02*
X0119525Y0016527D01*
X0119044Y0017116D02*
X0121360Y0017116D01*
X0120637Y0017705D02*
X0119415Y0017705D01*
X0120005Y0015937D02*
X0127195Y0015937D01*
X0127251Y0015348D02*
X0124161Y0015348D01*
X0125019Y0014759D02*
X0127478Y0014759D01*
X0129461Y0014170D02*
X0125348Y0014170D01*
X0125432Y0013581D02*
X0129461Y0013581D01*
X0129461Y0012992D02*
X0125335Y0012992D01*
X0124987Y0012403D02*
X0127466Y0012403D01*
X0127232Y0011814D02*
X0124057Y0011814D01*
X0123145Y0011814D02*
X0119968Y0011814D01*
X0119975Y0011225D02*
X0127225Y0011225D01*
X0127706Y0010636D02*
X0119494Y0010636D01*
X0119014Y0010047D02*
X0121314Y0010047D01*
X0121662Y0010047D02*
X0125538Y0010047D01*
X0125886Y0010047D02*
X0128186Y0010047D01*
X0127747Y0009458D02*
X0126609Y0009458D01*
X0124494Y0009458D02*
X0122706Y0009458D01*
X0122765Y0008869D02*
X0124435Y0008869D01*
X0124375Y0008280D02*
X0122825Y0008280D01*
X0120591Y0009458D02*
X0119453Y0009458D01*
X0120711Y0012403D02*
X0122210Y0012403D01*
X0122176Y0014759D02*
X0120801Y0014759D01*
X0119949Y0015348D02*
X0123050Y0015348D01*
D12*
X0036000Y0015260D02*
X0031695Y0015260D01*
X0030823Y0015758D02*
X0036000Y0015758D01*
X0036000Y0016257D02*
X0029951Y0016257D01*
X0029078Y0016755D02*
X0036000Y0016755D01*
X0036000Y0017254D02*
X0028206Y0017254D01*
X0027333Y0017752D02*
X0036000Y0017752D01*
X0036000Y0018251D02*
X0026461Y0018251D01*
X0025589Y0018749D02*
X0036000Y0018749D01*
X0036000Y0019248D02*
X0024716Y0019248D01*
X0023844Y0019746D02*
X0036000Y0019746D01*
X0036000Y0019800D02*
X0023500Y0026800D01*
X0036000Y0033800D01*
X0036000Y0040800D01*
X0008000Y0040800D01*
X0008000Y0034300D01*
X0025000Y0034300D01*
X0015000Y0028300D01*
X0015000Y0024800D01*
X0036000Y0012800D01*
X0036000Y0013300D01*
X0036000Y0019800D01*
X0035206Y0020245D02*
X0022971Y0020245D01*
X0022099Y0020743D02*
X0034315Y0020743D01*
X0033425Y0021242D02*
X0021227Y0021242D01*
X0020354Y0021740D02*
X0032535Y0021740D01*
X0031645Y0022239D02*
X0019482Y0022239D01*
X0018609Y0022737D02*
X0030755Y0022737D01*
X0029864Y0023236D02*
X0017737Y0023236D01*
X0016865Y0023734D02*
X0028974Y0023734D01*
X0028084Y0024233D02*
X0015992Y0024233D01*
X0015120Y0024732D02*
X0027194Y0024732D01*
X0026304Y0025230D02*
X0015000Y0025230D01*
X0015000Y0025729D02*
X0025413Y0025729D01*
X0024523Y0026227D02*
X0015000Y0026227D01*
X0015000Y0026726D02*
X0023633Y0026726D01*
X0024257Y0027224D02*
X0015000Y0027224D01*
X0015000Y0027723D02*
X0025147Y0027723D01*
X0026038Y0028221D02*
X0015000Y0028221D01*
X0015699Y0028720D02*
X0026928Y0028720D01*
X0027818Y0029218D02*
X0016530Y0029218D01*
X0017361Y0029717D02*
X0028708Y0029717D01*
X0029598Y0030215D02*
X0018192Y0030215D01*
X0019023Y0030714D02*
X0030489Y0030714D01*
X0031379Y0031212D02*
X0019854Y0031212D01*
X0020684Y0031711D02*
X0032269Y0031711D01*
X0033159Y0032209D02*
X0021515Y0032209D01*
X0022346Y0032708D02*
X0034049Y0032708D01*
X0034940Y0033206D02*
X0023177Y0033206D01*
X0024008Y0033705D02*
X0035830Y0033705D01*
X0036000Y0034203D02*
X0024839Y0034203D01*
X0019631Y0048162D02*
X0011050Y0048162D01*
X0012167Y0048660D02*
X0020960Y0048660D01*
X0022290Y0049159D02*
X0013283Y0049159D01*
X0014400Y0049657D02*
X0023619Y0049657D01*
X0024948Y0050156D02*
X0015517Y0050156D01*
X0016367Y0049657D02*
X0008000Y0049657D01*
X0008000Y0049159D02*
X0015655Y0049159D01*
X0014943Y0048660D02*
X0008000Y0048660D01*
X0008000Y0048162D02*
X0014231Y0048162D01*
X0013519Y0047663D02*
X0008000Y0047663D01*
X0008000Y0047165D02*
X0012806Y0047165D01*
X0012094Y0046666D02*
X0008000Y0046666D01*
X0015643Y0046666D01*
X0016972Y0047165D02*
X0008817Y0047165D01*
X0008000Y0046800D02*
X0008000Y0046300D01*
X0008000Y0043800D01*
X0036000Y0054300D01*
X0036000Y0059300D01*
X0008000Y0046800D01*
X0008000Y0046168D02*
X0014313Y0046168D01*
X0012984Y0045669D02*
X0008000Y0045669D01*
X0010670Y0045669D01*
X0011382Y0046168D02*
X0008000Y0046168D01*
X0008000Y0045170D02*
X0011655Y0045170D01*
X0010325Y0044672D02*
X0008000Y0044672D01*
X0009246Y0044672D01*
X0008996Y0044173D02*
X0008000Y0044173D01*
X0008534Y0044173D01*
X0008000Y0043800D02*
X0028000Y0057800D01*
X0018500Y0054300D01*
X0018500Y0061800D01*
X0028500Y0057800D01*
X0036000Y0054300D01*
X0036000Y0061800D01*
X0008000Y0072800D01*
X0008000Y0065800D01*
X0012500Y0063800D01*
X0012500Y0052300D01*
X0008000Y0050300D01*
X0008000Y0043800D01*
X0008000Y0045170D02*
X0009958Y0045170D01*
X0009933Y0047663D02*
X0018301Y0047663D01*
X0017079Y0050156D02*
X0008000Y0050156D01*
X0008797Y0050654D02*
X0017792Y0050654D01*
X0017750Y0051153D02*
X0027607Y0051153D01*
X0028936Y0051651D02*
X0018867Y0051651D01*
X0019216Y0051651D02*
X0011040Y0051651D01*
X0009918Y0051153D02*
X0018504Y0051153D01*
X0019928Y0052150D02*
X0012162Y0052150D01*
X0012500Y0052648D02*
X0020640Y0052648D01*
X0021100Y0052648D02*
X0031595Y0052648D01*
X0030266Y0052150D02*
X0019983Y0052150D01*
X0020230Y0052150D02*
X0023322Y0052150D01*
X0024364Y0052648D02*
X0020130Y0052648D01*
X0020031Y0053147D02*
X0025407Y0053147D01*
X0026449Y0053645D02*
X0020604Y0053645D01*
X0020000Y0053300D02*
X0020500Y0050800D01*
X0032000Y0056300D01*
X0030500Y0059300D01*
X0020000Y0053300D01*
X0021352Y0053147D02*
X0012500Y0053147D01*
X0012500Y0053645D02*
X0022065Y0053645D01*
X0022217Y0053147D02*
X0032924Y0053147D01*
X0034254Y0053645D02*
X0023333Y0053645D01*
X0022777Y0054144D02*
X0012500Y0054144D01*
X0012500Y0054642D02*
X0018500Y0054642D01*
X0018500Y0055141D02*
X0012500Y0055141D01*
X0012500Y0055639D02*
X0018500Y0055639D01*
X0018500Y0056138D02*
X0012500Y0056138D01*
X0012500Y0056636D02*
X0018500Y0056636D01*
X0018500Y0057135D02*
X0012500Y0057135D01*
X0012500Y0057633D02*
X0018500Y0057633D01*
X0018500Y0058132D02*
X0012500Y0058132D01*
X0012500Y0058630D02*
X0018500Y0058630D01*
X0018500Y0059129D02*
X0012500Y0059129D01*
X0012500Y0059627D02*
X0018500Y0059627D01*
X0018500Y0060126D02*
X0012500Y0060126D01*
X0012500Y0060624D02*
X0018500Y0060624D01*
X0018500Y0061123D02*
X0012500Y0061123D01*
X0012500Y0061621D02*
X0018500Y0061621D01*
X0018947Y0061621D02*
X0036000Y0061621D01*
X0036000Y0061123D02*
X0020193Y0061123D01*
X0021439Y0060624D02*
X0036000Y0060624D01*
X0036000Y0060126D02*
X0022685Y0060126D01*
X0023932Y0059627D02*
X0036000Y0059627D01*
X0036000Y0059129D02*
X0035617Y0059129D01*
X0036000Y0059129D02*
X0025178Y0059129D01*
X0026424Y0058630D02*
X0036000Y0058630D01*
X0034500Y0058630D01*
X0033383Y0058132D02*
X0036000Y0058132D01*
X0027671Y0058132D01*
X0027583Y0057633D02*
X0031333Y0057633D01*
X0031150Y0057135D02*
X0036000Y0057135D01*
X0029926Y0057135D01*
X0030033Y0056636D02*
X0036000Y0056636D01*
X0030994Y0056636D01*
X0031583Y0057135D02*
X0026711Y0057135D01*
X0027050Y0057135D02*
X0026194Y0057135D01*
X0026337Y0056636D02*
X0024841Y0056636D01*
X0024966Y0056138D02*
X0031661Y0056138D01*
X0032062Y0056138D02*
X0036000Y0056138D01*
X0028917Y0056138D01*
X0029576Y0055141D02*
X0023221Y0055141D01*
X0023489Y0054642D02*
X0019429Y0054642D01*
X0020782Y0055141D02*
X0024201Y0055141D01*
X0024094Y0055639D02*
X0030618Y0055639D01*
X0031832Y0056636D02*
X0025838Y0056636D01*
X0025625Y0056138D02*
X0023488Y0056138D01*
X0022135Y0055639D02*
X0024913Y0055639D01*
X0025567Y0054642D02*
X0036000Y0054642D01*
X0035267Y0054642D01*
X0035583Y0054144D02*
X0024450Y0054144D01*
X0022349Y0054642D02*
X0028534Y0054642D01*
X0027491Y0054144D02*
X0021476Y0054144D01*
X0022280Y0051651D02*
X0020330Y0051651D01*
X0020429Y0051153D02*
X0021237Y0051153D01*
X0016633Y0050654D02*
X0026278Y0050654D01*
X0026683Y0055141D02*
X0036000Y0055141D01*
X0034198Y0055141D01*
X0033130Y0055639D02*
X0036000Y0055639D01*
X0027800Y0055639D01*
X0027762Y0057633D02*
X0027547Y0057633D01*
X0028456Y0058132D02*
X0031084Y0058132D01*
X0030835Y0058630D02*
X0029328Y0058630D01*
X0030200Y0059129D02*
X0030586Y0059129D01*
X0032267Y0057633D02*
X0036000Y0057633D01*
X0028857Y0057633D01*
X0031379Y0063615D02*
X0012500Y0063615D01*
X0012500Y0063117D02*
X0032648Y0063117D01*
X0033917Y0062618D02*
X0012500Y0062618D01*
X0012500Y0062120D02*
X0035186Y0062120D01*
X0030110Y0064114D02*
X0011794Y0064114D01*
X0010672Y0064612D02*
X0028841Y0064612D01*
X0027572Y0065111D02*
X0009550Y0065111D01*
X0008429Y0065609D02*
X0026303Y0065609D01*
X0025034Y0066108D02*
X0008000Y0066108D01*
X0008000Y0066606D02*
X0023765Y0066606D01*
X0022496Y0067105D02*
X0008000Y0067105D01*
X0008000Y0067603D02*
X0021227Y0067603D01*
X0019959Y0068102D02*
X0008000Y0068102D01*
X0008000Y0068601D02*
X0018690Y0068601D01*
X0017421Y0069099D02*
X0008000Y0069099D01*
X0008000Y0069598D02*
X0016152Y0069598D01*
X0014883Y0070096D02*
X0008000Y0070096D01*
X0008000Y0070595D02*
X0013614Y0070595D01*
X0012345Y0071093D02*
X0008000Y0071093D01*
X0008000Y0071592D02*
X0011076Y0071592D01*
X0009807Y0072090D02*
X0008000Y0072090D01*
X0008000Y0072589D02*
X0008538Y0072589D01*
X0008000Y0083300D02*
X0008000Y0089800D01*
X0030000Y0089800D01*
X0030000Y0098300D01*
X0036000Y0098300D01*
X0036000Y0074800D01*
X0030000Y0074800D01*
X0030000Y0083300D01*
X0008000Y0083300D01*
X0008000Y0083556D02*
X0036000Y0083556D01*
X0036000Y0084054D02*
X0008000Y0084054D01*
X0008000Y0084553D02*
X0036000Y0084553D01*
X0036000Y0085051D02*
X0008000Y0085051D01*
X0008000Y0085550D02*
X0036000Y0085550D01*
X0036000Y0086048D02*
X0008000Y0086048D01*
X0008000Y0086547D02*
X0036000Y0086547D01*
X0036000Y0087045D02*
X0008000Y0087045D01*
X0008000Y0087544D02*
X0036000Y0087544D01*
X0036000Y0088042D02*
X0008000Y0088042D01*
X0008000Y0088541D02*
X0036000Y0088541D01*
X0036000Y0089039D02*
X0008000Y0089039D01*
X0008000Y0089538D02*
X0036000Y0089538D01*
X0036000Y0090037D02*
X0030000Y0090037D01*
X0030000Y0090535D02*
X0036000Y0090535D01*
X0036000Y0091034D02*
X0030000Y0091034D01*
X0030000Y0091532D02*
X0036000Y0091532D01*
X0036000Y0092031D02*
X0030000Y0092031D01*
X0030000Y0092529D02*
X0036000Y0092529D01*
X0036000Y0093028D02*
X0030000Y0093028D01*
X0030000Y0093526D02*
X0036000Y0093526D01*
X0036000Y0094025D02*
X0030000Y0094025D01*
X0030000Y0094523D02*
X0036000Y0094523D01*
X0036000Y0095022D02*
X0030000Y0095022D01*
X0030000Y0095520D02*
X0036000Y0095520D01*
X0036000Y0096019D02*
X0030000Y0096019D01*
X0030000Y0096517D02*
X0036000Y0096517D01*
X0036000Y0097016D02*
X0030000Y0097016D01*
X0030000Y0097514D02*
X0036000Y0097514D01*
X0036000Y0098013D02*
X0030000Y0098013D01*
X0030000Y0100800D02*
X0030000Y0109800D01*
X0008000Y0109800D01*
X0008000Y0115800D01*
X0030000Y0115800D01*
X0030000Y0124800D01*
X0036000Y0124800D01*
X0036000Y0100800D01*
X0030000Y0100800D01*
X0030000Y0101004D02*
X0036000Y0101004D01*
X0036000Y0101502D02*
X0030000Y0101502D01*
X0030000Y0102001D02*
X0036000Y0102001D01*
X0036000Y0102499D02*
X0030000Y0102499D01*
X0030000Y0102998D02*
X0036000Y0102998D01*
X0036000Y0103496D02*
X0030000Y0103496D01*
X0030000Y0103995D02*
X0036000Y0103995D01*
X0036000Y0104493D02*
X0030000Y0104493D01*
X0030000Y0104992D02*
X0036000Y0104992D01*
X0036000Y0105490D02*
X0030000Y0105490D01*
X0030000Y0105989D02*
X0036000Y0105989D01*
X0036000Y0106487D02*
X0030000Y0106487D01*
X0030000Y0106986D02*
X0036000Y0106986D01*
X0036000Y0107484D02*
X0030000Y0107484D01*
X0030000Y0107983D02*
X0036000Y0107983D01*
X0036000Y0108481D02*
X0030000Y0108481D01*
X0030000Y0108980D02*
X0036000Y0108980D01*
X0036000Y0109478D02*
X0030000Y0109478D01*
X0030000Y0115959D02*
X0036000Y0115959D01*
X0036000Y0115461D02*
X0008000Y0115461D01*
X0008000Y0114962D02*
X0036000Y0114962D01*
X0036000Y0114464D02*
X0008000Y0114464D01*
X0008000Y0113965D02*
X0036000Y0113965D01*
X0036000Y0113467D02*
X0008000Y0113467D01*
X0008000Y0112968D02*
X0036000Y0112968D01*
X0036000Y0112470D02*
X0008000Y0112470D01*
X0008000Y0111971D02*
X0036000Y0111971D01*
X0036000Y0111472D02*
X0008000Y0111472D01*
X0008000Y0110974D02*
X0036000Y0110974D01*
X0036000Y0110475D02*
X0008000Y0110475D01*
X0008000Y0109977D02*
X0036000Y0109977D01*
X0036000Y0116458D02*
X0030000Y0116458D01*
X0030000Y0116956D02*
X0036000Y0116956D01*
X0036000Y0117455D02*
X0030000Y0117455D01*
X0030000Y0117953D02*
X0036000Y0117953D01*
X0036000Y0118452D02*
X0030000Y0118452D01*
X0030000Y0118950D02*
X0036000Y0118950D01*
X0036000Y0119449D02*
X0030000Y0119449D01*
X0030000Y0119947D02*
X0036000Y0119947D01*
X0036000Y0120446D02*
X0030000Y0120446D01*
X0030000Y0120944D02*
X0036000Y0120944D01*
X0036000Y0121443D02*
X0030000Y0121443D01*
X0030000Y0121941D02*
X0036000Y0121941D01*
X0036000Y0122440D02*
X0030000Y0122440D01*
X0030000Y0122938D02*
X0036000Y0122938D01*
X0036000Y0123437D02*
X0030000Y0123437D01*
X0030000Y0123935D02*
X0036000Y0123935D01*
X0036000Y0124434D02*
X0030000Y0124434D01*
X0036000Y0128300D02*
X0036000Y0134800D01*
X0008000Y0134800D01*
X0008000Y0128300D01*
X0036000Y0128300D01*
X0036000Y0128422D02*
X0008000Y0128422D01*
X0008000Y0128920D02*
X0036000Y0128920D01*
X0036000Y0129419D02*
X0008000Y0129419D01*
X0008000Y0129917D02*
X0036000Y0129917D01*
X0036000Y0130416D02*
X0008000Y0130416D01*
X0008000Y0130914D02*
X0036000Y0130914D01*
X0036000Y0131413D02*
X0008000Y0131413D01*
X0008000Y0131911D02*
X0036000Y0131911D01*
X0036000Y0132410D02*
X0008000Y0132410D01*
X0008000Y0132908D02*
X0036000Y0132908D01*
X0036000Y0133407D02*
X0008000Y0133407D01*
X0008000Y0133905D02*
X0036000Y0133905D01*
X0036000Y0134404D02*
X0008000Y0134404D01*
X0040100Y0169800D02*
X0040100Y0199800D01*
X0041100Y0199800D01*
X0041100Y0169800D02*
X0040100Y0169800D01*
X0085364Y0174800D02*
X0085366Y0174894D01*
X0085372Y0174988D01*
X0085382Y0175082D01*
X0085396Y0175175D01*
X0085414Y0175268D01*
X0085435Y0175360D01*
X0085461Y0175450D01*
X0085490Y0175540D01*
X0085523Y0175628D01*
X0085560Y0175715D01*
X0085600Y0175800D01*
X0085644Y0175884D01*
X0085692Y0175965D01*
X0085742Y0176045D01*
X0085797Y0176122D01*
X0085854Y0176197D01*
X0085914Y0176269D01*
X0085978Y0176339D01*
X0086044Y0176406D01*
X0086113Y0176470D01*
X0086185Y0176531D01*
X0086259Y0176589D01*
X0086336Y0176644D01*
X0086415Y0176696D01*
X0086496Y0176744D01*
X0086579Y0176789D01*
X0086663Y0176830D01*
X0086750Y0176868D01*
X0086838Y0176902D01*
X0086927Y0176932D01*
X0087017Y0176959D01*
X0087109Y0176981D01*
X0087201Y0177000D01*
X0087295Y0177015D01*
X0087388Y0177026D01*
X0087482Y0177033D01*
X0087576Y0177036D01*
X0087671Y0177035D01*
X0087765Y0177030D01*
X0087859Y0177021D01*
X0087952Y0177008D01*
X0088045Y0176991D01*
X0088137Y0176971D01*
X0088228Y0176946D01*
X0088318Y0176918D01*
X0088406Y0176886D01*
X0088494Y0176850D01*
X0088579Y0176810D01*
X0088663Y0176767D01*
X0088745Y0176721D01*
X0088825Y0176671D01*
X0088903Y0176617D01*
X0088978Y0176561D01*
X0089051Y0176501D01*
X0089122Y0176438D01*
X0089189Y0176373D01*
X0089254Y0176304D01*
X0089316Y0176233D01*
X0089375Y0176160D01*
X0089431Y0176084D01*
X0089483Y0176005D01*
X0089532Y0175925D01*
X0089578Y0175842D01*
X0089620Y0175758D01*
X0089659Y0175672D01*
X0089694Y0175584D01*
X0089725Y0175495D01*
X0089753Y0175405D01*
X0089776Y0175314D01*
X0089796Y0175222D01*
X0089812Y0175129D01*
X0089824Y0175035D01*
X0089832Y0174941D01*
X0089836Y0174847D01*
X0089836Y0174753D01*
X0089832Y0174659D01*
X0089824Y0174565D01*
X0089812Y0174471D01*
X0089796Y0174378D01*
X0089776Y0174286D01*
X0089753Y0174195D01*
X0089725Y0174105D01*
X0089694Y0174016D01*
X0089659Y0173928D01*
X0089620Y0173842D01*
X0089578Y0173758D01*
X0089532Y0173675D01*
X0089483Y0173595D01*
X0089431Y0173516D01*
X0089375Y0173440D01*
X0089316Y0173367D01*
X0089254Y0173296D01*
X0089189Y0173227D01*
X0089122Y0173162D01*
X0089051Y0173099D01*
X0088978Y0173039D01*
X0088903Y0172983D01*
X0088825Y0172929D01*
X0088745Y0172879D01*
X0088663Y0172833D01*
X0088579Y0172790D01*
X0088494Y0172750D01*
X0088406Y0172714D01*
X0088318Y0172682D01*
X0088228Y0172654D01*
X0088137Y0172629D01*
X0088045Y0172609D01*
X0087952Y0172592D01*
X0087859Y0172579D01*
X0087765Y0172570D01*
X0087671Y0172565D01*
X0087576Y0172564D01*
X0087482Y0172567D01*
X0087388Y0172574D01*
X0087295Y0172585D01*
X0087201Y0172600D01*
X0087109Y0172619D01*
X0087017Y0172641D01*
X0086927Y0172668D01*
X0086838Y0172698D01*
X0086750Y0172732D01*
X0086663Y0172770D01*
X0086579Y0172811D01*
X0086496Y0172856D01*
X0086415Y0172904D01*
X0086336Y0172956D01*
X0086259Y0173011D01*
X0086185Y0173069D01*
X0086113Y0173130D01*
X0086044Y0173194D01*
X0085978Y0173261D01*
X0085914Y0173331D01*
X0085854Y0173403D01*
X0085797Y0173478D01*
X0085742Y0173555D01*
X0085692Y0173635D01*
X0085644Y0173716D01*
X0085600Y0173800D01*
X0085560Y0173885D01*
X0085523Y0173972D01*
X0085490Y0174060D01*
X0085461Y0174150D01*
X0085435Y0174240D01*
X0085414Y0174332D01*
X0085396Y0174425D01*
X0085382Y0174518D01*
X0085372Y0174612D01*
X0085366Y0174706D01*
X0085364Y0174800D01*
X0089600Y0169800D02*
X0091100Y0169800D01*
X0091100Y0199800D01*
X0089600Y0199800D01*
X0036000Y0083057D02*
X0030000Y0083057D01*
X0030000Y0082559D02*
X0036000Y0082559D01*
X0036000Y0082060D02*
X0030000Y0082060D01*
X0030000Y0081562D02*
X0036000Y0081562D01*
X0036000Y0081063D02*
X0030000Y0081063D01*
X0030000Y0080565D02*
X0036000Y0080565D01*
X0036000Y0080066D02*
X0030000Y0080066D01*
X0030000Y0079568D02*
X0036000Y0079568D01*
X0036000Y0079069D02*
X0030000Y0079069D01*
X0030000Y0078571D02*
X0036000Y0078571D01*
X0036000Y0078072D02*
X0030000Y0078072D01*
X0030000Y0077574D02*
X0036000Y0077574D01*
X0036000Y0077075D02*
X0030000Y0077075D01*
X0030000Y0076577D02*
X0036000Y0076577D01*
X0036000Y0076078D02*
X0030000Y0076078D01*
X0030000Y0075580D02*
X0036000Y0075580D01*
X0036000Y0075081D02*
X0030000Y0075081D01*
X0036000Y0040684D02*
X0008000Y0040684D01*
X0008000Y0040185D02*
X0036000Y0040185D01*
X0036000Y0039687D02*
X0008000Y0039687D01*
X0008000Y0039188D02*
X0036000Y0039188D01*
X0036000Y0038690D02*
X0008000Y0038690D01*
X0008000Y0038191D02*
X0036000Y0038191D01*
X0036000Y0037693D02*
X0008000Y0037693D01*
X0008000Y0037194D02*
X0036000Y0037194D01*
X0036000Y0036696D02*
X0008000Y0036696D01*
X0008000Y0036197D02*
X0036000Y0036197D01*
X0036000Y0035699D02*
X0008000Y0035699D01*
X0008000Y0035200D02*
X0036000Y0035200D01*
X0036000Y0034702D02*
X0008000Y0034702D01*
X0032568Y0014761D02*
X0036000Y0014761D01*
X0036000Y0014263D02*
X0033440Y0014263D01*
X0034313Y0013764D02*
X0036000Y0013764D01*
X0036000Y0013266D02*
X0035185Y0013266D01*
D13*
X0011500Y0015800D03*
D14*
X0010500Y0183100D02*
X0010503Y0183382D01*
X0010514Y0183664D01*
X0010531Y0183946D01*
X0010555Y0184227D01*
X0010586Y0184508D01*
X0010624Y0184787D01*
X0010669Y0185066D01*
X0010721Y0185344D01*
X0010779Y0185620D01*
X0010845Y0185894D01*
X0010917Y0186167D01*
X0010995Y0186438D01*
X0011080Y0186707D01*
X0011172Y0186974D01*
X0011271Y0187239D01*
X0011375Y0187501D01*
X0011487Y0187760D01*
X0011604Y0188017D01*
X0011728Y0188271D01*
X0011858Y0188521D01*
X0011994Y0188768D01*
X0012136Y0189012D01*
X0012284Y0189252D01*
X0012438Y0189489D01*
X0012598Y0189722D01*
X0012763Y0189951D01*
X0012934Y0190175D01*
X0013110Y0190396D01*
X0013292Y0190611D01*
X0013479Y0190823D01*
X0013671Y0191030D01*
X0013868Y0191232D01*
X0014070Y0191429D01*
X0014277Y0191621D01*
X0014489Y0191808D01*
X0014704Y0191990D01*
X0014925Y0192166D01*
X0015149Y0192337D01*
X0015378Y0192502D01*
X0015611Y0192662D01*
X0015848Y0192816D01*
X0016088Y0192964D01*
X0016332Y0193106D01*
X0016579Y0193242D01*
X0016829Y0193372D01*
X0017083Y0193496D01*
X0017340Y0193613D01*
X0017599Y0193725D01*
X0017861Y0193829D01*
X0018126Y0193928D01*
X0018393Y0194020D01*
X0018662Y0194105D01*
X0018933Y0194183D01*
X0019206Y0194255D01*
X0019480Y0194321D01*
X0019756Y0194379D01*
X0020034Y0194431D01*
X0020313Y0194476D01*
X0020592Y0194514D01*
X0020873Y0194545D01*
X0021154Y0194569D01*
X0021436Y0194586D01*
X0021718Y0194597D01*
X0022000Y0194600D01*
X0022282Y0194597D01*
X0022564Y0194586D01*
X0022846Y0194569D01*
X0023127Y0194545D01*
X0023408Y0194514D01*
X0023687Y0194476D01*
X0023966Y0194431D01*
X0024244Y0194379D01*
X0024520Y0194321D01*
X0024794Y0194255D01*
X0025067Y0194183D01*
X0025338Y0194105D01*
X0025607Y0194020D01*
X0025874Y0193928D01*
X0026139Y0193829D01*
X0026401Y0193725D01*
X0026660Y0193613D01*
X0026917Y0193496D01*
X0027171Y0193372D01*
X0027421Y0193242D01*
X0027668Y0193106D01*
X0027912Y0192964D01*
X0028152Y0192816D01*
X0028389Y0192662D01*
X0028622Y0192502D01*
X0028851Y0192337D01*
X0029075Y0192166D01*
X0029296Y0191990D01*
X0029511Y0191808D01*
X0029723Y0191621D01*
X0029930Y0191429D01*
X0030132Y0191232D01*
X0030329Y0191030D01*
X0030521Y0190823D01*
X0030708Y0190611D01*
X0030890Y0190396D01*
X0031066Y0190175D01*
X0031237Y0189951D01*
X0031402Y0189722D01*
X0031562Y0189489D01*
X0031716Y0189252D01*
X0031864Y0189012D01*
X0032006Y0188768D01*
X0032142Y0188521D01*
X0032272Y0188271D01*
X0032396Y0188017D01*
X0032513Y0187760D01*
X0032625Y0187501D01*
X0032729Y0187239D01*
X0032828Y0186974D01*
X0032920Y0186707D01*
X0033005Y0186438D01*
X0033083Y0186167D01*
X0033155Y0185894D01*
X0033221Y0185620D01*
X0033279Y0185344D01*
X0033331Y0185066D01*
X0033376Y0184787D01*
X0033414Y0184508D01*
X0033445Y0184227D01*
X0033469Y0183946D01*
X0033486Y0183664D01*
X0033497Y0183382D01*
X0033500Y0183100D01*
X0033497Y0182818D01*
X0033486Y0182536D01*
X0033469Y0182254D01*
X0033445Y0181973D01*
X0033414Y0181692D01*
X0033376Y0181413D01*
X0033331Y0181134D01*
X0033279Y0180856D01*
X0033221Y0180580D01*
X0033155Y0180306D01*
X0033083Y0180033D01*
X0033005Y0179762D01*
X0032920Y0179493D01*
X0032828Y0179226D01*
X0032729Y0178961D01*
X0032625Y0178699D01*
X0032513Y0178440D01*
X0032396Y0178183D01*
X0032272Y0177929D01*
X0032142Y0177679D01*
X0032006Y0177432D01*
X0031864Y0177188D01*
X0031716Y0176948D01*
X0031562Y0176711D01*
X0031402Y0176478D01*
X0031237Y0176249D01*
X0031066Y0176025D01*
X0030890Y0175804D01*
X0030708Y0175589D01*
X0030521Y0175377D01*
X0030329Y0175170D01*
X0030132Y0174968D01*
X0029930Y0174771D01*
X0029723Y0174579D01*
X0029511Y0174392D01*
X0029296Y0174210D01*
X0029075Y0174034D01*
X0028851Y0173863D01*
X0028622Y0173698D01*
X0028389Y0173538D01*
X0028152Y0173384D01*
X0027912Y0173236D01*
X0027668Y0173094D01*
X0027421Y0172958D01*
X0027171Y0172828D01*
X0026917Y0172704D01*
X0026660Y0172587D01*
X0026401Y0172475D01*
X0026139Y0172371D01*
X0025874Y0172272D01*
X0025607Y0172180D01*
X0025338Y0172095D01*
X0025067Y0172017D01*
X0024794Y0171945D01*
X0024520Y0171879D01*
X0024244Y0171821D01*
X0023966Y0171769D01*
X0023687Y0171724D01*
X0023408Y0171686D01*
X0023127Y0171655D01*
X0022846Y0171631D01*
X0022564Y0171614D01*
X0022282Y0171603D01*
X0022000Y0171600D01*
X0021718Y0171603D01*
X0021436Y0171614D01*
X0021154Y0171631D01*
X0020873Y0171655D01*
X0020592Y0171686D01*
X0020313Y0171724D01*
X0020034Y0171769D01*
X0019756Y0171821D01*
X0019480Y0171879D01*
X0019206Y0171945D01*
X0018933Y0172017D01*
X0018662Y0172095D01*
X0018393Y0172180D01*
X0018126Y0172272D01*
X0017861Y0172371D01*
X0017599Y0172475D01*
X0017340Y0172587D01*
X0017083Y0172704D01*
X0016829Y0172828D01*
X0016579Y0172958D01*
X0016332Y0173094D01*
X0016088Y0173236D01*
X0015848Y0173384D01*
X0015611Y0173538D01*
X0015378Y0173698D01*
X0015149Y0173863D01*
X0014925Y0174034D01*
X0014704Y0174210D01*
X0014489Y0174392D01*
X0014277Y0174579D01*
X0014070Y0174771D01*
X0013868Y0174968D01*
X0013671Y0175170D01*
X0013479Y0175377D01*
X0013292Y0175589D01*
X0013110Y0175804D01*
X0012934Y0176025D01*
X0012763Y0176249D01*
X0012598Y0176478D01*
X0012438Y0176711D01*
X0012284Y0176948D01*
X0012136Y0177188D01*
X0011994Y0177432D01*
X0011858Y0177679D01*
X0011728Y0177929D01*
X0011604Y0178183D01*
X0011487Y0178440D01*
X0011375Y0178699D01*
X0011271Y0178961D01*
X0011172Y0179226D01*
X0011080Y0179493D01*
X0010995Y0179762D01*
X0010917Y0180033D01*
X0010845Y0180306D01*
X0010779Y0180580D01*
X0010721Y0180856D01*
X0010669Y0181134D01*
X0010624Y0181413D01*
X0010586Y0181692D01*
X0010555Y0181973D01*
X0010531Y0182254D01*
X0010514Y0182536D01*
X0010503Y0182818D01*
X0010500Y0183100D01*
D15*
X0015878Y0165464D02*
X0018503Y0159833D01*
X0018503Y0159834D02*
X0018327Y0159739D01*
X0018153Y0159641D01*
X0017982Y0159538D01*
X0017813Y0159432D01*
X0017647Y0159321D01*
X0017484Y0159206D01*
X0017324Y0159087D01*
X0017167Y0158964D01*
X0017012Y0158837D01*
X0016861Y0158707D01*
X0016713Y0158573D01*
X0016569Y0158435D01*
X0016428Y0158294D01*
X0016290Y0158149D01*
X0016156Y0158001D01*
X0016025Y0157850D01*
X0015899Y0157696D01*
X0015776Y0157538D01*
X0015657Y0157378D01*
X0015542Y0157215D01*
X0015431Y0157049D01*
X0015325Y0156880D01*
X0015222Y0156709D01*
X0015124Y0156535D01*
X0015030Y0156359D01*
X0014940Y0156181D01*
X0014854Y0156000D01*
X0014774Y0155818D01*
X0014697Y0155633D01*
X0014625Y0155447D01*
X0014558Y0155259D01*
X0014496Y0155070D01*
X0014438Y0154879D01*
X0014384Y0154686D01*
X0014336Y0154493D01*
X0014292Y0154298D01*
X0014253Y0154102D01*
X0014219Y0153905D01*
X0014190Y0153708D01*
X0014165Y0153510D01*
X0014146Y0153311D01*
X0014131Y0153112D01*
X0014121Y0152913D01*
X0014117Y0152713D01*
X0014117Y0152513D01*
X0014122Y0152314D01*
X0014131Y0152115D01*
X0014146Y0151915D01*
X0014166Y0151717D01*
X0014190Y0151519D01*
X0014219Y0151321D01*
X0014254Y0151125D01*
X0014292Y0150929D01*
X0014336Y0150734D01*
X0014385Y0150540D01*
X0014438Y0150348D01*
X0014496Y0150157D01*
X0014559Y0149967D01*
X0014626Y0149779D01*
X0014698Y0149593D01*
X0014774Y0149409D01*
X0014855Y0149226D01*
X0014940Y0149046D01*
X0015030Y0148868D01*
X0015124Y0148692D01*
X0015223Y0148518D01*
X0015325Y0148347D01*
X0015432Y0148178D01*
X0015543Y0148012D01*
X0015658Y0147849D01*
X0015777Y0147688D01*
X0015900Y0147531D01*
X0016026Y0147377D01*
X0016157Y0147226D01*
X0016291Y0147078D01*
X0016428Y0146933D01*
X0016570Y0146792D01*
X0016714Y0146654D01*
X0016862Y0146520D01*
X0017013Y0146390D01*
X0017168Y0146263D01*
X0017325Y0146140D01*
X0017485Y0146022D01*
X0017649Y0145907D01*
X0017815Y0145796D01*
X0017983Y0145689D01*
X0018154Y0145586D01*
X0018328Y0145488D01*
X0018504Y0145394D01*
X0018682Y0145304D01*
X0018863Y0145219D01*
X0019045Y0145138D01*
X0019230Y0145061D01*
X0019416Y0144990D01*
X0019604Y0144922D01*
X0019794Y0144860D01*
X0019985Y0144802D01*
X0020177Y0144749D01*
X0020371Y0144700D01*
X0020565Y0144656D01*
X0020761Y0144617D01*
X0020958Y0144583D01*
X0021155Y0144554D01*
X0021354Y0144530D01*
X0021552Y0144510D01*
X0021751Y0144495D01*
X0021951Y0144486D01*
X0022150Y0144481D01*
X0022350Y0144481D01*
X0022549Y0144486D01*
X0022749Y0144495D01*
X0022948Y0144510D01*
X0023146Y0144530D01*
X0023345Y0144554D01*
X0023542Y0144583D01*
X0023739Y0144617D01*
X0023935Y0144656D01*
X0024129Y0144700D01*
X0024323Y0144749D01*
X0024515Y0144802D01*
X0024706Y0144860D01*
X0024896Y0144922D01*
X0025084Y0144990D01*
X0025270Y0145061D01*
X0025455Y0145138D01*
X0025637Y0145219D01*
X0025818Y0145304D01*
X0025996Y0145394D01*
X0026172Y0145488D01*
X0026346Y0145586D01*
X0026517Y0145689D01*
X0026685Y0145796D01*
X0026851Y0145907D01*
X0027015Y0146022D01*
X0027175Y0146140D01*
X0027332Y0146263D01*
X0027487Y0146390D01*
X0027638Y0146520D01*
X0027786Y0146654D01*
X0027930Y0146792D01*
X0028072Y0146933D01*
X0028209Y0147078D01*
X0028343Y0147226D01*
X0028474Y0147377D01*
X0028600Y0147531D01*
X0028723Y0147688D01*
X0028842Y0147849D01*
X0028957Y0148012D01*
X0029068Y0148178D01*
X0029175Y0148347D01*
X0029277Y0148518D01*
X0029376Y0148692D01*
X0029470Y0148868D01*
X0029560Y0149046D01*
X0029645Y0149226D01*
X0029726Y0149409D01*
X0029802Y0149593D01*
X0029874Y0149779D01*
X0029941Y0149967D01*
X0030004Y0150157D01*
X0030062Y0150348D01*
X0030115Y0150540D01*
X0030164Y0150734D01*
X0030208Y0150929D01*
X0030246Y0151125D01*
X0030281Y0151321D01*
X0030310Y0151519D01*
X0030334Y0151717D01*
X0030354Y0151915D01*
X0030369Y0152115D01*
X0030378Y0152314D01*
X0030383Y0152513D01*
X0030383Y0152713D01*
X0030379Y0152913D01*
X0030369Y0153112D01*
X0030354Y0153311D01*
X0030335Y0153510D01*
X0030310Y0153708D01*
X0030281Y0153905D01*
X0030247Y0154102D01*
X0030208Y0154298D01*
X0030164Y0154493D01*
X0030116Y0154686D01*
X0030062Y0154879D01*
X0030004Y0155070D01*
X0029942Y0155259D01*
X0029875Y0155447D01*
X0029803Y0155633D01*
X0029726Y0155818D01*
X0029646Y0156000D01*
X0029560Y0156181D01*
X0029470Y0156359D01*
X0029376Y0156535D01*
X0029278Y0156709D01*
X0029175Y0156880D01*
X0029069Y0157049D01*
X0028958Y0157215D01*
X0028843Y0157378D01*
X0028724Y0157538D01*
X0028601Y0157696D01*
X0028475Y0157850D01*
X0028344Y0158001D01*
X0028210Y0158149D01*
X0028072Y0158294D01*
X0027931Y0158435D01*
X0027787Y0158573D01*
X0027639Y0158707D01*
X0027488Y0158837D01*
X0027333Y0158964D01*
X0027176Y0159087D01*
X0027016Y0159206D01*
X0026853Y0159321D01*
X0026687Y0159432D01*
X0026518Y0159538D01*
X0026347Y0159641D01*
X0026173Y0159739D01*
X0025997Y0159834D01*
X0028622Y0165464D01*
X0028623Y0165465D01*
X0028936Y0165305D01*
X0029244Y0165137D01*
X0029549Y0164962D01*
X0029849Y0164780D01*
X0030145Y0164590D01*
X0030435Y0164393D01*
X0030721Y0164189D01*
X0031002Y0163978D01*
X0031278Y0163761D01*
X0031548Y0163536D01*
X0031813Y0163305D01*
X0032072Y0163068D01*
X0032325Y0162824D01*
X0032572Y0162575D01*
X0032812Y0162319D01*
X0033047Y0162058D01*
X0033275Y0161790D01*
X0033496Y0161518D01*
X0033711Y0161240D01*
X0033918Y0160956D01*
X0034119Y0160668D01*
X0034313Y0160375D01*
X0034499Y0160078D01*
X0034678Y0159775D01*
X0034850Y0159469D01*
X0035014Y0159158D01*
X0035170Y0158844D01*
X0035319Y0158526D01*
X0035460Y0158204D01*
X0035593Y0157879D01*
X0035718Y0157551D01*
X0035835Y0157219D01*
X0035943Y0156885D01*
X0036044Y0156549D01*
X0036136Y0156210D01*
X0036220Y0155869D01*
X0036295Y0155526D01*
X0036362Y0155181D01*
X0036421Y0154835D01*
X0036471Y0154487D01*
X0036513Y0154139D01*
X0036546Y0153789D01*
X0036570Y0153439D01*
X0036586Y0153088D01*
X0036593Y0152737D01*
X0036592Y0152385D01*
X0036582Y0152034D01*
X0036564Y0151684D01*
X0036537Y0151333D01*
X0036501Y0150984D01*
X0036457Y0150636D01*
X0036404Y0150288D01*
X0036343Y0149942D01*
X0036273Y0149598D01*
X0036195Y0149256D01*
X0036109Y0148915D01*
X0036014Y0148577D01*
X0035911Y0148241D01*
X0035800Y0147908D01*
X0035681Y0147578D01*
X0035554Y0147251D01*
X0035418Y0146926D01*
X0035275Y0146606D01*
X0035124Y0146289D01*
X0034965Y0145975D01*
X0034799Y0145666D01*
X0034625Y0145361D01*
X0034444Y0145060D01*
X0034255Y0144764D01*
X0034059Y0144472D01*
X0033856Y0144185D01*
X0033647Y0143904D01*
X0033430Y0143627D01*
X0033207Y0143356D01*
X0032977Y0143091D01*
X0032740Y0142831D01*
X0032498Y0142577D01*
X0032249Y0142329D01*
X0031994Y0142088D01*
X0031733Y0141852D01*
X0031467Y0141623D01*
X0031195Y0141401D01*
X0030918Y0141185D01*
X0030636Y0140976D01*
X0030348Y0140775D01*
X0030056Y0140580D01*
X0029759Y0140392D01*
X0029457Y0140212D01*
X0029152Y0140039D01*
X0028842Y0139874D01*
X0028528Y0139717D01*
X0028210Y0139567D01*
X0027889Y0139425D01*
X0027564Y0139291D01*
X0027236Y0139165D01*
X0026906Y0139047D01*
X0026572Y0138937D01*
X0026236Y0138835D01*
X0025897Y0138741D01*
X0025557Y0138656D01*
X0025214Y0138580D01*
X0024869Y0138511D01*
X0024523Y0138451D01*
X0024176Y0138400D01*
X0023827Y0138357D01*
X0023478Y0138323D01*
X0023128Y0138297D01*
X0022777Y0138280D01*
X0022426Y0138271D01*
X0022074Y0138271D01*
X0021723Y0138280D01*
X0021372Y0138297D01*
X0021022Y0138323D01*
X0020673Y0138357D01*
X0020324Y0138400D01*
X0019977Y0138451D01*
X0019631Y0138511D01*
X0019286Y0138580D01*
X0018943Y0138656D01*
X0018603Y0138741D01*
X0018264Y0138835D01*
X0017928Y0138937D01*
X0017594Y0139047D01*
X0017264Y0139165D01*
X0016936Y0139291D01*
X0016611Y0139425D01*
X0016290Y0139567D01*
X0015972Y0139717D01*
X0015658Y0139874D01*
X0015348Y0140039D01*
X0015043Y0140212D01*
X0014741Y0140392D01*
X0014444Y0140580D01*
X0014152Y0140775D01*
X0013864Y0140976D01*
X0013582Y0141185D01*
X0013305Y0141401D01*
X0013033Y0141623D01*
X0012767Y0141852D01*
X0012506Y0142088D01*
X0012251Y0142329D01*
X0012002Y0142577D01*
X0011760Y0142831D01*
X0011523Y0143091D01*
X0011293Y0143356D01*
X0011070Y0143627D01*
X0010853Y0143904D01*
X0010644Y0144185D01*
X0010441Y0144472D01*
X0010245Y0144764D01*
X0010056Y0145060D01*
X0009875Y0145361D01*
X0009701Y0145666D01*
X0009535Y0145975D01*
X0009376Y0146289D01*
X0009225Y0146606D01*
X0009082Y0146926D01*
X0008946Y0147251D01*
X0008819Y0147578D01*
X0008700Y0147908D01*
X0008589Y0148241D01*
X0008486Y0148577D01*
X0008391Y0148915D01*
X0008305Y0149256D01*
X0008227Y0149598D01*
X0008157Y0149942D01*
X0008096Y0150288D01*
X0008043Y0150636D01*
X0007999Y0150984D01*
X0007963Y0151333D01*
X0007936Y0151684D01*
X0007918Y0152034D01*
X0007908Y0152385D01*
X0007907Y0152737D01*
X0007914Y0153088D01*
X0007930Y0153439D01*
X0007954Y0153789D01*
X0007987Y0154139D01*
X0008029Y0154487D01*
X0008079Y0154835D01*
X0008138Y0155181D01*
X0008205Y0155526D01*
X0008280Y0155869D01*
X0008364Y0156210D01*
X0008456Y0156549D01*
X0008557Y0156885D01*
X0008665Y0157219D01*
X0008782Y0157551D01*
X0008907Y0157879D01*
X0009040Y0158204D01*
X0009181Y0158526D01*
X0009330Y0158844D01*
X0009486Y0159158D01*
X0009650Y0159469D01*
X0009822Y0159775D01*
X0010001Y0160078D01*
X0010187Y0160375D01*
X0010381Y0160668D01*
X0010582Y0160956D01*
X0010789Y0161240D01*
X0011004Y0161518D01*
X0011225Y0161790D01*
X0011453Y0162058D01*
X0011688Y0162319D01*
X0011928Y0162575D01*
X0012175Y0162824D01*
X0012428Y0163068D01*
X0012687Y0163305D01*
X0012952Y0163536D01*
X0013222Y0163761D01*
X0013498Y0163978D01*
X0013779Y0164189D01*
X0014065Y0164393D01*
X0014355Y0164590D01*
X0014651Y0164780D01*
X0014951Y0164962D01*
X0015256Y0165137D01*
X0015564Y0165305D01*
X0015877Y0165465D01*
X0016154Y0164871D01*
X0015856Y0164718D01*
X0015562Y0164558D01*
X0015271Y0164390D01*
X0014985Y0164216D01*
X0014703Y0164035D01*
X0014426Y0163847D01*
X0014154Y0163652D01*
X0013886Y0163451D01*
X0013623Y0163243D01*
X0013366Y0163028D01*
X0013113Y0162808D01*
X0012867Y0162581D01*
X0012626Y0162348D01*
X0012390Y0162110D01*
X0012161Y0161866D01*
X0011937Y0161616D01*
X0011720Y0161361D01*
X0011509Y0161101D01*
X0011305Y0160835D01*
X0011107Y0160565D01*
X0010916Y0160290D01*
X0010731Y0160010D01*
X0010554Y0159726D01*
X0010383Y0159438D01*
X0010220Y0159145D01*
X0010063Y0158849D01*
X0009914Y0158549D01*
X0009773Y0158245D01*
X0009639Y0157938D01*
X0009512Y0157628D01*
X0009393Y0157315D01*
X0009282Y0156999D01*
X0009179Y0156680D01*
X0009083Y0156359D01*
X0008995Y0156035D01*
X0008916Y0155710D01*
X0008844Y0155383D01*
X0008780Y0155054D01*
X0008725Y0154724D01*
X0008677Y0154392D01*
X0008637Y0154059D01*
X0008606Y0153726D01*
X0008583Y0153391D01*
X0008568Y0153057D01*
X0008561Y0152722D01*
X0008563Y0152387D01*
X0008573Y0152052D01*
X0008590Y0151717D01*
X0008616Y0151383D01*
X0008651Y0151050D01*
X0008693Y0150718D01*
X0008743Y0150386D01*
X0008802Y0150056D01*
X0008869Y0149728D01*
X0008943Y0149402D01*
X0009026Y0149077D01*
X0009116Y0148754D01*
X0009215Y0148434D01*
X0009321Y0148116D01*
X0009435Y0147801D01*
X0009557Y0147489D01*
X0009686Y0147180D01*
X0009823Y0146874D01*
X0009967Y0146572D01*
X0010118Y0146273D01*
X0010277Y0145978D01*
X0010443Y0145687D01*
X0010616Y0145400D01*
X0010796Y0145117D01*
X0010983Y0144839D01*
X0011177Y0144566D01*
X0011377Y0144297D01*
X0011584Y0144034D01*
X0011797Y0143775D01*
X0012016Y0143522D01*
X0012242Y0143274D01*
X0012474Y0143032D01*
X0012711Y0142796D01*
X0012954Y0142565D01*
X0013203Y0142341D01*
X0013457Y0142122D01*
X0013716Y0141910D01*
X0013981Y0141705D01*
X0014250Y0141506D01*
X0014525Y0141313D01*
X0014803Y0141128D01*
X0015087Y0140949D01*
X0015374Y0140777D01*
X0015666Y0140612D01*
X0015962Y0140455D01*
X0016261Y0140304D01*
X0016564Y0140162D01*
X0016871Y0140026D01*
X0017180Y0139898D01*
X0017493Y0139778D01*
X0017809Y0139665D01*
X0018127Y0139561D01*
X0018448Y0139464D01*
X0018771Y0139375D01*
X0019096Y0139293D01*
X0019423Y0139220D01*
X0019751Y0139155D01*
X0020081Y0139098D01*
X0020413Y0139049D01*
X0020745Y0139008D01*
X0021079Y0138975D01*
X0021413Y0138951D01*
X0021748Y0138934D01*
X0022082Y0138926D01*
X0022418Y0138926D01*
X0022752Y0138934D01*
X0023087Y0138951D01*
X0023421Y0138975D01*
X0023755Y0139008D01*
X0024087Y0139049D01*
X0024419Y0139098D01*
X0024749Y0139155D01*
X0025077Y0139220D01*
X0025404Y0139293D01*
X0025729Y0139375D01*
X0026052Y0139464D01*
X0026373Y0139561D01*
X0026691Y0139665D01*
X0027007Y0139778D01*
X0027320Y0139898D01*
X0027629Y0140026D01*
X0027936Y0140162D01*
X0028239Y0140304D01*
X0028538Y0140455D01*
X0028834Y0140612D01*
X0029126Y0140777D01*
X0029413Y0140949D01*
X0029697Y0141128D01*
X0029975Y0141313D01*
X0030250Y0141506D01*
X0030519Y0141705D01*
X0030784Y0141910D01*
X0031043Y0142122D01*
X0031297Y0142341D01*
X0031546Y0142565D01*
X0031789Y0142796D01*
X0032026Y0143032D01*
X0032258Y0143274D01*
X0032484Y0143522D01*
X0032703Y0143775D01*
X0032916Y0144034D01*
X0033123Y0144297D01*
X0033323Y0144566D01*
X0033517Y0144839D01*
X0033704Y0145117D01*
X0033884Y0145400D01*
X0034057Y0145687D01*
X0034223Y0145978D01*
X0034382Y0146273D01*
X0034533Y0146572D01*
X0034677Y0146874D01*
X0034814Y0147180D01*
X0034943Y0147489D01*
X0035065Y0147801D01*
X0035179Y0148116D01*
X0035285Y0148434D01*
X0035384Y0148754D01*
X0035474Y0149077D01*
X0035557Y0149402D01*
X0035631Y0149728D01*
X0035698Y0150056D01*
X0035757Y0150386D01*
X0035807Y0150718D01*
X0035849Y0151050D01*
X0035884Y0151383D01*
X0035910Y0151717D01*
X0035927Y0152052D01*
X0035937Y0152387D01*
X0035939Y0152722D01*
X0035932Y0153057D01*
X0035917Y0153391D01*
X0035894Y0153726D01*
X0035863Y0154059D01*
X0035823Y0154392D01*
X0035775Y0154724D01*
X0035720Y0155054D01*
X0035656Y0155383D01*
X0035584Y0155710D01*
X0035505Y0156035D01*
X0035417Y0156359D01*
X0035321Y0156680D01*
X0035218Y0156999D01*
X0035107Y0157315D01*
X0034988Y0157628D01*
X0034861Y0157938D01*
X0034727Y0158245D01*
X0034586Y0158549D01*
X0034437Y0158849D01*
X0034280Y0159145D01*
X0034117Y0159438D01*
X0033946Y0159726D01*
X0033769Y0160010D01*
X0033584Y0160290D01*
X0033393Y0160565D01*
X0033195Y0160835D01*
X0032991Y0161101D01*
X0032780Y0161361D01*
X0032563Y0161616D01*
X0032339Y0161866D01*
X0032110Y0162110D01*
X0031874Y0162348D01*
X0031633Y0162581D01*
X0031387Y0162808D01*
X0031134Y0163028D01*
X0030877Y0163243D01*
X0030614Y0163451D01*
X0030346Y0163652D01*
X0030074Y0163847D01*
X0029797Y0164035D01*
X0029515Y0164216D01*
X0029229Y0164390D01*
X0028938Y0164558D01*
X0028644Y0164718D01*
X0028346Y0164871D01*
X0028069Y0164277D01*
X0028353Y0164131D01*
X0028633Y0163978D01*
X0028909Y0163819D01*
X0029181Y0163653D01*
X0029449Y0163480D01*
X0029712Y0163300D01*
X0029971Y0163115D01*
X0030226Y0162923D01*
X0030476Y0162724D01*
X0030721Y0162520D01*
X0030960Y0162310D01*
X0031195Y0162094D01*
X0031424Y0161872D01*
X0031648Y0161645D01*
X0031866Y0161413D01*
X0032078Y0161175D01*
X0032285Y0160932D01*
X0032485Y0160684D01*
X0032680Y0160431D01*
X0032868Y0160174D01*
X0033050Y0159912D01*
X0033225Y0159645D01*
X0033394Y0159375D01*
X0033556Y0159100D01*
X0033711Y0158822D01*
X0033859Y0158539D01*
X0034001Y0158254D01*
X0034135Y0157965D01*
X0034262Y0157672D01*
X0034383Y0157377D01*
X0034496Y0157079D01*
X0034601Y0156778D01*
X0034699Y0156474D01*
X0034790Y0156169D01*
X0034873Y0155861D01*
X0034949Y0155551D01*
X0035017Y0155240D01*
X0035077Y0154927D01*
X0035130Y0154612D01*
X0035175Y0154296D01*
X0035212Y0153980D01*
X0035242Y0153662D01*
X0035264Y0153344D01*
X0035277Y0153026D01*
X0035284Y0152707D01*
X0035282Y0152388D01*
X0035273Y0152069D01*
X0035255Y0151751D01*
X0035230Y0151433D01*
X0035198Y0151116D01*
X0035157Y0150800D01*
X0035109Y0150484D01*
X0035053Y0150170D01*
X0034989Y0149858D01*
X0034918Y0149547D01*
X0034839Y0149238D01*
X0034753Y0148931D01*
X0034659Y0148627D01*
X0034558Y0148324D01*
X0034449Y0148024D01*
X0034333Y0147727D01*
X0034210Y0147433D01*
X0034080Y0147142D01*
X0033942Y0146855D01*
X0033798Y0146570D01*
X0033647Y0146290D01*
X0033489Y0146013D01*
X0033324Y0145740D01*
X0033152Y0145471D01*
X0032974Y0145206D01*
X0032790Y0144946D01*
X0032599Y0144691D01*
X0032402Y0144440D01*
X0032199Y0144194D01*
X0031990Y0143953D01*
X0031776Y0143718D01*
X0031555Y0143487D01*
X0031329Y0143262D01*
X0031098Y0143043D01*
X0030861Y0142829D01*
X0030619Y0142622D01*
X0030372Y0142420D01*
X0030120Y0142224D01*
X0029864Y0142035D01*
X0029603Y0141852D01*
X0029337Y0141675D01*
X0029068Y0141505D01*
X0028794Y0141342D01*
X0028516Y0141185D01*
X0028235Y0141035D01*
X0027950Y0140892D01*
X0027661Y0140756D01*
X0027370Y0140628D01*
X0027075Y0140506D01*
X0026777Y0140391D01*
X0026477Y0140284D01*
X0026174Y0140185D01*
X0025869Y0140092D01*
X0025561Y0140008D01*
X0025252Y0139930D01*
X0024941Y0139861D01*
X0024628Y0139799D01*
X0024314Y0139744D01*
X0023998Y0139698D01*
X0023682Y0139659D01*
X0023365Y0139628D01*
X0023047Y0139604D01*
X0022728Y0139589D01*
X0022409Y0139581D01*
X0022091Y0139581D01*
X0021772Y0139589D01*
X0021453Y0139604D01*
X0021135Y0139628D01*
X0020818Y0139659D01*
X0020502Y0139698D01*
X0020186Y0139744D01*
X0019872Y0139799D01*
X0019559Y0139861D01*
X0019248Y0139930D01*
X0018939Y0140008D01*
X0018631Y0140092D01*
X0018326Y0140185D01*
X0018023Y0140284D01*
X0017723Y0140391D01*
X0017425Y0140506D01*
X0017130Y0140628D01*
X0016839Y0140756D01*
X0016550Y0140892D01*
X0016265Y0141035D01*
X0015984Y0141185D01*
X0015706Y0141342D01*
X0015432Y0141505D01*
X0015163Y0141675D01*
X0014897Y0141852D01*
X0014636Y0142035D01*
X0014380Y0142224D01*
X0014128Y0142420D01*
X0013881Y0142622D01*
X0013639Y0142829D01*
X0013402Y0143043D01*
X0013171Y0143262D01*
X0012945Y0143487D01*
X0012724Y0143718D01*
X0012510Y0143953D01*
X0012301Y0144194D01*
X0012098Y0144440D01*
X0011901Y0144691D01*
X0011710Y0144946D01*
X0011526Y0145206D01*
X0011348Y0145471D01*
X0011176Y0145740D01*
X0011011Y0146013D01*
X0010853Y0146290D01*
X0010702Y0146570D01*
X0010558Y0146855D01*
X0010420Y0147142D01*
X0010290Y0147433D01*
X0010167Y0147727D01*
X0010051Y0148024D01*
X0009942Y0148324D01*
X0009841Y0148627D01*
X0009747Y0148931D01*
X0009661Y0149238D01*
X0009582Y0149547D01*
X0009511Y0149858D01*
X0009447Y0150170D01*
X0009391Y0150484D01*
X0009343Y0150800D01*
X0009302Y0151116D01*
X0009270Y0151433D01*
X0009245Y0151751D01*
X0009227Y0152069D01*
X0009218Y0152388D01*
X0009216Y0152707D01*
X0009223Y0153026D01*
X0009236Y0153344D01*
X0009258Y0153662D01*
X0009288Y0153980D01*
X0009325Y0154296D01*
X0009370Y0154612D01*
X0009423Y0154927D01*
X0009483Y0155240D01*
X0009551Y0155551D01*
X0009627Y0155861D01*
X0009710Y0156169D01*
X0009801Y0156474D01*
X0009899Y0156778D01*
X0010004Y0157079D01*
X0010117Y0157377D01*
X0010238Y0157672D01*
X0010365Y0157965D01*
X0010499Y0158254D01*
X0010641Y0158539D01*
X0010789Y0158822D01*
X0010944Y0159100D01*
X0011106Y0159375D01*
X0011275Y0159645D01*
X0011450Y0159912D01*
X0011632Y0160174D01*
X0011820Y0160431D01*
X0012015Y0160684D01*
X0012215Y0160932D01*
X0012422Y0161175D01*
X0012634Y0161413D01*
X0012852Y0161645D01*
X0013076Y0161872D01*
X0013305Y0162094D01*
X0013540Y0162310D01*
X0013779Y0162520D01*
X0014024Y0162724D01*
X0014274Y0162923D01*
X0014529Y0163115D01*
X0014788Y0163300D01*
X0015051Y0163480D01*
X0015319Y0163653D01*
X0015591Y0163819D01*
X0015867Y0163978D01*
X0016147Y0164131D01*
X0016431Y0164277D01*
X0016708Y0163683D01*
X0016439Y0163544D01*
X0016173Y0163399D01*
X0015911Y0163247D01*
X0015653Y0163089D01*
X0015399Y0162925D01*
X0015149Y0162754D01*
X0014903Y0162577D01*
X0014662Y0162395D01*
X0014425Y0162206D01*
X0014193Y0162012D01*
X0013966Y0161812D01*
X0013743Y0161607D01*
X0013526Y0161396D01*
X0013314Y0161180D01*
X0013107Y0160959D01*
X0012906Y0160733D01*
X0012710Y0160503D01*
X0012520Y0160267D01*
X0012336Y0160027D01*
X0012158Y0159782D01*
X0011985Y0159533D01*
X0011819Y0159280D01*
X0011659Y0159023D01*
X0011506Y0158762D01*
X0011359Y0158498D01*
X0011218Y0158230D01*
X0011084Y0157958D01*
X0010957Y0157684D01*
X0010836Y0157406D01*
X0010722Y0157126D01*
X0010616Y0156843D01*
X0010516Y0156557D01*
X0010423Y0156269D01*
X0010337Y0155979D01*
X0010258Y0155686D01*
X0010187Y0155392D01*
X0010122Y0155096D01*
X0010065Y0154799D01*
X0010016Y0154501D01*
X0009973Y0154201D01*
X0009938Y0153900D01*
X0009910Y0153599D01*
X0009890Y0153297D01*
X0009877Y0152995D01*
X0009871Y0152692D01*
X0009873Y0152389D01*
X0009882Y0152087D01*
X0009899Y0151785D01*
X0009923Y0151483D01*
X0009954Y0151182D01*
X0009993Y0150882D01*
X0010039Y0150582D01*
X0010092Y0150284D01*
X0010153Y0149988D01*
X0010221Y0149693D01*
X0010296Y0149400D01*
X0010378Y0149108D01*
X0010467Y0148819D01*
X0010563Y0148532D01*
X0010667Y0148248D01*
X0010777Y0147966D01*
X0010894Y0147687D01*
X0011018Y0147411D01*
X0011148Y0147138D01*
X0011286Y0146868D01*
X0011429Y0146601D01*
X0011580Y0146339D01*
X0011736Y0146080D01*
X0011899Y0145825D01*
X0012068Y0145574D01*
X0012243Y0145327D01*
X0012424Y0145084D01*
X0012611Y0144846D01*
X0012804Y0144613D01*
X0013003Y0144384D01*
X0013207Y0144161D01*
X0013416Y0143942D01*
X0013631Y0143729D01*
X0013850Y0143521D01*
X0014075Y0143318D01*
X0014305Y0143121D01*
X0014540Y0142930D01*
X0014779Y0142744D01*
X0015022Y0142564D01*
X0015270Y0142391D01*
X0015522Y0142223D01*
X0015778Y0142062D01*
X0016038Y0141906D01*
X0016302Y0141758D01*
X0016569Y0141616D01*
X0016839Y0141480D01*
X0017113Y0141351D01*
X0017390Y0141229D01*
X0017670Y0141113D01*
X0017953Y0141005D01*
X0018238Y0140903D01*
X0018525Y0140809D01*
X0018815Y0140721D01*
X0019107Y0140641D01*
X0019400Y0140567D01*
X0019696Y0140501D01*
X0019993Y0140443D01*
X0020291Y0140391D01*
X0020590Y0140347D01*
X0020891Y0140310D01*
X0021192Y0140280D01*
X0021494Y0140258D01*
X0021796Y0140243D01*
X0022099Y0140236D01*
X0022401Y0140236D01*
X0022704Y0140243D01*
X0023006Y0140258D01*
X0023308Y0140280D01*
X0023609Y0140310D01*
X0023910Y0140347D01*
X0024209Y0140391D01*
X0024507Y0140443D01*
X0024804Y0140501D01*
X0025100Y0140567D01*
X0025393Y0140641D01*
X0025685Y0140721D01*
X0025975Y0140809D01*
X0026262Y0140903D01*
X0026547Y0141005D01*
X0026830Y0141113D01*
X0027110Y0141229D01*
X0027387Y0141351D01*
X0027661Y0141480D01*
X0027931Y0141616D01*
X0028198Y0141758D01*
X0028462Y0141906D01*
X0028722Y0142062D01*
X0028978Y0142223D01*
X0029230Y0142391D01*
X0029478Y0142564D01*
X0029721Y0142744D01*
X0029960Y0142930D01*
X0030195Y0143121D01*
X0030425Y0143318D01*
X0030650Y0143521D01*
X0030869Y0143729D01*
X0031084Y0143942D01*
X0031293Y0144161D01*
X0031497Y0144384D01*
X0031696Y0144613D01*
X0031889Y0144846D01*
X0032076Y0145084D01*
X0032257Y0145327D01*
X0032432Y0145574D01*
X0032601Y0145825D01*
X0032764Y0146080D01*
X0032920Y0146339D01*
X0033071Y0146601D01*
X0033214Y0146868D01*
X0033352Y0147138D01*
X0033482Y0147411D01*
X0033606Y0147687D01*
X0033723Y0147966D01*
X0033833Y0148248D01*
X0033937Y0148532D01*
X0034033Y0148819D01*
X0034122Y0149108D01*
X0034204Y0149400D01*
X0034279Y0149693D01*
X0034347Y0149988D01*
X0034408Y0150284D01*
X0034461Y0150582D01*
X0034507Y0150882D01*
X0034546Y0151182D01*
X0034577Y0151483D01*
X0034601Y0151785D01*
X0034618Y0152087D01*
X0034627Y0152389D01*
X0034629Y0152692D01*
X0034623Y0152995D01*
X0034610Y0153297D01*
X0034590Y0153599D01*
X0034562Y0153900D01*
X0034527Y0154201D01*
X0034484Y0154501D01*
X0034435Y0154799D01*
X0034378Y0155096D01*
X0034313Y0155392D01*
X0034242Y0155686D01*
X0034163Y0155979D01*
X0034077Y0156269D01*
X0033984Y0156557D01*
X0033884Y0156843D01*
X0033778Y0157126D01*
X0033664Y0157406D01*
X0033543Y0157684D01*
X0033416Y0157958D01*
X0033282Y0158230D01*
X0033141Y0158498D01*
X0032994Y0158762D01*
X0032841Y0159023D01*
X0032681Y0159280D01*
X0032515Y0159533D01*
X0032342Y0159782D01*
X0032164Y0160027D01*
X0031980Y0160267D01*
X0031790Y0160503D01*
X0031594Y0160733D01*
X0031393Y0160959D01*
X0031186Y0161180D01*
X0030974Y0161396D01*
X0030757Y0161607D01*
X0030534Y0161812D01*
X0030307Y0162012D01*
X0030075Y0162206D01*
X0029838Y0162395D01*
X0029597Y0162577D01*
X0029351Y0162754D01*
X0029101Y0162925D01*
X0028847Y0163089D01*
X0028589Y0163247D01*
X0028327Y0163399D01*
X0028061Y0163544D01*
X0027792Y0163683D01*
X0027515Y0163089D01*
X0027770Y0162957D01*
X0028021Y0162819D01*
X0028268Y0162675D01*
X0028512Y0162525D01*
X0028753Y0162369D01*
X0028989Y0162208D01*
X0029222Y0162040D01*
X0029450Y0161867D01*
X0029674Y0161688D01*
X0029893Y0161504D01*
X0030108Y0161315D01*
X0030318Y0161120D01*
X0030524Y0160920D01*
X0030724Y0160716D01*
X0030920Y0160506D01*
X0031110Y0160292D01*
X0031295Y0160073D01*
X0031475Y0159850D01*
X0031649Y0159622D01*
X0031817Y0159391D01*
X0031980Y0159155D01*
X0032137Y0158915D01*
X0032288Y0158672D01*
X0032433Y0158425D01*
X0032572Y0158174D01*
X0032704Y0157920D01*
X0032831Y0157663D01*
X0032951Y0157403D01*
X0033065Y0157140D01*
X0033172Y0156875D01*
X0033273Y0156607D01*
X0033368Y0156336D01*
X0033455Y0156063D01*
X0033536Y0155788D01*
X0033610Y0155512D01*
X0033678Y0155233D01*
X0033738Y0154953D01*
X0033792Y0154672D01*
X0033839Y0154389D01*
X0033879Y0154106D01*
X0033912Y0153821D01*
X0033938Y0153536D01*
X0033957Y0153250D01*
X0033969Y0152964D01*
X0033974Y0152677D01*
X0033972Y0152391D01*
X0033963Y0152104D01*
X0033947Y0151818D01*
X0033924Y0151533D01*
X0033894Y0151248D01*
X0033857Y0150964D01*
X0033813Y0150680D01*
X0033763Y0150398D01*
X0033705Y0150118D01*
X0033641Y0149839D01*
X0033570Y0149561D01*
X0033492Y0149286D01*
X0033407Y0149012D01*
X0033316Y0148740D01*
X0033218Y0148471D01*
X0033113Y0148204D01*
X0033002Y0147940D01*
X0032885Y0147679D01*
X0032761Y0147420D01*
X0032631Y0147165D01*
X0032495Y0146913D01*
X0032352Y0146665D01*
X0032204Y0146420D01*
X0032050Y0146178D01*
X0031889Y0145941D01*
X0031723Y0145707D01*
X0031552Y0145478D01*
X0031375Y0145253D01*
X0031192Y0145032D01*
X0031004Y0144816D01*
X0030811Y0144604D01*
X0030613Y0144397D01*
X0030409Y0144195D01*
X0030201Y0143998D01*
X0029988Y0143807D01*
X0029771Y0143620D01*
X0029549Y0143439D01*
X0029323Y0143264D01*
X0029092Y0143094D01*
X0028857Y0142929D01*
X0028619Y0142771D01*
X0028376Y0142618D01*
X0028130Y0142471D01*
X0027881Y0142331D01*
X0027628Y0142196D01*
X0027371Y0142068D01*
X0027112Y0141946D01*
X0026850Y0141830D01*
X0026585Y0141721D01*
X0026318Y0141618D01*
X0026048Y0141522D01*
X0025776Y0141433D01*
X0025502Y0141350D01*
X0025225Y0141274D01*
X0024947Y0141205D01*
X0024668Y0141142D01*
X0024387Y0141086D01*
X0024104Y0141038D01*
X0023821Y0140996D01*
X0023537Y0140961D01*
X0023252Y0140933D01*
X0022966Y0140912D01*
X0022680Y0140898D01*
X0022393Y0140891D01*
X0022107Y0140891D01*
X0021820Y0140898D01*
X0021534Y0140912D01*
X0021248Y0140933D01*
X0020963Y0140961D01*
X0020679Y0140996D01*
X0020396Y0141038D01*
X0020113Y0141086D01*
X0019832Y0141142D01*
X0019553Y0141205D01*
X0019275Y0141274D01*
X0018998Y0141350D01*
X0018724Y0141433D01*
X0018452Y0141522D01*
X0018182Y0141618D01*
X0017915Y0141721D01*
X0017650Y0141830D01*
X0017388Y0141946D01*
X0017129Y0142068D01*
X0016872Y0142196D01*
X0016619Y0142331D01*
X0016370Y0142471D01*
X0016124Y0142618D01*
X0015881Y0142771D01*
X0015643Y0142929D01*
X0015408Y0143094D01*
X0015177Y0143264D01*
X0014951Y0143439D01*
X0014729Y0143620D01*
X0014512Y0143807D01*
X0014299Y0143998D01*
X0014091Y0144195D01*
X0013887Y0144397D01*
X0013689Y0144604D01*
X0013496Y0144816D01*
X0013308Y0145032D01*
X0013125Y0145253D01*
X0012948Y0145478D01*
X0012777Y0145707D01*
X0012611Y0145941D01*
X0012450Y0146178D01*
X0012296Y0146420D01*
X0012148Y0146665D01*
X0012005Y0146913D01*
X0011869Y0147165D01*
X0011739Y0147420D01*
X0011615Y0147679D01*
X0011498Y0147940D01*
X0011387Y0148204D01*
X0011282Y0148471D01*
X0011184Y0148740D01*
X0011093Y0149012D01*
X0011008Y0149286D01*
X0010930Y0149561D01*
X0010859Y0149839D01*
X0010795Y0150118D01*
X0010737Y0150398D01*
X0010687Y0150680D01*
X0010643Y0150964D01*
X0010606Y0151248D01*
X0010576Y0151533D01*
X0010553Y0151818D01*
X0010537Y0152104D01*
X0010528Y0152391D01*
X0010526Y0152677D01*
X0010531Y0152964D01*
X0010543Y0153250D01*
X0010562Y0153536D01*
X0010588Y0153821D01*
X0010621Y0154106D01*
X0010661Y0154389D01*
X0010708Y0154672D01*
X0010762Y0154953D01*
X0010822Y0155233D01*
X0010890Y0155512D01*
X0010964Y0155788D01*
X0011045Y0156063D01*
X0011132Y0156336D01*
X0011227Y0156607D01*
X0011328Y0156875D01*
X0011435Y0157140D01*
X0011549Y0157403D01*
X0011669Y0157663D01*
X0011796Y0157920D01*
X0011928Y0158174D01*
X0012067Y0158425D01*
X0012212Y0158672D01*
X0012363Y0158915D01*
X0012520Y0159155D01*
X0012683Y0159391D01*
X0012851Y0159622D01*
X0013025Y0159850D01*
X0013205Y0160073D01*
X0013390Y0160292D01*
X0013580Y0160506D01*
X0013776Y0160716D01*
X0013976Y0160920D01*
X0014182Y0161120D01*
X0014392Y0161315D01*
X0014607Y0161504D01*
X0014826Y0161688D01*
X0015050Y0161867D01*
X0015278Y0162040D01*
X0015511Y0162208D01*
X0015747Y0162369D01*
X0015988Y0162525D01*
X0016232Y0162675D01*
X0016479Y0162819D01*
X0016730Y0162957D01*
X0016985Y0163089D01*
X0017262Y0162495D01*
X0017021Y0162370D01*
X0016783Y0162239D01*
X0016549Y0162102D01*
X0016318Y0161959D01*
X0016090Y0161811D01*
X0015866Y0161657D01*
X0015646Y0161497D01*
X0015431Y0161333D01*
X0015219Y0161163D01*
X0015011Y0160988D01*
X0014808Y0160808D01*
X0014609Y0160623D01*
X0014415Y0160433D01*
X0014226Y0160238D01*
X0014041Y0160039D01*
X0013861Y0159836D01*
X0013687Y0159628D01*
X0013517Y0159415D01*
X0013353Y0159199D01*
X0013194Y0158979D01*
X0013041Y0158755D01*
X0012893Y0158527D01*
X0012751Y0158296D01*
X0012614Y0158061D01*
X0012483Y0157823D01*
X0012358Y0157582D01*
X0012240Y0157338D01*
X0012127Y0157091D01*
X0012020Y0156841D01*
X0011919Y0156589D01*
X0011825Y0156334D01*
X0011737Y0156077D01*
X0011655Y0155819D01*
X0011580Y0155558D01*
X0011511Y0155295D01*
X0011448Y0155031D01*
X0011392Y0154765D01*
X0011343Y0154498D01*
X0011300Y0154230D01*
X0011263Y0153961D01*
X0011234Y0153691D01*
X0011210Y0153420D01*
X0011194Y0153149D01*
X0011184Y0152878D01*
X0011181Y0152606D01*
X0011185Y0152335D01*
X0011195Y0152064D01*
X0011212Y0151792D01*
X0011235Y0151522D01*
X0011265Y0151252D01*
X0011302Y0150983D01*
X0011345Y0150715D01*
X0011395Y0150448D01*
X0011451Y0150182D01*
X0011514Y0149918D01*
X0011584Y0149656D01*
X0011659Y0149395D01*
X0011742Y0149136D01*
X0011830Y0148879D01*
X0011925Y0148625D01*
X0012026Y0148373D01*
X0012133Y0148123D01*
X0012246Y0147876D01*
X0012365Y0147632D01*
X0012490Y0147391D01*
X0012622Y0147154D01*
X0012758Y0146919D01*
X0012901Y0146688D01*
X0013049Y0146460D01*
X0013203Y0146237D01*
X0013362Y0146017D01*
X0013526Y0145801D01*
X0013696Y0145589D01*
X0013871Y0145381D01*
X0014051Y0145178D01*
X0014236Y0144979D01*
X0014426Y0144784D01*
X0014620Y0144595D01*
X0014819Y0144410D01*
X0015023Y0144230D01*
X0015230Y0144055D01*
X0015443Y0143886D01*
X0015659Y0143721D01*
X0015879Y0143562D01*
X0016103Y0143409D01*
X0016330Y0143261D01*
X0016562Y0143118D01*
X0016796Y0142982D01*
X0017034Y0142851D01*
X0017275Y0142726D01*
X0017519Y0142607D01*
X0017766Y0142494D01*
X0018016Y0142387D01*
X0018268Y0142286D01*
X0018523Y0142191D01*
X0018779Y0142103D01*
X0019038Y0142021D01*
X0019299Y0141946D01*
X0019562Y0141876D01*
X0019826Y0141814D01*
X0020091Y0141758D01*
X0020358Y0141708D01*
X0020627Y0141665D01*
X0020896Y0141628D01*
X0021166Y0141598D01*
X0021436Y0141575D01*
X0021707Y0141558D01*
X0021978Y0141548D01*
X0022250Y0141545D01*
X0022522Y0141548D01*
X0022793Y0141558D01*
X0023064Y0141575D01*
X0023334Y0141598D01*
X0023604Y0141628D01*
X0023873Y0141665D01*
X0024142Y0141708D01*
X0024409Y0141758D01*
X0024674Y0141814D01*
X0024938Y0141876D01*
X0025201Y0141946D01*
X0025462Y0142021D01*
X0025721Y0142103D01*
X0025977Y0142191D01*
X0026232Y0142286D01*
X0026484Y0142387D01*
X0026734Y0142494D01*
X0026981Y0142607D01*
X0027225Y0142726D01*
X0027466Y0142851D01*
X0027704Y0142982D01*
X0027938Y0143118D01*
X0028170Y0143261D01*
X0028397Y0143409D01*
X0028621Y0143562D01*
X0028841Y0143721D01*
X0029057Y0143886D01*
X0029270Y0144055D01*
X0029477Y0144230D01*
X0029681Y0144410D01*
X0029880Y0144595D01*
X0030074Y0144784D01*
X0030264Y0144979D01*
X0030449Y0145178D01*
X0030629Y0145381D01*
X0030804Y0145589D01*
X0030974Y0145801D01*
X0031138Y0146017D01*
X0031297Y0146237D01*
X0031451Y0146460D01*
X0031599Y0146688D01*
X0031742Y0146919D01*
X0031878Y0147154D01*
X0032010Y0147391D01*
X0032135Y0147632D01*
X0032254Y0147876D01*
X0032367Y0148123D01*
X0032474Y0148373D01*
X0032575Y0148625D01*
X0032670Y0148879D01*
X0032758Y0149136D01*
X0032841Y0149395D01*
X0032916Y0149656D01*
X0032986Y0149918D01*
X0033049Y0150182D01*
X0033105Y0150448D01*
X0033155Y0150715D01*
X0033198Y0150983D01*
X0033235Y0151252D01*
X0033265Y0151522D01*
X0033288Y0151792D01*
X0033305Y0152064D01*
X0033315Y0152335D01*
X0033319Y0152606D01*
X0033316Y0152878D01*
X0033306Y0153149D01*
X0033290Y0153420D01*
X0033266Y0153691D01*
X0033237Y0153961D01*
X0033200Y0154230D01*
X0033157Y0154498D01*
X0033108Y0154765D01*
X0033052Y0155031D01*
X0032989Y0155295D01*
X0032920Y0155558D01*
X0032845Y0155819D01*
X0032763Y0156077D01*
X0032675Y0156334D01*
X0032581Y0156589D01*
X0032480Y0156841D01*
X0032373Y0157091D01*
X0032260Y0157338D01*
X0032142Y0157582D01*
X0032017Y0157823D01*
X0031886Y0158061D01*
X0031749Y0158296D01*
X0031607Y0158527D01*
X0031459Y0158755D01*
X0031306Y0158979D01*
X0031147Y0159199D01*
X0030983Y0159415D01*
X0030813Y0159628D01*
X0030639Y0159836D01*
X0030459Y0160039D01*
X0030274Y0160238D01*
X0030085Y0160433D01*
X0029891Y0160623D01*
X0029692Y0160808D01*
X0029489Y0160988D01*
X0029281Y0161163D01*
X0029069Y0161333D01*
X0028854Y0161497D01*
X0028634Y0161657D01*
X0028410Y0161811D01*
X0028182Y0161959D01*
X0027951Y0162102D01*
X0027717Y0162239D01*
X0027479Y0162370D01*
X0027238Y0162495D01*
X0026961Y0161901D01*
X0027188Y0161783D01*
X0027411Y0161659D01*
X0027631Y0161530D01*
X0027848Y0161395D01*
X0028062Y0161256D01*
X0028272Y0161111D01*
X0028478Y0160960D01*
X0028681Y0160805D01*
X0028880Y0160645D01*
X0029075Y0160480D01*
X0029265Y0160311D01*
X0029452Y0160136D01*
X0029634Y0159957D01*
X0029812Y0159774D01*
X0029985Y0159587D01*
X0030154Y0159395D01*
X0030318Y0159199D01*
X0030477Y0159000D01*
X0030631Y0158796D01*
X0030780Y0158589D01*
X0030924Y0158378D01*
X0031062Y0158163D01*
X0031196Y0157946D01*
X0031324Y0157725D01*
X0031446Y0157501D01*
X0031563Y0157274D01*
X0031675Y0157044D01*
X0031780Y0156812D01*
X0031880Y0156577D01*
X0031975Y0156340D01*
X0032063Y0156100D01*
X0032146Y0155859D01*
X0032222Y0155615D01*
X0032293Y0155370D01*
X0032357Y0155123D01*
X0032416Y0154874D01*
X0032468Y0154625D01*
X0032514Y0154373D01*
X0032554Y0154121D01*
X0032588Y0153868D01*
X0032616Y0153615D01*
X0032637Y0153360D01*
X0032652Y0153105D01*
X0032661Y0152850D01*
X0032664Y0152595D01*
X0032660Y0152340D01*
X0032651Y0152084D01*
X0032634Y0151830D01*
X0032612Y0151575D01*
X0032584Y0151322D01*
X0032549Y0151069D01*
X0032508Y0150817D01*
X0032461Y0150566D01*
X0032407Y0150316D01*
X0032348Y0150068D01*
X0032283Y0149821D01*
X0032211Y0149576D01*
X0032134Y0149333D01*
X0032050Y0149092D01*
X0031961Y0148852D01*
X0031866Y0148615D01*
X0031765Y0148381D01*
X0031658Y0148149D01*
X0031546Y0147920D01*
X0031428Y0147693D01*
X0031305Y0147470D01*
X0031176Y0147249D01*
X0031042Y0147032D01*
X0030902Y0146818D01*
X0030758Y0146608D01*
X0030608Y0146401D01*
X0030453Y0146198D01*
X0030293Y0145999D01*
X0030129Y0145804D01*
X0029959Y0145613D01*
X0029785Y0145426D01*
X0029607Y0145243D01*
X0029424Y0145065D01*
X0029237Y0144892D01*
X0029046Y0144723D01*
X0028850Y0144559D01*
X0028651Y0144399D01*
X0028447Y0144245D01*
X0028240Y0144095D01*
X0028030Y0143951D01*
X0027816Y0143812D01*
X0027598Y0143678D01*
X0027378Y0143550D01*
X0027154Y0143427D01*
X0026927Y0143309D01*
X0026698Y0143198D01*
X0026466Y0143091D01*
X0026231Y0142991D01*
X0025994Y0142896D01*
X0025754Y0142807D01*
X0025513Y0142724D01*
X0025270Y0142647D01*
X0025024Y0142576D01*
X0024777Y0142511D01*
X0024529Y0142452D01*
X0024279Y0142400D01*
X0024028Y0142353D01*
X0023776Y0142312D01*
X0023523Y0142278D01*
X0023270Y0142250D01*
X0023015Y0142228D01*
X0022760Y0142213D01*
X0022505Y0142203D01*
X0022250Y0142200D01*
X0021995Y0142203D01*
X0021740Y0142213D01*
X0021485Y0142228D01*
X0021230Y0142250D01*
X0020977Y0142278D01*
X0020724Y0142312D01*
X0020472Y0142353D01*
X0020221Y0142400D01*
X0019971Y0142452D01*
X0019723Y0142511D01*
X0019476Y0142576D01*
X0019230Y0142647D01*
X0018987Y0142724D01*
X0018746Y0142807D01*
X0018506Y0142896D01*
X0018269Y0142991D01*
X0018034Y0143091D01*
X0017802Y0143198D01*
X0017573Y0143309D01*
X0017346Y0143427D01*
X0017122Y0143550D01*
X0016902Y0143678D01*
X0016684Y0143812D01*
X0016470Y0143951D01*
X0016260Y0144095D01*
X0016053Y0144245D01*
X0015849Y0144399D01*
X0015650Y0144559D01*
X0015454Y0144723D01*
X0015263Y0144892D01*
X0015076Y0145065D01*
X0014893Y0145243D01*
X0014715Y0145426D01*
X0014541Y0145613D01*
X0014371Y0145804D01*
X0014207Y0145999D01*
X0014047Y0146198D01*
X0013892Y0146401D01*
X0013742Y0146608D01*
X0013598Y0146818D01*
X0013458Y0147032D01*
X0013324Y0147249D01*
X0013195Y0147470D01*
X0013072Y0147693D01*
X0012954Y0147920D01*
X0012842Y0148149D01*
X0012735Y0148381D01*
X0012634Y0148615D01*
X0012539Y0148852D01*
X0012450Y0149092D01*
X0012366Y0149333D01*
X0012289Y0149576D01*
X0012217Y0149821D01*
X0012152Y0150068D01*
X0012093Y0150316D01*
X0012039Y0150566D01*
X0011992Y0150817D01*
X0011951Y0151069D01*
X0011916Y0151322D01*
X0011888Y0151575D01*
X0011866Y0151830D01*
X0011849Y0152084D01*
X0011840Y0152340D01*
X0011836Y0152595D01*
X0011839Y0152850D01*
X0011848Y0153105D01*
X0011863Y0153360D01*
X0011884Y0153615D01*
X0011912Y0153868D01*
X0011946Y0154121D01*
X0011986Y0154373D01*
X0012032Y0154625D01*
X0012084Y0154874D01*
X0012143Y0155123D01*
X0012207Y0155370D01*
X0012278Y0155615D01*
X0012354Y0155859D01*
X0012437Y0156100D01*
X0012525Y0156340D01*
X0012620Y0156577D01*
X0012720Y0156812D01*
X0012825Y0157044D01*
X0012937Y0157274D01*
X0013054Y0157501D01*
X0013176Y0157725D01*
X0013304Y0157946D01*
X0013438Y0158163D01*
X0013576Y0158378D01*
X0013720Y0158589D01*
X0013869Y0158796D01*
X0014023Y0159000D01*
X0014182Y0159199D01*
X0014346Y0159395D01*
X0014515Y0159587D01*
X0014688Y0159774D01*
X0014866Y0159957D01*
X0015048Y0160136D01*
X0015235Y0160311D01*
X0015425Y0160480D01*
X0015620Y0160645D01*
X0015819Y0160805D01*
X0016022Y0160960D01*
X0016228Y0161111D01*
X0016438Y0161256D01*
X0016652Y0161395D01*
X0016869Y0161530D01*
X0017089Y0161659D01*
X0017312Y0161783D01*
X0017539Y0161901D01*
X0017816Y0161307D01*
X0017604Y0161196D01*
X0017395Y0161080D01*
X0017189Y0160958D01*
X0016987Y0160832D01*
X0016787Y0160701D01*
X0016590Y0160564D01*
X0016397Y0160423D01*
X0016208Y0160278D01*
X0016022Y0160127D01*
X0015840Y0159973D01*
X0015662Y0159813D01*
X0015487Y0159650D01*
X0015317Y0159482D01*
X0015151Y0159310D01*
X0014989Y0159134D01*
X0014831Y0158954D01*
X0014678Y0158771D01*
X0014530Y0158584D01*
X0014386Y0158393D01*
X0014247Y0158198D01*
X0014112Y0158001D01*
X0013983Y0157800D01*
X0013858Y0157596D01*
X0013739Y0157389D01*
X0013624Y0157179D01*
X0013515Y0156966D01*
X0013411Y0156751D01*
X0013313Y0156533D01*
X0013219Y0156313D01*
X0013131Y0156091D01*
X0013049Y0155866D01*
X0012972Y0155640D01*
X0012901Y0155412D01*
X0012835Y0155182D01*
X0012775Y0154951D01*
X0012721Y0154718D01*
X0012672Y0154484D01*
X0012629Y0154249D01*
X0012592Y0154013D01*
X0012560Y0153776D01*
X0012535Y0153538D01*
X0012515Y0153300D01*
X0012501Y0153061D01*
X0012493Y0152822D01*
X0012491Y0152583D01*
X0012495Y0152344D01*
X0012504Y0152105D01*
X0012520Y0151867D01*
X0012541Y0151629D01*
X0012568Y0151391D01*
X0012601Y0151155D01*
X0012639Y0150919D01*
X0012684Y0150684D01*
X0012734Y0150450D01*
X0012790Y0150218D01*
X0012851Y0149987D01*
X0012918Y0149757D01*
X0012991Y0149530D01*
X0013070Y0149304D01*
X0013153Y0149080D01*
X0013243Y0148858D01*
X0013337Y0148639D01*
X0013437Y0148422D01*
X0013543Y0148207D01*
X0013653Y0147995D01*
X0013769Y0147786D01*
X0013890Y0147580D01*
X0014016Y0147376D01*
X0014146Y0147176D01*
X0014282Y0146979D01*
X0014422Y0146786D01*
X0014567Y0146596D01*
X0014717Y0146410D01*
X0014871Y0146227D01*
X0015030Y0146048D01*
X0015193Y0145873D01*
X0015360Y0145703D01*
X0015532Y0145536D01*
X0015707Y0145373D01*
X0015886Y0145215D01*
X0016069Y0145062D01*
X0016256Y0144913D01*
X0016447Y0144768D01*
X0016640Y0144628D01*
X0016838Y0144493D01*
X0017038Y0144363D01*
X0017242Y0144238D01*
X0017449Y0144118D01*
X0017658Y0144003D01*
X0017870Y0143893D01*
X0018085Y0143788D01*
X0018303Y0143689D01*
X0018522Y0143595D01*
X0018744Y0143506D01*
X0018969Y0143423D01*
X0019195Y0143346D01*
X0019423Y0143274D01*
X0019652Y0143207D01*
X0019883Y0143146D01*
X0020116Y0143091D01*
X0020350Y0143042D01*
X0020585Y0142998D01*
X0020821Y0142960D01*
X0021058Y0142928D01*
X0021295Y0142902D01*
X0021534Y0142881D01*
X0021772Y0142867D01*
X0022011Y0142858D01*
X0022250Y0142855D01*
X0022489Y0142858D01*
X0022728Y0142867D01*
X0022966Y0142881D01*
X0023205Y0142902D01*
X0023442Y0142928D01*
X0023679Y0142960D01*
X0023915Y0142998D01*
X0024150Y0143042D01*
X0024384Y0143091D01*
X0024617Y0143146D01*
X0024848Y0143207D01*
X0025077Y0143274D01*
X0025305Y0143346D01*
X0025531Y0143423D01*
X0025756Y0143506D01*
X0025978Y0143595D01*
X0026197Y0143689D01*
X0026415Y0143788D01*
X0026630Y0143893D01*
X0026842Y0144003D01*
X0027051Y0144118D01*
X0027258Y0144238D01*
X0027462Y0144363D01*
X0027662Y0144493D01*
X0027860Y0144628D01*
X0028053Y0144768D01*
X0028244Y0144913D01*
X0028431Y0145062D01*
X0028614Y0145215D01*
X0028793Y0145373D01*
X0028968Y0145536D01*
X0029140Y0145703D01*
X0029307Y0145873D01*
X0029470Y0146048D01*
X0029629Y0146227D01*
X0029783Y0146410D01*
X0029933Y0146596D01*
X0030078Y0146786D01*
X0030218Y0146979D01*
X0030354Y0147176D01*
X0030484Y0147376D01*
X0030610Y0147580D01*
X0030731Y0147786D01*
X0030847Y0147995D01*
X0030957Y0148207D01*
X0031063Y0148422D01*
X0031163Y0148639D01*
X0031257Y0148858D01*
X0031347Y0149080D01*
X0031430Y0149304D01*
X0031509Y0149530D01*
X0031582Y0149757D01*
X0031649Y0149987D01*
X0031710Y0150218D01*
X0031766Y0150450D01*
X0031816Y0150684D01*
X0031861Y0150919D01*
X0031899Y0151155D01*
X0031932Y0151391D01*
X0031959Y0151629D01*
X0031980Y0151867D01*
X0031996Y0152105D01*
X0032005Y0152344D01*
X0032009Y0152583D01*
X0032007Y0152822D01*
X0031999Y0153061D01*
X0031985Y0153300D01*
X0031965Y0153538D01*
X0031940Y0153776D01*
X0031908Y0154013D01*
X0031871Y0154249D01*
X0031828Y0154484D01*
X0031779Y0154718D01*
X0031725Y0154951D01*
X0031665Y0155182D01*
X0031599Y0155412D01*
X0031528Y0155640D01*
X0031451Y0155866D01*
X0031369Y0156091D01*
X0031281Y0156313D01*
X0031187Y0156533D01*
X0031089Y0156751D01*
X0030985Y0156966D01*
X0030876Y0157179D01*
X0030761Y0157389D01*
X0030642Y0157596D01*
X0030517Y0157800D01*
X0030388Y0158001D01*
X0030253Y0158198D01*
X0030114Y0158393D01*
X0029970Y0158584D01*
X0029822Y0158771D01*
X0029669Y0158954D01*
X0029511Y0159134D01*
X0029349Y0159310D01*
X0029183Y0159482D01*
X0029013Y0159650D01*
X0028838Y0159813D01*
X0028660Y0159973D01*
X0028478Y0160127D01*
X0028292Y0160278D01*
X0028103Y0160423D01*
X0027910Y0160564D01*
X0027713Y0160701D01*
X0027513Y0160832D01*
X0027311Y0160958D01*
X0027105Y0161080D01*
X0026896Y0161196D01*
X0026684Y0161307D01*
X0026407Y0160713D01*
X0026604Y0160609D01*
X0026799Y0160500D01*
X0026990Y0160387D01*
X0027179Y0160268D01*
X0027365Y0160145D01*
X0027548Y0160018D01*
X0027727Y0159886D01*
X0027903Y0159750D01*
X0028076Y0159609D01*
X0028246Y0159465D01*
X0028412Y0159316D01*
X0028574Y0159163D01*
X0028732Y0159007D01*
X0028887Y0158846D01*
X0029037Y0158682D01*
X0029184Y0158514D01*
X0029326Y0158342D01*
X0029464Y0158168D01*
X0029598Y0157989D01*
X0029727Y0157808D01*
X0029852Y0157624D01*
X0029972Y0157436D01*
X0030088Y0157246D01*
X0030199Y0157052D01*
X0030305Y0156857D01*
X0030406Y0156658D01*
X0030503Y0156457D01*
X0030594Y0156254D01*
X0030681Y0156049D01*
X0030763Y0155842D01*
X0030839Y0155633D01*
X0030910Y0155421D01*
X0030976Y0155209D01*
X0031037Y0154994D01*
X0031093Y0154779D01*
X0031143Y0154562D01*
X0031188Y0154343D01*
X0031228Y0154124D01*
X0031262Y0153904D01*
X0031291Y0153683D01*
X0031314Y0153462D01*
X0031332Y0153240D01*
X0031345Y0153017D01*
X0031352Y0152795D01*
X0031354Y0152572D01*
X0031350Y0152349D01*
X0031341Y0152126D01*
X0031326Y0151904D01*
X0031306Y0151682D01*
X0031281Y0151461D01*
X0031250Y0151240D01*
X0031213Y0151021D01*
X0031172Y0150802D01*
X0031125Y0150584D01*
X0031072Y0150367D01*
X0031015Y0150152D01*
X0030952Y0149938D01*
X0030884Y0149726D01*
X0030811Y0149516D01*
X0030732Y0149307D01*
X0030649Y0149101D01*
X0030560Y0148896D01*
X0030467Y0148694D01*
X0030369Y0148494D01*
X0030265Y0148297D01*
X0030157Y0148102D01*
X0030044Y0147910D01*
X0029927Y0147721D01*
X0029805Y0147534D01*
X0029678Y0147351D01*
X0029547Y0147171D01*
X0029412Y0146994D01*
X0029272Y0146820D01*
X0029129Y0146650D01*
X0028981Y0146484D01*
X0028829Y0146321D01*
X0028673Y0146162D01*
X0028513Y0146006D01*
X0028349Y0145855D01*
X0028182Y0145708D01*
X0028011Y0145565D01*
X0027837Y0145426D01*
X0027659Y0145291D01*
X0027479Y0145161D01*
X0027295Y0145036D01*
X0027108Y0144914D01*
X0026918Y0144798D01*
X0026725Y0144686D01*
X0026530Y0144579D01*
X0026332Y0144476D01*
X0026132Y0144379D01*
X0025929Y0144286D01*
X0025724Y0144199D01*
X0025517Y0144116D01*
X0025308Y0144039D01*
X0025098Y0143967D01*
X0024885Y0143900D01*
X0024671Y0143838D01*
X0024456Y0143781D01*
X0024239Y0143730D01*
X0024021Y0143684D01*
X0023802Y0143643D01*
X0023582Y0143608D01*
X0023361Y0143578D01*
X0023140Y0143554D01*
X0022918Y0143535D01*
X0022695Y0143521D01*
X0022473Y0143513D01*
X0022250Y0143510D01*
X0022027Y0143513D01*
X0021805Y0143521D01*
X0021582Y0143535D01*
X0021360Y0143554D01*
X0021139Y0143578D01*
X0020918Y0143608D01*
X0020698Y0143643D01*
X0020479Y0143684D01*
X0020261Y0143730D01*
X0020044Y0143781D01*
X0019829Y0143838D01*
X0019615Y0143900D01*
X0019402Y0143967D01*
X0019192Y0144039D01*
X0018983Y0144116D01*
X0018776Y0144199D01*
X0018571Y0144286D01*
X0018368Y0144379D01*
X0018168Y0144476D01*
X0017970Y0144579D01*
X0017775Y0144686D01*
X0017582Y0144798D01*
X0017392Y0144914D01*
X0017205Y0145036D01*
X0017021Y0145161D01*
X0016841Y0145291D01*
X0016663Y0145426D01*
X0016489Y0145565D01*
X0016318Y0145708D01*
X0016151Y0145855D01*
X0015987Y0146006D01*
X0015827Y0146162D01*
X0015671Y0146321D01*
X0015519Y0146484D01*
X0015371Y0146650D01*
X0015228Y0146820D01*
X0015088Y0146994D01*
X0014953Y0147171D01*
X0014822Y0147351D01*
X0014695Y0147534D01*
X0014573Y0147721D01*
X0014456Y0147910D01*
X0014343Y0148102D01*
X0014235Y0148297D01*
X0014131Y0148494D01*
X0014033Y0148694D01*
X0013940Y0148896D01*
X0013851Y0149101D01*
X0013768Y0149307D01*
X0013689Y0149516D01*
X0013616Y0149726D01*
X0013548Y0149938D01*
X0013485Y0150152D01*
X0013428Y0150367D01*
X0013375Y0150584D01*
X0013328Y0150802D01*
X0013287Y0151021D01*
X0013250Y0151240D01*
X0013219Y0151461D01*
X0013194Y0151682D01*
X0013174Y0151904D01*
X0013159Y0152126D01*
X0013150Y0152349D01*
X0013146Y0152572D01*
X0013148Y0152795D01*
X0013155Y0153017D01*
X0013168Y0153240D01*
X0013186Y0153462D01*
X0013209Y0153683D01*
X0013238Y0153904D01*
X0013272Y0154124D01*
X0013312Y0154343D01*
X0013357Y0154562D01*
X0013407Y0154779D01*
X0013463Y0154994D01*
X0013524Y0155209D01*
X0013590Y0155421D01*
X0013661Y0155633D01*
X0013737Y0155842D01*
X0013819Y0156049D01*
X0013906Y0156254D01*
X0013997Y0156457D01*
X0014094Y0156658D01*
X0014195Y0156857D01*
X0014301Y0157052D01*
X0014412Y0157246D01*
X0014528Y0157436D01*
X0014648Y0157624D01*
X0014773Y0157808D01*
X0014902Y0157989D01*
X0015036Y0158168D01*
X0015174Y0158342D01*
X0015316Y0158514D01*
X0015463Y0158682D01*
X0015613Y0158846D01*
X0015768Y0159007D01*
X0015926Y0159163D01*
X0016088Y0159316D01*
X0016254Y0159465D01*
X0016424Y0159609D01*
X0016597Y0159750D01*
X0016773Y0159886D01*
X0016952Y0160018D01*
X0017135Y0160145D01*
X0017321Y0160268D01*
X0017510Y0160387D01*
X0017701Y0160500D01*
X0017896Y0160609D01*
X0018093Y0160713D01*
X0018370Y0160119D01*
X0018187Y0160022D01*
X0018008Y0159921D01*
X0017830Y0159815D01*
X0017656Y0159705D01*
X0017484Y0159590D01*
X0017315Y0159472D01*
X0017148Y0159349D01*
X0016985Y0159222D01*
X0016825Y0159092D01*
X0016669Y0158957D01*
X0016515Y0158819D01*
X0016365Y0158677D01*
X0016219Y0158531D01*
X0016076Y0158382D01*
X0015937Y0158229D01*
X0015802Y0158073D01*
X0015670Y0157914D01*
X0015543Y0157752D01*
X0015419Y0157586D01*
X0015299Y0157418D01*
X0015184Y0157246D01*
X0015073Y0157072D01*
X0014966Y0156896D01*
X0014864Y0156716D01*
X0014766Y0156534D01*
X0014672Y0156350D01*
X0014583Y0156164D01*
X0014499Y0155976D01*
X0014419Y0155785D01*
X0014344Y0155593D01*
X0014273Y0155399D01*
X0014207Y0155203D01*
X0014147Y0155005D01*
X0014090Y0154807D01*
X0014039Y0154607D01*
X0013993Y0154405D01*
X0013952Y0154203D01*
X0013915Y0154000D01*
X0013884Y0153796D01*
X0013858Y0153591D01*
X0013836Y0153385D01*
X0013820Y0153179D01*
X0013809Y0152973D01*
X0013802Y0152767D01*
X0013801Y0152560D01*
X0013805Y0152354D01*
X0013814Y0152147D01*
X0013828Y0151941D01*
X0013847Y0151736D01*
X0013871Y0151531D01*
X0013900Y0151326D01*
X0013934Y0151122D01*
X0013973Y0150920D01*
X0014017Y0150718D01*
X0014065Y0150517D01*
X0014119Y0150318D01*
X0014178Y0150120D01*
X0014241Y0149923D01*
X0014309Y0149728D01*
X0014382Y0149535D01*
X0014460Y0149343D01*
X0014542Y0149154D01*
X0014629Y0148967D01*
X0014720Y0148782D01*
X0014816Y0148599D01*
X0014917Y0148418D01*
X0015021Y0148240D01*
X0015130Y0148065D01*
X0015244Y0147892D01*
X0015361Y0147722D01*
X0015483Y0147555D01*
X0015608Y0147391D01*
X0015738Y0147231D01*
X0015872Y0147073D01*
X0016009Y0146919D01*
X0016150Y0146768D01*
X0016295Y0146621D01*
X0016443Y0146477D01*
X0016595Y0146337D01*
X0016750Y0146200D01*
X0016908Y0146068D01*
X0017070Y0145939D01*
X0017234Y0145815D01*
X0017402Y0145694D01*
X0017573Y0145578D01*
X0017746Y0145466D01*
X0017922Y0145358D01*
X0018101Y0145254D01*
X0018282Y0145155D01*
X0018465Y0145060D01*
X0018651Y0144970D01*
X0018839Y0144884D01*
X0019029Y0144803D01*
X0019221Y0144727D01*
X0019415Y0144655D01*
X0019610Y0144588D01*
X0019807Y0144526D01*
X0020005Y0144469D01*
X0020205Y0144416D01*
X0020406Y0144369D01*
X0020608Y0144326D01*
X0020811Y0144288D01*
X0021015Y0144256D01*
X0021220Y0144228D01*
X0021425Y0144205D01*
X0021631Y0144188D01*
X0021837Y0144175D01*
X0022043Y0144168D01*
X0022250Y0144165D01*
X0022457Y0144168D01*
X0022663Y0144175D01*
X0022869Y0144188D01*
X0023075Y0144205D01*
X0023280Y0144228D01*
X0023485Y0144256D01*
X0023689Y0144288D01*
X0023892Y0144326D01*
X0024094Y0144369D01*
X0024295Y0144416D01*
X0024495Y0144469D01*
X0024693Y0144526D01*
X0024890Y0144588D01*
X0025085Y0144655D01*
X0025279Y0144727D01*
X0025471Y0144803D01*
X0025661Y0144884D01*
X0025849Y0144970D01*
X0026035Y0145060D01*
X0026218Y0145155D01*
X0026399Y0145254D01*
X0026578Y0145358D01*
X0026754Y0145466D01*
X0026927Y0145578D01*
X0027098Y0145694D01*
X0027266Y0145815D01*
X0027430Y0145939D01*
X0027592Y0146068D01*
X0027750Y0146200D01*
X0027905Y0146337D01*
X0028057Y0146477D01*
X0028205Y0146621D01*
X0028350Y0146768D01*
X0028491Y0146919D01*
X0028628Y0147073D01*
X0028762Y0147231D01*
X0028892Y0147391D01*
X0029017Y0147555D01*
X0029139Y0147722D01*
X0029256Y0147892D01*
X0029370Y0148065D01*
X0029479Y0148240D01*
X0029583Y0148418D01*
X0029684Y0148599D01*
X0029780Y0148782D01*
X0029871Y0148967D01*
X0029958Y0149154D01*
X0030040Y0149343D01*
X0030118Y0149535D01*
X0030191Y0149728D01*
X0030259Y0149923D01*
X0030322Y0150120D01*
X0030381Y0150318D01*
X0030435Y0150517D01*
X0030483Y0150718D01*
X0030527Y0150920D01*
X0030566Y0151122D01*
X0030600Y0151326D01*
X0030629Y0151531D01*
X0030653Y0151736D01*
X0030672Y0151941D01*
X0030686Y0152147D01*
X0030695Y0152354D01*
X0030699Y0152560D01*
X0030698Y0152767D01*
X0030691Y0152973D01*
X0030680Y0153179D01*
X0030664Y0153385D01*
X0030642Y0153591D01*
X0030616Y0153796D01*
X0030585Y0154000D01*
X0030548Y0154203D01*
X0030507Y0154405D01*
X0030461Y0154607D01*
X0030410Y0154807D01*
X0030353Y0155005D01*
X0030293Y0155203D01*
X0030227Y0155399D01*
X0030156Y0155593D01*
X0030081Y0155785D01*
X0030001Y0155976D01*
X0029917Y0156164D01*
X0029828Y0156350D01*
X0029734Y0156534D01*
X0029636Y0156716D01*
X0029534Y0156896D01*
X0029427Y0157072D01*
X0029316Y0157246D01*
X0029201Y0157418D01*
X0029081Y0157586D01*
X0028957Y0157752D01*
X0028830Y0157914D01*
X0028698Y0158073D01*
X0028563Y0158229D01*
X0028424Y0158382D01*
X0028281Y0158531D01*
X0028135Y0158677D01*
X0027985Y0158819D01*
X0027831Y0158957D01*
X0027675Y0159092D01*
X0027515Y0159222D01*
X0027352Y0159349D01*
X0027185Y0159472D01*
X0027016Y0159590D01*
X0026844Y0159705D01*
X0026670Y0159815D01*
X0026492Y0159921D01*
X0026313Y0160022D01*
X0026130Y0160119D01*
M02*
