%
M48
M72
T01C0.0130
T02C0.0157
T03C0.0236
T04C0.0315
T05C0.0394
T06C0.0400
%
T01
X3205Y1326
X5527Y3577
X7004Y2592
X7849Y5688
X8552Y6391
X8693Y8783
X9467Y9557
X9678Y10331
X10402Y9447
X8562Y13035
X8552Y13567
X8693Y13919
X7989Y14130
X7989Y13567
X8271Y15045
X8693Y15115
X9678Y15537
X9959Y14763
X10241Y15256
X8974Y16593
X8200Y17578
X8834Y18281
X7919Y19759
X6723Y19336
X6442Y20673
X5457Y19688
X3557Y18000
X5175Y15889
X5949Y14904
X6301Y14834
X7215Y15467
X3276Y12512
T02
X5326Y5814
X5680Y5460
X5326Y5106
X6034Y5106
X6034Y5814
T03
X6840Y4240
X8500Y5100
X9180Y6700
X10080Y8180
X9180Y10200
X11280Y13180
X9580Y14780
X8680Y17260
X9620Y18380
X9680Y20200
X6180Y17940
X5680Y13200
X5080Y10800
X5900Y10600
X6380Y9880
X2680Y16200
X680Y17700
X2180Y9200
X3680Y1200
X9420Y3240
X10180Y3200
X9680Y1200
T04
X1180Y9113
X1180Y9901
X1180Y10688
X1180Y11476
X1180Y12263
X1180Y13050
X1180Y13838
X1180Y14625
X1180Y15413
X1180Y16200
T05
X11266Y7986
X11266Y6254
T06
X11170Y16400
X12310Y16400
X12150Y18220
X12150Y19220
X12150Y20220
X11150Y20220
X11150Y19220
X11150Y18220
M30
