G75*
%MOIN*%
%OFA0B0*%
%FSLAX25Y25*%
%IPPOS*%
%LPD*%
%AMOC8*
5,1,8,0,0,1.08239X$1,22.5*
%
%ADD10R,0.07900X0.07900*%
%ADD11OC8,0.07900*%
%ADD12C,0.07000*%
%ADD13C,0.08062*%
%ADD14C,0.08246*%
%ADD15C,0.15500*%
%ADD16C,0.13098*%
%ADD17C,0.04656*%
%ADD18C,0.07900*%
%ADD19C,0.05300*%
%ADD20R,0.07000X0.07000*%
%ADD21C,0.03200*%
D10*
X0011800Y0165000D03*
X0057000Y0175800D03*
D11*
X0031800Y0175000D03*
X0031800Y0165000D03*
X0021800Y0165000D03*
X0021800Y0175000D03*
X0011800Y0175000D03*
D12*
X0065100Y0151000D03*
X0065100Y0141000D03*
X0078900Y0141600D03*
X0078900Y0151600D03*
X0088800Y0161000D03*
X0093400Y0151600D03*
X0093400Y0141600D03*
D13*
X0011800Y0145000D03*
D14*
X0041800Y0145000D03*
D15*
X0036052Y0020354D03*
X0067548Y0020354D03*
D16*
X0067548Y0038858D03*
X0036052Y0038858D03*
D17*
X0045501Y0043583D02*
X0045501Y0047739D01*
X0048650Y0038465D02*
X0048650Y0034309D01*
X0051800Y0043583D02*
X0051800Y0047739D01*
X0054950Y0038465D02*
X0054950Y0034309D01*
X0058099Y0043583D02*
X0058099Y0047739D01*
D18*
X0011300Y0025000D03*
X0012300Y0035000D03*
X0011300Y0045000D03*
X0012300Y0055000D03*
X0011300Y0065000D03*
X0012300Y0075000D03*
X0011300Y0085000D03*
X0012300Y0095000D03*
X0011300Y0105000D03*
X0012300Y0115000D03*
X0031800Y0080000D03*
X0031800Y0065000D03*
X0071800Y0065000D03*
X0071800Y0080000D03*
X0091300Y0085000D03*
X0092300Y0095000D03*
X0091300Y0105000D03*
X0092300Y0115000D03*
X0092300Y0075000D03*
X0091300Y0065000D03*
X0092300Y0055000D03*
X0091300Y0045000D03*
X0092300Y0035000D03*
X0091300Y0025000D03*
X0057000Y0165800D03*
D19*
X0067300Y0195000D03*
X0086300Y0195000D03*
D20*
X0088800Y0171000D03*
D21*
X0085911Y0152191D03*
X0078097Y0126939D03*
X0077079Y0119439D03*
X0074265Y0105682D03*
X0073561Y0101461D03*
X0069340Y0092315D03*
X0068637Y0085983D03*
X0071690Y0073080D03*
X0059491Y0107089D03*
X0056676Y0109903D03*
X0053862Y0118735D03*
X0047530Y0120456D03*
X0062305Y0121863D03*
X0062305Y0116939D03*
X0062305Y0135231D03*
X0049641Y0087779D03*
X0027592Y0100518D03*
X0019778Y0089186D03*
X0032052Y0135934D03*
X0032052Y0158448D03*
M02*
