G75*
%MOIN*%
%OFA0B0*%
%FSLAX25Y25*%
%IPPOS*%
%LPD*%
%AMOC8*
5,1,8,0,0,1.08239X$1,22.5*
%
%ADD10R,0.07400X0.07400*%
%ADD11OC8,0.07400*%
%ADD12C,0.06500*%
%ADD13C,0.07400*%
%ADD14C,0.15000*%
%ADD15C,0.12598*%
%ADD16C,0.04156*%
%ADD17C,0.04800*%
%ADD18R,0.06500X0.06500*%
%ADD19C,0.00600*%
%ADD20C,0.02700*%
%ADD21C,0.03762*%
%ADD22C,0.01200*%
%ADD23C,0.01600*%
D10*
X0011800Y0175000D03*
X0057000Y0185800D03*
D11*
X0031800Y0185000D03*
X0031800Y0175000D03*
X0021800Y0175000D03*
X0021800Y0185000D03*
X0011800Y0185000D03*
D12*
X0065100Y0161000D03*
X0065100Y0151000D03*
X0078900Y0151600D03*
X0078900Y0141600D03*
X0093400Y0141600D03*
X0093400Y0151600D03*
X0088800Y0171000D03*
D13*
X0092300Y0115000D03*
X0091300Y0105000D03*
X0092300Y0095000D03*
X0091300Y0085000D03*
X0092300Y0075000D03*
X0091300Y0065000D03*
X0092300Y0055000D03*
X0091300Y0045000D03*
X0092300Y0035000D03*
X0091300Y0025000D03*
X0071800Y0065000D03*
X0071800Y0080000D03*
X0041800Y0155000D03*
X0057000Y0175800D03*
X0011800Y0155000D03*
X0012300Y0115000D03*
X0011300Y0105000D03*
X0012300Y0095000D03*
X0011300Y0085000D03*
X0012300Y0075000D03*
X0011300Y0065000D03*
X0012300Y0055000D03*
X0011300Y0045000D03*
X0012300Y0035000D03*
X0011300Y0025000D03*
X0031800Y0065000D03*
X0031800Y0080000D03*
D14*
X0036052Y0020354D03*
X0067548Y0020354D03*
D15*
X0067548Y0038858D03*
X0036052Y0038858D03*
D16*
X0045501Y0043583D02*
X0045501Y0047739D01*
X0048650Y0038465D02*
X0048650Y0034309D01*
X0051800Y0043583D02*
X0051800Y0047739D01*
X0054950Y0038465D02*
X0054950Y0034309D01*
X0058099Y0043583D02*
X0058099Y0047739D01*
D17*
X0067300Y0205000D03*
X0086300Y0205000D03*
D18*
X0088800Y0181000D03*
D19*
X0088675Y0180625D01*
X0068675Y0180625D01*
X0056175Y0168125D01*
X0034300Y0190000D01*
X0019925Y0190000D01*
X0014925Y0185000D01*
X0011800Y0185000D01*
X0016800Y0180000D02*
X0021800Y0185000D01*
X0016800Y0180000D02*
X0016800Y0173125D01*
X0040550Y0149375D01*
X0040550Y0142500D01*
X0043050Y0146250D02*
X0043050Y0131875D01*
X0044925Y0130000D02*
X0045550Y0130625D01*
X0045550Y0145000D01*
X0043050Y0146250D02*
X0045550Y0148750D01*
X0048050Y0143750D02*
X0048050Y0160000D01*
X0056175Y0168125D01*
X0048050Y0160000D02*
X0043050Y0155000D01*
X0041800Y0155000D01*
X0048050Y0143750D02*
X0071175Y0120625D01*
X0071175Y0101250D01*
X0045550Y0075625D01*
X0045550Y0043750D01*
X0045501Y0043583D01*
X0048650Y0038465D02*
X0048675Y0038125D01*
X0048675Y0035625D01*
X0053675Y0030625D01*
X0069925Y0030625D01*
X0075550Y0036250D01*
X0075550Y0061250D01*
X0071800Y0065000D01*
X0071800Y0080000D02*
X0051800Y0060000D01*
X0051800Y0043583D01*
X0033050Y0080000D02*
X0031800Y0080000D01*
X0033050Y0080000D02*
X0051175Y0098125D01*
X0047425Y0098125D02*
X0047425Y0133125D01*
X0048675Y0134375D01*
X0051175Y0134375D01*
X0053675Y0131875D01*
X0049925Y0131875D02*
X0049925Y0117500D01*
X0066800Y0100625D01*
X0073675Y0110000D02*
X0080550Y0116875D01*
X0080550Y0136875D01*
X0083675Y0140000D01*
X0083675Y0143125D01*
X0079925Y0146875D01*
X0069300Y0146875D01*
X0065550Y0150625D01*
X0065100Y0151000D01*
X0063675Y0156250D02*
X0080550Y0156250D01*
X0088675Y0148125D01*
X0089275Y0123625D01*
X0091800Y0120000D01*
X0091800Y0115000D01*
X0092300Y0115000D01*
X0093675Y0110000D02*
X0089925Y0110000D01*
X0087425Y0112400D01*
X0087525Y0120525D01*
X0085450Y0118850D02*
X0085550Y0094375D01*
X0089925Y0090000D01*
X0093675Y0090000D01*
X0096175Y0087500D01*
X0096175Y0082500D01*
X0093675Y0080000D01*
X0089925Y0080000D01*
X0087425Y0077500D01*
X0087425Y0072500D01*
X0089925Y0070000D01*
X0093675Y0070000D01*
X0097425Y0066250D01*
X0097425Y0040000D01*
X0092425Y0035000D01*
X0092300Y0035000D01*
X0091300Y0065000D02*
X0091175Y0065000D01*
X0080550Y0075625D01*
X0079750Y0108600D01*
X0082950Y0112000D02*
X0083050Y0093125D01*
X0091175Y0085000D01*
X0091300Y0085000D01*
X0098675Y0081250D02*
X0092425Y0075000D01*
X0092300Y0075000D01*
X0098675Y0081250D02*
X0098875Y0097850D01*
X0099050Y0102775D01*
X0098050Y0120000D01*
X0093675Y0110000D02*
X0096175Y0107500D01*
X0096175Y0100000D01*
X0085450Y0118850D02*
X0083350Y0120950D01*
X0078675Y0119375D02*
X0078675Y0141250D01*
X0078900Y0141600D01*
X0076175Y0124375D02*
X0058675Y0141875D01*
X0057425Y0141875D01*
X0052425Y0143125D02*
X0052425Y0145000D01*
X0063675Y0156250D01*
X0071175Y0120625D02*
X0073675Y0118125D01*
X0073675Y0114375D02*
X0078675Y0119375D01*
X0056175Y0097500D02*
X0056175Y0089375D01*
X0031800Y0065000D01*
X0013675Y0055000D02*
X0043675Y0085000D01*
X0043675Y0086875D01*
X0043050Y0098125D02*
X0011800Y0066875D01*
X0011800Y0065000D01*
X0011300Y0065000D01*
X0012300Y0055000D02*
X0013675Y0055000D01*
X0012425Y0075000D02*
X0012300Y0075000D01*
X0012425Y0075000D02*
X0042425Y0105000D01*
X0042425Y0110625D01*
X0044925Y0108125D02*
X0044925Y0130000D01*
X0029925Y0136875D02*
X0029925Y0108750D01*
X0027425Y0120625D02*
X0011800Y0105000D01*
X0011300Y0105000D01*
X0027425Y0120625D02*
X0027425Y0123750D01*
X0027425Y0131250D02*
X0028050Y0131875D01*
X0028050Y0135625D01*
X0014925Y0148750D01*
X0006175Y0148750D01*
X0004925Y0150000D01*
X0004925Y0168125D01*
X0011800Y0175000D01*
X0005550Y0172500D02*
X0005550Y0200000D01*
X0005550Y0208125D01*
X0011800Y0155000D02*
X0029925Y0136875D01*
D20*
X0027425Y0131250D03*
X0027425Y0123750D03*
X0029925Y0108750D03*
X0042425Y0110625D03*
X0044925Y0108125D03*
X0043050Y0098125D03*
X0047425Y0098125D03*
X0051175Y0098125D03*
X0056175Y0097500D03*
X0066800Y0100625D03*
X0073675Y0110000D03*
X0073675Y0114375D03*
X0073675Y0118125D03*
X0076175Y0124375D03*
X0083350Y0120950D03*
X0087525Y0120525D03*
X0082950Y0112000D03*
X0079750Y0108600D03*
X0096175Y0100000D03*
X0098050Y0120000D03*
X0057425Y0141875D03*
X0053675Y0131875D03*
X0049925Y0131875D03*
X0052425Y0143125D03*
X0045550Y0145000D03*
X0045550Y0148750D03*
X0040550Y0142500D03*
X0043050Y0131875D03*
X0043675Y0086875D03*
X0005550Y0172500D03*
X0005550Y0208125D03*
D21*
X0029300Y0197500D03*
X0056800Y0127500D03*
X0056800Y0115000D03*
D22*
X0056800Y0127500D01*
X0029300Y0197500D02*
X0008050Y0197500D01*
X0005550Y0200000D01*
D23*
X0004900Y0146772D02*
X0004900Y0013100D01*
X0029871Y0013100D01*
X0027998Y0014973D01*
X0026552Y0018465D01*
X0026552Y0022244D01*
X0027998Y0025736D01*
X0030671Y0028408D01*
X0034162Y0029854D01*
X0037942Y0029854D01*
X0041433Y0028408D01*
X0044106Y0025736D01*
X0045552Y0022244D01*
X0045552Y0018465D01*
X0044106Y0014973D01*
X0042233Y0013100D01*
X0061367Y0013100D01*
X0059494Y0014973D01*
X0058048Y0018465D01*
X0058048Y0022244D01*
X0059494Y0025736D01*
X0062084Y0028325D01*
X0052722Y0028325D01*
X0051375Y0029672D01*
X0050420Y0030628D01*
X0049462Y0030231D01*
X0047839Y0030231D01*
X0046340Y0030852D01*
X0045193Y0031999D01*
X0044572Y0033498D01*
X0044572Y0039276D01*
X0044671Y0039513D01*
X0044351Y0039645D01*
X0044351Y0037207D01*
X0043088Y0034157D01*
X0040753Y0031823D01*
X0037703Y0030559D01*
X0034401Y0030559D01*
X0031351Y0031823D01*
X0029016Y0034157D01*
X0027753Y0037207D01*
X0027753Y0040509D01*
X0029016Y0043559D01*
X0031351Y0045894D01*
X0034401Y0047157D01*
X0037703Y0047157D01*
X0040753Y0045894D01*
X0041423Y0045224D01*
X0041423Y0048550D01*
X0042044Y0050049D01*
X0043191Y0051196D01*
X0043250Y0051220D01*
X0043250Y0073197D01*
X0037115Y0067063D01*
X0037500Y0066134D01*
X0037500Y0063866D01*
X0036632Y0061771D01*
X0035029Y0060168D01*
X0032934Y0059300D01*
X0030666Y0059300D01*
X0028571Y0060168D01*
X0026968Y0061771D01*
X0026100Y0063866D01*
X0026100Y0064172D01*
X0018000Y0056072D01*
X0018000Y0053866D01*
X0017132Y0051771D01*
X0015529Y0050168D01*
X0014584Y0049777D01*
X0016132Y0048229D01*
X0017000Y0046134D01*
X0017000Y0043866D01*
X0016132Y0041771D01*
X0014584Y0040223D01*
X0015529Y0039832D01*
X0017132Y0038229D01*
X0018000Y0036134D01*
X0018000Y0033866D01*
X0017132Y0031771D01*
X0015529Y0030168D01*
X0014265Y0029644D01*
X0014883Y0029195D01*
X0015495Y0028583D01*
X0016004Y0027883D01*
X0016397Y0027111D01*
X0016665Y0026288D01*
X0016800Y0025433D01*
X0016800Y0025200D01*
X0011500Y0025200D01*
X0011500Y0024800D01*
X0016800Y0024800D01*
X0016800Y0024567D01*
X0016665Y0023712D01*
X0016397Y0022889D01*
X0016004Y0022117D01*
X0015495Y0021417D01*
X0014883Y0020805D01*
X0014183Y0020296D01*
X0013411Y0019903D01*
X0012588Y0019635D01*
X0011733Y0019500D01*
X0011500Y0019500D01*
X0011500Y0024800D01*
X0011100Y0024800D01*
X0011100Y0019500D01*
X0010867Y0019500D01*
X0010012Y0019635D01*
X0009189Y0019903D01*
X0008417Y0020296D01*
X0007717Y0020805D01*
X0007105Y0021417D01*
X0006596Y0022117D01*
X0006203Y0022889D01*
X0005935Y0023712D01*
X0005800Y0024567D01*
X0005800Y0024800D01*
X0011100Y0024800D01*
X0011100Y0025200D01*
X0005800Y0025200D01*
X0005800Y0025433D01*
X0005935Y0026288D01*
X0006203Y0027111D01*
X0006596Y0027883D01*
X0007105Y0028583D01*
X0007717Y0029195D01*
X0008417Y0029704D01*
X0009189Y0030097D01*
X0009219Y0030107D01*
X0009071Y0030168D01*
X0007468Y0031771D01*
X0006600Y0033866D01*
X0006600Y0036134D01*
X0007468Y0038229D01*
X0009016Y0039777D01*
X0008071Y0040168D01*
X0006468Y0041771D01*
X0005600Y0043866D01*
X0005600Y0046134D01*
X0006468Y0048229D01*
X0008071Y0049832D01*
X0009016Y0050223D01*
X0007468Y0051771D01*
X0006600Y0053866D01*
X0006600Y0056134D01*
X0007468Y0058229D01*
X0009016Y0059777D01*
X0008071Y0060168D01*
X0006468Y0061771D01*
X0005600Y0063866D01*
X0005600Y0066134D01*
X0006468Y0068229D01*
X0008071Y0069832D01*
X0009016Y0070223D01*
X0007468Y0071771D01*
X0006600Y0073866D01*
X0006600Y0076134D01*
X0007468Y0078229D01*
X0009016Y0079777D01*
X0008071Y0080168D01*
X0006468Y0081771D01*
X0005600Y0083866D01*
X0005600Y0086134D01*
X0006468Y0088229D01*
X0008071Y0089832D01*
X0009016Y0090223D01*
X0007468Y0091771D01*
X0006600Y0093866D01*
X0006600Y0096134D01*
X0007468Y0098229D01*
X0009016Y0099777D01*
X0008071Y0100168D01*
X0006468Y0101771D01*
X0005600Y0103866D01*
X0005600Y0106134D01*
X0006468Y0108229D01*
X0008071Y0109832D01*
X0009016Y0110223D01*
X0007468Y0111771D01*
X0006600Y0113866D01*
X0006600Y0116134D01*
X0007468Y0118229D01*
X0009071Y0119832D01*
X0011166Y0120700D01*
X0013434Y0120700D01*
X0015529Y0119832D01*
X0017132Y0118229D01*
X0018000Y0116134D01*
X0018000Y0114453D01*
X0024992Y0121445D01*
X0024585Y0121852D01*
X0024075Y0123084D01*
X0024075Y0124416D01*
X0024585Y0125648D01*
X0025527Y0126590D01*
X0026759Y0127100D01*
X0027625Y0127100D01*
X0027625Y0127900D01*
X0026759Y0127900D01*
X0025527Y0128410D01*
X0024585Y0129352D01*
X0024075Y0130584D01*
X0024075Y0131916D01*
X0024585Y0133148D01*
X0025527Y0134090D01*
X0025750Y0134182D01*
X0025750Y0134672D01*
X0013972Y0146450D01*
X0005222Y0146450D01*
X0004900Y0146772D01*
X0004900Y0145873D02*
X0014549Y0145873D01*
X0016147Y0144275D02*
X0004900Y0144275D01*
X0004900Y0142676D02*
X0017746Y0142676D01*
X0019344Y0141078D02*
X0004900Y0141078D01*
X0004900Y0139479D02*
X0020943Y0139479D01*
X0022541Y0137881D02*
X0004900Y0137881D01*
X0004900Y0136282D02*
X0024140Y0136282D01*
X0025738Y0134684D02*
X0004900Y0134684D01*
X0004900Y0133085D02*
X0024559Y0133085D01*
X0024075Y0131487D02*
X0004900Y0131487D01*
X0004900Y0129888D02*
X0024363Y0129888D01*
X0025817Y0128290D02*
X0004900Y0128290D01*
X0004900Y0126691D02*
X0025772Y0126691D01*
X0024355Y0125093D02*
X0004900Y0125093D01*
X0004900Y0123494D02*
X0024075Y0123494D01*
X0024567Y0121896D02*
X0004900Y0121896D01*
X0004900Y0120297D02*
X0010194Y0120297D01*
X0007938Y0118699D02*
X0004900Y0118699D01*
X0004900Y0117100D02*
X0007000Y0117100D01*
X0006600Y0115502D02*
X0004900Y0115502D01*
X0004900Y0113903D02*
X0006600Y0113903D01*
X0007247Y0112305D02*
X0004900Y0112305D01*
X0004900Y0110706D02*
X0008533Y0110706D01*
X0007347Y0109108D02*
X0004900Y0109108D01*
X0004900Y0107509D02*
X0006170Y0107509D01*
X0005600Y0105911D02*
X0004900Y0105911D01*
X0004900Y0104312D02*
X0005600Y0104312D01*
X0006077Y0102714D02*
X0004900Y0102714D01*
X0004900Y0101115D02*
X0007124Y0101115D01*
X0007339Y0097918D02*
X0004900Y0097918D01*
X0004900Y0096320D02*
X0006677Y0096320D01*
X0006600Y0094721D02*
X0004900Y0094721D01*
X0004900Y0093123D02*
X0006908Y0093123D01*
X0007715Y0091524D02*
X0004900Y0091524D01*
X0004900Y0089926D02*
X0008297Y0089926D01*
X0006566Y0088327D02*
X0004900Y0088327D01*
X0004900Y0086729D02*
X0005846Y0086729D01*
X0005600Y0085130D02*
X0004900Y0085130D01*
X0004900Y0083532D02*
X0005739Y0083532D01*
X0006401Y0081933D02*
X0004900Y0081933D01*
X0004900Y0080334D02*
X0007904Y0080334D01*
X0007975Y0078736D02*
X0004900Y0078736D01*
X0004900Y0077137D02*
X0007016Y0077137D01*
X0006600Y0075539D02*
X0004900Y0075539D01*
X0004900Y0073940D02*
X0006600Y0073940D01*
X0007231Y0072342D02*
X0004900Y0072342D01*
X0004900Y0070743D02*
X0008496Y0070743D01*
X0007384Y0069145D02*
X0004900Y0069145D01*
X0004900Y0067546D02*
X0006185Y0067546D01*
X0005600Y0065948D02*
X0004900Y0065948D01*
X0004900Y0064349D02*
X0005600Y0064349D01*
X0006062Y0062751D02*
X0004900Y0062751D01*
X0004900Y0061152D02*
X0007087Y0061152D01*
X0007355Y0057955D02*
X0004900Y0057955D01*
X0004900Y0056357D02*
X0006692Y0056357D01*
X0006600Y0054758D02*
X0004900Y0054758D01*
X0004900Y0053160D02*
X0006893Y0053160D01*
X0007678Y0051561D02*
X0004900Y0051561D01*
X0004900Y0049963D02*
X0008386Y0049963D01*
X0006603Y0048364D02*
X0004900Y0048364D01*
X0004900Y0046766D02*
X0005862Y0046766D01*
X0005600Y0045167D02*
X0004900Y0045167D01*
X0004900Y0043569D02*
X0005723Y0043569D01*
X0006385Y0041970D02*
X0004900Y0041970D01*
X0004900Y0040372D02*
X0007867Y0040372D01*
X0008012Y0038773D02*
X0004900Y0038773D01*
X0004900Y0037175D02*
X0007031Y0037175D01*
X0006600Y0035576D02*
X0004900Y0035576D01*
X0004900Y0033978D02*
X0006600Y0033978D01*
X0007216Y0032379D02*
X0004900Y0032379D01*
X0004900Y0030781D02*
X0008458Y0030781D01*
X0007704Y0029182D02*
X0004900Y0029182D01*
X0004900Y0027584D02*
X0006444Y0027584D01*
X0005887Y0025985D02*
X0004900Y0025985D01*
X0004900Y0024387D02*
X0005829Y0024387D01*
X0006254Y0022788D02*
X0004900Y0022788D01*
X0004900Y0021190D02*
X0007332Y0021190D01*
X0004900Y0019591D02*
X0010292Y0019591D01*
X0011100Y0019591D02*
X0011500Y0019591D01*
X0012308Y0019591D02*
X0026552Y0019591D01*
X0026552Y0021190D02*
X0015268Y0021190D01*
X0016346Y0022788D02*
X0026777Y0022788D01*
X0027439Y0024387D02*
X0016771Y0024387D01*
X0016713Y0025985D02*
X0028248Y0025985D01*
X0029846Y0027584D02*
X0016156Y0027584D01*
X0014896Y0029182D02*
X0032540Y0029182D01*
X0033866Y0030781D02*
X0016142Y0030781D01*
X0017384Y0032379D02*
X0030794Y0032379D01*
X0029196Y0033978D02*
X0018000Y0033978D01*
X0018000Y0035576D02*
X0028428Y0035576D01*
X0027766Y0037175D02*
X0017569Y0037175D01*
X0016588Y0038773D02*
X0027753Y0038773D01*
X0027753Y0040372D02*
X0014733Y0040372D01*
X0016215Y0041970D02*
X0028358Y0041970D01*
X0029026Y0043569D02*
X0016877Y0043569D01*
X0017000Y0045167D02*
X0030624Y0045167D01*
X0033455Y0046766D02*
X0016738Y0046766D01*
X0015997Y0048364D02*
X0041423Y0048364D01*
X0041423Y0046766D02*
X0038648Y0046766D01*
X0042008Y0049963D02*
X0015034Y0049963D01*
X0016922Y0051561D02*
X0043250Y0051561D01*
X0043250Y0053160D02*
X0017707Y0053160D01*
X0018000Y0054758D02*
X0043250Y0054758D01*
X0043250Y0056357D02*
X0018284Y0056357D01*
X0019883Y0057955D02*
X0043250Y0057955D01*
X0043250Y0059554D02*
X0033547Y0059554D01*
X0036013Y0061152D02*
X0043250Y0061152D01*
X0043250Y0062751D02*
X0037038Y0062751D01*
X0037500Y0064349D02*
X0043250Y0064349D01*
X0043250Y0065948D02*
X0037500Y0065948D01*
X0037599Y0067546D02*
X0043250Y0067546D01*
X0043250Y0069145D02*
X0039198Y0069145D01*
X0040796Y0070743D02*
X0043250Y0070743D01*
X0043250Y0072342D02*
X0042395Y0072342D01*
X0047850Y0072342D02*
X0060889Y0072342D01*
X0062488Y0073940D02*
X0047850Y0073940D01*
X0047850Y0074672D02*
X0072128Y0098950D01*
X0073475Y0100297D01*
X0073475Y0106650D01*
X0074341Y0106650D01*
X0075573Y0107160D01*
X0076400Y0107987D01*
X0076400Y0107934D01*
X0076910Y0106702D01*
X0077510Y0106102D01*
X0078250Y0075597D01*
X0078250Y0074672D01*
X0078273Y0074649D01*
X0078274Y0074617D01*
X0078943Y0073979D01*
X0085948Y0066974D01*
X0085600Y0066134D01*
X0085600Y0063866D01*
X0086468Y0061771D01*
X0088071Y0060168D01*
X0089016Y0059777D01*
X0087468Y0058229D01*
X0086600Y0056134D01*
X0086600Y0053866D01*
X0087468Y0051771D01*
X0089016Y0050223D01*
X0088071Y0049832D01*
X0086468Y0048229D01*
X0085600Y0046134D01*
X0085600Y0043866D01*
X0086468Y0041771D01*
X0088071Y0040168D01*
X0089016Y0039777D01*
X0087468Y0038229D01*
X0086600Y0036134D01*
X0086600Y0033866D01*
X0087468Y0031771D01*
X0089016Y0030223D01*
X0088071Y0029832D01*
X0086468Y0028229D01*
X0085600Y0026134D01*
X0085600Y0023866D01*
X0086468Y0021771D01*
X0088071Y0020168D01*
X0090166Y0019300D01*
X0092434Y0019300D01*
X0094529Y0020168D01*
X0096132Y0021771D01*
X0097000Y0023866D01*
X0097000Y0026134D01*
X0096132Y0028229D01*
X0094584Y0029777D01*
X0095529Y0030168D01*
X0097132Y0031771D01*
X0098000Y0033866D01*
X0098000Y0036134D01*
X0097652Y0036974D01*
X0098700Y0038022D01*
X0098700Y0013100D01*
X0073729Y0013100D01*
X0075602Y0014973D01*
X0077048Y0018465D01*
X0077048Y0022244D01*
X0075602Y0025736D01*
X0072929Y0028408D01*
X0071537Y0028985D01*
X0076503Y0033950D01*
X0077850Y0035297D01*
X0077850Y0062203D01*
X0077115Y0062937D01*
X0077500Y0063866D01*
X0077500Y0066134D01*
X0076632Y0068229D01*
X0075029Y0069832D01*
X0072934Y0070700D01*
X0070666Y0070700D01*
X0068571Y0069832D01*
X0066968Y0068229D01*
X0066100Y0066134D01*
X0066100Y0063866D01*
X0066968Y0061771D01*
X0068571Y0060168D01*
X0070666Y0059300D01*
X0072934Y0059300D01*
X0073250Y0059431D01*
X0073250Y0044893D01*
X0072249Y0045894D01*
X0069199Y0047157D01*
X0065897Y0047157D01*
X0062847Y0045894D01*
X0061977Y0045024D01*
X0061977Y0048121D01*
X0061828Y0048870D01*
X0061536Y0049575D01*
X0061111Y0050211D01*
X0060571Y0050751D01*
X0059936Y0051175D01*
X0059230Y0051467D01*
X0058481Y0051617D01*
X0058099Y0051617D01*
X0057717Y0051617D01*
X0056968Y0051467D01*
X0056262Y0051175D01*
X0055627Y0050751D01*
X0055091Y0050215D01*
X0054110Y0051196D01*
X0054100Y0051200D01*
X0054100Y0059047D01*
X0069737Y0074685D01*
X0070666Y0074300D01*
X0072934Y0074300D01*
X0075029Y0075168D01*
X0076632Y0076771D01*
X0077500Y0078866D01*
X0077500Y0081134D01*
X0076632Y0083229D01*
X0075029Y0084832D01*
X0072934Y0085700D01*
X0070666Y0085700D01*
X0068571Y0084832D01*
X0066968Y0083229D01*
X0066100Y0081134D01*
X0066100Y0078866D01*
X0066485Y0077937D01*
X0049500Y0060953D01*
X0049500Y0051200D01*
X0049490Y0051196D01*
X0048650Y0050356D01*
X0047850Y0051156D01*
X0047850Y0074672D01*
X0048717Y0075539D02*
X0064086Y0075539D01*
X0065685Y0077137D02*
X0050315Y0077137D01*
X0051914Y0078736D02*
X0066154Y0078736D01*
X0066100Y0080334D02*
X0053512Y0080334D01*
X0055111Y0081933D02*
X0066431Y0081933D01*
X0067270Y0083532D02*
X0056709Y0083532D01*
X0058308Y0085130D02*
X0069290Y0085130D01*
X0074310Y0085130D02*
X0078019Y0085130D01*
X0078057Y0083532D02*
X0076329Y0083532D01*
X0077169Y0081933D02*
X0078096Y0081933D01*
X0078135Y0080334D02*
X0077500Y0080334D01*
X0077446Y0078736D02*
X0078174Y0078736D01*
X0078213Y0077137D02*
X0076784Y0077137D01*
X0075400Y0075539D02*
X0078250Y0075539D01*
X0078982Y0073940D02*
X0068993Y0073940D01*
X0067395Y0072342D02*
X0080580Y0072342D01*
X0082179Y0070743D02*
X0065796Y0070743D01*
X0064198Y0069145D02*
X0067884Y0069145D01*
X0066685Y0067546D02*
X0062599Y0067546D01*
X0061001Y0065948D02*
X0066100Y0065948D01*
X0066100Y0064349D02*
X0059402Y0064349D01*
X0057804Y0062751D02*
X0066562Y0062751D01*
X0067587Y0061152D02*
X0056205Y0061152D01*
X0054607Y0059554D02*
X0070053Y0059554D01*
X0073250Y0057955D02*
X0054100Y0057955D01*
X0054100Y0056357D02*
X0073250Y0056357D01*
X0073250Y0054758D02*
X0054100Y0054758D01*
X0054100Y0053160D02*
X0073250Y0053160D01*
X0073250Y0051561D02*
X0058759Y0051561D01*
X0058099Y0051561D02*
X0058099Y0051561D01*
X0058099Y0051617D02*
X0058099Y0043583D01*
X0058099Y0043583D01*
X0058099Y0051617D01*
X0057440Y0051561D02*
X0054100Y0051561D01*
X0058099Y0049963D02*
X0058099Y0049963D01*
X0058099Y0048364D02*
X0058099Y0048364D01*
X0058099Y0046766D02*
X0058099Y0046766D01*
X0058099Y0045167D02*
X0058099Y0045167D01*
X0061277Y0049963D02*
X0073250Y0049963D01*
X0073250Y0048364D02*
X0061929Y0048364D01*
X0061977Y0046766D02*
X0064952Y0046766D01*
X0062120Y0045167D02*
X0061977Y0045167D01*
X0070145Y0046766D02*
X0073250Y0046766D01*
X0073250Y0045167D02*
X0072976Y0045167D01*
X0077850Y0045167D02*
X0085600Y0045167D01*
X0085723Y0043569D02*
X0077850Y0043569D01*
X0077850Y0041970D02*
X0086385Y0041970D01*
X0087867Y0040372D02*
X0077850Y0040372D01*
X0077850Y0038773D02*
X0088012Y0038773D01*
X0087031Y0037175D02*
X0077850Y0037175D01*
X0077850Y0035576D02*
X0086600Y0035576D01*
X0086600Y0033978D02*
X0076530Y0033978D01*
X0074932Y0032379D02*
X0087216Y0032379D01*
X0088458Y0030781D02*
X0073333Y0030781D01*
X0071735Y0029182D02*
X0087421Y0029182D01*
X0086201Y0027584D02*
X0073754Y0027584D01*
X0075352Y0025985D02*
X0085600Y0025985D01*
X0085600Y0024387D02*
X0076161Y0024387D01*
X0076823Y0022788D02*
X0086047Y0022788D01*
X0087049Y0021190D02*
X0077048Y0021190D01*
X0077048Y0019591D02*
X0089463Y0019591D01*
X0093137Y0019591D02*
X0098700Y0019591D01*
X0098700Y0017993D02*
X0076852Y0017993D01*
X0076190Y0016394D02*
X0098700Y0016394D01*
X0098700Y0014796D02*
X0075424Y0014796D01*
X0073826Y0013197D02*
X0098700Y0013197D01*
X0098700Y0021190D02*
X0095551Y0021190D01*
X0096553Y0022788D02*
X0098700Y0022788D01*
X0098700Y0024387D02*
X0097000Y0024387D01*
X0097000Y0025985D02*
X0098700Y0025985D01*
X0098700Y0027584D02*
X0096399Y0027584D01*
X0095179Y0029182D02*
X0098700Y0029182D01*
X0098700Y0030781D02*
X0096142Y0030781D01*
X0097384Y0032379D02*
X0098700Y0032379D01*
X0098700Y0033978D02*
X0098000Y0033978D01*
X0098000Y0035576D02*
X0098700Y0035576D01*
X0098700Y0037175D02*
X0097852Y0037175D01*
X0088386Y0049963D02*
X0077850Y0049963D01*
X0077850Y0051561D02*
X0087678Y0051561D01*
X0086893Y0053160D02*
X0077850Y0053160D01*
X0077850Y0054758D02*
X0086600Y0054758D01*
X0086692Y0056357D02*
X0077850Y0056357D01*
X0077850Y0057955D02*
X0087355Y0057955D01*
X0088793Y0059554D02*
X0077850Y0059554D01*
X0077850Y0061152D02*
X0087087Y0061152D01*
X0086062Y0062751D02*
X0077302Y0062751D01*
X0077500Y0064349D02*
X0085600Y0064349D01*
X0085600Y0065948D02*
X0077500Y0065948D01*
X0076915Y0067546D02*
X0085376Y0067546D01*
X0083777Y0069145D02*
X0075716Y0069145D01*
X0077980Y0086729D02*
X0059906Y0086729D01*
X0061505Y0088327D02*
X0077941Y0088327D01*
X0077902Y0089926D02*
X0063103Y0089926D01*
X0064702Y0091524D02*
X0077864Y0091524D01*
X0077825Y0093123D02*
X0066300Y0093123D01*
X0067899Y0094721D02*
X0077786Y0094721D01*
X0077747Y0096320D02*
X0069497Y0096320D01*
X0071096Y0097918D02*
X0077708Y0097918D01*
X0077670Y0099517D02*
X0072694Y0099517D01*
X0073475Y0101115D02*
X0077631Y0101115D01*
X0077592Y0102714D02*
X0073475Y0102714D01*
X0073475Y0104312D02*
X0077553Y0104312D01*
X0077515Y0105911D02*
X0073475Y0105911D01*
X0075922Y0107509D02*
X0076576Y0107509D01*
X0068875Y0107509D02*
X0063168Y0107509D01*
X0064767Y0105911D02*
X0068875Y0105911D01*
X0068875Y0104312D02*
X0066366Y0104312D01*
X0066703Y0103975D02*
X0052225Y0118453D01*
X0052225Y0128850D01*
X0053009Y0128525D01*
X0054341Y0128525D01*
X0055573Y0129035D01*
X0056515Y0129977D01*
X0057025Y0131209D01*
X0057025Y0131522D01*
X0068875Y0119672D01*
X0068875Y0103288D01*
X0068698Y0103465D01*
X0067466Y0103975D01*
X0066703Y0103975D01*
X0068875Y0109108D02*
X0061570Y0109108D01*
X0059971Y0110706D02*
X0068875Y0110706D01*
X0068875Y0112305D02*
X0058373Y0112305D01*
X0056774Y0113903D02*
X0068875Y0113903D01*
X0068875Y0115502D02*
X0055176Y0115502D01*
X0053577Y0117100D02*
X0068875Y0117100D01*
X0068875Y0118699D02*
X0052225Y0118699D01*
X0052225Y0120297D02*
X0068250Y0120297D01*
X0066652Y0121896D02*
X0052225Y0121896D01*
X0052225Y0123494D02*
X0065053Y0123494D01*
X0063454Y0125093D02*
X0052225Y0125093D01*
X0052225Y0126691D02*
X0061856Y0126691D01*
X0060257Y0128290D02*
X0052225Y0128290D01*
X0056426Y0129888D02*
X0058659Y0129888D01*
X0057060Y0131487D02*
X0057025Y0131487D01*
X0050350Y0146178D02*
X0050350Y0159047D01*
X0057128Y0165825D01*
X0058475Y0167172D01*
X0069628Y0178325D01*
X0083550Y0178325D01*
X0083550Y0176922D01*
X0084722Y0175750D01*
X0087077Y0175750D01*
X0086861Y0175680D01*
X0086153Y0175319D01*
X0085510Y0174852D01*
X0084948Y0174290D01*
X0084481Y0173647D01*
X0084120Y0172939D01*
X0083874Y0172183D01*
X0083750Y0171397D01*
X0083750Y0171000D01*
X0088800Y0171000D01*
X0093850Y0171000D01*
X0093850Y0171397D01*
X0093726Y0172183D01*
X0093480Y0172939D01*
X0093119Y0173647D01*
X0092652Y0174290D01*
X0092090Y0174852D01*
X0091447Y0175319D01*
X0090739Y0175680D01*
X0090523Y0175750D01*
X0092878Y0175750D01*
X0094050Y0176922D01*
X0094050Y0185078D01*
X0092878Y0186250D01*
X0084722Y0186250D01*
X0083550Y0185078D01*
X0083550Y0182925D01*
X0067722Y0182925D01*
X0062247Y0177450D01*
X0062097Y0177911D01*
X0061704Y0178683D01*
X0061195Y0179383D01*
X0060583Y0179995D01*
X0060439Y0180100D01*
X0061528Y0180100D01*
X0062700Y0181272D01*
X0062700Y0190328D01*
X0061528Y0191500D01*
X0052472Y0191500D01*
X0051300Y0190328D01*
X0051300Y0181272D01*
X0052472Y0180100D01*
X0053561Y0180100D01*
X0053417Y0179995D01*
X0052805Y0179383D01*
X0052296Y0178683D01*
X0051903Y0177911D01*
X0051635Y0177088D01*
X0051500Y0176233D01*
X0051500Y0176053D01*
X0035253Y0192300D01*
X0018972Y0192300D01*
X0017625Y0190953D01*
X0015767Y0189094D01*
X0014161Y0190700D01*
X0009439Y0190700D01*
X0006100Y0187361D01*
X0006100Y0182639D01*
X0008039Y0180700D01*
X0007272Y0180700D01*
X0006100Y0179528D01*
X0006100Y0172553D01*
X0004900Y0171353D01*
X0004900Y0221900D01*
X0098700Y0221900D01*
X0098700Y0123350D01*
X0097384Y0123350D01*
X0096152Y0122840D01*
X0095210Y0121898D01*
X0094700Y0120666D01*
X0094700Y0120176D01*
X0094205Y0120381D01*
X0094232Y0120533D01*
X0094100Y0120722D01*
X0094100Y0120953D01*
X0093571Y0121482D01*
X0091557Y0124372D01*
X0091253Y0136807D01*
X0092356Y0136350D01*
X0094444Y0136350D01*
X0096374Y0137149D01*
X0097851Y0138626D01*
X0098650Y0140556D01*
X0098650Y0142644D01*
X0097851Y0144574D01*
X0096374Y0146051D01*
X0094743Y0146726D01*
X0095339Y0146920D01*
X0096047Y0147281D01*
X0096690Y0147748D01*
X0097252Y0148310D01*
X0097719Y0148953D01*
X0098080Y0149661D01*
X0098326Y0150417D01*
X0098450Y0151203D01*
X0098450Y0151600D01*
X0098450Y0151997D01*
X0098326Y0152783D01*
X0098080Y0153539D01*
X0097719Y0154247D01*
X0097252Y0154890D01*
X0096690Y0155452D01*
X0096047Y0155919D01*
X0095339Y0156280D01*
X0094583Y0156526D01*
X0093797Y0156650D01*
X0093400Y0156650D01*
X0093400Y0151600D01*
X0093400Y0151600D01*
X0098450Y0151600D01*
X0093400Y0151600D01*
X0093400Y0151600D01*
X0093400Y0156650D01*
X0093003Y0156650D01*
X0092217Y0156526D01*
X0091461Y0156280D01*
X0090753Y0155919D01*
X0090110Y0155452D01*
X0089548Y0154890D01*
X0089081Y0154247D01*
X0088720Y0153539D01*
X0088474Y0152783D01*
X0088350Y0151997D01*
X0088350Y0151703D01*
X0081503Y0158550D01*
X0069519Y0158550D01*
X0069780Y0159061D01*
X0070026Y0159817D01*
X0070150Y0160603D01*
X0070150Y0161000D01*
X0070150Y0161397D01*
X0070026Y0162183D01*
X0069780Y0162939D01*
X0069419Y0163647D01*
X0068952Y0164290D01*
X0068390Y0164852D01*
X0067747Y0165319D01*
X0067039Y0165680D01*
X0066283Y0165926D01*
X0065497Y0166050D01*
X0065100Y0166050D01*
X0065100Y0161000D01*
X0065100Y0161000D01*
X0070150Y0161000D01*
X0065100Y0161000D01*
X0065100Y0161000D01*
X0065100Y0161000D01*
X0060050Y0161000D01*
X0060050Y0161397D01*
X0060174Y0162183D01*
X0060420Y0162939D01*
X0060781Y0163647D01*
X0061248Y0164290D01*
X0061810Y0164852D01*
X0062453Y0165319D01*
X0063161Y0165680D01*
X0063917Y0165926D01*
X0064703Y0166050D01*
X0065100Y0166050D01*
X0065100Y0161000D01*
X0060050Y0161000D01*
X0060050Y0160603D01*
X0060174Y0159817D01*
X0060420Y0159061D01*
X0060781Y0158353D01*
X0061248Y0157710D01*
X0061565Y0157393D01*
X0061375Y0157203D01*
X0050350Y0146178D01*
X0050350Y0147472D02*
X0051644Y0147472D01*
X0050350Y0149070D02*
X0053243Y0149070D01*
X0054841Y0150669D02*
X0050350Y0150669D01*
X0050350Y0152268D02*
X0056440Y0152268D01*
X0058038Y0153866D02*
X0050350Y0153866D01*
X0050350Y0155465D02*
X0059637Y0155465D01*
X0061235Y0157063D02*
X0050350Y0157063D01*
X0050350Y0158662D02*
X0060624Y0158662D01*
X0060104Y0160260D02*
X0051563Y0160260D01*
X0053161Y0161859D02*
X0060123Y0161859D01*
X0060684Y0163457D02*
X0054760Y0163457D01*
X0056358Y0165056D02*
X0062090Y0165056D01*
X0059555Y0168253D02*
X0084554Y0168253D01*
X0084481Y0168353D02*
X0084948Y0167710D01*
X0085510Y0167148D01*
X0086153Y0166681D01*
X0086861Y0166320D01*
X0087617Y0166074D01*
X0088403Y0165950D01*
X0088800Y0165950D01*
X0089197Y0165950D01*
X0089983Y0166074D01*
X0090739Y0166320D01*
X0091447Y0166681D01*
X0092090Y0167148D01*
X0092652Y0167710D01*
X0093119Y0168353D01*
X0093480Y0169061D01*
X0093726Y0169817D01*
X0093850Y0170603D01*
X0093850Y0171000D01*
X0088800Y0171000D01*
X0088800Y0171000D01*
X0088800Y0165950D01*
X0088800Y0171000D01*
X0088800Y0171000D01*
X0088800Y0171000D01*
X0083750Y0171000D01*
X0083750Y0170603D01*
X0083874Y0169817D01*
X0084120Y0169061D01*
X0084481Y0168353D01*
X0083869Y0169851D02*
X0061154Y0169851D01*
X0062752Y0171450D02*
X0083758Y0171450D01*
X0084176Y0173048D02*
X0064351Y0173048D01*
X0065949Y0174647D02*
X0085305Y0174647D01*
X0084226Y0176245D02*
X0067548Y0176245D01*
X0069146Y0177844D02*
X0083550Y0177844D01*
X0083550Y0184238D02*
X0062700Y0184238D01*
X0062700Y0185836D02*
X0084308Y0185836D01*
X0092295Y0174647D02*
X0098700Y0174647D01*
X0098700Y0176245D02*
X0093374Y0176245D01*
X0094050Y0177844D02*
X0098700Y0177844D01*
X0098700Y0179442D02*
X0094050Y0179442D01*
X0094050Y0181041D02*
X0098700Y0181041D01*
X0098700Y0182639D02*
X0094050Y0182639D01*
X0094050Y0184238D02*
X0098700Y0184238D01*
X0098700Y0185836D02*
X0093292Y0185836D01*
X0098700Y0187435D02*
X0062700Y0187435D01*
X0062700Y0189033D02*
X0098700Y0189033D01*
X0098700Y0190632D02*
X0062397Y0190632D01*
X0062700Y0182639D02*
X0067437Y0182639D01*
X0065838Y0181041D02*
X0062469Y0181041D01*
X0061136Y0179442D02*
X0064240Y0179442D01*
X0062641Y0177844D02*
X0062119Y0177844D01*
X0057957Y0166654D02*
X0086206Y0166654D01*
X0088800Y0166654D02*
X0088800Y0166654D01*
X0088800Y0168253D02*
X0088800Y0168253D01*
X0088800Y0169851D02*
X0088800Y0169851D01*
X0091394Y0166654D02*
X0098700Y0166654D01*
X0098700Y0165056D02*
X0068110Y0165056D01*
X0069516Y0163457D02*
X0098700Y0163457D01*
X0098700Y0161859D02*
X0070077Y0161859D01*
X0070096Y0160260D02*
X0098700Y0160260D01*
X0098700Y0158662D02*
X0069576Y0158662D01*
X0069561Y0153950D02*
X0074430Y0153950D01*
X0074220Y0153539D01*
X0073974Y0152783D01*
X0073850Y0151997D01*
X0073850Y0151600D01*
X0078900Y0151600D01*
X0078900Y0151600D01*
X0073850Y0151600D01*
X0073850Y0151203D01*
X0073974Y0150417D01*
X0074220Y0149661D01*
X0074468Y0149175D01*
X0070253Y0149175D01*
X0070093Y0149335D01*
X0070350Y0149956D01*
X0070350Y0152044D01*
X0069561Y0153950D01*
X0069595Y0153866D02*
X0074387Y0153866D01*
X0073893Y0152268D02*
X0070258Y0152268D01*
X0070350Y0150669D02*
X0073934Y0150669D01*
X0065100Y0161859D02*
X0065100Y0161859D01*
X0065100Y0163457D02*
X0065100Y0163457D01*
X0065100Y0165056D02*
X0065100Y0165056D01*
X0057128Y0165825D02*
X0057128Y0165825D01*
X0051502Y0176245D02*
X0051307Y0176245D01*
X0051881Y0177844D02*
X0049709Y0177844D01*
X0048110Y0179442D02*
X0052864Y0179442D01*
X0051531Y0181041D02*
X0046512Y0181041D01*
X0044913Y0182639D02*
X0051300Y0182639D01*
X0051300Y0184238D02*
X0043315Y0184238D01*
X0041716Y0185836D02*
X0051300Y0185836D01*
X0051300Y0187435D02*
X0040118Y0187435D01*
X0038519Y0189033D02*
X0051300Y0189033D01*
X0051603Y0190632D02*
X0036921Y0190632D01*
X0035322Y0192230D02*
X0098700Y0192230D01*
X0098700Y0193829D02*
X0004900Y0193829D01*
X0004900Y0195427D02*
X0098700Y0195427D01*
X0098700Y0197026D02*
X0004900Y0197026D01*
X0004900Y0198624D02*
X0098700Y0198624D01*
X0098700Y0200223D02*
X0004900Y0200223D01*
X0004900Y0201821D02*
X0064256Y0201821D01*
X0064808Y0201270D02*
X0066425Y0200600D01*
X0068175Y0200600D01*
X0069792Y0201270D01*
X0071030Y0202508D01*
X0071700Y0204125D01*
X0071700Y0205875D01*
X0071030Y0207492D01*
X0069792Y0208730D01*
X0068175Y0209400D01*
X0066425Y0209400D01*
X0064808Y0208730D01*
X0063570Y0207492D01*
X0062900Y0205875D01*
X0062900Y0204125D01*
X0063570Y0202508D01*
X0064808Y0201270D01*
X0063192Y0203420D02*
X0004900Y0203420D01*
X0004900Y0205018D02*
X0062900Y0205018D01*
X0063207Y0206617D02*
X0004900Y0206617D01*
X0004900Y0208215D02*
X0064293Y0208215D01*
X0070307Y0208215D02*
X0083293Y0208215D01*
X0083808Y0208730D02*
X0082570Y0207492D01*
X0081900Y0205875D01*
X0081900Y0204125D01*
X0082570Y0202508D01*
X0083808Y0201270D01*
X0085425Y0200600D01*
X0087175Y0200600D01*
X0088792Y0201270D01*
X0090030Y0202508D01*
X0090700Y0204125D01*
X0090700Y0205875D01*
X0090030Y0207492D01*
X0088792Y0208730D01*
X0087175Y0209400D01*
X0085425Y0209400D01*
X0083808Y0208730D01*
X0082207Y0206617D02*
X0071393Y0206617D01*
X0071700Y0205018D02*
X0081900Y0205018D01*
X0082192Y0203420D02*
X0071408Y0203420D01*
X0070344Y0201821D02*
X0083256Y0201821D01*
X0089344Y0201821D02*
X0098700Y0201821D01*
X0098700Y0203420D02*
X0090408Y0203420D01*
X0090700Y0205018D02*
X0098700Y0205018D01*
X0098700Y0206617D02*
X0090393Y0206617D01*
X0089307Y0208215D02*
X0098700Y0208215D01*
X0098700Y0209814D02*
X0004900Y0209814D01*
X0004900Y0211412D02*
X0098700Y0211412D01*
X0098700Y0213011D02*
X0004900Y0213011D01*
X0004900Y0214609D02*
X0098700Y0214609D01*
X0098700Y0216208D02*
X0004900Y0216208D01*
X0004900Y0217806D02*
X0098700Y0217806D01*
X0098700Y0219405D02*
X0004900Y0219405D01*
X0004900Y0221003D02*
X0098700Y0221003D01*
X0098700Y0173048D02*
X0093424Y0173048D01*
X0093842Y0171450D02*
X0098700Y0171450D01*
X0098700Y0169851D02*
X0093731Y0169851D01*
X0093046Y0168253D02*
X0098700Y0168253D01*
X0098700Y0157063D02*
X0082990Y0157063D01*
X0084588Y0155465D02*
X0090127Y0155465D01*
X0088887Y0153866D02*
X0086187Y0153866D01*
X0087785Y0152268D02*
X0088393Y0152268D01*
X0093400Y0152268D02*
X0093400Y0152268D01*
X0093400Y0153866D02*
X0093400Y0153866D01*
X0093400Y0155465D02*
X0093400Y0155465D01*
X0096673Y0155465D02*
X0098700Y0155465D01*
X0098700Y0153866D02*
X0097913Y0153866D01*
X0098407Y0152268D02*
X0098700Y0152268D01*
X0098700Y0150669D02*
X0098365Y0150669D01*
X0098700Y0149070D02*
X0097779Y0149070D01*
X0098700Y0147472D02*
X0096310Y0147472D01*
X0096551Y0145873D02*
X0098700Y0145873D01*
X0098700Y0144275D02*
X0097975Y0144275D01*
X0098637Y0142676D02*
X0098700Y0142676D01*
X0098650Y0141078D02*
X0098700Y0141078D01*
X0098700Y0139479D02*
X0098204Y0139479D01*
X0098700Y0137881D02*
X0097106Y0137881D01*
X0098700Y0136282D02*
X0091266Y0136282D01*
X0091305Y0134684D02*
X0098700Y0134684D01*
X0098700Y0133085D02*
X0091344Y0133085D01*
X0091383Y0131487D02*
X0098700Y0131487D01*
X0098700Y0129888D02*
X0091422Y0129888D01*
X0091461Y0128290D02*
X0098700Y0128290D01*
X0098700Y0126691D02*
X0091501Y0126691D01*
X0091540Y0125093D02*
X0098700Y0125093D01*
X0098700Y0123494D02*
X0092169Y0123494D01*
X0093282Y0121896D02*
X0095209Y0121896D01*
X0094700Y0120297D02*
X0094406Y0120297D01*
X0086603Y0048364D02*
X0077850Y0048364D01*
X0077850Y0046766D02*
X0085862Y0046766D01*
X0061342Y0027584D02*
X0042258Y0027584D01*
X0043856Y0025985D02*
X0059744Y0025985D01*
X0058936Y0024387D02*
X0044664Y0024387D01*
X0045327Y0022788D02*
X0058273Y0022788D01*
X0058048Y0021190D02*
X0045552Y0021190D01*
X0045552Y0019591D02*
X0058048Y0019591D01*
X0058244Y0017993D02*
X0045356Y0017993D01*
X0044694Y0016394D02*
X0058906Y0016394D01*
X0059672Y0014796D02*
X0043928Y0014796D01*
X0042330Y0013197D02*
X0061270Y0013197D01*
X0051865Y0029182D02*
X0039564Y0029182D01*
X0038238Y0030781D02*
X0046512Y0030781D01*
X0045036Y0032379D02*
X0041310Y0032379D01*
X0042908Y0033978D02*
X0044572Y0033978D01*
X0044572Y0035576D02*
X0043675Y0035576D01*
X0044338Y0037175D02*
X0044572Y0037175D01*
X0044572Y0038773D02*
X0044351Y0038773D01*
X0047850Y0051561D02*
X0049500Y0051561D01*
X0049500Y0053160D02*
X0047850Y0053160D01*
X0047850Y0054758D02*
X0049500Y0054758D01*
X0049500Y0056357D02*
X0047850Y0056357D01*
X0047850Y0057955D02*
X0049500Y0057955D01*
X0049500Y0059554D02*
X0047850Y0059554D01*
X0047850Y0061152D02*
X0049700Y0061152D01*
X0051298Y0062751D02*
X0047850Y0062751D01*
X0047850Y0064349D02*
X0052897Y0064349D01*
X0054495Y0065948D02*
X0047850Y0065948D01*
X0047850Y0067546D02*
X0056094Y0067546D01*
X0057692Y0069145D02*
X0047850Y0069145D01*
X0047850Y0070743D02*
X0059291Y0070743D01*
X0030053Y0059554D02*
X0021482Y0059554D01*
X0023080Y0061152D02*
X0027587Y0061152D01*
X0026562Y0062751D02*
X0024679Y0062751D01*
X0008793Y0059554D02*
X0004900Y0059554D01*
X0011100Y0024387D02*
X0011500Y0024387D01*
X0011500Y0022788D02*
X0011100Y0022788D01*
X0011100Y0021190D02*
X0011500Y0021190D01*
X0004900Y0017993D02*
X0026748Y0017993D01*
X0027410Y0016394D02*
X0004900Y0016394D01*
X0004900Y0014796D02*
X0028176Y0014796D01*
X0029774Y0013197D02*
X0004900Y0013197D01*
X0004900Y0099517D02*
X0008756Y0099517D01*
X0018000Y0115502D02*
X0019049Y0115502D01*
X0017600Y0117100D02*
X0020648Y0117100D01*
X0022246Y0118699D02*
X0016662Y0118699D01*
X0014406Y0120297D02*
X0023845Y0120297D01*
X0004997Y0171450D02*
X0004900Y0171450D01*
X0004900Y0173048D02*
X0006100Y0173048D01*
X0006100Y0174647D02*
X0004900Y0174647D01*
X0004900Y0176245D02*
X0006100Y0176245D01*
X0006100Y0177844D02*
X0004900Y0177844D01*
X0004900Y0179442D02*
X0006100Y0179442D01*
X0004900Y0181041D02*
X0007698Y0181041D01*
X0006100Y0182639D02*
X0004900Y0182639D01*
X0004900Y0184238D02*
X0006100Y0184238D01*
X0006100Y0185836D02*
X0004900Y0185836D01*
X0004900Y0187435D02*
X0006174Y0187435D01*
X0004900Y0189033D02*
X0007772Y0189033D01*
X0009371Y0190632D02*
X0004900Y0190632D01*
X0004900Y0192230D02*
X0018903Y0192230D01*
X0017304Y0190632D02*
X0014229Y0190632D01*
M02*
