G75*
%MOIN*%
%OFA0B0*%
%FSLAX25Y25*%
%IPPOS*%
%LPD*%
%AMOC8*
5,1,8,0,0,1.08239X$1,22.5*
%
%ADD10R,0.05000X0.02000*%
%ADD11R,0.02000X0.05000*%
%ADD12R,0.05512X0.01181*%
%ADD13C,0.00012*%
D10*
X0034900Y0098976D03*
X0034900Y0102126D03*
X0034900Y0105276D03*
X0034900Y0108425D03*
X0034900Y0111575D03*
X0034900Y0114724D03*
X0034900Y0117874D03*
X0034900Y0121024D03*
X0068700Y0121024D03*
X0068700Y0117874D03*
X0068700Y0114724D03*
X0068700Y0111575D03*
X0068700Y0108425D03*
X0068700Y0105276D03*
X0068700Y0102126D03*
X0068700Y0098976D03*
D11*
X0040776Y0093100D03*
X0043926Y0093100D03*
X0047076Y0093100D03*
X0050225Y0093100D03*
X0053375Y0093100D03*
X0056524Y0093100D03*
X0059674Y0093100D03*
X0062824Y0093100D03*
X0062824Y0126900D03*
X0059674Y0126900D03*
X0056524Y0126900D03*
X0053375Y0126900D03*
X0050225Y0126900D03*
X0047076Y0126900D03*
X0043926Y0126900D03*
X0040776Y0126900D03*
D12*
X0024839Y0194263D03*
X0024839Y0196231D03*
X0024839Y0198200D03*
X0024839Y0200169D03*
X0024839Y0202137D03*
X0042161Y0202137D03*
X0042161Y0200169D03*
X0042161Y0198200D03*
X0042161Y0196231D03*
D13*
X0044911Y0193679D02*
X0039411Y0193679D01*
X0039411Y0194847D01*
X0044911Y0194847D01*
X0044911Y0193679D01*
X0044911Y0193690D02*
X0039411Y0193690D01*
X0039411Y0193701D02*
X0044911Y0193701D01*
X0044911Y0193712D02*
X0039411Y0193712D01*
X0039411Y0193723D02*
X0044911Y0193723D01*
X0044911Y0193734D02*
X0039411Y0193734D01*
X0039411Y0193745D02*
X0044911Y0193745D01*
X0044911Y0193756D02*
X0039411Y0193756D01*
X0039411Y0193767D02*
X0044911Y0193767D01*
X0044911Y0193778D02*
X0039411Y0193778D01*
X0039411Y0193789D02*
X0044911Y0193789D01*
X0044911Y0193800D02*
X0039411Y0193800D01*
X0039411Y0193811D02*
X0044911Y0193811D01*
X0044911Y0193822D02*
X0039411Y0193822D01*
X0039411Y0193833D02*
X0044911Y0193833D01*
X0044911Y0193844D02*
X0039411Y0193844D01*
X0039411Y0193855D02*
X0044911Y0193855D01*
X0044911Y0193866D02*
X0039411Y0193866D01*
X0039411Y0193877D02*
X0044911Y0193877D01*
X0044911Y0193888D02*
X0039411Y0193888D01*
X0039411Y0193899D02*
X0044911Y0193899D01*
X0044911Y0193910D02*
X0039411Y0193910D01*
X0039411Y0193921D02*
X0044911Y0193921D01*
X0044911Y0193932D02*
X0039411Y0193932D01*
X0039411Y0193943D02*
X0044911Y0193943D01*
X0044911Y0193954D02*
X0039411Y0193954D01*
X0039411Y0193965D02*
X0044911Y0193965D01*
X0044911Y0193976D02*
X0039411Y0193976D01*
X0039411Y0193987D02*
X0044911Y0193987D01*
X0044911Y0193998D02*
X0039411Y0193998D01*
X0039411Y0194009D02*
X0044911Y0194009D01*
X0044911Y0194020D02*
X0039411Y0194020D01*
X0039411Y0194031D02*
X0044911Y0194031D01*
X0044911Y0194042D02*
X0039411Y0194042D01*
X0039411Y0194053D02*
X0044911Y0194053D01*
X0044911Y0194064D02*
X0039411Y0194064D01*
X0039411Y0194075D02*
X0044911Y0194075D01*
X0044911Y0194086D02*
X0039411Y0194086D01*
X0039411Y0194097D02*
X0044911Y0194097D01*
X0044911Y0194108D02*
X0039411Y0194108D01*
X0039411Y0194119D02*
X0044911Y0194119D01*
X0044911Y0194130D02*
X0039411Y0194130D01*
X0039411Y0194141D02*
X0044911Y0194141D01*
X0044911Y0194152D02*
X0039411Y0194152D01*
X0039411Y0194163D02*
X0044911Y0194163D01*
X0044911Y0194174D02*
X0039411Y0194174D01*
X0039411Y0194185D02*
X0044911Y0194185D01*
X0044911Y0194196D02*
X0039411Y0194196D01*
X0039411Y0194207D02*
X0044911Y0194207D01*
X0044911Y0194218D02*
X0039411Y0194218D01*
X0039411Y0194229D02*
X0044911Y0194229D01*
X0044911Y0194240D02*
X0039411Y0194240D01*
X0039411Y0194251D02*
X0044911Y0194251D01*
X0044911Y0194262D02*
X0039411Y0194262D01*
X0039411Y0194273D02*
X0044911Y0194273D01*
X0044911Y0194284D02*
X0039411Y0194284D01*
X0039411Y0194295D02*
X0044911Y0194295D01*
X0044911Y0194306D02*
X0039411Y0194306D01*
X0039411Y0194317D02*
X0044911Y0194317D01*
X0044911Y0194328D02*
X0039411Y0194328D01*
X0039411Y0194339D02*
X0044911Y0194339D01*
X0044911Y0194350D02*
X0039411Y0194350D01*
X0039411Y0194361D02*
X0044911Y0194361D01*
X0044911Y0194372D02*
X0039411Y0194372D01*
X0039411Y0194383D02*
X0044911Y0194383D01*
X0044911Y0194394D02*
X0039411Y0194394D01*
X0039411Y0194405D02*
X0044911Y0194405D01*
X0044911Y0194416D02*
X0039411Y0194416D01*
X0039411Y0194427D02*
X0044911Y0194427D01*
X0044911Y0194438D02*
X0039411Y0194438D01*
X0039411Y0194449D02*
X0044911Y0194449D01*
X0044911Y0194460D02*
X0039411Y0194460D01*
X0039411Y0194471D02*
X0044911Y0194471D01*
X0044911Y0194482D02*
X0039411Y0194482D01*
X0039411Y0194493D02*
X0044911Y0194493D01*
X0044911Y0194504D02*
X0039411Y0194504D01*
X0039411Y0194515D02*
X0044911Y0194515D01*
X0044911Y0194526D02*
X0039411Y0194526D01*
X0039411Y0194537D02*
X0044911Y0194537D01*
X0044911Y0194548D02*
X0039411Y0194548D01*
X0039411Y0194559D02*
X0044911Y0194559D01*
X0044911Y0194570D02*
X0039411Y0194570D01*
X0039411Y0194581D02*
X0044911Y0194581D01*
X0044911Y0194592D02*
X0039411Y0194592D01*
X0039411Y0194603D02*
X0044911Y0194603D01*
X0044911Y0194614D02*
X0039411Y0194614D01*
X0039411Y0194625D02*
X0044911Y0194625D01*
X0044911Y0194636D02*
X0039411Y0194636D01*
X0039411Y0194647D02*
X0044911Y0194647D01*
X0044911Y0194658D02*
X0039411Y0194658D01*
X0039411Y0194669D02*
X0044911Y0194669D01*
X0044911Y0194680D02*
X0039411Y0194680D01*
X0039411Y0194691D02*
X0044911Y0194691D01*
X0044911Y0194702D02*
X0039411Y0194702D01*
X0039411Y0194713D02*
X0044911Y0194713D01*
X0044911Y0194724D02*
X0039411Y0194724D01*
X0039411Y0194735D02*
X0044911Y0194735D01*
X0044911Y0194746D02*
X0039411Y0194746D01*
X0039411Y0194757D02*
X0044911Y0194757D01*
X0044911Y0194768D02*
X0039411Y0194768D01*
X0039411Y0194779D02*
X0044911Y0194779D01*
X0044911Y0194790D02*
X0039411Y0194790D01*
X0039411Y0194801D02*
X0044911Y0194801D01*
X0044911Y0194812D02*
X0039411Y0194812D01*
X0039411Y0194823D02*
X0044911Y0194823D01*
X0044911Y0194834D02*
X0039411Y0194834D01*
X0039411Y0194845D02*
X0044911Y0194845D01*
M02*
