G75*
%MOIN*%
%OFA0B0*%
%FSLAX25Y25*%
%IPPOS*%
%LPD*%
%AMOC8*
5,1,8,0,0,1.08239X$1,22.5*
%
%ADD10C,0.00300*%
%ADD11C,0.00400*%
%ADD12C,0.00500*%
%ADD13C,0.00200*%
%ADD14C,0.00600*%
%ADD15C,0.00100*%
%ADD16C,0.00800*%
%ADD17R,0.03000X0.01500*%
%ADD18R,0.01500X0.03000*%
%ADD19C,0.01500*%
%ADD20C,0.01600*%
%ADD21C,0.02200*%
%ADD22C,0.01000*%
%ADD23R,0.00984X0.00984*%
D10*
X0019218Y0089350D02*
X0020452Y0089350D01*
X0021069Y0089967D01*
X0021069Y0091202D01*
X0019835Y0091202D01*
X0021069Y0092436D02*
X0020452Y0093053D01*
X0019218Y0093053D01*
X0018601Y0092436D01*
X0018601Y0089967D01*
X0019218Y0089350D01*
X0022284Y0089350D02*
X0022284Y0093053D01*
X0024752Y0089350D01*
X0024752Y0093053D01*
X0025967Y0093053D02*
X0027818Y0093053D01*
X0028436Y0092436D01*
X0028436Y0089967D01*
X0027818Y0089350D01*
X0025967Y0089350D01*
X0025967Y0093053D01*
X0061793Y0113950D02*
X0062760Y0113950D01*
X0062276Y0113950D02*
X0062276Y0116852D01*
X0061793Y0116852D02*
X0062760Y0116852D01*
X0063757Y0116369D02*
X0063757Y0114434D01*
X0064241Y0113950D01*
X0065208Y0113950D01*
X0065692Y0114434D01*
X0066703Y0113950D02*
X0068638Y0113950D01*
X0067671Y0113950D02*
X0067671Y0116852D01*
X0066703Y0115885D01*
X0065692Y0116369D02*
X0065208Y0116852D01*
X0064241Y0116852D01*
X0063757Y0116369D01*
X0086337Y0176670D02*
X0088806Y0176670D01*
X0087571Y0176670D02*
X0087571Y0180374D01*
X0086337Y0179139D01*
X0106248Y0126138D02*
X0106731Y0125171D01*
X0107699Y0124203D01*
X0107699Y0125655D01*
X0108183Y0126138D01*
X0108666Y0126138D01*
X0109150Y0125655D01*
X0109150Y0124687D01*
X0108666Y0124203D01*
X0107699Y0124203D01*
X0108666Y0123192D02*
X0106248Y0123192D01*
X0106248Y0121257D02*
X0108666Y0121257D01*
X0109150Y0121741D01*
X0109150Y0122708D01*
X0108666Y0123192D01*
X0017940Y0177288D02*
X0017322Y0176670D01*
X0016088Y0176670D01*
X0015471Y0177288D01*
X0015471Y0177905D01*
X0016088Y0178522D01*
X0017322Y0178522D01*
X0017940Y0177905D01*
X0017940Y0177288D01*
X0017322Y0178522D02*
X0017940Y0179139D01*
X0017940Y0179756D01*
X0017322Y0180374D01*
X0016088Y0180374D01*
X0015471Y0179756D01*
X0015471Y0179139D01*
X0016088Y0178522D01*
X0014256Y0176670D02*
X0011788Y0176670D01*
X0013022Y0176670D02*
X0013022Y0180374D01*
X0011788Y0179139D01*
D11*
X0007098Y0009251D02*
X0005897Y0008050D01*
X0009500Y0008050D01*
X0009500Y0010452D02*
X0005897Y0010452D01*
X0007098Y0009251D01*
X0008899Y0011733D02*
X0008299Y0012333D01*
X0008299Y0014135D01*
X0007698Y0014135D02*
X0009500Y0014135D01*
X0009500Y0012333D01*
X0008899Y0011733D01*
X0007098Y0012333D02*
X0007098Y0013534D01*
X0007698Y0014135D01*
X0007098Y0015416D02*
X0007098Y0016617D01*
X0006497Y0016017D02*
X0008899Y0016017D01*
X0009500Y0016617D01*
X0008899Y0018472D02*
X0009500Y0019073D01*
X0008899Y0018472D02*
X0006497Y0018472D01*
X0007098Y0017872D02*
X0007098Y0019073D01*
X0007698Y0020327D02*
X0007098Y0020927D01*
X0007098Y0022128D01*
X0007698Y0022729D01*
X0009500Y0022729D01*
X0008899Y0024010D02*
X0007698Y0024010D01*
X0007098Y0024611D01*
X0007098Y0025812D01*
X0007698Y0026412D01*
X0008299Y0026412D01*
X0008299Y0024010D01*
X0008899Y0024010D02*
X0009500Y0024611D01*
X0009500Y0025812D01*
X0008899Y0027693D02*
X0009500Y0028294D01*
X0008899Y0028894D01*
X0009500Y0029495D01*
X0008899Y0030095D01*
X0007098Y0030095D01*
X0007098Y0027693D02*
X0008899Y0027693D01*
X0009500Y0020327D02*
X0005897Y0020327D01*
X0006497Y0035060D02*
X0008899Y0035060D01*
X0009500Y0035660D01*
X0009500Y0036861D01*
X0008899Y0037462D01*
X0008899Y0038743D02*
X0008299Y0039343D01*
X0008299Y0041145D01*
X0007698Y0041145D02*
X0009500Y0041145D01*
X0009500Y0039343D01*
X0008899Y0038743D01*
X0007098Y0039343D02*
X0007098Y0040544D01*
X0007698Y0041145D01*
X0007098Y0042426D02*
X0009500Y0042426D01*
X0008299Y0042426D02*
X0007098Y0043627D01*
X0007098Y0044227D01*
X0005897Y0045495D02*
X0005897Y0046096D01*
X0009500Y0046096D01*
X0009500Y0046696D02*
X0009500Y0045495D01*
X0009500Y0047951D02*
X0009500Y0049752D01*
X0008899Y0050353D01*
X0008299Y0049752D01*
X0008299Y0048551D01*
X0007698Y0047951D01*
X0007098Y0048551D01*
X0007098Y0050353D01*
X0007698Y0051634D02*
X0008899Y0051634D01*
X0009500Y0052234D01*
X0009500Y0053435D01*
X0008899Y0054036D01*
X0007698Y0054036D01*
X0007098Y0053435D01*
X0007098Y0052234D01*
X0007698Y0051634D01*
X0007098Y0055317D02*
X0007098Y0057118D01*
X0007698Y0057719D01*
X0009500Y0057719D01*
X0009500Y0055317D02*
X0007098Y0055317D01*
X0006497Y0037462D02*
X0005897Y0036861D01*
X0005897Y0035660D01*
X0006497Y0035060D01*
X0044059Y0065381D02*
X0046861Y0065381D01*
X0046861Y0067249D01*
X0046861Y0068327D02*
X0046861Y0070196D01*
X0046861Y0069262D02*
X0044059Y0069262D01*
X0044993Y0068327D01*
X0070900Y0078904D02*
X0073969Y0078904D01*
X0072435Y0078904D02*
X0072435Y0074300D01*
X0075504Y0074300D02*
X0078573Y0074300D01*
X0077039Y0074300D02*
X0077039Y0078904D01*
X0075504Y0077369D01*
X0091933Y0068911D02*
X0096537Y0068911D01*
X0096537Y0067376D02*
X0096537Y0070446D01*
X0093468Y0067376D02*
X0091933Y0068911D01*
X0091933Y0065842D02*
X0096537Y0065842D01*
X0091933Y0062772D01*
X0096537Y0062772D01*
X0095770Y0061238D02*
X0096537Y0060470D01*
X0096537Y0058936D01*
X0095770Y0058169D01*
X0092700Y0058169D01*
X0091933Y0058936D01*
X0091933Y0060470D01*
X0092700Y0061238D01*
X0101877Y0183958D02*
X0101877Y0187028D01*
X0101877Y0188562D02*
X0101877Y0191631D01*
X0101877Y0193166D02*
X0101877Y0196235D01*
X0101877Y0194701D02*
X0106481Y0194701D01*
X0106481Y0197770D02*
X0106481Y0200839D01*
X0106481Y0199305D02*
X0101877Y0199305D01*
X0103412Y0197770D01*
X0104179Y0190097D02*
X0104179Y0188562D01*
X0106481Y0188562D02*
X0101877Y0188562D01*
X0101877Y0185493D02*
X0106481Y0185493D01*
D12*
X0104950Y0184856D02*
X0104950Y0181854D01*
X0104950Y0183355D02*
X0100446Y0183355D01*
X0101947Y0181854D01*
X0100446Y0180253D02*
X0100446Y0178751D01*
X0100446Y0179502D02*
X0104199Y0179502D01*
X0104950Y0178751D01*
X0104950Y0178001D01*
X0104199Y0177250D01*
X0108550Y0172001D02*
X0109301Y0171250D01*
X0110051Y0171250D01*
X0110802Y0172001D01*
X0110802Y0175754D01*
X0110051Y0175754D02*
X0111553Y0175754D01*
X0113154Y0173502D02*
X0116156Y0173502D01*
X0115406Y0171250D02*
X0115406Y0175754D01*
X0113154Y0173502D01*
X0097744Y0188394D02*
X0097744Y0206111D01*
X0099319Y0206111D01*
X0099319Y0210048D01*
X0005618Y0210048D01*
X0005618Y0206111D01*
X0007193Y0206111D01*
X0007193Y0188394D01*
X0008672Y0188394D01*
X0009507Y0188740D02*
X0011130Y0190363D01*
X0011130Y0188394D01*
X0009507Y0188741D02*
X0009459Y0188695D01*
X0009408Y0188653D01*
X0009355Y0188613D01*
X0009300Y0188576D01*
X0009243Y0188542D01*
X0009184Y0188512D01*
X0009124Y0188485D01*
X0009062Y0188461D01*
X0008999Y0188441D01*
X0008935Y0188425D01*
X0008870Y0188412D01*
X0008804Y0188402D01*
X0008738Y0188397D01*
X0008672Y0188395D01*
X0021197Y0165749D02*
X0020446Y0164998D01*
X0020446Y0163497D01*
X0021197Y0162746D01*
X0020446Y0161145D02*
X0020446Y0159643D01*
X0020446Y0160394D02*
X0024199Y0160394D01*
X0024950Y0159643D01*
X0024950Y0158893D01*
X0024199Y0158142D01*
X0024950Y0162746D02*
X0021947Y0165749D01*
X0021197Y0165749D01*
X0024950Y0165749D02*
X0024950Y0162746D01*
X0064063Y0169339D02*
X0064063Y0174261D01*
X0071937Y0174261D01*
X0071937Y0169339D01*
X0064063Y0169339D01*
X0093807Y0188394D02*
X0093807Y0190363D01*
X0095430Y0188740D01*
X0096265Y0188394D02*
X0097744Y0188394D01*
X0096265Y0188395D02*
X0096199Y0188397D01*
X0096133Y0188402D01*
X0096067Y0188412D01*
X0096002Y0188425D01*
X0095938Y0188441D01*
X0095875Y0188461D01*
X0095813Y0188485D01*
X0095753Y0188512D01*
X0095694Y0188542D01*
X0095637Y0188576D01*
X0095582Y0188613D01*
X0095529Y0188653D01*
X0095478Y0188695D01*
X0095430Y0188741D01*
X0115600Y0151800D02*
X0115460Y0151798D01*
X0115320Y0151792D01*
X0115180Y0151782D01*
X0115040Y0151769D01*
X0114901Y0151751D01*
X0114762Y0151729D01*
X0114625Y0151704D01*
X0114487Y0151675D01*
X0114351Y0151642D01*
X0114216Y0151605D01*
X0114082Y0151564D01*
X0113949Y0151519D01*
X0113817Y0151471D01*
X0113687Y0151419D01*
X0113558Y0151364D01*
X0113431Y0151305D01*
X0113305Y0151242D01*
X0113181Y0151176D01*
X0113060Y0151107D01*
X0112940Y0151034D01*
X0112822Y0150957D01*
X0112707Y0150878D01*
X0112593Y0150795D01*
X0112483Y0150709D01*
X0112374Y0150620D01*
X0112268Y0150528D01*
X0112165Y0150433D01*
X0112064Y0150336D01*
X0111967Y0150235D01*
X0111872Y0150132D01*
X0111780Y0150026D01*
X0111691Y0149917D01*
X0111605Y0149807D01*
X0111522Y0149693D01*
X0111443Y0149578D01*
X0111366Y0149460D01*
X0111293Y0149340D01*
X0111224Y0149219D01*
X0111158Y0149095D01*
X0111095Y0148969D01*
X0111036Y0148842D01*
X0110981Y0148713D01*
X0110929Y0148583D01*
X0110881Y0148451D01*
X0110836Y0148318D01*
X0110795Y0148184D01*
X0110758Y0148049D01*
X0110725Y0147913D01*
X0110696Y0147775D01*
X0110671Y0147638D01*
X0110649Y0147499D01*
X0110631Y0147360D01*
X0110618Y0147220D01*
X0110608Y0147080D01*
X0110602Y0146940D01*
X0110600Y0146800D01*
X0125600Y0151800D02*
X0125740Y0151798D01*
X0125880Y0151792D01*
X0126020Y0151782D01*
X0126160Y0151769D01*
X0126299Y0151751D01*
X0126438Y0151729D01*
X0126575Y0151704D01*
X0126713Y0151675D01*
X0126849Y0151642D01*
X0126984Y0151605D01*
X0127118Y0151564D01*
X0127251Y0151519D01*
X0127383Y0151471D01*
X0127513Y0151419D01*
X0127642Y0151364D01*
X0127769Y0151305D01*
X0127895Y0151242D01*
X0128019Y0151176D01*
X0128140Y0151107D01*
X0128260Y0151034D01*
X0128378Y0150957D01*
X0128493Y0150878D01*
X0128607Y0150795D01*
X0128717Y0150709D01*
X0128826Y0150620D01*
X0128932Y0150528D01*
X0129035Y0150433D01*
X0129136Y0150336D01*
X0129233Y0150235D01*
X0129328Y0150132D01*
X0129420Y0150026D01*
X0129509Y0149917D01*
X0129595Y0149807D01*
X0129678Y0149693D01*
X0129757Y0149578D01*
X0129834Y0149460D01*
X0129907Y0149340D01*
X0129976Y0149219D01*
X0130042Y0149095D01*
X0130105Y0148969D01*
X0130164Y0148842D01*
X0130219Y0148713D01*
X0130271Y0148583D01*
X0130319Y0148451D01*
X0130364Y0148318D01*
X0130405Y0148184D01*
X0130442Y0148049D01*
X0130475Y0147913D01*
X0130504Y0147775D01*
X0130529Y0147638D01*
X0130551Y0147499D01*
X0130569Y0147360D01*
X0130582Y0147220D01*
X0130592Y0147080D01*
X0130598Y0146940D01*
X0130600Y0146800D01*
X0130600Y0106800D02*
X0130598Y0106660D01*
X0130592Y0106520D01*
X0130582Y0106380D01*
X0130569Y0106240D01*
X0130551Y0106101D01*
X0130529Y0105962D01*
X0130504Y0105825D01*
X0130475Y0105687D01*
X0130442Y0105551D01*
X0130405Y0105416D01*
X0130364Y0105282D01*
X0130319Y0105149D01*
X0130271Y0105017D01*
X0130219Y0104887D01*
X0130164Y0104758D01*
X0130105Y0104631D01*
X0130042Y0104505D01*
X0129976Y0104381D01*
X0129907Y0104260D01*
X0129834Y0104140D01*
X0129757Y0104022D01*
X0129678Y0103907D01*
X0129595Y0103793D01*
X0129509Y0103683D01*
X0129420Y0103574D01*
X0129328Y0103468D01*
X0129233Y0103365D01*
X0129136Y0103264D01*
X0129035Y0103167D01*
X0128932Y0103072D01*
X0128826Y0102980D01*
X0128717Y0102891D01*
X0128607Y0102805D01*
X0128493Y0102722D01*
X0128378Y0102643D01*
X0128260Y0102566D01*
X0128140Y0102493D01*
X0128019Y0102424D01*
X0127895Y0102358D01*
X0127769Y0102295D01*
X0127642Y0102236D01*
X0127513Y0102181D01*
X0127383Y0102129D01*
X0127251Y0102081D01*
X0127118Y0102036D01*
X0126984Y0101995D01*
X0126849Y0101958D01*
X0126713Y0101925D01*
X0126575Y0101896D01*
X0126438Y0101871D01*
X0126299Y0101849D01*
X0126160Y0101831D01*
X0126020Y0101818D01*
X0125880Y0101808D01*
X0125740Y0101802D01*
X0125600Y0101800D01*
X0115600Y0101800D02*
X0115460Y0101802D01*
X0115320Y0101808D01*
X0115180Y0101818D01*
X0115040Y0101831D01*
X0114901Y0101849D01*
X0114762Y0101871D01*
X0114625Y0101896D01*
X0114487Y0101925D01*
X0114351Y0101958D01*
X0114216Y0101995D01*
X0114082Y0102036D01*
X0113949Y0102081D01*
X0113817Y0102129D01*
X0113687Y0102181D01*
X0113558Y0102236D01*
X0113431Y0102295D01*
X0113305Y0102358D01*
X0113181Y0102424D01*
X0113060Y0102493D01*
X0112940Y0102566D01*
X0112822Y0102643D01*
X0112707Y0102722D01*
X0112593Y0102805D01*
X0112483Y0102891D01*
X0112374Y0102980D01*
X0112268Y0103072D01*
X0112165Y0103167D01*
X0112064Y0103264D01*
X0111967Y0103365D01*
X0111872Y0103468D01*
X0111780Y0103574D01*
X0111691Y0103683D01*
X0111605Y0103793D01*
X0111522Y0103907D01*
X0111443Y0104022D01*
X0111366Y0104140D01*
X0111293Y0104260D01*
X0111224Y0104381D01*
X0111158Y0104505D01*
X0111095Y0104631D01*
X0111036Y0104758D01*
X0110981Y0104887D01*
X0110929Y0105017D01*
X0110881Y0105149D01*
X0110836Y0105282D01*
X0110795Y0105416D01*
X0110758Y0105551D01*
X0110725Y0105687D01*
X0110696Y0105825D01*
X0110671Y0105962D01*
X0110649Y0106101D01*
X0110631Y0106240D01*
X0110618Y0106380D01*
X0110608Y0106520D01*
X0110602Y0106660D01*
X0110600Y0106800D01*
X0109532Y0086354D02*
X0120162Y0086354D01*
X0135910Y0086354D02*
X0135910Y0055646D01*
X0120162Y0055646D02*
X0109532Y0055646D01*
X0099690Y0055646D02*
X0099690Y0086354D01*
X0099690Y0083598D02*
X0099690Y0079268D01*
X0099690Y0062732D02*
X0099690Y0058402D01*
X0066268Y0059912D02*
X0066268Y0062668D01*
X0063512Y0062668D01*
X0066268Y0048888D02*
X0066268Y0046132D01*
X0063512Y0046132D01*
X0052488Y0046132D02*
X0049732Y0046132D01*
X0049732Y0048888D01*
X0043074Y0053357D02*
X0027326Y0053357D01*
X0027326Y0073043D01*
X0043074Y0073043D01*
X0043074Y0053357D01*
X0049732Y0059912D02*
X0049732Y0062668D01*
X0052488Y0062668D01*
X0048000Y0097100D02*
X0040000Y0097100D01*
X0018000Y0071500D02*
X0010000Y0071500D01*
X0014131Y0009553D02*
X0013547Y0008969D01*
X0013547Y0006634D01*
X0014131Y0006050D01*
X0015299Y0006050D01*
X0015883Y0006634D01*
X0017230Y0006634D02*
X0017814Y0006050D01*
X0018982Y0006050D01*
X0019566Y0006634D01*
X0019566Y0007801D01*
X0018982Y0008385D01*
X0017814Y0008385D01*
X0017230Y0007801D01*
X0017230Y0006634D01*
X0015883Y0008969D02*
X0015299Y0009553D01*
X0014131Y0009553D01*
X0020914Y0008385D02*
X0020914Y0004882D01*
X0020914Y0006050D02*
X0022665Y0006050D01*
X0023249Y0006634D01*
X0023249Y0007801D01*
X0022665Y0008385D01*
X0020914Y0008385D01*
X0024597Y0008385D02*
X0024597Y0006050D01*
X0024597Y0007218D02*
X0025764Y0008385D01*
X0026348Y0008385D01*
X0027666Y0007801D02*
X0027666Y0006634D01*
X0028250Y0006050D01*
X0029418Y0006050D01*
X0030001Y0006634D01*
X0030001Y0007801D01*
X0029418Y0008385D01*
X0028250Y0008385D01*
X0027666Y0007801D01*
X0031349Y0007801D02*
X0031349Y0006634D01*
X0031933Y0006050D01*
X0033685Y0006050D01*
X0035032Y0006634D02*
X0035032Y0007801D01*
X0035616Y0008385D01*
X0036784Y0008385D01*
X0037368Y0007801D01*
X0037368Y0007218D01*
X0035032Y0007218D01*
X0035032Y0006634D02*
X0035616Y0006050D01*
X0036784Y0006050D01*
X0038716Y0006050D02*
X0040467Y0006050D01*
X0041051Y0006634D01*
X0040467Y0007218D01*
X0039299Y0007218D01*
X0038716Y0007801D01*
X0039299Y0008385D01*
X0041051Y0008385D01*
X0042399Y0007801D02*
X0042982Y0008385D01*
X0044734Y0008385D01*
X0044150Y0007218D02*
X0042982Y0007218D01*
X0042399Y0007801D01*
X0042399Y0006050D02*
X0044150Y0006050D01*
X0044734Y0006634D01*
X0044150Y0007218D01*
X0046082Y0007801D02*
X0046082Y0006634D01*
X0046666Y0006050D01*
X0047833Y0006050D01*
X0048417Y0006634D01*
X0048417Y0007801D01*
X0047833Y0008385D01*
X0046666Y0008385D01*
X0046082Y0007801D01*
X0049765Y0007218D02*
X0050933Y0008385D01*
X0051516Y0008385D01*
X0049765Y0008385D02*
X0049765Y0006050D01*
X0056517Y0006634D02*
X0057101Y0006050D01*
X0058853Y0006050D01*
X0058853Y0009553D01*
X0058853Y0008385D02*
X0057101Y0008385D01*
X0056517Y0007801D01*
X0056517Y0006634D01*
X0060201Y0006634D02*
X0060201Y0007801D01*
X0060784Y0008385D01*
X0061952Y0008385D01*
X0062536Y0007801D01*
X0062536Y0007218D01*
X0060201Y0007218D01*
X0060201Y0006634D02*
X0060784Y0006050D01*
X0061952Y0006050D01*
X0063884Y0006050D02*
X0063884Y0008385D01*
X0064467Y0008385D01*
X0065051Y0007801D01*
X0065635Y0008385D01*
X0066219Y0007801D01*
X0066219Y0006050D01*
X0065051Y0006050D02*
X0065051Y0007801D01*
X0067567Y0007801D02*
X0067567Y0006634D01*
X0068151Y0006050D01*
X0069318Y0006050D01*
X0069902Y0006634D01*
X0069902Y0007801D01*
X0069318Y0008385D01*
X0068151Y0008385D01*
X0067567Y0007801D01*
X0033685Y0008385D02*
X0031933Y0008385D01*
X0031349Y0007801D01*
D13*
X0024421Y0097500D02*
X0024788Y0097867D01*
X0024421Y0097500D02*
X0023687Y0097500D01*
X0023320Y0097867D01*
X0023320Y0099335D01*
X0023687Y0099702D01*
X0024421Y0099702D01*
X0024788Y0099335D01*
X0022578Y0099335D02*
X0022211Y0099702D01*
X0021477Y0099702D01*
X0021110Y0099335D01*
X0021110Y0097867D01*
X0021477Y0097500D01*
X0022211Y0097500D01*
X0022578Y0097867D01*
X0020368Y0098234D02*
X0020368Y0099702D01*
X0018900Y0099702D02*
X0018900Y0098234D01*
X0019634Y0097500D01*
X0020368Y0098234D01*
X0020368Y0105300D02*
X0019634Y0106034D01*
X0020001Y0106034D02*
X0018900Y0106034D01*
X0018900Y0105300D02*
X0018900Y0107502D01*
X0020001Y0107502D01*
X0020368Y0107135D01*
X0020368Y0106401D01*
X0020001Y0106034D01*
X0021110Y0106034D02*
X0022578Y0106034D01*
X0022578Y0106401D01*
X0022211Y0106768D01*
X0021477Y0106768D01*
X0021110Y0106401D01*
X0021110Y0105667D01*
X0021477Y0105300D01*
X0022211Y0105300D01*
X0023320Y0105300D02*
X0024421Y0105300D01*
X0024788Y0105667D01*
X0024421Y0106034D01*
X0023687Y0106034D01*
X0023320Y0106401D01*
X0023687Y0106768D01*
X0024788Y0106768D01*
X0025530Y0106401D02*
X0025897Y0106768D01*
X0026631Y0106768D01*
X0026998Y0106401D01*
X0026998Y0106034D01*
X0025530Y0106034D01*
X0025530Y0105667D02*
X0025530Y0106401D01*
X0025530Y0105667D02*
X0025897Y0105300D01*
X0026631Y0105300D01*
X0028106Y0105667D02*
X0028106Y0107135D01*
X0027740Y0106768D02*
X0028473Y0106768D01*
X0028106Y0105667D02*
X0028473Y0105300D01*
D14*
X0028138Y0100481D02*
X0028138Y0098119D01*
X0032862Y0098119D02*
X0032862Y0100481D01*
X0044801Y0123201D02*
X0071002Y0123201D01*
X0072399Y0124598D01*
X0072399Y0150799D01*
X0044801Y0150799D01*
X0044801Y0123201D01*
X0066819Y0111162D02*
X0069181Y0111162D01*
X0069181Y0106438D02*
X0066819Y0106438D01*
X0067986Y0126200D02*
X0067988Y0126275D01*
X0067994Y0126349D01*
X0068004Y0126423D01*
X0068017Y0126496D01*
X0068035Y0126569D01*
X0068056Y0126640D01*
X0068081Y0126711D01*
X0068110Y0126780D01*
X0068143Y0126847D01*
X0068179Y0126912D01*
X0068218Y0126976D01*
X0068260Y0127037D01*
X0068306Y0127096D01*
X0068355Y0127153D01*
X0068407Y0127206D01*
X0068461Y0127257D01*
X0068518Y0127306D01*
X0068578Y0127350D01*
X0068640Y0127392D01*
X0068704Y0127431D01*
X0068770Y0127466D01*
X0068837Y0127497D01*
X0068907Y0127525D01*
X0068977Y0127549D01*
X0069049Y0127570D01*
X0069122Y0127586D01*
X0069195Y0127599D01*
X0069270Y0127608D01*
X0069344Y0127613D01*
X0069419Y0127614D01*
X0069493Y0127611D01*
X0069568Y0127604D01*
X0069641Y0127593D01*
X0069715Y0127579D01*
X0069787Y0127560D01*
X0069858Y0127538D01*
X0069928Y0127512D01*
X0069997Y0127482D01*
X0070063Y0127449D01*
X0070128Y0127412D01*
X0070191Y0127372D01*
X0070252Y0127328D01*
X0070310Y0127282D01*
X0070366Y0127232D01*
X0070419Y0127180D01*
X0070470Y0127125D01*
X0070517Y0127067D01*
X0070561Y0127007D01*
X0070602Y0126944D01*
X0070640Y0126880D01*
X0070674Y0126814D01*
X0070705Y0126745D01*
X0070732Y0126676D01*
X0070755Y0126605D01*
X0070774Y0126533D01*
X0070790Y0126460D01*
X0070802Y0126386D01*
X0070810Y0126312D01*
X0070814Y0126237D01*
X0070814Y0126163D01*
X0070810Y0126088D01*
X0070802Y0126014D01*
X0070790Y0125940D01*
X0070774Y0125867D01*
X0070755Y0125795D01*
X0070732Y0125724D01*
X0070705Y0125655D01*
X0070674Y0125586D01*
X0070640Y0125520D01*
X0070602Y0125456D01*
X0070561Y0125393D01*
X0070517Y0125333D01*
X0070470Y0125275D01*
X0070419Y0125220D01*
X0070366Y0125168D01*
X0070310Y0125118D01*
X0070252Y0125072D01*
X0070191Y0125028D01*
X0070128Y0124988D01*
X0070063Y0124951D01*
X0069997Y0124918D01*
X0069928Y0124888D01*
X0069858Y0124862D01*
X0069787Y0124840D01*
X0069715Y0124821D01*
X0069641Y0124807D01*
X0069568Y0124796D01*
X0069493Y0124789D01*
X0069419Y0124786D01*
X0069344Y0124787D01*
X0069270Y0124792D01*
X0069195Y0124801D01*
X0069122Y0124814D01*
X0069049Y0124830D01*
X0068977Y0124851D01*
X0068907Y0124875D01*
X0068837Y0124903D01*
X0068770Y0124934D01*
X0068704Y0124969D01*
X0068640Y0125008D01*
X0068578Y0125050D01*
X0068518Y0125094D01*
X0068461Y0125143D01*
X0068407Y0125194D01*
X0068355Y0125247D01*
X0068306Y0125304D01*
X0068260Y0125363D01*
X0068218Y0125424D01*
X0068179Y0125488D01*
X0068143Y0125553D01*
X0068110Y0125620D01*
X0068081Y0125689D01*
X0068056Y0125760D01*
X0068035Y0125831D01*
X0068017Y0125904D01*
X0068004Y0125977D01*
X0067994Y0126051D01*
X0067988Y0126125D01*
X0067986Y0126200D01*
X0088138Y0115481D02*
X0088138Y0113119D01*
X0092862Y0113119D02*
X0092862Y0115481D01*
X0096900Y0104902D02*
X0098201Y0104902D01*
X0098635Y0104469D01*
X0098635Y0102734D01*
X0098201Y0102300D01*
X0096900Y0102300D01*
X0096900Y0104902D01*
X0099847Y0104469D02*
X0100280Y0104902D01*
X0101148Y0104902D01*
X0101581Y0104469D01*
X0101581Y0104035D01*
X0099847Y0102300D01*
X0101581Y0102300D01*
X0103862Y0113619D02*
X0103862Y0115981D01*
X0099138Y0115981D02*
X0099138Y0113619D01*
X0095362Y0155619D02*
X0095362Y0157981D01*
X0090638Y0157981D02*
X0090638Y0155619D01*
X0085362Y0160619D02*
X0085362Y0162981D01*
X0080638Y0162981D02*
X0080638Y0160619D01*
X0095619Y0170238D02*
X0097981Y0170238D01*
X0097981Y0174962D02*
X0095619Y0174962D01*
X0100738Y0161381D02*
X0100738Y0159019D01*
X0105462Y0159019D02*
X0105462Y0161381D01*
X0054181Y0169438D02*
X0051819Y0169438D01*
X0051819Y0174162D02*
X0054181Y0174162D01*
X0054145Y0068649D02*
X0054145Y0066046D01*
X0053278Y0066046D02*
X0055013Y0066046D01*
X0053278Y0067781D02*
X0054145Y0068649D01*
X0052066Y0068649D02*
X0052066Y0066480D01*
X0051633Y0066046D01*
X0050765Y0066046D01*
X0050331Y0066480D01*
X0050331Y0068649D01*
X0049707Y0015202D02*
X0049707Y0013034D01*
X0050141Y0012600D01*
X0051008Y0012600D01*
X0051442Y0013034D01*
X0051442Y0015202D01*
X0052653Y0014769D02*
X0053087Y0015202D01*
X0053955Y0015202D01*
X0054388Y0014769D01*
X0054388Y0014335D01*
X0052653Y0012600D01*
X0054388Y0012600D01*
X0125448Y0024357D02*
X0125448Y0025658D01*
X0125881Y0026092D01*
X0126315Y0026092D01*
X0126749Y0025658D01*
X0126749Y0024357D01*
X0128050Y0024357D02*
X0125448Y0024357D01*
X0126749Y0025658D02*
X0127183Y0026092D01*
X0127616Y0026092D01*
X0128050Y0025658D01*
X0128050Y0024357D01*
X0128050Y0027303D02*
X0128050Y0029038D01*
X0128050Y0028171D02*
X0125448Y0028171D01*
X0126315Y0027303D01*
D15*
X0087978Y0008101D02*
X0086977Y0007100D01*
X0087227Y0006850D01*
X0087727Y0006850D01*
X0087978Y0007100D01*
X0087978Y0008101D01*
X0087727Y0008351D01*
X0087227Y0008351D01*
X0086977Y0008101D01*
X0086977Y0007100D01*
X0086504Y0006850D02*
X0085503Y0006850D01*
X0085031Y0006850D02*
X0084531Y0007350D01*
X0084781Y0007350D02*
X0084030Y0007350D01*
X0084030Y0006850D02*
X0084030Y0008351D01*
X0084781Y0008351D01*
X0085031Y0008101D01*
X0085031Y0007601D01*
X0084781Y0007350D01*
X0085503Y0007851D02*
X0086004Y0008351D01*
X0086004Y0006850D01*
X0081774Y0020850D02*
X0082024Y0021100D01*
X0082024Y0022101D01*
X0081774Y0022351D01*
X0081273Y0022351D01*
X0081023Y0022101D01*
X0081023Y0021851D01*
X0081273Y0021601D01*
X0082024Y0021601D01*
X0081774Y0020850D02*
X0081273Y0020850D01*
X0081023Y0021100D01*
X0080551Y0020850D02*
X0080050Y0021350D01*
X0080301Y0021350D02*
X0079550Y0021350D01*
X0079550Y0020850D02*
X0079550Y0022351D01*
X0080301Y0022351D01*
X0080551Y0022101D01*
X0080551Y0021601D01*
X0080301Y0021350D01*
X0080078Y0024150D02*
X0080078Y0025651D01*
X0079577Y0025151D01*
X0079077Y0025651D01*
X0079077Y0024150D01*
X0078604Y0024150D02*
X0078104Y0024650D01*
X0078354Y0024650D02*
X0077603Y0024650D01*
X0077603Y0024150D02*
X0077603Y0025651D01*
X0078354Y0025651D01*
X0078604Y0025401D01*
X0078604Y0024901D01*
X0078354Y0024650D01*
X0077131Y0024150D02*
X0076130Y0024150D01*
X0076130Y0025651D01*
X0077131Y0025651D01*
X0076631Y0024901D02*
X0076130Y0024901D01*
X0075658Y0024901D02*
X0074657Y0024901D01*
X0074657Y0025651D02*
X0074657Y0024150D01*
X0073684Y0024150D02*
X0073684Y0025651D01*
X0073184Y0025651D02*
X0074185Y0025651D01*
X0075658Y0025651D02*
X0075658Y0024150D01*
X0075551Y0039850D02*
X0075050Y0040350D01*
X0075301Y0040350D02*
X0074550Y0040350D01*
X0074550Y0039850D02*
X0074550Y0041351D01*
X0075301Y0041351D01*
X0075551Y0041101D01*
X0075551Y0040601D01*
X0075301Y0040350D01*
X0076023Y0039850D02*
X0077024Y0039850D01*
X0076524Y0039850D02*
X0076524Y0041351D01*
X0076023Y0040851D01*
X0077497Y0040601D02*
X0078247Y0040601D01*
X0078497Y0040350D01*
X0078497Y0040100D01*
X0078247Y0039850D01*
X0077747Y0039850D01*
X0077497Y0040100D01*
X0077497Y0040601D01*
X0077997Y0041101D01*
X0078497Y0041351D01*
X0079603Y0041101D02*
X0079603Y0040100D01*
X0079854Y0039850D01*
X0080354Y0039850D01*
X0080604Y0040100D01*
X0081077Y0040100D02*
X0081077Y0040350D01*
X0081327Y0040601D01*
X0081827Y0040601D01*
X0082078Y0040350D01*
X0082078Y0040100D01*
X0081827Y0039850D01*
X0081327Y0039850D01*
X0081077Y0040100D01*
X0081327Y0040601D02*
X0081077Y0040851D01*
X0081077Y0041101D01*
X0081327Y0041351D01*
X0081827Y0041351D01*
X0082078Y0041101D01*
X0082078Y0040851D01*
X0081827Y0040601D01*
X0080604Y0041101D02*
X0080354Y0041351D01*
X0079854Y0041351D01*
X0079603Y0041101D01*
X0084699Y0049350D02*
X0085700Y0049350D01*
X0085950Y0049600D01*
X0085950Y0050101D01*
X0085700Y0050351D01*
X0085700Y0050823D02*
X0085950Y0051073D01*
X0085950Y0051574D01*
X0085700Y0051824D01*
X0085199Y0051824D01*
X0084949Y0051574D01*
X0084949Y0051324D01*
X0085199Y0050823D01*
X0084449Y0050823D01*
X0084449Y0051824D01*
X0084699Y0050351D02*
X0084449Y0050101D01*
X0084449Y0049600D01*
X0084699Y0049350D01*
X0087649Y0075150D02*
X0087649Y0075901D01*
X0087899Y0076151D01*
X0088399Y0076151D01*
X0088650Y0075901D01*
X0088650Y0075150D01*
X0089150Y0075150D02*
X0087649Y0075150D01*
X0088650Y0075650D02*
X0089150Y0076151D01*
X0088399Y0076623D02*
X0088399Y0077624D01*
X0087649Y0077374D02*
X0089150Y0077374D01*
X0088399Y0076623D02*
X0087649Y0077374D01*
X0088050Y0080430D02*
X0088050Y0081181D01*
X0087799Y0081431D01*
X0087299Y0081431D01*
X0087049Y0081181D01*
X0087049Y0080430D01*
X0088550Y0080430D01*
X0088050Y0080931D02*
X0088550Y0081431D01*
X0088550Y0081903D02*
X0088550Y0082904D01*
X0088550Y0082404D02*
X0087049Y0082404D01*
X0087549Y0081903D01*
X0087299Y0083377D02*
X0087049Y0083627D01*
X0087049Y0084127D01*
X0087299Y0084378D01*
X0087549Y0084378D01*
X0087799Y0084127D01*
X0088050Y0084378D01*
X0088300Y0084378D01*
X0088550Y0084127D01*
X0088550Y0083627D01*
X0088300Y0083377D01*
X0087799Y0083877D02*
X0087799Y0084127D01*
X0088603Y0087250D02*
X0088603Y0088751D01*
X0089354Y0088751D01*
X0089604Y0088501D01*
X0089604Y0088001D01*
X0089354Y0087750D01*
X0088603Y0087750D01*
X0089104Y0087750D02*
X0089604Y0087250D01*
X0090077Y0087500D02*
X0090327Y0087250D01*
X0090827Y0087250D01*
X0091078Y0087500D01*
X0091078Y0088001D01*
X0090827Y0088251D01*
X0090577Y0088251D01*
X0090077Y0088001D01*
X0090077Y0088751D01*
X0091078Y0088751D01*
X0081774Y0104850D02*
X0082024Y0105100D01*
X0082024Y0105350D01*
X0081774Y0105601D01*
X0081023Y0105601D01*
X0081023Y0105100D01*
X0081273Y0104850D01*
X0081774Y0104850D01*
X0081023Y0105601D02*
X0081524Y0106101D01*
X0082024Y0106351D01*
X0080551Y0106101D02*
X0080301Y0106351D01*
X0079800Y0106351D01*
X0079550Y0106101D01*
X0079550Y0105100D01*
X0079800Y0104850D01*
X0080301Y0104850D01*
X0080551Y0105100D01*
X0085699Y0111350D02*
X0085699Y0112101D01*
X0085949Y0112351D01*
X0086449Y0112351D01*
X0086700Y0112101D01*
X0086700Y0111350D01*
X0087200Y0111350D02*
X0085699Y0111350D01*
X0086700Y0111850D02*
X0087200Y0112351D01*
X0086950Y0112823D02*
X0087200Y0113073D01*
X0087200Y0113574D01*
X0086950Y0113824D01*
X0086700Y0113824D01*
X0086449Y0113574D01*
X0086449Y0113324D01*
X0086449Y0113574D02*
X0086199Y0113824D01*
X0085949Y0113824D01*
X0085699Y0113574D01*
X0085699Y0113073D01*
X0085949Y0112823D01*
X0086049Y0127850D02*
X0087466Y0127850D01*
X0087750Y0128134D01*
X0087750Y0128701D01*
X0087466Y0128984D01*
X0086049Y0128984D01*
X0086049Y0129507D02*
X0086899Y0129507D01*
X0086616Y0130075D01*
X0086616Y0130358D01*
X0086899Y0130642D01*
X0087466Y0130642D01*
X0087750Y0130358D01*
X0087750Y0129791D01*
X0087466Y0129507D01*
X0086049Y0129507D02*
X0086049Y0130642D01*
X0096949Y0114324D02*
X0096699Y0114074D01*
X0096699Y0113573D01*
X0096949Y0113323D01*
X0096949Y0112851D02*
X0097449Y0112851D01*
X0097700Y0112601D01*
X0097700Y0111850D01*
X0098200Y0111850D02*
X0096699Y0111850D01*
X0096699Y0112601D01*
X0096949Y0112851D01*
X0097700Y0112350D02*
X0098200Y0112851D01*
X0098200Y0113323D02*
X0097199Y0114324D01*
X0096949Y0114324D01*
X0098200Y0114324D02*
X0098200Y0113323D01*
X0072024Y0096351D02*
X0071524Y0096101D01*
X0071023Y0095601D01*
X0071774Y0095601D01*
X0072024Y0095350D01*
X0072024Y0095100D01*
X0071774Y0094850D01*
X0071273Y0094850D01*
X0071023Y0095100D01*
X0071023Y0095601D01*
X0070551Y0095601D02*
X0070301Y0095350D01*
X0069550Y0095350D01*
X0069550Y0094850D02*
X0069550Y0096351D01*
X0070301Y0096351D01*
X0070551Y0096101D01*
X0070551Y0095601D01*
X0070050Y0095350D02*
X0070551Y0094850D01*
X0070578Y0104000D02*
X0069577Y0104000D01*
X0070578Y0105001D01*
X0070578Y0105251D01*
X0070327Y0105501D01*
X0069827Y0105501D01*
X0069577Y0105251D01*
X0069104Y0105251D02*
X0068854Y0105501D01*
X0068354Y0105501D01*
X0068103Y0105251D01*
X0068103Y0104250D01*
X0068354Y0104000D01*
X0068854Y0104000D01*
X0069104Y0104250D01*
X0054150Y0091823D02*
X0053900Y0091823D01*
X0052899Y0092824D01*
X0052649Y0092824D01*
X0052649Y0091823D01*
X0052899Y0091351D02*
X0052649Y0091101D01*
X0052649Y0090600D01*
X0052899Y0090350D01*
X0053900Y0090350D01*
X0054150Y0090600D01*
X0054150Y0091101D01*
X0053900Y0091351D01*
X0050737Y0104230D02*
X0050987Y0104480D01*
X0050987Y0104981D01*
X0050737Y0105231D01*
X0050987Y0105703D02*
X0050987Y0106704D01*
X0050987Y0106204D02*
X0049486Y0106204D01*
X0049986Y0105703D01*
X0049736Y0105231D02*
X0049486Y0104981D01*
X0049486Y0104480D01*
X0049736Y0104230D01*
X0050737Y0104230D01*
X0050737Y0107177D02*
X0049736Y0108178D01*
X0050737Y0108178D01*
X0050987Y0107927D01*
X0050987Y0107427D01*
X0050737Y0107177D01*
X0049736Y0107177D01*
X0049486Y0107427D01*
X0049486Y0107927D01*
X0049736Y0108178D01*
X0035300Y0101878D02*
X0035300Y0100877D01*
X0035300Y0101377D02*
X0033799Y0101377D01*
X0034299Y0100877D01*
X0034049Y0100404D02*
X0033799Y0100154D01*
X0033799Y0099654D01*
X0034049Y0099403D01*
X0035050Y0099403D01*
X0035300Y0099654D01*
X0035300Y0100154D01*
X0035050Y0100404D01*
X0059003Y0070151D02*
X0059754Y0070151D01*
X0060004Y0069901D01*
X0060004Y0069401D01*
X0059754Y0069150D01*
X0059003Y0069150D01*
X0059003Y0068650D02*
X0059003Y0070151D01*
X0059504Y0069150D02*
X0060004Y0068650D01*
X0060477Y0068650D02*
X0060477Y0068900D01*
X0061478Y0069901D01*
X0061478Y0070151D01*
X0060477Y0070151D01*
X0065603Y0077850D02*
X0065603Y0079351D01*
X0066354Y0079351D01*
X0066604Y0079101D01*
X0066604Y0078601D01*
X0066354Y0078350D01*
X0065603Y0078350D01*
X0066104Y0078350D02*
X0066604Y0077850D01*
X0067077Y0078100D02*
X0067077Y0078350D01*
X0067327Y0078601D01*
X0067827Y0078601D01*
X0068078Y0078350D01*
X0068078Y0078100D01*
X0067827Y0077850D01*
X0067327Y0077850D01*
X0067077Y0078100D01*
X0067327Y0078601D02*
X0067077Y0078851D01*
X0067077Y0079101D01*
X0067327Y0079351D01*
X0067827Y0079351D01*
X0068078Y0079101D01*
X0068078Y0078851D01*
X0067827Y0078601D01*
X0036247Y0033951D02*
X0035747Y0033951D01*
X0035497Y0033701D01*
X0036247Y0033951D02*
X0036497Y0033701D01*
X0036497Y0033451D01*
X0035497Y0032450D01*
X0036497Y0032450D01*
X0035024Y0032450D02*
X0034023Y0032450D01*
X0033551Y0032450D02*
X0033050Y0032950D01*
X0033301Y0032950D02*
X0032550Y0032950D01*
X0032550Y0032450D02*
X0032550Y0033951D01*
X0033301Y0033951D01*
X0033551Y0033701D01*
X0033551Y0033201D01*
X0033301Y0032950D01*
X0034023Y0033451D02*
X0034524Y0033951D01*
X0034524Y0032450D01*
X0034524Y0026351D02*
X0034023Y0025851D01*
X0033551Y0026101D02*
X0033551Y0025601D01*
X0033301Y0025350D01*
X0032550Y0025350D01*
X0032550Y0024850D02*
X0032550Y0026351D01*
X0033301Y0026351D01*
X0033551Y0026101D01*
X0033050Y0025350D02*
X0033551Y0024850D01*
X0034023Y0024850D02*
X0035024Y0024850D01*
X0035497Y0024850D02*
X0036497Y0024850D01*
X0035997Y0024850D02*
X0035997Y0026351D01*
X0035497Y0025851D01*
X0034524Y0026351D02*
X0034524Y0024850D01*
X0024227Y0014151D02*
X0023727Y0014151D01*
X0023477Y0013901D01*
X0023477Y0013651D01*
X0023727Y0013401D01*
X0024478Y0013401D01*
X0024478Y0013901D02*
X0024227Y0014151D01*
X0024478Y0013901D02*
X0024478Y0012900D01*
X0024227Y0012650D01*
X0023727Y0012650D01*
X0023477Y0012900D01*
X0023004Y0012900D02*
X0022754Y0012650D01*
X0022254Y0012650D01*
X0022003Y0012900D01*
X0022003Y0013901D01*
X0022254Y0014151D01*
X0022754Y0014151D01*
X0023004Y0013901D01*
X0027130Y0042250D02*
X0027130Y0043751D01*
X0027881Y0043751D01*
X0028131Y0043501D01*
X0028131Y0043001D01*
X0027881Y0042750D01*
X0027130Y0042750D01*
X0027631Y0042750D02*
X0028131Y0042250D01*
X0028603Y0042250D02*
X0029604Y0042250D01*
X0030077Y0042250D02*
X0030077Y0042500D01*
X0031078Y0043501D01*
X0031078Y0043751D01*
X0030077Y0043751D01*
X0029104Y0043751D02*
X0029104Y0042250D01*
X0028603Y0043251D02*
X0029104Y0043751D01*
X0008513Y0060300D02*
X0008513Y0060801D01*
X0008263Y0061051D01*
X0007762Y0061523D02*
X0007762Y0062524D01*
X0007012Y0062274D02*
X0007762Y0061523D01*
X0007262Y0061051D02*
X0007012Y0060801D01*
X0007012Y0060300D01*
X0007262Y0060050D01*
X0008263Y0060050D01*
X0008513Y0060300D01*
X0008513Y0062274D02*
X0007012Y0062274D01*
X0050050Y0175100D02*
X0050050Y0176601D01*
X0050801Y0176601D01*
X0051051Y0176351D01*
X0051051Y0175851D01*
X0050801Y0175600D01*
X0050050Y0175600D01*
X0050550Y0175600D02*
X0051051Y0175100D01*
X0051523Y0175100D02*
X0052524Y0175100D01*
X0052024Y0175100D02*
X0052024Y0176601D01*
X0051523Y0176101D01*
X0052997Y0175851D02*
X0053497Y0176101D01*
X0053747Y0176101D01*
X0053997Y0175851D01*
X0053997Y0175350D01*
X0053747Y0175100D01*
X0053247Y0175100D01*
X0052997Y0175350D01*
X0052997Y0175851D02*
X0052997Y0176601D01*
X0053997Y0176601D01*
X0064550Y0178100D02*
X0064800Y0177850D01*
X0065301Y0177850D01*
X0065551Y0178100D01*
X0065551Y0179351D01*
X0066023Y0179101D02*
X0066273Y0179351D01*
X0066774Y0179351D01*
X0067024Y0179101D01*
X0067024Y0178851D01*
X0066774Y0178601D01*
X0067024Y0178350D01*
X0067024Y0178100D01*
X0066774Y0177850D01*
X0066273Y0177850D01*
X0066023Y0178100D01*
X0066524Y0178601D02*
X0066774Y0178601D01*
X0064550Y0178100D02*
X0064550Y0179351D01*
X0086299Y0163877D02*
X0087800Y0163877D01*
X0087800Y0163377D02*
X0087800Y0164378D01*
X0086799Y0163377D02*
X0086299Y0163877D01*
X0086549Y0162904D02*
X0086299Y0162654D01*
X0086299Y0161903D01*
X0087800Y0161903D01*
X0087300Y0161903D02*
X0087300Y0162654D01*
X0087049Y0162904D01*
X0086549Y0162904D01*
X0087300Y0162404D02*
X0087800Y0162904D01*
X0096299Y0163404D02*
X0097800Y0163404D01*
X0097800Y0163904D02*
X0097800Y0162903D01*
X0097800Y0162431D02*
X0097300Y0161931D01*
X0097300Y0162181D02*
X0097300Y0161430D01*
X0097800Y0161430D02*
X0096299Y0161430D01*
X0096299Y0162181D01*
X0096549Y0162431D01*
X0097049Y0162431D01*
X0097300Y0162181D01*
X0096799Y0162903D02*
X0096299Y0163404D01*
X0097049Y0164377D02*
X0097049Y0165378D01*
X0096299Y0165127D02*
X0097049Y0164377D01*
X0096299Y0165127D02*
X0097800Y0165127D01*
X0098549Y0159724D02*
X0098799Y0159724D01*
X0099049Y0159474D01*
X0099300Y0159724D01*
X0099550Y0159724D01*
X0099800Y0159474D01*
X0099800Y0158973D01*
X0099550Y0158723D01*
X0099550Y0158251D02*
X0099800Y0158001D01*
X0099800Y0157500D01*
X0099550Y0157250D01*
X0098549Y0157250D01*
X0098299Y0157500D01*
X0098299Y0158001D01*
X0098549Y0158251D01*
X0098549Y0158723D02*
X0098299Y0158973D01*
X0098299Y0159474D01*
X0098549Y0159724D01*
X0099049Y0159474D02*
X0099049Y0159224D01*
X0097797Y0175900D02*
X0096797Y0175900D01*
X0096324Y0175900D02*
X0095323Y0175900D01*
X0095824Y0175900D02*
X0095824Y0177401D01*
X0095323Y0176901D01*
X0094851Y0177151D02*
X0094601Y0177401D01*
X0094100Y0177401D01*
X0093850Y0177151D01*
X0093850Y0176150D01*
X0094100Y0175900D01*
X0094601Y0175900D01*
X0094851Y0176150D01*
X0096797Y0176901D02*
X0097297Y0177401D01*
X0097297Y0175900D01*
X0033578Y0180001D02*
X0032577Y0180001D01*
X0033327Y0180751D01*
X0033327Y0179250D01*
X0032104Y0179500D02*
X0032104Y0180751D01*
X0031103Y0180751D02*
X0031103Y0179500D01*
X0031354Y0179250D01*
X0031854Y0179250D01*
X0032104Y0179500D01*
D16*
X0031309Y0176800D02*
X0034691Y0176800D01*
X0030209Y0172857D02*
X0030209Y0170743D01*
X0031309Y0166800D02*
X0034691Y0166800D01*
X0017921Y0166721D02*
X0008079Y0166721D01*
X0008079Y0086013D01*
X0017921Y0086013D01*
X0017921Y0166721D01*
X0039276Y0108443D02*
X0048724Y0108443D01*
X0048724Y0102537D01*
X0048724Y0094663D02*
X0048724Y0090332D01*
X0047150Y0088757D01*
X0040850Y0088757D01*
X0039276Y0090332D01*
X0039276Y0094663D01*
X0039276Y0102537D02*
X0039276Y0108443D01*
X0017150Y0079843D02*
X0018724Y0078268D01*
X0018724Y0073937D01*
X0017150Y0079843D02*
X0010850Y0079843D01*
X0009276Y0078268D01*
X0009276Y0073937D01*
X0009276Y0066063D02*
X0009276Y0060157D01*
X0018724Y0060157D01*
X0018724Y0066063D01*
X0051926Y0031874D02*
X0051926Y0029906D01*
X0051926Y0031874D02*
X0053894Y0031874D01*
X0051926Y0018094D02*
X0051926Y0016126D01*
X0053894Y0016126D01*
X0065706Y0016126D02*
X0067674Y0016126D01*
X0067674Y0018094D01*
X0069151Y0017110D02*
X0069153Y0017154D01*
X0069159Y0017198D01*
X0069169Y0017241D01*
X0069182Y0017283D01*
X0069200Y0017323D01*
X0069221Y0017362D01*
X0069245Y0017399D01*
X0069272Y0017434D01*
X0069303Y0017466D01*
X0069336Y0017495D01*
X0069372Y0017521D01*
X0069410Y0017543D01*
X0069450Y0017562D01*
X0069491Y0017578D01*
X0069534Y0017590D01*
X0069577Y0017598D01*
X0069621Y0017602D01*
X0069665Y0017602D01*
X0069709Y0017598D01*
X0069752Y0017590D01*
X0069795Y0017578D01*
X0069836Y0017562D01*
X0069876Y0017543D01*
X0069914Y0017521D01*
X0069950Y0017495D01*
X0069983Y0017466D01*
X0070014Y0017434D01*
X0070041Y0017399D01*
X0070065Y0017362D01*
X0070086Y0017323D01*
X0070104Y0017283D01*
X0070117Y0017241D01*
X0070127Y0017198D01*
X0070133Y0017154D01*
X0070135Y0017110D01*
X0070133Y0017066D01*
X0070127Y0017022D01*
X0070117Y0016979D01*
X0070104Y0016937D01*
X0070086Y0016897D01*
X0070065Y0016858D01*
X0070041Y0016821D01*
X0070014Y0016786D01*
X0069983Y0016754D01*
X0069950Y0016725D01*
X0069914Y0016699D01*
X0069876Y0016677D01*
X0069836Y0016658D01*
X0069795Y0016642D01*
X0069752Y0016630D01*
X0069709Y0016622D01*
X0069665Y0016618D01*
X0069621Y0016618D01*
X0069577Y0016622D01*
X0069534Y0016630D01*
X0069491Y0016642D01*
X0069450Y0016658D01*
X0069410Y0016677D01*
X0069372Y0016699D01*
X0069336Y0016725D01*
X0069303Y0016754D01*
X0069272Y0016786D01*
X0069245Y0016821D01*
X0069221Y0016858D01*
X0069200Y0016897D01*
X0069182Y0016937D01*
X0069169Y0016979D01*
X0069159Y0017022D01*
X0069153Y0017066D01*
X0069151Y0017110D01*
X0067674Y0029906D02*
X0067674Y0031874D01*
X0065706Y0031874D01*
X0099683Y0033602D02*
X0099683Y0036948D01*
X0115431Y0036948D01*
X0109526Y0033602D02*
X0109526Y0028090D01*
X0109526Y0033602D02*
X0099683Y0033602D01*
X0109526Y0014310D02*
X0109526Y0008798D01*
X0099683Y0008798D01*
X0099683Y0005452D01*
X0115431Y0005452D01*
X0129211Y0012342D02*
X0129211Y0030058D01*
X0107112Y0096441D02*
X0096088Y0096441D01*
X0096088Y0101559D01*
X0107112Y0101559D01*
X0107112Y0096441D01*
X0102387Y0097425D02*
X0102387Y0099000D01*
X0100813Y0097425D01*
X0100813Y0100575D01*
X0102387Y0099000D01*
X0102387Y0100575D01*
X0100906Y0128294D02*
X0100906Y0140106D01*
X0091400Y0130200D02*
X0091402Y0130240D01*
X0091408Y0130279D01*
X0091418Y0130318D01*
X0091431Y0130355D01*
X0091449Y0130391D01*
X0091470Y0130425D01*
X0091494Y0130457D01*
X0091521Y0130486D01*
X0091551Y0130513D01*
X0091583Y0130536D01*
X0091618Y0130556D01*
X0091654Y0130572D01*
X0091692Y0130585D01*
X0091731Y0130594D01*
X0091770Y0130599D01*
X0091810Y0130600D01*
X0091850Y0130597D01*
X0091889Y0130590D01*
X0091927Y0130579D01*
X0091965Y0130565D01*
X0092000Y0130546D01*
X0092033Y0130525D01*
X0092065Y0130500D01*
X0092093Y0130472D01*
X0092119Y0130442D01*
X0092141Y0130409D01*
X0092160Y0130374D01*
X0092176Y0130337D01*
X0092188Y0130299D01*
X0092196Y0130260D01*
X0092200Y0130220D01*
X0092200Y0130180D01*
X0092196Y0130140D01*
X0092188Y0130101D01*
X0092176Y0130063D01*
X0092160Y0130026D01*
X0092141Y0129991D01*
X0092119Y0129958D01*
X0092093Y0129928D01*
X0092065Y0129900D01*
X0092033Y0129875D01*
X0092000Y0129854D01*
X0091965Y0129835D01*
X0091927Y0129821D01*
X0091889Y0129810D01*
X0091850Y0129803D01*
X0091810Y0129800D01*
X0091770Y0129801D01*
X0091731Y0129806D01*
X0091692Y0129815D01*
X0091654Y0129828D01*
X0091618Y0129844D01*
X0091583Y0129864D01*
X0091551Y0129887D01*
X0091521Y0129914D01*
X0091494Y0129943D01*
X0091470Y0129975D01*
X0091449Y0130009D01*
X0091431Y0130045D01*
X0091418Y0130082D01*
X0091408Y0130121D01*
X0091402Y0130160D01*
X0091400Y0130200D01*
X0089094Y0128294D02*
X0089094Y0140106D01*
X0108600Y0161300D02*
X0111100Y0158800D01*
X0116100Y0158800D01*
X0118600Y0161300D01*
X0121100Y0158800D01*
X0126100Y0158800D01*
X0128600Y0161300D01*
X0128600Y0166300D01*
X0126100Y0168800D01*
X0121100Y0168800D01*
X0118600Y0166300D01*
X0116100Y0168800D01*
X0111100Y0168800D01*
X0108600Y0166300D01*
X0108600Y0161300D01*
D17*
X0084000Y0081300D03*
X0092200Y0078600D03*
D18*
X0088000Y0091800D03*
X0073000Y0091800D03*
X0065000Y0082400D03*
X0058400Y0073200D03*
X0073000Y0036800D03*
X0077000Y0028700D03*
X0083000Y0017800D03*
X0082500Y0011800D03*
X0036000Y0021800D03*
X0036000Y0029400D03*
X0028000Y0046800D03*
D19*
X0021400Y0017310D02*
X0021400Y0017090D01*
X0057090Y0093800D02*
X0057310Y0093800D01*
X0083000Y0101690D02*
X0083000Y0101910D01*
X0088890Y0052800D02*
X0089110Y0052800D01*
X0079000Y0044510D02*
X0079000Y0044290D01*
D20*
X0046583Y0061487D02*
X0046585Y0061543D01*
X0046591Y0061598D01*
X0046601Y0061652D01*
X0046614Y0061706D01*
X0046632Y0061759D01*
X0046653Y0061810D01*
X0046677Y0061860D01*
X0046705Y0061908D01*
X0046737Y0061954D01*
X0046771Y0061998D01*
X0046809Y0062039D01*
X0046849Y0062077D01*
X0046892Y0062112D01*
X0046937Y0062144D01*
X0046985Y0062173D01*
X0047034Y0062199D01*
X0047085Y0062221D01*
X0047137Y0062239D01*
X0047191Y0062253D01*
X0047246Y0062264D01*
X0047301Y0062271D01*
X0047356Y0062274D01*
X0047412Y0062273D01*
X0047467Y0062268D01*
X0047522Y0062259D01*
X0047576Y0062247D01*
X0047629Y0062230D01*
X0047681Y0062210D01*
X0047731Y0062186D01*
X0047779Y0062159D01*
X0047826Y0062129D01*
X0047870Y0062095D01*
X0047912Y0062058D01*
X0047950Y0062018D01*
X0047987Y0061976D01*
X0048020Y0061931D01*
X0048049Y0061885D01*
X0048076Y0061836D01*
X0048098Y0061785D01*
X0048118Y0061733D01*
X0048133Y0061679D01*
X0048145Y0061625D01*
X0048153Y0061570D01*
X0048157Y0061515D01*
X0048157Y0061459D01*
X0048153Y0061404D01*
X0048145Y0061349D01*
X0048133Y0061295D01*
X0048118Y0061241D01*
X0048098Y0061189D01*
X0048076Y0061138D01*
X0048049Y0061089D01*
X0048020Y0061043D01*
X0047987Y0060998D01*
X0047950Y0060956D01*
X0047912Y0060916D01*
X0047870Y0060879D01*
X0047826Y0060845D01*
X0047779Y0060815D01*
X0047731Y0060788D01*
X0047681Y0060764D01*
X0047629Y0060744D01*
X0047576Y0060727D01*
X0047522Y0060715D01*
X0047467Y0060706D01*
X0047412Y0060701D01*
X0047356Y0060700D01*
X0047301Y0060703D01*
X0047246Y0060710D01*
X0047191Y0060721D01*
X0047137Y0060735D01*
X0047085Y0060753D01*
X0047034Y0060775D01*
X0046985Y0060801D01*
X0046937Y0060830D01*
X0046892Y0060862D01*
X0046849Y0060897D01*
X0046809Y0060935D01*
X0046771Y0060976D01*
X0046737Y0061020D01*
X0046705Y0061066D01*
X0046677Y0061114D01*
X0046653Y0061164D01*
X0046632Y0061215D01*
X0046614Y0061268D01*
X0046601Y0061322D01*
X0046591Y0061376D01*
X0046585Y0061431D01*
X0046583Y0061487D01*
D21*
X0096800Y0172480D02*
X0096800Y0172720D01*
D22*
X0037000Y0165500D03*
D23*
X0021000Y0039292D03*
X0087308Y0037800D03*
M02*
