G75*
%MOIN*%
%OFA0B0*%
%FSLAX25Y25*%
%IPPOS*%
%LPD*%
%AMOC8*
5,1,8,0,0,1.08239X$1,22.5*
%
%ADD10R,0.05500X0.02500*%
%ADD11R,0.02500X0.05500*%
%ADD12R,0.07900X0.07900*%
%ADD13OC8,0.07900*%
%ADD14R,0.05224X0.03650*%
%ADD15R,0.03650X0.05224*%
%ADD16R,0.05224X0.05224*%
%ADD17C,0.05224*%
%ADD18R,0.06799X0.06012*%
%ADD19R,0.01681X0.06012*%
%ADD20C,0.00017*%
%ADD21C,0.07900*%
%ADD22R,0.08800X0.22500*%
%ADD23R,0.04437X0.04831*%
%ADD24R,0.04831X0.04437*%
%ADD25R,0.16248X0.06012*%
%ADD26R,0.09949X0.08374*%
%ADD27R,0.09587X0.02469*%
%ADD28C,0.04437*%
%ADD29C,0.01878*%
%ADD30C,0.03475*%
%ADD31R,0.03543X0.01575*%
%ADD32R,0.01575X0.03543*%
%ADD33R,0.10343X0.10343*%
%ADD34R,0.18610X0.04437*%
%ADD35R,0.13886X0.06799*%
%ADD36R,0.04437X0.06012*%
%ADD37R,0.03650X0.03650*%
%ADD38R,0.03543X0.18110*%
%ADD39R,0.02862X0.08374*%
%ADD40R,0.02075X0.03453*%
%ADD41R,0.05224X0.02665*%
%ADD42C,0.03200*%
D10*
X0041700Y0125976D03*
X0041700Y0129126D03*
X0041700Y0132276D03*
X0041700Y0135425D03*
X0041700Y0138575D03*
X0041700Y0141724D03*
X0041700Y0144874D03*
X0041700Y0148024D03*
X0075500Y0148024D03*
X0075500Y0144874D03*
X0075500Y0141724D03*
X0075500Y0138575D03*
X0075500Y0135425D03*
X0075500Y0132276D03*
X0075500Y0129126D03*
X0075500Y0125976D03*
D11*
X0069624Y0120100D03*
X0066474Y0120100D03*
X0063324Y0120100D03*
X0060175Y0120100D03*
X0057025Y0120100D03*
X0053876Y0120100D03*
X0050726Y0120100D03*
X0047576Y0120100D03*
X0047576Y0153900D03*
X0050726Y0153900D03*
X0053876Y0153900D03*
X0057025Y0153900D03*
X0060175Y0153900D03*
X0063324Y0153900D03*
X0066474Y0153900D03*
X0069624Y0153900D03*
D12*
X0122700Y0182000D03*
D13*
X0122700Y0192000D03*
X0122700Y0202000D03*
X0112700Y0202000D03*
X0112700Y0192000D03*
X0112700Y0182000D03*
D14*
X0103100Y0163743D03*
X0103100Y0156657D03*
X0093000Y0153257D03*
X0093000Y0160343D03*
X0083000Y0158257D03*
X0083000Y0165343D03*
X0090500Y0117843D03*
X0090500Y0110757D03*
X0101500Y0111257D03*
X0101500Y0118343D03*
X0030500Y0102843D03*
X0030500Y0095757D03*
D15*
X0064457Y0108800D03*
X0071543Y0108800D03*
X0056543Y0171800D03*
X0049457Y0171800D03*
X0093257Y0172600D03*
X0100343Y0172600D03*
D16*
X0013000Y0161800D03*
D17*
X0013000Y0153926D03*
X0013000Y0146052D03*
X0013000Y0138178D03*
X0013000Y0130304D03*
X0013000Y0122430D03*
X0013000Y0114556D03*
X0013000Y0106682D03*
X0013000Y0098808D03*
X0013000Y0090934D03*
D18*
X0014000Y0075512D03*
X0014000Y0064488D03*
X0044000Y0093088D03*
X0044000Y0104112D03*
D19*
X0091063Y0142861D03*
X0093031Y0142861D03*
X0095000Y0142861D03*
X0096969Y0142861D03*
X0098937Y0142861D03*
X0098937Y0125539D03*
X0096969Y0125539D03*
X0095000Y0125539D03*
X0093031Y0125539D03*
D20*
X0090231Y0122541D02*
X0090231Y0128537D01*
X0091895Y0128537D01*
X0091895Y0122541D01*
X0090231Y0122541D01*
X0090231Y0122557D02*
X0091895Y0122557D01*
X0091895Y0122573D02*
X0090231Y0122573D01*
X0090231Y0122589D02*
X0091895Y0122589D01*
X0091895Y0122605D02*
X0090231Y0122605D01*
X0090231Y0122621D02*
X0091895Y0122621D01*
X0091895Y0122637D02*
X0090231Y0122637D01*
X0090231Y0122653D02*
X0091895Y0122653D01*
X0091895Y0122669D02*
X0090231Y0122669D01*
X0090231Y0122685D02*
X0091895Y0122685D01*
X0091895Y0122701D02*
X0090231Y0122701D01*
X0090231Y0122717D02*
X0091895Y0122717D01*
X0091895Y0122733D02*
X0090231Y0122733D01*
X0090231Y0122749D02*
X0091895Y0122749D01*
X0091895Y0122765D02*
X0090231Y0122765D01*
X0090231Y0122781D02*
X0091895Y0122781D01*
X0091895Y0122797D02*
X0090231Y0122797D01*
X0090231Y0122813D02*
X0091895Y0122813D01*
X0091895Y0122829D02*
X0090231Y0122829D01*
X0090231Y0122845D02*
X0091895Y0122845D01*
X0091895Y0122861D02*
X0090231Y0122861D01*
X0090231Y0122877D02*
X0091895Y0122877D01*
X0091895Y0122893D02*
X0090231Y0122893D01*
X0090231Y0122909D02*
X0091895Y0122909D01*
X0091895Y0122925D02*
X0090231Y0122925D01*
X0090231Y0122941D02*
X0091895Y0122941D01*
X0091895Y0122957D02*
X0090231Y0122957D01*
X0090231Y0122973D02*
X0091895Y0122973D01*
X0091895Y0122989D02*
X0090231Y0122989D01*
X0090231Y0123005D02*
X0091895Y0123005D01*
X0091895Y0123021D02*
X0090231Y0123021D01*
X0090231Y0123037D02*
X0091895Y0123037D01*
X0091895Y0123053D02*
X0090231Y0123053D01*
X0090231Y0123069D02*
X0091895Y0123069D01*
X0091895Y0123085D02*
X0090231Y0123085D01*
X0090231Y0123101D02*
X0091895Y0123101D01*
X0091895Y0123117D02*
X0090231Y0123117D01*
X0090231Y0123133D02*
X0091895Y0123133D01*
X0091895Y0123149D02*
X0090231Y0123149D01*
X0090231Y0123165D02*
X0091895Y0123165D01*
X0091895Y0123181D02*
X0090231Y0123181D01*
X0090231Y0123197D02*
X0091895Y0123197D01*
X0091895Y0123213D02*
X0090231Y0123213D01*
X0090231Y0123229D02*
X0091895Y0123229D01*
X0091895Y0123245D02*
X0090231Y0123245D01*
X0090231Y0123261D02*
X0091895Y0123261D01*
X0091895Y0123277D02*
X0090231Y0123277D01*
X0090231Y0123293D02*
X0091895Y0123293D01*
X0091895Y0123309D02*
X0090231Y0123309D01*
X0090231Y0123325D02*
X0091895Y0123325D01*
X0091895Y0123341D02*
X0090231Y0123341D01*
X0090231Y0123357D02*
X0091895Y0123357D01*
X0091895Y0123373D02*
X0090231Y0123373D01*
X0090231Y0123389D02*
X0091895Y0123389D01*
X0091895Y0123405D02*
X0090231Y0123405D01*
X0090231Y0123421D02*
X0091895Y0123421D01*
X0091895Y0123437D02*
X0090231Y0123437D01*
X0090231Y0123453D02*
X0091895Y0123453D01*
X0091895Y0123469D02*
X0090231Y0123469D01*
X0090231Y0123485D02*
X0091895Y0123485D01*
X0091895Y0123501D02*
X0090231Y0123501D01*
X0090231Y0123517D02*
X0091895Y0123517D01*
X0091895Y0123533D02*
X0090231Y0123533D01*
X0090231Y0123549D02*
X0091895Y0123549D01*
X0091895Y0123565D02*
X0090231Y0123565D01*
X0090231Y0123581D02*
X0091895Y0123581D01*
X0091895Y0123597D02*
X0090231Y0123597D01*
X0090231Y0123613D02*
X0091895Y0123613D01*
X0091895Y0123629D02*
X0090231Y0123629D01*
X0090231Y0123645D02*
X0091895Y0123645D01*
X0091895Y0123661D02*
X0090231Y0123661D01*
X0090231Y0123677D02*
X0091895Y0123677D01*
X0091895Y0123693D02*
X0090231Y0123693D01*
X0090231Y0123709D02*
X0091895Y0123709D01*
X0091895Y0123725D02*
X0090231Y0123725D01*
X0090231Y0123741D02*
X0091895Y0123741D01*
X0091895Y0123757D02*
X0090231Y0123757D01*
X0090231Y0123773D02*
X0091895Y0123773D01*
X0091895Y0123789D02*
X0090231Y0123789D01*
X0090231Y0123805D02*
X0091895Y0123805D01*
X0091895Y0123821D02*
X0090231Y0123821D01*
X0090231Y0123837D02*
X0091895Y0123837D01*
X0091895Y0123853D02*
X0090231Y0123853D01*
X0090231Y0123869D02*
X0091895Y0123869D01*
X0091895Y0123885D02*
X0090231Y0123885D01*
X0090231Y0123901D02*
X0091895Y0123901D01*
X0091895Y0123917D02*
X0090231Y0123917D01*
X0090231Y0123933D02*
X0091895Y0123933D01*
X0091895Y0123949D02*
X0090231Y0123949D01*
X0090231Y0123965D02*
X0091895Y0123965D01*
X0091895Y0123981D02*
X0090231Y0123981D01*
X0090231Y0123997D02*
X0091895Y0123997D01*
X0091895Y0124013D02*
X0090231Y0124013D01*
X0090231Y0124029D02*
X0091895Y0124029D01*
X0091895Y0124045D02*
X0090231Y0124045D01*
X0090231Y0124061D02*
X0091895Y0124061D01*
X0091895Y0124077D02*
X0090231Y0124077D01*
X0090231Y0124093D02*
X0091895Y0124093D01*
X0091895Y0124109D02*
X0090231Y0124109D01*
X0090231Y0124125D02*
X0091895Y0124125D01*
X0091895Y0124141D02*
X0090231Y0124141D01*
X0090231Y0124157D02*
X0091895Y0124157D01*
X0091895Y0124173D02*
X0090231Y0124173D01*
X0090231Y0124189D02*
X0091895Y0124189D01*
X0091895Y0124205D02*
X0090231Y0124205D01*
X0090231Y0124221D02*
X0091895Y0124221D01*
X0091895Y0124237D02*
X0090231Y0124237D01*
X0090231Y0124253D02*
X0091895Y0124253D01*
X0091895Y0124269D02*
X0090231Y0124269D01*
X0090231Y0124285D02*
X0091895Y0124285D01*
X0091895Y0124301D02*
X0090231Y0124301D01*
X0090231Y0124317D02*
X0091895Y0124317D01*
X0091895Y0124333D02*
X0090231Y0124333D01*
X0090231Y0124349D02*
X0091895Y0124349D01*
X0091895Y0124365D02*
X0090231Y0124365D01*
X0090231Y0124381D02*
X0091895Y0124381D01*
X0091895Y0124397D02*
X0090231Y0124397D01*
X0090231Y0124413D02*
X0091895Y0124413D01*
X0091895Y0124429D02*
X0090231Y0124429D01*
X0090231Y0124445D02*
X0091895Y0124445D01*
X0091895Y0124461D02*
X0090231Y0124461D01*
X0090231Y0124477D02*
X0091895Y0124477D01*
X0091895Y0124493D02*
X0090231Y0124493D01*
X0090231Y0124509D02*
X0091895Y0124509D01*
X0091895Y0124525D02*
X0090231Y0124525D01*
X0090231Y0124541D02*
X0091895Y0124541D01*
X0091895Y0124557D02*
X0090231Y0124557D01*
X0090231Y0124573D02*
X0091895Y0124573D01*
X0091895Y0124589D02*
X0090231Y0124589D01*
X0090231Y0124605D02*
X0091895Y0124605D01*
X0091895Y0124621D02*
X0090231Y0124621D01*
X0090231Y0124637D02*
X0091895Y0124637D01*
X0091895Y0124653D02*
X0090231Y0124653D01*
X0090231Y0124669D02*
X0091895Y0124669D01*
X0091895Y0124685D02*
X0090231Y0124685D01*
X0090231Y0124701D02*
X0091895Y0124701D01*
X0091895Y0124717D02*
X0090231Y0124717D01*
X0090231Y0124733D02*
X0091895Y0124733D01*
X0091895Y0124749D02*
X0090231Y0124749D01*
X0090231Y0124765D02*
X0091895Y0124765D01*
X0091895Y0124781D02*
X0090231Y0124781D01*
X0090231Y0124797D02*
X0091895Y0124797D01*
X0091895Y0124813D02*
X0090231Y0124813D01*
X0090231Y0124829D02*
X0091895Y0124829D01*
X0091895Y0124845D02*
X0090231Y0124845D01*
X0090231Y0124861D02*
X0091895Y0124861D01*
X0091895Y0124877D02*
X0090231Y0124877D01*
X0090231Y0124893D02*
X0091895Y0124893D01*
X0091895Y0124909D02*
X0090231Y0124909D01*
X0090231Y0124925D02*
X0091895Y0124925D01*
X0091895Y0124941D02*
X0090231Y0124941D01*
X0090231Y0124957D02*
X0091895Y0124957D01*
X0091895Y0124973D02*
X0090231Y0124973D01*
X0090231Y0124989D02*
X0091895Y0124989D01*
X0091895Y0125005D02*
X0090231Y0125005D01*
X0090231Y0125021D02*
X0091895Y0125021D01*
X0091895Y0125037D02*
X0090231Y0125037D01*
X0090231Y0125053D02*
X0091895Y0125053D01*
X0091895Y0125069D02*
X0090231Y0125069D01*
X0090231Y0125085D02*
X0091895Y0125085D01*
X0091895Y0125101D02*
X0090231Y0125101D01*
X0090231Y0125117D02*
X0091895Y0125117D01*
X0091895Y0125133D02*
X0090231Y0125133D01*
X0090231Y0125149D02*
X0091895Y0125149D01*
X0091895Y0125165D02*
X0090231Y0125165D01*
X0090231Y0125181D02*
X0091895Y0125181D01*
X0091895Y0125197D02*
X0090231Y0125197D01*
X0090231Y0125213D02*
X0091895Y0125213D01*
X0091895Y0125229D02*
X0090231Y0125229D01*
X0090231Y0125245D02*
X0091895Y0125245D01*
X0091895Y0125261D02*
X0090231Y0125261D01*
X0090231Y0125277D02*
X0091895Y0125277D01*
X0091895Y0125293D02*
X0090231Y0125293D01*
X0090231Y0125309D02*
X0091895Y0125309D01*
X0091895Y0125325D02*
X0090231Y0125325D01*
X0090231Y0125341D02*
X0091895Y0125341D01*
X0091895Y0125357D02*
X0090231Y0125357D01*
X0090231Y0125373D02*
X0091895Y0125373D01*
X0091895Y0125389D02*
X0090231Y0125389D01*
X0090231Y0125405D02*
X0091895Y0125405D01*
X0091895Y0125421D02*
X0090231Y0125421D01*
X0090231Y0125437D02*
X0091895Y0125437D01*
X0091895Y0125453D02*
X0090231Y0125453D01*
X0090231Y0125469D02*
X0091895Y0125469D01*
X0091895Y0125485D02*
X0090231Y0125485D01*
X0090231Y0125501D02*
X0091895Y0125501D01*
X0091895Y0125517D02*
X0090231Y0125517D01*
X0090231Y0125533D02*
X0091895Y0125533D01*
X0091895Y0125549D02*
X0090231Y0125549D01*
X0090231Y0125565D02*
X0091895Y0125565D01*
X0091895Y0125581D02*
X0090231Y0125581D01*
X0090231Y0125597D02*
X0091895Y0125597D01*
X0091895Y0125613D02*
X0090231Y0125613D01*
X0090231Y0125629D02*
X0091895Y0125629D01*
X0091895Y0125645D02*
X0090231Y0125645D01*
X0090231Y0125661D02*
X0091895Y0125661D01*
X0091895Y0125677D02*
X0090231Y0125677D01*
X0090231Y0125693D02*
X0091895Y0125693D01*
X0091895Y0125709D02*
X0090231Y0125709D01*
X0090231Y0125725D02*
X0091895Y0125725D01*
X0091895Y0125741D02*
X0090231Y0125741D01*
X0090231Y0125757D02*
X0091895Y0125757D01*
X0091895Y0125773D02*
X0090231Y0125773D01*
X0090231Y0125789D02*
X0091895Y0125789D01*
X0091895Y0125805D02*
X0090231Y0125805D01*
X0090231Y0125821D02*
X0091895Y0125821D01*
X0091895Y0125837D02*
X0090231Y0125837D01*
X0090231Y0125853D02*
X0091895Y0125853D01*
X0091895Y0125869D02*
X0090231Y0125869D01*
X0090231Y0125885D02*
X0091895Y0125885D01*
X0091895Y0125901D02*
X0090231Y0125901D01*
X0090231Y0125917D02*
X0091895Y0125917D01*
X0091895Y0125933D02*
X0090231Y0125933D01*
X0090231Y0125949D02*
X0091895Y0125949D01*
X0091895Y0125965D02*
X0090231Y0125965D01*
X0090231Y0125981D02*
X0091895Y0125981D01*
X0091895Y0125997D02*
X0090231Y0125997D01*
X0090231Y0126013D02*
X0091895Y0126013D01*
X0091895Y0126029D02*
X0090231Y0126029D01*
X0090231Y0126045D02*
X0091895Y0126045D01*
X0091895Y0126061D02*
X0090231Y0126061D01*
X0090231Y0126077D02*
X0091895Y0126077D01*
X0091895Y0126093D02*
X0090231Y0126093D01*
X0090231Y0126109D02*
X0091895Y0126109D01*
X0091895Y0126125D02*
X0090231Y0126125D01*
X0090231Y0126141D02*
X0091895Y0126141D01*
X0091895Y0126157D02*
X0090231Y0126157D01*
X0090231Y0126173D02*
X0091895Y0126173D01*
X0091895Y0126189D02*
X0090231Y0126189D01*
X0090231Y0126205D02*
X0091895Y0126205D01*
X0091895Y0126221D02*
X0090231Y0126221D01*
X0090231Y0126237D02*
X0091895Y0126237D01*
X0091895Y0126253D02*
X0090231Y0126253D01*
X0090231Y0126269D02*
X0091895Y0126269D01*
X0091895Y0126285D02*
X0090231Y0126285D01*
X0090231Y0126301D02*
X0091895Y0126301D01*
X0091895Y0126317D02*
X0090231Y0126317D01*
X0090231Y0126333D02*
X0091895Y0126333D01*
X0091895Y0126349D02*
X0090231Y0126349D01*
X0090231Y0126365D02*
X0091895Y0126365D01*
X0091895Y0126381D02*
X0090231Y0126381D01*
X0090231Y0126397D02*
X0091895Y0126397D01*
X0091895Y0126413D02*
X0090231Y0126413D01*
X0090231Y0126429D02*
X0091895Y0126429D01*
X0091895Y0126445D02*
X0090231Y0126445D01*
X0090231Y0126461D02*
X0091895Y0126461D01*
X0091895Y0126477D02*
X0090231Y0126477D01*
X0090231Y0126493D02*
X0091895Y0126493D01*
X0091895Y0126509D02*
X0090231Y0126509D01*
X0090231Y0126525D02*
X0091895Y0126525D01*
X0091895Y0126541D02*
X0090231Y0126541D01*
X0090231Y0126557D02*
X0091895Y0126557D01*
X0091895Y0126573D02*
X0090231Y0126573D01*
X0090231Y0126589D02*
X0091895Y0126589D01*
X0091895Y0126605D02*
X0090231Y0126605D01*
X0090231Y0126621D02*
X0091895Y0126621D01*
X0091895Y0126637D02*
X0090231Y0126637D01*
X0090231Y0126653D02*
X0091895Y0126653D01*
X0091895Y0126669D02*
X0090231Y0126669D01*
X0090231Y0126685D02*
X0091895Y0126685D01*
X0091895Y0126701D02*
X0090231Y0126701D01*
X0090231Y0126717D02*
X0091895Y0126717D01*
X0091895Y0126733D02*
X0090231Y0126733D01*
X0090231Y0126749D02*
X0091895Y0126749D01*
X0091895Y0126765D02*
X0090231Y0126765D01*
X0090231Y0126781D02*
X0091895Y0126781D01*
X0091895Y0126797D02*
X0090231Y0126797D01*
X0090231Y0126813D02*
X0091895Y0126813D01*
X0091895Y0126829D02*
X0090231Y0126829D01*
X0090231Y0126845D02*
X0091895Y0126845D01*
X0091895Y0126861D02*
X0090231Y0126861D01*
X0090231Y0126877D02*
X0091895Y0126877D01*
X0091895Y0126893D02*
X0090231Y0126893D01*
X0090231Y0126909D02*
X0091895Y0126909D01*
X0091895Y0126925D02*
X0090231Y0126925D01*
X0090231Y0126941D02*
X0091895Y0126941D01*
X0091895Y0126957D02*
X0090231Y0126957D01*
X0090231Y0126973D02*
X0091895Y0126973D01*
X0091895Y0126989D02*
X0090231Y0126989D01*
X0090231Y0127005D02*
X0091895Y0127005D01*
X0091895Y0127021D02*
X0090231Y0127021D01*
X0090231Y0127037D02*
X0091895Y0127037D01*
X0091895Y0127053D02*
X0090231Y0127053D01*
X0090231Y0127069D02*
X0091895Y0127069D01*
X0091895Y0127085D02*
X0090231Y0127085D01*
X0090231Y0127101D02*
X0091895Y0127101D01*
X0091895Y0127117D02*
X0090231Y0127117D01*
X0090231Y0127133D02*
X0091895Y0127133D01*
X0091895Y0127149D02*
X0090231Y0127149D01*
X0090231Y0127165D02*
X0091895Y0127165D01*
X0091895Y0127181D02*
X0090231Y0127181D01*
X0090231Y0127197D02*
X0091895Y0127197D01*
X0091895Y0127213D02*
X0090231Y0127213D01*
X0090231Y0127229D02*
X0091895Y0127229D01*
X0091895Y0127245D02*
X0090231Y0127245D01*
X0090231Y0127261D02*
X0091895Y0127261D01*
X0091895Y0127277D02*
X0090231Y0127277D01*
X0090231Y0127293D02*
X0091895Y0127293D01*
X0091895Y0127309D02*
X0090231Y0127309D01*
X0090231Y0127325D02*
X0091895Y0127325D01*
X0091895Y0127341D02*
X0090231Y0127341D01*
X0090231Y0127357D02*
X0091895Y0127357D01*
X0091895Y0127373D02*
X0090231Y0127373D01*
X0090231Y0127389D02*
X0091895Y0127389D01*
X0091895Y0127405D02*
X0090231Y0127405D01*
X0090231Y0127421D02*
X0091895Y0127421D01*
X0091895Y0127437D02*
X0090231Y0127437D01*
X0090231Y0127453D02*
X0091895Y0127453D01*
X0091895Y0127469D02*
X0090231Y0127469D01*
X0090231Y0127485D02*
X0091895Y0127485D01*
X0091895Y0127501D02*
X0090231Y0127501D01*
X0090231Y0127517D02*
X0091895Y0127517D01*
X0091895Y0127533D02*
X0090231Y0127533D01*
X0090231Y0127549D02*
X0091895Y0127549D01*
X0091895Y0127565D02*
X0090231Y0127565D01*
X0090231Y0127581D02*
X0091895Y0127581D01*
X0091895Y0127597D02*
X0090231Y0127597D01*
X0090231Y0127613D02*
X0091895Y0127613D01*
X0091895Y0127629D02*
X0090231Y0127629D01*
X0090231Y0127645D02*
X0091895Y0127645D01*
X0091895Y0127661D02*
X0090231Y0127661D01*
X0090231Y0127677D02*
X0091895Y0127677D01*
X0091895Y0127693D02*
X0090231Y0127693D01*
X0090231Y0127709D02*
X0091895Y0127709D01*
X0091895Y0127725D02*
X0090231Y0127725D01*
X0090231Y0127741D02*
X0091895Y0127741D01*
X0091895Y0127757D02*
X0090231Y0127757D01*
X0090231Y0127773D02*
X0091895Y0127773D01*
X0091895Y0127789D02*
X0090231Y0127789D01*
X0090231Y0127805D02*
X0091895Y0127805D01*
X0091895Y0127821D02*
X0090231Y0127821D01*
X0090231Y0127837D02*
X0091895Y0127837D01*
X0091895Y0127853D02*
X0090231Y0127853D01*
X0090231Y0127869D02*
X0091895Y0127869D01*
X0091895Y0127885D02*
X0090231Y0127885D01*
X0090231Y0127901D02*
X0091895Y0127901D01*
X0091895Y0127917D02*
X0090231Y0127917D01*
X0090231Y0127933D02*
X0091895Y0127933D01*
X0091895Y0127949D02*
X0090231Y0127949D01*
X0090231Y0127965D02*
X0091895Y0127965D01*
X0091895Y0127981D02*
X0090231Y0127981D01*
X0090231Y0127997D02*
X0091895Y0127997D01*
X0091895Y0128013D02*
X0090231Y0128013D01*
X0090231Y0128029D02*
X0091895Y0128029D01*
X0091895Y0128045D02*
X0090231Y0128045D01*
X0090231Y0128061D02*
X0091895Y0128061D01*
X0091895Y0128077D02*
X0090231Y0128077D01*
X0090231Y0128093D02*
X0091895Y0128093D01*
X0091895Y0128109D02*
X0090231Y0128109D01*
X0090231Y0128125D02*
X0091895Y0128125D01*
X0091895Y0128141D02*
X0090231Y0128141D01*
X0090231Y0128157D02*
X0091895Y0128157D01*
X0091895Y0128173D02*
X0090231Y0128173D01*
X0090231Y0128189D02*
X0091895Y0128189D01*
X0091895Y0128205D02*
X0090231Y0128205D01*
X0090231Y0128221D02*
X0091895Y0128221D01*
X0091895Y0128237D02*
X0090231Y0128237D01*
X0090231Y0128253D02*
X0091895Y0128253D01*
X0091895Y0128269D02*
X0090231Y0128269D01*
X0090231Y0128285D02*
X0091895Y0128285D01*
X0091895Y0128301D02*
X0090231Y0128301D01*
X0090231Y0128317D02*
X0091895Y0128317D01*
X0091895Y0128333D02*
X0090231Y0128333D01*
X0090231Y0128349D02*
X0091895Y0128349D01*
X0091895Y0128365D02*
X0090231Y0128365D01*
X0090231Y0128381D02*
X0091895Y0128381D01*
X0091895Y0128397D02*
X0090231Y0128397D01*
X0090231Y0128413D02*
X0091895Y0128413D01*
X0091895Y0128429D02*
X0090231Y0128429D01*
X0090231Y0128445D02*
X0091895Y0128445D01*
X0091895Y0128461D02*
X0090231Y0128461D01*
X0090231Y0128477D02*
X0091895Y0128477D01*
X0091895Y0128493D02*
X0090231Y0128493D01*
X0090231Y0128509D02*
X0091895Y0128509D01*
X0091895Y0128525D02*
X0090231Y0128525D01*
D21*
X0112900Y0163800D03*
X0124300Y0163800D03*
D22*
X0120600Y0145500D03*
X0120600Y0108100D03*
D23*
X0092200Y0081946D03*
X0092200Y0075254D03*
X0084000Y0077954D03*
X0084000Y0084646D03*
X0089000Y0056146D03*
X0089000Y0049454D03*
X0057200Y0090454D03*
X0057200Y0097146D03*
D24*
X0018054Y0017200D03*
X0024746Y0017200D03*
X0032654Y0021800D03*
X0032654Y0029400D03*
X0039346Y0029400D03*
X0039346Y0021800D03*
X0031346Y0046800D03*
X0024654Y0046800D03*
X0055054Y0073200D03*
X0061654Y0082400D03*
X0061746Y0073200D03*
X0068346Y0082400D03*
X0069654Y0091800D03*
X0076346Y0091800D03*
X0079654Y0101800D03*
X0086346Y0101800D03*
X0084654Y0091800D03*
X0091346Y0091800D03*
X0082346Y0044400D03*
X0075654Y0044400D03*
X0076346Y0036800D03*
X0073654Y0028700D03*
X0069654Y0036800D03*
X0080346Y0028700D03*
X0079654Y0017800D03*
X0079154Y0011800D03*
X0085846Y0011800D03*
X0086346Y0017800D03*
D25*
X0035200Y0056113D03*
X0035200Y0070287D03*
D26*
X0104020Y0053677D03*
X0125674Y0053677D03*
X0125674Y0088323D03*
X0104020Y0088323D03*
D27*
X0101800Y0077299D03*
X0101800Y0074150D03*
X0101800Y0071000D03*
X0101800Y0067850D03*
X0101800Y0064701D03*
D28*
X0113863Y0062339D03*
X0113863Y0079661D03*
D29*
X0067646Y0058239D02*
X0064890Y0058239D01*
X0064890Y0055680D02*
X0067646Y0055680D01*
X0067646Y0053120D02*
X0064890Y0053120D01*
X0064890Y0050561D02*
X0067646Y0050561D01*
X0061839Y0047510D02*
X0061839Y0044754D01*
X0059280Y0044754D02*
X0059280Y0047510D01*
X0056720Y0047510D02*
X0056720Y0044754D01*
X0054161Y0044754D02*
X0054161Y0047510D01*
X0051110Y0050561D02*
X0048354Y0050561D01*
X0048354Y0053120D02*
X0051110Y0053120D01*
X0051110Y0055680D02*
X0048354Y0055680D01*
X0048354Y0058239D02*
X0051110Y0058239D01*
X0054161Y0061290D02*
X0054161Y0064046D01*
X0056720Y0064046D02*
X0056720Y0061290D01*
X0059280Y0061290D02*
X0059280Y0064046D01*
X0061839Y0064046D02*
X0061839Y0061290D01*
D30*
X0061543Y0057943D03*
X0058000Y0054400D03*
X0061543Y0050857D03*
X0054457Y0050857D03*
X0054457Y0057943D03*
D31*
X0052123Y0027937D03*
X0052123Y0025969D03*
X0052123Y0024000D03*
X0052123Y0022031D03*
X0052123Y0020063D03*
X0067477Y0020063D03*
X0067477Y0022031D03*
X0067477Y0024000D03*
X0067477Y0025969D03*
X0067477Y0027937D03*
D32*
X0063737Y0031677D03*
X0061769Y0031677D03*
X0059800Y0031677D03*
X0057831Y0031677D03*
X0055863Y0031677D03*
X0055863Y0016323D03*
X0057831Y0016323D03*
X0059800Y0016323D03*
X0061769Y0016323D03*
X0063737Y0016323D03*
D33*
X0059800Y0024000D03*
D34*
X0102833Y0025137D03*
X0102833Y0017263D03*
D35*
X0123306Y0007814D03*
X0123306Y0034586D03*
D36*
X0081940Y0061876D03*
X0074460Y0061876D03*
X0078200Y0071324D03*
D37*
X0098647Y0099000D03*
X0104553Y0099000D03*
X0090753Y0037800D03*
X0084847Y0037800D03*
X0021000Y0035847D03*
X0021000Y0041753D03*
D38*
X0015067Y0195087D03*
X0089870Y0195087D03*
X0089870Y0195087D03*
D39*
X0085933Y0186426D03*
X0081996Y0186426D03*
X0078059Y0186426D03*
X0074122Y0186426D03*
X0070185Y0186426D03*
X0066248Y0186426D03*
X0062311Y0186426D03*
X0058374Y0186426D03*
X0054437Y0186426D03*
X0050500Y0186426D03*
X0046563Y0186426D03*
X0042626Y0186426D03*
X0038689Y0186426D03*
X0034752Y0186426D03*
X0030815Y0186426D03*
X0026878Y0186426D03*
X0022941Y0186426D03*
X0019004Y0186426D03*
D40*
X0065441Y0175048D03*
X0065441Y0168552D03*
X0068000Y0168552D03*
X0070559Y0168552D03*
X0070559Y0175048D03*
D41*
X0038119Y0175540D03*
X0038119Y0171800D03*
X0038119Y0168060D03*
X0027881Y0168060D03*
X0027881Y0175540D03*
D42*
X0028200Y0161200D03*
X0042170Y0179796D03*
X0055766Y0196681D03*
X0064430Y0193164D03*
X0069815Y0199131D03*
X0080390Y0197385D03*
X0090189Y0183236D03*
X0083204Y0174575D03*
X0090943Y0165726D03*
X0097978Y0154572D03*
X0097000Y0147600D03*
X0100793Y0147433D03*
X0103607Y0152358D03*
X0114000Y0131600D03*
X0105000Y0105800D03*
X0112821Y0094868D03*
X0101100Y0081600D03*
X0093468Y0096871D03*
X0093000Y0101800D03*
X0095378Y0106510D03*
X0088129Y0087632D03*
X0083000Y0071800D03*
X0086722Y0063712D03*
X0090400Y0070000D03*
X0078686Y0054176D03*
X0071000Y0047800D03*
X0085000Y0027800D03*
X0073000Y0017800D03*
X0060900Y0012800D03*
X0048400Y0031600D03*
X0052800Y0036700D03*
X0025000Y0025800D03*
X0043000Y0081800D03*
X0051000Y0087800D03*
X0056900Y0105300D03*
X0057000Y0111800D03*
X0070540Y0135473D03*
X0066008Y0148137D03*
X0060691Y0148841D03*
X0052952Y0158690D03*
X0062000Y0179200D03*
X0073354Y0154469D03*
X0080593Y0144602D03*
X0081093Y0135473D03*
X0086722Y0133473D03*
X0088129Y0136991D03*
X0086218Y0125548D03*
X0086129Y0151951D03*
X0082907Y0153748D03*
X0097400Y0183600D03*
X0098000Y0201800D03*
X0033956Y0124920D03*
X0008000Y0176800D03*
X0078000Y0081800D03*
X0101000Y0039800D03*
X0125000Y0021800D03*
M02*
