G75*
%MOIN*%
%OFA0B0*%
%FSLAX25Y25*%
%IPPOS*%
%LPD*%
%AMOC8*
5,1,8,0,0,1.08239X$1,22.5*
%
%ADD10R,0.07400X0.07400*%
%ADD11OC8,0.07400*%
%ADD12R,0.04724X0.04724*%
%ADD13C,0.04724*%
%ADD14C,0.07400*%
%ADD15C,0.02975*%
%ADD16R,0.01900X0.05500*%
%ADD17C,0.01600*%
%ADD18C,0.02700*%
%ADD19C,0.01000*%
%ADD20C,0.01200*%
%ADD21C,0.02400*%
%ADD22C,0.00600*%
%ADD23C,0.03200*%
%ADD24C,0.04000*%
D10*
X0121500Y0182200D03*
D11*
X0121500Y0192200D03*
X0121500Y0202200D03*
X0111500Y0202200D03*
X0111500Y0192200D03*
X0111500Y0182200D03*
D12*
X0011800Y0162000D03*
D13*
X0011800Y0154126D03*
X0011800Y0146252D03*
X0011800Y0138378D03*
X0011800Y0130504D03*
X0011800Y0122630D03*
X0011800Y0114756D03*
X0011800Y0106882D03*
X0011800Y0099008D03*
X0011800Y0091134D03*
D14*
X0111700Y0164000D03*
X0123100Y0164000D03*
D15*
X0060343Y0058143D03*
X0056800Y0054600D03*
X0053257Y0051057D03*
X0053257Y0058143D03*
X0060343Y0051057D03*
D16*
X0061400Y0165000D03*
X0066400Y0165000D03*
X0071400Y0165000D03*
X0076400Y0165000D03*
X0081400Y0165000D03*
X0086400Y0165000D03*
X0086400Y0205000D03*
X0081400Y0205000D03*
X0076400Y0205000D03*
X0071400Y0205000D03*
X0066400Y0205000D03*
X0061400Y0205000D03*
X0056400Y0205000D03*
X0051400Y0205000D03*
X0046400Y0205000D03*
X0041400Y0205000D03*
X0041400Y0165000D03*
X0046400Y0165000D03*
X0051400Y0165000D03*
X0056400Y0165000D03*
D17*
X0005200Y0208600D02*
X0005200Y0005400D01*
X0037724Y0005400D01*
X0037712Y0005427D01*
X0037711Y0005465D01*
X0037697Y0005501D01*
X0037700Y0006379D01*
X0037212Y0045057D01*
X0037200Y0045085D01*
X0037200Y0045971D01*
X0037189Y0046857D01*
X0037200Y0046885D01*
X0037200Y0046915D01*
X0037539Y0047734D01*
X0037868Y0048556D01*
X0037889Y0048578D01*
X0037900Y0048606D01*
X0038527Y0049232D01*
X0039145Y0049866D01*
X0039173Y0049878D01*
X0039194Y0049900D01*
X0040013Y0050239D01*
X0040827Y0050588D01*
X0040857Y0050588D01*
X0040885Y0050600D01*
X0041771Y0050600D01*
X0042657Y0050611D01*
X0042685Y0050600D01*
X0066814Y0050600D01*
X0067563Y0051349D01*
X0069014Y0051950D01*
X0070586Y0051950D01*
X0072037Y0051349D01*
X0073149Y0050237D01*
X0073750Y0048786D01*
X0073750Y0048484D01*
X0074400Y0046915D01*
X0074400Y0045085D01*
X0073700Y0043394D01*
X0072406Y0042100D01*
X0071215Y0041607D01*
X0096709Y0042495D01*
X0097562Y0043349D01*
X0099014Y0043950D01*
X0100586Y0043950D01*
X0102037Y0043349D01*
X0103149Y0042237D01*
X0103750Y0040786D01*
X0103750Y0040425D01*
X0104365Y0039075D01*
X0104429Y0037246D01*
X0103788Y0035532D01*
X0102540Y0034193D01*
X0100875Y0033435D01*
X0063819Y0032144D01*
X0063903Y0012182D01*
X0063390Y0010928D01*
X0067078Y0010915D01*
X0067216Y0018993D01*
X0067945Y0020672D01*
X0069261Y0021944D01*
X0070964Y0022615D01*
X0072793Y0022584D01*
X0074472Y0021855D01*
X0075744Y0020539D01*
X0076415Y0018836D01*
X0076200Y0006253D01*
X0076197Y0005400D01*
X0128400Y0005400D01*
X0128400Y0162513D01*
X0128197Y0161889D01*
X0127804Y0161117D01*
X0127295Y0160417D01*
X0126683Y0159805D01*
X0125983Y0159296D01*
X0125211Y0158903D01*
X0124388Y0158635D01*
X0123533Y0158500D01*
X0123300Y0158500D01*
X0123300Y0163800D01*
X0122900Y0163800D01*
X0122900Y0158500D01*
X0122667Y0158500D01*
X0121812Y0158635D01*
X0120989Y0158903D01*
X0120217Y0159296D01*
X0119517Y0159805D01*
X0118905Y0160417D01*
X0118396Y0161117D01*
X0118003Y0161889D01*
X0117845Y0162374D01*
X0117041Y0160431D01*
X0115362Y0158752D01*
X0116131Y0134055D01*
X0116149Y0134037D01*
X0116750Y0132586D01*
X0116750Y0131014D01*
X0116149Y0129562D01*
X0115037Y0128451D01*
X0113586Y0127850D01*
X0112014Y0127850D01*
X0110562Y0128451D01*
X0109451Y0129562D01*
X0108850Y0131014D01*
X0108850Y0132586D01*
X0109337Y0133762D01*
X0108888Y0148180D01*
X0108866Y0148124D01*
X0108855Y0148113D01*
X0108849Y0148099D01*
X0108423Y0147673D01*
X0108002Y0147244D01*
X0107988Y0147238D01*
X0107977Y0147227D01*
X0107421Y0146996D01*
X0102410Y0144864D01*
X0101830Y0144285D01*
X0100378Y0143683D01*
X0098807Y0143683D01*
X0097355Y0144285D01*
X0096244Y0145396D01*
X0095643Y0146848D01*
X0095643Y0148419D01*
X0096244Y0149871D01*
X0097195Y0150822D01*
X0096808Y0150822D01*
X0089829Y0144268D01*
X0089829Y0139877D01*
X0090277Y0139428D01*
X0090879Y0137977D01*
X0090879Y0136405D01*
X0090277Y0134953D01*
X0089472Y0134148D01*
X0089472Y0132888D01*
X0088870Y0131436D01*
X0087759Y0130325D01*
X0086707Y0129889D01*
X0087077Y0129171D01*
X0087256Y0129097D01*
X0088367Y0127986D01*
X0088968Y0126534D01*
X0088968Y0124963D01*
X0088367Y0123511D01*
X0087256Y0122400D01*
X0085804Y0121798D01*
X0084232Y0121798D01*
X0082781Y0122400D01*
X0081669Y0123511D01*
X0081068Y0124963D01*
X0081068Y0125988D01*
X0077834Y0132251D01*
X0077656Y0132325D01*
X0076613Y0133367D01*
X0073605Y0134637D01*
X0073012Y0134872D01*
X0072984Y0134899D01*
X0072948Y0134915D01*
X0072499Y0135369D01*
X0072041Y0135813D01*
X0072026Y0135849D01*
X0071998Y0135877D01*
X0071758Y0136469D01*
X0071504Y0137055D01*
X0071504Y0137094D01*
X0071489Y0137130D01*
X0071493Y0137769D01*
X0071406Y0143387D01*
X0071335Y0143694D01*
X0071396Y0144056D01*
X0071390Y0144423D01*
X0071506Y0144717D01*
X0071558Y0145028D01*
X0071753Y0145340D01*
X0071888Y0145681D01*
X0072108Y0145908D01*
X0073611Y0148313D01*
X0073633Y0148409D01*
X0073968Y0148883D01*
X0074275Y0149375D01*
X0074356Y0149433D01*
X0077757Y0154249D01*
X0077757Y0154733D01*
X0078359Y0156185D01*
X0079470Y0157296D01*
X0080922Y0157898D01*
X0082493Y0157898D01*
X0083945Y0157296D01*
X0083954Y0157287D01*
X0084020Y0157417D01*
X0084216Y0157889D01*
X0084308Y0157980D01*
X0084367Y0158096D01*
X0084755Y0158428D01*
X0085977Y0159650D01*
X0084933Y0159650D01*
X0083977Y0160046D01*
X0083900Y0160123D01*
X0083823Y0160046D01*
X0082867Y0159650D01*
X0081661Y0159650D01*
X0076104Y0154093D01*
X0076104Y0153883D01*
X0075503Y0152431D01*
X0074392Y0151320D01*
X0072940Y0150719D01*
X0071369Y0150719D01*
X0069917Y0151320D01*
X0068806Y0152431D01*
X0068624Y0152870D01*
X0067243Y0151489D01*
X0068157Y0150574D01*
X0068758Y0149123D01*
X0068758Y0147551D01*
X0068157Y0146100D01*
X0067046Y0144988D01*
X0065594Y0144387D01*
X0064227Y0144387D01*
X0062829Y0143633D01*
X0062710Y0143514D01*
X0062273Y0143333D01*
X0061857Y0143108D01*
X0061690Y0143091D01*
X0061534Y0143026D01*
X0061061Y0143026D01*
X0060591Y0142978D01*
X0060430Y0143026D01*
X0058347Y0143026D01*
X0058274Y0143000D01*
X0057713Y0143026D01*
X0057150Y0143026D01*
X0057079Y0143056D01*
X0057003Y0143059D01*
X0056494Y0143298D01*
X0055974Y0143514D01*
X0055920Y0143568D01*
X0055850Y0143601D01*
X0055472Y0144016D01*
X0055074Y0144414D01*
X0055045Y0144485D01*
X0044736Y0155798D01*
X0044304Y0156996D01*
X0044363Y0158267D01*
X0044430Y0158410D01*
X0044430Y0159858D01*
X0043977Y0160046D01*
X0043302Y0160721D01*
X0043045Y0160573D01*
X0042587Y0160450D01*
X0041400Y0160450D01*
X0041400Y0165000D01*
X0041400Y0165000D01*
X0041400Y0169550D01*
X0042587Y0169550D01*
X0043045Y0169427D01*
X0043302Y0169279D01*
X0043977Y0169954D01*
X0044933Y0170350D01*
X0047867Y0170350D01*
X0048823Y0169954D01*
X0048900Y0169877D01*
X0048977Y0169954D01*
X0049933Y0170350D01*
X0052867Y0170350D01*
X0053823Y0169954D01*
X0053900Y0169877D01*
X0053977Y0169954D01*
X0054933Y0170350D01*
X0057867Y0170350D01*
X0058823Y0169954D01*
X0058900Y0169877D01*
X0058977Y0169954D01*
X0059933Y0170350D01*
X0062867Y0170350D01*
X0063823Y0169954D01*
X0063900Y0169877D01*
X0063977Y0169954D01*
X0064933Y0170350D01*
X0067867Y0170350D01*
X0068823Y0169954D01*
X0068900Y0169877D01*
X0068977Y0169954D01*
X0069933Y0170350D01*
X0072867Y0170350D01*
X0073823Y0169954D01*
X0073900Y0169877D01*
X0073977Y0169954D01*
X0074933Y0170350D01*
X0077867Y0170350D01*
X0078823Y0169954D01*
X0078900Y0169877D01*
X0078977Y0169954D01*
X0079933Y0170350D01*
X0082867Y0170350D01*
X0083823Y0169954D01*
X0083900Y0169877D01*
X0083977Y0169954D01*
X0084933Y0170350D01*
X0085141Y0170350D01*
X0085286Y0170495D01*
X0086352Y0170936D01*
X0088209Y0170936D01*
X0089275Y0170495D01*
X0089481Y0170288D01*
X0089830Y0170433D01*
X0091063Y0170433D01*
X0092202Y0169961D01*
X0093678Y0168485D01*
X0093678Y0176932D01*
X0091410Y0180270D01*
X0091227Y0180087D01*
X0090950Y0179973D01*
X0085954Y0174503D01*
X0085954Y0173989D01*
X0085353Y0172538D01*
X0084241Y0171427D01*
X0082790Y0170825D01*
X0081218Y0170825D01*
X0079829Y0171401D01*
X0041110Y0171859D01*
X0036156Y0167258D01*
X0036156Y0127234D01*
X0036706Y0125906D01*
X0036706Y0124334D01*
X0036105Y0122883D01*
X0034993Y0121771D01*
X0033542Y0121170D01*
X0033190Y0121170D01*
X0016220Y0104200D01*
X0016027Y0104120D01*
X0016007Y0104071D01*
X0014881Y0102945D01*
X0016007Y0101819D01*
X0016762Y0099995D01*
X0016762Y0099985D01*
X0024548Y0092200D01*
X0050635Y0092200D01*
X0052179Y0091561D01*
X0053361Y0090379D01*
X0054000Y0088835D01*
X0054000Y0087165D01*
X0053766Y0086600D01*
X0076637Y0086600D01*
X0077387Y0086653D01*
X0077546Y0086600D01*
X0077715Y0086600D01*
X0078410Y0086312D01*
X0079123Y0086075D01*
X0079250Y0085964D01*
X0079406Y0085900D01*
X0079937Y0085368D01*
X0080505Y0084876D01*
X0080581Y0084725D01*
X0080700Y0084606D01*
X0080987Y0083911D01*
X0086324Y0073239D01*
X0086453Y0071413D01*
X0085875Y0069677D01*
X0084676Y0068295D01*
X0083039Y0067476D01*
X0081213Y0067347D01*
X0079477Y0067925D01*
X0078095Y0069124D01*
X0073957Y0077400D01*
X0040885Y0077400D01*
X0039194Y0078100D01*
X0037900Y0079394D01*
X0037200Y0081085D01*
X0037200Y0082915D01*
X0037567Y0083800D01*
X0021972Y0083800D01*
X0020429Y0084439D01*
X0015547Y0089321D01*
X0015360Y0088952D01*
X0014975Y0088422D01*
X0014511Y0087959D01*
X0013981Y0087574D01*
X0013398Y0087277D01*
X0012775Y0087074D01*
X0012128Y0086972D01*
X0011800Y0086972D01*
X0011800Y0091134D01*
X0011800Y0091134D01*
X0007638Y0091134D01*
X0007638Y0091461D01*
X0007740Y0092109D01*
X0007943Y0092732D01*
X0008240Y0093315D01*
X0008625Y0093845D01*
X0009088Y0094309D01*
X0009484Y0094596D01*
X0008989Y0094801D01*
X0007593Y0096197D01*
X0006838Y0098021D01*
X0006838Y0099995D01*
X0007593Y0101819D01*
X0008719Y0102945D01*
X0007593Y0104071D01*
X0006838Y0105895D01*
X0006838Y0107869D01*
X0007593Y0109693D01*
X0008719Y0110819D01*
X0007593Y0111945D01*
X0006838Y0113769D01*
X0006838Y0115743D01*
X0007593Y0117567D01*
X0008719Y0118693D01*
X0007593Y0119819D01*
X0006838Y0121643D01*
X0006838Y0123617D01*
X0007593Y0125441D01*
X0008719Y0126567D01*
X0007593Y0127693D01*
X0006838Y0129517D01*
X0006838Y0131491D01*
X0007593Y0133315D01*
X0008719Y0134441D01*
X0007593Y0135567D01*
X0006838Y0137391D01*
X0006838Y0139365D01*
X0007593Y0141189D01*
X0008719Y0142315D01*
X0007593Y0143441D01*
X0006838Y0145265D01*
X0006838Y0147239D01*
X0007593Y0149063D01*
X0008719Y0150189D01*
X0007593Y0151315D01*
X0006838Y0153139D01*
X0006838Y0155113D01*
X0007593Y0156937D01*
X0008053Y0157397D01*
X0007965Y0157434D01*
X0007234Y0158165D01*
X0006838Y0159121D01*
X0006838Y0164879D01*
X0007234Y0165835D01*
X0007965Y0166566D01*
X0008921Y0166962D01*
X0014679Y0166962D01*
X0015635Y0166566D01*
X0016366Y0165835D01*
X0016762Y0164879D01*
X0016762Y0159121D01*
X0016366Y0158165D01*
X0015635Y0157434D01*
X0015547Y0157397D01*
X0016007Y0156937D01*
X0016762Y0155113D01*
X0016762Y0153139D01*
X0016007Y0151315D01*
X0014881Y0150189D01*
X0016007Y0149063D01*
X0016762Y0147239D01*
X0016762Y0145265D01*
X0016007Y0143441D01*
X0014881Y0142315D01*
X0016007Y0141189D01*
X0016762Y0139365D01*
X0016762Y0137391D01*
X0016007Y0135567D01*
X0014881Y0134441D01*
X0016007Y0133315D01*
X0016762Y0131491D01*
X0016762Y0129517D01*
X0016007Y0127693D01*
X0014881Y0126567D01*
X0016007Y0125441D01*
X0016762Y0123617D01*
X0016762Y0121643D01*
X0016007Y0119819D01*
X0014881Y0118693D01*
X0016007Y0117567D01*
X0016762Y0115743D01*
X0016762Y0113769D01*
X0016579Y0113328D01*
X0028806Y0125554D01*
X0028806Y0125906D01*
X0029356Y0127234D01*
X0029356Y0168128D01*
X0029333Y0168189D01*
X0029356Y0168803D01*
X0029356Y0169416D01*
X0029381Y0169476D01*
X0029383Y0169541D01*
X0029639Y0170099D01*
X0029874Y0170666D01*
X0029919Y0170712D01*
X0029946Y0170771D01*
X0030396Y0171188D01*
X0030830Y0171622D01*
X0030890Y0171647D01*
X0037446Y0177737D01*
X0037577Y0177865D01*
X0037020Y0179211D01*
X0037020Y0180782D01*
X0037271Y0181387D01*
X0032815Y0197643D01*
X0032688Y0197770D01*
X0032170Y0199019D01*
X0032170Y0200372D01*
X0032688Y0201622D01*
X0034798Y0203732D01*
X0034798Y0203732D01*
X0035755Y0204689D01*
X0037004Y0205206D01*
X0037850Y0205206D01*
X0037850Y0208267D01*
X0037988Y0208600D01*
X0005200Y0208600D01*
X0005200Y0208208D02*
X0037850Y0208208D01*
X0037850Y0206609D02*
X0005200Y0206609D01*
X0005200Y0205011D02*
X0036533Y0205011D01*
X0034479Y0203412D02*
X0005200Y0203412D01*
X0005200Y0201814D02*
X0032880Y0201814D01*
X0032170Y0200215D02*
X0005200Y0200215D01*
X0005200Y0198617D02*
X0032337Y0198617D01*
X0032986Y0197018D02*
X0005200Y0197018D01*
X0005200Y0195420D02*
X0033424Y0195420D01*
X0033862Y0193821D02*
X0005200Y0193821D01*
X0005200Y0192223D02*
X0034300Y0192223D01*
X0034739Y0190624D02*
X0005200Y0190624D01*
X0005200Y0189026D02*
X0035177Y0189026D01*
X0035615Y0187427D02*
X0005200Y0187427D01*
X0005200Y0185829D02*
X0036053Y0185829D01*
X0036491Y0184230D02*
X0005200Y0184230D01*
X0005200Y0182632D02*
X0036930Y0182632D01*
X0037124Y0181033D02*
X0005200Y0181033D01*
X0005200Y0179435D02*
X0037020Y0179435D01*
X0037548Y0177836D02*
X0005200Y0177836D01*
X0005200Y0176238D02*
X0035832Y0176238D01*
X0034111Y0174639D02*
X0005200Y0174639D01*
X0005200Y0173041D02*
X0032390Y0173041D01*
X0030650Y0171442D02*
X0005200Y0171442D01*
X0005200Y0169844D02*
X0029522Y0169844D01*
X0029335Y0168245D02*
X0005200Y0168245D01*
X0005200Y0166647D02*
X0008159Y0166647D01*
X0006908Y0165048D02*
X0005200Y0165048D01*
X0005200Y0163450D02*
X0006838Y0163450D01*
X0006838Y0161851D02*
X0005200Y0161851D01*
X0005200Y0160253D02*
X0006838Y0160253D01*
X0007031Y0158654D02*
X0005200Y0158654D01*
X0005200Y0157056D02*
X0007712Y0157056D01*
X0006980Y0155457D02*
X0005200Y0155457D01*
X0005200Y0153859D02*
X0006838Y0153859D01*
X0007202Y0152260D02*
X0005200Y0152260D01*
X0005200Y0150662D02*
X0008247Y0150662D01*
X0007593Y0149063D02*
X0005200Y0149063D01*
X0005200Y0147465D02*
X0006931Y0147465D01*
X0006838Y0145866D02*
X0005200Y0145866D01*
X0005200Y0144268D02*
X0007251Y0144268D01*
X0008365Y0142669D02*
X0005200Y0142669D01*
X0005200Y0141070D02*
X0007544Y0141070D01*
X0006882Y0139472D02*
X0005200Y0139472D01*
X0005200Y0137873D02*
X0006838Y0137873D01*
X0007300Y0136275D02*
X0005200Y0136275D01*
X0005200Y0134676D02*
X0008484Y0134676D01*
X0007495Y0133078D02*
X0005200Y0133078D01*
X0005200Y0131479D02*
X0006838Y0131479D01*
X0006838Y0129881D02*
X0005200Y0129881D01*
X0005200Y0128282D02*
X0007349Y0128282D01*
X0008602Y0126684D02*
X0005200Y0126684D01*
X0005200Y0125085D02*
X0007446Y0125085D01*
X0006838Y0123487D02*
X0005200Y0123487D01*
X0005200Y0121888D02*
X0006838Y0121888D01*
X0007398Y0120290D02*
X0005200Y0120290D01*
X0005200Y0118691D02*
X0008718Y0118691D01*
X0007397Y0117093D02*
X0005200Y0117093D01*
X0005200Y0115494D02*
X0006838Y0115494D01*
X0006838Y0113896D02*
X0005200Y0113896D01*
X0005200Y0112297D02*
X0007447Y0112297D01*
X0008599Y0110699D02*
X0005200Y0110699D01*
X0005200Y0109100D02*
X0007348Y0109100D01*
X0006838Y0107502D02*
X0005200Y0107502D01*
X0005200Y0105903D02*
X0006838Y0105903D01*
X0007496Y0104305D02*
X0005200Y0104305D01*
X0005200Y0102706D02*
X0008481Y0102706D01*
X0007299Y0101108D02*
X0005200Y0101108D01*
X0005200Y0099509D02*
X0006838Y0099509D01*
X0006883Y0097911D02*
X0005200Y0097911D01*
X0005200Y0096312D02*
X0007546Y0096312D01*
X0009200Y0094714D02*
X0005200Y0094714D01*
X0005200Y0093115D02*
X0008138Y0093115D01*
X0007647Y0091517D02*
X0005200Y0091517D01*
X0005200Y0089918D02*
X0007819Y0089918D01*
X0007740Y0090159D02*
X0007943Y0089536D01*
X0008240Y0088952D01*
X0008625Y0088422D01*
X0009088Y0087959D01*
X0009619Y0087574D01*
X0010202Y0087277D01*
X0010825Y0087074D01*
X0011472Y0086972D01*
X0011800Y0086972D01*
X0011800Y0091134D01*
X0007638Y0091134D01*
X0007638Y0090806D01*
X0007740Y0090159D01*
X0008728Y0088320D02*
X0005200Y0088320D01*
X0005200Y0086721D02*
X0018147Y0086721D01*
X0019746Y0085123D02*
X0005200Y0085123D01*
X0005200Y0083524D02*
X0037452Y0083524D01*
X0037200Y0081926D02*
X0005200Y0081926D01*
X0005200Y0080327D02*
X0037514Y0080327D01*
X0038566Y0078729D02*
X0005200Y0078729D01*
X0005200Y0077130D02*
X0074092Y0077130D01*
X0074891Y0075532D02*
X0005200Y0075532D01*
X0005200Y0073933D02*
X0075691Y0073933D01*
X0076490Y0072334D02*
X0005200Y0072334D01*
X0005200Y0070736D02*
X0077289Y0070736D01*
X0078088Y0069137D02*
X0005200Y0069137D01*
X0005200Y0067539D02*
X0080637Y0067539D01*
X0082173Y0066149D02*
X0081572Y0064698D01*
X0081572Y0064501D01*
X0076191Y0058115D01*
X0075249Y0057725D01*
X0074138Y0056614D01*
X0073536Y0055162D01*
X0073536Y0053591D01*
X0074138Y0052139D01*
X0075249Y0051028D01*
X0076701Y0050426D01*
X0078272Y0050426D01*
X0079724Y0051028D01*
X0080835Y0052139D01*
X0081436Y0053591D01*
X0081436Y0053787D01*
X0086817Y0060173D01*
X0087759Y0060563D01*
X0088870Y0061674D01*
X0089472Y0063126D01*
X0089472Y0064698D01*
X0088870Y0066149D01*
X0087759Y0067260D01*
X0086307Y0067862D01*
X0084736Y0067862D01*
X0083284Y0067260D01*
X0082173Y0066149D01*
X0082087Y0065940D02*
X0005200Y0065940D01*
X0005200Y0064342D02*
X0081438Y0064342D01*
X0080091Y0062743D02*
X0005200Y0062743D01*
X0005200Y0061145D02*
X0078744Y0061145D01*
X0077397Y0059546D02*
X0005200Y0059546D01*
X0005200Y0057948D02*
X0075787Y0057948D01*
X0074028Y0056349D02*
X0005200Y0056349D01*
X0005200Y0054751D02*
X0073536Y0054751D01*
X0073718Y0053152D02*
X0005200Y0053152D01*
X0005200Y0051554D02*
X0068058Y0051554D01*
X0071542Y0051554D02*
X0074723Y0051554D01*
X0073266Y0049955D02*
X0128400Y0049955D01*
X0128400Y0048357D02*
X0073803Y0048357D01*
X0074400Y0046758D02*
X0128400Y0046758D01*
X0128400Y0045160D02*
X0074400Y0045160D01*
X0073769Y0043561D02*
X0098076Y0043561D01*
X0101524Y0043561D02*
X0128400Y0043561D01*
X0128400Y0041963D02*
X0103262Y0041963D01*
X0103778Y0040364D02*
X0128400Y0040364D01*
X0128400Y0038766D02*
X0104376Y0038766D01*
X0104400Y0037167D02*
X0128400Y0037167D01*
X0128400Y0035569D02*
X0103802Y0035569D01*
X0102050Y0033970D02*
X0128400Y0033970D01*
X0128400Y0032372D02*
X0070353Y0032372D01*
X0072074Y0041963D02*
X0081423Y0041963D01*
X0080250Y0051554D02*
X0128400Y0051554D01*
X0128400Y0053152D02*
X0081255Y0053152D01*
X0082248Y0054751D02*
X0128400Y0054751D01*
X0128400Y0056349D02*
X0083595Y0056349D01*
X0084942Y0057948D02*
X0128400Y0057948D01*
X0128400Y0059546D02*
X0116132Y0059546D01*
X0116536Y0059951D02*
X0117231Y0061630D01*
X0117231Y0063447D01*
X0116536Y0065126D01*
X0115251Y0066412D01*
X0113572Y0067107D01*
X0111754Y0067107D01*
X0110075Y0066412D01*
X0108790Y0065126D01*
X0108094Y0063447D01*
X0108094Y0061630D01*
X0108790Y0059951D01*
X0110075Y0058666D01*
X0111754Y0057970D01*
X0113572Y0057970D01*
X0115251Y0058666D01*
X0116536Y0059951D01*
X0117031Y0061145D02*
X0128400Y0061145D01*
X0128400Y0062743D02*
X0117231Y0062743D01*
X0116861Y0064342D02*
X0128400Y0064342D01*
X0128400Y0065940D02*
X0115722Y0065940D01*
X0109604Y0065940D02*
X0088957Y0065940D01*
X0089472Y0064342D02*
X0108465Y0064342D01*
X0108094Y0062743D02*
X0089313Y0062743D01*
X0088341Y0061145D02*
X0108295Y0061145D01*
X0109194Y0059546D02*
X0086289Y0059546D01*
X0085522Y0063912D02*
X0077486Y0054376D01*
X0069800Y0048000D02*
X0069800Y0046000D01*
X0065263Y0041400D02*
X0059606Y0041203D01*
X0054352Y0041400D01*
X0065263Y0041400D01*
X0063825Y0030773D02*
X0128400Y0030773D01*
X0128400Y0029175D02*
X0063831Y0029175D01*
X0063838Y0027576D02*
X0128400Y0027576D01*
X0128400Y0025978D02*
X0063845Y0025978D01*
X0063852Y0024379D02*
X0128400Y0024379D01*
X0128400Y0022781D02*
X0063859Y0022781D01*
X0063865Y0021182D02*
X0068473Y0021182D01*
X0067473Y0019584D02*
X0063872Y0019584D01*
X0063879Y0017985D02*
X0067199Y0017985D01*
X0067172Y0016387D02*
X0063886Y0016387D01*
X0063892Y0014788D02*
X0067144Y0014788D01*
X0067117Y0013190D02*
X0063899Y0013190D01*
X0063661Y0011591D02*
X0067090Y0011591D01*
X0076120Y0019584D02*
X0128400Y0019584D01*
X0128400Y0021182D02*
X0075122Y0021182D01*
X0076400Y0017985D02*
X0128400Y0017985D01*
X0128400Y0016387D02*
X0076373Y0016387D01*
X0076346Y0014788D02*
X0128400Y0014788D01*
X0128400Y0013190D02*
X0076318Y0013190D01*
X0076291Y0011591D02*
X0128400Y0011591D01*
X0128400Y0009993D02*
X0076264Y0009993D01*
X0076236Y0008394D02*
X0128400Y0008394D01*
X0128400Y0006796D02*
X0076209Y0006796D01*
X0056004Y0010953D02*
X0046842Y0010985D01*
X0046458Y0041400D01*
X0050505Y0041400D01*
X0049142Y0040895D01*
X0047801Y0039650D01*
X0047038Y0037987D01*
X0046969Y0036158D01*
X0047605Y0034442D01*
X0048850Y0033101D01*
X0050513Y0032338D01*
X0055419Y0032154D01*
X0055504Y0012147D01*
X0056004Y0010953D01*
X0055737Y0011591D02*
X0046835Y0011591D01*
X0046815Y0013190D02*
X0055499Y0013190D01*
X0055492Y0014788D02*
X0046794Y0014788D01*
X0046774Y0016387D02*
X0055486Y0016387D01*
X0055479Y0017985D02*
X0046754Y0017985D01*
X0046734Y0019584D02*
X0055472Y0019584D01*
X0055465Y0021182D02*
X0046714Y0021182D01*
X0046694Y0022781D02*
X0055459Y0022781D01*
X0055452Y0024379D02*
X0046673Y0024379D01*
X0046653Y0025978D02*
X0055445Y0025978D01*
X0055438Y0027576D02*
X0046633Y0027576D01*
X0046613Y0029175D02*
X0055431Y0029175D01*
X0055425Y0030773D02*
X0046593Y0030773D01*
X0046572Y0032372D02*
X0050439Y0032372D01*
X0048043Y0033970D02*
X0046552Y0033970D01*
X0046532Y0035569D02*
X0047188Y0035569D01*
X0047007Y0037167D02*
X0046512Y0037167D01*
X0046492Y0038766D02*
X0047395Y0038766D01*
X0046472Y0040364D02*
X0048571Y0040364D01*
X0039329Y0049955D02*
X0005200Y0049955D01*
X0005200Y0048357D02*
X0037788Y0048357D01*
X0037190Y0046758D02*
X0005200Y0046758D01*
X0005200Y0045160D02*
X0037200Y0045160D01*
X0037230Y0043561D02*
X0005200Y0043561D01*
X0005200Y0041963D02*
X0037251Y0041963D01*
X0037271Y0040364D02*
X0005200Y0040364D01*
X0005200Y0038766D02*
X0037291Y0038766D01*
X0037311Y0037167D02*
X0005200Y0037167D01*
X0005200Y0035569D02*
X0037331Y0035569D01*
X0037352Y0033970D02*
X0005200Y0033970D01*
X0005200Y0032372D02*
X0037372Y0032372D01*
X0037392Y0030773D02*
X0005200Y0030773D01*
X0005200Y0029175D02*
X0037412Y0029175D01*
X0037432Y0027576D02*
X0005200Y0027576D01*
X0005200Y0025978D02*
X0037452Y0025978D01*
X0037473Y0024379D02*
X0005200Y0024379D01*
X0005200Y0022781D02*
X0037493Y0022781D01*
X0037513Y0021182D02*
X0005200Y0021182D01*
X0005200Y0019584D02*
X0037533Y0019584D01*
X0037553Y0017985D02*
X0005200Y0017985D01*
X0005200Y0016387D02*
X0037574Y0016387D01*
X0037594Y0014788D02*
X0005200Y0014788D01*
X0005200Y0013190D02*
X0037614Y0013190D01*
X0037634Y0011591D02*
X0005200Y0011591D01*
X0005200Y0009993D02*
X0037654Y0009993D01*
X0037674Y0008394D02*
X0005200Y0008394D01*
X0005200Y0006796D02*
X0037695Y0006796D01*
X0083164Y0067539D02*
X0083957Y0067539D01*
X0085406Y0069137D02*
X0128400Y0069137D01*
X0128400Y0067539D02*
X0087087Y0067539D01*
X0086227Y0070736D02*
X0128400Y0070736D01*
X0128400Y0072334D02*
X0086388Y0072334D01*
X0085976Y0073933D02*
X0128400Y0073933D01*
X0128400Y0075532D02*
X0114148Y0075532D01*
X0113572Y0075293D02*
X0115251Y0075988D01*
X0116536Y0077274D01*
X0117231Y0078953D01*
X0117231Y0080770D01*
X0116536Y0082449D01*
X0115251Y0083734D01*
X0113572Y0084430D01*
X0111754Y0084430D01*
X0110075Y0083734D01*
X0108790Y0082449D01*
X0108094Y0080770D01*
X0108094Y0078953D01*
X0108790Y0077274D01*
X0110075Y0075988D01*
X0111754Y0075293D01*
X0113572Y0075293D01*
X0111178Y0075532D02*
X0085177Y0075532D01*
X0084378Y0077130D02*
X0108934Y0077130D01*
X0108187Y0078729D02*
X0083579Y0078729D01*
X0082779Y0080327D02*
X0108094Y0080327D01*
X0108573Y0081926D02*
X0081980Y0081926D01*
X0081181Y0083524D02*
X0109865Y0083524D01*
X0110835Y0091118D02*
X0109383Y0091719D01*
X0108272Y0092830D01*
X0108052Y0093362D01*
X0093972Y0102760D01*
X0093393Y0102760D01*
X0091941Y0103362D01*
X0090830Y0104473D01*
X0090228Y0105925D01*
X0090228Y0107496D01*
X0090830Y0108948D01*
X0091941Y0110059D01*
X0093393Y0110660D01*
X0094964Y0110660D01*
X0096416Y0110059D01*
X0097527Y0108948D01*
X0097747Y0108416D01*
X0111827Y0099018D01*
X0112407Y0099018D01*
X0113858Y0098416D01*
X0114970Y0097305D01*
X0115571Y0095853D01*
X0115571Y0094282D01*
X0114970Y0092830D01*
X0113858Y0091719D01*
X0112407Y0091118D01*
X0110835Y0091118D01*
X0109872Y0091517D02*
X0092985Y0091517D01*
X0093908Y0093115D02*
X0108154Y0093115D01*
X0106027Y0094714D02*
X0095496Y0094714D01*
X0095616Y0094834D02*
X0096218Y0096286D01*
X0096218Y0097857D01*
X0095616Y0099309D01*
X0094505Y0100420D01*
X0093053Y0101021D01*
X0091482Y0101021D01*
X0090030Y0100420D01*
X0088919Y0099309D01*
X0088318Y0097857D01*
X0088318Y0097031D01*
X0085014Y0091315D01*
X0084691Y0091181D01*
X0083580Y0090070D01*
X0082979Y0088618D01*
X0082979Y0087047D01*
X0083580Y0085595D01*
X0084691Y0084484D01*
X0086143Y0083882D01*
X0087714Y0083882D01*
X0089166Y0084484D01*
X0090277Y0085595D01*
X0090879Y0087047D01*
X0090879Y0087872D01*
X0094182Y0093589D01*
X0094505Y0093723D01*
X0095616Y0094834D01*
X0096218Y0096312D02*
X0103632Y0096312D01*
X0101237Y0097911D02*
X0096195Y0097911D01*
X0095416Y0099509D02*
X0098842Y0099509D01*
X0096448Y0101108D02*
X0016301Y0101108D01*
X0017238Y0099509D02*
X0089120Y0099509D01*
X0088340Y0097911D02*
X0018837Y0097911D01*
X0020435Y0096312D02*
X0087902Y0096312D01*
X0086978Y0094714D02*
X0022034Y0094714D01*
X0023632Y0093115D02*
X0086055Y0093115D01*
X0085131Y0091517D02*
X0052223Y0091517D01*
X0053552Y0089918D02*
X0083517Y0089918D01*
X0082979Y0088320D02*
X0054000Y0088320D01*
X0053816Y0086721D02*
X0083114Y0086721D01*
X0084052Y0085123D02*
X0080220Y0085123D01*
X0086929Y0087832D02*
X0092268Y0097071D01*
X0094200Y0099800D02*
X0092000Y0102000D01*
X0090998Y0104305D02*
X0016325Y0104305D01*
X0015119Y0102706D02*
X0094053Y0102706D01*
X0094178Y0106710D02*
X0111621Y0095068D01*
X0114364Y0097911D02*
X0128400Y0097911D01*
X0128400Y0099509D02*
X0111091Y0099509D01*
X0108696Y0101108D02*
X0128400Y0101108D01*
X0128400Y0102706D02*
X0106301Y0102706D01*
X0103906Y0104305D02*
X0128400Y0104305D01*
X0128400Y0105903D02*
X0101512Y0105903D01*
X0099117Y0107502D02*
X0128400Y0107502D01*
X0128400Y0109100D02*
X0097374Y0109100D01*
X0090982Y0109100D02*
X0021120Y0109100D01*
X0019522Y0107502D02*
X0090231Y0107502D01*
X0090237Y0105903D02*
X0017923Y0105903D01*
X0022719Y0110699D02*
X0128400Y0110699D01*
X0128400Y0112297D02*
X0024317Y0112297D01*
X0025916Y0113896D02*
X0128400Y0113896D01*
X0128400Y0115494D02*
X0027514Y0115494D01*
X0029113Y0117093D02*
X0128400Y0117093D01*
X0128400Y0118691D02*
X0030711Y0118691D01*
X0032310Y0120290D02*
X0128400Y0120290D01*
X0128400Y0121888D02*
X0086021Y0121888D01*
X0088343Y0123487D02*
X0128400Y0123487D01*
X0128400Y0125085D02*
X0088968Y0125085D01*
X0088906Y0126684D02*
X0128400Y0126684D01*
X0128400Y0128282D02*
X0114630Y0128282D01*
X0116281Y0129881D02*
X0128400Y0129881D01*
X0128400Y0131479D02*
X0116750Y0131479D01*
X0116546Y0133078D02*
X0128400Y0133078D01*
X0128400Y0134676D02*
X0116112Y0134676D01*
X0116062Y0136275D02*
X0128400Y0136275D01*
X0128400Y0137873D02*
X0116012Y0137873D01*
X0115963Y0139472D02*
X0128400Y0139472D01*
X0128400Y0141070D02*
X0115913Y0141070D01*
X0115863Y0142669D02*
X0128400Y0142669D01*
X0128400Y0144268D02*
X0115813Y0144268D01*
X0115763Y0145866D02*
X0128400Y0145866D01*
X0128400Y0147465D02*
X0115714Y0147465D01*
X0115664Y0149063D02*
X0128400Y0149063D01*
X0128400Y0150662D02*
X0115614Y0150662D01*
X0115564Y0152260D02*
X0128400Y0152260D01*
X0128400Y0153859D02*
X0115514Y0153859D01*
X0115465Y0155457D02*
X0128400Y0155457D01*
X0128400Y0157056D02*
X0115415Y0157056D01*
X0115365Y0158654D02*
X0121755Y0158654D01*
X0122900Y0158654D02*
X0123300Y0158654D01*
X0124445Y0158654D02*
X0128400Y0158654D01*
X0128400Y0160253D02*
X0127131Y0160253D01*
X0128178Y0161851D02*
X0128400Y0161851D01*
X0128400Y0165487D02*
X0128197Y0166111D01*
X0127804Y0166883D01*
X0127295Y0167583D01*
X0126683Y0168195D01*
X0125983Y0168704D01*
X0125211Y0169097D01*
X0124388Y0169365D01*
X0123533Y0169500D01*
X0123300Y0169500D01*
X0123300Y0164200D01*
X0122900Y0164200D01*
X0122900Y0169500D01*
X0122667Y0169500D01*
X0121812Y0169365D01*
X0120989Y0169097D01*
X0120217Y0168704D01*
X0119517Y0168195D01*
X0118905Y0167583D01*
X0118396Y0166883D01*
X0118003Y0166111D01*
X0117845Y0165626D01*
X0117041Y0167569D01*
X0115269Y0169341D01*
X0112953Y0170300D01*
X0111299Y0170300D01*
X0111788Y0170503D01*
X0117214Y0175928D01*
X0117283Y0175900D01*
X0125717Y0175900D01*
X0126673Y0176296D01*
X0127404Y0177027D01*
X0127800Y0177983D01*
X0127800Y0186417D01*
X0127404Y0187373D01*
X0126673Y0188104D01*
X0126419Y0188209D01*
X0127800Y0189590D01*
X0127800Y0194810D01*
X0125410Y0197200D01*
X0127800Y0199590D01*
X0127800Y0204810D01*
X0124110Y0208500D01*
X0118890Y0208500D01*
X0115934Y0205544D01*
X0113778Y0207700D01*
X0111700Y0207700D01*
X0111700Y0202400D01*
X0111300Y0202400D01*
X0111300Y0207700D01*
X0109222Y0207700D01*
X0106000Y0204478D01*
X0106000Y0202400D01*
X0111300Y0202400D01*
X0111300Y0202000D01*
X0106000Y0202000D01*
X0106000Y0199922D01*
X0108156Y0197766D01*
X0105200Y0194810D01*
X0105200Y0192658D01*
X0103867Y0191446D01*
X0103867Y0191447D01*
X0103849Y0191464D01*
X0103301Y0191690D01*
X0102757Y0191924D01*
X0102732Y0191924D01*
X0102709Y0191933D01*
X0102117Y0191932D01*
X0087806Y0192119D01*
X0082674Y0195676D01*
X0083129Y0196773D01*
X0083226Y0196813D01*
X0084183Y0197770D01*
X0084700Y0199019D01*
X0084700Y0199746D01*
X0084933Y0199650D01*
X0087867Y0199650D01*
X0088823Y0200046D01*
X0089554Y0200777D01*
X0089950Y0201733D01*
X0089950Y0208267D01*
X0089812Y0208600D01*
X0128400Y0208600D01*
X0128400Y0165487D01*
X0128400Y0166647D02*
X0127924Y0166647D01*
X0128400Y0168245D02*
X0126614Y0168245D01*
X0128400Y0169844D02*
X0114055Y0169844D01*
X0112728Y0171442D02*
X0128400Y0171442D01*
X0128400Y0173041D02*
X0114327Y0173041D01*
X0115925Y0174639D02*
X0128400Y0174639D01*
X0128400Y0176238D02*
X0126533Y0176238D01*
X0127739Y0177836D02*
X0128400Y0177836D01*
X0128400Y0179435D02*
X0127800Y0179435D01*
X0127800Y0181033D02*
X0128400Y0181033D01*
X0128400Y0182632D02*
X0127800Y0182632D01*
X0127800Y0184230D02*
X0128400Y0184230D01*
X0128400Y0185829D02*
X0127800Y0185829D01*
X0127350Y0187427D02*
X0128400Y0187427D01*
X0128400Y0189026D02*
X0127235Y0189026D01*
X0127800Y0190624D02*
X0128400Y0190624D01*
X0128400Y0192223D02*
X0127800Y0192223D01*
X0127800Y0193821D02*
X0128400Y0193821D01*
X0128400Y0195420D02*
X0127190Y0195420D01*
X0128400Y0197018D02*
X0125591Y0197018D01*
X0126826Y0198617D02*
X0128400Y0198617D01*
X0128400Y0200215D02*
X0127800Y0200215D01*
X0127800Y0201814D02*
X0128400Y0201814D01*
X0128400Y0203412D02*
X0127800Y0203412D01*
X0127599Y0205011D02*
X0128400Y0205011D01*
X0128400Y0206609D02*
X0126000Y0206609D01*
X0124402Y0208208D02*
X0128400Y0208208D01*
X0118598Y0208208D02*
X0089950Y0208208D01*
X0089950Y0206609D02*
X0108131Y0206609D01*
X0106533Y0205011D02*
X0089950Y0205011D01*
X0089950Y0203412D02*
X0106000Y0203412D01*
X0106000Y0201814D02*
X0089950Y0201814D01*
X0088992Y0200215D02*
X0106000Y0200215D01*
X0107305Y0198617D02*
X0084534Y0198617D01*
X0083431Y0197018D02*
X0107409Y0197018D01*
X0105810Y0195420D02*
X0083044Y0195420D01*
X0085350Y0193821D02*
X0105200Y0193821D01*
X0104721Y0192223D02*
X0087656Y0192223D01*
X0085039Y0183525D02*
X0085039Y0182695D01*
X0081413Y0178725D01*
X0081218Y0178725D01*
X0079950Y0178200D01*
X0044674Y0178618D01*
X0044920Y0179211D01*
X0044920Y0180782D01*
X0044319Y0182234D01*
X0043432Y0183121D01*
X0039242Y0198406D01*
X0041875Y0198406D01*
X0043124Y0198924D01*
X0044081Y0199880D01*
X0044124Y0199985D01*
X0044933Y0199650D01*
X0047867Y0199650D01*
X0048823Y0200046D01*
X0048900Y0200123D01*
X0048977Y0200046D01*
X0049255Y0199931D01*
X0049255Y0198356D01*
X0049742Y0197179D01*
X0050616Y0196306D01*
X0050616Y0196096D01*
X0051217Y0194644D01*
X0052328Y0193533D01*
X0053780Y0192931D01*
X0055351Y0192931D01*
X0056803Y0193533D01*
X0057914Y0194644D01*
X0058516Y0196096D01*
X0058516Y0197667D01*
X0057914Y0199119D01*
X0057383Y0199650D01*
X0057867Y0199650D01*
X0058823Y0200046D01*
X0058900Y0200123D01*
X0058977Y0200046D01*
X0059039Y0200020D01*
X0059106Y0199721D01*
X0059079Y0199131D01*
X0059512Y0197934D01*
X0060370Y0196994D01*
X0060985Y0196705D01*
X0059881Y0195601D01*
X0059280Y0194149D01*
X0059280Y0192578D01*
X0059881Y0191126D01*
X0060992Y0190015D01*
X0062444Y0189414D01*
X0064015Y0189414D01*
X0065467Y0190015D01*
X0065716Y0190264D01*
X0073408Y0190264D01*
X0082120Y0184235D01*
X0082359Y0183997D01*
X0082623Y0183887D01*
X0082858Y0183725D01*
X0083187Y0183654D01*
X0083498Y0183525D01*
X0083784Y0183525D01*
X0084063Y0183464D01*
X0084394Y0183525D01*
X0085039Y0183525D01*
X0084982Y0182632D02*
X0043921Y0182632D01*
X0043128Y0184230D02*
X0082125Y0184230D01*
X0079817Y0185829D02*
X0042689Y0185829D01*
X0042251Y0187427D02*
X0077507Y0187427D01*
X0075197Y0189026D02*
X0041813Y0189026D01*
X0041375Y0190624D02*
X0060383Y0190624D01*
X0059427Y0192223D02*
X0040937Y0192223D01*
X0040498Y0193821D02*
X0052040Y0193821D01*
X0050896Y0195420D02*
X0040060Y0195420D01*
X0039622Y0197018D02*
X0049903Y0197018D01*
X0049255Y0198617D02*
X0042383Y0198617D01*
X0041198Y0201806D02*
X0037681Y0201806D01*
X0035570Y0199696D01*
X0044816Y0181033D02*
X0083522Y0181033D01*
X0082062Y0179435D02*
X0044920Y0179435D01*
X0039791Y0175275D02*
X0082004Y0174775D01*
X0084257Y0171442D02*
X0093678Y0171442D01*
X0093678Y0169844D02*
X0092319Y0169844D01*
X0093678Y0173041D02*
X0085561Y0173041D01*
X0086078Y0174639D02*
X0093678Y0174639D01*
X0093678Y0176238D02*
X0087539Y0176238D01*
X0088999Y0177836D02*
X0093064Y0177836D01*
X0091978Y0179435D02*
X0090459Y0179435D01*
X0095132Y0185823D02*
X0099007Y0185772D01*
X0099008Y0185301D01*
X0099012Y0185291D01*
X0099059Y0180044D01*
X0095132Y0185823D01*
X0096215Y0184230D02*
X0099022Y0184230D01*
X0099036Y0182632D02*
X0097301Y0182632D01*
X0098387Y0181033D02*
X0099051Y0181033D01*
X0105264Y0179526D02*
X0105314Y0173971D01*
X0105314Y0173971D01*
X0105461Y0174416D01*
X0105534Y0174501D01*
X0105577Y0174604D01*
X0105908Y0174935D01*
X0106214Y0175291D01*
X0106313Y0175341D01*
X0106392Y0175420D01*
X0106826Y0175599D01*
X0107244Y0175810D01*
X0107355Y0175818D01*
X0107458Y0175861D01*
X0107927Y0175861D01*
X0108395Y0175896D01*
X0108500Y0175861D01*
X0108944Y0175861D01*
X0108983Y0175900D01*
X0108890Y0175900D01*
X0105264Y0179526D01*
X0105265Y0179435D02*
X0105356Y0179435D01*
X0105280Y0177836D02*
X0106954Y0177836D01*
X0108553Y0176238D02*
X0105294Y0176238D01*
X0105308Y0174639D02*
X0105612Y0174639D01*
X0105217Y0184826D02*
X0105296Y0184905D01*
X0105217Y0184833D01*
X0105217Y0184826D01*
X0116500Y0196110D02*
X0114844Y0197766D01*
X0115934Y0198856D01*
X0117590Y0197200D01*
X0116500Y0196110D01*
X0115591Y0197018D02*
X0117409Y0197018D01*
X0116174Y0198617D02*
X0115695Y0198617D01*
X0111700Y0203412D02*
X0111300Y0203412D01*
X0111300Y0205011D02*
X0111700Y0205011D01*
X0111700Y0206609D02*
X0111300Y0206609D01*
X0114869Y0206609D02*
X0117000Y0206609D01*
X0116364Y0168245D02*
X0119586Y0168245D01*
X0118276Y0166647D02*
X0117423Y0166647D01*
X0117629Y0161851D02*
X0118022Y0161851D01*
X0119069Y0160253D02*
X0116862Y0160253D01*
X0111800Y0163900D02*
X0112800Y0131800D01*
X0109054Y0133078D02*
X0089472Y0133078D01*
X0090000Y0134676D02*
X0109309Y0134676D01*
X0109259Y0136275D02*
X0090825Y0136275D01*
X0090879Y0137873D02*
X0109209Y0137873D01*
X0109159Y0139472D02*
X0090234Y0139472D01*
X0089829Y0141070D02*
X0109110Y0141070D01*
X0109060Y0142669D02*
X0089829Y0142669D01*
X0089829Y0144268D02*
X0097397Y0144268D01*
X0096049Y0145866D02*
X0091530Y0145866D01*
X0093233Y0147465D02*
X0095643Y0147465D01*
X0095909Y0149063D02*
X0094935Y0149063D01*
X0096637Y0150662D02*
X0097034Y0150662D01*
X0092828Y0155041D02*
X0088856Y0151311D01*
X0088879Y0151365D01*
X0088879Y0152855D01*
X0089550Y0154172D01*
X0093678Y0158300D01*
X0093678Y0157259D01*
X0093430Y0157010D01*
X0092828Y0155558D01*
X0092828Y0155041D01*
X0092828Y0155457D02*
X0090835Y0155457D01*
X0091569Y0153859D02*
X0089390Y0153859D01*
X0089867Y0152260D02*
X0088879Y0152260D01*
X0092434Y0157056D02*
X0093475Y0157056D01*
X0084981Y0158654D02*
X0080665Y0158654D01*
X0079229Y0157056D02*
X0079067Y0157056D01*
X0078057Y0155457D02*
X0077468Y0155457D01*
X0077482Y0153859D02*
X0076094Y0153859D01*
X0076353Y0152260D02*
X0075332Y0152260D01*
X0075224Y0150662D02*
X0068070Y0150662D01*
X0068014Y0152260D02*
X0068977Y0152260D01*
X0068758Y0149063D02*
X0074080Y0149063D01*
X0073081Y0147465D02*
X0068722Y0147465D01*
X0067923Y0145866D02*
X0072067Y0145866D01*
X0071392Y0144268D02*
X0064006Y0144268D01*
X0059694Y0152991D02*
X0058705Y0152991D01*
X0057253Y0152389D01*
X0056859Y0151996D01*
X0053727Y0155433D01*
X0053989Y0155542D01*
X0054138Y0155690D01*
X0059936Y0155690D01*
X0060233Y0155628D01*
X0060567Y0155690D01*
X0060906Y0155690D01*
X0061186Y0155806D01*
X0061485Y0155862D01*
X0061769Y0156048D01*
X0062082Y0156177D01*
X0062297Y0156392D01*
X0062551Y0156558D01*
X0062742Y0156838D01*
X0062982Y0157077D01*
X0063098Y0157358D01*
X0063270Y0157609D01*
X0063340Y0157940D01*
X0063469Y0158254D01*
X0063469Y0158557D01*
X0063779Y0160028D01*
X0063823Y0160046D01*
X0063900Y0160123D01*
X0063977Y0160046D01*
X0064933Y0159650D01*
X0066353Y0159650D01*
X0059694Y0152991D01*
X0060562Y0153859D02*
X0055162Y0153859D01*
X0053785Y0155457D02*
X0062160Y0155457D01*
X0062960Y0157056D02*
X0063759Y0157056D01*
X0063490Y0158654D02*
X0065357Y0158654D01*
X0057124Y0152260D02*
X0056618Y0152260D01*
X0052330Y0147465D02*
X0036156Y0147465D01*
X0036156Y0149063D02*
X0050873Y0149063D01*
X0049417Y0150662D02*
X0036156Y0150662D01*
X0036156Y0152260D02*
X0047960Y0152260D01*
X0046504Y0153859D02*
X0036156Y0153859D01*
X0036156Y0155457D02*
X0045047Y0155457D01*
X0044307Y0157056D02*
X0036156Y0157056D01*
X0036156Y0158654D02*
X0044430Y0158654D01*
X0043770Y0160253D02*
X0036156Y0160253D01*
X0036156Y0161851D02*
X0038693Y0161851D01*
X0038650Y0162013D02*
X0038773Y0161555D01*
X0039010Y0161145D01*
X0039345Y0160810D01*
X0039755Y0160573D01*
X0040213Y0160450D01*
X0041400Y0160450D01*
X0041400Y0165000D01*
X0041400Y0165000D01*
X0041400Y0165000D01*
X0038650Y0165000D01*
X0038650Y0167987D01*
X0038773Y0168445D01*
X0039010Y0168855D01*
X0039345Y0169190D01*
X0039755Y0169427D01*
X0040213Y0169550D01*
X0041400Y0169550D01*
X0041400Y0165000D01*
X0038650Y0165000D01*
X0038650Y0162013D01*
X0038650Y0163450D02*
X0036156Y0163450D01*
X0036156Y0165048D02*
X0038650Y0165048D01*
X0038650Y0166647D02*
X0036156Y0166647D01*
X0037219Y0168245D02*
X0038719Y0168245D01*
X0038940Y0169844D02*
X0043867Y0169844D01*
X0041400Y0168245D02*
X0041400Y0168245D01*
X0041400Y0166647D02*
X0041400Y0166647D01*
X0041400Y0165048D02*
X0041400Y0165048D01*
X0041400Y0163450D02*
X0041400Y0163450D01*
X0041400Y0161851D02*
X0041400Y0161851D01*
X0040661Y0171442D02*
X0076327Y0171442D01*
X0081707Y0153948D02*
X0076800Y0147000D01*
X0074800Y0143800D01*
X0074893Y0137784D01*
X0079893Y0135673D01*
X0085018Y0125748D01*
X0088070Y0128282D02*
X0110970Y0128282D01*
X0109319Y0129881D02*
X0086711Y0129881D01*
X0088888Y0131479D02*
X0108850Y0131479D01*
X0109010Y0144268D02*
X0101788Y0144268D01*
X0104764Y0145866D02*
X0108960Y0145866D01*
X0108910Y0147465D02*
X0108219Y0147465D01*
X0122900Y0160253D02*
X0123300Y0160253D01*
X0123300Y0161851D02*
X0122900Y0161851D01*
X0122900Y0163450D02*
X0123300Y0163450D01*
X0123300Y0165048D02*
X0122900Y0165048D01*
X0122900Y0166647D02*
X0123300Y0166647D01*
X0123300Y0168245D02*
X0122900Y0168245D01*
X0085545Y0148201D02*
X0085330Y0147999D01*
X0085286Y0147981D01*
X0084910Y0147606D01*
X0084523Y0147242D01*
X0084504Y0147199D01*
X0084470Y0147166D01*
X0084267Y0146675D01*
X0084048Y0146190D01*
X0084047Y0146143D01*
X0084029Y0146100D01*
X0084029Y0145568D01*
X0084012Y0145037D01*
X0084029Y0144993D01*
X0084029Y0143018D01*
X0083343Y0144263D01*
X0083343Y0145587D01*
X0082742Y0147039D01*
X0081715Y0148066D01*
X0082424Y0149069D01*
X0082691Y0148803D01*
X0084143Y0148201D01*
X0085545Y0148201D01*
X0084760Y0147465D02*
X0082316Y0147465D01*
X0082420Y0149063D02*
X0082431Y0149063D01*
X0083228Y0145866D02*
X0084029Y0145866D01*
X0084029Y0144268D02*
X0083343Y0144268D01*
X0078256Y0140234D02*
X0078384Y0140001D01*
X0078258Y0140054D01*
X0078256Y0140234D01*
X0076902Y0133078D02*
X0036156Y0133078D01*
X0036156Y0134676D02*
X0073506Y0134676D01*
X0071836Y0136275D02*
X0036156Y0136275D01*
X0036156Y0137873D02*
X0071492Y0137873D01*
X0071467Y0139472D02*
X0036156Y0139472D01*
X0036156Y0141070D02*
X0071442Y0141070D01*
X0071417Y0142669D02*
X0036156Y0142669D01*
X0036156Y0144268D02*
X0055220Y0144268D01*
X0053786Y0145866D02*
X0036156Y0145866D01*
X0029356Y0145866D02*
X0016762Y0145866D01*
X0016669Y0147465D02*
X0029356Y0147465D01*
X0029356Y0149063D02*
X0016007Y0149063D01*
X0015353Y0150662D02*
X0029356Y0150662D01*
X0029356Y0152260D02*
X0016398Y0152260D01*
X0016762Y0153859D02*
X0029356Y0153859D01*
X0029356Y0155457D02*
X0016620Y0155457D01*
X0015888Y0157056D02*
X0029356Y0157056D01*
X0029356Y0158654D02*
X0016569Y0158654D01*
X0016762Y0160253D02*
X0029356Y0160253D01*
X0029356Y0161851D02*
X0016762Y0161851D01*
X0016762Y0163450D02*
X0029356Y0163450D01*
X0029356Y0165048D02*
X0016692Y0165048D01*
X0015441Y0166647D02*
X0029356Y0166647D01*
X0027000Y0161400D02*
X0021800Y0162000D01*
X0006800Y0177000D01*
X0016349Y0144268D02*
X0029356Y0144268D01*
X0029356Y0142669D02*
X0015235Y0142669D01*
X0016056Y0141070D02*
X0029356Y0141070D01*
X0029356Y0139472D02*
X0016718Y0139472D01*
X0016762Y0137873D02*
X0029356Y0137873D01*
X0029356Y0136275D02*
X0016300Y0136275D01*
X0015116Y0134676D02*
X0029356Y0134676D01*
X0029356Y0133078D02*
X0016105Y0133078D01*
X0016762Y0131479D02*
X0029356Y0131479D01*
X0029356Y0129881D02*
X0016762Y0129881D01*
X0016251Y0128282D02*
X0029356Y0128282D01*
X0029128Y0126684D02*
X0014998Y0126684D01*
X0016154Y0125085D02*
X0028337Y0125085D01*
X0026739Y0123487D02*
X0016762Y0123487D01*
X0016762Y0121888D02*
X0025140Y0121888D01*
X0023542Y0120290D02*
X0016202Y0120290D01*
X0014882Y0118691D02*
X0021943Y0118691D01*
X0020345Y0117093D02*
X0016203Y0117093D01*
X0016762Y0115494D02*
X0018746Y0115494D01*
X0017148Y0113896D02*
X0016762Y0113896D01*
X0011800Y0091134D02*
X0011800Y0091134D01*
X0011800Y0089918D02*
X0011800Y0089918D01*
X0011800Y0088320D02*
X0011800Y0088320D01*
X0014872Y0088320D02*
X0016549Y0088320D01*
X0035110Y0121888D02*
X0084015Y0121888D01*
X0081694Y0123487D02*
X0036355Y0123487D01*
X0036706Y0125085D02*
X0081068Y0125085D01*
X0080709Y0126684D02*
X0036384Y0126684D01*
X0036156Y0128282D02*
X0079883Y0128282D01*
X0079058Y0129881D02*
X0036156Y0129881D01*
X0036156Y0131479D02*
X0078232Y0131479D01*
X0055800Y0112000D02*
X0057800Y0106000D01*
X0055700Y0105500D01*
X0032756Y0125120D02*
X0032756Y0168740D01*
X0039791Y0175275D01*
X0057092Y0193821D02*
X0059280Y0193821D01*
X0059806Y0195420D02*
X0058236Y0195420D01*
X0058516Y0197018D02*
X0060347Y0197018D01*
X0059265Y0198617D02*
X0058122Y0198617D01*
X0081300Y0199696D02*
X0081300Y0201806D01*
X0115381Y0096312D02*
X0128400Y0096312D01*
X0128400Y0094714D02*
X0115571Y0094714D01*
X0115088Y0093115D02*
X0128400Y0093115D01*
X0128400Y0091517D02*
X0113370Y0091517D01*
X0115461Y0083524D02*
X0128400Y0083524D01*
X0128400Y0081926D02*
X0116753Y0081926D01*
X0117231Y0080327D02*
X0128400Y0080327D01*
X0128400Y0078729D02*
X0117139Y0078729D01*
X0116392Y0077130D02*
X0128400Y0077130D01*
X0128400Y0085123D02*
X0089805Y0085123D01*
X0090744Y0086721D02*
X0128400Y0086721D01*
X0128400Y0088320D02*
X0091137Y0088320D01*
X0092061Y0089918D02*
X0128400Y0089918D01*
D18*
X0111621Y0095068D03*
X0103800Y0106000D03*
X0094178Y0106710D03*
X0091800Y0102000D03*
X0092268Y0097071D03*
X0086929Y0087832D03*
X0076800Y0082000D03*
X0081800Y0072000D03*
X0085522Y0063912D03*
X0089200Y0070200D03*
X0099900Y0081800D03*
X0077486Y0054376D03*
X0069800Y0048000D03*
X0083800Y0028000D03*
X0071800Y0018000D03*
X0059700Y0013000D03*
X0047200Y0031800D03*
X0051600Y0036900D03*
X0023800Y0026000D03*
X0041800Y0082000D03*
X0049800Y0088000D03*
X0055700Y0105500D03*
X0055800Y0112000D03*
X0069340Y0135673D03*
X0064808Y0148337D03*
X0059491Y0149041D03*
X0051752Y0158890D03*
X0060800Y0179400D03*
X0063230Y0193364D03*
X0068615Y0199331D03*
X0079190Y0197585D03*
X0088989Y0183436D03*
X0096200Y0183800D03*
X0089743Y0165926D03*
X0096778Y0154772D03*
X0095800Y0147800D03*
X0099593Y0147633D03*
X0102407Y0152558D03*
X0112800Y0131800D03*
X0086929Y0137191D03*
X0085522Y0133673D03*
X0079893Y0135673D03*
X0079393Y0144802D03*
X0084929Y0152151D03*
X0081707Y0153948D03*
X0072154Y0154669D03*
X0082004Y0174775D03*
X0096800Y0202000D03*
X0054566Y0196881D03*
X0040970Y0179996D03*
X0027000Y0161400D03*
X0006800Y0177000D03*
X0032756Y0125120D03*
X0085018Y0125748D03*
X0099800Y0040000D03*
X0123800Y0022000D03*
D19*
X0115800Y0026000D01*
X0115800Y0028000D01*
X0083800Y0028000D01*
X0099800Y0038000D02*
X0099800Y0040000D01*
X0093800Y0056000D02*
X0093800Y0065600D01*
X0089200Y0070200D01*
X0101800Y0068000D01*
X0099900Y0081800D01*
X0102100Y0084000D01*
X0117800Y0084000D01*
X0119800Y0086000D01*
X0119800Y0094000D01*
X0107800Y0106000D01*
X0103800Y0106000D01*
X0098000Y0099800D02*
X0101800Y0096000D01*
X0101800Y0084000D01*
X0099800Y0082000D01*
X0099900Y0081800D02*
X0085800Y0082000D01*
X0085800Y0068000D01*
X0077800Y0068000D01*
X0077800Y0064000D01*
X0063800Y0064000D01*
X0063800Y0066000D01*
X0060343Y0066000D01*
X0060343Y0058143D01*
X0091800Y0102000D02*
X0092000Y0102000D01*
X0094200Y0099800D02*
X0098000Y0099800D01*
X0101000Y0147633D02*
X0106221Y0149855D01*
X0106221Y0157483D01*
X0106214Y0158490D02*
X0106414Y0168040D01*
X0111700Y0164000D02*
X0111800Y0163900D01*
X0102407Y0152558D02*
X0102107Y0185925D01*
X0102100Y0188832D01*
X0086818Y0189032D01*
X0072154Y0199196D01*
X0072154Y0201806D01*
X0074376Y0193364D02*
X0084115Y0186625D01*
X0090839Y0186625D01*
X0096778Y0177886D01*
X0096778Y0154772D01*
X0096000Y0149600D02*
X0095800Y0147800D01*
X0099700Y0163200D02*
X0099000Y0163400D01*
X0093261Y0164519D02*
X0090446Y0167333D01*
X0082004Y0174775D02*
X0089093Y0182536D01*
X0096200Y0183800D02*
X0099000Y0182600D01*
X0096800Y0202000D02*
X0111300Y0202000D01*
X0111500Y0202200D01*
X0081300Y0199696D02*
X0079190Y0197585D01*
X0074376Y0193364D02*
X0063230Y0193364D01*
X0062305Y0199620D02*
X0061705Y0202310D01*
X0063600Y0181200D02*
X0060800Y0179400D01*
X0051752Y0164519D02*
X0047530Y0160297D01*
X0047530Y0157483D01*
X0032756Y0125120D02*
X0014464Y0106828D01*
X0023800Y0054000D02*
X0023800Y0026000D01*
D20*
X0065800Y0028000D02*
X0083800Y0028000D01*
X0085522Y0133673D02*
X0079393Y0144802D01*
X0084929Y0152151D02*
X0086929Y0156076D01*
X0093261Y0162408D01*
X0093261Y0164519D01*
X0099000Y0163400D02*
X0099000Y0182600D01*
X0099700Y0163200D02*
X0099600Y0150700D01*
X0096000Y0149600D01*
X0081300Y0163815D02*
X0072154Y0154669D01*
X0071451Y0160222D02*
X0071451Y0166629D01*
X0071451Y0160222D02*
X0059491Y0148262D01*
X0060898Y0146226D02*
X0057787Y0146226D01*
X0047530Y0157483D01*
X0051752Y0158890D02*
X0060269Y0158890D01*
X0061601Y0165222D01*
X0063600Y0181200D02*
X0082800Y0181200D01*
X0068615Y0199331D02*
X0062305Y0199620D01*
X0054566Y0196881D02*
X0052455Y0198992D01*
X0052455Y0201806D01*
X0035570Y0199696D02*
X0040970Y0179996D01*
X0060898Y0146226D02*
X0064808Y0148337D01*
D21*
X0093800Y0056000D02*
X0079800Y0042000D01*
X0049800Y0041400D01*
X0047100Y0041600D01*
X0047200Y0031800D01*
D22*
X0014464Y0106828D02*
X0012353Y0106828D01*
X0011800Y0106882D01*
X0051400Y0165000D02*
X0051752Y0166629D01*
X0051752Y0164519D01*
X0061400Y0165000D02*
X0061601Y0166629D01*
X0061601Y0165222D01*
X0071400Y0165000D02*
X0071451Y0166629D01*
X0081300Y0166629D02*
X0081300Y0163815D01*
X0081400Y0165000D02*
X0081300Y0166629D01*
X0086225Y0167333D02*
X0086400Y0165000D01*
X0086225Y0167333D02*
X0086929Y0168036D01*
X0087632Y0168036D01*
X0089039Y0166629D01*
X0089743Y0165926D01*
X0089039Y0166629D02*
X0089743Y0167333D01*
X0090446Y0167333D01*
X0096778Y0154772D02*
X0086929Y0145523D01*
X0086929Y0137191D01*
X0099593Y0147633D02*
X0101000Y0147633D01*
X0106221Y0157483D02*
X0106214Y0158490D01*
X0106414Y0168040D02*
X0108035Y0172961D01*
X0110146Y0172961D01*
X0116478Y0179293D01*
X0116478Y0187032D01*
X0121402Y0191957D01*
X0121500Y0192200D01*
X0111500Y0192200D02*
X0110849Y0191957D01*
X0108739Y0191957D01*
X0102107Y0185925D01*
X0088989Y0183436D02*
X0089093Y0182536D01*
X0081300Y0201806D02*
X0081400Y0205000D01*
X0072154Y0201806D02*
X0071400Y0205000D01*
X0061400Y0205000D02*
X0061705Y0202310D01*
X0052455Y0201806D02*
X0051400Y0205000D01*
X0041400Y0205000D02*
X0041198Y0201806D01*
X0059491Y0149041D02*
X0059491Y0148262D01*
D23*
X0049800Y0088000D02*
X0022808Y0088000D01*
X0011800Y0099008D01*
X0059600Y0036600D02*
X0059700Y0013000D01*
D24*
X0071800Y0018000D02*
X0071600Y0006300D01*
X0042300Y0006400D01*
X0041800Y0046000D01*
X0069800Y0046000D01*
X0059600Y0036600D02*
X0099800Y0038000D01*
X0081800Y0072000D02*
X0076800Y0082000D01*
X0041800Y0082000D01*
X0051600Y0036900D02*
X0059600Y0036600D01*
M02*
