G75*
%MOIN*%
%OFA0B0*%
%FSLAX25Y25*%
%IPPOS*%
%LPD*%
%AMOC8*
5,1,8,0,0,1.08239X$1,22.5*
%
%ADD10C,0.01600*%
%ADD11C,0.00500*%
%ADD12C,0.00000*%
D10*
X0001800Y0002000D02*
X0131800Y0002000D01*
X0131800Y0212000D01*
X0001800Y0212000D01*
X0001800Y0002000D01*
D11*
X0109400Y0107000D02*
X0109400Y0147000D01*
X0109402Y0147140D01*
X0109408Y0147280D01*
X0109418Y0147420D01*
X0109431Y0147560D01*
X0109449Y0147699D01*
X0109471Y0147838D01*
X0109496Y0147975D01*
X0109525Y0148113D01*
X0109558Y0148249D01*
X0109595Y0148384D01*
X0109636Y0148518D01*
X0109681Y0148651D01*
X0109729Y0148783D01*
X0109781Y0148913D01*
X0109836Y0149042D01*
X0109895Y0149169D01*
X0109958Y0149295D01*
X0110024Y0149419D01*
X0110093Y0149540D01*
X0110166Y0149660D01*
X0110243Y0149778D01*
X0110322Y0149893D01*
X0110405Y0150007D01*
X0110491Y0150117D01*
X0110580Y0150226D01*
X0110672Y0150332D01*
X0110767Y0150435D01*
X0110864Y0150536D01*
X0110965Y0150633D01*
X0111068Y0150728D01*
X0111174Y0150820D01*
X0111283Y0150909D01*
X0111393Y0150995D01*
X0111507Y0151078D01*
X0111622Y0151157D01*
X0111740Y0151234D01*
X0111860Y0151307D01*
X0111981Y0151376D01*
X0112105Y0151442D01*
X0112231Y0151505D01*
X0112358Y0151564D01*
X0112487Y0151619D01*
X0112617Y0151671D01*
X0112749Y0151719D01*
X0112882Y0151764D01*
X0113016Y0151805D01*
X0113151Y0151842D01*
X0113287Y0151875D01*
X0113425Y0151904D01*
X0113562Y0151929D01*
X0113701Y0151951D01*
X0113840Y0151969D01*
X0113980Y0151982D01*
X0114120Y0151992D01*
X0114260Y0151998D01*
X0114400Y0152000D01*
X0124400Y0152000D02*
X0124540Y0151998D01*
X0124680Y0151992D01*
X0124820Y0151982D01*
X0124960Y0151969D01*
X0125099Y0151951D01*
X0125238Y0151929D01*
X0125375Y0151904D01*
X0125513Y0151875D01*
X0125649Y0151842D01*
X0125784Y0151805D01*
X0125918Y0151764D01*
X0126051Y0151719D01*
X0126183Y0151671D01*
X0126313Y0151619D01*
X0126442Y0151564D01*
X0126569Y0151505D01*
X0126695Y0151442D01*
X0126819Y0151376D01*
X0126940Y0151307D01*
X0127060Y0151234D01*
X0127178Y0151157D01*
X0127293Y0151078D01*
X0127407Y0150995D01*
X0127517Y0150909D01*
X0127626Y0150820D01*
X0127732Y0150728D01*
X0127835Y0150633D01*
X0127936Y0150536D01*
X0128033Y0150435D01*
X0128128Y0150332D01*
X0128220Y0150226D01*
X0128309Y0150117D01*
X0128395Y0150007D01*
X0128478Y0149893D01*
X0128557Y0149778D01*
X0128634Y0149660D01*
X0128707Y0149540D01*
X0128776Y0149419D01*
X0128842Y0149295D01*
X0128905Y0149169D01*
X0128964Y0149042D01*
X0129019Y0148913D01*
X0129071Y0148783D01*
X0129119Y0148651D01*
X0129164Y0148518D01*
X0129205Y0148384D01*
X0129242Y0148249D01*
X0129275Y0148113D01*
X0129304Y0147975D01*
X0129329Y0147838D01*
X0129351Y0147699D01*
X0129369Y0147560D01*
X0129382Y0147420D01*
X0129392Y0147280D01*
X0129398Y0147140D01*
X0129400Y0147000D01*
X0129400Y0107000D01*
X0129398Y0106860D01*
X0129392Y0106720D01*
X0129382Y0106580D01*
X0129369Y0106440D01*
X0129351Y0106301D01*
X0129329Y0106162D01*
X0129304Y0106025D01*
X0129275Y0105887D01*
X0129242Y0105751D01*
X0129205Y0105616D01*
X0129164Y0105482D01*
X0129119Y0105349D01*
X0129071Y0105217D01*
X0129019Y0105087D01*
X0128964Y0104958D01*
X0128905Y0104831D01*
X0128842Y0104705D01*
X0128776Y0104581D01*
X0128707Y0104460D01*
X0128634Y0104340D01*
X0128557Y0104222D01*
X0128478Y0104107D01*
X0128395Y0103993D01*
X0128309Y0103883D01*
X0128220Y0103774D01*
X0128128Y0103668D01*
X0128033Y0103565D01*
X0127936Y0103464D01*
X0127835Y0103367D01*
X0127732Y0103272D01*
X0127626Y0103180D01*
X0127517Y0103091D01*
X0127407Y0103005D01*
X0127293Y0102922D01*
X0127178Y0102843D01*
X0127060Y0102766D01*
X0126940Y0102693D01*
X0126819Y0102624D01*
X0126695Y0102558D01*
X0126569Y0102495D01*
X0126442Y0102436D01*
X0126313Y0102381D01*
X0126183Y0102329D01*
X0126051Y0102281D01*
X0125918Y0102236D01*
X0125784Y0102195D01*
X0125649Y0102158D01*
X0125513Y0102125D01*
X0125375Y0102096D01*
X0125238Y0102071D01*
X0125099Y0102049D01*
X0124960Y0102031D01*
X0124820Y0102018D01*
X0124680Y0102008D01*
X0124540Y0102002D01*
X0124400Y0102000D01*
X0114400Y0102000D02*
X0114260Y0102002D01*
X0114120Y0102008D01*
X0113980Y0102018D01*
X0113840Y0102031D01*
X0113701Y0102049D01*
X0113562Y0102071D01*
X0113425Y0102096D01*
X0113287Y0102125D01*
X0113151Y0102158D01*
X0113016Y0102195D01*
X0112882Y0102236D01*
X0112749Y0102281D01*
X0112617Y0102329D01*
X0112487Y0102381D01*
X0112358Y0102436D01*
X0112231Y0102495D01*
X0112105Y0102558D01*
X0111981Y0102624D01*
X0111860Y0102693D01*
X0111740Y0102766D01*
X0111622Y0102843D01*
X0111507Y0102922D01*
X0111393Y0103005D01*
X0111283Y0103091D01*
X0111174Y0103180D01*
X0111068Y0103272D01*
X0110965Y0103367D01*
X0110864Y0103464D01*
X0110767Y0103565D01*
X0110672Y0103668D01*
X0110580Y0103774D01*
X0110491Y0103883D01*
X0110405Y0103993D01*
X0110322Y0104107D01*
X0110243Y0104222D01*
X0110166Y0104340D01*
X0110093Y0104460D01*
X0110024Y0104581D01*
X0109958Y0104705D01*
X0109895Y0104831D01*
X0109836Y0104958D01*
X0109781Y0105087D01*
X0109729Y0105217D01*
X0109681Y0105349D01*
X0109636Y0105482D01*
X0109595Y0105616D01*
X0109558Y0105751D01*
X0109525Y0105887D01*
X0109496Y0106025D01*
X0109471Y0106162D01*
X0109449Y0106301D01*
X0109431Y0106440D01*
X0109418Y0106580D01*
X0109408Y0106720D01*
X0109402Y0106860D01*
X0109400Y0107000D01*
D12*
X0110694Y0079861D02*
X0110696Y0079949D01*
X0110702Y0080037D01*
X0110712Y0080125D01*
X0110726Y0080213D01*
X0110743Y0080299D01*
X0110765Y0080385D01*
X0110790Y0080469D01*
X0110820Y0080553D01*
X0110852Y0080635D01*
X0110889Y0080715D01*
X0110929Y0080794D01*
X0110973Y0080871D01*
X0111020Y0080946D01*
X0111070Y0081018D01*
X0111124Y0081089D01*
X0111180Y0081156D01*
X0111240Y0081222D01*
X0111302Y0081284D01*
X0111368Y0081344D01*
X0111435Y0081400D01*
X0111506Y0081454D01*
X0111578Y0081504D01*
X0111653Y0081551D01*
X0111730Y0081595D01*
X0111809Y0081635D01*
X0111889Y0081672D01*
X0111971Y0081704D01*
X0112055Y0081734D01*
X0112139Y0081759D01*
X0112225Y0081781D01*
X0112311Y0081798D01*
X0112399Y0081812D01*
X0112487Y0081822D01*
X0112575Y0081828D01*
X0112663Y0081830D01*
X0112751Y0081828D01*
X0112839Y0081822D01*
X0112927Y0081812D01*
X0113015Y0081798D01*
X0113101Y0081781D01*
X0113187Y0081759D01*
X0113271Y0081734D01*
X0113355Y0081704D01*
X0113437Y0081672D01*
X0113517Y0081635D01*
X0113596Y0081595D01*
X0113673Y0081551D01*
X0113748Y0081504D01*
X0113820Y0081454D01*
X0113891Y0081400D01*
X0113958Y0081344D01*
X0114024Y0081284D01*
X0114086Y0081222D01*
X0114146Y0081156D01*
X0114202Y0081089D01*
X0114256Y0081018D01*
X0114306Y0080946D01*
X0114353Y0080871D01*
X0114397Y0080794D01*
X0114437Y0080715D01*
X0114474Y0080635D01*
X0114506Y0080553D01*
X0114536Y0080469D01*
X0114561Y0080385D01*
X0114583Y0080299D01*
X0114600Y0080213D01*
X0114614Y0080125D01*
X0114624Y0080037D01*
X0114630Y0079949D01*
X0114632Y0079861D01*
X0114630Y0079773D01*
X0114624Y0079685D01*
X0114614Y0079597D01*
X0114600Y0079509D01*
X0114583Y0079423D01*
X0114561Y0079337D01*
X0114536Y0079253D01*
X0114506Y0079169D01*
X0114474Y0079087D01*
X0114437Y0079007D01*
X0114397Y0078928D01*
X0114353Y0078851D01*
X0114306Y0078776D01*
X0114256Y0078704D01*
X0114202Y0078633D01*
X0114146Y0078566D01*
X0114086Y0078500D01*
X0114024Y0078438D01*
X0113958Y0078378D01*
X0113891Y0078322D01*
X0113820Y0078268D01*
X0113748Y0078218D01*
X0113673Y0078171D01*
X0113596Y0078127D01*
X0113517Y0078087D01*
X0113437Y0078050D01*
X0113355Y0078018D01*
X0113271Y0077988D01*
X0113187Y0077963D01*
X0113101Y0077941D01*
X0113015Y0077924D01*
X0112927Y0077910D01*
X0112839Y0077900D01*
X0112751Y0077894D01*
X0112663Y0077892D01*
X0112575Y0077894D01*
X0112487Y0077900D01*
X0112399Y0077910D01*
X0112311Y0077924D01*
X0112225Y0077941D01*
X0112139Y0077963D01*
X0112055Y0077988D01*
X0111971Y0078018D01*
X0111889Y0078050D01*
X0111809Y0078087D01*
X0111730Y0078127D01*
X0111653Y0078171D01*
X0111578Y0078218D01*
X0111506Y0078268D01*
X0111435Y0078322D01*
X0111368Y0078378D01*
X0111302Y0078438D01*
X0111240Y0078500D01*
X0111180Y0078566D01*
X0111124Y0078633D01*
X0111070Y0078704D01*
X0111020Y0078776D01*
X0110973Y0078851D01*
X0110929Y0078928D01*
X0110889Y0079007D01*
X0110852Y0079087D01*
X0110820Y0079169D01*
X0110790Y0079253D01*
X0110765Y0079337D01*
X0110743Y0079423D01*
X0110726Y0079509D01*
X0110712Y0079597D01*
X0110702Y0079685D01*
X0110696Y0079773D01*
X0110694Y0079861D01*
X0110694Y0062539D02*
X0110696Y0062627D01*
X0110702Y0062715D01*
X0110712Y0062803D01*
X0110726Y0062891D01*
X0110743Y0062977D01*
X0110765Y0063063D01*
X0110790Y0063147D01*
X0110820Y0063231D01*
X0110852Y0063313D01*
X0110889Y0063393D01*
X0110929Y0063472D01*
X0110973Y0063549D01*
X0111020Y0063624D01*
X0111070Y0063696D01*
X0111124Y0063767D01*
X0111180Y0063834D01*
X0111240Y0063900D01*
X0111302Y0063962D01*
X0111368Y0064022D01*
X0111435Y0064078D01*
X0111506Y0064132D01*
X0111578Y0064182D01*
X0111653Y0064229D01*
X0111730Y0064273D01*
X0111809Y0064313D01*
X0111889Y0064350D01*
X0111971Y0064382D01*
X0112055Y0064412D01*
X0112139Y0064437D01*
X0112225Y0064459D01*
X0112311Y0064476D01*
X0112399Y0064490D01*
X0112487Y0064500D01*
X0112575Y0064506D01*
X0112663Y0064508D01*
X0112751Y0064506D01*
X0112839Y0064500D01*
X0112927Y0064490D01*
X0113015Y0064476D01*
X0113101Y0064459D01*
X0113187Y0064437D01*
X0113271Y0064412D01*
X0113355Y0064382D01*
X0113437Y0064350D01*
X0113517Y0064313D01*
X0113596Y0064273D01*
X0113673Y0064229D01*
X0113748Y0064182D01*
X0113820Y0064132D01*
X0113891Y0064078D01*
X0113958Y0064022D01*
X0114024Y0063962D01*
X0114086Y0063900D01*
X0114146Y0063834D01*
X0114202Y0063767D01*
X0114256Y0063696D01*
X0114306Y0063624D01*
X0114353Y0063549D01*
X0114397Y0063472D01*
X0114437Y0063393D01*
X0114474Y0063313D01*
X0114506Y0063231D01*
X0114536Y0063147D01*
X0114561Y0063063D01*
X0114583Y0062977D01*
X0114600Y0062891D01*
X0114614Y0062803D01*
X0114624Y0062715D01*
X0114630Y0062627D01*
X0114632Y0062539D01*
X0114630Y0062451D01*
X0114624Y0062363D01*
X0114614Y0062275D01*
X0114600Y0062187D01*
X0114583Y0062101D01*
X0114561Y0062015D01*
X0114536Y0061931D01*
X0114506Y0061847D01*
X0114474Y0061765D01*
X0114437Y0061685D01*
X0114397Y0061606D01*
X0114353Y0061529D01*
X0114306Y0061454D01*
X0114256Y0061382D01*
X0114202Y0061311D01*
X0114146Y0061244D01*
X0114086Y0061178D01*
X0114024Y0061116D01*
X0113958Y0061056D01*
X0113891Y0061000D01*
X0113820Y0060946D01*
X0113748Y0060896D01*
X0113673Y0060849D01*
X0113596Y0060805D01*
X0113517Y0060765D01*
X0113437Y0060728D01*
X0113355Y0060696D01*
X0113271Y0060666D01*
X0113187Y0060641D01*
X0113101Y0060619D01*
X0113015Y0060602D01*
X0112927Y0060588D01*
X0112839Y0060578D01*
X0112751Y0060572D01*
X0112663Y0060570D01*
X0112575Y0060572D01*
X0112487Y0060578D01*
X0112399Y0060588D01*
X0112311Y0060602D01*
X0112225Y0060619D01*
X0112139Y0060641D01*
X0112055Y0060666D01*
X0111971Y0060696D01*
X0111889Y0060728D01*
X0111809Y0060765D01*
X0111730Y0060805D01*
X0111653Y0060849D01*
X0111578Y0060896D01*
X0111506Y0060946D01*
X0111435Y0061000D01*
X0111368Y0061056D01*
X0111302Y0061116D01*
X0111240Y0061178D01*
X0111180Y0061244D01*
X0111124Y0061311D01*
X0111070Y0061382D01*
X0111020Y0061454D01*
X0110973Y0061529D01*
X0110929Y0061606D01*
X0110889Y0061685D01*
X0110852Y0061765D01*
X0110820Y0061847D01*
X0110790Y0061931D01*
X0110765Y0062015D01*
X0110743Y0062101D01*
X0110726Y0062187D01*
X0110712Y0062275D01*
X0110702Y0062363D01*
X0110696Y0062451D01*
X0110694Y0062539D01*
M02*
