G75*
%MOIN*%
%OFA0B0*%
%FSLAX25Y25*%
%IPPOS*%
%LPD*%
%AMOC8*
5,1,8,0,0,1.08239X$1,22.5*
%
%ADD10R,0.07400X0.07400*%
%ADD11OC8,0.07400*%
%ADD12R,0.04724X0.04724*%
%ADD13C,0.04724*%
%ADD14C,0.07400*%
%ADD15C,0.02975*%
%ADD16R,0.01500X0.06000*%
%ADD17C,0.01600*%
%ADD18C,0.02700*%
%ADD19C,0.03762*%
%ADD20C,0.01000*%
%ADD21C,0.01200*%
%ADD22C,0.00600*%
%ADD23C,0.02500*%
D10*
X0121500Y0182200D03*
D11*
X0121500Y0192200D03*
X0121500Y0202200D03*
X0111500Y0202200D03*
X0111500Y0192200D03*
X0111500Y0182200D03*
D12*
X0011800Y0162000D03*
D13*
X0011800Y0154126D03*
X0011800Y0146252D03*
X0011800Y0138378D03*
X0011800Y0130504D03*
X0011800Y0122630D03*
X0011800Y0114756D03*
X0011800Y0106882D03*
X0011800Y0099008D03*
X0011800Y0091134D03*
D14*
X0111700Y0164000D03*
X0123100Y0164000D03*
D15*
X0060343Y0058143D03*
X0056800Y0054600D03*
X0053257Y0051057D03*
X0053257Y0058143D03*
X0060343Y0051057D03*
D16*
X0061800Y0167000D03*
X0066800Y0167000D03*
X0071800Y0167000D03*
X0076800Y0167000D03*
X0081800Y0167000D03*
X0086800Y0167000D03*
X0086800Y0202000D03*
X0081800Y0202000D03*
X0076800Y0202000D03*
X0071800Y0202000D03*
X0066800Y0202000D03*
X0061800Y0202000D03*
X0056800Y0202000D03*
X0051800Y0202000D03*
X0046800Y0202000D03*
X0041800Y0202000D03*
X0041800Y0167000D03*
X0046800Y0167000D03*
X0051800Y0167000D03*
X0056800Y0167000D03*
D17*
X0005000Y0208800D02*
X0005000Y0005200D01*
X0128600Y0005200D01*
X0128600Y0100459D01*
X0125922Y0099350D01*
X0123873Y0099350D01*
X0122899Y0099753D01*
X0122153Y0100499D01*
X0121750Y0101473D01*
X0121750Y0102527D01*
X0122153Y0103501D01*
X0122899Y0104247D01*
X0123873Y0104650D01*
X0124400Y0104650D01*
X0124858Y0104695D01*
X0125706Y0105046D01*
X0126354Y0105694D01*
X0126705Y0106542D01*
X0126750Y0107000D01*
X0126750Y0147000D01*
X0126705Y0147458D01*
X0126354Y0148306D01*
X0125706Y0148954D01*
X0124858Y0149305D01*
X0124400Y0149350D01*
X0123873Y0149350D01*
X0122899Y0149753D01*
X0122153Y0150499D01*
X0121750Y0151473D01*
X0121750Y0152527D01*
X0122153Y0153501D01*
X0122899Y0154247D01*
X0123873Y0154650D01*
X0125922Y0154650D01*
X0128600Y0153541D01*
X0128600Y0208800D01*
X0067617Y0208800D01*
X0068165Y0207477D01*
X0068165Y0207343D01*
X0068909Y0207035D01*
X0069300Y0206644D01*
X0069691Y0207035D01*
X0070573Y0207400D01*
X0073027Y0207400D01*
X0073909Y0207035D01*
X0074300Y0206644D01*
X0074691Y0207035D01*
X0075573Y0207400D01*
X0078027Y0207400D01*
X0078909Y0207035D01*
X0079300Y0206644D01*
X0079691Y0207035D01*
X0080573Y0207400D01*
X0083027Y0207400D01*
X0083909Y0207035D01*
X0084300Y0206644D01*
X0084691Y0207035D01*
X0085573Y0207400D01*
X0088027Y0207400D01*
X0088909Y0207035D01*
X0089585Y0206359D01*
X0089950Y0205477D01*
X0089950Y0198523D01*
X0089585Y0197641D01*
X0088909Y0196965D01*
X0088027Y0196600D01*
X0085573Y0196600D01*
X0084691Y0196965D01*
X0084300Y0197356D01*
X0083909Y0196965D01*
X0083027Y0196600D01*
X0082841Y0196600D01*
X0082369Y0195461D01*
X0081314Y0194406D01*
X0081277Y0194391D01*
X0085936Y0189732D01*
X0101537Y0189732D01*
X0102356Y0189392D01*
X0105400Y0192436D01*
X0105400Y0194727D01*
X0108298Y0197624D01*
X0106000Y0199922D01*
X0106000Y0202000D01*
X0111300Y0202000D01*
X0111300Y0202400D01*
X0111300Y0207700D01*
X0109222Y0207700D01*
X0106000Y0204478D01*
X0106000Y0202400D01*
X0111300Y0202400D01*
X0111700Y0202400D01*
X0111700Y0207700D01*
X0113778Y0207700D01*
X0116076Y0205402D01*
X0118973Y0208300D01*
X0124027Y0208300D01*
X0127600Y0204727D01*
X0127600Y0199673D01*
X0125127Y0197200D01*
X0127600Y0194727D01*
X0127600Y0189673D01*
X0126066Y0188139D01*
X0126559Y0187935D01*
X0127235Y0187259D01*
X0127600Y0186377D01*
X0127600Y0178023D01*
X0127235Y0177141D01*
X0126559Y0176465D01*
X0125677Y0176100D01*
X0117323Y0176100D01*
X0117167Y0176164D01*
X0111675Y0170672D01*
X0110683Y0170261D01*
X0109153Y0170261D01*
X0106514Y0167621D01*
X0106514Y0167419D01*
X0106529Y0167455D01*
X0108245Y0169171D01*
X0110487Y0170100D01*
X0112913Y0170100D01*
X0115155Y0169171D01*
X0116871Y0167455D01*
X0117750Y0165333D01*
X0118003Y0166111D01*
X0118396Y0166883D01*
X0118905Y0167583D01*
X0119517Y0168195D01*
X0120217Y0168704D01*
X0120989Y0169097D01*
X0121812Y0169365D01*
X0122667Y0169500D01*
X0122900Y0169500D01*
X0122900Y0164200D01*
X0123300Y0164200D01*
X0123300Y0169500D01*
X0123533Y0169500D01*
X0124388Y0169365D01*
X0125211Y0169097D01*
X0125983Y0168704D01*
X0126683Y0168195D01*
X0127295Y0167583D01*
X0127804Y0166883D01*
X0128197Y0166111D01*
X0128465Y0165288D01*
X0128600Y0164433D01*
X0128600Y0164200D01*
X0123300Y0164200D01*
X0123300Y0163800D01*
X0128600Y0163800D01*
X0128600Y0163567D01*
X0128465Y0162712D01*
X0128197Y0161889D01*
X0127804Y0161117D01*
X0127295Y0160417D01*
X0126683Y0159805D01*
X0125983Y0159296D01*
X0125211Y0158903D01*
X0124388Y0158635D01*
X0123533Y0158500D01*
X0123300Y0158500D01*
X0123300Y0163800D01*
X0122900Y0163800D01*
X0122900Y0158500D01*
X0122667Y0158500D01*
X0121812Y0158635D01*
X0120989Y0158903D01*
X0120217Y0159296D01*
X0119517Y0159805D01*
X0118905Y0160417D01*
X0118396Y0161117D01*
X0118003Y0161889D01*
X0117750Y0162667D01*
X0116871Y0160545D01*
X0115155Y0158829D01*
X0114863Y0158708D01*
X0114990Y0154624D01*
X0115901Y0154247D01*
X0116647Y0153501D01*
X0117050Y0152527D01*
X0117050Y0151473D01*
X0116647Y0150499D01*
X0115901Y0149753D01*
X0115152Y0149443D01*
X0115600Y0135054D01*
X0116429Y0134225D01*
X0117081Y0132652D01*
X0117081Y0130948D01*
X0116429Y0129375D01*
X0115225Y0128171D01*
X0113652Y0127519D01*
X0112050Y0127519D01*
X0112050Y0107000D01*
X0112095Y0106542D01*
X0112446Y0105694D01*
X0113094Y0105046D01*
X0113942Y0104695D01*
X0114400Y0104650D01*
X0114927Y0104650D01*
X0115901Y0104247D01*
X0116647Y0103501D01*
X0117050Y0102527D01*
X0117050Y0101473D01*
X0116647Y0100499D01*
X0115901Y0099753D01*
X0114927Y0099350D01*
X0112878Y0099350D01*
X0110067Y0100515D01*
X0110067Y0100515D01*
X0107915Y0102667D01*
X0107915Y0102667D01*
X0106750Y0105478D01*
X0106750Y0148522D01*
X0107488Y0150304D01*
X0106750Y0149566D01*
X0102827Y0145642D01*
X0102772Y0145509D01*
X0101717Y0144454D01*
X0100338Y0143883D01*
X0098847Y0143883D01*
X0097468Y0144454D01*
X0096413Y0145509D01*
X0095843Y0146888D01*
X0095843Y0148379D01*
X0096413Y0149758D01*
X0097468Y0150813D01*
X0098836Y0151379D01*
X0098657Y0151812D01*
X0098657Y0152092D01*
X0097524Y0151622D01*
X0096847Y0151622D01*
X0089629Y0144404D01*
X0089629Y0141794D01*
X0090108Y0141315D01*
X0090679Y0139937D01*
X0090679Y0138445D01*
X0090108Y0137067D01*
X0089272Y0136231D01*
X0089272Y0134927D01*
X0088701Y0133549D01*
X0088211Y0133059D01*
X0088797Y0132473D01*
X0089368Y0131094D01*
X0089368Y0129602D01*
X0088797Y0128224D01*
X0087742Y0127169D01*
X0086364Y0126598D01*
X0084872Y0126598D01*
X0083494Y0127169D01*
X0082439Y0128224D01*
X0081868Y0129602D01*
X0081868Y0130149D01*
X0079961Y0131923D01*
X0079147Y0131923D01*
X0077769Y0132494D01*
X0076714Y0133549D01*
X0076143Y0134927D01*
X0076143Y0136419D01*
X0076523Y0137336D01*
X0075550Y0138309D01*
X0074790Y0139069D01*
X0074379Y0140061D01*
X0074379Y0145356D01*
X0074790Y0146349D01*
X0075550Y0147108D01*
X0075550Y0147108D01*
X0078957Y0150516D01*
X0078957Y0151194D01*
X0079528Y0152572D01*
X0080583Y0153627D01*
X0081962Y0154198D01*
X0083453Y0154198D01*
X0084229Y0153876D01*
X0084229Y0156613D01*
X0084640Y0157605D01*
X0089210Y0162176D01*
X0089120Y0162176D01*
X0088909Y0161965D01*
X0088027Y0161600D01*
X0085573Y0161600D01*
X0084691Y0161965D01*
X0084300Y0162356D01*
X0083909Y0161965D01*
X0083027Y0161600D01*
X0082904Y0161600D01*
X0082830Y0161526D01*
X0075904Y0154601D01*
X0075904Y0153923D01*
X0075333Y0152545D01*
X0074279Y0151490D01*
X0072900Y0150919D01*
X0071408Y0150919D01*
X0070030Y0151490D01*
X0068975Y0152545D01*
X0068404Y0153923D01*
X0068404Y0155415D01*
X0068975Y0156793D01*
X0070030Y0157848D01*
X0071408Y0158419D01*
X0072086Y0158419D01*
X0075357Y0161689D01*
X0074691Y0161965D01*
X0074300Y0162356D01*
X0073909Y0161965D01*
X0073027Y0161600D01*
X0071647Y0161600D01*
X0062191Y0152143D01*
X0062191Y0152057D01*
X0062262Y0152087D01*
X0063754Y0152087D01*
X0065132Y0151516D01*
X0066187Y0150461D01*
X0066758Y0149083D01*
X0066758Y0147591D01*
X0066187Y0146213D01*
X0065132Y0145158D01*
X0063754Y0144587D01*
X0063358Y0144587D01*
X0063356Y0144584D01*
X0062540Y0143768D01*
X0061474Y0143326D01*
X0058294Y0143326D01*
X0058229Y0143303D01*
X0057720Y0143326D01*
X0057210Y0143326D01*
X0057146Y0143353D01*
X0057076Y0143356D01*
X0056615Y0143573D01*
X0056144Y0143768D01*
X0056095Y0143817D01*
X0056032Y0143847D01*
X0055689Y0144223D01*
X0055329Y0144584D01*
X0055302Y0144648D01*
X0045432Y0155480D01*
X0045072Y0155840D01*
X0045045Y0155905D01*
X0044998Y0155956D01*
X0044825Y0156436D01*
X0044630Y0156906D01*
X0044630Y0156976D01*
X0044607Y0157041D01*
X0044630Y0157550D01*
X0044630Y0160874D01*
X0045025Y0161827D01*
X0044691Y0161965D01*
X0044015Y0162641D01*
X0043934Y0162838D01*
X0043655Y0162560D01*
X0043245Y0162323D01*
X0042787Y0162200D01*
X0041800Y0162200D01*
X0041800Y0167000D01*
X0041800Y0167000D01*
X0041800Y0171800D01*
X0042787Y0171800D01*
X0043245Y0171677D01*
X0043655Y0171440D01*
X0043934Y0171162D01*
X0044015Y0171359D01*
X0044691Y0172035D01*
X0045573Y0172400D01*
X0048027Y0172400D01*
X0048909Y0172035D01*
X0049300Y0171644D01*
X0049691Y0172035D01*
X0050573Y0172400D01*
X0053027Y0172400D01*
X0053909Y0172035D01*
X0054300Y0171644D01*
X0054691Y0172035D01*
X0055573Y0172400D01*
X0058027Y0172400D01*
X0058909Y0172035D01*
X0059300Y0171644D01*
X0059691Y0172035D01*
X0060573Y0172400D01*
X0063027Y0172400D01*
X0063909Y0172035D01*
X0064300Y0171644D01*
X0064691Y0172035D01*
X0065573Y0172400D01*
X0068027Y0172400D01*
X0068909Y0172035D01*
X0069300Y0171644D01*
X0069691Y0172035D01*
X0070573Y0172400D01*
X0073027Y0172400D01*
X0073909Y0172035D01*
X0074300Y0171644D01*
X0074691Y0172035D01*
X0075573Y0172400D01*
X0078027Y0172400D01*
X0078909Y0172035D01*
X0079300Y0171644D01*
X0079691Y0172035D01*
X0080463Y0172355D01*
X0079880Y0172596D01*
X0079401Y0173075D01*
X0040910Y0173075D01*
X0035656Y0167821D01*
X0035656Y0127523D01*
X0035935Y0127244D01*
X0036506Y0125866D01*
X0036506Y0124374D01*
X0035935Y0122996D01*
X0034880Y0121941D01*
X0033502Y0121370D01*
X0033107Y0121370D01*
X0016106Y0104369D01*
X0015874Y0104273D01*
X0015837Y0104184D01*
X0014598Y0102945D01*
X0015837Y0101705D01*
X0016562Y0099955D01*
X0016562Y0098061D01*
X0015837Y0096310D01*
X0014498Y0094971D01*
X0013913Y0094729D01*
X0013981Y0094694D01*
X0014511Y0094309D01*
X0014975Y0093845D01*
X0015360Y0093315D01*
X0015657Y0092732D01*
X0015860Y0092109D01*
X0015962Y0091461D01*
X0015962Y0091134D01*
X0011800Y0091134D01*
X0011800Y0091134D01*
X0011800Y0094246D01*
X0011800Y0091134D01*
X0011800Y0091134D01*
X0011800Y0091134D01*
X0007638Y0091134D01*
X0007638Y0091461D01*
X0007740Y0092109D01*
X0007943Y0092732D01*
X0008240Y0093315D01*
X0008625Y0093845D01*
X0009088Y0094309D01*
X0009619Y0094694D01*
X0009687Y0094729D01*
X0009102Y0094971D01*
X0007763Y0096310D01*
X0007038Y0098061D01*
X0007038Y0099955D01*
X0007763Y0101705D01*
X0009002Y0102945D01*
X0007763Y0104184D01*
X0007038Y0105935D01*
X0007038Y0107829D01*
X0007763Y0109579D01*
X0009002Y0110819D01*
X0007763Y0112058D01*
X0007038Y0113809D01*
X0007038Y0115703D01*
X0007763Y0117453D01*
X0009002Y0118693D01*
X0007763Y0119932D01*
X0007038Y0121683D01*
X0007038Y0123577D01*
X0007763Y0125327D01*
X0009002Y0126567D01*
X0007763Y0127806D01*
X0007038Y0129557D01*
X0007038Y0131451D01*
X0007763Y0133202D01*
X0009002Y0134441D01*
X0007763Y0135680D01*
X0007038Y0137431D01*
X0007038Y0139325D01*
X0007763Y0141076D01*
X0009002Y0142315D01*
X0007763Y0143554D01*
X0007038Y0145305D01*
X0007038Y0147199D01*
X0007763Y0148950D01*
X0009002Y0150189D01*
X0007763Y0151428D01*
X0007038Y0153179D01*
X0007038Y0155073D01*
X0007763Y0156824D01*
X0008406Y0157467D01*
X0008078Y0157603D01*
X0007403Y0158278D01*
X0007038Y0159160D01*
X0007038Y0164840D01*
X0007403Y0165722D01*
X0008078Y0166397D01*
X0008960Y0166762D01*
X0014640Y0166762D01*
X0015522Y0166397D01*
X0016197Y0165722D01*
X0016562Y0164840D01*
X0016562Y0159160D01*
X0016197Y0158278D01*
X0015522Y0157603D01*
X0015193Y0157467D01*
X0015837Y0156824D01*
X0016562Y0155073D01*
X0016562Y0153179D01*
X0015837Y0151428D01*
X0014598Y0150189D01*
X0015837Y0148950D01*
X0016562Y0147199D01*
X0016562Y0145305D01*
X0015837Y0143554D01*
X0014598Y0142315D01*
X0015837Y0141076D01*
X0016562Y0139325D01*
X0016562Y0137431D01*
X0015837Y0135680D01*
X0014598Y0134441D01*
X0015837Y0133202D01*
X0016562Y0131451D01*
X0016562Y0129557D01*
X0015837Y0127806D01*
X0014598Y0126567D01*
X0015837Y0125327D01*
X0016562Y0123577D01*
X0016562Y0121683D01*
X0015837Y0119932D01*
X0014598Y0118693D01*
X0015837Y0117453D01*
X0016562Y0115703D01*
X0016562Y0113809D01*
X0016010Y0112475D01*
X0029006Y0125471D01*
X0029006Y0125866D01*
X0029577Y0127244D01*
X0029856Y0127523D01*
X0029856Y0169317D01*
X0030297Y0170382D01*
X0031113Y0171198D01*
X0031596Y0171398D01*
X0036535Y0176337D01*
X0036316Y0176246D01*
X0034824Y0176246D01*
X0033446Y0176817D01*
X0032391Y0177872D01*
X0031820Y0179251D01*
X0031820Y0180742D01*
X0032391Y0182121D01*
X0032570Y0182300D01*
X0032570Y0200292D01*
X0033027Y0201395D01*
X0033871Y0202239D01*
X0035981Y0204350D01*
X0037084Y0204806D01*
X0038277Y0204806D01*
X0038650Y0204652D01*
X0038650Y0205477D01*
X0039015Y0206359D01*
X0039691Y0207035D01*
X0040573Y0207400D01*
X0043027Y0207400D01*
X0043909Y0207035D01*
X0044300Y0206644D01*
X0044691Y0207035D01*
X0045573Y0207400D01*
X0048027Y0207400D01*
X0048909Y0207035D01*
X0049300Y0206644D01*
X0049691Y0207035D01*
X0050573Y0207400D01*
X0053027Y0207400D01*
X0053909Y0207035D01*
X0054300Y0206644D01*
X0054691Y0207035D01*
X0055573Y0207400D01*
X0058027Y0207400D01*
X0058909Y0207035D01*
X0059300Y0206644D01*
X0059691Y0207035D01*
X0060573Y0207400D01*
X0060665Y0207400D01*
X0060665Y0207477D01*
X0061213Y0208800D01*
X0005000Y0208800D01*
X0005000Y0208208D02*
X0060968Y0208208D01*
X0067863Y0208208D02*
X0118881Y0208208D01*
X0117283Y0206609D02*
X0114869Y0206609D01*
X0111700Y0206609D02*
X0111300Y0206609D01*
X0111300Y0205011D02*
X0111700Y0205011D01*
X0111700Y0203412D02*
X0111300Y0203412D01*
X0108131Y0206609D02*
X0089335Y0206609D01*
X0089950Y0205011D02*
X0106533Y0205011D01*
X0106000Y0203412D02*
X0089950Y0203412D01*
X0089950Y0201814D02*
X0106000Y0201814D01*
X0106000Y0200215D02*
X0089950Y0200215D01*
X0089950Y0198617D02*
X0107305Y0198617D01*
X0107692Y0197018D02*
X0088962Y0197018D01*
X0084638Y0197018D02*
X0083962Y0197018D01*
X0082328Y0195420D02*
X0106093Y0195420D01*
X0105400Y0193821D02*
X0081847Y0193821D01*
X0083446Y0192223D02*
X0105186Y0192223D01*
X0103588Y0190624D02*
X0085044Y0190624D01*
X0080092Y0185829D02*
X0038570Y0185829D01*
X0038570Y0187427D02*
X0078494Y0187427D01*
X0076895Y0189026D02*
X0038570Y0189026D01*
X0038570Y0190624D02*
X0064666Y0190624D01*
X0065105Y0190185D02*
X0066484Y0189614D01*
X0067975Y0189614D01*
X0069354Y0190185D01*
X0069833Y0190664D01*
X0075257Y0190664D01*
X0081826Y0184095D01*
X0082585Y0183336D01*
X0083577Y0182925D01*
X0084586Y0182925D01*
X0084586Y0182175D01*
X0081936Y0179525D01*
X0081258Y0179525D01*
X0079880Y0178954D01*
X0079401Y0178475D01*
X0039254Y0178475D01*
X0038946Y0178347D01*
X0039320Y0179251D01*
X0039320Y0180742D01*
X0038749Y0182121D01*
X0038570Y0182300D01*
X0038570Y0198453D01*
X0038650Y0198533D01*
X0038650Y0198523D01*
X0039015Y0197641D01*
X0039691Y0196965D01*
X0040573Y0196600D01*
X0043027Y0196600D01*
X0043909Y0196965D01*
X0044300Y0197356D01*
X0044691Y0196965D01*
X0045573Y0196600D01*
X0048027Y0196600D01*
X0048909Y0196965D01*
X0049300Y0197356D01*
X0049691Y0196965D01*
X0050573Y0196600D01*
X0050816Y0196600D01*
X0050816Y0196136D01*
X0051387Y0194757D01*
X0052442Y0193702D01*
X0053820Y0193131D01*
X0055312Y0193131D01*
X0056690Y0193702D01*
X0057745Y0194757D01*
X0058316Y0196136D01*
X0058316Y0196719D01*
X0058909Y0196965D01*
X0059300Y0197356D01*
X0059691Y0196965D01*
X0060573Y0196600D01*
X0063027Y0196600D01*
X0063909Y0196965D01*
X0064300Y0197356D01*
X0064691Y0196965D01*
X0065408Y0196668D01*
X0065105Y0196543D01*
X0064050Y0195488D01*
X0063480Y0194110D01*
X0063480Y0192618D01*
X0064050Y0191240D01*
X0065105Y0190185D01*
X0063643Y0192223D02*
X0038570Y0192223D01*
X0038570Y0193821D02*
X0052323Y0193821D01*
X0051112Y0195420D02*
X0038570Y0195420D01*
X0038570Y0197018D02*
X0039638Y0197018D01*
X0043962Y0197018D02*
X0044637Y0197018D01*
X0048962Y0197018D02*
X0049637Y0197018D01*
X0056809Y0193821D02*
X0063480Y0193821D01*
X0064022Y0195420D02*
X0058019Y0195420D01*
X0058962Y0197018D02*
X0059637Y0197018D01*
X0063962Y0197018D02*
X0064637Y0197018D01*
X0069793Y0190624D02*
X0075297Y0190624D01*
X0081691Y0184230D02*
X0038570Y0184230D01*
X0038570Y0182632D02*
X0084586Y0182632D01*
X0083444Y0181033D02*
X0039200Y0181033D01*
X0039320Y0179435D02*
X0081040Y0179435D01*
X0085754Y0175707D02*
X0085754Y0175029D01*
X0085183Y0173651D01*
X0084128Y0172596D01*
X0083341Y0172270D01*
X0083909Y0172035D01*
X0084300Y0171644D01*
X0084691Y0172035D01*
X0085573Y0172400D01*
X0088027Y0172400D01*
X0088909Y0172035D01*
X0089585Y0171359D01*
X0089950Y0170477D01*
X0089950Y0170033D01*
X0090984Y0170033D01*
X0091976Y0169622D01*
X0092735Y0168862D01*
X0094078Y0167519D01*
X0094078Y0176767D01*
X0090837Y0180009D01*
X0090460Y0179632D01*
X0089126Y0179079D01*
X0085754Y0175707D01*
X0086285Y0176238D02*
X0094078Y0176238D01*
X0094078Y0174639D02*
X0085592Y0174639D01*
X0084573Y0173041D02*
X0094078Y0173041D01*
X0094078Y0171442D02*
X0089502Y0171442D01*
X0091440Y0169844D02*
X0094078Y0169844D01*
X0094078Y0168245D02*
X0093352Y0168245D01*
X0088886Y0161851D02*
X0088634Y0161851D01*
X0087287Y0160253D02*
X0081556Y0160253D01*
X0079958Y0158654D02*
X0085689Y0158654D01*
X0084412Y0157056D02*
X0078359Y0157056D01*
X0076761Y0155457D02*
X0084229Y0155457D01*
X0081143Y0153859D02*
X0075878Y0153859D01*
X0075049Y0152260D02*
X0079399Y0152260D01*
X0078957Y0150662D02*
X0065987Y0150662D01*
X0066758Y0149063D02*
X0077505Y0149063D01*
X0075906Y0147465D02*
X0066706Y0147465D01*
X0065841Y0145866D02*
X0074590Y0145866D01*
X0074379Y0144268D02*
X0063040Y0144268D01*
X0062307Y0152260D02*
X0069260Y0152260D01*
X0068431Y0153859D02*
X0063906Y0153859D01*
X0065504Y0155457D02*
X0068422Y0155457D01*
X0069238Y0157056D02*
X0067103Y0157056D01*
X0068701Y0158654D02*
X0072321Y0158654D01*
X0073920Y0160253D02*
X0070300Y0160253D01*
X0073634Y0161851D02*
X0074966Y0161851D01*
X0079435Y0173041D02*
X0040875Y0173041D01*
X0040813Y0171800D02*
X0040355Y0171677D01*
X0039945Y0171440D01*
X0039610Y0171105D01*
X0039373Y0170695D01*
X0039250Y0170237D01*
X0039250Y0167000D01*
X0041800Y0167000D01*
X0041800Y0167000D01*
X0041800Y0167000D01*
X0041800Y0171800D01*
X0040813Y0171800D01*
X0039948Y0171442D02*
X0039277Y0171442D01*
X0039250Y0169844D02*
X0037678Y0169844D01*
X0039250Y0168245D02*
X0036080Y0168245D01*
X0035656Y0166647D02*
X0039250Y0166647D01*
X0039250Y0167000D02*
X0039250Y0163763D01*
X0039373Y0163305D01*
X0039610Y0162895D01*
X0039945Y0162560D01*
X0040355Y0162323D01*
X0040813Y0162200D01*
X0041800Y0162200D01*
X0041800Y0167000D01*
X0039250Y0167000D01*
X0039250Y0165048D02*
X0035656Y0165048D01*
X0035656Y0163450D02*
X0039334Y0163450D01*
X0041800Y0163450D02*
X0041800Y0163450D01*
X0041800Y0165048D02*
X0041800Y0165048D01*
X0041800Y0166647D02*
X0041800Y0166647D01*
X0041800Y0168245D02*
X0041800Y0168245D01*
X0041800Y0169844D02*
X0041800Y0169844D01*
X0041800Y0171442D02*
X0041800Y0171442D01*
X0043652Y0171442D02*
X0044098Y0171442D01*
X0036436Y0176238D02*
X0005000Y0176238D01*
X0005000Y0177836D02*
X0032427Y0177836D01*
X0031820Y0179435D02*
X0005000Y0179435D01*
X0005000Y0181033D02*
X0031941Y0181033D01*
X0032570Y0182632D02*
X0005000Y0182632D01*
X0005000Y0184230D02*
X0032570Y0184230D01*
X0032570Y0185829D02*
X0005000Y0185829D01*
X0005000Y0187427D02*
X0032570Y0187427D01*
X0032570Y0189026D02*
X0005000Y0189026D01*
X0005000Y0190624D02*
X0032570Y0190624D01*
X0032570Y0192223D02*
X0005000Y0192223D01*
X0005000Y0193821D02*
X0032570Y0193821D01*
X0032570Y0195420D02*
X0005000Y0195420D01*
X0005000Y0197018D02*
X0032570Y0197018D01*
X0032570Y0198617D02*
X0005000Y0198617D01*
X0005000Y0200215D02*
X0032570Y0200215D01*
X0033446Y0201814D02*
X0005000Y0201814D01*
X0005000Y0203412D02*
X0035044Y0203412D01*
X0038650Y0205011D02*
X0005000Y0205011D01*
X0005000Y0206609D02*
X0039265Y0206609D01*
X0034837Y0174639D02*
X0005000Y0174639D01*
X0005000Y0173041D02*
X0033238Y0173041D01*
X0031640Y0171442D02*
X0005000Y0171442D01*
X0005000Y0169844D02*
X0030074Y0169844D01*
X0029856Y0168245D02*
X0005000Y0168245D01*
X0005000Y0166647D02*
X0008681Y0166647D01*
X0007124Y0165048D02*
X0005000Y0165048D01*
X0005000Y0163450D02*
X0007038Y0163450D01*
X0007038Y0161851D02*
X0005000Y0161851D01*
X0005000Y0160253D02*
X0007038Y0160253D01*
X0007248Y0158654D02*
X0005000Y0158654D01*
X0005000Y0157056D02*
X0007995Y0157056D01*
X0007197Y0155457D02*
X0005000Y0155457D01*
X0005000Y0153859D02*
X0007038Y0153859D01*
X0007418Y0152260D02*
X0005000Y0152260D01*
X0005000Y0150662D02*
X0008530Y0150662D01*
X0007876Y0149063D02*
X0005000Y0149063D01*
X0005000Y0147465D02*
X0007148Y0147465D01*
X0007038Y0145866D02*
X0005000Y0145866D01*
X0005000Y0144268D02*
X0007467Y0144268D01*
X0008648Y0142669D02*
X0005000Y0142669D01*
X0005000Y0141070D02*
X0007761Y0141070D01*
X0007099Y0139472D02*
X0005000Y0139472D01*
X0005000Y0137873D02*
X0007038Y0137873D01*
X0007517Y0136275D02*
X0005000Y0136275D01*
X0005000Y0134676D02*
X0008767Y0134676D01*
X0007712Y0133078D02*
X0005000Y0133078D01*
X0005000Y0131479D02*
X0007049Y0131479D01*
X0007038Y0129881D02*
X0005000Y0129881D01*
X0005000Y0128282D02*
X0007566Y0128282D01*
X0008885Y0126684D02*
X0005000Y0126684D01*
X0005000Y0125085D02*
X0007663Y0125085D01*
X0007038Y0123487D02*
X0005000Y0123487D01*
X0005000Y0121888D02*
X0007038Y0121888D01*
X0007615Y0120290D02*
X0005000Y0120290D01*
X0005000Y0118691D02*
X0009001Y0118691D01*
X0007613Y0117093D02*
X0005000Y0117093D01*
X0005000Y0115494D02*
X0007038Y0115494D01*
X0007038Y0113896D02*
X0005000Y0113896D01*
X0005000Y0112297D02*
X0007664Y0112297D01*
X0008882Y0110699D02*
X0005000Y0110699D01*
X0005000Y0109100D02*
X0007564Y0109100D01*
X0007038Y0107502D02*
X0005000Y0107502D01*
X0005000Y0105903D02*
X0007051Y0105903D01*
X0007713Y0104305D02*
X0005000Y0104305D01*
X0005000Y0102706D02*
X0008764Y0102706D01*
X0007515Y0101108D02*
X0005000Y0101108D01*
X0005000Y0099509D02*
X0007038Y0099509D01*
X0007100Y0097911D02*
X0005000Y0097911D01*
X0005000Y0096312D02*
X0007762Y0096312D01*
X0009658Y0094714D02*
X0005000Y0094714D01*
X0005000Y0093115D02*
X0008138Y0093115D01*
X0007647Y0091517D02*
X0005000Y0091517D01*
X0005000Y0089918D02*
X0007819Y0089918D01*
X0007740Y0090159D02*
X0007943Y0089536D01*
X0008240Y0088952D01*
X0008625Y0088422D01*
X0009088Y0087959D01*
X0009619Y0087574D01*
X0010202Y0087277D01*
X0010825Y0087074D01*
X0011472Y0086972D01*
X0011800Y0086972D01*
X0012128Y0086972D01*
X0012775Y0087074D01*
X0013398Y0087277D01*
X0013981Y0087574D01*
X0014511Y0087959D01*
X0014975Y0088422D01*
X0015360Y0088952D01*
X0015657Y0089536D01*
X0015860Y0090159D01*
X0015962Y0090806D01*
X0015962Y0091134D01*
X0011800Y0091134D01*
X0007638Y0091134D01*
X0007638Y0090806D01*
X0007740Y0090159D01*
X0008728Y0088320D02*
X0005000Y0088320D01*
X0005000Y0086721D02*
X0083330Y0086721D01*
X0083179Y0087086D02*
X0083750Y0085708D01*
X0084805Y0084653D01*
X0086183Y0084082D01*
X0087675Y0084082D01*
X0089053Y0084653D01*
X0090108Y0085708D01*
X0090679Y0087086D01*
X0090679Y0087764D01*
X0094736Y0091821D01*
X0095414Y0091821D01*
X0096792Y0092392D01*
X0097847Y0093447D01*
X0098418Y0094825D01*
X0098418Y0096317D01*
X0097847Y0097695D01*
X0096792Y0098750D01*
X0095414Y0099321D01*
X0093922Y0099321D01*
X0092544Y0098750D01*
X0091489Y0097695D01*
X0090918Y0096317D01*
X0090918Y0095640D01*
X0086860Y0091582D01*
X0086183Y0091582D01*
X0084805Y0091011D01*
X0083750Y0089956D01*
X0083179Y0088578D01*
X0083179Y0087086D01*
X0083179Y0088320D02*
X0014872Y0088320D01*
X0015781Y0089918D02*
X0083734Y0089918D01*
X0086024Y0091517D02*
X0015953Y0091517D01*
X0015462Y0093115D02*
X0088393Y0093115D01*
X0089992Y0094714D02*
X0013942Y0094714D01*
X0011800Y0094246D02*
X0011800Y0094246D01*
X0011800Y0093115D02*
X0011800Y0093115D01*
X0011800Y0092000D02*
X0021800Y0092000D01*
X0015838Y0096312D02*
X0090918Y0096312D01*
X0091704Y0097911D02*
X0016500Y0097911D01*
X0016562Y0099509D02*
X0096402Y0099509D01*
X0096360Y0099560D02*
X0100271Y0094785D01*
X0100271Y0093722D01*
X0100842Y0092344D01*
X0101897Y0091289D01*
X0103275Y0090718D01*
X0104767Y0090718D01*
X0106145Y0091289D01*
X0107200Y0092344D01*
X0107771Y0093722D01*
X0107771Y0095214D01*
X0107200Y0096592D01*
X0106145Y0097647D01*
X0104767Y0098218D01*
X0104439Y0098218D01*
X0100528Y0102993D01*
X0100528Y0104056D01*
X0099957Y0105434D01*
X0098903Y0106489D01*
X0097524Y0107060D01*
X0096032Y0107060D01*
X0094654Y0106489D01*
X0093599Y0105434D01*
X0093028Y0104056D01*
X0093028Y0102564D01*
X0093599Y0101186D01*
X0094654Y0100131D01*
X0096032Y0099560D01*
X0096360Y0099560D01*
X0097632Y0097911D02*
X0097711Y0097911D01*
X0098418Y0096312D02*
X0099020Y0096312D01*
X0098371Y0094714D02*
X0100271Y0094714D01*
X0100522Y0093115D02*
X0097515Y0093115D01*
X0094431Y0091517D02*
X0101669Y0091517D01*
X0105508Y0097911D02*
X0128600Y0097911D01*
X0128600Y0099509D02*
X0126306Y0099509D01*
X0123489Y0099509D02*
X0115311Y0099509D01*
X0116899Y0101108D02*
X0121901Y0101108D01*
X0121824Y0102706D02*
X0116976Y0102706D01*
X0115761Y0104305D02*
X0123039Y0104305D01*
X0126440Y0105903D02*
X0112360Y0105903D01*
X0112050Y0107502D02*
X0126750Y0107502D01*
X0126750Y0109100D02*
X0112050Y0109100D01*
X0112050Y0110699D02*
X0126750Y0110699D01*
X0126750Y0112297D02*
X0112050Y0112297D01*
X0112050Y0113896D02*
X0126750Y0113896D01*
X0126750Y0115494D02*
X0112050Y0115494D01*
X0112050Y0117093D02*
X0126750Y0117093D01*
X0126750Y0118691D02*
X0112050Y0118691D01*
X0112050Y0120290D02*
X0126750Y0120290D01*
X0126750Y0121888D02*
X0112050Y0121888D01*
X0112050Y0123487D02*
X0126750Y0123487D01*
X0126750Y0125085D02*
X0112050Y0125085D01*
X0112050Y0126684D02*
X0126750Y0126684D01*
X0126750Y0128282D02*
X0115337Y0128282D01*
X0116639Y0129881D02*
X0126750Y0129881D01*
X0126750Y0131479D02*
X0117081Y0131479D01*
X0116904Y0133078D02*
X0126750Y0133078D01*
X0126750Y0134676D02*
X0115978Y0134676D01*
X0115562Y0136275D02*
X0126750Y0136275D01*
X0126750Y0137873D02*
X0115512Y0137873D01*
X0115462Y0139472D02*
X0126750Y0139472D01*
X0126750Y0141070D02*
X0115413Y0141070D01*
X0115363Y0142669D02*
X0126750Y0142669D01*
X0126750Y0144268D02*
X0115313Y0144268D01*
X0115263Y0145866D02*
X0126750Y0145866D01*
X0126702Y0147465D02*
X0115213Y0147465D01*
X0115164Y0149063D02*
X0125442Y0149063D01*
X0122086Y0150662D02*
X0116714Y0150662D01*
X0117050Y0152260D02*
X0121750Y0152260D01*
X0122511Y0153859D02*
X0116289Y0153859D01*
X0114964Y0155457D02*
X0128600Y0155457D01*
X0128600Y0153859D02*
X0127832Y0153859D01*
X0128600Y0157056D02*
X0114915Y0157056D01*
X0114865Y0158654D02*
X0121755Y0158654D01*
X0122900Y0158654D02*
X0123300Y0158654D01*
X0124445Y0158654D02*
X0128600Y0158654D01*
X0128600Y0160253D02*
X0127131Y0160253D01*
X0128178Y0161851D02*
X0128600Y0161851D01*
X0128581Y0163450D02*
X0128600Y0163450D01*
X0128600Y0165048D02*
X0128503Y0165048D01*
X0128600Y0166647D02*
X0127924Y0166647D01*
X0128600Y0168245D02*
X0126614Y0168245D01*
X0128600Y0169844D02*
X0113532Y0169844D01*
X0112445Y0171442D02*
X0128600Y0171442D01*
X0128600Y0173041D02*
X0114044Y0173041D01*
X0115642Y0174639D02*
X0128600Y0174639D01*
X0128600Y0176238D02*
X0126010Y0176238D01*
X0127523Y0177836D02*
X0128600Y0177836D01*
X0128600Y0179435D02*
X0127600Y0179435D01*
X0127600Y0181033D02*
X0128600Y0181033D01*
X0128600Y0182632D02*
X0127600Y0182632D01*
X0127600Y0184230D02*
X0128600Y0184230D01*
X0128600Y0185829D02*
X0127600Y0185829D01*
X0127067Y0187427D02*
X0128600Y0187427D01*
X0128600Y0189026D02*
X0126952Y0189026D01*
X0127600Y0190624D02*
X0128600Y0190624D01*
X0128600Y0192223D02*
X0127600Y0192223D01*
X0127600Y0193821D02*
X0128600Y0193821D01*
X0128600Y0195420D02*
X0126907Y0195420D01*
X0125308Y0197018D02*
X0128600Y0197018D01*
X0128600Y0198617D02*
X0126544Y0198617D01*
X0127600Y0200215D02*
X0128600Y0200215D01*
X0128600Y0201814D02*
X0127600Y0201814D01*
X0127600Y0203412D02*
X0128600Y0203412D01*
X0128600Y0205011D02*
X0127316Y0205011D01*
X0128600Y0206609D02*
X0125717Y0206609D01*
X0124119Y0208208D02*
X0128600Y0208208D01*
X0109868Y0169844D02*
X0108736Y0169844D01*
X0107318Y0168245D02*
X0107138Y0168245D01*
X0099707Y0168245D02*
X0099478Y0168245D01*
X0099478Y0166647D02*
X0099707Y0166647D01*
X0099707Y0165048D02*
X0099478Y0165048D01*
X0099478Y0163450D02*
X0099707Y0163450D01*
X0099707Y0161851D02*
X0099478Y0161851D01*
X0099478Y0160253D02*
X0099707Y0160253D01*
X0099707Y0158654D02*
X0099478Y0158654D01*
X0099478Y0157976D02*
X0099478Y0178423D01*
X0099067Y0179415D01*
X0098308Y0180175D01*
X0094151Y0184332D01*
X0099707Y0184332D01*
X0099707Y0157747D01*
X0099478Y0157976D01*
X0097317Y0150662D02*
X0095886Y0150662D01*
X0096126Y0149063D02*
X0094287Y0149063D01*
X0095843Y0147465D02*
X0092689Y0147465D01*
X0091090Y0145866D02*
X0096266Y0145866D01*
X0097919Y0144268D02*
X0089629Y0144268D01*
X0089629Y0142669D02*
X0106750Y0142669D01*
X0106750Y0141070D02*
X0090209Y0141070D01*
X0090679Y0139472D02*
X0106750Y0139472D01*
X0106750Y0137873D02*
X0090442Y0137873D01*
X0089316Y0136275D02*
X0106750Y0136275D01*
X0106750Y0134676D02*
X0089168Y0134676D01*
X0088230Y0133078D02*
X0106750Y0133078D01*
X0106750Y0131479D02*
X0089209Y0131479D01*
X0089368Y0129881D02*
X0106750Y0129881D01*
X0106750Y0128282D02*
X0088821Y0128282D01*
X0086570Y0126684D02*
X0106750Y0126684D01*
X0106750Y0125085D02*
X0036506Y0125085D01*
X0036167Y0126684D02*
X0084666Y0126684D01*
X0082415Y0128282D02*
X0035656Y0128282D01*
X0035656Y0129881D02*
X0081868Y0129881D01*
X0080438Y0131479D02*
X0035656Y0131479D01*
X0035656Y0133078D02*
X0077185Y0133078D01*
X0076247Y0134676D02*
X0035656Y0134676D01*
X0035656Y0136275D02*
X0076143Y0136275D01*
X0075985Y0137873D02*
X0035656Y0137873D01*
X0035656Y0139472D02*
X0074623Y0139472D01*
X0074379Y0141070D02*
X0035656Y0141070D01*
X0035656Y0142669D02*
X0074379Y0142669D01*
X0083634Y0161851D02*
X0084966Y0161851D01*
X0087883Y0177836D02*
X0093010Y0177836D01*
X0091411Y0179435D02*
X0089985Y0179435D01*
X0094252Y0184230D02*
X0099707Y0184230D01*
X0099707Y0182632D02*
X0095851Y0182632D01*
X0097449Y0181033D02*
X0099707Y0181033D01*
X0099707Y0179435D02*
X0099048Y0179435D01*
X0099478Y0177836D02*
X0099707Y0177836D01*
X0099707Y0176238D02*
X0099478Y0176238D01*
X0099478Y0174639D02*
X0099707Y0174639D01*
X0099707Y0173041D02*
X0099478Y0173041D01*
X0099478Y0171442D02*
X0099707Y0171442D01*
X0099707Y0169844D02*
X0099478Y0169844D01*
X0106248Y0149063D02*
X0106974Y0149063D01*
X0106750Y0147465D02*
X0104649Y0147465D01*
X0103051Y0145866D02*
X0106750Y0145866D01*
X0106750Y0144268D02*
X0101266Y0144268D01*
X0106750Y0123487D02*
X0036138Y0123487D01*
X0034753Y0121888D02*
X0106750Y0121888D01*
X0106750Y0120290D02*
X0032027Y0120290D01*
X0030428Y0118691D02*
X0106750Y0118691D01*
X0106750Y0117093D02*
X0028830Y0117093D01*
X0027231Y0115494D02*
X0106750Y0115494D01*
X0106750Y0113896D02*
X0025633Y0113896D01*
X0024034Y0112297D02*
X0106750Y0112297D01*
X0106750Y0110699D02*
X0022436Y0110699D01*
X0020837Y0109100D02*
X0106750Y0109100D01*
X0106750Y0107502D02*
X0019239Y0107502D01*
X0017640Y0105903D02*
X0094068Y0105903D01*
X0093131Y0104305D02*
X0015950Y0104305D01*
X0014836Y0102706D02*
X0093028Y0102706D01*
X0093678Y0101108D02*
X0016085Y0101108D01*
X0011800Y0091517D02*
X0011800Y0091517D01*
X0011800Y0091134D02*
X0011800Y0086972D01*
X0011800Y0091134D01*
X0011800Y0091134D01*
X0011800Y0089918D02*
X0011800Y0089918D01*
X0011800Y0088320D02*
X0011800Y0088320D01*
X0005000Y0085123D02*
X0084335Y0085123D01*
X0089522Y0085123D02*
X0128600Y0085123D01*
X0128600Y0086721D02*
X0090527Y0086721D01*
X0091234Y0088320D02*
X0128600Y0088320D01*
X0128600Y0089918D02*
X0092833Y0089918D01*
X0100763Y0102706D02*
X0107898Y0102706D01*
X0107236Y0104305D02*
X0100425Y0104305D01*
X0099489Y0105903D02*
X0106750Y0105903D01*
X0109474Y0101108D02*
X0102072Y0101108D01*
X0103382Y0099509D02*
X0112494Y0099509D01*
X0107771Y0094714D02*
X0128600Y0094714D01*
X0128600Y0096312D02*
X0107316Y0096312D01*
X0107520Y0093115D02*
X0128600Y0093115D01*
X0128600Y0091517D02*
X0106373Y0091517D01*
X0110188Y0083565D02*
X0108960Y0082336D01*
X0108294Y0080730D01*
X0108294Y0078992D01*
X0108960Y0077387D01*
X0110188Y0076158D01*
X0111794Y0075493D01*
X0113532Y0075493D01*
X0115138Y0076158D01*
X0116366Y0077387D01*
X0117031Y0078992D01*
X0117031Y0080730D01*
X0116366Y0082336D01*
X0115138Y0083565D01*
X0113532Y0084230D01*
X0111794Y0084230D01*
X0110188Y0083565D01*
X0110148Y0083524D02*
X0005000Y0083524D01*
X0005000Y0081926D02*
X0108790Y0081926D01*
X0108294Y0080327D02*
X0005000Y0080327D01*
X0005000Y0078729D02*
X0108404Y0078729D01*
X0109216Y0077130D02*
X0005000Y0077130D01*
X0005000Y0075532D02*
X0111701Y0075532D01*
X0113625Y0075532D02*
X0128600Y0075532D01*
X0128600Y0077130D02*
X0116110Y0077130D01*
X0116922Y0078729D02*
X0128600Y0078729D01*
X0128600Y0080327D02*
X0117031Y0080327D01*
X0116536Y0081926D02*
X0128600Y0081926D01*
X0128600Y0083524D02*
X0115178Y0083524D01*
X0113532Y0066907D02*
X0111794Y0066907D01*
X0110188Y0066242D01*
X0108960Y0065013D01*
X0108294Y0063408D01*
X0108294Y0061670D01*
X0108960Y0060064D01*
X0110188Y0058835D01*
X0111794Y0058170D01*
X0113532Y0058170D01*
X0115138Y0058835D01*
X0116366Y0060064D01*
X0117031Y0061670D01*
X0117031Y0063408D01*
X0116366Y0065013D01*
X0115138Y0066242D01*
X0113532Y0066907D01*
X0115439Y0065940D02*
X0128600Y0065940D01*
X0128600Y0064342D02*
X0116644Y0064342D01*
X0117031Y0062743D02*
X0128600Y0062743D01*
X0128600Y0061145D02*
X0116814Y0061145D01*
X0115849Y0059546D02*
X0128600Y0059546D01*
X0128600Y0057948D02*
X0083376Y0057948D01*
X0082236Y0056808D02*
X0085590Y0060162D01*
X0086268Y0060162D01*
X0087646Y0060733D01*
X0088701Y0061788D01*
X0089272Y0063166D01*
X0089272Y0064658D01*
X0088701Y0066036D01*
X0087646Y0067091D01*
X0086268Y0067662D01*
X0084776Y0067662D01*
X0083397Y0067091D01*
X0082343Y0066036D01*
X0081772Y0064658D01*
X0081772Y0063980D01*
X0078418Y0060626D01*
X0077740Y0060626D01*
X0076362Y0060055D01*
X0075307Y0059001D01*
X0074736Y0057622D01*
X0074736Y0056130D01*
X0075307Y0054752D01*
X0076362Y0053697D01*
X0077740Y0053126D01*
X0079232Y0053126D01*
X0080610Y0053697D01*
X0081665Y0054752D01*
X0082236Y0056130D01*
X0082236Y0056808D01*
X0082236Y0056349D02*
X0128600Y0056349D01*
X0128600Y0054751D02*
X0081664Y0054751D01*
X0079295Y0053152D02*
X0128600Y0053152D01*
X0128600Y0051554D02*
X0005000Y0051554D01*
X0005000Y0053152D02*
X0077678Y0053152D01*
X0075308Y0054751D02*
X0005000Y0054751D01*
X0005000Y0056349D02*
X0074736Y0056349D01*
X0074871Y0057948D02*
X0005000Y0057948D01*
X0005000Y0059546D02*
X0075853Y0059546D01*
X0078936Y0061145D02*
X0005000Y0061145D01*
X0005000Y0062743D02*
X0080535Y0062743D01*
X0081772Y0064342D02*
X0005000Y0064342D01*
X0005000Y0065940D02*
X0082303Y0065940D01*
X0084479Y0067539D02*
X0005000Y0067539D01*
X0005000Y0069137D02*
X0128600Y0069137D01*
X0128600Y0067539D02*
X0086564Y0067539D01*
X0088740Y0065940D02*
X0109887Y0065940D01*
X0108682Y0064342D02*
X0089272Y0064342D01*
X0089097Y0062743D02*
X0108294Y0062743D01*
X0108512Y0061145D02*
X0088058Y0061145D01*
X0084975Y0059546D02*
X0109477Y0059546D01*
X0128600Y0049955D02*
X0005000Y0049955D01*
X0005000Y0048357D02*
X0128600Y0048357D01*
X0128600Y0046758D02*
X0005000Y0046758D01*
X0005000Y0045160D02*
X0128600Y0045160D01*
X0128600Y0043561D02*
X0005000Y0043561D01*
X0005000Y0041963D02*
X0128600Y0041963D01*
X0128600Y0040364D02*
X0005000Y0040364D01*
X0005000Y0038766D02*
X0052962Y0038766D01*
X0053145Y0038949D02*
X0052090Y0037894D01*
X0051519Y0036516D01*
X0051519Y0035024D01*
X0052090Y0033646D01*
X0053145Y0032591D01*
X0054523Y0032020D01*
X0056015Y0032020D01*
X0057393Y0032591D01*
X0057873Y0033070D01*
X0059076Y0033070D01*
X0066294Y0025852D01*
X0066294Y0025175D01*
X0066865Y0023796D01*
X0067919Y0022741D01*
X0069298Y0022170D01*
X0070790Y0022170D01*
X0072168Y0022741D01*
X0073223Y0023796D01*
X0073794Y0025175D01*
X0073794Y0026666D01*
X0073223Y0028045D01*
X0072168Y0029100D01*
X0070790Y0029670D01*
X0070112Y0029670D01*
X0061724Y0038059D01*
X0060731Y0038470D01*
X0057873Y0038470D01*
X0057393Y0038949D01*
X0056015Y0039520D01*
X0054523Y0039520D01*
X0053145Y0038949D01*
X0051789Y0037167D02*
X0005000Y0037167D01*
X0005000Y0035569D02*
X0051519Y0035569D01*
X0051956Y0033970D02*
X0005000Y0033970D01*
X0005000Y0032372D02*
X0053674Y0032372D01*
X0056864Y0032372D02*
X0059774Y0032372D01*
X0061373Y0030773D02*
X0005000Y0030773D01*
X0005000Y0029175D02*
X0062971Y0029175D01*
X0064570Y0027576D02*
X0005000Y0027576D01*
X0005000Y0025978D02*
X0066168Y0025978D01*
X0066623Y0024379D02*
X0005000Y0024379D01*
X0005000Y0022781D02*
X0067880Y0022781D01*
X0072207Y0022781D02*
X0128600Y0022781D01*
X0128600Y0024379D02*
X0073464Y0024379D01*
X0073794Y0025978D02*
X0128600Y0025978D01*
X0128600Y0027576D02*
X0073417Y0027576D01*
X0071987Y0029175D02*
X0128600Y0029175D01*
X0128600Y0030773D02*
X0069009Y0030773D01*
X0067411Y0032372D02*
X0128600Y0032372D01*
X0128600Y0033970D02*
X0065812Y0033970D01*
X0064214Y0035569D02*
X0128600Y0035569D01*
X0128600Y0037167D02*
X0062615Y0037167D01*
X0057577Y0038766D02*
X0128600Y0038766D01*
X0128600Y0021182D02*
X0005000Y0021182D01*
X0005000Y0019584D02*
X0128600Y0019584D01*
X0128600Y0017985D02*
X0005000Y0017985D01*
X0005000Y0016387D02*
X0128600Y0016387D01*
X0128600Y0014788D02*
X0100066Y0014788D01*
X0100429Y0014425D02*
X0099225Y0015629D01*
X0097652Y0016281D01*
X0095948Y0016281D01*
X0094425Y0015650D01*
X0039175Y0015650D01*
X0037652Y0016281D01*
X0035948Y0016281D01*
X0034375Y0015629D01*
X0033171Y0014425D01*
X0032519Y0012852D01*
X0032519Y0011148D01*
X0033171Y0009575D01*
X0034375Y0008371D01*
X0035948Y0007719D01*
X0037652Y0007719D01*
X0039175Y0008350D01*
X0094425Y0008350D01*
X0095948Y0007719D01*
X0097652Y0007719D01*
X0099225Y0008371D01*
X0100429Y0009575D01*
X0101081Y0011148D01*
X0101081Y0012852D01*
X0100429Y0014425D01*
X0100941Y0013190D02*
X0128600Y0013190D01*
X0128600Y0011591D02*
X0101081Y0011591D01*
X0100602Y0009993D02*
X0128600Y0009993D01*
X0128600Y0008394D02*
X0099248Y0008394D01*
X0128600Y0006796D02*
X0005000Y0006796D01*
X0005000Y0008394D02*
X0034352Y0008394D01*
X0032998Y0009993D02*
X0005000Y0009993D01*
X0005000Y0011591D02*
X0032519Y0011591D01*
X0032659Y0013190D02*
X0005000Y0013190D01*
X0005000Y0014788D02*
X0033534Y0014788D01*
X0005000Y0070736D02*
X0128600Y0070736D01*
X0128600Y0072334D02*
X0005000Y0072334D01*
X0005000Y0073933D02*
X0128600Y0073933D01*
X0123300Y0160253D02*
X0122900Y0160253D01*
X0122900Y0161851D02*
X0123300Y0161851D01*
X0123300Y0163450D02*
X0122900Y0163450D01*
X0122900Y0165048D02*
X0123300Y0165048D01*
X0123300Y0166647D02*
X0122900Y0166647D01*
X0122900Y0168245D02*
X0123300Y0168245D01*
X0119586Y0168245D02*
X0116082Y0168245D01*
X0117206Y0166647D02*
X0118276Y0166647D01*
X0118022Y0161851D02*
X0117412Y0161851D01*
X0116579Y0160253D02*
X0119069Y0160253D01*
X0055645Y0144268D02*
X0035656Y0144268D01*
X0035656Y0145866D02*
X0054192Y0145866D01*
X0052736Y0147465D02*
X0035656Y0147465D01*
X0035656Y0149063D02*
X0051279Y0149063D01*
X0049823Y0150662D02*
X0035656Y0150662D01*
X0035656Y0152260D02*
X0048366Y0152260D01*
X0046910Y0153859D02*
X0035656Y0153859D01*
X0035656Y0155457D02*
X0045453Y0155457D01*
X0044607Y0157056D02*
X0035656Y0157056D01*
X0035656Y0158654D02*
X0044630Y0158654D01*
X0044630Y0160253D02*
X0035656Y0160253D01*
X0035656Y0161851D02*
X0044966Y0161851D01*
X0029856Y0161851D02*
X0016562Y0161851D01*
X0016562Y0160253D02*
X0029856Y0160253D01*
X0029856Y0158654D02*
X0016352Y0158654D01*
X0015605Y0157056D02*
X0029856Y0157056D01*
X0029856Y0155457D02*
X0016403Y0155457D01*
X0016562Y0153859D02*
X0029856Y0153859D01*
X0029856Y0152260D02*
X0016182Y0152260D01*
X0015070Y0150662D02*
X0029856Y0150662D01*
X0029856Y0149063D02*
X0015724Y0149063D01*
X0016452Y0147465D02*
X0029856Y0147465D01*
X0029856Y0145866D02*
X0016562Y0145866D01*
X0016133Y0144268D02*
X0029856Y0144268D01*
X0029856Y0142669D02*
X0014952Y0142669D01*
X0015839Y0141070D02*
X0029856Y0141070D01*
X0029856Y0139472D02*
X0016501Y0139472D01*
X0016562Y0137873D02*
X0029856Y0137873D01*
X0029856Y0136275D02*
X0016083Y0136275D01*
X0014833Y0134676D02*
X0029856Y0134676D01*
X0029856Y0133078D02*
X0015888Y0133078D01*
X0016551Y0131479D02*
X0029856Y0131479D01*
X0029856Y0129881D02*
X0016562Y0129881D01*
X0016034Y0128282D02*
X0029856Y0128282D01*
X0029345Y0126684D02*
X0014715Y0126684D01*
X0015937Y0125085D02*
X0028620Y0125085D01*
X0027021Y0123487D02*
X0016562Y0123487D01*
X0016562Y0121888D02*
X0025423Y0121888D01*
X0023824Y0120290D02*
X0015985Y0120290D01*
X0014599Y0118691D02*
X0022226Y0118691D01*
X0020627Y0117093D02*
X0015987Y0117093D01*
X0016562Y0115494D02*
X0019029Y0115494D01*
X0017430Y0113896D02*
X0016562Y0113896D01*
X0016562Y0163450D02*
X0029856Y0163450D01*
X0029856Y0165048D02*
X0016476Y0165048D01*
X0014919Y0166647D02*
X0029856Y0166647D01*
D18*
X0035570Y0179996D03*
X0051752Y0158890D03*
X0059491Y0149041D03*
X0063008Y0148337D03*
X0072154Y0154669D03*
X0079893Y0141302D03*
X0079893Y0135673D03*
X0085522Y0135673D03*
X0086929Y0139191D03*
X0085618Y0130348D03*
X0082707Y0150448D03*
X0086929Y0151151D03*
X0096778Y0155372D03*
X0099593Y0147633D03*
X0102407Y0152558D03*
X0089743Y0165926D03*
X0082004Y0175775D03*
X0088336Y0182811D03*
X0079190Y0197585D03*
X0067230Y0193364D03*
X0064415Y0206731D03*
X0054566Y0196881D03*
X0032756Y0125120D03*
X0078486Y0056876D03*
X0085522Y0063912D03*
X0086929Y0087832D03*
X0094668Y0095571D03*
X0096778Y0103310D03*
X0104021Y0094468D03*
X0070044Y0025920D03*
X0055269Y0035770D03*
X0032052Y0013257D03*
D19*
X0036800Y0012000D03*
X0068400Y0042400D03*
X0085000Y0051000D03*
X0091800Y0067000D03*
X0100800Y0081800D03*
X0091800Y0102000D03*
X0112800Y0131800D03*
X0095800Y0147800D03*
X0086800Y0172600D03*
X0096200Y0183800D03*
X0096800Y0202000D03*
X0061800Y0179400D03*
X0056800Y0132000D03*
X0050800Y0108000D03*
X0059000Y0106000D03*
X0063800Y0098800D03*
X0026800Y0162000D03*
X0006800Y0177000D03*
X0021800Y0092000D03*
X0094200Y0032400D03*
X0101800Y0032000D03*
X0096800Y0012000D03*
D20*
X0094200Y0032400D02*
X0101800Y0032000D01*
X0094200Y0032400D02*
X0089600Y0037000D01*
X0086800Y0037000D01*
X0085200Y0038600D01*
X0085000Y0051000D01*
X0091800Y0067000D02*
X0101800Y0067000D01*
X0106800Y0072000D01*
X0100800Y0081800D01*
X0094200Y0099800D02*
X0092000Y0102000D01*
X0091800Y0102000D01*
X0112800Y0131800D02*
X0111800Y0163900D01*
X0111700Y0164000D01*
X0099200Y0163200D02*
X0099200Y0152800D01*
X0095800Y0149400D01*
X0095800Y0147800D01*
X0099200Y0163200D02*
X0099000Y0163400D01*
X0099000Y0181000D01*
X0096200Y0183800D01*
X0086800Y0177200D02*
X0086800Y0172600D01*
X0086800Y0177200D02*
X0082800Y0181200D01*
X0063600Y0181200D01*
X0061800Y0179400D01*
X0061601Y0165222D02*
X0055269Y0158890D01*
X0051752Y0158890D01*
X0047530Y0160297D02*
X0051752Y0164519D01*
X0047530Y0160297D02*
X0047530Y0157483D01*
X0057787Y0146226D01*
X0060898Y0146226D01*
X0056800Y0132000D02*
X0056800Y0114000D01*
X0050800Y0108000D01*
X0051000Y0105600D01*
X0059000Y0106000D01*
X0061800Y0103200D01*
X0063800Y0098800D01*
X0050800Y0108000D02*
X0021800Y0107600D01*
X0021800Y0092000D01*
X0014464Y0106828D02*
X0032756Y0125120D01*
X0032756Y0168740D01*
X0026800Y0162000D02*
X0021800Y0162000D01*
X0006800Y0177000D01*
X0096800Y0202000D02*
X0111300Y0202000D01*
X0111500Y0202200D01*
D21*
X0037681Y0201806D02*
X0035570Y0199696D01*
X0035570Y0179996D01*
X0061800Y0052000D02*
X0065800Y0048000D01*
X0068400Y0042400D01*
D22*
X0060194Y0035770D02*
X0070044Y0025920D01*
X0060194Y0035770D02*
X0055269Y0035770D01*
X0078486Y0056876D02*
X0085522Y0063912D01*
X0086929Y0087832D02*
X0094668Y0095571D01*
X0096778Y0103310D02*
X0104021Y0094468D01*
X0085618Y0130348D02*
X0079893Y0135673D01*
X0079893Y0137784D01*
X0077079Y0140598D01*
X0077079Y0144819D01*
X0082707Y0150448D01*
X0086929Y0151151D02*
X0086929Y0156076D01*
X0093261Y0162408D01*
X0093261Y0164519D01*
X0090446Y0167333D01*
X0089743Y0167333D01*
X0089039Y0166629D01*
X0089743Y0165926D01*
X0089039Y0166629D02*
X0087632Y0168036D01*
X0086929Y0168036D01*
X0086225Y0167333D01*
X0086800Y0167000D01*
X0081800Y0167000D02*
X0081300Y0166629D01*
X0081300Y0163815D01*
X0072154Y0154669D01*
X0071451Y0165222D02*
X0071451Y0166629D01*
X0071800Y0167000D01*
X0071451Y0165222D02*
X0059491Y0153262D01*
X0059491Y0149041D01*
X0060898Y0146226D02*
X0063008Y0148337D01*
X0061601Y0165222D02*
X0061601Y0166629D01*
X0061800Y0167000D01*
X0051800Y0167000D02*
X0051752Y0166629D01*
X0051752Y0164519D01*
X0039791Y0175775D02*
X0082004Y0175775D01*
X0088336Y0182107D01*
X0088336Y0182811D01*
X0089039Y0185625D02*
X0096778Y0177886D01*
X0096778Y0155372D01*
X0086929Y0145523D01*
X0086929Y0139191D01*
X0085522Y0135673D02*
X0079893Y0141302D01*
X0099593Y0147633D02*
X0101000Y0147633D01*
X0105221Y0151855D01*
X0105221Y0157483D01*
X0103814Y0158890D01*
X0103814Y0168740D01*
X0108035Y0172961D01*
X0110146Y0172961D01*
X0116478Y0179293D01*
X0116478Y0187032D01*
X0121402Y0191957D01*
X0121500Y0192200D01*
X0111500Y0192200D02*
X0110849Y0191957D01*
X0108739Y0191957D01*
X0102407Y0185625D01*
X0101000Y0187032D01*
X0084818Y0187032D01*
X0072154Y0199696D01*
X0072154Y0201806D01*
X0071800Y0202000D01*
X0067230Y0193364D02*
X0076376Y0193364D01*
X0084115Y0185625D01*
X0089039Y0185625D01*
X0079190Y0197585D02*
X0081300Y0199696D01*
X0081300Y0201806D01*
X0081800Y0202000D01*
X0064415Y0206731D02*
X0062305Y0204620D01*
X0062305Y0202510D01*
X0061800Y0202000D01*
X0054566Y0196881D02*
X0052455Y0198992D01*
X0052455Y0201806D01*
X0051800Y0202000D01*
X0041800Y0202000D02*
X0041198Y0201806D01*
X0037681Y0201806D01*
X0039791Y0175775D02*
X0032756Y0168740D01*
X0014464Y0106828D02*
X0012353Y0106828D01*
X0011800Y0106882D01*
X0102407Y0152558D02*
X0102407Y0185625D01*
D23*
X0096800Y0012000D02*
X0036800Y0012000D01*
M02*
