G75*
%MOIN*%
%OFA0B0*%
%FSLAX25Y25*%
%IPPOS*%
%LPD*%
%AMOC8*
5,1,8,0,0,1.08239X$1,22.5*
%
%ADD10C,0.00400*%
%ADD11C,0.00591*%
%ADD12C,0.00500*%
%ADD13R,0.00043X0.01420*%
%ADD14R,0.00043X0.01720*%
%ADD15R,0.00043X0.02330*%
%ADD16R,0.00043X0.02800*%
%ADD17R,0.00043X0.03010*%
%ADD18R,0.00043X0.03270*%
%ADD19R,0.00043X0.03440*%
%ADD20R,0.00043X0.03620*%
%ADD21R,0.00043X0.03830*%
%ADD22R,0.00044X0.04000*%
%ADD23R,0.00044X0.04210*%
%ADD24R,0.00043X0.04430*%
%ADD25R,0.00043X0.04560*%
%ADD26R,0.00043X0.03650*%
%ADD27R,0.00043X0.03700*%
%ADD28R,0.00043X0.03450*%
%ADD29R,0.00043X0.04690*%
%ADD30R,0.00043X0.04910*%
%ADD31R,0.00043X0.03750*%
%ADD32R,0.00043X0.04950*%
%ADD33R,0.00043X0.05170*%
%ADD34R,0.00043X0.03610*%
%ADD35R,0.00043X0.05210*%
%ADD36R,0.00043X0.05420*%
%ADD37R,0.00043X0.03660*%
%ADD38R,0.00043X0.05420*%
%ADD39R,0.00043X0.05680*%
%ADD40R,0.00043X0.03740*%
%ADD41R,0.00043X0.05680*%
%ADD42R,0.00043X0.05940*%
%ADD43R,0.00043X0.06190*%
%ADD44R,0.00043X0.06110*%
%ADD45R,0.00043X0.06370*%
%ADD46R,0.00043X0.03620*%
%ADD47R,0.00043X0.06320*%
%ADD48R,0.00043X0.06540*%
%ADD49R,0.00043X0.06710*%
%ADD50R,0.00043X0.06760*%
%ADD51R,0.00043X0.06970*%
%ADD52R,0.00043X0.06930*%
%ADD53R,0.00043X0.07150*%
%ADD54R,0.00043X0.07060*%
%ADD55R,0.00043X0.07310*%
%ADD56R,0.00043X0.03610*%
%ADD57R,0.00043X0.07230*%
%ADD58R,0.00043X0.07490*%
%ADD59R,0.00043X0.07400*%
%ADD60R,0.00043X0.07660*%
%ADD61R,0.00043X0.03660*%
%ADD62R,0.00043X0.07530*%
%ADD63R,0.00043X0.07830*%
%ADD64R,0.00043X0.07700*%
%ADD65R,0.00043X0.07970*%
%ADD66R,0.00043X0.03440*%
%ADD67R,0.00043X0.03620*%
%ADD68R,0.00043X0.03700*%
%ADD69R,0.00043X0.03450*%
%ADD70R,0.00043X0.07840*%
%ADD71R,0.00043X0.08090*%
%ADD72R,0.00043X0.08000*%
%ADD73R,0.00043X0.08260*%
%ADD74R,0.00043X0.08130*%
%ADD75R,0.00043X0.08430*%
%ADD76R,0.00043X0.08300*%
%ADD77R,0.00043X0.08520*%
%ADD78R,0.00043X0.08480*%
%ADD79R,0.00043X0.08690*%
%ADD80R,0.00043X0.08560*%
%ADD81R,0.00043X0.08870*%
%ADD82R,0.00043X0.08700*%
%ADD83R,0.00043X0.08950*%
%ADD84R,0.00043X0.08820*%
%ADD85R,0.00043X0.09070*%
%ADD86R,0.00043X0.08910*%
%ADD87R,0.00043X0.09210*%
%ADD88R,0.00043X0.09040*%
%ADD89R,0.00043X0.09290*%
%ADD90R,0.00043X0.03710*%
%ADD91R,0.00043X0.09160*%
%ADD92R,0.00043X0.09470*%
%ADD93R,0.00043X0.09300*%
%ADD94R,0.00043X0.09550*%
%ADD95R,0.00043X0.09380*%
%ADD96R,0.00043X0.09730*%
%ADD97R,0.00043X0.09460*%
%ADD98R,0.00043X0.09810*%
%ADD99R,0.00043X0.09640*%
%ADD100R,0.00043X0.09890*%
%ADD101R,0.00043X0.09720*%
%ADD102R,0.00043X0.09990*%
%ADD103R,0.00044X0.03440*%
%ADD104R,0.00044X0.03620*%
%ADD105R,0.00044X0.03700*%
%ADD106R,0.00044X0.03450*%
%ADD107R,0.00044X0.09810*%
%ADD108R,0.00044X0.10150*%
%ADD109R,0.00043X0.09940*%
%ADD110R,0.00043X0.10240*%
%ADD111R,0.00043X0.03660*%
%ADD112R,0.00043X0.10030*%
%ADD113R,0.00043X0.10330*%
%ADD114R,0.00043X0.10110*%
%ADD115R,0.00043X0.10410*%
%ADD116R,0.00043X0.10200*%
%ADD117R,0.00043X0.10500*%
%ADD118R,0.00043X0.10280*%
%ADD119R,0.00043X0.10590*%
%ADD120R,0.00043X0.03570*%
%ADD121R,0.00043X0.10370*%
%ADD122R,0.00043X0.10670*%
%ADD123R,0.00043X0.10750*%
%ADD124R,0.00043X0.10580*%
%ADD125R,0.00043X0.10930*%
%ADD126R,0.00043X0.03580*%
%ADD127R,0.00043X0.11010*%
%ADD128R,0.00043X0.10760*%
%ADD129R,0.00043X0.11100*%
%ADD130R,0.00043X0.10800*%
%ADD131R,0.00043X0.11190*%
%ADD132R,0.00043X0.10890*%
%ADD133R,0.00043X0.10970*%
%ADD134R,0.00043X0.11270*%
%ADD135R,0.00043X0.11060*%
%ADD136R,0.00043X0.11360*%
%ADD137R,0.00043X0.11140*%
%ADD138R,0.00043X0.11450*%
%ADD139R,0.00043X0.11230*%
%ADD140R,0.00043X0.11530*%
%ADD141R,0.00043X0.03570*%
%ADD142R,0.00043X0.11320*%
%ADD143R,0.00043X0.11620*%
%ADD144R,0.00043X0.11400*%
%ADD145R,0.00043X0.11710*%
%ADD146R,0.00043X0.11440*%
%ADD147R,0.00043X0.11790*%
%ADD148R,0.00043X0.11540*%
%ADD149R,0.00043X0.11870*%
%ADD150R,0.00043X0.11580*%
%ADD151R,0.00043X0.11960*%
%ADD152R,0.00043X0.11660*%
%ADD153R,0.00043X0.11750*%
%ADD154R,0.00043X0.12050*%
%ADD155R,0.00043X0.13210*%
%ADD156R,0.00043X0.11830*%
%ADD157R,0.00043X0.12130*%
%ADD158R,0.00043X0.13170*%
%ADD159R,0.00043X0.12220*%
%ADD160R,0.00043X0.11920*%
%ADD161R,0.00043X0.13080*%
%ADD162R,0.00043X0.12000*%
%ADD163R,0.00043X0.12310*%
%ADD164R,0.00043X0.13080*%
%ADD165R,0.00043X0.12040*%
%ADD166R,0.00043X0.12390*%
%ADD167R,0.00043X0.13030*%
%ADD168R,0.00043X0.12090*%
%ADD169R,0.00043X0.12480*%
%ADD170R,0.00043X0.12990*%
%ADD171R,0.00043X0.12180*%
%ADD172R,0.00043X0.12220*%
%ADD173R,0.00043X0.12570*%
%ADD174R,0.00043X0.12910*%
%ADD175R,0.00043X0.12260*%
%ADD176R,0.00043X0.12650*%
%ADD177R,0.00043X0.12350*%
%ADD178R,0.00043X0.12730*%
%ADD179R,0.00043X0.12400*%
%ADD180R,0.00044X0.12830*%
%ADD181R,0.00044X0.12480*%
%ADD182R,0.00043X0.12830*%
%ADD183R,0.00043X0.12520*%
%ADD184R,0.00043X0.12780*%
%ADD185R,0.00043X0.05720*%
%ADD186R,0.00043X0.05760*%
%ADD187R,0.00043X0.05940*%
%ADD188R,0.00043X0.05330*%
%ADD189R,0.00043X0.05600*%
%ADD190R,0.00043X0.05590*%
%ADD191R,0.00043X0.05240*%
%ADD192R,0.00043X0.05070*%
%ADD193R,0.00043X0.05250*%
%ADD194R,0.00043X0.05340*%
%ADD195R,0.00043X0.04990*%
%ADD196R,0.00043X0.05120*%
%ADD197R,0.00043X0.12610*%
%ADD198R,0.00043X0.04900*%
%ADD199R,0.00043X0.05080*%
%ADD200R,0.00043X0.05080*%
%ADD201R,0.00043X0.04730*%
%ADD202R,0.00043X0.04730*%
%ADD203R,0.00043X0.04860*%
%ADD204R,0.00043X0.04860*%
%ADD205R,0.00043X0.12470*%
%ADD206R,0.00043X0.04640*%
%ADD207R,0.00043X0.04780*%
%ADD208R,0.00043X0.04820*%
%ADD209R,0.00043X0.04820*%
%ADD210R,0.00043X0.12470*%
%ADD211R,0.00043X0.04610*%
%ADD212R,0.00043X0.04780*%
%ADD213R,0.00043X0.04650*%
%ADD214R,0.00043X0.04520*%
%ADD215R,0.00043X0.04600*%
%ADD216R,0.00043X0.04470*%
%ADD217R,0.00043X0.04510*%
%ADD218R,0.00043X0.12310*%
%ADD219R,0.00043X0.04390*%
%ADD220R,0.00043X0.04560*%
%ADD221R,0.00043X0.01890*%
%ADD222R,0.00043X0.04350*%
%ADD223R,0.00043X0.04470*%
%ADD224R,0.00043X0.04310*%
%ADD225R,0.00043X0.04430*%
%ADD226R,0.00043X0.04440*%
%ADD227R,0.00043X0.01980*%
%ADD228R,0.00043X0.04260*%
%ADD229R,0.00043X0.04220*%
%ADD230R,0.00043X0.04340*%
%ADD231R,0.00043X0.04390*%
%ADD232R,0.00043X0.02070*%
%ADD233R,0.00043X0.12170*%
%ADD234R,0.00043X0.04170*%
%ADD235R,0.00043X0.04300*%
%ADD236R,0.00043X0.02150*%
%ADD237R,0.00043X0.04130*%
%ADD238R,0.00043X0.02240*%
%ADD239R,0.00043X0.04130*%
%ADD240R,0.00043X0.04210*%
%ADD241R,0.00043X0.04080*%
%ADD242R,0.00043X0.04180*%
%ADD243R,0.00043X0.02330*%
%ADD244R,0.00043X0.12010*%
%ADD245R,0.00043X0.04090*%
%ADD246R,0.00043X0.04170*%
%ADD247R,0.00043X0.11970*%
%ADD248R,0.00043X0.04050*%
%ADD249R,0.00043X0.02410*%
%ADD250R,0.00043X0.04000*%
%ADD251R,0.00043X0.04140*%
%ADD252R,0.00043X0.04090*%
%ADD253R,0.00043X0.03960*%
%ADD254R,0.00043X0.04080*%
%ADD255R,0.00043X0.02490*%
%ADD256R,0.00043X0.04040*%
%ADD257R,0.00043X0.04040*%
%ADD258R,0.00043X0.02530*%
%ADD259R,0.00043X0.03950*%
%ADD260R,0.00043X0.02580*%
%ADD261R,0.00043X0.03910*%
%ADD262R,0.00043X0.04010*%
%ADD263R,0.00043X0.02630*%
%ADD264R,0.00043X0.03870*%
%ADD265R,0.00043X0.03790*%
%ADD266R,0.00043X0.02670*%
%ADD267R,0.00043X0.03920*%
%ADD268R,0.00044X0.02750*%
%ADD269R,0.00044X0.03440*%
%ADD270R,0.00044X0.11710*%
%ADD271R,0.00044X0.03450*%
%ADD272R,0.00044X0.03880*%
%ADD273R,0.00044X0.03400*%
%ADD274R,0.00044X0.03960*%
%ADD275R,0.00044X0.03960*%
%ADD276R,0.00043X0.02750*%
%ADD277R,0.00043X0.03220*%
%ADD278R,0.00043X0.03920*%
%ADD279R,0.00043X0.02840*%
%ADD280R,0.00043X0.11610*%
%ADD281R,0.00043X0.02890*%
%ADD282R,0.00043X0.02930*%
%ADD283R,0.00043X0.11570*%
%ADD284R,0.00043X0.02970*%
%ADD285R,0.00043X0.03780*%
%ADD286R,0.00043X0.02460*%
%ADD287R,0.00043X0.03870*%
%ADD288R,0.00043X0.03880*%
%ADD289R,0.00043X0.03830*%
%ADD290R,0.00043X0.03050*%
%ADD291R,0.00043X0.02070*%
%ADD292R,0.00043X0.03790*%
%ADD293R,0.00043X0.03100*%
%ADD294R,0.00043X0.01850*%
%ADD295R,0.00043X0.03190*%
%ADD296R,0.00043X0.01680*%
%ADD297R,0.00043X0.01460*%
%ADD298R,0.00043X0.03270*%
%ADD299R,0.00043X0.01330*%
%ADD300R,0.00043X0.03310*%
%ADD301R,0.00043X0.11310*%
%ADD302R,0.00043X0.01120*%
%ADD303R,0.00043X0.03740*%
%ADD304R,0.00043X0.03350*%
%ADD305R,0.00043X0.00950*%
%ADD306R,0.00043X0.03390*%
%ADD307R,0.00043X0.00730*%
%ADD308R,0.00043X0.00610*%
%ADD309R,0.00043X0.03490*%
%ADD310R,0.00043X0.00380*%
%ADD311R,0.00043X0.03530*%
%ADD312R,0.00043X0.11150*%
%ADD313R,0.00043X0.00170*%
%ADD314R,0.00043X0.11110*%
%ADD315R,0.00043X0.03650*%
%ADD316R,0.00043X0.11110*%
%ADD317R,0.00043X0.10970*%
%ADD318R,0.00043X0.10850*%
%ADD319R,0.00043X0.03480*%
%ADD320R,0.00043X0.03530*%
%ADD321R,0.00044X0.04350*%
%ADD322R,0.00044X0.03490*%
%ADD323R,0.00044X0.03570*%
%ADD324R,0.00044X0.03570*%
%ADD325R,0.00043X0.03520*%
%ADD326R,0.00043X0.03480*%
%ADD327R,0.00043X0.03580*%
%ADD328R,0.00043X0.04510*%
%ADD329R,0.00043X0.03480*%
%ADD330R,0.00043X0.03580*%
%ADD331R,0.00043X0.03520*%
%ADD332R,0.00043X0.03530*%
%ADD333R,0.00043X0.03520*%
%ADD334R,0.00043X0.04770*%
%ADD335R,0.00043X0.04870*%
%ADD336R,0.00043X0.05030*%
%ADD337R,0.00043X0.05130*%
%ADD338R,0.00043X0.05290*%
%ADD339R,0.00043X0.05370*%
%ADD340R,0.00043X0.05470*%
%ADD341R,0.00043X0.03490*%
%ADD342R,0.00043X0.05550*%
%ADD343R,0.00043X0.05630*%
%ADD344R,0.00043X0.05730*%
%ADD345R,0.00043X0.03520*%
%ADD346R,0.00043X0.03490*%
%ADD347R,0.00043X0.03480*%
%ADD348R,0.00043X0.05730*%
%ADD349R,0.00043X0.05810*%
%ADD350R,0.00043X0.05850*%
%ADD351R,0.00043X0.05890*%
%ADD352R,0.00043X0.03440*%
%ADD353R,0.00043X0.05990*%
%ADD354R,0.00044X0.05990*%
%ADD355R,0.00044X0.03530*%
%ADD356R,0.00044X0.03480*%
%ADD357R,0.00044X0.03480*%
%ADD358R,0.00043X0.06070*%
%ADD359R,0.00043X0.06150*%
%ADD360R,0.00043X0.06230*%
%ADD361R,0.00043X0.06280*%
%ADD362R,0.00043X0.06330*%
%ADD363R,0.00043X0.06410*%
%ADD364R,0.00043X0.06490*%
%ADD365R,0.00043X0.06590*%
%ADD366R,0.00043X0.03530*%
%ADD367R,0.00043X0.06630*%
%ADD368R,0.00043X0.06670*%
%ADD369R,0.00043X0.03360*%
%ADD370R,0.00043X0.03320*%
%ADD371R,0.00043X0.03360*%
%ADD372R,0.00043X0.03400*%
%ADD373R,0.00043X0.03310*%
%ADD374R,0.00043X0.03320*%
%ADD375R,0.00043X0.03390*%
%ADD376R,0.00043X0.06750*%
%ADD377R,0.00044X0.03350*%
%ADD378R,0.00044X0.06710*%
%ADD379R,0.00044X0.03490*%
%ADD380R,0.00044X0.03570*%
%ADD381R,0.00044X0.03570*%
%ADD382R,0.00043X0.06670*%
%ADD383R,0.00043X0.06620*%
%ADD384R,0.00043X0.06580*%
%ADD385R,0.00043X0.06500*%
%ADD386R,0.00043X0.06450*%
%ADD387R,0.00043X0.06370*%
%ADD388R,0.00043X0.06320*%
%ADD389R,0.00043X0.06240*%
%ADD390R,0.00043X0.03360*%
%ADD391R,0.00043X0.06190*%
%ADD392R,0.00043X0.03440*%
%ADD393R,0.00043X0.00130*%
%ADD394R,0.00043X0.03790*%
%ADD395R,0.00043X0.00350*%
%ADD396R,0.00043X0.00560*%
%ADD397R,0.00043X0.00690*%
%ADD398R,0.00043X0.00900*%
%ADD399R,0.00043X0.06060*%
%ADD400R,0.00043X0.01120*%
%ADD401R,0.00043X0.01290*%
%ADD402R,0.00043X0.06020*%
%ADD403R,0.00043X0.01460*%
%ADD404R,0.00043X0.05980*%
%ADD405R,0.00043X0.03880*%
%ADD406R,0.00043X0.03960*%
%ADD407R,0.00043X0.02280*%
%ADD408R,0.00043X0.02450*%
%ADD409R,0.00044X0.03400*%
%ADD410R,0.00044X0.05890*%
%ADD411R,0.00044X0.03910*%
%ADD412R,0.00044X0.02670*%
%ADD413R,0.00044X0.04000*%
%ADD414R,0.00043X0.03010*%
%ADD415R,0.00043X0.05760*%
%ADD416R,0.00043X0.04050*%
%ADD417R,0.00043X0.03620*%
%ADD418R,0.00043X0.04130*%
%ADD419R,0.00043X0.04130*%
%ADD420R,0.00043X0.05720*%
%ADD421R,0.00043X0.06930*%
%ADD422R,0.00043X0.04260*%
%ADD423R,0.00043X0.06890*%
%ADD424R,0.00043X0.06840*%
%ADD425R,0.00043X0.06790*%
%ADD426R,0.00043X0.04220*%
%ADD427R,0.00043X0.04510*%
%ADD428R,0.00043X0.05510*%
%ADD429R,0.00043X0.05460*%
%ADD430R,0.00043X0.04480*%
%ADD431R,0.00043X0.06590*%
%ADD432R,0.00043X0.04640*%
%ADD433R,0.00043X0.04740*%
%ADD434R,0.00043X0.04820*%
%ADD435R,0.00043X0.04820*%
%ADD436R,0.00043X0.05380*%
%ADD437R,0.00043X0.04690*%
%ADD438R,0.00043X0.05040*%
%ADD439R,0.00043X0.05030*%
%ADD440R,0.00043X0.05170*%
%ADD441R,0.00043X0.05160*%
%ADD442R,0.00043X0.05300*%
%ADD443R,0.00043X0.05200*%
%ADD444R,0.00043X0.06290*%
%ADD445R,0.00043X0.05900*%
%ADD446R,0.00043X0.06330*%
%ADD447R,0.00043X0.03400*%
%ADD448R,0.00043X0.05160*%
%ADD449R,0.00043X0.12480*%
%ADD450R,0.00043X0.12830*%
%ADD451R,0.00043X0.12480*%
%ADD452R,0.00043X0.12390*%
%ADD453R,0.00043X0.12310*%
%ADD454R,0.00044X0.03350*%
%ADD455R,0.00044X0.05030*%
%ADD456R,0.00044X0.06030*%
%ADD457R,0.00044X0.12310*%
%ADD458R,0.00044X0.12220*%
%ADD459R,0.00044X0.12480*%
%ADD460R,0.00043X0.12430*%
%ADD461R,0.00043X0.05930*%
%ADD462R,0.00043X0.11790*%
%ADD463R,0.00043X0.05770*%
%ADD464R,0.00043X0.11710*%
%ADD465R,0.00043X0.11620*%
%ADD466R,0.00043X0.11570*%
%ADD467R,0.00043X0.04770*%
%ADD468R,0.00043X0.11490*%
%ADD469R,0.00043X0.04730*%
%ADD470R,0.00043X0.05590*%
%ADD471R,0.00043X0.11360*%
%ADD472R,0.00043X0.11620*%
%ADD473R,0.00043X0.11190*%
%ADD474R,0.00043X0.11010*%
%ADD475R,0.00043X0.05430*%
%ADD476R,0.00043X0.04520*%
%ADD477R,0.00043X0.10590*%
%ADD478R,0.00043X0.10410*%
%ADD479R,0.00043X0.10330*%
%ADD480R,0.00043X0.05120*%
%ADD481R,0.00043X0.10150*%
%ADD482R,0.00043X0.10070*%
%ADD483R,0.00043X0.05070*%
%ADD484R,0.00043X0.09990*%
%ADD485R,0.00043X0.09850*%
%ADD486R,0.00044X0.04910*%
%ADD487R,0.00044X0.12310*%
%ADD488R,0.00044X0.09380*%
%ADD489R,0.00044X0.09640*%
%ADD490R,0.00043X0.09290*%
%ADD491R,0.00043X0.09210*%
%ADD492R,0.00043X0.09380*%
%ADD493R,0.00043X0.09070*%
%ADD494R,0.00043X0.09030*%
%ADD495R,0.00043X0.08730*%
%ADD496R,0.00043X0.08610*%
%ADD497R,0.00043X0.08830*%
%ADD498R,0.00043X0.08470*%
%ADD499R,0.00043X0.08350*%
%ADD500R,0.00043X0.04570*%
%ADD501R,0.00043X0.08170*%
%ADD502R,0.00043X0.08390*%
%ADD503R,0.00043X0.08050*%
%ADD504R,0.00043X0.07920*%
%ADD505R,0.00043X0.08090*%
%ADD506R,0.00043X0.07750*%
%ADD507R,0.00043X0.07920*%
%ADD508R,0.00043X0.07570*%
%ADD509R,0.00043X0.07790*%
%ADD510R,0.00043X0.07310*%
%ADD511R,0.00043X0.04170*%
%ADD512R,0.00043X0.06190*%
%ADD513R,0.00043X0.06370*%
%ADD514R,0.00043X0.05510*%
%ADD515R,0.00043X0.04990*%
%ADD516R,0.00044X0.02330*%
%ADD517R,0.00043X0.01630*%
D10*
X0007601Y0007200D02*
X0007000Y0007801D01*
X0007000Y0008401D01*
X0007601Y0009002D01*
X0010603Y0009002D01*
X0010603Y0009602D02*
X0010603Y0008401D01*
X0009402Y0011484D02*
X0009402Y0012685D01*
X0008802Y0013285D01*
X0007000Y0013285D01*
X0007000Y0011484D01*
X0007601Y0010883D01*
X0008201Y0011484D01*
X0008201Y0013285D01*
X0007000Y0014566D02*
X0009402Y0014566D01*
X0009402Y0016368D01*
X0008802Y0016968D01*
X0007000Y0016968D01*
X0007601Y0018249D02*
X0007000Y0018850D01*
X0007000Y0020651D01*
X0009402Y0020651D01*
X0009402Y0022533D02*
X0009402Y0023734D01*
X0008802Y0024335D01*
X0007000Y0024335D01*
X0007000Y0022533D01*
X0007601Y0021933D01*
X0008201Y0022533D01*
X0008201Y0024335D01*
X0008201Y0025616D02*
X0009402Y0026817D01*
X0009402Y0027417D01*
X0009402Y0028685D02*
X0007601Y0028685D01*
X0007000Y0029286D01*
X0007000Y0031087D01*
X0006399Y0031087D02*
X0005799Y0030487D01*
X0005799Y0029886D01*
X0006399Y0031087D02*
X0009402Y0031087D01*
X0010003Y0036051D02*
X0010603Y0036652D01*
X0010603Y0037853D01*
X0010003Y0038453D01*
X0009402Y0038453D01*
X0007000Y0036051D01*
X0007000Y0038453D01*
X0007601Y0039734D02*
X0010003Y0042136D01*
X0007601Y0042136D01*
X0007000Y0041536D01*
X0007000Y0040335D01*
X0007601Y0039734D01*
X0010003Y0039734D01*
X0010603Y0040335D01*
X0010603Y0041536D01*
X0010003Y0042136D01*
X0009402Y0043418D02*
X0010603Y0044619D01*
X0007000Y0044619D01*
X0007000Y0043418D02*
X0007000Y0045820D01*
X0007000Y0047101D02*
X0007601Y0047101D01*
X0010003Y0049503D01*
X0010603Y0049503D01*
X0010603Y0047101D01*
X0009402Y0025616D02*
X0007000Y0025616D01*
X0007601Y0018249D02*
X0009402Y0018249D01*
X0092367Y0170200D02*
X0091600Y0170967D01*
X0091600Y0172502D01*
X0092367Y0173269D01*
X0096204Y0173269D01*
X0096204Y0174804D02*
X0096204Y0177873D01*
X0095437Y0177873D01*
X0092367Y0174804D01*
X0091600Y0174804D01*
X0092367Y0170200D02*
X0096204Y0170200D01*
D11*
X0113680Y0117661D02*
X0115120Y0117661D01*
X0115313Y0115756D01*
X0115954Y0115551D01*
X0116552Y0115243D01*
X0118036Y0116454D01*
X0119054Y0115436D01*
X0117843Y0113952D01*
X0118151Y0113354D01*
X0118356Y0112713D01*
X0120261Y0112520D01*
X0120261Y0111080D01*
X0118356Y0110887D01*
X0118151Y0110246D01*
X0117843Y0109648D01*
X0119054Y0108164D01*
X0118036Y0107146D01*
X0116552Y0108357D01*
X0115954Y0108049D01*
X0115313Y0107844D01*
X0115120Y0105939D01*
X0113680Y0105939D01*
X0113487Y0107844D01*
X0112846Y0108049D01*
X0112248Y0108357D01*
X0110764Y0107146D01*
X0109746Y0108164D01*
X0110957Y0109648D01*
X0110649Y0110246D01*
X0112695Y0111094D01*
X0112907Y0110715D01*
X0113201Y0110397D01*
X0113562Y0110155D01*
X0113969Y0110005D01*
X0114400Y0109954D01*
X0114839Y0110007D01*
X0115252Y0110163D01*
X0115617Y0110412D01*
X0115911Y0110741D01*
X0116120Y0111131D01*
X0116229Y0111559D01*
X0116234Y0112001D01*
X0116134Y0112431D01*
X0115934Y0112825D01*
X0115646Y0113160D01*
X0115287Y0113418D01*
X0114877Y0113582D01*
X0114440Y0113645D01*
X0114000Y0113601D01*
X0113584Y0113455D01*
X0113214Y0113214D01*
X0112912Y0112891D01*
X0112695Y0112506D01*
X0110649Y0113354D01*
X0110957Y0113952D01*
X0109746Y0115436D01*
X0110764Y0116454D01*
X0112248Y0115243D01*
X0112846Y0115551D01*
X0113487Y0115756D01*
X0113680Y0117661D01*
X0113659Y0117456D02*
X0115141Y0117456D01*
X0115200Y0116867D02*
X0113600Y0116867D01*
X0113540Y0116278D02*
X0115260Y0116278D01*
X0115523Y0115689D02*
X0113277Y0115689D01*
X0111702Y0115689D02*
X0110000Y0115689D01*
X0110020Y0115100D02*
X0118780Y0115100D01*
X0118800Y0115689D02*
X0117098Y0115689D01*
X0117821Y0116278D02*
X0118211Y0116278D01*
X0118299Y0114511D02*
X0110501Y0114511D01*
X0110941Y0113922D02*
X0117859Y0113922D01*
X0118158Y0113333D02*
X0115406Y0113333D01*
X0115975Y0112744D02*
X0118347Y0112744D01*
X0119241Y0110977D02*
X0116037Y0110977D01*
X0116229Y0111566D02*
X0120261Y0111566D01*
X0120261Y0112155D02*
X0116198Y0112155D01*
X0115580Y0110387D02*
X0118196Y0110387D01*
X0117921Y0109798D02*
X0110879Y0109798D01*
X0110990Y0110387D02*
X0113215Y0110387D01*
X0112760Y0110977D02*
X0112412Y0110977D01*
X0112122Y0112744D02*
X0112829Y0112744D01*
X0113397Y0113333D02*
X0110700Y0113333D01*
X0110599Y0109209D02*
X0118201Y0109209D01*
X0118682Y0108620D02*
X0110118Y0108620D01*
X0109879Y0108031D02*
X0111849Y0108031D01*
X0111127Y0107442D02*
X0110468Y0107442D01*
X0112901Y0108031D02*
X0115899Y0108031D01*
X0115273Y0107442D02*
X0113527Y0107442D01*
X0113587Y0106853D02*
X0115213Y0106853D01*
X0115153Y0106264D02*
X0113647Y0106264D01*
X0116951Y0108031D02*
X0118921Y0108031D01*
X0118332Y0107442D02*
X0117673Y0107442D01*
X0110979Y0116278D02*
X0110589Y0116278D01*
D12*
X0089900Y0170000D02*
X0088400Y0170000D01*
X0089900Y0170000D02*
X0089900Y0200000D01*
X0088400Y0200000D01*
X0084164Y0175000D02*
X0084166Y0175094D01*
X0084172Y0175188D01*
X0084182Y0175282D01*
X0084196Y0175375D01*
X0084214Y0175468D01*
X0084235Y0175560D01*
X0084261Y0175650D01*
X0084290Y0175740D01*
X0084323Y0175828D01*
X0084360Y0175915D01*
X0084400Y0176000D01*
X0084444Y0176084D01*
X0084492Y0176165D01*
X0084542Y0176245D01*
X0084597Y0176322D01*
X0084654Y0176397D01*
X0084714Y0176469D01*
X0084778Y0176539D01*
X0084844Y0176606D01*
X0084913Y0176670D01*
X0084985Y0176731D01*
X0085059Y0176789D01*
X0085136Y0176844D01*
X0085215Y0176896D01*
X0085296Y0176944D01*
X0085379Y0176989D01*
X0085463Y0177030D01*
X0085550Y0177068D01*
X0085638Y0177102D01*
X0085727Y0177132D01*
X0085817Y0177159D01*
X0085909Y0177181D01*
X0086001Y0177200D01*
X0086095Y0177215D01*
X0086188Y0177226D01*
X0086282Y0177233D01*
X0086376Y0177236D01*
X0086471Y0177235D01*
X0086565Y0177230D01*
X0086659Y0177221D01*
X0086752Y0177208D01*
X0086845Y0177191D01*
X0086937Y0177171D01*
X0087028Y0177146D01*
X0087118Y0177118D01*
X0087206Y0177086D01*
X0087294Y0177050D01*
X0087379Y0177010D01*
X0087463Y0176967D01*
X0087545Y0176921D01*
X0087625Y0176871D01*
X0087703Y0176817D01*
X0087778Y0176761D01*
X0087851Y0176701D01*
X0087922Y0176638D01*
X0087989Y0176573D01*
X0088054Y0176504D01*
X0088116Y0176433D01*
X0088175Y0176360D01*
X0088231Y0176284D01*
X0088283Y0176205D01*
X0088332Y0176125D01*
X0088378Y0176042D01*
X0088420Y0175958D01*
X0088459Y0175872D01*
X0088494Y0175784D01*
X0088525Y0175695D01*
X0088553Y0175605D01*
X0088576Y0175514D01*
X0088596Y0175422D01*
X0088612Y0175329D01*
X0088624Y0175235D01*
X0088632Y0175141D01*
X0088636Y0175047D01*
X0088636Y0174953D01*
X0088632Y0174859D01*
X0088624Y0174765D01*
X0088612Y0174671D01*
X0088596Y0174578D01*
X0088576Y0174486D01*
X0088553Y0174395D01*
X0088525Y0174305D01*
X0088494Y0174216D01*
X0088459Y0174128D01*
X0088420Y0174042D01*
X0088378Y0173958D01*
X0088332Y0173875D01*
X0088283Y0173795D01*
X0088231Y0173716D01*
X0088175Y0173640D01*
X0088116Y0173567D01*
X0088054Y0173496D01*
X0087989Y0173427D01*
X0087922Y0173362D01*
X0087851Y0173299D01*
X0087778Y0173239D01*
X0087703Y0173183D01*
X0087625Y0173129D01*
X0087545Y0173079D01*
X0087463Y0173033D01*
X0087379Y0172990D01*
X0087294Y0172950D01*
X0087206Y0172914D01*
X0087118Y0172882D01*
X0087028Y0172854D01*
X0086937Y0172829D01*
X0086845Y0172809D01*
X0086752Y0172792D01*
X0086659Y0172779D01*
X0086565Y0172770D01*
X0086471Y0172765D01*
X0086376Y0172764D01*
X0086282Y0172767D01*
X0086188Y0172774D01*
X0086095Y0172785D01*
X0086001Y0172800D01*
X0085909Y0172819D01*
X0085817Y0172841D01*
X0085727Y0172868D01*
X0085638Y0172898D01*
X0085550Y0172932D01*
X0085463Y0172970D01*
X0085379Y0173011D01*
X0085296Y0173056D01*
X0085215Y0173104D01*
X0085136Y0173156D01*
X0085059Y0173211D01*
X0084985Y0173269D01*
X0084913Y0173330D01*
X0084844Y0173394D01*
X0084778Y0173461D01*
X0084714Y0173531D01*
X0084654Y0173603D01*
X0084597Y0173678D01*
X0084542Y0173755D01*
X0084492Y0173835D01*
X0084444Y0173916D01*
X0084400Y0174000D01*
X0084360Y0174085D01*
X0084323Y0174172D01*
X0084290Y0174260D01*
X0084261Y0174350D01*
X0084235Y0174440D01*
X0084214Y0174532D01*
X0084196Y0174625D01*
X0084182Y0174718D01*
X0084172Y0174812D01*
X0084166Y0174906D01*
X0084164Y0175000D01*
X0039900Y0170000D02*
X0038900Y0170000D01*
X0038900Y0200000D01*
X0039900Y0200000D01*
D13*
X0105247Y0078670D03*
D14*
X0105247Y0094440D03*
X0120222Y0094440D03*
D15*
X0105290Y0094435D03*
X0105290Y0078815D03*
D16*
X0105333Y0078750D03*
X0110024Y0083270D03*
D17*
X0109981Y0083335D03*
X0105333Y0094435D03*
X0120135Y0094435D03*
X0110153Y0013755D03*
D18*
X0105376Y0078735D03*
D19*
X0105549Y0067890D03*
X0105592Y0067890D03*
X0105635Y0067890D03*
X0105678Y0067890D03*
X0105721Y0067890D03*
X0105764Y0067890D03*
X0105807Y0067890D03*
X0105850Y0067890D03*
X0105893Y0067890D03*
X0105936Y0067890D03*
X0105979Y0067890D03*
X0106022Y0067890D03*
X0106065Y0067890D03*
X0106108Y0067890D03*
X0106151Y0067890D03*
X0106194Y0067890D03*
X0106280Y0067890D03*
X0106323Y0067890D03*
X0106366Y0067890D03*
X0106409Y0067890D03*
X0106452Y0067890D03*
X0106495Y0067890D03*
X0106538Y0067890D03*
X0106581Y0067890D03*
X0106624Y0067890D03*
X0106667Y0067890D03*
X0106710Y0067890D03*
X0106753Y0067890D03*
X0106796Y0067890D03*
X0106839Y0067890D03*
X0106882Y0067890D03*
X0106969Y0067890D03*
X0107055Y0067890D03*
X0107098Y0067890D03*
X0107141Y0067890D03*
X0107184Y0067890D03*
X0107227Y0067890D03*
X0107270Y0067890D03*
X0107313Y0067890D03*
X0107356Y0067890D03*
X0107399Y0067890D03*
X0107442Y0067890D03*
X0107485Y0067890D03*
X0107528Y0067890D03*
X0107571Y0067890D03*
X0107614Y0067890D03*
X0107657Y0067890D03*
X0107700Y0067890D03*
X0107743Y0067890D03*
X0107786Y0067890D03*
X0107829Y0067890D03*
X0107872Y0067890D03*
X0107915Y0067890D03*
X0107958Y0067890D03*
X0108001Y0067890D03*
X0108044Y0067890D03*
X0108130Y0067890D03*
X0108173Y0067890D03*
X0108216Y0067890D03*
X0108259Y0067890D03*
X0108302Y0067890D03*
X0108345Y0067890D03*
X0108388Y0067890D03*
X0108475Y0067890D03*
X0108518Y0067890D03*
X0108561Y0067890D03*
X0108604Y0067890D03*
X0108647Y0067890D03*
X0108690Y0067890D03*
X0108733Y0067890D03*
X0108776Y0067890D03*
X0108819Y0067890D03*
X0108905Y0067890D03*
X0108948Y0067890D03*
X0108991Y0067890D03*
X0109034Y0067890D03*
X0109077Y0067890D03*
X0109120Y0067890D03*
X0109163Y0067890D03*
X0109206Y0067890D03*
X0109249Y0067890D03*
X0109292Y0067890D03*
X0109335Y0067890D03*
X0109378Y0067890D03*
X0109421Y0067890D03*
X0109464Y0067890D03*
X0109507Y0067890D03*
X0109550Y0067890D03*
X0109593Y0067890D03*
X0109636Y0067890D03*
X0109679Y0067890D03*
X0109722Y0067890D03*
X0109765Y0067890D03*
X0109808Y0067890D03*
X0109851Y0067890D03*
X0109938Y0067890D03*
X0109981Y0067890D03*
X0110024Y0067890D03*
X0110067Y0067890D03*
X0110110Y0067890D03*
X0110153Y0067890D03*
X0110196Y0067890D03*
X0110239Y0067890D03*
X0110282Y0067890D03*
X0110325Y0067890D03*
X0110368Y0067890D03*
X0110411Y0067890D03*
X0110454Y0067890D03*
X0110497Y0067890D03*
X0110540Y0067890D03*
X0110583Y0067890D03*
X0110626Y0067890D03*
X0110669Y0067890D03*
X0110755Y0067890D03*
X0110798Y0067890D03*
X0110841Y0067890D03*
X0110884Y0067890D03*
X0110927Y0067890D03*
X0110970Y0067890D03*
X0111013Y0067890D03*
X0111056Y0067890D03*
X0111099Y0067890D03*
X0111142Y0067890D03*
X0111185Y0067890D03*
X0111228Y0067890D03*
X0111271Y0067890D03*
X0111314Y0067890D03*
X0111401Y0067890D03*
X0111444Y0067890D03*
X0111530Y0067890D03*
X0111573Y0067890D03*
X0111616Y0067890D03*
X0111659Y0067890D03*
X0111702Y0067890D03*
X0111745Y0067890D03*
X0111788Y0067890D03*
X0111831Y0067890D03*
X0111874Y0067890D03*
X0111917Y0067890D03*
X0111960Y0067890D03*
X0112003Y0067890D03*
X0112046Y0067890D03*
X0112089Y0067890D03*
X0112132Y0067890D03*
X0112175Y0067890D03*
X0112218Y0067890D03*
X0112261Y0067890D03*
X0112304Y0067890D03*
X0112347Y0067890D03*
X0112390Y0067890D03*
X0112433Y0067890D03*
X0112476Y0067890D03*
X0112519Y0067890D03*
X0112605Y0067890D03*
X0112648Y0067890D03*
X0112691Y0067890D03*
X0112734Y0067890D03*
X0112777Y0067890D03*
X0112864Y0067890D03*
X0112907Y0067890D03*
X0112950Y0067890D03*
X0112993Y0067890D03*
X0113036Y0067890D03*
X0113079Y0067890D03*
X0113122Y0067890D03*
X0113165Y0067890D03*
X0113208Y0067890D03*
X0113251Y0067890D03*
X0113294Y0067890D03*
X0113380Y0067890D03*
X0113423Y0067890D03*
X0113466Y0067890D03*
X0113509Y0067890D03*
X0113552Y0067890D03*
X0113595Y0067890D03*
X0113638Y0067890D03*
X0113681Y0067890D03*
X0113724Y0067890D03*
X0113767Y0067890D03*
X0113810Y0067890D03*
X0113853Y0067890D03*
X0113896Y0067890D03*
X0113939Y0067890D03*
X0113982Y0067890D03*
X0114025Y0067890D03*
X0114068Y0067890D03*
X0114111Y0067890D03*
X0114154Y0067890D03*
X0114197Y0067890D03*
X0114240Y0067890D03*
X0114327Y0067890D03*
X0114370Y0067890D03*
X0114413Y0067890D03*
X0114456Y0067890D03*
X0114499Y0067890D03*
X0114542Y0067890D03*
X0114585Y0067890D03*
X0114628Y0067890D03*
X0114671Y0067890D03*
X0114714Y0067890D03*
X0114757Y0067890D03*
X0114800Y0067890D03*
X0114843Y0067890D03*
X0114886Y0067890D03*
X0114929Y0067890D03*
X0114972Y0067890D03*
X0115015Y0067890D03*
X0115058Y0067890D03*
X0115101Y0067890D03*
X0115144Y0067890D03*
X0115230Y0067890D03*
X0115273Y0067890D03*
X0115316Y0067890D03*
X0115359Y0067890D03*
X0115402Y0067890D03*
X0115445Y0067890D03*
X0115488Y0067890D03*
X0115531Y0067890D03*
X0115574Y0067890D03*
X0115617Y0067890D03*
X0115660Y0067890D03*
X0115703Y0067890D03*
X0115790Y0067890D03*
X0115833Y0067890D03*
X0115876Y0067890D03*
X0115919Y0067890D03*
X0116005Y0067890D03*
X0116048Y0067890D03*
X0116091Y0067890D03*
X0116134Y0067890D03*
X0116177Y0067890D03*
X0116220Y0067890D03*
X0116263Y0067890D03*
X0116306Y0067890D03*
X0116349Y0067890D03*
X0116392Y0067890D03*
X0116435Y0067890D03*
X0116478Y0067890D03*
X0116521Y0067890D03*
X0116564Y0067890D03*
X0116607Y0067890D03*
X0116650Y0067890D03*
X0116693Y0067890D03*
X0116736Y0067890D03*
X0116779Y0067890D03*
X0116822Y0067890D03*
X0116865Y0067890D03*
X0116908Y0067890D03*
X0116951Y0067890D03*
X0116994Y0067890D03*
X0117080Y0067890D03*
X0117123Y0067890D03*
X0117166Y0067890D03*
X0117209Y0067890D03*
X0117296Y0067890D03*
X0117339Y0067890D03*
X0117382Y0067890D03*
X0117425Y0067890D03*
X0117468Y0067890D03*
X0117511Y0067890D03*
X0117554Y0067890D03*
X0117597Y0067890D03*
X0117640Y0067890D03*
X0117683Y0067890D03*
X0117726Y0067890D03*
X0117769Y0067890D03*
X0117855Y0067890D03*
X0117898Y0067890D03*
X0117941Y0067890D03*
X0117984Y0067890D03*
X0118027Y0067890D03*
X0118070Y0067890D03*
X0118113Y0067890D03*
X0118156Y0067890D03*
X0118199Y0067890D03*
X0118242Y0067890D03*
X0118285Y0067890D03*
X0118328Y0067890D03*
X0118371Y0067890D03*
X0118414Y0067890D03*
X0118457Y0067890D03*
X0118500Y0067890D03*
X0118543Y0067890D03*
X0118586Y0067890D03*
X0118629Y0067890D03*
X0118672Y0067890D03*
X0118759Y0067890D03*
X0118802Y0067890D03*
X0118845Y0067890D03*
X0118888Y0067890D03*
X0118931Y0067890D03*
X0118974Y0067890D03*
X0119017Y0067890D03*
X0119060Y0067890D03*
X0119103Y0067890D03*
X0119146Y0067890D03*
X0119189Y0067890D03*
X0119232Y0067890D03*
X0119275Y0067890D03*
X0119318Y0067890D03*
X0119361Y0067890D03*
X0119404Y0067890D03*
X0119447Y0067890D03*
X0119490Y0067890D03*
X0119533Y0067890D03*
X0119576Y0067890D03*
X0119619Y0067890D03*
X0119705Y0067890D03*
X0119748Y0067890D03*
X0119791Y0067890D03*
X0119834Y0067890D03*
X0119877Y0067890D03*
X0119920Y0067890D03*
X0119963Y0067890D03*
X0116736Y0058160D03*
X0116693Y0058160D03*
X0116650Y0058160D03*
X0116607Y0058160D03*
X0116564Y0058160D03*
X0116521Y0058160D03*
X0116478Y0058160D03*
X0116435Y0058160D03*
X0116392Y0058160D03*
X0116349Y0058160D03*
X0116306Y0058160D03*
X0116263Y0058160D03*
X0116220Y0058160D03*
X0116177Y0058160D03*
X0116134Y0058160D03*
X0116091Y0058160D03*
X0116048Y0058160D03*
X0116005Y0058160D03*
X0115919Y0058160D03*
X0115876Y0058160D03*
X0115833Y0058160D03*
X0115790Y0058160D03*
X0115703Y0058160D03*
X0115660Y0058160D03*
X0115617Y0058160D03*
X0115574Y0058160D03*
X0115531Y0058160D03*
X0115488Y0058160D03*
X0115445Y0058160D03*
X0115402Y0058160D03*
X0115359Y0058160D03*
X0115316Y0058160D03*
X0115273Y0058160D03*
X0115230Y0058160D03*
X0115144Y0058160D03*
X0115101Y0058160D03*
X0115058Y0058160D03*
X0115015Y0058160D03*
X0114972Y0058160D03*
X0114929Y0058160D03*
X0114886Y0058160D03*
X0114843Y0058160D03*
X0114800Y0058160D03*
X0114757Y0058160D03*
X0114714Y0058160D03*
X0114671Y0058160D03*
X0114628Y0058160D03*
X0114585Y0058160D03*
X0114542Y0058160D03*
X0114499Y0058160D03*
X0114456Y0058160D03*
X0114413Y0058160D03*
X0114370Y0058160D03*
X0114327Y0058160D03*
X0114240Y0058160D03*
X0114197Y0058160D03*
X0114154Y0058160D03*
X0114111Y0058160D03*
X0114068Y0058160D03*
X0114025Y0058160D03*
X0113982Y0058160D03*
X0113939Y0058160D03*
X0113896Y0058160D03*
X0113853Y0058160D03*
X0113810Y0058160D03*
X0113767Y0058160D03*
X0113724Y0058160D03*
X0113681Y0058160D03*
X0113638Y0058160D03*
X0113595Y0058160D03*
X0113552Y0058160D03*
X0113509Y0058160D03*
X0113466Y0058160D03*
X0113423Y0058160D03*
X0113380Y0058160D03*
X0113294Y0058160D03*
X0113251Y0058160D03*
X0113208Y0058160D03*
X0113165Y0058160D03*
X0113122Y0058160D03*
X0113079Y0058160D03*
X0113036Y0058160D03*
X0112993Y0058160D03*
X0112950Y0058160D03*
X0112907Y0058160D03*
X0112864Y0058160D03*
X0112777Y0058160D03*
X0112734Y0058160D03*
X0112691Y0058160D03*
X0112648Y0058160D03*
X0112605Y0058160D03*
X0112519Y0058160D03*
X0112476Y0058160D03*
X0112433Y0058160D03*
X0112390Y0058160D03*
X0112347Y0058160D03*
X0112304Y0058160D03*
X0112261Y0058160D03*
X0112218Y0058160D03*
X0112175Y0058160D03*
X0112132Y0058160D03*
X0112089Y0058160D03*
X0112046Y0058160D03*
X0112003Y0058160D03*
X0111960Y0058160D03*
X0111917Y0058160D03*
X0111874Y0058160D03*
X0111831Y0058160D03*
X0111788Y0058160D03*
X0111745Y0058160D03*
X0111702Y0058160D03*
X0111659Y0058160D03*
X0111616Y0058160D03*
X0111573Y0058160D03*
X0111530Y0058160D03*
X0111444Y0058160D03*
X0111401Y0058160D03*
X0111314Y0058160D03*
X0111271Y0058160D03*
X0111228Y0058160D03*
X0111185Y0058160D03*
X0111142Y0058160D03*
X0111099Y0058160D03*
X0111056Y0058160D03*
X0111013Y0058160D03*
X0110970Y0058160D03*
X0110927Y0058160D03*
X0110884Y0058160D03*
X0110841Y0058160D03*
X0110798Y0058160D03*
X0110755Y0058160D03*
X0110669Y0058160D03*
X0110626Y0058160D03*
X0110583Y0058160D03*
X0110540Y0058160D03*
X0110497Y0058160D03*
X0110454Y0058160D03*
X0110411Y0058160D03*
X0110368Y0058160D03*
X0110325Y0058160D03*
X0110282Y0058160D03*
X0110239Y0058160D03*
X0110196Y0058160D03*
X0110153Y0058160D03*
X0110110Y0058160D03*
X0110067Y0058160D03*
X0110024Y0058160D03*
X0109981Y0058160D03*
X0109938Y0058160D03*
X0109851Y0058160D03*
X0109808Y0058160D03*
X0109765Y0058160D03*
X0109722Y0058160D03*
X0109679Y0058160D03*
X0109636Y0058160D03*
X0109593Y0058160D03*
X0109550Y0058160D03*
X0109507Y0058160D03*
X0109464Y0058160D03*
X0109421Y0058160D03*
X0109378Y0058160D03*
X0109335Y0058160D03*
X0109292Y0058160D03*
X0109249Y0058160D03*
X0109206Y0058160D03*
X0109163Y0058160D03*
X0109120Y0058160D03*
X0109077Y0058160D03*
X0109034Y0058160D03*
X0108991Y0058160D03*
X0108948Y0058160D03*
X0108905Y0058160D03*
X0108819Y0058160D03*
X0108776Y0058160D03*
X0108733Y0058160D03*
X0108690Y0058160D03*
X0108647Y0058160D03*
X0108604Y0058160D03*
X0108561Y0058160D03*
X0108518Y0058160D03*
X0108475Y0058160D03*
X0108388Y0058160D03*
X0108345Y0058160D03*
X0108302Y0058160D03*
X0108259Y0058160D03*
X0108216Y0058160D03*
X0108173Y0058160D03*
X0108130Y0058160D03*
X0108044Y0058160D03*
X0108001Y0058160D03*
X0107958Y0058160D03*
X0107915Y0058160D03*
X0107872Y0058160D03*
X0107829Y0058160D03*
X0107786Y0058160D03*
X0107743Y0058160D03*
X0107700Y0058160D03*
X0107657Y0058160D03*
X0107614Y0058160D03*
X0107571Y0058160D03*
X0107528Y0058160D03*
X0107485Y0058160D03*
X0107442Y0058160D03*
X0107399Y0058160D03*
X0107356Y0058160D03*
X0107313Y0058160D03*
X0107270Y0058160D03*
X0107227Y0058160D03*
X0107184Y0058160D03*
X0107141Y0058160D03*
X0107098Y0058160D03*
X0107055Y0058160D03*
X0106969Y0058160D03*
X0106882Y0058160D03*
X0106839Y0058160D03*
X0106796Y0058160D03*
X0106753Y0058160D03*
X0106710Y0058160D03*
X0106667Y0058160D03*
X0106624Y0058160D03*
X0106581Y0058160D03*
X0106538Y0058160D03*
X0106495Y0058160D03*
X0106452Y0058160D03*
X0106409Y0058160D03*
X0106366Y0058160D03*
X0106323Y0058160D03*
X0106280Y0058160D03*
X0106194Y0058160D03*
X0106151Y0058160D03*
X0106108Y0058160D03*
X0106065Y0058160D03*
X0106022Y0058160D03*
X0105979Y0058160D03*
X0105936Y0058160D03*
X0105893Y0058160D03*
X0105850Y0058160D03*
X0105807Y0058160D03*
X0105764Y0058160D03*
X0105721Y0058160D03*
X0105678Y0058160D03*
X0105635Y0058160D03*
X0105592Y0058160D03*
X0105549Y0058160D03*
X0114972Y0032090D03*
X0115316Y0031960D03*
X0115531Y0031870D03*
X0115660Y0031830D03*
X0115876Y0031740D03*
X0115402Y0027910D03*
X0115316Y0027870D03*
X0114972Y0027740D03*
X0114628Y0027610D03*
X0114542Y0027570D03*
X0114499Y0027570D03*
X0114327Y0027480D03*
X0114197Y0027440D03*
X0114154Y0027440D03*
X0113853Y0027310D03*
X0113810Y0027310D03*
X0113767Y0027270D03*
X0113724Y0027270D03*
X0113681Y0027270D03*
X0113509Y0027180D03*
X0113466Y0027180D03*
X0113423Y0027140D03*
X0113380Y0027140D03*
X0113036Y0027010D03*
X0112993Y0027010D03*
X0112907Y0026970D03*
X0112777Y0026920D03*
X0112691Y0026880D03*
X0112218Y0026710D03*
X0112218Y0019220D03*
X0112175Y0019220D03*
X0112132Y0019220D03*
X0112089Y0019220D03*
X0112046Y0019220D03*
X0112003Y0019220D03*
X0111960Y0019220D03*
X0111917Y0019220D03*
X0111874Y0019220D03*
X0111831Y0019220D03*
X0111788Y0019220D03*
X0111745Y0019220D03*
X0111702Y0019220D03*
X0111659Y0019220D03*
X0111616Y0019220D03*
X0111573Y0019220D03*
X0111530Y0019220D03*
X0111444Y0019220D03*
X0111401Y0019220D03*
X0111314Y0019220D03*
X0111271Y0019220D03*
X0111228Y0019220D03*
X0111185Y0019220D03*
X0111142Y0019220D03*
X0111099Y0019220D03*
X0111056Y0019220D03*
X0111013Y0019220D03*
X0110970Y0019220D03*
X0110927Y0019220D03*
X0110884Y0019220D03*
X0110841Y0019220D03*
X0110798Y0019220D03*
X0110755Y0019220D03*
X0110669Y0019220D03*
X0110626Y0019220D03*
X0110583Y0019220D03*
X0110540Y0019220D03*
X0110497Y0019220D03*
X0110454Y0019220D03*
X0110411Y0019220D03*
X0110368Y0019220D03*
X0110325Y0019220D03*
X0110282Y0019220D03*
X0110239Y0019220D03*
X0110196Y0019220D03*
X0110153Y0019220D03*
X0110110Y0019220D03*
X0110067Y0019220D03*
X0110024Y0019220D03*
X0109981Y0019220D03*
X0109938Y0019220D03*
X0109851Y0019220D03*
X0109808Y0019220D03*
X0109765Y0019220D03*
X0109722Y0019220D03*
X0109679Y0019220D03*
X0109636Y0019220D03*
X0109593Y0019220D03*
X0109550Y0019220D03*
X0109507Y0019220D03*
X0109464Y0019220D03*
X0109421Y0019220D03*
X0109378Y0019220D03*
X0109335Y0019220D03*
X0109292Y0019220D03*
X0109249Y0019220D03*
X0109206Y0019220D03*
X0109163Y0019220D03*
X0109120Y0019220D03*
X0109077Y0019220D03*
X0109034Y0019220D03*
X0108991Y0019220D03*
X0108948Y0019220D03*
X0108905Y0019220D03*
X0108819Y0019220D03*
X0108776Y0019220D03*
X0108733Y0019220D03*
X0108690Y0019220D03*
X0108647Y0019220D03*
X0108604Y0019220D03*
X0108561Y0019220D03*
X0108518Y0019220D03*
X0108475Y0019220D03*
X0108388Y0019220D03*
X0108345Y0019220D03*
X0108302Y0019220D03*
X0108259Y0019220D03*
X0108216Y0019220D03*
X0108173Y0019220D03*
X0108130Y0019220D03*
X0108044Y0019220D03*
X0108001Y0019220D03*
X0107958Y0019220D03*
X0107915Y0019220D03*
X0107872Y0019220D03*
X0107829Y0019220D03*
X0107786Y0019220D03*
X0107743Y0019220D03*
X0107700Y0019220D03*
X0107657Y0019220D03*
X0107614Y0019220D03*
X0107571Y0019220D03*
X0107528Y0019220D03*
X0107485Y0019220D03*
X0107442Y0019220D03*
X0107399Y0019220D03*
X0107356Y0019220D03*
X0107313Y0019220D03*
X0107270Y0019220D03*
X0107227Y0019220D03*
X0107184Y0019220D03*
X0107141Y0019220D03*
X0107098Y0019220D03*
X0107055Y0019220D03*
X0106969Y0019220D03*
X0106882Y0019220D03*
X0106839Y0019220D03*
X0106796Y0019220D03*
X0106753Y0019220D03*
X0106710Y0019220D03*
X0106667Y0019220D03*
X0106624Y0019220D03*
X0106581Y0019220D03*
X0106538Y0019220D03*
X0106495Y0019220D03*
X0106452Y0019220D03*
X0106409Y0019220D03*
X0106366Y0019220D03*
X0106323Y0019220D03*
X0106280Y0019220D03*
X0106194Y0019220D03*
X0106151Y0019220D03*
X0106108Y0019220D03*
X0106065Y0019220D03*
X0106022Y0019220D03*
X0105979Y0019220D03*
X0105936Y0019220D03*
X0105893Y0019220D03*
X0105850Y0019220D03*
X0105807Y0019220D03*
X0105764Y0019220D03*
X0105721Y0019220D03*
X0105678Y0019220D03*
X0105635Y0019220D03*
X0105592Y0019220D03*
X0105549Y0019220D03*
X0110540Y0013760D03*
X0112261Y0019220D03*
X0112304Y0019220D03*
X0112347Y0019220D03*
X0112390Y0019220D03*
X0112433Y0019220D03*
X0112476Y0019220D03*
X0112519Y0019220D03*
X0112605Y0019220D03*
X0112648Y0019220D03*
X0112691Y0019220D03*
X0112734Y0019220D03*
X0112777Y0019220D03*
X0112864Y0019220D03*
X0112907Y0019220D03*
X0112950Y0019220D03*
X0112993Y0019220D03*
X0113036Y0019220D03*
X0113079Y0019220D03*
X0113122Y0019220D03*
X0113165Y0019220D03*
X0113208Y0019220D03*
X0113251Y0019220D03*
X0113294Y0019220D03*
X0113380Y0019220D03*
X0113423Y0019220D03*
X0113466Y0019220D03*
X0113509Y0019220D03*
X0113552Y0019220D03*
X0113595Y0019220D03*
X0113638Y0019220D03*
X0113681Y0019220D03*
X0113724Y0019220D03*
X0113767Y0019220D03*
X0113810Y0019220D03*
X0113853Y0019220D03*
X0113896Y0019220D03*
X0113939Y0019220D03*
X0113982Y0019220D03*
X0114025Y0019220D03*
X0114068Y0019220D03*
X0108991Y0008160D03*
X0108948Y0008160D03*
X0108905Y0008160D03*
X0108819Y0008160D03*
X0108776Y0008160D03*
X0108733Y0008160D03*
X0108690Y0008160D03*
X0108647Y0008160D03*
X0108604Y0008160D03*
X0108561Y0008160D03*
X0108518Y0008160D03*
X0108475Y0008160D03*
X0108388Y0008160D03*
X0108345Y0008160D03*
X0108302Y0008160D03*
X0108259Y0008160D03*
X0108216Y0008160D03*
X0108173Y0008160D03*
X0108130Y0008160D03*
X0108044Y0008160D03*
X0108001Y0008160D03*
X0107958Y0008160D03*
X0107915Y0008160D03*
X0107872Y0008160D03*
X0107829Y0008160D03*
X0107786Y0008160D03*
X0107743Y0008160D03*
X0107700Y0008160D03*
X0107657Y0008160D03*
X0107614Y0008160D03*
X0107571Y0008160D03*
X0107528Y0008160D03*
X0107485Y0008160D03*
X0107442Y0008160D03*
X0107399Y0008160D03*
X0107356Y0008160D03*
X0107313Y0008160D03*
X0107270Y0008160D03*
X0107227Y0008160D03*
X0107184Y0008160D03*
X0107141Y0008160D03*
X0107098Y0008160D03*
X0107055Y0008160D03*
X0106969Y0008160D03*
X0106882Y0008160D03*
X0106839Y0008160D03*
X0106796Y0008160D03*
X0106753Y0008160D03*
X0106710Y0008160D03*
X0106667Y0008160D03*
X0106624Y0008160D03*
X0106581Y0008160D03*
X0106538Y0008160D03*
X0106495Y0008160D03*
X0106452Y0008160D03*
X0106409Y0008160D03*
X0106366Y0008160D03*
X0106323Y0008160D03*
X0106280Y0008160D03*
X0106194Y0008160D03*
X0106151Y0008160D03*
X0106108Y0008160D03*
X0106065Y0008160D03*
X0106022Y0008160D03*
X0105979Y0008160D03*
X0105936Y0008160D03*
X0105893Y0008160D03*
X0105850Y0008160D03*
X0105807Y0008160D03*
X0105764Y0008160D03*
X0105721Y0008160D03*
X0105678Y0008160D03*
X0105635Y0008160D03*
X0105592Y0008160D03*
X0105549Y0008160D03*
X0112734Y0088540D03*
X0105376Y0094440D03*
X0112734Y0100330D03*
X0120092Y0094440D03*
D20*
X0114628Y0100030D03*
X0110841Y0100030D03*
X0105419Y0078730D03*
X0107700Y0025030D03*
X0107055Y0024770D03*
X0106969Y0024770D03*
X0106882Y0024730D03*
X0106194Y0024470D03*
D21*
X0110884Y0013735D03*
X0119404Y0019025D03*
X0119447Y0019025D03*
X0115402Y0073635D03*
X0115488Y0073675D03*
X0110024Y0073675D03*
X0109981Y0073675D03*
X0109938Y0073715D03*
X0110153Y0089125D03*
X0110067Y0089165D03*
X0105419Y0094415D03*
X0115316Y0089125D03*
X0115402Y0089165D03*
D22*
X0105463Y0078750D03*
D23*
X0105463Y0094435D03*
X0118716Y0018835D03*
D24*
X0119963Y0078795D03*
X0116349Y0089855D03*
X0109120Y0083145D03*
X0105506Y0078755D03*
D25*
X0108948Y0074470D03*
X0116435Y0083080D03*
X0116435Y0089960D03*
X0119963Y0094440D03*
X0116435Y0098910D03*
X0109034Y0098910D03*
X0105506Y0094440D03*
X0109034Y0089960D03*
X0118113Y0018660D03*
X0111530Y0013760D03*
D26*
X0106366Y0024535D03*
X0106022Y0024405D03*
X0105592Y0024235D03*
X0105549Y0024235D03*
X0107743Y0034775D03*
X0107786Y0034775D03*
X0107829Y0034775D03*
X0107485Y0034905D03*
X0107442Y0034905D03*
X0107399Y0034905D03*
X0107141Y0035035D03*
X0107098Y0035035D03*
X0106280Y0035335D03*
X0110755Y0088865D03*
X0110798Y0088865D03*
X0114671Y0088865D03*
X0114714Y0088865D03*
X0114800Y0099965D03*
D27*
X0114757Y0099990D03*
X0114843Y0099940D03*
X0114886Y0099940D03*
X0114972Y0099900D03*
X0110669Y0099990D03*
X0110626Y0099940D03*
X0110583Y0099940D03*
X0110583Y0088930D03*
X0110626Y0088930D03*
X0110669Y0088890D03*
X0114757Y0088890D03*
X0114843Y0088930D03*
X0114886Y0088930D03*
X0114972Y0088970D03*
X0115058Y0073480D03*
X0115101Y0073480D03*
X0114972Y0073440D03*
X0114929Y0073440D03*
X0110540Y0073440D03*
X0110497Y0073440D03*
X0110454Y0073480D03*
X0110411Y0073480D03*
X0105549Y0035620D03*
X0105635Y0035570D03*
X0105678Y0035570D03*
X0105764Y0035530D03*
X0105807Y0035530D03*
X0105850Y0035490D03*
X0105893Y0035490D03*
X0105936Y0035490D03*
X0105979Y0035440D03*
X0106022Y0035440D03*
X0106065Y0035400D03*
X0106108Y0035400D03*
X0106151Y0035400D03*
X0106194Y0035360D03*
X0106323Y0035310D03*
X0106366Y0035310D03*
X0106452Y0035270D03*
X0106495Y0035270D03*
X0106581Y0035230D03*
X0106796Y0035140D03*
X0107055Y0035060D03*
X0107270Y0034970D03*
X0119619Y0019090D03*
X0110755Y0013760D03*
D28*
X0112433Y0026795D03*
X0113251Y0027095D03*
X0113294Y0027095D03*
X0113552Y0027225D03*
X0113595Y0027225D03*
X0113638Y0027225D03*
X0114370Y0027525D03*
X0114413Y0027525D03*
X0114714Y0027655D03*
X0114757Y0027655D03*
X0115058Y0027785D03*
X0115101Y0027785D03*
X0115531Y0027955D03*
X0115876Y0028085D03*
X0115402Y0031915D03*
X0114628Y0032215D03*
X0114628Y0044565D03*
X0114585Y0044565D03*
X0114542Y0044565D03*
X0114499Y0044565D03*
X0114456Y0044565D03*
X0114413Y0044565D03*
X0114370Y0044565D03*
X0114327Y0044565D03*
X0114240Y0044565D03*
X0114197Y0044565D03*
X0114154Y0044565D03*
X0114111Y0044565D03*
X0114068Y0044565D03*
X0114025Y0044565D03*
X0113982Y0044565D03*
X0113939Y0044565D03*
X0113896Y0044565D03*
X0113853Y0044565D03*
X0113810Y0044565D03*
X0113767Y0044565D03*
X0113724Y0044565D03*
X0113681Y0044565D03*
X0113638Y0044565D03*
X0113595Y0044565D03*
X0113552Y0044565D03*
X0113509Y0044565D03*
X0113466Y0044565D03*
X0113423Y0044565D03*
X0113380Y0044565D03*
X0113294Y0044565D03*
X0113251Y0044565D03*
X0113208Y0044565D03*
X0113165Y0044565D03*
X0113122Y0044565D03*
X0113079Y0044565D03*
X0113036Y0044565D03*
X0112993Y0044565D03*
X0112950Y0044565D03*
X0112907Y0044565D03*
X0112864Y0044565D03*
X0112777Y0044565D03*
X0112734Y0044565D03*
X0112691Y0044565D03*
X0112648Y0044565D03*
X0112605Y0044565D03*
X0112519Y0044565D03*
X0112476Y0044565D03*
X0112433Y0044565D03*
X0112390Y0044565D03*
X0112347Y0044565D03*
X0112304Y0044565D03*
X0112261Y0044565D03*
X0112218Y0044565D03*
X0112175Y0044565D03*
X0112132Y0044565D03*
X0112089Y0044565D03*
X0112046Y0044565D03*
X0112003Y0044565D03*
X0111960Y0044565D03*
X0111917Y0044565D03*
X0111874Y0044565D03*
X0111831Y0044565D03*
X0111788Y0044565D03*
X0111745Y0044565D03*
X0111702Y0044565D03*
X0111659Y0044565D03*
X0111616Y0044565D03*
X0111573Y0044565D03*
X0111530Y0044565D03*
X0111444Y0044565D03*
X0111401Y0044565D03*
X0111314Y0044565D03*
X0111271Y0044565D03*
X0111228Y0044565D03*
X0111185Y0044565D03*
X0111142Y0044565D03*
X0111099Y0044565D03*
X0111056Y0044565D03*
X0111013Y0044565D03*
X0110970Y0044565D03*
X0110927Y0044565D03*
X0110884Y0044565D03*
X0110841Y0044565D03*
X0110798Y0044565D03*
X0110755Y0044565D03*
X0110669Y0044565D03*
X0110626Y0044565D03*
X0110583Y0044565D03*
X0110540Y0044565D03*
X0110497Y0044565D03*
X0110454Y0044565D03*
X0110411Y0044565D03*
X0110368Y0044565D03*
X0110325Y0044565D03*
X0110282Y0044565D03*
X0110239Y0044565D03*
X0110196Y0044565D03*
X0110153Y0044565D03*
X0110110Y0044565D03*
X0110067Y0044565D03*
X0110024Y0044565D03*
X0109981Y0044565D03*
X0109938Y0044565D03*
X0109851Y0044565D03*
X0109808Y0044565D03*
X0109765Y0044565D03*
X0109722Y0044565D03*
X0109679Y0044565D03*
X0109636Y0044565D03*
X0109593Y0044565D03*
X0109550Y0044565D03*
X0109507Y0044565D03*
X0109464Y0044565D03*
X0109421Y0044565D03*
X0109378Y0044565D03*
X0109335Y0044565D03*
X0109292Y0044565D03*
X0109249Y0044565D03*
X0109206Y0044565D03*
X0109163Y0044565D03*
X0109120Y0044565D03*
X0109077Y0044565D03*
X0109034Y0044565D03*
X0108991Y0044565D03*
X0108948Y0044565D03*
X0108905Y0044565D03*
X0108819Y0044565D03*
X0108776Y0044565D03*
X0108733Y0044565D03*
X0108690Y0044565D03*
X0108647Y0044565D03*
X0108604Y0044565D03*
X0108561Y0044565D03*
X0108518Y0044565D03*
X0108475Y0044565D03*
X0108388Y0044565D03*
X0108345Y0044565D03*
X0108302Y0044565D03*
X0108259Y0044565D03*
X0108216Y0044565D03*
X0108173Y0044565D03*
X0108130Y0044565D03*
X0108044Y0044565D03*
X0108001Y0044565D03*
X0107958Y0044565D03*
X0107915Y0044565D03*
X0107872Y0044565D03*
X0107829Y0044565D03*
X0107786Y0044565D03*
X0107743Y0044565D03*
X0107700Y0044565D03*
X0107657Y0044565D03*
X0107614Y0044565D03*
X0107571Y0044565D03*
X0107528Y0044565D03*
X0107485Y0044565D03*
X0107442Y0044565D03*
X0107399Y0044565D03*
X0107356Y0044565D03*
X0107313Y0044565D03*
X0107270Y0044565D03*
X0107227Y0044565D03*
X0107184Y0044565D03*
X0107141Y0044565D03*
X0107098Y0044565D03*
X0107055Y0044565D03*
X0106969Y0044565D03*
X0106882Y0044565D03*
X0106839Y0044565D03*
X0106796Y0044565D03*
X0106753Y0044565D03*
X0106710Y0044565D03*
X0106667Y0044565D03*
X0106624Y0044565D03*
X0106581Y0044565D03*
X0106538Y0044565D03*
X0106495Y0044565D03*
X0106452Y0044565D03*
X0106409Y0044565D03*
X0106366Y0044565D03*
X0106323Y0044565D03*
X0106280Y0044565D03*
X0106194Y0044565D03*
X0106151Y0044565D03*
X0106108Y0044565D03*
X0106065Y0044565D03*
X0106022Y0044565D03*
X0105979Y0044565D03*
X0105936Y0044565D03*
X0105893Y0044565D03*
X0105850Y0044565D03*
X0105807Y0044565D03*
X0105764Y0044565D03*
X0105721Y0044565D03*
X0105678Y0044565D03*
X0105635Y0044565D03*
X0105592Y0044565D03*
X0105549Y0044565D03*
X0114671Y0044565D03*
X0114714Y0044565D03*
X0114757Y0044565D03*
X0114800Y0044565D03*
X0114843Y0044565D03*
X0114886Y0044565D03*
X0114929Y0044565D03*
X0114972Y0044565D03*
X0115015Y0044565D03*
X0115058Y0044565D03*
X0115101Y0044565D03*
X0115144Y0044565D03*
X0115230Y0044565D03*
X0115273Y0044565D03*
X0115316Y0044565D03*
X0115359Y0044565D03*
X0115402Y0044565D03*
X0115445Y0044565D03*
X0115488Y0044565D03*
X0115531Y0044565D03*
X0115574Y0044565D03*
X0115617Y0044565D03*
X0115660Y0044565D03*
X0115703Y0044565D03*
X0115790Y0044565D03*
X0115833Y0044565D03*
X0115876Y0044565D03*
X0115919Y0044565D03*
X0116005Y0044565D03*
X0116048Y0044565D03*
X0116091Y0044565D03*
X0116134Y0044565D03*
X0116177Y0044565D03*
X0116220Y0044565D03*
X0116263Y0044565D03*
X0116306Y0044565D03*
X0116349Y0044565D03*
X0116392Y0044565D03*
X0116435Y0044565D03*
X0116478Y0044565D03*
X0116521Y0044565D03*
X0116564Y0044565D03*
X0116607Y0044565D03*
X0116650Y0044565D03*
X0116693Y0044565D03*
X0116736Y0044565D03*
X0115919Y0083205D03*
D29*
X0116521Y0090065D03*
X0116521Y0098805D03*
X0108948Y0098805D03*
X0108948Y0090065D03*
X0105549Y0078755D03*
X0118974Y0029915D03*
X0119017Y0029915D03*
X0117898Y0018595D03*
X0117855Y0018595D03*
X0111659Y0013735D03*
D30*
X0105549Y0094435D03*
X0119920Y0094435D03*
D31*
X0115144Y0089035D03*
X0110325Y0089035D03*
X0110325Y0099835D03*
X0115144Y0099835D03*
X0115230Y0073545D03*
X0110282Y0073545D03*
X0110239Y0073545D03*
X0105592Y0035595D03*
X0110798Y0013735D03*
D32*
X0111874Y0013735D03*
X0117425Y0018465D03*
X0118629Y0029915D03*
X0118672Y0029915D03*
X0105592Y0078755D03*
X0108776Y0082715D03*
X0108776Y0090285D03*
X0108776Y0098585D03*
X0116693Y0098585D03*
X0116693Y0090285D03*
X0116693Y0082755D03*
D33*
X0119877Y0094435D03*
X0105592Y0094435D03*
X0118371Y0029935D03*
D34*
X0119791Y0019135D03*
X0119834Y0019135D03*
X0107614Y0024985D03*
X0107571Y0024985D03*
X0107485Y0024945D03*
X0107442Y0024945D03*
X0107141Y0024815D03*
X0107098Y0024815D03*
X0106839Y0024685D03*
X0106796Y0024685D03*
X0106753Y0024685D03*
X0106710Y0024645D03*
X0106667Y0024645D03*
X0106624Y0024645D03*
X0106452Y0024555D03*
X0106409Y0024555D03*
X0106323Y0024515D03*
X0105979Y0024385D03*
X0105635Y0024255D03*
X0111056Y0073265D03*
X0114456Y0073265D03*
X0114413Y0088755D03*
X0114370Y0088755D03*
X0114327Y0088755D03*
X0114628Y0088845D03*
X0111271Y0088715D03*
X0111142Y0088755D03*
X0111099Y0088755D03*
X0111056Y0088755D03*
X0110841Y0088845D03*
X0111056Y0100115D03*
X0111099Y0100115D03*
X0111142Y0100115D03*
X0114327Y0100115D03*
X0114370Y0100115D03*
X0114413Y0100115D03*
D35*
X0108690Y0098415D03*
X0108690Y0090455D03*
X0105635Y0078755D03*
X0118328Y0029915D03*
X0112132Y0013735D03*
X0112089Y0013735D03*
D36*
X0112304Y0013760D03*
X0108604Y0082390D03*
X0108604Y0090650D03*
X0105635Y0094440D03*
X0116865Y0090650D03*
X0119834Y0094440D03*
D37*
X0114800Y0088910D03*
X0114585Y0088820D03*
X0110884Y0088820D03*
X0110798Y0100010D03*
X0110755Y0100010D03*
X0114671Y0100010D03*
X0114714Y0100010D03*
X0115015Y0073460D03*
X0114886Y0073420D03*
X0114843Y0073420D03*
X0114800Y0073370D03*
X0114757Y0073370D03*
X0110669Y0073370D03*
X0110626Y0073420D03*
X0110583Y0073420D03*
X0106409Y0035290D03*
X0106624Y0035210D03*
X0106753Y0035160D03*
X0106839Y0035120D03*
X0106882Y0035120D03*
X0106969Y0035080D03*
X0107184Y0034990D03*
X0107227Y0034990D03*
X0107528Y0034860D03*
X0107571Y0034860D03*
X0107614Y0034860D03*
X0107657Y0034820D03*
X0107700Y0034820D03*
X0107872Y0034730D03*
X0107915Y0034730D03*
X0106495Y0024580D03*
X0106280Y0024490D03*
X0105936Y0024360D03*
X0105893Y0024360D03*
X0105807Y0024320D03*
X0105764Y0024320D03*
X0105721Y0024280D03*
X0105678Y0024280D03*
X0119705Y0019110D03*
X0119748Y0019110D03*
D38*
X0116607Y0018230D03*
X0116564Y0018230D03*
X0105678Y0078730D03*
X0108604Y0098220D03*
X0116865Y0098220D03*
D39*
X0119791Y0094440D03*
X0116951Y0075290D03*
X0105678Y0094440D03*
X0117683Y0029940D03*
X0117726Y0029940D03*
X0116134Y0018100D03*
X0116091Y0018100D03*
D40*
X0105721Y0035550D03*
X0110325Y0073500D03*
X0110368Y0073500D03*
X0115144Y0073500D03*
X0114929Y0088950D03*
X0110540Y0088950D03*
X0110497Y0088950D03*
D41*
X0105721Y0078730D03*
D42*
X0105764Y0078730D03*
X0105721Y0094440D03*
X0108518Y0097920D03*
X0119748Y0094440D03*
X0119705Y0078770D03*
X0115703Y0017970D03*
X0115660Y0017970D03*
D43*
X0115230Y0017845D03*
X0105764Y0094435D03*
D44*
X0105807Y0078735D03*
X0119705Y0094435D03*
X0117166Y0029935D03*
X0117123Y0029935D03*
X0115359Y0017885D03*
D45*
X0116822Y0029935D03*
X0119619Y0078775D03*
X0116994Y0097665D03*
X0105807Y0094435D03*
D46*
X0110927Y0088800D03*
X0110970Y0088800D03*
X0114499Y0088800D03*
X0114542Y0088800D03*
X0111271Y0100160D03*
X0110798Y0073350D03*
X0110755Y0073350D03*
X0110884Y0073310D03*
X0110927Y0073310D03*
X0114542Y0073310D03*
X0114585Y0073310D03*
X0114628Y0073310D03*
X0114671Y0073350D03*
X0114714Y0073350D03*
X0107399Y0024900D03*
X0107356Y0024900D03*
X0107270Y0024860D03*
X0107227Y0024860D03*
X0106581Y0024600D03*
X0106538Y0024600D03*
X0105850Y0024340D03*
D47*
X0105850Y0078750D03*
D48*
X0105893Y0078770D03*
X0105850Y0094440D03*
X0119619Y0094440D03*
X0116607Y0029940D03*
X0116564Y0029940D03*
X0114628Y0017670D03*
X0114585Y0017670D03*
D49*
X0114327Y0017585D03*
X0113466Y0013715D03*
X0116349Y0029935D03*
X0116392Y0029935D03*
X0119576Y0094435D03*
X0105893Y0094435D03*
D50*
X0105936Y0078750D03*
D51*
X0105936Y0094435D03*
D52*
X0105979Y0078755D03*
X0119490Y0078795D03*
D53*
X0119447Y0078775D03*
X0119490Y0094435D03*
X0105979Y0094435D03*
D54*
X0106022Y0078730D03*
D55*
X0106022Y0094435D03*
X0119447Y0094435D03*
D56*
X0114542Y0100075D03*
X0114499Y0100075D03*
X0110970Y0100075D03*
X0110927Y0100075D03*
X0107829Y0025075D03*
X0106108Y0024425D03*
X0106065Y0024425D03*
D57*
X0106065Y0078735D03*
D58*
X0106065Y0094435D03*
X0119404Y0094435D03*
D59*
X0119361Y0078770D03*
X0106108Y0078730D03*
D60*
X0106108Y0094440D03*
X0119361Y0094440D03*
D61*
X0114585Y0100050D03*
X0110884Y0100050D03*
X0120049Y0078750D03*
X0106538Y0035250D03*
X0107313Y0034950D03*
X0107356Y0034950D03*
X0106151Y0024450D03*
D62*
X0106151Y0078755D03*
D63*
X0106151Y0094435D03*
D64*
X0106194Y0078750D03*
D65*
X0106194Y0094415D03*
D66*
X0106237Y0067890D03*
X0107012Y0067890D03*
X0108087Y0067890D03*
X0108862Y0067890D03*
X0110712Y0067890D03*
X0111487Y0067890D03*
X0112562Y0067890D03*
X0113337Y0067890D03*
X0115187Y0067890D03*
X0115962Y0067890D03*
X0117037Y0067890D03*
X0117812Y0067890D03*
X0119662Y0067890D03*
X0115962Y0058160D03*
X0115187Y0058160D03*
X0113337Y0058160D03*
X0112562Y0058160D03*
X0111487Y0058160D03*
X0110712Y0058160D03*
X0108862Y0058160D03*
X0108087Y0058160D03*
X0107012Y0058160D03*
X0106237Y0058160D03*
X0115962Y0028130D03*
X0115187Y0027830D03*
X0113337Y0027140D03*
X0112562Y0026840D03*
X0112562Y0019220D03*
X0113337Y0019220D03*
X0111487Y0019220D03*
X0110712Y0019220D03*
X0108862Y0019220D03*
X0108087Y0019220D03*
X0107012Y0019220D03*
X0106237Y0019220D03*
X0106237Y0008160D03*
X0107012Y0008160D03*
X0108087Y0008160D03*
X0108862Y0008160D03*
D67*
X0106237Y0024470D03*
X0107012Y0024770D03*
D68*
X0106237Y0035360D03*
X0119662Y0019090D03*
X0115187Y0073520D03*
X0110712Y0088890D03*
X0110712Y0099990D03*
D69*
X0110712Y0044565D03*
X0111487Y0044565D03*
X0112562Y0044565D03*
X0113337Y0044565D03*
X0115187Y0044565D03*
X0115962Y0044565D03*
X0108862Y0044565D03*
X0108087Y0044565D03*
X0107012Y0044565D03*
X0106237Y0044565D03*
D70*
X0106237Y0078730D03*
D71*
X0106237Y0094435D03*
D72*
X0106280Y0078730D03*
D73*
X0106280Y0094440D03*
X0119189Y0094440D03*
D74*
X0106323Y0078755D03*
D75*
X0106323Y0094435D03*
D76*
X0106366Y0078750D03*
D77*
X0106366Y0094440D03*
X0119103Y0094440D03*
D78*
X0106409Y0078750D03*
D79*
X0106409Y0094435D03*
X0119060Y0094435D03*
D80*
X0106452Y0078750D03*
D81*
X0106452Y0094435D03*
X0118931Y0078775D03*
D82*
X0106495Y0078730D03*
D83*
X0106495Y0094435D03*
X0118974Y0094435D03*
X0118888Y0078775D03*
D84*
X0106538Y0078750D03*
D85*
X0106538Y0094415D03*
D86*
X0106581Y0078755D03*
D87*
X0106581Y0094435D03*
X0118888Y0094435D03*
D88*
X0106624Y0078730D03*
D89*
X0106624Y0094435D03*
X0118845Y0094435D03*
D90*
X0106710Y0035185D03*
X0106667Y0035185D03*
D91*
X0106667Y0078750D03*
D92*
X0106667Y0094435D03*
D93*
X0106710Y0078730D03*
D94*
X0106710Y0094435D03*
X0118759Y0094435D03*
X0118672Y0078775D03*
D95*
X0106753Y0078730D03*
D96*
X0106753Y0094435D03*
X0118586Y0078775D03*
D97*
X0106796Y0078730D03*
D98*
X0106796Y0094435D03*
X0118672Y0094435D03*
D99*
X0118629Y0078770D03*
X0106839Y0078730D03*
D100*
X0106839Y0094435D03*
X0118629Y0094435D03*
D101*
X0106882Y0078730D03*
D102*
X0106882Y0094435D03*
X0118586Y0094435D03*
D103*
X0117253Y0067890D03*
X0115747Y0067890D03*
X0112821Y0067890D03*
X0111358Y0067890D03*
X0108432Y0067890D03*
X0106926Y0067890D03*
X0106926Y0058160D03*
X0108432Y0058160D03*
X0111358Y0058160D03*
X0112821Y0058160D03*
X0115747Y0058160D03*
X0115747Y0028040D03*
X0112821Y0026920D03*
X0112821Y0019220D03*
X0111358Y0019220D03*
X0108432Y0019220D03*
X0106926Y0019220D03*
X0106926Y0008160D03*
X0108432Y0008160D03*
D104*
X0106926Y0024730D03*
D105*
X0106926Y0035100D03*
D106*
X0106926Y0044565D03*
X0108432Y0044565D03*
X0111358Y0044565D03*
X0112821Y0044565D03*
X0115747Y0044565D03*
X0115747Y0031785D03*
D107*
X0106926Y0078735D03*
D108*
X0106926Y0094435D03*
D109*
X0106969Y0078750D03*
D110*
X0106969Y0094440D03*
X0118371Y0078770D03*
D111*
X0110712Y0073370D03*
X0107012Y0035080D03*
D112*
X0107012Y0078755D03*
D113*
X0107012Y0094435D03*
D114*
X0107055Y0078755D03*
D115*
X0107055Y0094435D03*
X0118414Y0094435D03*
D116*
X0107098Y0078750D03*
D117*
X0107227Y0078730D03*
X0118242Y0078770D03*
X0118371Y0094440D03*
X0107098Y0094440D03*
D118*
X0107141Y0078750D03*
D119*
X0107141Y0094435D03*
X0118328Y0094435D03*
D120*
X0114456Y0088775D03*
X0114240Y0088735D03*
X0114197Y0088735D03*
X0111228Y0088735D03*
X0111185Y0088735D03*
X0111013Y0088775D03*
X0109851Y0083525D03*
X0110970Y0073285D03*
X0111013Y0073285D03*
X0114499Y0073285D03*
X0114240Y0100135D03*
X0114197Y0100135D03*
X0114154Y0100185D03*
X0114111Y0100185D03*
X0114068Y0100185D03*
X0114025Y0100185D03*
X0113853Y0100225D03*
X0111444Y0100185D03*
X0111401Y0100185D03*
X0111314Y0100185D03*
X0111228Y0100135D03*
X0111185Y0100135D03*
X0111142Y0033525D03*
X0111099Y0033525D03*
X0111228Y0033485D03*
X0111271Y0033485D03*
X0111702Y0033315D03*
X0111917Y0033225D03*
X0112046Y0033185D03*
X0107528Y0024965D03*
X0107184Y0024835D03*
X0110669Y0013735D03*
D121*
X0107184Y0078755D03*
D122*
X0107313Y0078735D03*
X0118156Y0078775D03*
X0118285Y0094435D03*
X0107184Y0094435D03*
D123*
X0107227Y0094435D03*
X0118242Y0094435D03*
X0118113Y0078775D03*
D124*
X0107270Y0078730D03*
D125*
X0118027Y0078775D03*
X0118156Y0094435D03*
X0107270Y0094435D03*
X0110884Y0029935D03*
X0110927Y0029935D03*
D126*
X0111831Y0033270D03*
X0107313Y0024880D03*
X0110841Y0073330D03*
D127*
X0107313Y0094435D03*
X0118113Y0094435D03*
X0110798Y0029935D03*
X0110755Y0029935D03*
D128*
X0107356Y0078730D03*
D129*
X0117941Y0078770D03*
X0118070Y0094440D03*
X0107356Y0094440D03*
D130*
X0107399Y0078750D03*
D131*
X0107399Y0094435D03*
X0107442Y0094435D03*
X0118027Y0094435D03*
X0110583Y0029935D03*
X0110540Y0029935D03*
D132*
X0110970Y0029915D03*
X0107442Y0078755D03*
D133*
X0107485Y0078755D03*
D134*
X0117855Y0078775D03*
X0117984Y0094435D03*
X0107485Y0094435D03*
X0110454Y0029935D03*
X0110497Y0029935D03*
D135*
X0107528Y0078750D03*
D136*
X0107528Y0094440D03*
X0117941Y0094440D03*
X0110368Y0029940D03*
X0110325Y0029940D03*
D137*
X0107571Y0078750D03*
D138*
X0117769Y0078775D03*
X0117898Y0094435D03*
X0107571Y0094435D03*
X0110196Y0029935D03*
X0110239Y0029935D03*
X0110282Y0029935D03*
D139*
X0107614Y0078755D03*
D140*
X0107614Y0094435D03*
X0117855Y0094435D03*
X0110153Y0029935D03*
X0110110Y0029935D03*
D141*
X0111314Y0033445D03*
X0111573Y0033355D03*
X0111616Y0033355D03*
X0112175Y0033145D03*
X0107915Y0025095D03*
X0107872Y0025095D03*
X0107786Y0025055D03*
X0107743Y0025055D03*
X0107657Y0025005D03*
X0119877Y0019155D03*
X0114197Y0073205D03*
X0114154Y0073205D03*
X0114111Y0073205D03*
X0114327Y0073245D03*
X0114370Y0073245D03*
X0114413Y0073245D03*
X0111314Y0073205D03*
X0111228Y0073245D03*
X0111185Y0073245D03*
X0111142Y0073245D03*
X0111099Y0073245D03*
X0111314Y0088695D03*
X0111401Y0088695D03*
X0111444Y0088695D03*
X0113853Y0088645D03*
X0114025Y0088695D03*
X0114068Y0088695D03*
X0114111Y0088695D03*
X0114154Y0088695D03*
X0114456Y0100095D03*
X0111013Y0100095D03*
D142*
X0107657Y0078750D03*
D143*
X0107657Y0094440D03*
D144*
X0107700Y0078750D03*
D145*
X0107700Y0094435D03*
X0117769Y0094435D03*
X0109938Y0029935D03*
D146*
X0107743Y0078730D03*
D147*
X0107743Y0094435D03*
X0117726Y0094435D03*
X0109808Y0029935D03*
X0109765Y0029935D03*
D148*
X0107786Y0078730D03*
D149*
X0117468Y0078775D03*
X0117683Y0094435D03*
X0107786Y0094435D03*
X0109636Y0029935D03*
X0109679Y0029935D03*
X0109722Y0029935D03*
D150*
X0107829Y0078750D03*
D151*
X0117425Y0078770D03*
X0117597Y0094440D03*
X0117640Y0094440D03*
X0107872Y0094440D03*
X0107829Y0094440D03*
D152*
X0107872Y0078750D03*
D153*
X0107915Y0078755D03*
X0109851Y0029915D03*
D154*
X0109464Y0029935D03*
X0109421Y0029935D03*
X0117339Y0078775D03*
X0117382Y0078775D03*
X0117554Y0094435D03*
X0107915Y0094435D03*
D155*
X0107958Y0029915D03*
D156*
X0107958Y0078755D03*
X0108001Y0078755D03*
D157*
X0117296Y0078775D03*
X0117511Y0094435D03*
X0107958Y0094435D03*
X0109335Y0029935D03*
X0109378Y0029935D03*
D158*
X0108044Y0029935D03*
X0108001Y0029935D03*
D159*
X0109206Y0029940D03*
X0109249Y0029940D03*
X0108044Y0094440D03*
X0108001Y0094440D03*
X0117425Y0094440D03*
D160*
X0108044Y0078750D03*
D161*
X0108087Y0029940D03*
D162*
X0108087Y0078750D03*
D163*
X0108087Y0094435D03*
X0117037Y0058165D03*
X0117812Y0058165D03*
X0119662Y0058165D03*
X0119662Y0044565D03*
X0117812Y0044565D03*
X0117037Y0044565D03*
D164*
X0108130Y0029940D03*
D165*
X0108130Y0078730D03*
D166*
X0108130Y0094435D03*
X0117339Y0094435D03*
X0109034Y0029935D03*
X0108991Y0029935D03*
D167*
X0108173Y0029915D03*
D168*
X0108173Y0078755D03*
D169*
X0108173Y0094440D03*
X0108216Y0094440D03*
D170*
X0108216Y0029935D03*
X0108259Y0029935D03*
D171*
X0108216Y0078750D03*
D172*
X0108259Y0078730D03*
D173*
X0108259Y0094435D03*
X0117209Y0094435D03*
X0108819Y0029935D03*
X0108776Y0029935D03*
D174*
X0108388Y0029935D03*
X0108345Y0029935D03*
X0108302Y0029935D03*
X0108475Y0094435D03*
D175*
X0108302Y0078750D03*
X0117209Y0078750D03*
D176*
X0117166Y0094435D03*
X0117123Y0094435D03*
X0108302Y0094435D03*
X0108647Y0029935D03*
X0108690Y0029935D03*
D177*
X0108345Y0078755D03*
D178*
X0108345Y0094435D03*
X0108388Y0094435D03*
X0117080Y0094435D03*
X0108604Y0029935D03*
X0108561Y0029935D03*
D179*
X0108388Y0078730D03*
D180*
X0108432Y0094435D03*
X0108432Y0029935D03*
D181*
X0108432Y0078730D03*
D182*
X0108475Y0029935D03*
D183*
X0108475Y0078750D03*
D184*
X0108518Y0029910D03*
D185*
X0108518Y0075310D03*
X0119748Y0078750D03*
D186*
X0108518Y0082130D03*
X0116005Y0018060D03*
D187*
X0108518Y0090950D03*
D188*
X0108647Y0090565D03*
X0108561Y0075115D03*
X0118156Y0029935D03*
X0116736Y0018275D03*
D189*
X0108561Y0082260D03*
D190*
X0108561Y0090735D03*
X0108561Y0098135D03*
X0116908Y0082305D03*
X0116306Y0018145D03*
X0116263Y0018145D03*
D191*
X0108604Y0075030D03*
D192*
X0108647Y0074945D03*
X0116822Y0074945D03*
D193*
X0119834Y0078775D03*
X0116822Y0082515D03*
X0108647Y0082515D03*
X0118242Y0029935D03*
X0118285Y0029935D03*
X0116908Y0018315D03*
X0116865Y0018315D03*
D194*
X0108647Y0098310D03*
D195*
X0108690Y0074855D03*
X0116779Y0074855D03*
X0118586Y0029935D03*
X0117382Y0018445D03*
X0117339Y0018445D03*
X0111917Y0013755D03*
D196*
X0117123Y0018380D03*
X0108690Y0082580D03*
D197*
X0108733Y0029915D03*
D198*
X0117468Y0018490D03*
X0117511Y0018490D03*
X0108733Y0074770D03*
D199*
X0108733Y0082650D03*
X0108733Y0090390D03*
X0117166Y0018400D03*
X0117209Y0018400D03*
X0112003Y0013760D03*
D200*
X0108733Y0098480D03*
D201*
X0116564Y0090135D03*
X0116693Y0074685D03*
X0108776Y0074685D03*
X0118931Y0029935D03*
D202*
X0108819Y0074645D03*
X0108905Y0082905D03*
X0116564Y0082905D03*
D203*
X0116650Y0082800D03*
X0116736Y0074750D03*
X0108819Y0082800D03*
D204*
X0108819Y0090240D03*
X0108819Y0098630D03*
X0116650Y0098630D03*
X0116650Y0090240D03*
X0117554Y0018510D03*
X0117597Y0018510D03*
D205*
X0108862Y0029935D03*
D206*
X0108862Y0074600D03*
D207*
X0108862Y0082840D03*
D208*
X0108862Y0090180D03*
D209*
X0108862Y0098700D03*
D210*
X0108905Y0029935D03*
X0108948Y0029935D03*
D211*
X0119103Y0029915D03*
X0111573Y0013735D03*
X0108905Y0074535D03*
X0116564Y0074535D03*
D212*
X0108905Y0090110D03*
X0108905Y0098760D03*
D213*
X0108991Y0098865D03*
X0108991Y0090005D03*
X0108948Y0082945D03*
X0116478Y0090005D03*
X0116478Y0098865D03*
X0119060Y0029935D03*
X0111616Y0013755D03*
D214*
X0119189Y0029910D03*
X0119232Y0029910D03*
X0116521Y0074490D03*
X0116392Y0083100D03*
X0116392Y0089900D03*
X0109077Y0089900D03*
X0109077Y0083100D03*
X0108991Y0074450D03*
D215*
X0108991Y0083010D03*
X0116478Y0083010D03*
X0116607Y0074580D03*
X0118027Y0018640D03*
X0118070Y0018640D03*
D216*
X0119275Y0029935D03*
X0109034Y0074385D03*
X0116349Y0083165D03*
X0109120Y0089875D03*
D217*
X0109034Y0083055D03*
D218*
X0117382Y0094435D03*
X0117382Y0058165D03*
X0117339Y0058165D03*
X0117296Y0058165D03*
X0117209Y0058165D03*
X0117166Y0058165D03*
X0117123Y0058165D03*
X0117080Y0058165D03*
X0116994Y0058165D03*
X0116951Y0058165D03*
X0116908Y0058165D03*
X0116865Y0058165D03*
X0116822Y0058165D03*
X0116779Y0058165D03*
X0117425Y0058165D03*
X0117468Y0058165D03*
X0117511Y0058165D03*
X0117554Y0058165D03*
X0117597Y0058165D03*
X0117640Y0058165D03*
X0117683Y0058165D03*
X0117726Y0058165D03*
X0117769Y0058165D03*
X0117855Y0058165D03*
X0117898Y0058165D03*
X0117941Y0058165D03*
X0117984Y0058165D03*
X0118027Y0058165D03*
X0118070Y0058165D03*
X0118113Y0058165D03*
X0118156Y0058165D03*
X0118199Y0058165D03*
X0118242Y0058165D03*
X0118285Y0058165D03*
X0118328Y0058165D03*
X0118371Y0058165D03*
X0118414Y0058165D03*
X0118457Y0058165D03*
X0118500Y0058165D03*
X0118543Y0058165D03*
X0118586Y0058165D03*
X0118629Y0058165D03*
X0118672Y0058165D03*
X0118759Y0058165D03*
X0118802Y0058165D03*
X0118845Y0058165D03*
X0118888Y0058165D03*
X0118931Y0058165D03*
X0118974Y0058165D03*
X0119017Y0058165D03*
X0119060Y0058165D03*
X0119103Y0058165D03*
X0119146Y0058165D03*
X0119189Y0058165D03*
X0119232Y0058165D03*
X0119275Y0058165D03*
X0119318Y0058165D03*
X0119361Y0058165D03*
X0119404Y0058165D03*
X0119447Y0058165D03*
X0119490Y0058165D03*
X0119533Y0058165D03*
X0119576Y0058165D03*
X0119619Y0058165D03*
X0119705Y0058165D03*
X0119748Y0058165D03*
X0119791Y0058165D03*
X0119834Y0058165D03*
X0119877Y0058165D03*
X0119920Y0058165D03*
X0119963Y0058165D03*
X0119963Y0044565D03*
X0119920Y0044565D03*
X0119877Y0044565D03*
X0119834Y0044565D03*
X0119791Y0044565D03*
X0119748Y0044565D03*
X0119705Y0044565D03*
X0119619Y0044565D03*
X0119576Y0044565D03*
X0119533Y0044565D03*
X0119490Y0044565D03*
X0119447Y0044565D03*
X0119404Y0044565D03*
X0119361Y0044565D03*
X0119318Y0044565D03*
X0119275Y0044565D03*
X0119232Y0044565D03*
X0119189Y0044565D03*
X0119146Y0044565D03*
X0119103Y0044565D03*
X0119060Y0044565D03*
X0119017Y0044565D03*
X0118974Y0044565D03*
X0118931Y0044565D03*
X0118888Y0044565D03*
X0118845Y0044565D03*
X0118802Y0044565D03*
X0118759Y0044565D03*
X0118672Y0044565D03*
X0118629Y0044565D03*
X0118586Y0044565D03*
X0118543Y0044565D03*
X0118500Y0044565D03*
X0118457Y0044565D03*
X0118414Y0044565D03*
X0118371Y0044565D03*
X0118328Y0044565D03*
X0118285Y0044565D03*
X0118242Y0044565D03*
X0118199Y0044565D03*
X0118156Y0044565D03*
X0118113Y0044565D03*
X0118070Y0044565D03*
X0118027Y0044565D03*
X0117984Y0044565D03*
X0117941Y0044565D03*
X0117898Y0044565D03*
X0117855Y0044565D03*
X0117769Y0044565D03*
X0117726Y0044565D03*
X0117683Y0044565D03*
X0117640Y0044565D03*
X0117597Y0044565D03*
X0117554Y0044565D03*
X0117511Y0044565D03*
X0117468Y0044565D03*
X0117425Y0044565D03*
X0117382Y0044565D03*
X0117339Y0044565D03*
X0117296Y0044565D03*
X0117209Y0044565D03*
X0117166Y0044565D03*
X0117123Y0044565D03*
X0117080Y0044565D03*
X0116994Y0044565D03*
X0116951Y0044565D03*
X0116908Y0044565D03*
X0116865Y0044565D03*
X0116822Y0044565D03*
X0116779Y0044565D03*
X0109163Y0029935D03*
X0109120Y0029935D03*
X0109077Y0029935D03*
D219*
X0119361Y0029935D03*
X0119404Y0029935D03*
X0118457Y0018745D03*
X0118414Y0018745D03*
X0116392Y0074345D03*
X0116306Y0083205D03*
X0116263Y0083245D03*
X0116263Y0089785D03*
X0109249Y0089745D03*
X0109206Y0089785D03*
X0109206Y0099085D03*
X0116263Y0099085D03*
X0109077Y0074345D03*
D220*
X0109077Y0098950D03*
D221*
X0109120Y0013755D03*
X0109163Y0013755D03*
D222*
X0119447Y0029915D03*
X0116349Y0074275D03*
X0109120Y0074275D03*
X0109206Y0083225D03*
D223*
X0109120Y0098995D03*
X0118242Y0018705D03*
X0118285Y0018705D03*
D224*
X0119490Y0029935D03*
X0111314Y0013755D03*
X0109163Y0074255D03*
X0116177Y0083335D03*
X0116220Y0089745D03*
D225*
X0116349Y0099015D03*
X0116306Y0099065D03*
X0109163Y0099065D03*
X0109163Y0083185D03*
X0116435Y0074365D03*
X0119318Y0029915D03*
X0118371Y0018725D03*
X0118328Y0018725D03*
X0111444Y0013735D03*
X0111401Y0013735D03*
D226*
X0109163Y0089810D03*
X0116306Y0089810D03*
D227*
X0109249Y0013760D03*
X0109206Y0013760D03*
D228*
X0111271Y0013730D03*
X0118629Y0018810D03*
X0118672Y0018810D03*
X0119533Y0029910D03*
X0119576Y0029910D03*
X0116306Y0074230D03*
X0116134Y0083360D03*
X0116091Y0089640D03*
X0116134Y0089680D03*
X0109378Y0089640D03*
X0109335Y0083360D03*
X0109206Y0074230D03*
X0109378Y0099230D03*
X0116091Y0099230D03*
X0116134Y0099190D03*
D229*
X0116048Y0089620D03*
X0109421Y0089620D03*
X0109421Y0083420D03*
X0109378Y0083380D03*
X0109249Y0074170D03*
X0116220Y0074170D03*
D230*
X0116220Y0083270D03*
X0109249Y0083270D03*
X0118500Y0018770D03*
D231*
X0109249Y0099125D03*
D232*
X0109292Y0013755D03*
X0109335Y0013755D03*
D233*
X0109292Y0029915D03*
X0117468Y0094415D03*
D234*
X0116005Y0089555D03*
X0109464Y0089555D03*
X0109464Y0083445D03*
X0109292Y0074145D03*
X0109335Y0074105D03*
X0116134Y0074105D03*
X0116177Y0074145D03*
X0118802Y0018855D03*
D235*
X0118586Y0018790D03*
X0118543Y0018790D03*
X0109292Y0083290D03*
X0109335Y0089660D03*
X0109292Y0089700D03*
X0116177Y0089700D03*
X0116220Y0099130D03*
X0116177Y0099170D03*
X0109335Y0099210D03*
X0109292Y0099170D03*
D236*
X0109378Y0013755D03*
D237*
X0118845Y0018875D03*
X0118888Y0018875D03*
X0119705Y0029935D03*
X0116091Y0074085D03*
X0109378Y0074085D03*
X0109550Y0089485D03*
X0109507Y0089535D03*
X0115919Y0089485D03*
X0115919Y0099385D03*
X0109550Y0099385D03*
D238*
X0110153Y0083080D03*
X0109464Y0013760D03*
X0109421Y0013760D03*
D239*
X0111142Y0013755D03*
X0109421Y0074045D03*
X0116048Y0074045D03*
X0109550Y0083505D03*
X0109507Y0099345D03*
D240*
X0109421Y0099255D03*
X0116048Y0099255D03*
X0120006Y0094435D03*
X0119619Y0029935D03*
X0118759Y0018835D03*
X0111228Y0013755D03*
D241*
X0109464Y0074020D03*
D242*
X0109464Y0099320D03*
X0116005Y0099320D03*
D243*
X0109550Y0013755D03*
X0109507Y0013755D03*
D244*
X0109507Y0029915D03*
D245*
X0109507Y0073975D03*
X0109636Y0083575D03*
X0109636Y0089425D03*
D246*
X0109507Y0083485D03*
X0111185Y0013735D03*
D247*
X0109593Y0029935D03*
X0109550Y0029935D03*
D248*
X0119834Y0029935D03*
X0109550Y0073955D03*
X0109679Y0083595D03*
X0109722Y0083635D03*
X0109722Y0099515D03*
X0120006Y0078775D03*
D249*
X0109636Y0013755D03*
X0109593Y0013755D03*
D250*
X0119103Y0018940D03*
X0119146Y0018940D03*
X0119877Y0029910D03*
X0115876Y0073890D03*
X0115919Y0073930D03*
X0109593Y0073890D03*
X0109765Y0083660D03*
X0109765Y0089340D03*
X0115703Y0089340D03*
X0109851Y0099580D03*
D251*
X0109593Y0083550D03*
D252*
X0109593Y0089465D03*
X0115876Y0089465D03*
X0116048Y0083355D03*
X0115876Y0099405D03*
X0109593Y0099405D03*
X0119748Y0029915D03*
X0119791Y0029915D03*
X0118974Y0018895D03*
X0118931Y0018895D03*
X0111099Y0013735D03*
D253*
X0111013Y0013760D03*
X0119189Y0018960D03*
X0115833Y0073870D03*
X0109679Y0073870D03*
X0109636Y0073870D03*
X0109808Y0089320D03*
X0115574Y0089270D03*
X0115617Y0089270D03*
X0115660Y0089320D03*
X0115660Y0099560D03*
X0109808Y0099560D03*
D254*
X0109636Y0099450D03*
D255*
X0109679Y0013755D03*
D256*
X0116005Y0074000D03*
X0115833Y0089400D03*
X0115790Y0089400D03*
X0109679Y0089400D03*
D257*
X0109722Y0089360D03*
X0109679Y0099470D03*
X0115790Y0099470D03*
X0115833Y0099470D03*
X0119017Y0018920D03*
X0119060Y0018920D03*
D258*
X0109722Y0013735D03*
D259*
X0119920Y0029935D03*
X0109722Y0073825D03*
D260*
X0109765Y0013760D03*
D261*
X0110970Y0013735D03*
X0119232Y0018985D03*
X0119275Y0018985D03*
X0119963Y0029915D03*
X0115703Y0073805D03*
X0115790Y0073845D03*
X0109765Y0073805D03*
X0109981Y0099665D03*
X0115488Y0099665D03*
D262*
X0115703Y0099535D03*
X0109765Y0099535D03*
X0109851Y0089295D03*
X0111056Y0013735D03*
D263*
X0109808Y0013735D03*
X0110067Y0083225D03*
D264*
X0110024Y0089185D03*
X0115445Y0089185D03*
X0115445Y0099685D03*
X0110067Y0099685D03*
X0110024Y0099685D03*
X0109808Y0073785D03*
D265*
X0110067Y0073655D03*
X0110196Y0073565D03*
X0115273Y0073565D03*
X0115445Y0073655D03*
X0109808Y0083595D03*
X0110368Y0089015D03*
X0110282Y0089055D03*
X0110239Y0089055D03*
X0115101Y0089015D03*
X0115230Y0089055D03*
X0120049Y0094435D03*
X0115230Y0099815D03*
X0115101Y0099855D03*
X0110368Y0099855D03*
X0110282Y0099815D03*
X0110239Y0099815D03*
X0110841Y0013755D03*
D266*
X0109851Y0013755D03*
D267*
X0109851Y0073760D03*
X0115660Y0073760D03*
X0115488Y0089210D03*
X0115531Y0089250D03*
X0109981Y0089210D03*
X0109938Y0089250D03*
D268*
X0109895Y0013755D03*
D269*
X0109895Y0019220D03*
X0114284Y0027480D03*
X0114284Y0058160D03*
X0109895Y0058160D03*
X0109895Y0067890D03*
X0114284Y0067890D03*
X0118716Y0067890D03*
D270*
X0109895Y0029935D03*
D271*
X0109895Y0044565D03*
X0114284Y0044565D03*
D272*
X0109895Y0073740D03*
D273*
X0109895Y0083490D03*
X0118716Y0009090D03*
D274*
X0109895Y0089270D03*
D275*
X0109895Y0099600D03*
D276*
X0109938Y0013755D03*
D277*
X0115876Y0083140D03*
X0109938Y0083400D03*
D278*
X0109938Y0099620D03*
X0115531Y0099620D03*
D279*
X0115790Y0083030D03*
X0120135Y0078770D03*
X0109981Y0013760D03*
D280*
X0109981Y0029935D03*
X0110024Y0029935D03*
D281*
X0110024Y0013735D03*
D282*
X0110067Y0013755D03*
D283*
X0110067Y0029915D03*
D284*
X0110110Y0013735D03*
D285*
X0119490Y0019050D03*
X0115359Y0073610D03*
X0110153Y0073610D03*
X0110110Y0073610D03*
X0110196Y0089100D03*
X0115273Y0089100D03*
D286*
X0110110Y0083140D03*
D287*
X0110110Y0089145D03*
X0115359Y0089145D03*
X0116005Y0083295D03*
X0115531Y0073695D03*
X0119318Y0019005D03*
X0119361Y0019005D03*
X0110927Y0013755D03*
D288*
X0110110Y0099730D03*
X0115359Y0099730D03*
D289*
X0115316Y0099755D03*
X0115402Y0099705D03*
X0110153Y0099755D03*
D290*
X0110196Y0013735D03*
D291*
X0115617Y0082775D03*
X0110196Y0083035D03*
D292*
X0110196Y0099775D03*
X0115273Y0099775D03*
D293*
X0110239Y0013760D03*
D294*
X0115574Y0082715D03*
X0110239Y0082965D03*
D295*
X0110282Y0013755D03*
X0110325Y0013755D03*
D296*
X0115531Y0082670D03*
X0110282Y0082880D03*
D297*
X0110325Y0082820D03*
D298*
X0110368Y0013755D03*
D299*
X0110368Y0082755D03*
D300*
X0120092Y0078755D03*
X0114068Y0015755D03*
X0114025Y0015755D03*
X0113982Y0015715D03*
X0113767Y0015585D03*
X0113724Y0015585D03*
X0113681Y0015545D03*
X0113509Y0015455D03*
X0110411Y0013735D03*
D301*
X0110411Y0029915D03*
D302*
X0110411Y0082690D03*
D303*
X0110411Y0088990D03*
X0110454Y0088990D03*
X0115015Y0088990D03*
X0115058Y0088990D03*
X0115058Y0099880D03*
X0115015Y0099880D03*
X0114929Y0099920D03*
X0110540Y0099920D03*
X0110497Y0099920D03*
X0110454Y0099880D03*
X0110411Y0099880D03*
X0115316Y0073590D03*
X0119533Y0019070D03*
X0119576Y0019070D03*
D304*
X0115273Y0011045D03*
X0115488Y0010915D03*
X0115574Y0010875D03*
X0115790Y0010745D03*
X0116263Y0010485D03*
X0116564Y0010315D03*
X0116779Y0010185D03*
X0117554Y0009755D03*
X0115015Y0011175D03*
X0114800Y0011305D03*
X0114714Y0011345D03*
X0114499Y0011475D03*
X0114025Y0011735D03*
X0113810Y0011865D03*
X0113724Y0011905D03*
X0113509Y0012035D03*
X0110454Y0013755D03*
D305*
X0110454Y0082605D03*
D306*
X0110497Y0013735D03*
X0113767Y0011885D03*
X0115531Y0010895D03*
X0116306Y0010465D03*
X0117296Y0009905D03*
X0118802Y0009045D03*
X0118845Y0009045D03*
D307*
X0110497Y0082535D03*
D308*
X0110540Y0082475D03*
D309*
X0111788Y0088605D03*
X0111831Y0088605D03*
X0111874Y0088605D03*
X0112218Y0088565D03*
X0112261Y0088565D03*
X0112304Y0088565D03*
X0112347Y0088565D03*
X0112390Y0088565D03*
X0112433Y0088565D03*
X0112476Y0088565D03*
X0112519Y0088565D03*
X0112605Y0088565D03*
X0112648Y0088565D03*
X0112691Y0088565D03*
X0112777Y0088565D03*
X0112864Y0088565D03*
X0112907Y0088565D03*
X0112950Y0088565D03*
X0112993Y0088565D03*
X0113036Y0088565D03*
X0113079Y0088565D03*
X0113122Y0088565D03*
X0113165Y0088565D03*
X0113208Y0088565D03*
X0113251Y0088565D03*
X0113595Y0088605D03*
X0113638Y0088605D03*
X0113681Y0088605D03*
X0113681Y0100265D03*
X0113638Y0100265D03*
X0113595Y0100265D03*
X0111874Y0100265D03*
X0111831Y0100265D03*
X0111788Y0100265D03*
X0111788Y0073115D03*
X0111745Y0073115D03*
X0111831Y0073115D03*
X0111874Y0073115D03*
X0113638Y0073115D03*
X0113681Y0073115D03*
X0112864Y0032885D03*
X0113079Y0032795D03*
X0113208Y0032755D03*
X0113853Y0032495D03*
X0113896Y0032495D03*
X0113939Y0032495D03*
X0113982Y0032455D03*
X0114025Y0032455D03*
X0114197Y0032365D03*
X0114240Y0032365D03*
X0114542Y0032235D03*
X0114585Y0032235D03*
X0114671Y0032195D03*
X0114714Y0032195D03*
X0115015Y0032065D03*
X0115058Y0032065D03*
X0115359Y0031935D03*
X0115445Y0031895D03*
X0115488Y0031895D03*
X0115703Y0031805D03*
X0115790Y0031765D03*
X0115833Y0031765D03*
X0112864Y0026945D03*
X0112519Y0026815D03*
X0112476Y0026815D03*
X0112175Y0026685D03*
X0112132Y0026685D03*
X0112089Y0026645D03*
X0112046Y0026645D03*
X0112003Y0026645D03*
X0111831Y0026555D03*
X0111788Y0026555D03*
X0111702Y0026515D03*
X0111659Y0026515D03*
X0111314Y0026385D03*
X0111228Y0026345D03*
X0110583Y0013735D03*
D310*
X0110583Y0082410D03*
D311*
X0111917Y0073095D03*
X0111960Y0073095D03*
X0112003Y0073095D03*
X0112046Y0073095D03*
X0112089Y0073095D03*
X0112132Y0073095D03*
X0113380Y0073095D03*
X0113423Y0073095D03*
X0113466Y0073095D03*
X0113509Y0073095D03*
X0113552Y0073095D03*
X0113595Y0073095D03*
X0113896Y0100205D03*
X0113939Y0100205D03*
X0113982Y0100205D03*
X0113810Y0100245D03*
X0113767Y0100245D03*
X0113724Y0100245D03*
X0111745Y0100245D03*
X0111702Y0100245D03*
X0111659Y0100245D03*
X0111616Y0100245D03*
X0111573Y0100205D03*
X0111530Y0100205D03*
X0111185Y0033505D03*
X0111745Y0033295D03*
X0111788Y0033295D03*
X0111874Y0033245D03*
X0111960Y0033205D03*
X0112003Y0033205D03*
X0112648Y0032945D03*
X0112691Y0032945D03*
X0112777Y0032905D03*
X0113509Y0032645D03*
X0113595Y0032605D03*
X0111616Y0026495D03*
X0111401Y0026405D03*
X0110626Y0013755D03*
D312*
X0110626Y0029915D03*
D313*
X0110626Y0082345D03*
D314*
X0110669Y0029935D03*
D315*
X0110712Y0013735D03*
D316*
X0110712Y0029935D03*
D317*
X0110841Y0029915D03*
D318*
X0111013Y0029935D03*
X0111056Y0029935D03*
X0118070Y0078775D03*
X0118199Y0094435D03*
D319*
X0113251Y0100310D03*
X0113208Y0100310D03*
X0113165Y0100310D03*
X0113122Y0100310D03*
X0113079Y0100310D03*
X0113036Y0100310D03*
X0112993Y0100310D03*
X0112950Y0100310D03*
X0112907Y0100310D03*
X0112864Y0100310D03*
X0112777Y0100310D03*
X0112691Y0100310D03*
X0112648Y0100310D03*
X0112605Y0100310D03*
X0112519Y0100310D03*
X0112476Y0100310D03*
X0112433Y0100310D03*
X0112390Y0100310D03*
X0112347Y0100310D03*
X0112304Y0100310D03*
X0112261Y0100310D03*
X0112218Y0100310D03*
X0111573Y0073160D03*
X0113294Y0032710D03*
X0113767Y0032540D03*
X0113810Y0032540D03*
X0114068Y0032410D03*
X0114111Y0032410D03*
X0114154Y0032410D03*
X0114757Y0032150D03*
X0114800Y0032150D03*
X0114843Y0032150D03*
X0114886Y0032110D03*
X0114929Y0032110D03*
X0115574Y0031850D03*
X0115617Y0031850D03*
X0112950Y0026990D03*
X0112734Y0026900D03*
X0112648Y0026860D03*
X0112605Y0026860D03*
X0111960Y0026600D03*
X0111917Y0026600D03*
X0111874Y0026600D03*
X0111099Y0026300D03*
D320*
X0111142Y0026325D03*
X0111185Y0026325D03*
X0111271Y0026365D03*
X0111745Y0026535D03*
X0113251Y0032735D03*
X0113165Y0032775D03*
X0113122Y0032775D03*
X0113036Y0032815D03*
X0112993Y0032815D03*
X0112950Y0032865D03*
X0112907Y0032865D03*
X0112476Y0033035D03*
X0112433Y0033035D03*
X0112390Y0033075D03*
X0112347Y0033075D03*
X0112304Y0033075D03*
X0112132Y0033165D03*
X0112089Y0033165D03*
X0111659Y0033335D03*
X0111530Y0033375D03*
X0111401Y0033425D03*
X0119920Y0019175D03*
X0119963Y0019175D03*
X0113896Y0073135D03*
X0113853Y0073135D03*
X0113810Y0073135D03*
X0113767Y0073135D03*
X0113724Y0073135D03*
X0114240Y0073225D03*
X0111702Y0073135D03*
X0111659Y0073135D03*
X0111616Y0073135D03*
X0111271Y0073225D03*
X0111917Y0088585D03*
X0111960Y0088585D03*
X0112003Y0088585D03*
X0112046Y0088585D03*
X0112089Y0088585D03*
X0112132Y0088585D03*
X0112175Y0088585D03*
X0111745Y0088625D03*
X0111702Y0088625D03*
X0111659Y0088625D03*
X0111616Y0088625D03*
X0113294Y0088585D03*
X0113380Y0088585D03*
X0113423Y0088585D03*
X0113466Y0088585D03*
X0113509Y0088585D03*
X0113552Y0088585D03*
X0113724Y0088625D03*
X0113767Y0088625D03*
X0113810Y0088625D03*
X0113552Y0100285D03*
X0113509Y0100285D03*
X0113466Y0100285D03*
X0113423Y0100285D03*
X0113380Y0100285D03*
X0113294Y0100285D03*
X0112175Y0100285D03*
X0112132Y0100285D03*
X0112089Y0100285D03*
X0112046Y0100285D03*
X0112003Y0100285D03*
X0111960Y0100285D03*
X0111917Y0100285D03*
D321*
X0111358Y0013735D03*
D322*
X0111358Y0026385D03*
X0112821Y0088565D03*
D323*
X0111358Y0088695D03*
X0111358Y0073205D03*
X0111358Y0033445D03*
D324*
X0111358Y0100185D03*
D325*
X0111530Y0088670D03*
X0111573Y0088670D03*
X0113896Y0088670D03*
X0113939Y0088670D03*
X0113982Y0088670D03*
X0113982Y0073180D03*
X0113939Y0073180D03*
X0114025Y0073180D03*
X0114068Y0073180D03*
X0111530Y0073180D03*
X0111444Y0073180D03*
X0111401Y0073180D03*
X0112218Y0033120D03*
X0112261Y0033120D03*
D326*
X0113423Y0032670D03*
X0113466Y0032670D03*
X0113638Y0032580D03*
X0113681Y0032580D03*
X0114413Y0032280D03*
X0114456Y0032280D03*
X0114499Y0032280D03*
X0115230Y0031980D03*
X0115273Y0031980D03*
X0115919Y0031720D03*
X0116048Y0031680D03*
X0113079Y0027030D03*
X0112304Y0026730D03*
X0112261Y0026730D03*
X0111573Y0026470D03*
X0111444Y0026430D03*
X0112175Y0073070D03*
X0112218Y0073070D03*
X0112261Y0073070D03*
X0112304Y0073070D03*
X0112347Y0073070D03*
X0112390Y0073070D03*
X0112433Y0073070D03*
X0112476Y0073070D03*
X0112519Y0073070D03*
X0112605Y0073070D03*
X0112648Y0073070D03*
X0112691Y0073070D03*
X0112777Y0073070D03*
X0112864Y0073070D03*
X0112907Y0073070D03*
X0112950Y0073070D03*
X0112993Y0073070D03*
X0113036Y0073070D03*
X0113079Y0073070D03*
X0113122Y0073070D03*
X0113165Y0073070D03*
X0113208Y0073070D03*
X0113251Y0073070D03*
X0113294Y0073070D03*
D327*
X0111444Y0033400D03*
D328*
X0111487Y0013735D03*
D329*
X0111487Y0026430D03*
X0112562Y0073070D03*
X0113337Y0073070D03*
D330*
X0111487Y0033400D03*
D331*
X0111487Y0073180D03*
X0111487Y0088670D03*
D332*
X0111487Y0100205D03*
D333*
X0112519Y0032990D03*
X0112605Y0032990D03*
X0113380Y0032690D03*
X0113724Y0032560D03*
X0111530Y0026450D03*
D334*
X0118888Y0029915D03*
X0111745Y0013735D03*
X0111702Y0013735D03*
D335*
X0111788Y0013735D03*
X0111831Y0013735D03*
X0118759Y0029915D03*
D336*
X0118543Y0029915D03*
X0117296Y0018425D03*
X0111960Y0013735D03*
D337*
X0112046Y0013735D03*
D338*
X0112175Y0013735D03*
X0112218Y0013735D03*
X0116779Y0018295D03*
X0116822Y0018295D03*
X0118199Y0029915D03*
X0116908Y0075095D03*
X0116822Y0090545D03*
D339*
X0112261Y0013735D03*
D340*
X0112347Y0013735D03*
X0117984Y0029915D03*
D341*
X0115144Y0032025D03*
X0115101Y0032025D03*
X0114370Y0032325D03*
X0114327Y0032325D03*
X0113552Y0032625D03*
X0112734Y0032925D03*
X0113208Y0027075D03*
X0112390Y0026775D03*
X0112347Y0026775D03*
D342*
X0117855Y0029915D03*
X0117898Y0029915D03*
X0116392Y0018165D03*
X0116349Y0018165D03*
X0112433Y0013735D03*
X0112390Y0013735D03*
X0116908Y0090715D03*
X0116908Y0098155D03*
D343*
X0117769Y0029915D03*
X0116220Y0018125D03*
X0116177Y0018125D03*
X0112519Y0013735D03*
X0112476Y0013735D03*
D344*
X0112562Y0013735D03*
D345*
X0112562Y0032990D03*
D346*
X0112562Y0088565D03*
D347*
X0112562Y0100310D03*
X0113337Y0032710D03*
D348*
X0117640Y0029915D03*
X0112605Y0013735D03*
D349*
X0112648Y0013735D03*
X0115876Y0018035D03*
X0115919Y0018035D03*
X0117554Y0029915D03*
X0116951Y0082195D03*
D350*
X0117468Y0029935D03*
X0117511Y0029935D03*
X0115833Y0018015D03*
X0115790Y0018015D03*
X0112691Y0013715D03*
D351*
X0112734Y0013735D03*
X0117425Y0029915D03*
X0116951Y0097945D03*
D352*
X0112734Y0073050D03*
X0116005Y0031700D03*
X0115660Y0028000D03*
X0114886Y0027700D03*
X0114843Y0027700D03*
X0114068Y0027400D03*
X0113982Y0027350D03*
X0113939Y0027350D03*
X0113165Y0027050D03*
X0113122Y0027050D03*
D353*
X0112777Y0013735D03*
D354*
X0112821Y0013735D03*
D355*
X0112821Y0032905D03*
D356*
X0112821Y0073070D03*
D357*
X0112821Y0100310D03*
D358*
X0116994Y0075525D03*
X0117209Y0029915D03*
X0112907Y0013735D03*
X0112864Y0013735D03*
D359*
X0112950Y0013735D03*
X0112993Y0013735D03*
X0115273Y0017865D03*
X0115316Y0017865D03*
X0117080Y0029915D03*
D360*
X0113036Y0013735D03*
D361*
X0113079Y0013710D03*
X0115058Y0017800D03*
D362*
X0113122Y0013735D03*
X0116865Y0029915D03*
D363*
X0116779Y0029915D03*
X0114843Y0017735D03*
X0114800Y0017735D03*
X0113208Y0013735D03*
X0113165Y0013735D03*
D364*
X0113251Y0013735D03*
X0113294Y0013735D03*
X0116650Y0029915D03*
D365*
X0113337Y0013735D03*
D366*
X0113337Y0088585D03*
X0113337Y0100285D03*
D367*
X0116478Y0029935D03*
X0113380Y0013715D03*
D368*
X0113423Y0013735D03*
X0116435Y0029915D03*
D369*
X0113638Y0015520D03*
X0113552Y0015480D03*
X0113552Y0011990D03*
X0113595Y0011990D03*
X0113896Y0011820D03*
X0113939Y0011780D03*
X0113982Y0011780D03*
X0114111Y0011690D03*
X0114327Y0011560D03*
X0114413Y0011520D03*
X0114585Y0011430D03*
X0114628Y0011390D03*
X0114886Y0011260D03*
X0114972Y0011220D03*
X0115101Y0011130D03*
X0115402Y0010960D03*
X0115703Y0010790D03*
X0116091Y0010570D03*
X0116177Y0010530D03*
X0116478Y0010360D03*
X0116650Y0010270D03*
X0116865Y0010140D03*
X0117166Y0009970D03*
X0117640Y0009710D03*
X0117855Y0009580D03*
X0117941Y0009540D03*
X0118242Y0009370D03*
D370*
X0114154Y0015800D03*
X0114111Y0015800D03*
X0113595Y0015500D03*
D371*
X0113638Y0011950D03*
X0114197Y0011650D03*
X0115876Y0010700D03*
X0116951Y0010100D03*
X0118629Y0009150D03*
D372*
X0118586Y0009170D03*
X0118543Y0009220D03*
X0118500Y0009220D03*
X0118457Y0009260D03*
X0118414Y0009260D03*
X0118371Y0009300D03*
X0118328Y0009300D03*
X0118285Y0009350D03*
X0118199Y0009390D03*
X0118156Y0009430D03*
X0118113Y0009430D03*
X0117984Y0009520D03*
X0117898Y0009560D03*
X0117769Y0009650D03*
X0117726Y0009650D03*
X0117683Y0009690D03*
X0117597Y0009730D03*
X0117511Y0009780D03*
X0117468Y0009820D03*
X0117425Y0009820D03*
X0117382Y0009860D03*
X0117339Y0009860D03*
X0117209Y0009950D03*
X0117123Y0009990D03*
X0117080Y0010030D03*
X0116994Y0010080D03*
X0116908Y0010120D03*
X0116822Y0010160D03*
X0116736Y0010210D03*
X0116693Y0010250D03*
X0116607Y0010290D03*
X0116521Y0010340D03*
X0116435Y0010380D03*
X0116392Y0010420D03*
X0116349Y0010420D03*
X0116220Y0010510D03*
X0116134Y0010550D03*
X0116048Y0010590D03*
X0116005Y0010640D03*
X0115919Y0010680D03*
X0115833Y0010720D03*
X0115660Y0010810D03*
X0115617Y0010850D03*
X0115445Y0010940D03*
X0115359Y0010980D03*
X0115316Y0011020D03*
X0115230Y0011070D03*
X0115144Y0011110D03*
X0115058Y0011150D03*
X0114929Y0011240D03*
X0114843Y0011280D03*
X0114671Y0011370D03*
X0114542Y0011450D03*
X0114456Y0011500D03*
X0114370Y0011540D03*
X0114240Y0011630D03*
X0114154Y0011670D03*
X0114068Y0011710D03*
X0113853Y0011840D03*
X0113681Y0011930D03*
X0114111Y0019240D03*
X0114154Y0019240D03*
X0113896Y0027330D03*
X0114111Y0027420D03*
X0114240Y0027460D03*
X0114456Y0027550D03*
X0114585Y0027590D03*
X0114671Y0027630D03*
X0114800Y0027680D03*
X0114929Y0027720D03*
X0115015Y0027760D03*
X0115144Y0027810D03*
X0115230Y0027850D03*
X0115273Y0027850D03*
X0115359Y0027890D03*
X0115445Y0027930D03*
X0115488Y0027930D03*
X0115574Y0027980D03*
X0115617Y0027980D03*
X0115703Y0028020D03*
X0115790Y0028060D03*
X0115833Y0028060D03*
X0115919Y0028110D03*
X0116005Y0028150D03*
X0116048Y0028150D03*
X0118672Y0009130D03*
X0118759Y0009090D03*
X0118888Y0009000D03*
X0118931Y0009000D03*
X0118974Y0008960D03*
X0119017Y0008920D03*
X0119060Y0008920D03*
X0119103Y0008870D03*
X0119146Y0008870D03*
X0119189Y0008830D03*
X0119232Y0008830D03*
X0119275Y0008790D03*
X0119318Y0008740D03*
X0119361Y0008740D03*
X0119404Y0008700D03*
X0119447Y0008700D03*
X0119490Y0008660D03*
X0119533Y0008660D03*
X0119576Y0008610D03*
X0119619Y0008610D03*
X0119705Y0008530D03*
X0119748Y0008530D03*
X0119791Y0008490D03*
X0119834Y0008490D03*
X0119877Y0008440D03*
X0119920Y0008440D03*
X0119963Y0008400D03*
D373*
X0113853Y0015625D03*
X0113810Y0015625D03*
D374*
X0113896Y0015670D03*
X0113939Y0015670D03*
D375*
X0114757Y0011325D03*
X0118027Y0009475D03*
X0118070Y0009475D03*
X0114025Y0027375D03*
D376*
X0116306Y0029915D03*
X0114240Y0017565D03*
X0114197Y0017565D03*
X0119533Y0078795D03*
D377*
X0114284Y0011605D03*
D378*
X0114284Y0017585D03*
D379*
X0114284Y0032365D03*
D380*
X0114284Y0073245D03*
D381*
X0114284Y0088735D03*
X0114284Y0100135D03*
D382*
X0114370Y0017605D03*
D383*
X0114413Y0017630D03*
X0114456Y0017630D03*
D384*
X0114499Y0017650D03*
X0114542Y0017650D03*
D385*
X0114671Y0017690D03*
D386*
X0114714Y0017715D03*
X0114757Y0017715D03*
X0116693Y0029935D03*
X0116736Y0029935D03*
D387*
X0114929Y0017755D03*
X0114886Y0017755D03*
X0116994Y0091205D03*
D388*
X0115015Y0017780D03*
X0114972Y0017780D03*
D389*
X0115101Y0017820D03*
X0115144Y0017820D03*
X0116994Y0029910D03*
D390*
X0115187Y0011090D03*
X0115962Y0010660D03*
D391*
X0115187Y0017845D03*
X0117037Y0029935D03*
D392*
X0115962Y0031700D03*
X0115187Y0032000D03*
D393*
X0115187Y0082155D03*
D394*
X0115187Y0089055D03*
X0115187Y0099815D03*
D395*
X0115230Y0082215D03*
D396*
X0115273Y0082280D03*
D397*
X0115316Y0082345D03*
D398*
X0115359Y0082410D03*
D399*
X0115402Y0017910D03*
X0115445Y0017910D03*
D400*
X0115402Y0082470D03*
D401*
X0115445Y0082515D03*
D402*
X0115488Y0017930D03*
X0115531Y0017930D03*
D403*
X0115488Y0082600D03*
D404*
X0117296Y0029910D03*
X0117339Y0029910D03*
X0115617Y0017950D03*
X0115574Y0017950D03*
D405*
X0115574Y0073740D03*
X0115617Y0073740D03*
D406*
X0115617Y0099600D03*
X0115574Y0099600D03*
D407*
X0115660Y0082840D03*
D408*
X0115703Y0082885D03*
D409*
X0115747Y0010770D03*
D410*
X0115747Y0017995D03*
D411*
X0115747Y0073805D03*
D412*
X0115747Y0082945D03*
D413*
X0115747Y0089380D03*
X0115747Y0099490D03*
D414*
X0115833Y0083075D03*
D415*
X0115962Y0018060D03*
D416*
X0115962Y0073955D03*
D417*
X0115962Y0083250D03*
D418*
X0115962Y0089535D03*
D419*
X0115962Y0099345D03*
D420*
X0116048Y0018080D03*
D421*
X0116091Y0029915D03*
D422*
X0116091Y0083400D03*
D423*
X0119533Y0094435D03*
X0116177Y0029935D03*
X0116134Y0029935D03*
D424*
X0116220Y0029910D03*
D425*
X0116263Y0029935D03*
D426*
X0116263Y0074210D03*
D427*
X0116392Y0098975D03*
D428*
X0117941Y0029935D03*
X0116435Y0018185D03*
D429*
X0116478Y0018210D03*
X0116521Y0018210D03*
D430*
X0116478Y0074430D03*
D431*
X0119576Y0078795D03*
X0116521Y0029915D03*
D432*
X0117941Y0018620D03*
X0117984Y0018620D03*
X0116521Y0082990D03*
D433*
X0116564Y0098740D03*
D434*
X0116607Y0098700D03*
X0116607Y0082860D03*
X0118802Y0029940D03*
X0118845Y0029940D03*
D435*
X0117683Y0018530D03*
X0117640Y0018530D03*
X0116607Y0090180D03*
D436*
X0116865Y0082450D03*
X0118113Y0029910D03*
X0116693Y0018250D03*
X0116650Y0018250D03*
D437*
X0116650Y0074625D03*
D438*
X0116736Y0082670D03*
X0116736Y0090370D03*
D439*
X0116736Y0098505D03*
D440*
X0116779Y0098395D03*
X0116779Y0082605D03*
D441*
X0116779Y0090480D03*
X0117080Y0018360D03*
D442*
X0116822Y0098330D03*
D443*
X0116865Y0075010D03*
X0116951Y0018340D03*
X0116994Y0018340D03*
D444*
X0116951Y0029935D03*
X0116908Y0029935D03*
D445*
X0116951Y0090930D03*
D446*
X0116994Y0081895D03*
D447*
X0117037Y0010030D03*
X0117812Y0009600D03*
X0119662Y0008570D03*
D448*
X0117037Y0018360D03*
D449*
X0117037Y0078770D03*
D450*
X0117037Y0094435D03*
D451*
X0117080Y0078770D03*
D452*
X0117123Y0078775D03*
D453*
X0117166Y0078775D03*
D454*
X0117253Y0009925D03*
D455*
X0117253Y0018425D03*
D456*
X0117253Y0029935D03*
D457*
X0117253Y0044565D03*
X0117253Y0058165D03*
D458*
X0117253Y0078770D03*
D459*
X0117253Y0094440D03*
D460*
X0117296Y0094415D03*
D461*
X0117382Y0029935D03*
D462*
X0117511Y0078775D03*
X0117554Y0078775D03*
D463*
X0117597Y0029935D03*
D464*
X0117597Y0078775D03*
D465*
X0117640Y0078770D03*
D466*
X0117683Y0078795D03*
D467*
X0119920Y0078795D03*
X0117769Y0018555D03*
X0117726Y0018555D03*
D468*
X0117726Y0078795D03*
D469*
X0117812Y0018575D03*
D470*
X0117812Y0029935D03*
D471*
X0117812Y0078770D03*
D472*
X0117812Y0094440D03*
D473*
X0117898Y0078775D03*
D474*
X0117984Y0078775D03*
D475*
X0118027Y0029935D03*
X0118070Y0029935D03*
D476*
X0118156Y0018680D03*
X0118199Y0018680D03*
D477*
X0118199Y0078775D03*
D478*
X0118285Y0078775D03*
D479*
X0118328Y0078775D03*
X0118457Y0094435D03*
D480*
X0118457Y0029910D03*
X0118414Y0029910D03*
D481*
X0118414Y0078775D03*
X0118500Y0094435D03*
D482*
X0118543Y0094435D03*
X0118457Y0078775D03*
D483*
X0118500Y0029935D03*
D484*
X0118500Y0078775D03*
D485*
X0118543Y0078795D03*
D486*
X0118716Y0029935D03*
D487*
X0118716Y0044565D03*
X0118716Y0058165D03*
D488*
X0118716Y0078770D03*
D489*
X0118716Y0094440D03*
D490*
X0118759Y0078775D03*
D491*
X0118802Y0078775D03*
D492*
X0118802Y0094440D03*
D493*
X0118845Y0078795D03*
D494*
X0118931Y0094435D03*
D495*
X0118974Y0078795D03*
D496*
X0119017Y0078775D03*
D497*
X0119017Y0094415D03*
D498*
X0119060Y0078795D03*
D499*
X0119103Y0078775D03*
D500*
X0119146Y0029935D03*
D501*
X0119146Y0078775D03*
D502*
X0119146Y0094415D03*
D503*
X0119189Y0078795D03*
D504*
X0119232Y0078770D03*
D505*
X0119232Y0094435D03*
D506*
X0119275Y0078775D03*
D507*
X0119275Y0094440D03*
D508*
X0119318Y0078775D03*
D509*
X0119318Y0094415D03*
D510*
X0119404Y0078775D03*
D511*
X0119662Y0029915D03*
D512*
X0119662Y0078775D03*
D513*
X0119662Y0094435D03*
D514*
X0119791Y0078775D03*
D515*
X0119877Y0078775D03*
D516*
X0120179Y0078815D03*
X0120179Y0094435D03*
D517*
X0120222Y0078775D03*
M02*
