%
M48
M72
T01C0.0130
T02C0.0236
T03C0.0276
T04C0.0320
T05C0.0354
T06C0.0400
T07C0.0787
%
T01
X4368Y8688
X4305Y9813
X4743Y9813
X5118Y9813
X5618Y9750
X6680Y10063
X7368Y11000
X7368Y11438
X7368Y11813
X7618Y12438
X8335Y12095
X8753Y12053
X8295Y11200
X7975Y10860
X9618Y10000
X9805Y12000
X5743Y14188
X5368Y13188
X4993Y13188
X5243Y14313
X4555Y14500
X4555Y14875
X4055Y14250
X4305Y13188
X4243Y11063
X4493Y10813
X2993Y10875
X2743Y12375
X2743Y13125
X555Y17250
X555Y20813
T02
X2930Y19750
X5680Y12750
X5680Y11500
T03
X6510Y15100
X6510Y16100
X7890Y15160
X7890Y14160
X9340Y14160
X9340Y15160
X8880Y17100
X8880Y18100
X5810Y4358
X5495Y3846
X5180Y4358
X4865Y3846
X4550Y4358
T04
X6730Y20500
X8630Y20500
T05
X4180Y15500
X1180Y15500
X3180Y8000
X3180Y6500
X7180Y6500
X7180Y8000
T06
X1130Y2500
X1230Y3500
X1130Y4500
X1230Y5500
X1130Y6500
X1230Y7500
X1130Y8500
X1230Y9500
X1130Y10500
X1230Y11500
X1180Y17500
X1180Y18500
X2180Y18500
X2180Y17500
X3180Y17500
X3180Y18500
X5700Y18580
X5700Y17580
X9130Y10500
X9230Y11500
X9230Y9500
X9130Y8500
X9230Y7500
X9130Y6500
X9230Y5500
X9130Y4500
X9230Y3500
X9130Y2500
T07
X6755Y2035
X6755Y3886
X3605Y3886
X3605Y2035
M30
