%
M48
M72
T01C0.0236
T02C0.0276
T03C0.0315
T04C0.0320
T05C0.0400
%
T01
X3700Y5300
X5140Y7700
X6260Y6740
X6420Y5940
X7540Y4980
X7860Y3860
X8340Y5140
X5780Y10740
X3220Y10900
X2260Y11540
X1300Y12820
T02
X5580Y16500
X5580Y17500
X7030Y11450
X8030Y11450
X8960Y11470
X9960Y11470
X3220Y3130
X3220Y2130
T03
X1180Y2593
X1180Y3381
X1180Y4168
X1180Y4956
X1180Y5743
X1180Y6530
X1180Y7318
X1180Y8105
X1180Y8893
X1180Y9680
X10180Y9767
X10180Y8979
X10180Y8192
X10180Y7404
X10180Y6617
X10180Y5830
X10180Y5042
X10180Y4255
X10180Y3467
X10180Y2680
T04
X9590Y14560
X7690Y14560
T05
X9000Y16870
X9000Y17870
X3010Y17660
X3010Y16660
X3010Y15660
X2010Y15660
X2010Y16660
X2010Y17660
X4180Y1180
X5180Y1080
X6180Y1180
X7180Y1080
M30
