%
M48
M72
T01C0.0130
T02C0.0157
T03C0.0315
T04C0.0394
T05C0.0400
%
T01
X2380Y2600
X4720Y3180
X5160Y3690
X5970Y1300
X7180Y1800
X8380Y2800
X6980Y4800
X7749Y5438
X8552Y6391
X8920Y7020
X8180Y7200
X7680Y8200
X8693Y8783
X9227Y9707
X9180Y10200
X9418Y10671
X10380Y10600
X11162Y9507
X9990Y8180
X9980Y4000
X12380Y2200
X8502Y12575
X8552Y13367
X8693Y13719
X7989Y13567
X7939Y14480
X8493Y15215
X8171Y15395
X8974Y16593
X9678Y15477
X9580Y14780
X9959Y14763
X10241Y15256
X11280Y13180
X8200Y17478
X8899Y18344
X9620Y18380
X9680Y20200
X7919Y19759
X6862Y19933
X6323Y19336
X5457Y19688
X6080Y17940
X5175Y15889
X5949Y14904
X6481Y14834
X7215Y15467
X6934Y13567
X5580Y11200
X5570Y10550
X4980Y8800
X4180Y8200
X3276Y12512
X2700Y16140
X4097Y18000
X680Y17700
T02
X5326Y5814
X5680Y5460
X5326Y5106
X6034Y5106
X6034Y5814
T03
X1180Y9113
X1180Y9901
X1180Y10688
X1180Y11476
X1180Y12263
X1180Y13050
X1180Y13838
X1180Y14625
X1180Y15413
X1180Y16200
T04
X11266Y7986
X11266Y6254
T05
X11170Y16400
X12310Y16400
X12150Y18220
X12150Y19220
X12150Y20220
X11150Y20220
X11150Y19220
X11150Y18220
M30
