G75*
%MOIN*%
%OFA0B0*%
%FSLAX25Y25*%
%IPPOS*%
%LPD*%
%AMOC8*
5,1,8,0,0,1.08239X$1,22.5*
%
%ADD10R,0.05000X0.02000*%
%ADD11R,0.02000X0.05000*%
%ADD12R,0.07400X0.07400*%
%ADD13OC8,0.07400*%
%ADD14R,0.04724X0.03150*%
%ADD15R,0.03150X0.04724*%
%ADD16R,0.04724X0.04724*%
%ADD17C,0.04724*%
%ADD18R,0.06299X0.05512*%
%ADD19R,0.01181X0.05512*%
%ADD20C,0.00012*%
%ADD21C,0.07400*%
%ADD22R,0.08300X0.22000*%
%ADD23R,0.03937X0.04331*%
%ADD24R,0.04331X0.03937*%
%ADD25R,0.15748X0.05512*%
%ADD26R,0.09449X0.07874*%
%ADD27R,0.09087X0.01969*%
%ADD28C,0.01378*%
%ADD29C,0.02975*%
%ADD30R,0.02874X0.01102*%
%ADD31R,0.01102X0.02874*%
%ADD32R,0.09843X0.09843*%
%ADD33R,0.18110X0.03937*%
%ADD34R,0.13386X0.06299*%
%ADD35R,0.03937X0.05512*%
%ADD36R,0.03150X0.03150*%
%ADD37R,0.02756X0.17323*%
%ADD38R,0.02362X0.07874*%
%ADD39R,0.01575X0.02953*%
%ADD40R,0.04724X0.02165*%
%ADD41C,0.01600*%
%ADD42C,0.01000*%
%ADD43C,0.01200*%
%ADD44C,0.00600*%
%ADD45C,0.00800*%
%ADD46C,0.02700*%
%ADD47C,0.01400*%
%ADD48C,0.02400*%
%ADD49C,0.03200*%
%ADD50C,0.02000*%
%ADD51C,0.00900*%
%ADD52C,0.04000*%
%ADD53C,0.01100*%
D10*
X0041700Y0125976D03*
X0041700Y0129126D03*
X0041700Y0132276D03*
X0041700Y0135425D03*
X0041700Y0138575D03*
X0041700Y0141724D03*
X0041700Y0144874D03*
X0041700Y0148024D03*
X0075500Y0148024D03*
X0075500Y0144874D03*
X0075500Y0141724D03*
X0075500Y0138575D03*
X0075500Y0135425D03*
X0075500Y0132276D03*
X0075500Y0129126D03*
X0075500Y0125976D03*
D11*
X0069624Y0120100D03*
X0066474Y0120100D03*
X0063324Y0120100D03*
X0060175Y0120100D03*
X0057025Y0120100D03*
X0053876Y0120100D03*
X0050726Y0120100D03*
X0047576Y0120100D03*
X0047576Y0153900D03*
X0050726Y0153900D03*
X0053876Y0153900D03*
X0057025Y0153900D03*
X0060175Y0153900D03*
X0063324Y0153900D03*
X0066474Y0153900D03*
X0069624Y0153900D03*
D12*
X0122700Y0182000D03*
D13*
X0122700Y0192000D03*
X0122700Y0202000D03*
X0112700Y0202000D03*
X0112700Y0192000D03*
X0112700Y0182000D03*
D14*
X0103100Y0163743D03*
X0103100Y0156657D03*
X0093000Y0153257D03*
X0093000Y0160343D03*
X0083000Y0158257D03*
X0083000Y0165343D03*
X0090500Y0117843D03*
X0090500Y0110757D03*
X0101500Y0111257D03*
X0101500Y0118343D03*
X0030500Y0102843D03*
X0030500Y0095757D03*
D15*
X0064457Y0108800D03*
X0071543Y0108800D03*
X0056543Y0171800D03*
X0049457Y0171800D03*
X0093257Y0172600D03*
X0100343Y0172600D03*
D16*
X0013000Y0161800D03*
D17*
X0013000Y0153926D03*
X0013000Y0146052D03*
X0013000Y0138178D03*
X0013000Y0130304D03*
X0013000Y0122430D03*
X0013000Y0114556D03*
X0013000Y0106682D03*
X0013000Y0098808D03*
X0013000Y0090934D03*
D18*
X0014000Y0075512D03*
X0014000Y0064488D03*
X0044000Y0093088D03*
X0044000Y0104112D03*
D19*
X0091063Y0142861D03*
X0093031Y0142861D03*
X0095000Y0142861D03*
X0096969Y0142861D03*
X0098937Y0142861D03*
X0098937Y0125539D03*
X0096969Y0125539D03*
X0095000Y0125539D03*
X0093031Y0125539D03*
D20*
X0090479Y0122789D02*
X0090479Y0128289D01*
X0091647Y0128289D01*
X0091647Y0122789D01*
X0090479Y0122789D01*
X0090479Y0122800D02*
X0091647Y0122800D01*
X0091647Y0122811D02*
X0090479Y0122811D01*
X0090479Y0122822D02*
X0091647Y0122822D01*
X0091647Y0122833D02*
X0090479Y0122833D01*
X0090479Y0122844D02*
X0091647Y0122844D01*
X0091647Y0122855D02*
X0090479Y0122855D01*
X0090479Y0122866D02*
X0091647Y0122866D01*
X0091647Y0122877D02*
X0090479Y0122877D01*
X0090479Y0122888D02*
X0091647Y0122888D01*
X0091647Y0122899D02*
X0090479Y0122899D01*
X0090479Y0122910D02*
X0091647Y0122910D01*
X0091647Y0122921D02*
X0090479Y0122921D01*
X0090479Y0122932D02*
X0091647Y0122932D01*
X0091647Y0122943D02*
X0090479Y0122943D01*
X0090479Y0122954D02*
X0091647Y0122954D01*
X0091647Y0122965D02*
X0090479Y0122965D01*
X0090479Y0122976D02*
X0091647Y0122976D01*
X0091647Y0122987D02*
X0090479Y0122987D01*
X0090479Y0122998D02*
X0091647Y0122998D01*
X0091647Y0123009D02*
X0090479Y0123009D01*
X0090479Y0123020D02*
X0091647Y0123020D01*
X0091647Y0123031D02*
X0090479Y0123031D01*
X0090479Y0123042D02*
X0091647Y0123042D01*
X0091647Y0123053D02*
X0090479Y0123053D01*
X0090479Y0123064D02*
X0091647Y0123064D01*
X0091647Y0123075D02*
X0090479Y0123075D01*
X0090479Y0123086D02*
X0091647Y0123086D01*
X0091647Y0123097D02*
X0090479Y0123097D01*
X0090479Y0123108D02*
X0091647Y0123108D01*
X0091647Y0123119D02*
X0090479Y0123119D01*
X0090479Y0123130D02*
X0091647Y0123130D01*
X0091647Y0123141D02*
X0090479Y0123141D01*
X0090479Y0123152D02*
X0091647Y0123152D01*
X0091647Y0123163D02*
X0090479Y0123163D01*
X0090479Y0123174D02*
X0091647Y0123174D01*
X0091647Y0123185D02*
X0090479Y0123185D01*
X0090479Y0123196D02*
X0091647Y0123196D01*
X0091647Y0123207D02*
X0090479Y0123207D01*
X0090479Y0123218D02*
X0091647Y0123218D01*
X0091647Y0123229D02*
X0090479Y0123229D01*
X0090479Y0123240D02*
X0091647Y0123240D01*
X0091647Y0123251D02*
X0090479Y0123251D01*
X0090479Y0123262D02*
X0091647Y0123262D01*
X0091647Y0123273D02*
X0090479Y0123273D01*
X0090479Y0123284D02*
X0091647Y0123284D01*
X0091647Y0123295D02*
X0090479Y0123295D01*
X0090479Y0123306D02*
X0091647Y0123306D01*
X0091647Y0123317D02*
X0090479Y0123317D01*
X0090479Y0123328D02*
X0091647Y0123328D01*
X0091647Y0123339D02*
X0090479Y0123339D01*
X0090479Y0123350D02*
X0091647Y0123350D01*
X0091647Y0123361D02*
X0090479Y0123361D01*
X0090479Y0123372D02*
X0091647Y0123372D01*
X0091647Y0123383D02*
X0090479Y0123383D01*
X0090479Y0123394D02*
X0091647Y0123394D01*
X0091647Y0123405D02*
X0090479Y0123405D01*
X0090479Y0123416D02*
X0091647Y0123416D01*
X0091647Y0123427D02*
X0090479Y0123427D01*
X0090479Y0123438D02*
X0091647Y0123438D01*
X0091647Y0123449D02*
X0090479Y0123449D01*
X0090479Y0123460D02*
X0091647Y0123460D01*
X0091647Y0123471D02*
X0090479Y0123471D01*
X0090479Y0123482D02*
X0091647Y0123482D01*
X0091647Y0123493D02*
X0090479Y0123493D01*
X0090479Y0123504D02*
X0091647Y0123504D01*
X0091647Y0123515D02*
X0090479Y0123515D01*
X0090479Y0123526D02*
X0091647Y0123526D01*
X0091647Y0123537D02*
X0090479Y0123537D01*
X0090479Y0123548D02*
X0091647Y0123548D01*
X0091647Y0123559D02*
X0090479Y0123559D01*
X0090479Y0123570D02*
X0091647Y0123570D01*
X0091647Y0123581D02*
X0090479Y0123581D01*
X0090479Y0123592D02*
X0091647Y0123592D01*
X0091647Y0123603D02*
X0090479Y0123603D01*
X0090479Y0123614D02*
X0091647Y0123614D01*
X0091647Y0123625D02*
X0090479Y0123625D01*
X0090479Y0123636D02*
X0091647Y0123636D01*
X0091647Y0123647D02*
X0090479Y0123647D01*
X0090479Y0123658D02*
X0091647Y0123658D01*
X0091647Y0123669D02*
X0090479Y0123669D01*
X0090479Y0123680D02*
X0091647Y0123680D01*
X0091647Y0123691D02*
X0090479Y0123691D01*
X0090479Y0123702D02*
X0091647Y0123702D01*
X0091647Y0123713D02*
X0090479Y0123713D01*
X0090479Y0123724D02*
X0091647Y0123724D01*
X0091647Y0123735D02*
X0090479Y0123735D01*
X0090479Y0123746D02*
X0091647Y0123746D01*
X0091647Y0123757D02*
X0090479Y0123757D01*
X0090479Y0123768D02*
X0091647Y0123768D01*
X0091647Y0123779D02*
X0090479Y0123779D01*
X0090479Y0123790D02*
X0091647Y0123790D01*
X0091647Y0123801D02*
X0090479Y0123801D01*
X0090479Y0123812D02*
X0091647Y0123812D01*
X0091647Y0123823D02*
X0090479Y0123823D01*
X0090479Y0123834D02*
X0091647Y0123834D01*
X0091647Y0123845D02*
X0090479Y0123845D01*
X0090479Y0123856D02*
X0091647Y0123856D01*
X0091647Y0123867D02*
X0090479Y0123867D01*
X0090479Y0123878D02*
X0091647Y0123878D01*
X0091647Y0123889D02*
X0090479Y0123889D01*
X0090479Y0123900D02*
X0091647Y0123900D01*
X0091647Y0123911D02*
X0090479Y0123911D01*
X0090479Y0123922D02*
X0091647Y0123922D01*
X0091647Y0123933D02*
X0090479Y0123933D01*
X0090479Y0123944D02*
X0091647Y0123944D01*
X0091647Y0123955D02*
X0090479Y0123955D01*
X0090479Y0123966D02*
X0091647Y0123966D01*
X0091647Y0123977D02*
X0090479Y0123977D01*
X0090479Y0123988D02*
X0091647Y0123988D01*
X0091647Y0123999D02*
X0090479Y0123999D01*
X0090479Y0124010D02*
X0091647Y0124010D01*
X0091647Y0124021D02*
X0090479Y0124021D01*
X0090479Y0124032D02*
X0091647Y0124032D01*
X0091647Y0124043D02*
X0090479Y0124043D01*
X0090479Y0124054D02*
X0091647Y0124054D01*
X0091647Y0124065D02*
X0090479Y0124065D01*
X0090479Y0124076D02*
X0091647Y0124076D01*
X0091647Y0124087D02*
X0090479Y0124087D01*
X0090479Y0124098D02*
X0091647Y0124098D01*
X0091647Y0124109D02*
X0090479Y0124109D01*
X0090479Y0124120D02*
X0091647Y0124120D01*
X0091647Y0124131D02*
X0090479Y0124131D01*
X0090479Y0124142D02*
X0091647Y0124142D01*
X0091647Y0124153D02*
X0090479Y0124153D01*
X0090479Y0124164D02*
X0091647Y0124164D01*
X0091647Y0124175D02*
X0090479Y0124175D01*
X0090479Y0124186D02*
X0091647Y0124186D01*
X0091647Y0124197D02*
X0090479Y0124197D01*
X0090479Y0124208D02*
X0091647Y0124208D01*
X0091647Y0124219D02*
X0090479Y0124219D01*
X0090479Y0124230D02*
X0091647Y0124230D01*
X0091647Y0124241D02*
X0090479Y0124241D01*
X0090479Y0124252D02*
X0091647Y0124252D01*
X0091647Y0124263D02*
X0090479Y0124263D01*
X0090479Y0124274D02*
X0091647Y0124274D01*
X0091647Y0124285D02*
X0090479Y0124285D01*
X0090479Y0124296D02*
X0091647Y0124296D01*
X0091647Y0124307D02*
X0090479Y0124307D01*
X0090479Y0124318D02*
X0091647Y0124318D01*
X0091647Y0124329D02*
X0090479Y0124329D01*
X0090479Y0124340D02*
X0091647Y0124340D01*
X0091647Y0124351D02*
X0090479Y0124351D01*
X0090479Y0124362D02*
X0091647Y0124362D01*
X0091647Y0124373D02*
X0090479Y0124373D01*
X0090479Y0124384D02*
X0091647Y0124384D01*
X0091647Y0124395D02*
X0090479Y0124395D01*
X0090479Y0124406D02*
X0091647Y0124406D01*
X0091647Y0124417D02*
X0090479Y0124417D01*
X0090479Y0124428D02*
X0091647Y0124428D01*
X0091647Y0124439D02*
X0090479Y0124439D01*
X0090479Y0124450D02*
X0091647Y0124450D01*
X0091647Y0124461D02*
X0090479Y0124461D01*
X0090479Y0124472D02*
X0091647Y0124472D01*
X0091647Y0124483D02*
X0090479Y0124483D01*
X0090479Y0124494D02*
X0091647Y0124494D01*
X0091647Y0124505D02*
X0090479Y0124505D01*
X0090479Y0124516D02*
X0091647Y0124516D01*
X0091647Y0124527D02*
X0090479Y0124527D01*
X0090479Y0124538D02*
X0091647Y0124538D01*
X0091647Y0124549D02*
X0090479Y0124549D01*
X0090479Y0124560D02*
X0091647Y0124560D01*
X0091647Y0124571D02*
X0090479Y0124571D01*
X0090479Y0124582D02*
X0091647Y0124582D01*
X0091647Y0124593D02*
X0090479Y0124593D01*
X0090479Y0124604D02*
X0091647Y0124604D01*
X0091647Y0124615D02*
X0090479Y0124615D01*
X0090479Y0124626D02*
X0091647Y0124626D01*
X0091647Y0124637D02*
X0090479Y0124637D01*
X0090479Y0124648D02*
X0091647Y0124648D01*
X0091647Y0124659D02*
X0090479Y0124659D01*
X0090479Y0124670D02*
X0091647Y0124670D01*
X0091647Y0124681D02*
X0090479Y0124681D01*
X0090479Y0124692D02*
X0091647Y0124692D01*
X0091647Y0124703D02*
X0090479Y0124703D01*
X0090479Y0124714D02*
X0091647Y0124714D01*
X0091647Y0124725D02*
X0090479Y0124725D01*
X0090479Y0124736D02*
X0091647Y0124736D01*
X0091647Y0124747D02*
X0090479Y0124747D01*
X0090479Y0124758D02*
X0091647Y0124758D01*
X0091647Y0124769D02*
X0090479Y0124769D01*
X0090479Y0124780D02*
X0091647Y0124780D01*
X0091647Y0124791D02*
X0090479Y0124791D01*
X0090479Y0124802D02*
X0091647Y0124802D01*
X0091647Y0124813D02*
X0090479Y0124813D01*
X0090479Y0124824D02*
X0091647Y0124824D01*
X0091647Y0124835D02*
X0090479Y0124835D01*
X0090479Y0124846D02*
X0091647Y0124846D01*
X0091647Y0124857D02*
X0090479Y0124857D01*
X0090479Y0124868D02*
X0091647Y0124868D01*
X0091647Y0124879D02*
X0090479Y0124879D01*
X0090479Y0124890D02*
X0091647Y0124890D01*
X0091647Y0124901D02*
X0090479Y0124901D01*
X0090479Y0124912D02*
X0091647Y0124912D01*
X0091647Y0124923D02*
X0090479Y0124923D01*
X0090479Y0124934D02*
X0091647Y0124934D01*
X0091647Y0124945D02*
X0090479Y0124945D01*
X0090479Y0124956D02*
X0091647Y0124956D01*
X0091647Y0124967D02*
X0090479Y0124967D01*
X0090479Y0124978D02*
X0091647Y0124978D01*
X0091647Y0124989D02*
X0090479Y0124989D01*
X0090479Y0125000D02*
X0091647Y0125000D01*
X0091647Y0125011D02*
X0090479Y0125011D01*
X0090479Y0125022D02*
X0091647Y0125022D01*
X0091647Y0125033D02*
X0090479Y0125033D01*
X0090479Y0125044D02*
X0091647Y0125044D01*
X0091647Y0125055D02*
X0090479Y0125055D01*
X0090479Y0125066D02*
X0091647Y0125066D01*
X0091647Y0125077D02*
X0090479Y0125077D01*
X0090479Y0125088D02*
X0091647Y0125088D01*
X0091647Y0125099D02*
X0090479Y0125099D01*
X0090479Y0125110D02*
X0091647Y0125110D01*
X0091647Y0125121D02*
X0090479Y0125121D01*
X0090479Y0125132D02*
X0091647Y0125132D01*
X0091647Y0125143D02*
X0090479Y0125143D01*
X0090479Y0125154D02*
X0091647Y0125154D01*
X0091647Y0125165D02*
X0090479Y0125165D01*
X0090479Y0125176D02*
X0091647Y0125176D01*
X0091647Y0125187D02*
X0090479Y0125187D01*
X0090479Y0125198D02*
X0091647Y0125198D01*
X0091647Y0125209D02*
X0090479Y0125209D01*
X0090479Y0125220D02*
X0091647Y0125220D01*
X0091647Y0125231D02*
X0090479Y0125231D01*
X0090479Y0125242D02*
X0091647Y0125242D01*
X0091647Y0125253D02*
X0090479Y0125253D01*
X0090479Y0125264D02*
X0091647Y0125264D01*
X0091647Y0125275D02*
X0090479Y0125275D01*
X0090479Y0125286D02*
X0091647Y0125286D01*
X0091647Y0125297D02*
X0090479Y0125297D01*
X0090479Y0125308D02*
X0091647Y0125308D01*
X0091647Y0125319D02*
X0090479Y0125319D01*
X0090479Y0125330D02*
X0091647Y0125330D01*
X0091647Y0125341D02*
X0090479Y0125341D01*
X0090479Y0125352D02*
X0091647Y0125352D01*
X0091647Y0125363D02*
X0090479Y0125363D01*
X0090479Y0125374D02*
X0091647Y0125374D01*
X0091647Y0125385D02*
X0090479Y0125385D01*
X0090479Y0125396D02*
X0091647Y0125396D01*
X0091647Y0125407D02*
X0090479Y0125407D01*
X0090479Y0125418D02*
X0091647Y0125418D01*
X0091647Y0125429D02*
X0090479Y0125429D01*
X0090479Y0125440D02*
X0091647Y0125440D01*
X0091647Y0125451D02*
X0090479Y0125451D01*
X0090479Y0125462D02*
X0091647Y0125462D01*
X0091647Y0125473D02*
X0090479Y0125473D01*
X0090479Y0125484D02*
X0091647Y0125484D01*
X0091647Y0125495D02*
X0090479Y0125495D01*
X0090479Y0125506D02*
X0091647Y0125506D01*
X0091647Y0125517D02*
X0090479Y0125517D01*
X0090479Y0125528D02*
X0091647Y0125528D01*
X0091647Y0125539D02*
X0090479Y0125539D01*
X0090479Y0125550D02*
X0091647Y0125550D01*
X0091647Y0125561D02*
X0090479Y0125561D01*
X0090479Y0125572D02*
X0091647Y0125572D01*
X0091647Y0125583D02*
X0090479Y0125583D01*
X0090479Y0125594D02*
X0091647Y0125594D01*
X0091647Y0125605D02*
X0090479Y0125605D01*
X0090479Y0125616D02*
X0091647Y0125616D01*
X0091647Y0125627D02*
X0090479Y0125627D01*
X0090479Y0125638D02*
X0091647Y0125638D01*
X0091647Y0125649D02*
X0090479Y0125649D01*
X0090479Y0125660D02*
X0091647Y0125660D01*
X0091647Y0125671D02*
X0090479Y0125671D01*
X0090479Y0125682D02*
X0091647Y0125682D01*
X0091647Y0125693D02*
X0090479Y0125693D01*
X0090479Y0125704D02*
X0091647Y0125704D01*
X0091647Y0125715D02*
X0090479Y0125715D01*
X0090479Y0125726D02*
X0091647Y0125726D01*
X0091647Y0125737D02*
X0090479Y0125737D01*
X0090479Y0125748D02*
X0091647Y0125748D01*
X0091647Y0125759D02*
X0090479Y0125759D01*
X0090479Y0125770D02*
X0091647Y0125770D01*
X0091647Y0125781D02*
X0090479Y0125781D01*
X0090479Y0125792D02*
X0091647Y0125792D01*
X0091647Y0125803D02*
X0090479Y0125803D01*
X0090479Y0125814D02*
X0091647Y0125814D01*
X0091647Y0125825D02*
X0090479Y0125825D01*
X0090479Y0125836D02*
X0091647Y0125836D01*
X0091647Y0125847D02*
X0090479Y0125847D01*
X0090479Y0125858D02*
X0091647Y0125858D01*
X0091647Y0125869D02*
X0090479Y0125869D01*
X0090479Y0125880D02*
X0091647Y0125880D01*
X0091647Y0125891D02*
X0090479Y0125891D01*
X0090479Y0125902D02*
X0091647Y0125902D01*
X0091647Y0125913D02*
X0090479Y0125913D01*
X0090479Y0125924D02*
X0091647Y0125924D01*
X0091647Y0125935D02*
X0090479Y0125935D01*
X0090479Y0125946D02*
X0091647Y0125946D01*
X0091647Y0125957D02*
X0090479Y0125957D01*
X0090479Y0125968D02*
X0091647Y0125968D01*
X0091647Y0125979D02*
X0090479Y0125979D01*
X0090479Y0125990D02*
X0091647Y0125990D01*
X0091647Y0126001D02*
X0090479Y0126001D01*
X0090479Y0126012D02*
X0091647Y0126012D01*
X0091647Y0126023D02*
X0090479Y0126023D01*
X0090479Y0126034D02*
X0091647Y0126034D01*
X0091647Y0126045D02*
X0090479Y0126045D01*
X0090479Y0126056D02*
X0091647Y0126056D01*
X0091647Y0126067D02*
X0090479Y0126067D01*
X0090479Y0126078D02*
X0091647Y0126078D01*
X0091647Y0126089D02*
X0090479Y0126089D01*
X0090479Y0126100D02*
X0091647Y0126100D01*
X0091647Y0126111D02*
X0090479Y0126111D01*
X0090479Y0126122D02*
X0091647Y0126122D01*
X0091647Y0126133D02*
X0090479Y0126133D01*
X0090479Y0126144D02*
X0091647Y0126144D01*
X0091647Y0126155D02*
X0090479Y0126155D01*
X0090479Y0126166D02*
X0091647Y0126166D01*
X0091647Y0126177D02*
X0090479Y0126177D01*
X0090479Y0126188D02*
X0091647Y0126188D01*
X0091647Y0126199D02*
X0090479Y0126199D01*
X0090479Y0126210D02*
X0091647Y0126210D01*
X0091647Y0126221D02*
X0090479Y0126221D01*
X0090479Y0126232D02*
X0091647Y0126232D01*
X0091647Y0126243D02*
X0090479Y0126243D01*
X0090479Y0126254D02*
X0091647Y0126254D01*
X0091647Y0126265D02*
X0090479Y0126265D01*
X0090479Y0126276D02*
X0091647Y0126276D01*
X0091647Y0126287D02*
X0090479Y0126287D01*
X0090479Y0126298D02*
X0091647Y0126298D01*
X0091647Y0126309D02*
X0090479Y0126309D01*
X0090479Y0126320D02*
X0091647Y0126320D01*
X0091647Y0126331D02*
X0090479Y0126331D01*
X0090479Y0126342D02*
X0091647Y0126342D01*
X0091647Y0126353D02*
X0090479Y0126353D01*
X0090479Y0126364D02*
X0091647Y0126364D01*
X0091647Y0126375D02*
X0090479Y0126375D01*
X0090479Y0126386D02*
X0091647Y0126386D01*
X0091647Y0126397D02*
X0090479Y0126397D01*
X0090479Y0126408D02*
X0091647Y0126408D01*
X0091647Y0126419D02*
X0090479Y0126419D01*
X0090479Y0126430D02*
X0091647Y0126430D01*
X0091647Y0126441D02*
X0090479Y0126441D01*
X0090479Y0126452D02*
X0091647Y0126452D01*
X0091647Y0126463D02*
X0090479Y0126463D01*
X0090479Y0126474D02*
X0091647Y0126474D01*
X0091647Y0126485D02*
X0090479Y0126485D01*
X0090479Y0126496D02*
X0091647Y0126496D01*
X0091647Y0126507D02*
X0090479Y0126507D01*
X0090479Y0126518D02*
X0091647Y0126518D01*
X0091647Y0126529D02*
X0090479Y0126529D01*
X0090479Y0126540D02*
X0091647Y0126540D01*
X0091647Y0126551D02*
X0090479Y0126551D01*
X0090479Y0126562D02*
X0091647Y0126562D01*
X0091647Y0126573D02*
X0090479Y0126573D01*
X0090479Y0126584D02*
X0091647Y0126584D01*
X0091647Y0126595D02*
X0090479Y0126595D01*
X0090479Y0126606D02*
X0091647Y0126606D01*
X0091647Y0126617D02*
X0090479Y0126617D01*
X0090479Y0126628D02*
X0091647Y0126628D01*
X0091647Y0126639D02*
X0090479Y0126639D01*
X0090479Y0126650D02*
X0091647Y0126650D01*
X0091647Y0126661D02*
X0090479Y0126661D01*
X0090479Y0126672D02*
X0091647Y0126672D01*
X0091647Y0126683D02*
X0090479Y0126683D01*
X0090479Y0126694D02*
X0091647Y0126694D01*
X0091647Y0126705D02*
X0090479Y0126705D01*
X0090479Y0126716D02*
X0091647Y0126716D01*
X0091647Y0126727D02*
X0090479Y0126727D01*
X0090479Y0126738D02*
X0091647Y0126738D01*
X0091647Y0126749D02*
X0090479Y0126749D01*
X0090479Y0126760D02*
X0091647Y0126760D01*
X0091647Y0126771D02*
X0090479Y0126771D01*
X0090479Y0126782D02*
X0091647Y0126782D01*
X0091647Y0126793D02*
X0090479Y0126793D01*
X0090479Y0126804D02*
X0091647Y0126804D01*
X0091647Y0126815D02*
X0090479Y0126815D01*
X0090479Y0126826D02*
X0091647Y0126826D01*
X0091647Y0126837D02*
X0090479Y0126837D01*
X0090479Y0126848D02*
X0091647Y0126848D01*
X0091647Y0126859D02*
X0090479Y0126859D01*
X0090479Y0126870D02*
X0091647Y0126870D01*
X0091647Y0126881D02*
X0090479Y0126881D01*
X0090479Y0126892D02*
X0091647Y0126892D01*
X0091647Y0126903D02*
X0090479Y0126903D01*
X0090479Y0126914D02*
X0091647Y0126914D01*
X0091647Y0126925D02*
X0090479Y0126925D01*
X0090479Y0126936D02*
X0091647Y0126936D01*
X0091647Y0126947D02*
X0090479Y0126947D01*
X0090479Y0126958D02*
X0091647Y0126958D01*
X0091647Y0126969D02*
X0090479Y0126969D01*
X0090479Y0126980D02*
X0091647Y0126980D01*
X0091647Y0126991D02*
X0090479Y0126991D01*
X0090479Y0127002D02*
X0091647Y0127002D01*
X0091647Y0127013D02*
X0090479Y0127013D01*
X0090479Y0127024D02*
X0091647Y0127024D01*
X0091647Y0127035D02*
X0090479Y0127035D01*
X0090479Y0127046D02*
X0091647Y0127046D01*
X0091647Y0127057D02*
X0090479Y0127057D01*
X0090479Y0127068D02*
X0091647Y0127068D01*
X0091647Y0127079D02*
X0090479Y0127079D01*
X0090479Y0127090D02*
X0091647Y0127090D01*
X0091647Y0127101D02*
X0090479Y0127101D01*
X0090479Y0127112D02*
X0091647Y0127112D01*
X0091647Y0127123D02*
X0090479Y0127123D01*
X0090479Y0127134D02*
X0091647Y0127134D01*
X0091647Y0127145D02*
X0090479Y0127145D01*
X0090479Y0127156D02*
X0091647Y0127156D01*
X0091647Y0127167D02*
X0090479Y0127167D01*
X0090479Y0127178D02*
X0091647Y0127178D01*
X0091647Y0127189D02*
X0090479Y0127189D01*
X0090479Y0127200D02*
X0091647Y0127200D01*
X0091647Y0127211D02*
X0090479Y0127211D01*
X0090479Y0127222D02*
X0091647Y0127222D01*
X0091647Y0127233D02*
X0090479Y0127233D01*
X0090479Y0127244D02*
X0091647Y0127244D01*
X0091647Y0127255D02*
X0090479Y0127255D01*
X0090479Y0127266D02*
X0091647Y0127266D01*
X0091647Y0127277D02*
X0090479Y0127277D01*
X0090479Y0127288D02*
X0091647Y0127288D01*
X0091647Y0127299D02*
X0090479Y0127299D01*
X0090479Y0127310D02*
X0091647Y0127310D01*
X0091647Y0127321D02*
X0090479Y0127321D01*
X0090479Y0127332D02*
X0091647Y0127332D01*
X0091647Y0127343D02*
X0090479Y0127343D01*
X0090479Y0127354D02*
X0091647Y0127354D01*
X0091647Y0127365D02*
X0090479Y0127365D01*
X0090479Y0127376D02*
X0091647Y0127376D01*
X0091647Y0127387D02*
X0090479Y0127387D01*
X0090479Y0127398D02*
X0091647Y0127398D01*
X0091647Y0127409D02*
X0090479Y0127409D01*
X0090479Y0127420D02*
X0091647Y0127420D01*
X0091647Y0127431D02*
X0090479Y0127431D01*
X0090479Y0127442D02*
X0091647Y0127442D01*
X0091647Y0127453D02*
X0090479Y0127453D01*
X0090479Y0127464D02*
X0091647Y0127464D01*
X0091647Y0127475D02*
X0090479Y0127475D01*
X0090479Y0127486D02*
X0091647Y0127486D01*
X0091647Y0127497D02*
X0090479Y0127497D01*
X0090479Y0127508D02*
X0091647Y0127508D01*
X0091647Y0127519D02*
X0090479Y0127519D01*
X0090479Y0127530D02*
X0091647Y0127530D01*
X0091647Y0127541D02*
X0090479Y0127541D01*
X0090479Y0127552D02*
X0091647Y0127552D01*
X0091647Y0127563D02*
X0090479Y0127563D01*
X0090479Y0127574D02*
X0091647Y0127574D01*
X0091647Y0127585D02*
X0090479Y0127585D01*
X0090479Y0127596D02*
X0091647Y0127596D01*
X0091647Y0127607D02*
X0090479Y0127607D01*
X0090479Y0127618D02*
X0091647Y0127618D01*
X0091647Y0127629D02*
X0090479Y0127629D01*
X0090479Y0127640D02*
X0091647Y0127640D01*
X0091647Y0127651D02*
X0090479Y0127651D01*
X0090479Y0127662D02*
X0091647Y0127662D01*
X0091647Y0127673D02*
X0090479Y0127673D01*
X0090479Y0127684D02*
X0091647Y0127684D01*
X0091647Y0127695D02*
X0090479Y0127695D01*
X0090479Y0127706D02*
X0091647Y0127706D01*
X0091647Y0127717D02*
X0090479Y0127717D01*
X0090479Y0127728D02*
X0091647Y0127728D01*
X0091647Y0127739D02*
X0090479Y0127739D01*
X0090479Y0127750D02*
X0091647Y0127750D01*
X0091647Y0127761D02*
X0090479Y0127761D01*
X0090479Y0127772D02*
X0091647Y0127772D01*
X0091647Y0127783D02*
X0090479Y0127783D01*
X0090479Y0127794D02*
X0091647Y0127794D01*
X0091647Y0127805D02*
X0090479Y0127805D01*
X0090479Y0127816D02*
X0091647Y0127816D01*
X0091647Y0127827D02*
X0090479Y0127827D01*
X0090479Y0127838D02*
X0091647Y0127838D01*
X0091647Y0127849D02*
X0090479Y0127849D01*
X0090479Y0127860D02*
X0091647Y0127860D01*
X0091647Y0127871D02*
X0090479Y0127871D01*
X0090479Y0127882D02*
X0091647Y0127882D01*
X0091647Y0127893D02*
X0090479Y0127893D01*
X0090479Y0127904D02*
X0091647Y0127904D01*
X0091647Y0127915D02*
X0090479Y0127915D01*
X0090479Y0127926D02*
X0091647Y0127926D01*
X0091647Y0127937D02*
X0090479Y0127937D01*
X0090479Y0127948D02*
X0091647Y0127948D01*
X0091647Y0127959D02*
X0090479Y0127959D01*
X0090479Y0127970D02*
X0091647Y0127970D01*
X0091647Y0127981D02*
X0090479Y0127981D01*
X0090479Y0127992D02*
X0091647Y0127992D01*
X0091647Y0128003D02*
X0090479Y0128003D01*
X0090479Y0128014D02*
X0091647Y0128014D01*
X0091647Y0128025D02*
X0090479Y0128025D01*
X0090479Y0128036D02*
X0091647Y0128036D01*
X0091647Y0128047D02*
X0090479Y0128047D01*
X0090479Y0128058D02*
X0091647Y0128058D01*
X0091647Y0128069D02*
X0090479Y0128069D01*
X0090479Y0128080D02*
X0091647Y0128080D01*
X0091647Y0128091D02*
X0090479Y0128091D01*
X0090479Y0128102D02*
X0091647Y0128102D01*
X0091647Y0128113D02*
X0090479Y0128113D01*
X0090479Y0128124D02*
X0091647Y0128124D01*
X0091647Y0128135D02*
X0090479Y0128135D01*
X0090479Y0128146D02*
X0091647Y0128146D01*
X0091647Y0128157D02*
X0090479Y0128157D01*
X0090479Y0128168D02*
X0091647Y0128168D01*
X0091647Y0128179D02*
X0090479Y0128179D01*
X0090479Y0128190D02*
X0091647Y0128190D01*
X0091647Y0128201D02*
X0090479Y0128201D01*
X0090479Y0128212D02*
X0091647Y0128212D01*
X0091647Y0128223D02*
X0090479Y0128223D01*
X0090479Y0128234D02*
X0091647Y0128234D01*
X0091647Y0128245D02*
X0090479Y0128245D01*
X0090479Y0128256D02*
X0091647Y0128256D01*
X0091647Y0128267D02*
X0090479Y0128267D01*
X0090479Y0128278D02*
X0091647Y0128278D01*
X0091647Y0128289D02*
X0090479Y0128289D01*
D21*
X0112900Y0163800D03*
X0124300Y0163800D03*
D22*
X0120600Y0145500D03*
X0120600Y0108100D03*
D23*
X0092200Y0081946D03*
X0092200Y0075254D03*
X0084000Y0077954D03*
X0084000Y0084646D03*
X0089000Y0056146D03*
X0089000Y0049454D03*
X0057200Y0090454D03*
X0057200Y0097146D03*
D24*
X0061654Y0082400D03*
X0061746Y0073200D03*
X0068346Y0082400D03*
X0069654Y0091800D03*
X0076346Y0091800D03*
X0079654Y0101800D03*
X0086346Y0101800D03*
X0084654Y0091800D03*
X0091346Y0091800D03*
X0082346Y0044400D03*
X0075654Y0044400D03*
X0076346Y0036800D03*
X0073654Y0028700D03*
X0069654Y0036800D03*
X0080346Y0028700D03*
X0079654Y0017800D03*
X0079154Y0011800D03*
X0085846Y0011800D03*
X0086346Y0017800D03*
X0055054Y0073200D03*
X0031346Y0046800D03*
X0024654Y0046800D03*
X0032654Y0029400D03*
X0032654Y0021800D03*
X0039346Y0021800D03*
X0039346Y0029400D03*
X0024746Y0017200D03*
X0018054Y0017200D03*
D25*
X0035200Y0056113D03*
X0035200Y0070287D03*
D26*
X0104020Y0053677D03*
X0125674Y0053677D03*
X0125674Y0088323D03*
X0104020Y0088323D03*
D27*
X0101800Y0077299D03*
X0101800Y0074150D03*
X0101800Y0071000D03*
X0101800Y0067850D03*
X0101800Y0064701D03*
D28*
X0067646Y0058239D02*
X0064890Y0058239D01*
X0064890Y0055680D02*
X0067646Y0055680D01*
X0067646Y0053120D02*
X0064890Y0053120D01*
X0064890Y0050561D02*
X0067646Y0050561D01*
X0061839Y0047510D02*
X0061839Y0044754D01*
X0059280Y0044754D02*
X0059280Y0047510D01*
X0056720Y0047510D02*
X0056720Y0044754D01*
X0054161Y0044754D02*
X0054161Y0047510D01*
X0051110Y0050561D02*
X0048354Y0050561D01*
X0048354Y0053120D02*
X0051110Y0053120D01*
X0051110Y0055680D02*
X0048354Y0055680D01*
X0048354Y0058239D02*
X0051110Y0058239D01*
X0054161Y0061290D02*
X0054161Y0064046D01*
X0056720Y0064046D02*
X0056720Y0061290D01*
X0059280Y0061290D02*
X0059280Y0064046D01*
X0061839Y0064046D02*
X0061839Y0061290D01*
D29*
X0061543Y0057943D03*
X0058000Y0054400D03*
X0061543Y0050857D03*
X0054457Y0050857D03*
X0054457Y0057943D03*
D30*
X0052064Y0027937D03*
X0052064Y0025969D03*
X0052064Y0024000D03*
X0052064Y0022031D03*
X0052064Y0020063D03*
X0067536Y0020063D03*
X0067536Y0022031D03*
X0067536Y0024000D03*
X0067536Y0025969D03*
X0067536Y0027937D03*
D31*
X0063737Y0031736D03*
X0061769Y0031736D03*
X0059800Y0031736D03*
X0057831Y0031736D03*
X0055863Y0031736D03*
X0055863Y0016264D03*
X0057831Y0016264D03*
X0059800Y0016264D03*
X0061769Y0016264D03*
X0063737Y0016264D03*
D32*
X0059800Y0024000D03*
D33*
X0102833Y0025137D03*
X0102833Y0017263D03*
D34*
X0123306Y0007814D03*
X0123306Y0034586D03*
D35*
X0081940Y0061876D03*
X0074460Y0061876D03*
X0078200Y0071324D03*
D36*
X0098647Y0099000D03*
X0104553Y0099000D03*
X0090753Y0037800D03*
X0084847Y0037800D03*
X0021000Y0035847D03*
X0021000Y0041753D03*
D37*
X0015067Y0195087D03*
X0089870Y0195087D03*
D38*
X0085933Y0186426D03*
X0081996Y0186426D03*
X0078059Y0186426D03*
X0074122Y0186426D03*
X0070185Y0186426D03*
X0066248Y0186426D03*
X0062311Y0186426D03*
X0058374Y0186426D03*
X0054437Y0186426D03*
X0050500Y0186426D03*
X0046563Y0186426D03*
X0042626Y0186426D03*
X0038689Y0186426D03*
X0034752Y0186426D03*
X0030815Y0186426D03*
X0026878Y0186426D03*
X0022941Y0186426D03*
X0019004Y0186426D03*
D39*
X0065441Y0175048D03*
X0065441Y0168552D03*
X0068000Y0168552D03*
X0070559Y0168552D03*
X0070559Y0175048D03*
D40*
X0038119Y0175540D03*
X0038119Y0171800D03*
X0038119Y0168060D03*
X0027881Y0168060D03*
X0027881Y0175540D03*
D41*
X0006200Y0101883D02*
X0006200Y0005000D01*
X0041002Y0005000D01*
X0041000Y0005004D01*
X0041000Y0013200D01*
X0028274Y0013200D01*
X0028271Y0013197D01*
X0027389Y0012831D01*
X0022104Y0012831D01*
X0021222Y0013197D01*
X0020875Y0013544D01*
X0020456Y0013431D01*
X0018238Y0013431D01*
X0018238Y0017016D01*
X0017869Y0017016D01*
X0014088Y0017016D01*
X0014088Y0014995D01*
X0014211Y0014537D01*
X0014448Y0014126D01*
X0014783Y0013791D01*
X0015193Y0013554D01*
X0015651Y0013431D01*
X0017869Y0013431D01*
X0017869Y0017016D01*
X0017869Y0017384D01*
X0014088Y0017384D01*
X0014088Y0019405D01*
X0014211Y0019863D01*
X0014448Y0020274D01*
X0014783Y0020609D01*
X0015193Y0020846D01*
X0015651Y0020968D01*
X0017869Y0020968D01*
X0017869Y0017384D01*
X0018238Y0017384D01*
X0018238Y0020968D01*
X0020456Y0020968D01*
X0020875Y0020856D01*
X0021222Y0021203D01*
X0022104Y0021568D01*
X0027389Y0021568D01*
X0028271Y0021203D01*
X0028274Y0021200D01*
X0028688Y0021200D01*
X0028688Y0021616D01*
X0032469Y0021616D01*
X0032469Y0021984D01*
X0028688Y0021984D01*
X0028688Y0024005D01*
X0028811Y0024463D01*
X0029048Y0024874D01*
X0029383Y0025209D01*
X0029793Y0025446D01*
X0030251Y0025568D01*
X0032469Y0025568D01*
X0032469Y0021984D01*
X0032838Y0021984D01*
X0032838Y0025568D01*
X0035056Y0025568D01*
X0035475Y0025456D01*
X0035618Y0025600D01*
X0035475Y0025744D01*
X0035056Y0025631D01*
X0032838Y0025631D01*
X0032838Y0029216D01*
X0032469Y0029216D01*
X0028688Y0029216D01*
X0028688Y0027195D01*
X0028811Y0026737D01*
X0029048Y0026326D01*
X0029383Y0025991D01*
X0029793Y0025754D01*
X0030251Y0025631D01*
X0032469Y0025631D01*
X0032469Y0029216D01*
X0032469Y0029584D01*
X0028688Y0029584D01*
X0028688Y0029737D01*
X0027875Y0029400D01*
X0020125Y0029400D01*
X0018508Y0030070D01*
X0017270Y0031308D01*
X0016600Y0032925D01*
X0016600Y0036722D01*
X0017025Y0037749D01*
X0017025Y0037899D01*
X0017391Y0038782D01*
X0017409Y0038800D01*
X0017391Y0038818D01*
X0017025Y0039701D01*
X0017025Y0043805D01*
X0017391Y0044687D01*
X0018066Y0045362D01*
X0018948Y0045728D01*
X0020088Y0045728D01*
X0020088Y0049246D01*
X0020454Y0050128D01*
X0021129Y0050803D01*
X0022011Y0051168D01*
X0026339Y0051168D01*
X0025966Y0051323D01*
X0025291Y0051998D01*
X0024926Y0052880D01*
X0024926Y0059347D01*
X0025291Y0060229D01*
X0025966Y0060904D01*
X0026849Y0061269D01*
X0043551Y0061269D01*
X0044434Y0060904D01*
X0045109Y0060229D01*
X0045472Y0059352D01*
X0045736Y0059988D01*
X0046605Y0060857D01*
X0047740Y0061328D01*
X0048435Y0061328D01*
X0050561Y0063540D01*
X0050561Y0070577D01*
X0050488Y0070754D01*
X0050488Y0075646D01*
X0050854Y0076528D01*
X0051529Y0077203D01*
X0051854Y0077338D01*
X0051854Y0084095D01*
X0051746Y0084050D01*
X0050254Y0084050D01*
X0048876Y0084621D01*
X0047821Y0085676D01*
X0047671Y0086038D01*
X0045777Y0087932D01*
X0040373Y0087932D01*
X0039491Y0088298D01*
X0039363Y0088426D01*
X0039363Y0086295D01*
X0043988Y0086176D01*
X0045587Y0085465D01*
X0046793Y0084196D01*
X0047421Y0082562D01*
X0047376Y0080812D01*
X0046665Y0079213D01*
X0045396Y0078007D01*
X0043762Y0077379D01*
X0039363Y0077492D01*
X0039363Y0075443D01*
X0043551Y0075443D01*
X0044434Y0075077D01*
X0045109Y0074402D01*
X0045474Y0073520D01*
X0045474Y0067053D01*
X0045109Y0066171D01*
X0044434Y0065496D01*
X0043551Y0065131D01*
X0026849Y0065131D01*
X0025966Y0065496D01*
X0025291Y0066171D01*
X0024926Y0067053D01*
X0024926Y0073520D01*
X0025291Y0074402D01*
X0025966Y0075077D01*
X0026849Y0075443D01*
X0031363Y0075443D01*
X0031363Y0079719D01*
X0030779Y0081238D01*
X0030824Y0082988D01*
X0031363Y0084200D01*
X0031363Y0092382D01*
X0030500Y0092382D01*
X0030500Y0095757D01*
X0030500Y0095757D01*
X0030500Y0092382D01*
X0027901Y0092382D01*
X0027443Y0092505D01*
X0027071Y0092719D01*
X0027071Y0089957D01*
X0027133Y0089380D01*
X0027071Y0089168D01*
X0027071Y0088947D01*
X0026848Y0088410D01*
X0026685Y0087853D01*
X0026546Y0087681D01*
X0026462Y0087477D01*
X0026051Y0087066D01*
X0025687Y0086614D01*
X0025493Y0086508D01*
X0025337Y0086352D01*
X0024800Y0086130D01*
X0018257Y0082556D01*
X0018257Y0080407D01*
X0018509Y0080302D01*
X0019184Y0079627D01*
X0019550Y0078745D01*
X0019550Y0072279D01*
X0019184Y0071396D01*
X0018509Y0070721D01*
X0017627Y0070356D01*
X0010373Y0070356D01*
X0009491Y0070721D01*
X0008816Y0071396D01*
X0008450Y0072279D01*
X0008450Y0078745D01*
X0008816Y0079627D01*
X0009491Y0080302D01*
X0010257Y0080620D01*
X0010257Y0084714D01*
X0010195Y0085292D01*
X0010257Y0085504D01*
X0010257Y0085724D01*
X0010479Y0086261D01*
X0010643Y0086819D01*
X0010781Y0086991D01*
X0010866Y0087195D01*
X0010969Y0087298D01*
X0010819Y0087374D01*
X0010288Y0087759D01*
X0009825Y0088222D01*
X0009440Y0088752D01*
X0009143Y0089336D01*
X0008940Y0089959D01*
X0008838Y0090606D01*
X0008838Y0090934D01*
X0013000Y0090934D01*
X0013000Y0090934D01*
X0008838Y0090934D01*
X0008838Y0091261D01*
X0008940Y0091909D01*
X0009143Y0092532D01*
X0009440Y0093115D01*
X0009825Y0093645D01*
X0010288Y0094109D01*
X0010819Y0094494D01*
X0010887Y0094529D01*
X0010302Y0094771D01*
X0008963Y0096110D01*
X0008238Y0097861D01*
X0008238Y0099189D01*
X0006200Y0101883D01*
X0006200Y0100908D02*
X0006938Y0100908D01*
X0006200Y0099309D02*
X0008147Y0099309D01*
X0008300Y0097711D02*
X0006200Y0097711D01*
X0006200Y0096112D02*
X0008962Y0096112D01*
X0010858Y0094514D02*
X0006200Y0094514D01*
X0006200Y0092915D02*
X0009338Y0092915D01*
X0008847Y0091317D02*
X0006200Y0091317D01*
X0006200Y0089718D02*
X0009019Y0089718D01*
X0009928Y0088120D02*
X0006200Y0088120D01*
X0006200Y0086521D02*
X0010555Y0086521D01*
X0010234Y0084923D02*
X0006200Y0084923D01*
X0006200Y0083324D02*
X0010257Y0083324D01*
X0010257Y0081726D02*
X0006200Y0081726D01*
X0006200Y0080127D02*
X0009316Y0080127D01*
X0008450Y0078529D02*
X0006200Y0078529D01*
X0006200Y0076930D02*
X0008450Y0076930D01*
X0008450Y0075332D02*
X0006200Y0075332D01*
X0006200Y0073733D02*
X0008450Y0073733D01*
X0008510Y0072134D02*
X0006200Y0072134D01*
X0006200Y0070536D02*
X0009938Y0070536D01*
X0010216Y0068937D02*
X0006200Y0068937D01*
X0006200Y0067339D02*
X0009050Y0067339D01*
X0009050Y0067481D02*
X0009050Y0065066D01*
X0013422Y0065066D01*
X0013422Y0063910D01*
X0014578Y0063910D01*
X0014578Y0059932D01*
X0017387Y0059932D01*
X0017844Y0060055D01*
X0018255Y0060292D01*
X0018590Y0060627D01*
X0018827Y0061037D01*
X0018950Y0061495D01*
X0018950Y0063910D01*
X0014578Y0063910D01*
X0014578Y0065066D01*
X0018950Y0065066D01*
X0018950Y0067481D01*
X0018827Y0067939D01*
X0018590Y0068349D01*
X0018255Y0068684D01*
X0017844Y0068921D01*
X0017387Y0069044D01*
X0014578Y0069044D01*
X0014578Y0065066D01*
X0013422Y0065066D01*
X0013422Y0069044D01*
X0010613Y0069044D01*
X0010156Y0068921D01*
X0009745Y0068684D01*
X0009410Y0068349D01*
X0009173Y0067939D01*
X0009050Y0067481D01*
X0009050Y0065740D02*
X0006200Y0065740D01*
X0006200Y0064142D02*
X0013422Y0064142D01*
X0013422Y0063910D02*
X0009050Y0063910D01*
X0009050Y0061495D01*
X0009173Y0061037D01*
X0009410Y0060627D01*
X0009745Y0060292D01*
X0010156Y0060055D01*
X0010613Y0059932D01*
X0013422Y0059932D01*
X0013422Y0063910D01*
X0014578Y0064142D02*
X0050561Y0064142D01*
X0050561Y0065740D02*
X0044678Y0065740D01*
X0045474Y0067339D02*
X0050561Y0067339D01*
X0050561Y0068937D02*
X0045474Y0068937D01*
X0045474Y0070536D02*
X0050561Y0070536D01*
X0050488Y0072134D02*
X0045474Y0072134D01*
X0045386Y0073733D02*
X0050488Y0073733D01*
X0050488Y0075332D02*
X0043819Y0075332D01*
X0045945Y0078529D02*
X0051854Y0078529D01*
X0051854Y0080127D02*
X0047071Y0080127D01*
X0047400Y0081726D02*
X0051854Y0081726D01*
X0051854Y0083324D02*
X0047128Y0083324D01*
X0046103Y0084923D02*
X0048574Y0084923D01*
X0047188Y0086521D02*
X0039363Y0086521D01*
X0039363Y0088120D02*
X0039921Y0088120D01*
X0043000Y0091800D02*
X0043000Y0092854D01*
X0043806Y0092854D01*
X0057200Y0090454D01*
X0055054Y0090454D01*
X0055054Y0073200D01*
X0054161Y0073200D01*
X0051256Y0076930D02*
X0039363Y0076930D01*
X0031363Y0076930D02*
X0019550Y0076930D01*
X0019550Y0075332D02*
X0026581Y0075332D01*
X0025014Y0073733D02*
X0019550Y0073733D01*
X0019490Y0072134D02*
X0024926Y0072134D01*
X0024926Y0070536D02*
X0018062Y0070536D01*
X0017784Y0068937D02*
X0024926Y0068937D01*
X0024926Y0067339D02*
X0018950Y0067339D01*
X0018950Y0065740D02*
X0025722Y0065740D01*
X0026066Y0060945D02*
X0018773Y0060945D01*
X0018950Y0062543D02*
X0049603Y0062543D01*
X0046816Y0060945D02*
X0044334Y0060945D01*
X0049732Y0058239D02*
X0049932Y0058268D01*
X0054161Y0062668D01*
X0056720Y0062668D01*
X0059283Y0063008D02*
X0059283Y0070747D01*
X0062483Y0068831D02*
X0062483Y0066455D01*
X0062565Y0066439D01*
X0063018Y0066251D01*
X0063425Y0065979D01*
X0063772Y0065632D01*
X0064044Y0065225D01*
X0064232Y0064772D01*
X0064299Y0064433D01*
X0064455Y0064588D01*
X0065631Y0065076D01*
X0070091Y0065076D01*
X0070091Y0065109D01*
X0070442Y0065956D01*
X0070427Y0065963D01*
X0069577Y0066856D01*
X0069133Y0068007D01*
X0069163Y0069240D01*
X0069256Y0069449D01*
X0069346Y0078631D01*
X0068531Y0078631D01*
X0068531Y0082216D01*
X0068162Y0082216D01*
X0068162Y0078631D01*
X0065944Y0078631D01*
X0065525Y0078744D01*
X0065298Y0078516D01*
X0065298Y0077177D01*
X0065946Y0076528D01*
X0066312Y0075646D01*
X0066312Y0070754D01*
X0065946Y0069872D01*
X0065271Y0069197D01*
X0064389Y0068831D01*
X0062483Y0068831D01*
X0062483Y0067339D02*
X0069391Y0067339D01*
X0069156Y0068937D02*
X0064645Y0068937D01*
X0066221Y0070536D02*
X0069267Y0070536D01*
X0069282Y0072134D02*
X0066312Y0072134D01*
X0066312Y0073733D02*
X0069298Y0073733D01*
X0069313Y0075332D02*
X0066312Y0075332D01*
X0065544Y0076930D02*
X0069329Y0076930D01*
X0069345Y0078529D02*
X0065310Y0078529D01*
X0068162Y0080127D02*
X0068531Y0080127D01*
X0068531Y0081726D02*
X0068162Y0081726D01*
X0068162Y0082584D02*
X0068162Y0086168D01*
X0065944Y0086168D01*
X0065525Y0086056D01*
X0065178Y0086403D01*
X0064296Y0086768D01*
X0061043Y0086768D01*
X0061203Y0086929D01*
X0061568Y0087811D01*
X0061568Y0093096D01*
X0061203Y0093978D01*
X0060856Y0094325D01*
X0060968Y0094744D01*
X0060968Y0096962D01*
X0057384Y0096962D01*
X0057384Y0097331D01*
X0060968Y0097331D01*
X0060968Y0098013D01*
X0072346Y0098307D01*
X0072346Y0096148D01*
X0072296Y0096168D01*
X0067011Y0096168D01*
X0066129Y0095803D01*
X0065454Y0095128D01*
X0065088Y0094246D01*
X0065088Y0089354D01*
X0065454Y0088472D01*
X0066129Y0087797D01*
X0067011Y0087431D01*
X0069431Y0087431D01*
X0069419Y0086168D01*
X0068531Y0086168D01*
X0068531Y0082584D01*
X0068162Y0082584D01*
X0068162Y0083324D02*
X0068531Y0083324D01*
X0068531Y0084923D02*
X0068162Y0084923D01*
X0069423Y0086521D02*
X0064894Y0086521D01*
X0065806Y0088120D02*
X0061568Y0088120D01*
X0061568Y0089718D02*
X0065088Y0089718D01*
X0065088Y0091317D02*
X0061568Y0091317D01*
X0061568Y0092915D02*
X0065088Y0092915D01*
X0065199Y0094514D02*
X0060907Y0094514D01*
X0060968Y0096112D02*
X0066875Y0096112D01*
X0072346Y0097711D02*
X0060968Y0097711D01*
X0058247Y0105285D02*
X0052931Y0105214D01*
X0052536Y0105279D01*
X0052221Y0105205D01*
X0051898Y0105200D01*
X0051531Y0105042D01*
X0051142Y0104951D01*
X0050879Y0104762D01*
X0050583Y0104635D01*
X0050304Y0104348D01*
X0049979Y0104115D01*
X0049809Y0103840D01*
X0049583Y0103609D01*
X0049435Y0103237D01*
X0049029Y0102582D01*
X0048950Y0102582D01*
X0048950Y0103534D01*
X0044578Y0103534D01*
X0044578Y0104690D01*
X0048950Y0104690D01*
X0048950Y0105835D01*
X0057865Y0105835D01*
X0058247Y0105285D01*
X0057957Y0105703D02*
X0048950Y0105703D01*
X0049973Y0104105D02*
X0044578Y0104105D01*
X0044000Y0104112D02*
X0052800Y0104912D01*
X0056900Y0105300D01*
X0057200Y0111635D02*
X0057200Y0115800D01*
X0057581Y0115800D01*
X0057815Y0115565D01*
X0058432Y0115310D01*
X0060205Y0112361D01*
X0060343Y0112028D01*
X0060499Y0111871D01*
X0060613Y0111682D01*
X0060903Y0111467D01*
X0061082Y0111289D01*
X0061082Y0111138D01*
X0061026Y0111194D01*
X0060734Y0111315D01*
X0060468Y0111486D01*
X0060206Y0111533D01*
X0059960Y0111635D01*
X0059644Y0111635D01*
X0059332Y0111691D01*
X0059073Y0111635D01*
X0057200Y0111635D01*
X0057000Y0111800D02*
X0060425Y0111800D01*
X0060425Y0113225D01*
X0059402Y0113696D02*
X0057200Y0113696D01*
X0057200Y0115294D02*
X0058441Y0115294D01*
X0057200Y0112097D02*
X0060314Y0112097D01*
X0054000Y0111800D02*
X0054000Y0119224D01*
X0053876Y0120100D01*
X0054000Y0111800D02*
X0038000Y0111800D01*
X0030500Y0104300D01*
X0030500Y0102843D01*
X0030500Y0094514D02*
X0030500Y0094514D01*
X0030500Y0092915D02*
X0030500Y0092915D01*
X0031363Y0091317D02*
X0027071Y0091317D01*
X0027097Y0089718D02*
X0031363Y0089718D01*
X0031363Y0088120D02*
X0026763Y0088120D01*
X0025517Y0086521D02*
X0031363Y0086521D01*
X0031363Y0084923D02*
X0022590Y0084923D01*
X0019663Y0083324D02*
X0030973Y0083324D01*
X0030792Y0081726D02*
X0018257Y0081726D01*
X0018684Y0080127D02*
X0031206Y0080127D01*
X0031363Y0078529D02*
X0019550Y0078529D01*
X0014578Y0068937D02*
X0013422Y0068937D01*
X0013422Y0067339D02*
X0014578Y0067339D01*
X0014578Y0065740D02*
X0013422Y0065740D01*
X0013422Y0062543D02*
X0014578Y0062543D01*
X0014578Y0060945D02*
X0013422Y0060945D01*
X0009227Y0060945D02*
X0006200Y0060945D01*
X0006200Y0062543D02*
X0009050Y0062543D01*
X0006200Y0059346D02*
X0024926Y0059346D01*
X0024926Y0057748D02*
X0006200Y0057748D01*
X0006200Y0056149D02*
X0024926Y0056149D01*
X0024926Y0054551D02*
X0006200Y0054551D01*
X0006200Y0052952D02*
X0024926Y0052952D01*
X0025935Y0051354D02*
X0006200Y0051354D01*
X0006200Y0049755D02*
X0020299Y0049755D01*
X0020088Y0048157D02*
X0006200Y0048157D01*
X0006200Y0046558D02*
X0020088Y0046558D01*
X0017663Y0044960D02*
X0006200Y0044960D01*
X0006200Y0043361D02*
X0017025Y0043361D01*
X0017025Y0041763D02*
X0006200Y0041763D01*
X0006200Y0040164D02*
X0017025Y0040164D01*
X0017301Y0038566D02*
X0006200Y0038566D01*
X0006200Y0036967D02*
X0016701Y0036967D01*
X0016600Y0035369D02*
X0006200Y0035369D01*
X0006200Y0033770D02*
X0016600Y0033770D01*
X0016912Y0032172D02*
X0006200Y0032172D01*
X0006200Y0030573D02*
X0018004Y0030573D01*
X0021001Y0020982D02*
X0006200Y0020982D01*
X0006200Y0019384D02*
X0014088Y0019384D01*
X0014088Y0017785D02*
X0006200Y0017785D01*
X0006200Y0016187D02*
X0014088Y0016187D01*
X0014197Y0014588D02*
X0006200Y0014588D01*
X0006200Y0012990D02*
X0021722Y0012990D01*
X0018238Y0014588D02*
X0017869Y0014588D01*
X0017869Y0016187D02*
X0018238Y0016187D01*
X0018238Y0017785D02*
X0017869Y0017785D01*
X0017869Y0019384D02*
X0018238Y0019384D01*
X0028688Y0022581D02*
X0006200Y0022581D01*
X0006200Y0024179D02*
X0028735Y0024179D01*
X0029753Y0025778D02*
X0006200Y0025778D01*
X0006200Y0027376D02*
X0028688Y0027376D01*
X0028688Y0028975D02*
X0006200Y0028975D01*
X0006200Y0011391D02*
X0041000Y0011391D01*
X0041000Y0009793D02*
X0006200Y0009793D01*
X0006200Y0008194D02*
X0041000Y0008194D01*
X0041000Y0006596D02*
X0006200Y0006596D01*
X0027771Y0012990D02*
X0041000Y0012990D01*
X0039346Y0021800D02*
X0039346Y0024000D01*
X0032838Y0024179D02*
X0032469Y0024179D01*
X0032469Y0022581D02*
X0032838Y0022581D01*
X0032838Y0025778D02*
X0032469Y0025778D01*
X0032469Y0027376D02*
X0032838Y0027376D01*
X0032838Y0028975D02*
X0032469Y0028975D01*
X0045643Y0032970D02*
X0045857Y0032975D01*
X0046501Y0032941D01*
X0046647Y0032993D01*
X0051676Y0033106D01*
X0052054Y0032950D01*
X0053512Y0032950D01*
X0053512Y0031736D01*
X0053512Y0030288D01*
X0052064Y0030288D01*
X0052064Y0028920D01*
X0052064Y0028920D01*
X0052064Y0030288D01*
X0050390Y0030288D01*
X0049932Y0030166D01*
X0049522Y0029929D01*
X0049186Y0029593D01*
X0048949Y0029183D01*
X0048874Y0028900D01*
X0048153Y0028900D01*
X0048153Y0028910D01*
X0048338Y0029478D01*
X0048243Y0030708D01*
X0047685Y0031807D01*
X0046748Y0032609D01*
X0045643Y0032970D01*
X0047259Y0032172D02*
X0053512Y0032172D01*
X0053512Y0031736D02*
X0054880Y0031736D01*
X0053512Y0031736D01*
X0053512Y0030573D02*
X0048254Y0030573D01*
X0048174Y0028975D02*
X0048894Y0028975D01*
X0052064Y0028975D02*
X0052064Y0028975D01*
X0054880Y0031736D02*
X0054880Y0031736D01*
X0054759Y0037177D02*
X0055600Y0037200D01*
X0061426Y0041665D02*
X0062453Y0041665D01*
X0063588Y0042136D01*
X0064385Y0042932D01*
X0067637Y0042932D01*
X0068813Y0043419D01*
X0069681Y0044288D01*
X0070254Y0044050D01*
X0071688Y0044050D01*
X0071688Y0042195D01*
X0071811Y0041737D01*
X0072048Y0041326D01*
X0072206Y0041168D01*
X0067011Y0041168D01*
X0066129Y0040803D01*
X0065454Y0040128D01*
X0065276Y0039700D01*
X0062709Y0039700D01*
X0062710Y0039726D01*
X0062700Y0039751D01*
X0062700Y0039777D01*
X0062489Y0040286D01*
X0062287Y0040800D01*
X0062269Y0040818D01*
X0062258Y0040843D01*
X0061869Y0041233D01*
X0061485Y0041629D01*
X0061461Y0041640D01*
X0061443Y0041658D01*
X0061426Y0041665D01*
X0062688Y0041763D02*
X0071804Y0041763D01*
X0071688Y0043361D02*
X0068672Y0043361D01*
X0067000Y0046132D02*
X0067000Y0047800D01*
X0071000Y0047800D01*
X0071000Y0049800D01*
X0081940Y0049800D01*
X0081940Y0061876D01*
X0085140Y0057032D02*
X0085231Y0057070D01*
X0085231Y0056331D01*
X0088816Y0056331D01*
X0088816Y0060112D01*
X0087830Y0060112D01*
X0088846Y0060533D01*
X0089901Y0061588D01*
X0090472Y0062966D01*
X0090472Y0064458D01*
X0089901Y0065836D01*
X0089822Y0065914D01*
X0090061Y0071288D01*
X0092016Y0071288D01*
X0092016Y0075069D01*
X0092384Y0075069D01*
X0092384Y0071288D01*
X0092967Y0071288D01*
X0092965Y0070896D01*
X0092968Y0070889D01*
X0092968Y0070881D01*
X0093186Y0070354D01*
X0093401Y0069828D01*
X0093406Y0069822D01*
X0093409Y0069815D01*
X0093813Y0069412D01*
X0094213Y0069008D01*
X0094220Y0069005D01*
X0094225Y0068999D01*
X0094752Y0068781D01*
X0094857Y0068737D01*
X0094857Y0066389D01*
X0094904Y0066276D01*
X0094857Y0066162D01*
X0094857Y0063277D01*
X0093173Y0062265D01*
X0092713Y0062074D01*
X0092497Y0061859D01*
X0092236Y0061702D01*
X0091939Y0061301D01*
X0091587Y0060949D01*
X0091471Y0060668D01*
X0091289Y0060423D01*
X0091212Y0060110D01*
X0091205Y0060112D01*
X0089184Y0060112D01*
X0089184Y0056331D01*
X0088816Y0056331D01*
X0088816Y0055962D01*
X0085231Y0055962D01*
X0085231Y0053744D01*
X0085344Y0053325D01*
X0085140Y0053122D01*
X0085140Y0057032D01*
X0085140Y0056149D02*
X0088816Y0056149D01*
X0088816Y0057748D02*
X0089184Y0057748D01*
X0089184Y0059346D02*
X0088816Y0059346D01*
X0089258Y0060945D02*
X0091586Y0060945D01*
X0090297Y0062543D02*
X0093636Y0062543D01*
X0094857Y0064142D02*
X0090472Y0064142D01*
X0089940Y0065740D02*
X0094857Y0065740D01*
X0094857Y0067339D02*
X0089886Y0067339D01*
X0089957Y0068937D02*
X0094374Y0068937D01*
X0093111Y0070536D02*
X0090028Y0070536D01*
X0092016Y0072134D02*
X0092384Y0072134D01*
X0092384Y0073733D02*
X0092016Y0073733D01*
X0092200Y0081946D02*
X0092846Y0081946D01*
X0098768Y0082007D02*
X0098768Y0080083D01*
X0101800Y0080083D01*
X0101800Y0077534D01*
X0101800Y0077534D01*
X0101800Y0080083D01*
X0106022Y0080083D01*
X0106557Y0081986D01*
X0098819Y0081986D01*
X0098768Y0082007D01*
X0098768Y0081726D02*
X0106484Y0081726D01*
X0106035Y0080127D02*
X0098768Y0080127D01*
X0101800Y0078529D02*
X0101800Y0078529D01*
X0101496Y0064415D02*
X0101496Y0062601D01*
X0104558Y0060014D02*
X0105185Y0060862D01*
X0105298Y0061317D01*
X0106821Y0061317D01*
X0107703Y0061682D01*
X0108378Y0062357D01*
X0108743Y0063239D01*
X0108743Y0064749D01*
X0109208Y0064714D01*
X0109332Y0064755D01*
X0109463Y0064756D01*
X0109895Y0064940D01*
X0110342Y0065087D01*
X0110441Y0065172D01*
X0110561Y0065223D01*
X0110890Y0065559D01*
X0110994Y0065648D01*
X0110160Y0064813D01*
X0109494Y0063208D01*
X0109494Y0061470D01*
X0110160Y0059864D01*
X0111388Y0058635D01*
X0112994Y0057970D01*
X0114732Y0057970D01*
X0116338Y0058635D01*
X0117566Y0059864D01*
X0118231Y0061470D01*
X0118231Y0063208D01*
X0117566Y0064813D01*
X0116338Y0066042D01*
X0114732Y0066707D01*
X0112994Y0066707D01*
X0111388Y0066042D01*
X0111283Y0065937D01*
X0111306Y0065982D01*
X0111397Y0066075D01*
X0111573Y0066511D01*
X0111785Y0066930D01*
X0111795Y0067060D01*
X0111844Y0067182D01*
X0111840Y0067652D01*
X0111875Y0068120D01*
X0111834Y0068244D01*
X0111765Y0075802D01*
X0112994Y0075293D01*
X0114732Y0075293D01*
X0116338Y0075958D01*
X0117566Y0077187D01*
X0118231Y0078792D01*
X0118231Y0080530D01*
X0117566Y0082136D01*
X0116338Y0083365D01*
X0114732Y0084030D01*
X0113364Y0084030D01*
X0115740Y0092483D01*
X0116000Y0092744D01*
X0116571Y0094122D01*
X0116571Y0094700D01*
X0125227Y0094700D01*
X0126109Y0095065D01*
X0126785Y0095741D01*
X0127150Y0096623D01*
X0127150Y0119577D01*
X0126785Y0120459D01*
X0126109Y0121135D01*
X0125227Y0121500D01*
X0115973Y0121500D01*
X0115091Y0121135D01*
X0114415Y0120459D01*
X0114050Y0119577D01*
X0114050Y0102493D01*
X0114029Y0102493D01*
X0110931Y0105333D01*
X0110931Y0110942D01*
X0110475Y0112045D01*
X0109631Y0112889D01*
X0109492Y0112946D01*
X0106799Y0115937D01*
X0106769Y0116010D01*
X0106414Y0116364D01*
X0106262Y0116533D01*
X0106262Y0120395D01*
X0105897Y0121278D01*
X0105222Y0121953D01*
X0104340Y0122318D01*
X0101928Y0122318D01*
X0101928Y0128751D01*
X0111668Y0128629D01*
X0111876Y0128421D01*
X0113254Y0127850D01*
X0114746Y0127850D01*
X0116124Y0128421D01*
X0117179Y0129476D01*
X0117750Y0130854D01*
X0117750Y0132100D01*
X0125227Y0132100D01*
X0126109Y0132465D01*
X0126785Y0133141D01*
X0127150Y0134023D01*
X0127150Y0156977D01*
X0126785Y0157859D01*
X0126109Y0158535D01*
X0126014Y0158574D01*
X0126411Y0158703D01*
X0127183Y0159096D01*
X0127883Y0159605D01*
X0128495Y0160217D01*
X0129004Y0160917D01*
X0129397Y0161689D01*
X0129665Y0162512D01*
X0129800Y0163367D01*
X0129800Y0163600D01*
X0124500Y0163600D01*
X0124500Y0164000D01*
X0124100Y0164000D01*
X0124100Y0169300D01*
X0123867Y0169300D01*
X0123012Y0169165D01*
X0122189Y0168897D01*
X0121417Y0168504D01*
X0120717Y0167995D01*
X0120105Y0167383D01*
X0119596Y0166683D01*
X0119203Y0165911D01*
X0118950Y0165133D01*
X0118071Y0167255D01*
X0116355Y0168971D01*
X0114809Y0169612D01*
X0120852Y0175900D01*
X0126877Y0175900D01*
X0127759Y0176265D01*
X0128435Y0176941D01*
X0128800Y0177823D01*
X0128800Y0186177D01*
X0128435Y0187059D01*
X0127759Y0187735D01*
X0127266Y0187939D01*
X0128800Y0189473D01*
X0128800Y0194136D01*
X0129800Y0195136D01*
X0129800Y0094660D01*
X0120472Y0094660D01*
X0119590Y0094294D01*
X0118915Y0093619D01*
X0118550Y0092737D01*
X0118550Y0083908D01*
X0118915Y0083026D01*
X0119590Y0082351D01*
X0120472Y0081986D01*
X0129800Y0081986D01*
X0129800Y0060014D01*
X0120472Y0060014D01*
X0119590Y0059649D01*
X0118915Y0058974D01*
X0118550Y0058092D01*
X0118550Y0049263D01*
X0118915Y0048381D01*
X0119590Y0047706D01*
X0120472Y0047340D01*
X0129800Y0047340D01*
X0129800Y0040135D01*
X0116135Y0040135D01*
X0115253Y0039770D01*
X0114578Y0039095D01*
X0114213Y0038213D01*
X0114213Y0030959D01*
X0114578Y0030077D01*
X0115253Y0029402D01*
X0116135Y0029036D01*
X0129800Y0029036D01*
X0129800Y0013364D01*
X0116135Y0013364D01*
X0115253Y0012998D01*
X0114578Y0012323D01*
X0114213Y0011441D01*
X0114213Y0005000D01*
X0102998Y0005000D01*
X0103000Y0005004D01*
X0103000Y0012894D01*
X0112366Y0012894D01*
X0113248Y0013260D01*
X0113923Y0013935D01*
X0114288Y0014817D01*
X0114288Y0019709D01*
X0113923Y0020591D01*
X0113248Y0021266D01*
X0112634Y0021520D01*
X0112993Y0021728D01*
X0113329Y0022063D01*
X0113566Y0022474D01*
X0113688Y0022932D01*
X0113688Y0024953D01*
X0103017Y0024953D01*
X0103017Y0025321D01*
X0102649Y0025321D01*
X0102649Y0028905D01*
X0093694Y0028905D01*
X0093790Y0034200D01*
X0095694Y0034200D01*
X0097018Y0034748D01*
X0097670Y0035400D01*
X0101875Y0035400D01*
X0103492Y0036070D01*
X0104730Y0037308D01*
X0105400Y0038925D01*
X0105400Y0040675D01*
X0104730Y0042292D01*
X0103492Y0043530D01*
X0101875Y0044200D01*
X0099378Y0044200D01*
X0099378Y0046391D01*
X0098985Y0047340D01*
X0109222Y0047340D01*
X0110104Y0047706D01*
X0110779Y0048381D01*
X0111145Y0049263D01*
X0111145Y0058092D01*
X0110779Y0058974D01*
X0110104Y0059649D01*
X0109222Y0060014D01*
X0104558Y0060014D01*
X0105206Y0060945D02*
X0109712Y0060945D01*
X0109494Y0062543D02*
X0108455Y0062543D01*
X0108743Y0064142D02*
X0109882Y0064142D01*
X0111842Y0067339D02*
X0129800Y0067339D01*
X0129800Y0068937D02*
X0111828Y0068937D01*
X0111813Y0070536D02*
X0129800Y0070536D01*
X0129800Y0072134D02*
X0111799Y0072134D01*
X0111784Y0073733D02*
X0129800Y0073733D01*
X0129800Y0075332D02*
X0114825Y0075332D01*
X0112901Y0075332D02*
X0111769Y0075332D01*
X0116378Y0083324D02*
X0118792Y0083324D01*
X0118550Y0084923D02*
X0113615Y0084923D01*
X0114064Y0086521D02*
X0118550Y0086521D01*
X0118550Y0088120D02*
X0114513Y0088120D01*
X0114963Y0089718D02*
X0118550Y0089718D01*
X0118550Y0091317D02*
X0115412Y0091317D01*
X0116071Y0092915D02*
X0118623Y0092915D01*
X0120119Y0094514D02*
X0116571Y0094514D01*
X0114050Y0102506D02*
X0114014Y0102506D01*
X0114050Y0104105D02*
X0112271Y0104105D01*
X0110931Y0105703D02*
X0114050Y0105703D01*
X0114050Y0107302D02*
X0110931Y0107302D01*
X0110931Y0108900D02*
X0114050Y0108900D01*
X0114050Y0110499D02*
X0110931Y0110499D01*
X0110423Y0112097D02*
X0114050Y0112097D01*
X0114050Y0113696D02*
X0108817Y0113696D01*
X0107378Y0115294D02*
X0114050Y0115294D01*
X0114050Y0116893D02*
X0106262Y0116893D01*
X0106262Y0118491D02*
X0114050Y0118491D01*
X0114262Y0120090D02*
X0106262Y0120090D01*
X0105486Y0121688D02*
X0129800Y0121688D01*
X0129800Y0120090D02*
X0126938Y0120090D01*
X0127150Y0118491D02*
X0129800Y0118491D01*
X0129800Y0116893D02*
X0127150Y0116893D01*
X0127150Y0115294D02*
X0129800Y0115294D01*
X0129800Y0113696D02*
X0127150Y0113696D01*
X0127150Y0112097D02*
X0129800Y0112097D01*
X0129800Y0110499D02*
X0127150Y0110499D01*
X0127150Y0108900D02*
X0129800Y0108900D01*
X0129800Y0107302D02*
X0127150Y0107302D01*
X0127150Y0105703D02*
X0129800Y0105703D01*
X0129800Y0104105D02*
X0127150Y0104105D01*
X0127150Y0102506D02*
X0129800Y0102506D01*
X0129800Y0100908D02*
X0127150Y0100908D01*
X0127150Y0099309D02*
X0129800Y0099309D01*
X0129800Y0097711D02*
X0127150Y0097711D01*
X0126939Y0096112D02*
X0129800Y0096112D01*
X0129800Y0081726D02*
X0117736Y0081726D01*
X0118231Y0080127D02*
X0129800Y0080127D01*
X0129800Y0078529D02*
X0118122Y0078529D01*
X0117310Y0076930D02*
X0129800Y0076930D01*
X0129800Y0065740D02*
X0116639Y0065740D01*
X0117844Y0064142D02*
X0129800Y0064142D01*
X0129800Y0062543D02*
X0118231Y0062543D01*
X0118014Y0060945D02*
X0129800Y0060945D01*
X0129800Y0046558D02*
X0099309Y0046558D01*
X0099378Y0044960D02*
X0129800Y0044960D01*
X0129800Y0043361D02*
X0103661Y0043361D01*
X0104950Y0041763D02*
X0129800Y0041763D01*
X0129800Y0040164D02*
X0105400Y0040164D01*
X0105251Y0038566D02*
X0114359Y0038566D01*
X0114213Y0036967D02*
X0104390Y0036967D01*
X0103017Y0028905D02*
X0103017Y0025321D01*
X0113688Y0025321D01*
X0113688Y0027342D01*
X0113566Y0027800D01*
X0113329Y0028211D01*
X0112993Y0028546D01*
X0112583Y0028783D01*
X0112125Y0028905D01*
X0103017Y0028905D01*
X0103017Y0027376D02*
X0102649Y0027376D01*
X0102649Y0025778D02*
X0103017Y0025778D01*
X0102833Y0017263D02*
X0099000Y0017263D01*
X0095000Y0012894D02*
X0095000Y0009800D01*
X0089812Y0009800D01*
X0089812Y0011616D01*
X0086031Y0011616D01*
X0086031Y0011984D01*
X0089812Y0011984D01*
X0089812Y0013772D01*
X0089871Y0013797D01*
X0090546Y0014472D01*
X0090912Y0015354D01*
X0090912Y0020059D01*
X0092418Y0021982D01*
X0092673Y0021728D01*
X0093032Y0021520D01*
X0092418Y0021266D01*
X0091743Y0020591D01*
X0091378Y0019709D01*
X0091378Y0014817D01*
X0091743Y0013935D01*
X0092418Y0013260D01*
X0093301Y0012894D01*
X0095000Y0012894D01*
X0095000Y0011391D02*
X0089812Y0011391D01*
X0089812Y0012990D02*
X0093071Y0012990D01*
X0091473Y0014588D02*
X0090595Y0014588D01*
X0090912Y0016187D02*
X0091378Y0016187D01*
X0091378Y0017785D02*
X0090912Y0017785D01*
X0090912Y0019384D02*
X0091378Y0019384D01*
X0091635Y0020982D02*
X0092134Y0020982D01*
X0086441Y0026027D02*
X0085781Y0025185D01*
X0085578Y0025241D01*
X0085197Y0025399D01*
X0085008Y0025399D01*
X0084825Y0025450D01*
X0084416Y0025399D01*
X0083725Y0025399D01*
X0083952Y0025626D01*
X0084189Y0026037D01*
X0084312Y0026495D01*
X0084312Y0028516D01*
X0080531Y0028516D01*
X0080531Y0028884D01*
X0084312Y0028884D01*
X0084312Y0030905D01*
X0084189Y0031363D01*
X0083952Y0031774D01*
X0083617Y0032109D01*
X0083207Y0032346D01*
X0082749Y0032468D01*
X0080531Y0032468D01*
X0080531Y0028884D01*
X0080162Y0028884D01*
X0080162Y0032468D01*
X0079078Y0032468D01*
X0079871Y0032797D01*
X0080546Y0033472D01*
X0080682Y0033800D01*
X0085444Y0033800D01*
X0085505Y0033825D01*
X0086582Y0033825D01*
X0086441Y0026027D01*
X0086245Y0025778D02*
X0084040Y0025778D01*
X0084312Y0027376D02*
X0086465Y0027376D01*
X0086494Y0028975D02*
X0084312Y0028975D01*
X0084312Y0030573D02*
X0086523Y0030573D01*
X0086552Y0032172D02*
X0083508Y0032172D01*
X0080531Y0032172D02*
X0080162Y0032172D01*
X0080162Y0030573D02*
X0080531Y0030573D01*
X0080531Y0028975D02*
X0080162Y0028975D01*
X0080670Y0033770D02*
X0086581Y0033770D01*
X0093782Y0033770D02*
X0114213Y0033770D01*
X0114213Y0032172D02*
X0093753Y0032172D01*
X0093724Y0030573D02*
X0114372Y0030573D01*
X0113679Y0027376D02*
X0129800Y0027376D01*
X0129800Y0025778D02*
X0113688Y0025778D01*
X0113688Y0024179D02*
X0129800Y0024179D01*
X0129800Y0022581D02*
X0113594Y0022581D01*
X0113532Y0020982D02*
X0129800Y0020982D01*
X0129800Y0019384D02*
X0114288Y0019384D01*
X0114288Y0017785D02*
X0129800Y0017785D01*
X0129800Y0016187D02*
X0114288Y0016187D01*
X0114193Y0014588D02*
X0129800Y0014588D01*
X0129800Y0028975D02*
X0093695Y0028975D01*
X0097638Y0035369D02*
X0114213Y0035369D01*
X0110556Y0048157D02*
X0119139Y0048157D01*
X0118550Y0049755D02*
X0111145Y0049755D01*
X0111145Y0051354D02*
X0118550Y0051354D01*
X0118550Y0052952D02*
X0111145Y0052952D01*
X0111145Y0054551D02*
X0118550Y0054551D01*
X0118550Y0056149D02*
X0111145Y0056149D01*
X0111145Y0057748D02*
X0118550Y0057748D01*
X0119288Y0059346D02*
X0117049Y0059346D01*
X0110677Y0059346D02*
X0110407Y0059346D01*
X0089000Y0049454D02*
X0081940Y0049454D01*
X0085140Y0054551D02*
X0085231Y0054551D01*
X0074460Y0061876D02*
X0066268Y0061876D01*
X0066268Y0058239D01*
X0062076Y0056959D02*
X0061801Y0056294D01*
X0061801Y0055065D01*
X0062271Y0053930D01*
X0062473Y0053728D01*
X0062401Y0053366D01*
X0062401Y0053121D01*
X0063080Y0053121D01*
X0063080Y0053120D01*
X0062401Y0053120D01*
X0062401Y0052875D01*
X0062473Y0052513D01*
X0062271Y0052311D01*
X0061801Y0051176D01*
X0061801Y0050599D01*
X0061224Y0050599D01*
X0060089Y0050129D01*
X0059887Y0049927D01*
X0059525Y0049999D01*
X0059280Y0049999D01*
X0059280Y0049320D01*
X0059279Y0049320D01*
X0059279Y0049999D01*
X0059034Y0049999D01*
X0058554Y0049904D01*
X0058101Y0049716D01*
X0058000Y0049649D01*
X0057899Y0049716D01*
X0057446Y0049904D01*
X0056966Y0049999D01*
X0056721Y0049999D01*
X0056721Y0046132D01*
X0056721Y0046132D01*
X0056791Y0046132D01*
X0058639Y0046132D01*
X0058639Y0046132D01*
X0056721Y0046132D01*
X0056720Y0046132D01*
X0054231Y0046132D01*
X0054162Y0046132D01*
X0054162Y0046132D01*
X0056720Y0046132D01*
X0056720Y0046132D01*
X0056720Y0049999D01*
X0056475Y0049999D01*
X0055994Y0049904D01*
X0055541Y0049716D01*
X0055441Y0049649D01*
X0055340Y0049716D01*
X0054887Y0049904D01*
X0054407Y0049999D01*
X0054199Y0049999D01*
X0054199Y0051176D01*
X0053924Y0051841D01*
X0054199Y0052506D01*
X0054199Y0053735D01*
X0053924Y0054400D01*
X0054199Y0055065D01*
X0054199Y0056294D01*
X0053924Y0056959D01*
X0054199Y0057624D01*
X0054199Y0058089D01*
X0054306Y0058201D01*
X0054776Y0058201D01*
X0055441Y0058476D01*
X0056106Y0058201D01*
X0057335Y0058201D01*
X0058000Y0058476D01*
X0058665Y0058201D01*
X0059894Y0058201D01*
X0061029Y0058671D01*
X0061231Y0058873D01*
X0061593Y0058801D01*
X0061801Y0058801D01*
X0061801Y0057624D01*
X0062076Y0056959D01*
X0061801Y0057748D02*
X0054199Y0057748D01*
X0054199Y0056149D02*
X0061801Y0056149D01*
X0062014Y0054551D02*
X0053986Y0054551D01*
X0054199Y0052952D02*
X0062401Y0052952D01*
X0063080Y0053120D02*
X0063080Y0053120D01*
X0061875Y0051354D02*
X0054125Y0051354D01*
X0055245Y0049755D02*
X0055637Y0049755D01*
X0056720Y0049755D02*
X0056721Y0049755D01*
X0057804Y0049755D02*
X0058196Y0049755D01*
X0059279Y0049755D02*
X0059280Y0049755D01*
X0056721Y0048157D02*
X0056720Y0048157D01*
X0056720Y0046558D02*
X0056721Y0046558D01*
X0054161Y0046132D02*
X0054161Y0046132D01*
X0051672Y0046132D01*
X0051672Y0046010D01*
X0048487Y0047472D01*
X0051672Y0047472D01*
X0051672Y0046132D01*
X0054161Y0046132D01*
X0051672Y0046558D02*
X0050478Y0046558D01*
X0061839Y0046132D02*
X0067000Y0046132D01*
X0065490Y0040164D02*
X0062540Y0040164D01*
X0066688Y0032565D02*
X0067011Y0032431D01*
X0069857Y0032431D01*
X0069454Y0032028D01*
X0069088Y0031146D01*
X0069088Y0030937D01*
X0066939Y0030937D01*
X0066822Y0030888D01*
X0066688Y0030888D01*
X0066688Y0032565D01*
X0066688Y0032172D02*
X0069597Y0032172D01*
X0073000Y0017800D02*
X0073400Y0017363D01*
X0079654Y0017800D02*
X0079000Y0013800D01*
X0079154Y0011800D01*
X0103000Y0011391D02*
X0114213Y0011391D01*
X0114213Y0009793D02*
X0103000Y0009793D01*
X0103000Y0008194D02*
X0114213Y0008194D01*
X0114213Y0006596D02*
X0103000Y0006596D01*
X0112595Y0012990D02*
X0115244Y0012990D01*
X0078200Y0071324D02*
X0078200Y0077954D01*
X0084000Y0077954D01*
X0084654Y0091800D02*
X0076346Y0091800D01*
X0080346Y0095800D02*
X0080346Y0097431D01*
X0082296Y0097431D01*
X0083178Y0097797D01*
X0083525Y0098144D01*
X0083944Y0098031D01*
X0086162Y0098031D01*
X0086162Y0101616D01*
X0086531Y0101616D01*
X0086531Y0101984D01*
X0090312Y0101984D01*
X0090312Y0104005D01*
X0090189Y0104463D01*
X0089952Y0104874D01*
X0089617Y0105209D01*
X0089207Y0105446D01*
X0088749Y0105568D01*
X0086531Y0105568D01*
X0086531Y0101984D01*
X0086162Y0101984D01*
X0086162Y0105568D01*
X0083944Y0105568D01*
X0083525Y0105456D01*
X0083493Y0105489D01*
X0086022Y0108018D01*
X0086103Y0107822D01*
X0086778Y0107147D01*
X0087660Y0106782D01*
X0090472Y0106782D01*
X0091628Y0105834D01*
X0091628Y0105764D01*
X0092199Y0104386D01*
X0093254Y0103331D01*
X0094632Y0102760D01*
X0096077Y0102760D01*
X0095713Y0102609D01*
X0095038Y0101934D01*
X0094672Y0101052D01*
X0094672Y0100431D01*
X0094214Y0100621D01*
X0092722Y0100621D01*
X0091344Y0100050D01*
X0090289Y0098995D01*
X0089718Y0097617D01*
X0089718Y0096168D01*
X0088704Y0096168D01*
X0088000Y0095877D01*
X0087296Y0096168D01*
X0082011Y0096168D01*
X0081129Y0095803D01*
X0081126Y0095800D01*
X0080346Y0095800D01*
X0080346Y0096112D02*
X0081875Y0096112D01*
X0082970Y0097711D02*
X0089756Y0097711D01*
X0089617Y0098391D02*
X0089952Y0098726D01*
X0090189Y0099137D01*
X0090312Y0099595D01*
X0090312Y0101616D01*
X0086531Y0101616D01*
X0086531Y0098031D01*
X0088749Y0098031D01*
X0089207Y0098154D01*
X0089617Y0098391D01*
X0090235Y0099309D02*
X0090602Y0099309D01*
X0090312Y0100908D02*
X0094672Y0100908D01*
X0095610Y0102506D02*
X0090312Y0102506D01*
X0090285Y0104105D02*
X0092481Y0104105D01*
X0091654Y0105703D02*
X0083708Y0105703D01*
X0085306Y0107302D02*
X0086624Y0107302D01*
X0086531Y0104105D02*
X0086162Y0104105D01*
X0086162Y0102506D02*
X0086531Y0102506D01*
X0086531Y0100908D02*
X0086162Y0100908D01*
X0086162Y0099309D02*
X0086531Y0099309D01*
X0087432Y0096112D02*
X0088568Y0096112D01*
X0079654Y0101800D02*
X0076346Y0101800D01*
X0062098Y0082004D02*
X0062098Y0073561D01*
X0063664Y0065740D02*
X0070353Y0065740D01*
X0052064Y0020063D02*
X0052064Y0017200D01*
X0012850Y0098889D02*
X0010850Y0101703D01*
X0013000Y0114556D02*
X0019144Y0118900D01*
X0043000Y0119000D01*
X0045200Y0120100D01*
X0047576Y0120100D01*
X0046600Y0128111D02*
X0046600Y0130603D01*
X0046560Y0130701D01*
X0046600Y0130798D01*
X0046600Y0133753D01*
X0046560Y0133850D01*
X0046600Y0133948D01*
X0046600Y0136903D01*
X0046560Y0137000D01*
X0046600Y0137097D01*
X0046600Y0140052D01*
X0046560Y0140150D01*
X0046600Y0140247D01*
X0046600Y0143202D01*
X0046560Y0143299D01*
X0046600Y0143397D01*
X0046600Y0145150D01*
X0048763Y0143158D01*
X0049142Y0142780D01*
X0049201Y0142755D01*
X0049247Y0142712D01*
X0049750Y0142528D01*
X0050244Y0142323D01*
X0050308Y0142323D01*
X0050368Y0142301D01*
X0050902Y0142323D01*
X0070600Y0142323D01*
X0070600Y0140247D01*
X0070640Y0140150D01*
X0070600Y0140052D01*
X0070600Y0137097D01*
X0070640Y0137000D01*
X0070600Y0136903D01*
X0070600Y0133948D01*
X0070965Y0133066D01*
X0071200Y0132831D01*
X0071200Y0132276D01*
X0071918Y0132276D01*
X0071918Y0132276D01*
X0071918Y0132276D01*
X0071200Y0132276D01*
X0071200Y0131720D01*
X0070965Y0131485D01*
X0070600Y0130603D01*
X0070600Y0128578D01*
X0048753Y0128821D01*
X0048380Y0128877D01*
X0048181Y0128828D01*
X0047975Y0128830D01*
X0047626Y0128690D01*
X0047261Y0128599D01*
X0047095Y0128477D01*
X0046904Y0128400D01*
X0046635Y0128137D01*
X0046600Y0128111D01*
X0046600Y0129681D02*
X0070600Y0129681D01*
X0070880Y0131279D02*
X0046600Y0131279D01*
X0046600Y0132878D02*
X0071153Y0132878D01*
X0070600Y0134476D02*
X0046600Y0134476D01*
X0046600Y0136075D02*
X0070600Y0136075D01*
X0070600Y0137673D02*
X0046600Y0137673D01*
X0046600Y0139272D02*
X0070600Y0139272D01*
X0070600Y0140870D02*
X0046600Y0140870D01*
X0046600Y0142469D02*
X0049891Y0142469D01*
X0047776Y0144068D02*
X0046600Y0144068D01*
X0041700Y0144874D02*
X0034926Y0144874D01*
X0018000Y0161800D01*
X0013000Y0161800D01*
X0012502Y0166562D02*
X0019442Y0170568D01*
X0022095Y0170568D01*
X0023198Y0169810D01*
X0023119Y0169620D01*
X0023119Y0166500D01*
X0023485Y0165618D01*
X0024160Y0164943D01*
X0025042Y0164577D01*
X0030721Y0164577D01*
X0031603Y0164943D01*
X0032278Y0165618D01*
X0032644Y0166500D01*
X0032644Y0169620D01*
X0032278Y0170502D01*
X0031603Y0171177D01*
X0030721Y0171543D01*
X0030718Y0171543D01*
X0030709Y0171564D01*
X0030654Y0171859D01*
X0030526Y0172057D01*
X0030721Y0172057D01*
X0031603Y0172423D01*
X0031720Y0172540D01*
X0033956Y0172540D01*
X0033956Y0171800D01*
X0033956Y0170737D01*
X0033722Y0170502D01*
X0033356Y0169620D01*
X0033356Y0166500D01*
X0033722Y0165618D01*
X0034397Y0164943D01*
X0035177Y0164619D01*
X0035177Y0157520D01*
X0035155Y0157460D01*
X0035177Y0156925D01*
X0035177Y0156390D01*
X0035202Y0156331D01*
X0035204Y0156267D01*
X0035429Y0155782D01*
X0035634Y0155287D01*
X0035679Y0155242D01*
X0035706Y0155184D01*
X0036099Y0154822D01*
X0036478Y0154443D01*
X0036537Y0154419D01*
X0039789Y0151424D01*
X0038723Y0151424D01*
X0037841Y0151058D01*
X0037165Y0150383D01*
X0036800Y0149501D01*
X0036800Y0148074D01*
X0036251Y0148074D01*
X0020713Y0163613D01*
X0019813Y0164513D01*
X0018637Y0165000D01*
X0017613Y0165000D01*
X0017397Y0165522D01*
X0016722Y0166197D01*
X0015840Y0166562D01*
X0012502Y0166562D01*
X0015071Y0168045D02*
X0023119Y0168045D01*
X0023141Y0166447D02*
X0016119Y0166447D01*
X0019003Y0164848D02*
X0024388Y0164848D01*
X0022674Y0161651D02*
X0035177Y0161651D01*
X0035177Y0160053D02*
X0024273Y0160053D01*
X0025871Y0158454D02*
X0035177Y0158454D01*
X0035177Y0156856D02*
X0027470Y0156856D01*
X0029068Y0155257D02*
X0035664Y0155257D01*
X0037362Y0153659D02*
X0030667Y0153659D01*
X0032265Y0152060D02*
X0039098Y0152060D01*
X0037244Y0150462D02*
X0033864Y0150462D01*
X0035462Y0148863D02*
X0036800Y0148863D01*
X0033076Y0141724D02*
X0023000Y0151800D01*
X0015126Y0151800D01*
X0013000Y0153926D01*
X0013748Y0146800D02*
X0013000Y0146052D01*
X0013748Y0146800D02*
X0023000Y0146800D01*
X0031225Y0138575D01*
X0041700Y0138575D01*
X0041700Y0135425D02*
X0029375Y0135425D01*
X0028000Y0136800D01*
X0014378Y0136800D01*
X0013000Y0138178D01*
X0014972Y0132276D02*
X0013000Y0130304D01*
X0014972Y0132276D02*
X0041700Y0132276D01*
X0041700Y0129126D02*
X0019696Y0129126D01*
X0013000Y0122430D01*
X0033076Y0141724D02*
X0041700Y0141724D01*
X0044176Y0155540D02*
X0041177Y0158302D01*
X0041177Y0164668D01*
X0041840Y0164943D01*
X0042515Y0165618D01*
X0042881Y0166500D01*
X0042881Y0169620D01*
X0042515Y0170502D01*
X0042281Y0170737D01*
X0042281Y0171800D01*
X0042281Y0172000D01*
X0043223Y0172000D01*
X0044837Y0170108D01*
X0044887Y0169987D01*
X0045248Y0169627D01*
X0045482Y0169352D01*
X0045482Y0168960D01*
X0045847Y0168078D01*
X0046522Y0167403D01*
X0047404Y0167038D01*
X0050638Y0167038D01*
X0050697Y0166897D01*
X0051031Y0166563D01*
X0051231Y0166080D01*
X0052103Y0165208D01*
X0053242Y0164736D01*
X0064030Y0164736D01*
X0064176Y0164676D01*
X0066706Y0164676D01*
X0067588Y0165041D01*
X0067822Y0165276D01*
X0068000Y0165276D01*
X0068178Y0165276D01*
X0068412Y0165041D01*
X0069294Y0164676D01*
X0070334Y0164676D01*
X0074310Y0160699D01*
X0056061Y0160884D01*
X0055076Y0161869D01*
X0053697Y0162440D01*
X0052206Y0162440D01*
X0050827Y0161869D01*
X0050601Y0161643D01*
X0048875Y0161681D01*
X0048561Y0161807D01*
X0047367Y0161793D01*
X0046270Y0161323D01*
X0045436Y0160469D01*
X0044993Y0159361D01*
X0045007Y0158224D01*
X0044542Y0157759D01*
X0044176Y0156877D01*
X0044176Y0155540D01*
X0044176Y0156856D02*
X0042748Y0156856D01*
X0041177Y0158454D02*
X0045004Y0158454D01*
X0045270Y0160053D02*
X0041177Y0160053D01*
X0041177Y0161651D02*
X0047037Y0161651D01*
X0050235Y0161651D02*
X0050609Y0161651D01*
X0052972Y0164848D02*
X0041612Y0164848D01*
X0041177Y0163250D02*
X0071760Y0163250D01*
X0073359Y0161651D02*
X0055294Y0161651D01*
X0051079Y0166447D02*
X0042859Y0166447D01*
X0042881Y0168045D02*
X0045880Y0168045D01*
X0045231Y0169644D02*
X0042871Y0169644D01*
X0042281Y0171242D02*
X0043870Y0171242D01*
X0042281Y0171800D02*
X0038119Y0171800D01*
X0042281Y0171800D01*
X0044700Y0175200D02*
X0038459Y0175200D01*
X0038119Y0171800D02*
X0038119Y0171800D01*
X0038118Y0171800D02*
X0033956Y0171800D01*
X0038118Y0171800D01*
X0038118Y0171800D01*
X0033956Y0171242D02*
X0031446Y0171242D01*
X0032634Y0169644D02*
X0033366Y0169644D01*
X0033356Y0168045D02*
X0032644Y0168045D01*
X0032622Y0166447D02*
X0033378Y0166447D01*
X0034625Y0164848D02*
X0031375Y0164848D01*
X0027624Y0168540D02*
X0027624Y0170650D01*
X0022506Y0174168D01*
X0022506Y0179382D01*
X0025513Y0179389D01*
X0019306Y0179380D02*
X0019306Y0177768D01*
X0018952Y0177768D01*
X0018718Y0177831D01*
X0018242Y0177768D01*
X0017762Y0177768D01*
X0017538Y0177676D01*
X0017298Y0177644D01*
X0016882Y0177404D01*
X0016439Y0177220D01*
X0016268Y0177049D01*
X0006200Y0171238D01*
X0006200Y0208600D01*
X0066857Y0208600D01*
X0066862Y0208205D01*
X0066901Y0201520D01*
X0066636Y0201255D01*
X0066065Y0199877D01*
X0066065Y0199002D01*
X0058226Y0199524D01*
X0057890Y0199861D01*
X0056512Y0200431D01*
X0055020Y0200431D01*
X0053642Y0199861D01*
X0052587Y0198806D01*
X0052016Y0197427D01*
X0052016Y0195936D01*
X0052587Y0194557D01*
X0053642Y0193502D01*
X0055020Y0192931D01*
X0056512Y0192931D01*
X0057890Y0193502D01*
X0057919Y0193531D01*
X0060680Y0193348D01*
X0060680Y0192763D01*
X0060653Y0192763D01*
X0059770Y0192398D01*
X0059536Y0192163D01*
X0058374Y0192163D01*
X0057212Y0192163D01*
X0056978Y0192398D01*
X0056095Y0192763D01*
X0052779Y0192763D01*
X0052469Y0192635D01*
X0052158Y0192763D01*
X0048841Y0192763D01*
X0047959Y0192398D01*
X0047725Y0192163D01*
X0046563Y0192163D01*
X0046563Y0186426D01*
X0046563Y0186426D01*
X0046563Y0192163D01*
X0045145Y0192163D01*
X0044687Y0192040D01*
X0044594Y0191987D01*
X0044502Y0192040D01*
X0044044Y0192163D01*
X0042626Y0192163D01*
X0042626Y0186426D01*
X0042626Y0186426D01*
X0045607Y0186426D01*
X0046563Y0186426D01*
X0046563Y0186426D01*
X0042626Y0186426D01*
X0042626Y0186426D01*
X0042626Y0192163D01*
X0041208Y0192163D01*
X0040750Y0192040D01*
X0040657Y0191987D01*
X0040565Y0192040D01*
X0040107Y0192163D01*
X0038689Y0192163D01*
X0038689Y0186426D01*
X0041670Y0186426D01*
X0042626Y0186426D01*
X0042626Y0186426D01*
X0038689Y0186426D01*
X0038689Y0186426D01*
X0038689Y0186426D01*
X0038689Y0192163D01*
X0037271Y0192163D01*
X0036813Y0192040D01*
X0036720Y0191987D01*
X0036628Y0192040D01*
X0036170Y0192163D01*
X0034752Y0192163D01*
X0034752Y0186426D01*
X0037733Y0186426D01*
X0038689Y0186426D01*
X0038689Y0186426D01*
X0034752Y0186426D01*
X0034752Y0186426D01*
X0034752Y0186426D01*
X0034752Y0192163D01*
X0033590Y0192163D01*
X0033356Y0192398D01*
X0032473Y0192763D01*
X0029156Y0192763D01*
X0028846Y0192635D01*
X0028536Y0192763D01*
X0025219Y0192763D01*
X0024909Y0192635D01*
X0024599Y0192763D01*
X0021282Y0192763D01*
X0020972Y0192635D01*
X0020662Y0192763D01*
X0018845Y0192763D01*
X0018845Y0204226D01*
X0018479Y0205108D01*
X0017804Y0205783D01*
X0016922Y0206149D01*
X0013212Y0206149D01*
X0012329Y0205783D01*
X0011654Y0205108D01*
X0011289Y0204226D01*
X0011289Y0185949D01*
X0011654Y0185066D01*
X0012329Y0184391D01*
X0013212Y0184026D01*
X0015423Y0184026D01*
X0015423Y0182012D01*
X0015788Y0181129D01*
X0016463Y0180454D01*
X0017345Y0180089D01*
X0019335Y0180089D01*
X0019306Y0180019D01*
X0019306Y0180015D01*
X0019305Y0180011D01*
X0019306Y0179380D01*
X0019306Y0179235D02*
X0006200Y0179235D01*
X0006200Y0180833D02*
X0016084Y0180833D01*
X0015423Y0182432D02*
X0006200Y0182432D01*
X0006200Y0184030D02*
X0013201Y0184030D01*
X0011421Y0185629D02*
X0006200Y0185629D01*
X0006200Y0187227D02*
X0011289Y0187227D01*
X0011289Y0188826D02*
X0006200Y0188826D01*
X0006200Y0190424D02*
X0011289Y0190424D01*
X0011289Y0192023D02*
X0006200Y0192023D01*
X0006200Y0193621D02*
X0011289Y0193621D01*
X0011289Y0195220D02*
X0006200Y0195220D01*
X0006200Y0196818D02*
X0011289Y0196818D01*
X0011289Y0198417D02*
X0006200Y0198417D01*
X0006200Y0200015D02*
X0011289Y0200015D01*
X0011289Y0201614D02*
X0006200Y0201614D01*
X0006200Y0203212D02*
X0011289Y0203212D01*
X0011531Y0204811D02*
X0006200Y0204811D01*
X0006200Y0206409D02*
X0066872Y0206409D01*
X0066882Y0204811D02*
X0018603Y0204811D01*
X0018845Y0203212D02*
X0066891Y0203212D01*
X0066901Y0201614D02*
X0018845Y0201614D01*
X0018845Y0200015D02*
X0054015Y0200015D01*
X0052426Y0198417D02*
X0018845Y0198417D01*
X0018845Y0196818D02*
X0052016Y0196818D01*
X0052312Y0195220D02*
X0018845Y0195220D01*
X0018845Y0193621D02*
X0053523Y0193621D01*
X0058374Y0192163D02*
X0058374Y0186426D01*
X0058374Y0186426D01*
X0058374Y0192163D01*
X0058374Y0192023D02*
X0058374Y0192023D01*
X0058374Y0190424D02*
X0058374Y0190424D01*
X0058374Y0188826D02*
X0058374Y0188826D01*
X0058374Y0187227D02*
X0058374Y0187227D01*
X0054400Y0185463D02*
X0054400Y0182100D01*
X0060752Y0175048D01*
X0065441Y0175048D01*
X0065615Y0175575D02*
X0068430Y0177989D01*
X0065133Y0179378D02*
X0064605Y0178924D01*
X0064176Y0178924D01*
X0063294Y0178559D01*
X0062983Y0178248D01*
X0062176Y0178248D01*
X0060438Y0180178D01*
X0060653Y0180089D01*
X0063970Y0180089D01*
X0064280Y0180217D01*
X0064590Y0180089D01*
X0064721Y0180089D01*
X0065132Y0179381D01*
X0065133Y0179378D01*
X0064967Y0179235D02*
X0061288Y0179235D01*
X0056543Y0173257D02*
X0051000Y0181800D01*
X0050400Y0186326D01*
X0046563Y0187227D02*
X0046563Y0187227D01*
X0046563Y0188826D02*
X0046563Y0188826D01*
X0046563Y0190424D02*
X0046563Y0190424D01*
X0046563Y0192023D02*
X0046563Y0192023D01*
X0044657Y0192023D02*
X0044532Y0192023D01*
X0042626Y0192023D02*
X0042626Y0192023D01*
X0042626Y0190424D02*
X0042626Y0190424D01*
X0042626Y0188826D02*
X0042626Y0188826D01*
X0042626Y0187227D02*
X0042626Y0187227D01*
X0040720Y0192023D02*
X0040595Y0192023D01*
X0038689Y0192023D02*
X0038689Y0192023D01*
X0038689Y0190424D02*
X0038689Y0190424D01*
X0038689Y0188826D02*
X0038689Y0188826D01*
X0038689Y0187227D02*
X0038689Y0187227D01*
X0036783Y0192023D02*
X0036658Y0192023D01*
X0034752Y0192023D02*
X0034752Y0192023D01*
X0034752Y0190424D02*
X0034752Y0190424D01*
X0034752Y0188826D02*
X0034752Y0188826D01*
X0034752Y0187227D02*
X0034752Y0187227D01*
X0044700Y0175200D02*
X0047600Y0171800D01*
X0049457Y0171800D01*
X0035177Y0163250D02*
X0021076Y0163250D01*
X0023129Y0169644D02*
X0017841Y0169644D01*
X0014516Y0176038D02*
X0006200Y0176038D01*
X0006200Y0177636D02*
X0017285Y0177636D01*
X0011746Y0174439D02*
X0006200Y0174439D01*
X0006200Y0172841D02*
X0008977Y0172841D01*
X0006208Y0171242D02*
X0006200Y0171242D01*
X0006200Y0208008D02*
X0066863Y0208008D01*
X0066123Y0200015D02*
X0057516Y0200015D01*
X0068000Y0165453D02*
X0068000Y0165453D01*
X0068000Y0165276D01*
X0068000Y0165453D01*
X0068000Y0165453D01*
X0067122Y0164848D02*
X0068878Y0164848D01*
X0085933Y0186426D02*
X0085933Y0192163D01*
X0084771Y0192163D01*
X0084537Y0192398D01*
X0084390Y0192458D01*
X0085440Y0193764D01*
X0085747Y0194071D01*
X0085811Y0194226D01*
X0085916Y0194356D01*
X0086038Y0194773D01*
X0086092Y0194904D01*
X0086092Y0192163D01*
X0085933Y0192163D01*
X0085933Y0186426D01*
X0085933Y0186426D01*
X0085933Y0187227D02*
X0085933Y0187227D01*
X0085933Y0188826D02*
X0085933Y0188826D01*
X0085933Y0190424D02*
X0085933Y0190424D01*
X0085933Y0192023D02*
X0085933Y0192023D01*
X0086092Y0193621D02*
X0085325Y0193621D01*
X0093648Y0193621D02*
X0096122Y0193621D01*
X0097680Y0195220D02*
X0093648Y0195220D01*
X0093648Y0196818D02*
X0099238Y0196818D01*
X0100796Y0198417D02*
X0093648Y0198417D01*
X0093648Y0200015D02*
X0102354Y0200015D01*
X0103728Y0201425D02*
X0093648Y0191083D01*
X0093648Y0204226D01*
X0093283Y0205108D01*
X0092745Y0205646D01*
X0098777Y0205742D01*
X0104998Y0205792D01*
X0104486Y0205180D01*
X0104169Y0204863D01*
X0104119Y0204740D01*
X0104033Y0204639D01*
X0103899Y0204211D01*
X0103728Y0203797D01*
X0103728Y0203664D01*
X0103688Y0203538D01*
X0103728Y0203092D01*
X0103728Y0201425D01*
X0103728Y0201614D02*
X0093648Y0201614D01*
X0093648Y0203212D02*
X0103717Y0203212D01*
X0104148Y0204811D02*
X0093406Y0204811D01*
X0093648Y0192023D02*
X0094564Y0192023D01*
X0098269Y0187227D02*
X0102693Y0187227D01*
X0100955Y0185629D02*
X0096711Y0185629D01*
X0095153Y0184030D02*
X0099217Y0184030D01*
X0098435Y0183311D02*
X0094500Y0183361D01*
X0108844Y0198078D01*
X0109498Y0197424D01*
X0106600Y0194527D01*
X0106600Y0190821D01*
X0098435Y0183311D01*
X0101652Y0178118D02*
X0101256Y0177732D01*
X0101214Y0177715D01*
X0101181Y0177684D01*
X0100661Y0177494D01*
X0100148Y0177289D01*
X0100102Y0177290D01*
X0100060Y0177274D01*
X0099508Y0177297D01*
X0095784Y0177344D01*
X0095802Y0177158D01*
X0096191Y0176997D01*
X0096866Y0176322D01*
X0097120Y0175708D01*
X0097328Y0176067D01*
X0097663Y0176403D01*
X0098074Y0176640D01*
X0098532Y0176762D01*
X0100343Y0176762D01*
X0100343Y0172600D01*
X0100343Y0172600D01*
X0100343Y0176762D01*
X0102155Y0176762D01*
X0102613Y0176640D01*
X0103023Y0176403D01*
X0103358Y0176067D01*
X0103595Y0175657D01*
X0103718Y0175199D01*
X0103718Y0173141D01*
X0106423Y0176709D01*
X0107659Y0178414D01*
X0106600Y0179473D01*
X0106600Y0182669D01*
X0101652Y0178118D01*
X0101049Y0177636D02*
X0107095Y0177636D01*
X0106839Y0179235D02*
X0102866Y0179235D01*
X0103376Y0176038D02*
X0105914Y0176038D01*
X0104702Y0174439D02*
X0103718Y0174439D01*
X0100343Y0174439D02*
X0100343Y0174439D01*
X0100343Y0172841D02*
X0100343Y0172841D01*
X0100343Y0176038D02*
X0100343Y0176038D01*
X0097311Y0176038D02*
X0096984Y0176038D01*
X0092513Y0177954D02*
X0093013Y0172600D01*
X0099827Y0188826D02*
X0104431Y0188826D01*
X0106169Y0190424D02*
X0101384Y0190424D01*
X0102942Y0192023D02*
X0106600Y0192023D01*
X0106600Y0193621D02*
X0104500Y0193621D01*
X0106058Y0195220D02*
X0107293Y0195220D01*
X0107616Y0196818D02*
X0108892Y0196818D01*
X0112500Y0198100D02*
X0112500Y0201800D01*
X0112900Y0201800D01*
X0112900Y0198100D01*
X0112500Y0198100D01*
X0112500Y0198417D02*
X0112900Y0198417D01*
X0112900Y0200015D02*
X0112500Y0200015D01*
X0112500Y0201614D02*
X0112900Y0201614D01*
X0115902Y0197424D02*
X0117276Y0198798D01*
X0119073Y0197000D01*
X0117700Y0195627D01*
X0115902Y0197424D01*
X0116508Y0196818D02*
X0118892Y0196818D01*
X0117656Y0198417D02*
X0116895Y0198417D01*
X0128800Y0193621D02*
X0129800Y0193621D01*
X0129800Y0192023D02*
X0128800Y0192023D01*
X0128800Y0190424D02*
X0129800Y0190424D01*
X0129800Y0188826D02*
X0128152Y0188826D01*
X0128267Y0187227D02*
X0129800Y0187227D01*
X0129800Y0185629D02*
X0128800Y0185629D01*
X0128800Y0184030D02*
X0129800Y0184030D01*
X0129800Y0182432D02*
X0128800Y0182432D01*
X0128800Y0180833D02*
X0129800Y0180833D01*
X0129800Y0179235D02*
X0128800Y0179235D01*
X0128723Y0177636D02*
X0129800Y0177636D01*
X0129800Y0176038D02*
X0127210Y0176038D01*
X0129800Y0174439D02*
X0119448Y0174439D01*
X0117912Y0172841D02*
X0129800Y0172841D01*
X0129800Y0171242D02*
X0116376Y0171242D01*
X0114840Y0169644D02*
X0129800Y0169644D01*
X0129800Y0168045D02*
X0127814Y0168045D01*
X0127883Y0167995D02*
X0127183Y0168504D01*
X0126411Y0168897D01*
X0125588Y0169165D01*
X0124733Y0169300D01*
X0124500Y0169300D01*
X0124500Y0164000D01*
X0129800Y0164000D01*
X0129800Y0164233D01*
X0129665Y0165088D01*
X0129397Y0165911D01*
X0129004Y0166683D01*
X0128495Y0167383D01*
X0127883Y0167995D01*
X0129124Y0166447D02*
X0129800Y0166447D01*
X0129800Y0164848D02*
X0129703Y0164848D01*
X0129781Y0163250D02*
X0129800Y0163250D01*
X0129800Y0161651D02*
X0129378Y0161651D01*
X0129800Y0160053D02*
X0128331Y0160053D01*
X0129800Y0158454D02*
X0126190Y0158454D01*
X0127150Y0156856D02*
X0129800Y0156856D01*
X0129800Y0155257D02*
X0127150Y0155257D01*
X0127150Y0153659D02*
X0129800Y0153659D01*
X0129800Y0152060D02*
X0127150Y0152060D01*
X0127150Y0150462D02*
X0129800Y0150462D01*
X0129800Y0148863D02*
X0127150Y0148863D01*
X0127150Y0147265D02*
X0129800Y0147265D01*
X0129800Y0145666D02*
X0127150Y0145666D01*
X0127150Y0144068D02*
X0129800Y0144068D01*
X0129800Y0142469D02*
X0127150Y0142469D01*
X0127150Y0140870D02*
X0129800Y0140870D01*
X0129800Y0139272D02*
X0127150Y0139272D01*
X0127150Y0137673D02*
X0129800Y0137673D01*
X0129800Y0136075D02*
X0127150Y0136075D01*
X0127150Y0134476D02*
X0129800Y0134476D01*
X0129800Y0132878D02*
X0126522Y0132878D01*
X0129800Y0131279D02*
X0117750Y0131279D01*
X0117264Y0129681D02*
X0129800Y0129681D01*
X0129800Y0128082D02*
X0115307Y0128082D01*
X0112693Y0128082D02*
X0101928Y0128082D01*
X0101928Y0126484D02*
X0129800Y0126484D01*
X0129800Y0124885D02*
X0101928Y0124885D01*
X0101928Y0123287D02*
X0129800Y0123287D01*
X0107928Y0099947D02*
X0110363Y0097713D01*
X0109642Y0096992D01*
X0109071Y0095614D01*
X0109071Y0094660D01*
X0103793Y0094660D01*
X0104062Y0094901D01*
X0104409Y0095625D01*
X0104553Y0095625D01*
X0106365Y0095625D01*
X0106822Y0095748D01*
X0107233Y0095985D01*
X0107568Y0096320D01*
X0107805Y0096730D01*
X0107928Y0097188D01*
X0107928Y0099000D01*
X0107928Y0099947D01*
X0107928Y0099309D02*
X0108623Y0099309D01*
X0107928Y0099000D02*
X0104553Y0099000D01*
X0104553Y0099000D01*
X0107928Y0099000D01*
X0107928Y0097711D02*
X0110361Y0097711D01*
X0109277Y0096112D02*
X0107360Y0096112D01*
X0104553Y0095926D02*
X0104553Y0095625D01*
X0104553Y0095925D01*
X0104553Y0095926D01*
X0104553Y0099000D02*
X0104553Y0102375D01*
X0104553Y0099000D01*
X0104553Y0099000D01*
X0104553Y0099309D02*
X0104553Y0099309D01*
X0104553Y0100908D02*
X0104553Y0100908D01*
X0104553Y0102375D02*
X0104546Y0102375D01*
X0104546Y0107367D01*
X0104931Y0107527D01*
X0104931Y0104543D01*
X0104909Y0104480D01*
X0104931Y0103949D01*
X0104931Y0103417D01*
X0104957Y0103355D01*
X0104960Y0103288D01*
X0105185Y0102806D01*
X0105363Y0102375D01*
X0104553Y0102375D01*
X0104546Y0102506D02*
X0105309Y0102506D01*
X0104925Y0104105D02*
X0104546Y0104105D01*
X0104546Y0105703D02*
X0104931Y0105703D01*
X0104931Y0107302D02*
X0104546Y0107302D01*
X0118406Y0166447D02*
X0119476Y0166447D01*
X0120786Y0168045D02*
X0117282Y0168045D01*
X0124100Y0168045D02*
X0124500Y0168045D01*
X0124500Y0166447D02*
X0124100Y0166447D01*
X0124100Y0164848D02*
X0124500Y0164848D01*
X0106600Y0180833D02*
X0104604Y0180833D01*
X0106342Y0182432D02*
X0106600Y0182432D01*
D42*
X0103800Y0180300D02*
X0110200Y0187000D01*
X0112700Y0182000D02*
X0112700Y0180643D01*
X0112753Y0180500D02*
X0108753Y0174982D01*
X0102800Y0167129D01*
X0099689Y0166829D01*
X0097071Y0166911D01*
X0097071Y0158383D01*
X0093054Y0153765D01*
X0092350Y0153765D02*
X0085925Y0155265D01*
X0086129Y0151951D02*
X0084518Y0149341D01*
X0083518Y0144009D01*
X0080593Y0144602D02*
X0081093Y0150248D01*
X0075554Y0157787D01*
X0055766Y0157987D01*
X0052952Y0158690D02*
X0048000Y0158800D01*
X0048000Y0161800D02*
X0048000Y0166800D01*
X0048000Y0161800D02*
X0068000Y0161800D01*
X0068000Y0168552D01*
X0065800Y0168911D02*
X0065800Y0171800D01*
X0070200Y0171800D01*
X0070559Y0171441D01*
X0070559Y0168552D01*
X0080854Y0158257D01*
X0083000Y0158257D01*
X0083204Y0165726D02*
X0083204Y0174575D01*
X0090943Y0165726D02*
X0092350Y0164319D01*
X0092350Y0160801D01*
X0099896Y0160801D02*
X0098178Y0155283D01*
X0102903Y0156580D02*
X0098171Y0150248D01*
X0097000Y0147600D02*
X0096969Y0144169D01*
X0096969Y0142861D01*
X0095000Y0137800D02*
X0102000Y0137800D01*
X0102000Y0141800D01*
X0100793Y0147433D01*
X0103607Y0152358D02*
X0104607Y0134898D01*
X0101193Y0134984D01*
X0092454Y0134984D01*
X0093054Y0129141D02*
X0093054Y0125624D01*
X0093557Y0121099D02*
X0083976Y0121099D01*
X0071754Y0115878D01*
X0064512Y0115878D01*
X0063505Y0117885D01*
X0060691Y0117181D02*
X0062801Y0113670D01*
X0074058Y0113670D01*
X0084400Y0117200D01*
X0090239Y0117181D01*
X0088129Y0114367D02*
X0104310Y0114367D01*
X0107931Y0110346D01*
X0105000Y0105800D02*
X0104553Y0105353D01*
X0104553Y0099000D01*
X0101696Y0096675D02*
X0095868Y0091446D01*
X0095868Y0071458D01*
X0097275Y0071451D01*
X0093000Y0075800D02*
X0090400Y0070000D01*
X0091000Y0075800D02*
X0093000Y0075800D01*
X0091000Y0075800D02*
X0091000Y0056146D01*
X0089000Y0056146D01*
X0081940Y0049800D02*
X0081940Y0049454D01*
X0078686Y0054176D02*
X0077776Y0053966D01*
X0073354Y0053966D01*
X0068837Y0051048D01*
X0066319Y0051048D01*
X0066268Y0053120D02*
X0063807Y0053120D01*
X0061543Y0050857D01*
X0058000Y0054400D02*
X0057000Y0053400D01*
X0059200Y0042000D01*
X0067000Y0041800D01*
X0069600Y0044400D01*
X0075654Y0044400D01*
X0069654Y0036800D02*
X0061769Y0036800D01*
X0061769Y0031736D01*
X0059800Y0031736D02*
X0059800Y0039200D01*
X0055200Y0041200D01*
X0043000Y0046800D01*
X0039000Y0037088D02*
X0052800Y0036700D01*
X0055600Y0037200D02*
X0056800Y0036000D01*
X0057800Y0034900D01*
X0057900Y0031868D01*
X0057831Y0031736D01*
X0055863Y0031736D02*
X0055863Y0029800D01*
X0057863Y0027800D01*
X0056300Y0027800D01*
X0056200Y0027900D01*
X0055700Y0027900D01*
X0055600Y0027800D01*
X0055600Y0029100D01*
X0055800Y0029300D01*
X0055800Y0031500D01*
X0055700Y0031600D01*
X0048400Y0031600D01*
X0051000Y0031736D02*
X0051000Y0031800D01*
X0052064Y0031800D01*
X0052064Y0027937D01*
X0052064Y0025969D02*
X0052764Y0026000D01*
X0045400Y0026000D01*
X0045200Y0029854D01*
X0039346Y0024000D02*
X0052064Y0024000D01*
X0052064Y0022031D02*
X0052064Y0020063D01*
X0052064Y0017200D02*
X0055863Y0017200D01*
X0055863Y0016264D01*
X0057831Y0016264D02*
X0059800Y0016264D01*
X0055863Y0024000D02*
X0055863Y0029800D01*
X0055863Y0031736D02*
X0051000Y0031736D01*
X0057863Y0027800D02*
X0063000Y0027800D01*
X0067536Y0022031D02*
X0067536Y0022000D01*
X0069100Y0032300D02*
X0078900Y0032300D01*
X0080500Y0032300D01*
X0085000Y0027800D01*
X0080346Y0028700D02*
X0079000Y0029100D01*
X0078900Y0032300D01*
X0091000Y0019800D02*
X0097000Y0025800D01*
X0102170Y0025800D01*
X0113000Y0025800D01*
X0117000Y0021800D01*
X0125000Y0021800D01*
X0102833Y0025137D02*
X0102170Y0025800D01*
X0102833Y0017263D02*
X0102833Y0016633D01*
X0091000Y0019800D02*
X0091000Y0011800D01*
X0085846Y0011800D01*
X0075465Y0055973D02*
X0066319Y0055973D01*
X0062098Y0062305D02*
X0061543Y0062305D01*
X0061543Y0057943D01*
X0059283Y0070747D02*
X0061394Y0072858D01*
X0072447Y0089039D02*
X0069837Y0091150D01*
X0069133Y0104821D02*
X0062098Y0104821D01*
X0059383Y0108735D01*
X0040388Y0108735D01*
X0038884Y0107431D01*
X0038884Y0106024D01*
X0033252Y0099593D01*
X0027624Y0099593D01*
X0016367Y0110849D01*
X0011443Y0110849D01*
X0017071Y0121402D02*
X0042398Y0121402D01*
X0048520Y0125924D01*
X0075465Y0125624D01*
X0076169Y0129141D02*
X0081093Y0129141D01*
X0083907Y0131956D01*
X0083907Y0136287D01*
X0081797Y0138287D02*
X0076169Y0138287D01*
X0076169Y0135473D02*
X0081093Y0135473D01*
X0088832Y0139694D02*
X0088832Y0146026D01*
X0098000Y0131800D02*
X0096969Y0130769D01*
X0096969Y0125539D01*
X0093557Y0121099D02*
X0095868Y0118588D01*
X0101496Y0118588D01*
X0090943Y0110146D02*
X0095378Y0106510D01*
X0093000Y0101800D02*
X0086346Y0101800D01*
X0093468Y0096871D02*
X0097978Y0097482D01*
X0088129Y0087632D02*
X0084611Y0084115D01*
X0088832Y0079190D02*
X0088332Y0077079D01*
X0088832Y0079190D02*
X0090943Y0081300D01*
X0101800Y0077299D02*
X0103000Y0077299D01*
X0112731Y0092868D02*
X0112821Y0094868D01*
X0112753Y0099593D02*
X0116974Y0099593D01*
X0119957Y0144800D02*
X0120600Y0145500D01*
X0107717Y0160801D02*
X0107828Y0162911D01*
X0107828Y0166533D01*
X0122602Y0181907D01*
X0117678Y0179796D02*
X0104007Y0165726D01*
X0107717Y0160801D02*
X0099896Y0160801D01*
X0100343Y0172600D02*
X0103800Y0172600D01*
X0103800Y0180300D01*
X0097400Y0183600D02*
X0097400Y0186700D01*
X0112700Y0202000D01*
X0112753Y0201606D02*
X0117678Y0196681D01*
X0122602Y0202310D02*
X0122300Y0206300D01*
X0123506Y0208842D02*
X0127527Y0204420D01*
X0123506Y0208842D02*
X0098743Y0208642D01*
X0083197Y0208396D01*
X0069761Y0208231D01*
X0069815Y0199131D01*
X0065615Y0193164D02*
X0064430Y0193164D01*
X0065615Y0193164D02*
X0062801Y0190350D01*
X0058374Y0186426D02*
X0058000Y0186052D01*
X0059000Y0181800D01*
X0060600Y0179200D01*
X0062000Y0179200D01*
X0056543Y0173257D02*
X0056543Y0171800D01*
X0053155Y0173465D02*
X0053155Y0168540D01*
X0053155Y0173465D02*
X0051500Y0176300D01*
X0054400Y0185463D02*
X0054437Y0186426D01*
X0050500Y0186426D02*
X0050400Y0186326D01*
X0043000Y0191800D02*
X0043000Y0201800D01*
X0023000Y0201800D01*
X0018000Y0206800D01*
X0008000Y0206800D01*
X0008000Y0176800D01*
X0028200Y0161200D02*
X0033000Y0156800D01*
X0033000Y0171800D01*
X0038119Y0171800D01*
X0038459Y0175200D02*
X0038119Y0175540D01*
X0042398Y0186426D02*
X0042398Y0191198D01*
X0043000Y0191800D01*
X0064912Y0168540D02*
X0064208Y0167836D01*
X0065441Y0168552D02*
X0065800Y0168911D01*
X0060691Y0148841D02*
X0050855Y0148841D01*
X0050841Y0151655D01*
X0057173Y0119995D02*
X0057173Y0116478D01*
X0060425Y0113225D02*
X0064208Y0109442D01*
X0069133Y0104821D02*
X0071244Y0107331D01*
X0038000Y0056800D02*
X0038502Y0056298D01*
X0033000Y0029800D02*
X0033000Y0025800D01*
X0025000Y0025800D01*
X0093013Y0172600D02*
X0093257Y0172600D01*
X0083204Y0198089D02*
X0083197Y0208396D01*
X0096000Y0206200D02*
X0098000Y0201800D01*
X0106628Y0203220D02*
X0106628Y0200103D01*
X0106628Y0203220D02*
X0108200Y0205100D01*
D43*
X0106628Y0200103D02*
X0090189Y0183236D01*
X0092513Y0177954D02*
X0068430Y0177989D01*
X0067837Y0180696D02*
X0099589Y0180296D01*
X0112049Y0191757D01*
X0096000Y0206200D02*
X0086133Y0206133D01*
X0085933Y0186426D01*
X0078279Y0189646D02*
X0083204Y0195771D01*
X0083204Y0198089D01*
X0080390Y0195978D02*
X0074761Y0190350D01*
X0070644Y0187335D02*
X0071000Y0193800D01*
X0069000Y0195800D01*
X0055766Y0196681D01*
X0049000Y0179800D02*
X0049000Y0176300D01*
X0051500Y0176300D01*
X0049000Y0179800D02*
X0040170Y0179889D01*
X0025513Y0179389D01*
X0027881Y0175540D02*
X0038119Y0175540D01*
X0038119Y0171800D02*
X0045000Y0168800D01*
X0048000Y0166800D01*
X0048000Y0158800D02*
X0048027Y0156580D01*
X0038177Y0156987D02*
X0050841Y0145323D01*
X0075465Y0145323D01*
X0075465Y0148137D02*
X0066008Y0148137D01*
X0082907Y0153748D02*
X0085925Y0155265D01*
X0083204Y0157987D01*
X0087425Y0148730D02*
X0090943Y0150248D01*
X0087425Y0148730D02*
X0085925Y0141805D01*
X0083907Y0136287D01*
X0086722Y0133473D02*
X0093054Y0129141D01*
X0090943Y0125624D02*
X0086218Y0125548D01*
X0085715Y0125148D02*
X0076465Y0121499D01*
X0069837Y0120699D01*
X0069133Y0119995D02*
X0067022Y0119995D01*
X0066474Y0120100D01*
X0071947Y0107331D02*
X0081093Y0107331D01*
X0088129Y0114367D01*
X0098000Y0131800D02*
X0114000Y0131600D01*
X0119957Y0144800D02*
X0103100Y0156657D01*
X0090943Y0139694D02*
X0092454Y0134984D01*
X0107931Y0110346D02*
X0107931Y0104014D01*
X0112753Y0099593D01*
X0112731Y0092868D02*
X0108739Y0078661D01*
X0108839Y0067751D01*
X0106421Y0067933D01*
X0088332Y0077079D02*
X0087222Y0074969D01*
X0086722Y0063712D01*
X0078176Y0065919D02*
X0078176Y0058883D01*
X0075465Y0055973D01*
X0072247Y0068547D02*
X0072447Y0089039D01*
X0049732Y0053120D02*
X0049732Y0050561D01*
X0049900Y0031700D02*
X0055800Y0031700D01*
X0055800Y0029300D01*
X0055800Y0027900D01*
X0056100Y0027600D01*
X0063000Y0027800D01*
X0067000Y0019800D02*
X0067000Y0017800D01*
X0069000Y0017800D01*
X0073400Y0017363D01*
X0078983Y0017981D02*
X0076761Y0022203D01*
X0069726Y0022203D01*
X0069000Y0020063D02*
X0067536Y0020063D01*
X0067536Y0016264D01*
X0065000Y0016264D01*
X0065000Y0017400D01*
X0067000Y0019800D02*
X0069000Y0020063D01*
X0067726Y0024313D02*
X0078872Y0024313D01*
X0081586Y0022399D01*
X0084600Y0022399D01*
X0085907Y0020092D01*
X0088018Y0022203D01*
X0084847Y0036800D02*
X0084847Y0037800D01*
X0084847Y0036800D02*
X0076346Y0036800D01*
X0073654Y0028700D02*
X0074654Y0027937D01*
X0067536Y0027937D01*
X0061769Y0016574D02*
X0061000Y0016574D01*
X0059987Y0016574D01*
X0061769Y0016574D02*
X0061769Y0016264D01*
X0041695Y0125624D02*
X0034659Y0125624D01*
X0038177Y0156987D02*
X0038177Y0167836D01*
X0066319Y0183314D02*
X0067837Y0180696D01*
D44*
X0066319Y0183314D02*
X0066319Y0186128D01*
X0066248Y0186426D01*
X0062801Y0186832D02*
X0062311Y0186426D01*
X0062801Y0186832D02*
X0062801Y0190350D01*
X0070185Y0186426D02*
X0070540Y0186832D01*
X0070644Y0187335D01*
X0074122Y0186426D02*
X0074761Y0186832D01*
X0074761Y0190350D01*
X0078279Y0186832D02*
X0078059Y0186426D01*
X0078279Y0186832D02*
X0078279Y0189646D01*
X0080390Y0195978D02*
X0080390Y0197385D01*
X0065615Y0175575D02*
X0065441Y0175048D01*
X0065441Y0168552D02*
X0064912Y0168540D01*
X0069837Y0154469D02*
X0069624Y0153900D01*
X0069837Y0154469D02*
X0073354Y0154469D01*
X0075465Y0148137D02*
X0075500Y0148024D01*
X0075465Y0145323D02*
X0075500Y0144874D01*
X0075500Y0138575D02*
X0076169Y0138287D01*
X0076169Y0135473D02*
X0075500Y0135425D01*
X0075465Y0132659D02*
X0075500Y0132276D01*
X0075465Y0132659D02*
X0072651Y0132659D01*
X0070540Y0134770D01*
X0070540Y0135473D01*
X0075500Y0129126D02*
X0076169Y0129141D01*
X0075500Y0125976D02*
X0075465Y0125624D01*
X0069837Y0120699D02*
X0069624Y0120100D01*
X0069133Y0119995D01*
X0063505Y0119995D02*
X0063505Y0117885D01*
X0063505Y0119995D02*
X0063324Y0120100D01*
X0060691Y0119995D02*
X0060691Y0117181D01*
X0060691Y0119995D02*
X0060175Y0120100D01*
X0057173Y0119995D02*
X0057025Y0120100D01*
X0057173Y0116478D02*
X0060425Y0113225D01*
X0064208Y0109442D02*
X0064457Y0108800D01*
X0071244Y0107331D02*
X0071543Y0108800D01*
X0071947Y0107331D01*
X0076169Y0102007D02*
X0076346Y0101800D01*
X0069654Y0091800D02*
X0069837Y0091150D01*
X0062098Y0082004D02*
X0061654Y0082400D01*
X0062098Y0073561D02*
X0061746Y0073200D01*
X0061394Y0072858D01*
X0059283Y0063008D02*
X0059280Y0062668D01*
X0061839Y0062668D02*
X0062098Y0062305D01*
X0062098Y0058083D02*
X0061543Y0057943D01*
X0066319Y0055973D02*
X0066268Y0055680D01*
X0066319Y0051048D02*
X0066268Y0050561D01*
X0057876Y0032052D02*
X0057831Y0031736D01*
X0067536Y0025969D02*
X0067726Y0025720D01*
X0067726Y0024313D01*
X0067536Y0024000D01*
X0067536Y0022031D02*
X0069726Y0022203D01*
X0061769Y0016264D02*
X0061394Y0016574D01*
X0059987Y0016574D02*
X0059800Y0016264D01*
X0059987Y0015871D01*
X0078983Y0017981D02*
X0079654Y0017800D01*
X0086018Y0017981D02*
X0086346Y0017800D01*
X0090239Y0036977D02*
X0090753Y0037800D01*
X0094978Y0045516D02*
X0096571Y0045516D01*
X0101496Y0064415D02*
X0101800Y0064701D01*
X0101800Y0067850D02*
X0102200Y0067933D01*
X0106421Y0067933D01*
X0101800Y0071000D02*
X0101496Y0071451D01*
X0097275Y0071451D01*
X0092200Y0081946D02*
X0090943Y0081300D01*
X0084611Y0084115D02*
X0084000Y0084646D01*
X0097978Y0097482D02*
X0097978Y0098889D01*
X0098647Y0099000D01*
X0101696Y0110249D02*
X0101500Y0111257D01*
X0101500Y0118343D02*
X0101496Y0118588D01*
X0093031Y0125539D02*
X0093054Y0125624D01*
X0091063Y0125539D02*
X0090943Y0125624D01*
X0090500Y0117843D02*
X0090239Y0117181D01*
X0090500Y0110757D02*
X0090943Y0110146D01*
X0085715Y0125148D02*
X0086218Y0125548D01*
X0088129Y0136991D02*
X0088832Y0139694D01*
X0090943Y0139694D02*
X0090943Y0142509D01*
X0091063Y0142861D01*
X0093031Y0142861D02*
X0093054Y0142509D01*
X0093054Y0139694D01*
X0095000Y0137800D01*
X0095000Y0142861D02*
X0094964Y0143212D01*
X0094964Y0146026D01*
X0094261Y0146730D01*
X0089536Y0146730D01*
X0088832Y0146026D01*
X0093000Y0153257D02*
X0093054Y0153765D01*
X0093000Y0153257D02*
X0092350Y0153765D01*
X0093000Y0160343D02*
X0092350Y0160801D01*
X0098178Y0155283D02*
X0097978Y0154572D01*
X0102903Y0156580D02*
X0103100Y0156657D01*
X0103100Y0163743D02*
X0103607Y0164319D01*
X0104007Y0165726D01*
X0112753Y0180500D02*
X0112700Y0182000D01*
X0117678Y0179796D02*
X0117678Y0186600D01*
X0112700Y0192000D02*
X0112049Y0191757D01*
X0112753Y0201606D02*
X0112700Y0202000D01*
X0122602Y0202310D02*
X0122700Y0202000D01*
X0127527Y0204420D02*
X0127527Y0196681D01*
X0123306Y0192460D01*
X0122700Y0192000D01*
X0122700Y0182000D02*
X0122602Y0181907D01*
X0083204Y0165726D02*
X0083000Y0165343D01*
X0083000Y0158257D02*
X0083204Y0157987D01*
X0083518Y0144009D02*
X0081797Y0138287D01*
X0055766Y0157987D02*
X0054359Y0156580D01*
X0054359Y0154469D01*
X0053876Y0153900D01*
X0050841Y0153765D02*
X0050841Y0151655D01*
X0050841Y0153765D02*
X0050726Y0153900D01*
X0048027Y0154469D02*
X0047576Y0153900D01*
X0048027Y0154469D02*
X0048027Y0156580D01*
X0053859Y0167836D02*
X0053155Y0168540D01*
X0042170Y0179796D02*
X0040170Y0179889D01*
X0038689Y0186426D02*
X0038177Y0186832D01*
X0038177Y0186426D01*
X0042398Y0186426D02*
X0042398Y0186832D01*
X0042626Y0186426D01*
X0038119Y0168060D02*
X0038177Y0167836D01*
X0027881Y0168060D02*
X0027624Y0168540D01*
X0034659Y0125624D02*
X0033956Y0124920D01*
X0041695Y0125624D02*
X0041700Y0125976D01*
X0043806Y0093261D02*
X0043806Y0092854D01*
X0044000Y0093088D02*
X0043806Y0093261D01*
X0035363Y0070747D02*
X0035200Y0070287D01*
X0035200Y0056113D02*
X0035363Y0055973D01*
X0038177Y0055973D01*
X0038502Y0056298D01*
X0021000Y0035847D02*
X0021292Y0035459D01*
X0014000Y0075512D02*
X0014257Y0075672D01*
X0013553Y0098185D02*
X0013000Y0098808D01*
X0012850Y0098889D01*
X0011443Y0110849D02*
X0009332Y0112960D01*
X0009332Y0116478D01*
X0011443Y0118588D01*
X0014257Y0118588D01*
X0017071Y0121402D01*
X0081797Y0046123D02*
X0082346Y0044400D01*
X0116974Y0099593D02*
X0120492Y0103110D01*
X0120492Y0108739D01*
X0120600Y0108100D01*
D45*
X0098171Y0150248D02*
X0090943Y0150248D01*
X0110200Y0187000D02*
X0117278Y0187000D01*
X0117678Y0186600D01*
X0117678Y0196681D01*
X0119000Y0206335D02*
X0118678Y0207035D01*
X0108942Y0206935D01*
X0108200Y0206835D01*
X0108200Y0205100D01*
X0119000Y0206335D02*
X0122300Y0206300D01*
X0060691Y0101607D02*
X0060187Y0101710D01*
X0068346Y0082400D02*
X0068346Y0068000D01*
X0067800Y0068000D01*
X0067800Y0067000D01*
X0063000Y0067000D01*
X0063000Y0062305D01*
X0062098Y0062305D01*
X0014000Y0075512D02*
X0014000Y0076800D01*
D46*
X0043000Y0081800D03*
X0051000Y0087800D03*
X0056900Y0105300D03*
X0057000Y0111800D03*
X0070540Y0135473D03*
X0066008Y0148137D03*
X0060691Y0148841D03*
X0052952Y0158690D03*
X0062000Y0179200D03*
X0064430Y0193164D03*
X0069815Y0199131D03*
X0080390Y0197385D03*
X0090189Y0183236D03*
X0083204Y0174575D03*
X0090943Y0165726D03*
X0097978Y0154572D03*
X0097000Y0147600D03*
X0100793Y0147433D03*
X0103607Y0152358D03*
X0114000Y0131600D03*
X0105000Y0105800D03*
X0112821Y0094868D03*
X0101100Y0081600D03*
X0093468Y0096871D03*
X0093000Y0101800D03*
X0095378Y0106510D03*
X0088129Y0087632D03*
X0083000Y0071800D03*
X0086722Y0063712D03*
X0090400Y0070000D03*
X0078686Y0054176D03*
X0071000Y0047800D03*
X0085000Y0027800D03*
X0073000Y0017800D03*
X0060900Y0012800D03*
X0048400Y0031600D03*
X0052800Y0036700D03*
X0025000Y0025800D03*
X0078000Y0081800D03*
X0086218Y0125548D03*
X0086722Y0133473D03*
X0088129Y0136991D03*
X0081093Y0135473D03*
X0080593Y0144602D03*
X0086129Y0151951D03*
X0082907Y0153748D03*
X0073354Y0154469D03*
X0097400Y0183600D03*
X0098000Y0201800D03*
X0055766Y0196681D03*
X0042170Y0179796D03*
X0028200Y0161200D03*
X0008000Y0176800D03*
X0033956Y0124920D03*
X0101000Y0039800D03*
X0125000Y0021800D03*
D47*
X0078176Y0065919D02*
X0072247Y0068547D01*
X0049732Y0053120D02*
X0041680Y0053120D01*
X0038502Y0056298D01*
X0043000Y0046800D02*
X0031346Y0046800D01*
X0024654Y0046800D02*
X0024654Y0041753D01*
X0021000Y0041753D01*
X0039346Y0029400D02*
X0045200Y0029854D01*
X0055863Y0024000D02*
X0059800Y0024000D01*
X0064208Y0167836D02*
X0053859Y0167836D01*
D48*
X0022506Y0174168D02*
X0018478Y0174168D01*
X0007125Y0167615D01*
X0007125Y0106628D02*
X0010850Y0101703D01*
X0013553Y0098185D02*
X0023071Y0094668D01*
X0035363Y0092557D02*
X0036288Y0098982D01*
X0051034Y0098982D01*
X0052662Y0101610D01*
X0060187Y0101710D01*
X0060691Y0101607D02*
X0076169Y0102007D01*
X0091346Y0091800D02*
X0092846Y0081946D01*
X0101100Y0081600D02*
X0103000Y0077299D01*
X0083000Y0071800D02*
X0081940Y0061876D01*
X0082346Y0044400D02*
X0087000Y0044400D01*
X0087000Y0041800D01*
X0090753Y0041800D01*
X0090753Y0037800D01*
X0094978Y0037800D01*
X0094978Y0039800D01*
X0090239Y0036977D02*
X0090018Y0024756D01*
X0088018Y0022203D01*
X0085907Y0020092D02*
X0086018Y0017981D01*
X0076346Y0036800D02*
X0076346Y0037800D01*
X0061000Y0016574D02*
X0060900Y0012800D01*
X0054161Y0062668D02*
X0054161Y0072308D01*
X0055054Y0073200D01*
X0051000Y0087800D02*
X0045946Y0092854D01*
X0043000Y0092854D01*
D49*
X0035363Y0092557D02*
X0035363Y0070747D01*
X0023071Y0089743D02*
X0023071Y0094668D01*
X0023071Y0089743D02*
X0014257Y0084929D01*
X0014257Y0075672D01*
X0043806Y0037088D02*
X0045916Y0036977D01*
X0054759Y0037177D01*
X0052064Y0017200D02*
X0045000Y0017200D01*
X0045000Y0005800D01*
X0099000Y0005800D01*
X0099000Y0017263D01*
X0094978Y0045516D02*
X0094978Y0058683D01*
X0101496Y0062601D01*
X0084654Y0091800D02*
X0078000Y0091800D01*
X0076346Y0091800D02*
X0076346Y0101800D01*
X0045000Y0017200D02*
X0024746Y0017200D01*
D50*
X0007125Y0106628D02*
X0007125Y0167615D01*
D51*
X0101696Y0110249D02*
X0101696Y0096675D01*
D52*
X0078000Y0091800D02*
X0078000Y0081800D01*
X0094978Y0045516D02*
X0094978Y0039800D01*
X0101000Y0039800D01*
X0043806Y0037088D02*
X0039000Y0037088D01*
X0027000Y0037088D01*
X0027000Y0033800D01*
X0021000Y0033800D01*
X0021000Y0035847D01*
X0026920Y0037088D02*
X0027000Y0037088D01*
X0035200Y0082000D02*
X0043000Y0081800D01*
D53*
X0065000Y0017400D02*
X0063737Y0016264D01*
M02*
