G75*
%MOIN*%
%OFA0B0*%
%FSLAX25Y25*%
%IPPOS*%
%LPD*%
%AMOC8*
5,1,8,0,0,1.08239X$1,22.5*
%
%ADD10R,0.05000X0.02000*%
%ADD11R,0.02000X0.05000*%
%ADD12R,0.07400X0.07400*%
%ADD13OC8,0.07400*%
%ADD14R,0.04724X0.03150*%
%ADD15R,0.03150X0.04724*%
%ADD16R,0.04724X0.04724*%
%ADD17C,0.04724*%
%ADD18R,0.06299X0.05512*%
%ADD19R,0.01181X0.05512*%
%ADD20C,0.00012*%
%ADD21C,0.07400*%
%ADD22R,0.08300X0.22000*%
%ADD23R,0.03937X0.04331*%
%ADD24R,0.04331X0.03937*%
%ADD25R,0.15748X0.07087*%
%ADD26R,0.09449X0.07874*%
%ADD27R,0.09087X0.01969*%
%ADD28C,0.01378*%
%ADD29C,0.02975*%
%ADD30R,0.02874X0.01102*%
%ADD31R,0.01102X0.02874*%
%ADD32R,0.09843X0.09843*%
%ADD33R,0.18110X0.03937*%
%ADD34R,0.13386X0.06299*%
%ADD35R,0.03937X0.05512*%
%ADD36R,0.03150X0.03150*%
%ADD37R,0.02756X0.17323*%
%ADD38R,0.02362X0.07874*%
%ADD39R,0.01575X0.02953*%
%ADD40R,0.04724X0.02165*%
%ADD41C,0.01600*%
%ADD42C,0.01000*%
%ADD43C,0.00600*%
%ADD44C,0.02700*%
%ADD45C,0.03762*%
%ADD46C,0.01200*%
%ADD47C,0.03200*%
D10*
X0040500Y0126176D03*
X0040500Y0129326D03*
X0040500Y0132476D03*
X0040500Y0135625D03*
X0040500Y0138775D03*
X0040500Y0141924D03*
X0040500Y0145074D03*
X0040500Y0148224D03*
X0074300Y0148224D03*
X0074300Y0145074D03*
X0074300Y0141924D03*
X0074300Y0138775D03*
X0074300Y0135625D03*
X0074300Y0132476D03*
X0074300Y0129326D03*
X0074300Y0126176D03*
D11*
X0068424Y0120300D03*
X0065274Y0120300D03*
X0062124Y0120300D03*
X0058975Y0120300D03*
X0055825Y0120300D03*
X0052676Y0120300D03*
X0049526Y0120300D03*
X0046376Y0120300D03*
X0046376Y0154100D03*
X0049526Y0154100D03*
X0052676Y0154100D03*
X0055825Y0154100D03*
X0058975Y0154100D03*
X0062124Y0154100D03*
X0065274Y0154100D03*
X0068424Y0154100D03*
D12*
X0121500Y0182200D03*
D13*
X0121500Y0192200D03*
X0121500Y0202200D03*
X0111500Y0202200D03*
X0111500Y0192200D03*
X0111500Y0182200D03*
D14*
X0101900Y0163943D03*
X0101900Y0156857D03*
X0091800Y0153457D03*
X0091800Y0160543D03*
X0081800Y0158457D03*
X0081800Y0165543D03*
X0089300Y0118043D03*
X0089300Y0110957D03*
X0100300Y0111457D03*
X0100300Y0118543D03*
X0029300Y0103043D03*
X0029300Y0095957D03*
D15*
X0063257Y0107000D03*
X0070343Y0107000D03*
X0055343Y0172000D03*
X0048257Y0172000D03*
X0094057Y0172800D03*
X0101143Y0172800D03*
D16*
X0011800Y0162000D03*
D17*
X0011800Y0154126D03*
X0011800Y0146252D03*
X0011800Y0138378D03*
X0011800Y0130504D03*
X0011800Y0122630D03*
X0011800Y0114756D03*
X0011800Y0106882D03*
X0011800Y0099008D03*
X0011800Y0091134D03*
D18*
X0012800Y0075712D03*
X0012800Y0064688D03*
X0042800Y0093288D03*
X0042800Y0104312D03*
D19*
X0089863Y0143061D03*
X0091831Y0143061D03*
X0093800Y0143061D03*
X0095769Y0143061D03*
X0097737Y0143061D03*
X0097737Y0125739D03*
X0095769Y0125739D03*
X0093800Y0125739D03*
X0091831Y0125739D03*
D20*
X0089279Y0122989D02*
X0089279Y0128489D01*
X0090447Y0128489D01*
X0090447Y0122989D01*
X0089279Y0122989D01*
X0089279Y0123000D02*
X0090447Y0123000D01*
X0090447Y0123011D02*
X0089279Y0123011D01*
X0089279Y0123022D02*
X0090447Y0123022D01*
X0090447Y0123033D02*
X0089279Y0123033D01*
X0089279Y0123044D02*
X0090447Y0123044D01*
X0090447Y0123055D02*
X0089279Y0123055D01*
X0089279Y0123066D02*
X0090447Y0123066D01*
X0090447Y0123077D02*
X0089279Y0123077D01*
X0089279Y0123088D02*
X0090447Y0123088D01*
X0090447Y0123099D02*
X0089279Y0123099D01*
X0089279Y0123110D02*
X0090447Y0123110D01*
X0090447Y0123121D02*
X0089279Y0123121D01*
X0089279Y0123132D02*
X0090447Y0123132D01*
X0090447Y0123143D02*
X0089279Y0123143D01*
X0089279Y0123154D02*
X0090447Y0123154D01*
X0090447Y0123165D02*
X0089279Y0123165D01*
X0089279Y0123176D02*
X0090447Y0123176D01*
X0090447Y0123187D02*
X0089279Y0123187D01*
X0089279Y0123198D02*
X0090447Y0123198D01*
X0090447Y0123209D02*
X0089279Y0123209D01*
X0089279Y0123220D02*
X0090447Y0123220D01*
X0090447Y0123231D02*
X0089279Y0123231D01*
X0089279Y0123242D02*
X0090447Y0123242D01*
X0090447Y0123253D02*
X0089279Y0123253D01*
X0089279Y0123264D02*
X0090447Y0123264D01*
X0090447Y0123275D02*
X0089279Y0123275D01*
X0089279Y0123286D02*
X0090447Y0123286D01*
X0090447Y0123297D02*
X0089279Y0123297D01*
X0089279Y0123308D02*
X0090447Y0123308D01*
X0090447Y0123319D02*
X0089279Y0123319D01*
X0089279Y0123330D02*
X0090447Y0123330D01*
X0090447Y0123341D02*
X0089279Y0123341D01*
X0089279Y0123352D02*
X0090447Y0123352D01*
X0090447Y0123363D02*
X0089279Y0123363D01*
X0089279Y0123374D02*
X0090447Y0123374D01*
X0090447Y0123385D02*
X0089279Y0123385D01*
X0089279Y0123396D02*
X0090447Y0123396D01*
X0090447Y0123407D02*
X0089279Y0123407D01*
X0089279Y0123418D02*
X0090447Y0123418D01*
X0090447Y0123429D02*
X0089279Y0123429D01*
X0089279Y0123440D02*
X0090447Y0123440D01*
X0090447Y0123451D02*
X0089279Y0123451D01*
X0089279Y0123462D02*
X0090447Y0123462D01*
X0090447Y0123473D02*
X0089279Y0123473D01*
X0089279Y0123484D02*
X0090447Y0123484D01*
X0090447Y0123495D02*
X0089279Y0123495D01*
X0089279Y0123506D02*
X0090447Y0123506D01*
X0090447Y0123517D02*
X0089279Y0123517D01*
X0089279Y0123528D02*
X0090447Y0123528D01*
X0090447Y0123539D02*
X0089279Y0123539D01*
X0089279Y0123550D02*
X0090447Y0123550D01*
X0090447Y0123561D02*
X0089279Y0123561D01*
X0089279Y0123572D02*
X0090447Y0123572D01*
X0090447Y0123583D02*
X0089279Y0123583D01*
X0089279Y0123594D02*
X0090447Y0123594D01*
X0090447Y0123605D02*
X0089279Y0123605D01*
X0089279Y0123616D02*
X0090447Y0123616D01*
X0090447Y0123627D02*
X0089279Y0123627D01*
X0089279Y0123638D02*
X0090447Y0123638D01*
X0090447Y0123649D02*
X0089279Y0123649D01*
X0089279Y0123660D02*
X0090447Y0123660D01*
X0090447Y0123671D02*
X0089279Y0123671D01*
X0089279Y0123682D02*
X0090447Y0123682D01*
X0090447Y0123693D02*
X0089279Y0123693D01*
X0089279Y0123704D02*
X0090447Y0123704D01*
X0090447Y0123715D02*
X0089279Y0123715D01*
X0089279Y0123726D02*
X0090447Y0123726D01*
X0090447Y0123737D02*
X0089279Y0123737D01*
X0089279Y0123748D02*
X0090447Y0123748D01*
X0090447Y0123759D02*
X0089279Y0123759D01*
X0089279Y0123770D02*
X0090447Y0123770D01*
X0090447Y0123781D02*
X0089279Y0123781D01*
X0089279Y0123792D02*
X0090447Y0123792D01*
X0090447Y0123803D02*
X0089279Y0123803D01*
X0089279Y0123814D02*
X0090447Y0123814D01*
X0090447Y0123825D02*
X0089279Y0123825D01*
X0089279Y0123836D02*
X0090447Y0123836D01*
X0090447Y0123847D02*
X0089279Y0123847D01*
X0089279Y0123858D02*
X0090447Y0123858D01*
X0090447Y0123869D02*
X0089279Y0123869D01*
X0089279Y0123880D02*
X0090447Y0123880D01*
X0090447Y0123891D02*
X0089279Y0123891D01*
X0089279Y0123902D02*
X0090447Y0123902D01*
X0090447Y0123913D02*
X0089279Y0123913D01*
X0089279Y0123924D02*
X0090447Y0123924D01*
X0090447Y0123935D02*
X0089279Y0123935D01*
X0089279Y0123946D02*
X0090447Y0123946D01*
X0090447Y0123957D02*
X0089279Y0123957D01*
X0089279Y0123968D02*
X0090447Y0123968D01*
X0090447Y0123979D02*
X0089279Y0123979D01*
X0089279Y0123990D02*
X0090447Y0123990D01*
X0090447Y0124001D02*
X0089279Y0124001D01*
X0089279Y0124012D02*
X0090447Y0124012D01*
X0090447Y0124023D02*
X0089279Y0124023D01*
X0089279Y0124034D02*
X0090447Y0124034D01*
X0090447Y0124045D02*
X0089279Y0124045D01*
X0089279Y0124056D02*
X0090447Y0124056D01*
X0090447Y0124067D02*
X0089279Y0124067D01*
X0089279Y0124078D02*
X0090447Y0124078D01*
X0090447Y0124089D02*
X0089279Y0124089D01*
X0089279Y0124100D02*
X0090447Y0124100D01*
X0090447Y0124111D02*
X0089279Y0124111D01*
X0089279Y0124122D02*
X0090447Y0124122D01*
X0090447Y0124133D02*
X0089279Y0124133D01*
X0089279Y0124144D02*
X0090447Y0124144D01*
X0090447Y0124155D02*
X0089279Y0124155D01*
X0089279Y0124166D02*
X0090447Y0124166D01*
X0090447Y0124177D02*
X0089279Y0124177D01*
X0089279Y0124188D02*
X0090447Y0124188D01*
X0090447Y0124199D02*
X0089279Y0124199D01*
X0089279Y0124210D02*
X0090447Y0124210D01*
X0090447Y0124221D02*
X0089279Y0124221D01*
X0089279Y0124232D02*
X0090447Y0124232D01*
X0090447Y0124243D02*
X0089279Y0124243D01*
X0089279Y0124254D02*
X0090447Y0124254D01*
X0090447Y0124265D02*
X0089279Y0124265D01*
X0089279Y0124276D02*
X0090447Y0124276D01*
X0090447Y0124287D02*
X0089279Y0124287D01*
X0089279Y0124298D02*
X0090447Y0124298D01*
X0090447Y0124309D02*
X0089279Y0124309D01*
X0089279Y0124320D02*
X0090447Y0124320D01*
X0090447Y0124331D02*
X0089279Y0124331D01*
X0089279Y0124342D02*
X0090447Y0124342D01*
X0090447Y0124353D02*
X0089279Y0124353D01*
X0089279Y0124364D02*
X0090447Y0124364D01*
X0090447Y0124375D02*
X0089279Y0124375D01*
X0089279Y0124386D02*
X0090447Y0124386D01*
X0090447Y0124397D02*
X0089279Y0124397D01*
X0089279Y0124408D02*
X0090447Y0124408D01*
X0090447Y0124419D02*
X0089279Y0124419D01*
X0089279Y0124430D02*
X0090447Y0124430D01*
X0090447Y0124441D02*
X0089279Y0124441D01*
X0089279Y0124452D02*
X0090447Y0124452D01*
X0090447Y0124463D02*
X0089279Y0124463D01*
X0089279Y0124474D02*
X0090447Y0124474D01*
X0090447Y0124485D02*
X0089279Y0124485D01*
X0089279Y0124496D02*
X0090447Y0124496D01*
X0090447Y0124507D02*
X0089279Y0124507D01*
X0089279Y0124518D02*
X0090447Y0124518D01*
X0090447Y0124529D02*
X0089279Y0124529D01*
X0089279Y0124540D02*
X0090447Y0124540D01*
X0090447Y0124551D02*
X0089279Y0124551D01*
X0089279Y0124562D02*
X0090447Y0124562D01*
X0090447Y0124573D02*
X0089279Y0124573D01*
X0089279Y0124584D02*
X0090447Y0124584D01*
X0090447Y0124595D02*
X0089279Y0124595D01*
X0089279Y0124606D02*
X0090447Y0124606D01*
X0090447Y0124617D02*
X0089279Y0124617D01*
X0089279Y0124628D02*
X0090447Y0124628D01*
X0090447Y0124639D02*
X0089279Y0124639D01*
X0089279Y0124650D02*
X0090447Y0124650D01*
X0090447Y0124661D02*
X0089279Y0124661D01*
X0089279Y0124672D02*
X0090447Y0124672D01*
X0090447Y0124683D02*
X0089279Y0124683D01*
X0089279Y0124694D02*
X0090447Y0124694D01*
X0090447Y0124705D02*
X0089279Y0124705D01*
X0089279Y0124716D02*
X0090447Y0124716D01*
X0090447Y0124727D02*
X0089279Y0124727D01*
X0089279Y0124738D02*
X0090447Y0124738D01*
X0090447Y0124749D02*
X0089279Y0124749D01*
X0089279Y0124760D02*
X0090447Y0124760D01*
X0090447Y0124771D02*
X0089279Y0124771D01*
X0089279Y0124782D02*
X0090447Y0124782D01*
X0090447Y0124793D02*
X0089279Y0124793D01*
X0089279Y0124804D02*
X0090447Y0124804D01*
X0090447Y0124815D02*
X0089279Y0124815D01*
X0089279Y0124826D02*
X0090447Y0124826D01*
X0090447Y0124837D02*
X0089279Y0124837D01*
X0089279Y0124848D02*
X0090447Y0124848D01*
X0090447Y0124859D02*
X0089279Y0124859D01*
X0089279Y0124870D02*
X0090447Y0124870D01*
X0090447Y0124881D02*
X0089279Y0124881D01*
X0089279Y0124892D02*
X0090447Y0124892D01*
X0090447Y0124903D02*
X0089279Y0124903D01*
X0089279Y0124914D02*
X0090447Y0124914D01*
X0090447Y0124925D02*
X0089279Y0124925D01*
X0089279Y0124936D02*
X0090447Y0124936D01*
X0090447Y0124947D02*
X0089279Y0124947D01*
X0089279Y0124958D02*
X0090447Y0124958D01*
X0090447Y0124969D02*
X0089279Y0124969D01*
X0089279Y0124980D02*
X0090447Y0124980D01*
X0090447Y0124991D02*
X0089279Y0124991D01*
X0089279Y0125002D02*
X0090447Y0125002D01*
X0090447Y0125013D02*
X0089279Y0125013D01*
X0089279Y0125024D02*
X0090447Y0125024D01*
X0090447Y0125035D02*
X0089279Y0125035D01*
X0089279Y0125046D02*
X0090447Y0125046D01*
X0090447Y0125057D02*
X0089279Y0125057D01*
X0089279Y0125068D02*
X0090447Y0125068D01*
X0090447Y0125079D02*
X0089279Y0125079D01*
X0089279Y0125090D02*
X0090447Y0125090D01*
X0090447Y0125101D02*
X0089279Y0125101D01*
X0089279Y0125112D02*
X0090447Y0125112D01*
X0090447Y0125123D02*
X0089279Y0125123D01*
X0089279Y0125134D02*
X0090447Y0125134D01*
X0090447Y0125145D02*
X0089279Y0125145D01*
X0089279Y0125156D02*
X0090447Y0125156D01*
X0090447Y0125167D02*
X0089279Y0125167D01*
X0089279Y0125178D02*
X0090447Y0125178D01*
X0090447Y0125189D02*
X0089279Y0125189D01*
X0089279Y0125200D02*
X0090447Y0125200D01*
X0090447Y0125211D02*
X0089279Y0125211D01*
X0089279Y0125222D02*
X0090447Y0125222D01*
X0090447Y0125233D02*
X0089279Y0125233D01*
X0089279Y0125244D02*
X0090447Y0125244D01*
X0090447Y0125255D02*
X0089279Y0125255D01*
X0089279Y0125266D02*
X0090447Y0125266D01*
X0090447Y0125277D02*
X0089279Y0125277D01*
X0089279Y0125288D02*
X0090447Y0125288D01*
X0090447Y0125299D02*
X0089279Y0125299D01*
X0089279Y0125310D02*
X0090447Y0125310D01*
X0090447Y0125321D02*
X0089279Y0125321D01*
X0089279Y0125332D02*
X0090447Y0125332D01*
X0090447Y0125343D02*
X0089279Y0125343D01*
X0089279Y0125354D02*
X0090447Y0125354D01*
X0090447Y0125365D02*
X0089279Y0125365D01*
X0089279Y0125376D02*
X0090447Y0125376D01*
X0090447Y0125387D02*
X0089279Y0125387D01*
X0089279Y0125398D02*
X0090447Y0125398D01*
X0090447Y0125409D02*
X0089279Y0125409D01*
X0089279Y0125420D02*
X0090447Y0125420D01*
X0090447Y0125431D02*
X0089279Y0125431D01*
X0089279Y0125442D02*
X0090447Y0125442D01*
X0090447Y0125453D02*
X0089279Y0125453D01*
X0089279Y0125464D02*
X0090447Y0125464D01*
X0090447Y0125475D02*
X0089279Y0125475D01*
X0089279Y0125486D02*
X0090447Y0125486D01*
X0090447Y0125497D02*
X0089279Y0125497D01*
X0089279Y0125508D02*
X0090447Y0125508D01*
X0090447Y0125519D02*
X0089279Y0125519D01*
X0089279Y0125530D02*
X0090447Y0125530D01*
X0090447Y0125541D02*
X0089279Y0125541D01*
X0089279Y0125552D02*
X0090447Y0125552D01*
X0090447Y0125563D02*
X0089279Y0125563D01*
X0089279Y0125574D02*
X0090447Y0125574D01*
X0090447Y0125585D02*
X0089279Y0125585D01*
X0089279Y0125596D02*
X0090447Y0125596D01*
X0090447Y0125607D02*
X0089279Y0125607D01*
X0089279Y0125618D02*
X0090447Y0125618D01*
X0090447Y0125629D02*
X0089279Y0125629D01*
X0089279Y0125640D02*
X0090447Y0125640D01*
X0090447Y0125651D02*
X0089279Y0125651D01*
X0089279Y0125662D02*
X0090447Y0125662D01*
X0090447Y0125673D02*
X0089279Y0125673D01*
X0089279Y0125684D02*
X0090447Y0125684D01*
X0090447Y0125695D02*
X0089279Y0125695D01*
X0089279Y0125706D02*
X0090447Y0125706D01*
X0090447Y0125717D02*
X0089279Y0125717D01*
X0089279Y0125728D02*
X0090447Y0125728D01*
X0090447Y0125739D02*
X0089279Y0125739D01*
X0089279Y0125750D02*
X0090447Y0125750D01*
X0090447Y0125761D02*
X0089279Y0125761D01*
X0089279Y0125772D02*
X0090447Y0125772D01*
X0090447Y0125783D02*
X0089279Y0125783D01*
X0089279Y0125794D02*
X0090447Y0125794D01*
X0090447Y0125805D02*
X0089279Y0125805D01*
X0089279Y0125816D02*
X0090447Y0125816D01*
X0090447Y0125827D02*
X0089279Y0125827D01*
X0089279Y0125838D02*
X0090447Y0125838D01*
X0090447Y0125849D02*
X0089279Y0125849D01*
X0089279Y0125860D02*
X0090447Y0125860D01*
X0090447Y0125871D02*
X0089279Y0125871D01*
X0089279Y0125882D02*
X0090447Y0125882D01*
X0090447Y0125893D02*
X0089279Y0125893D01*
X0089279Y0125904D02*
X0090447Y0125904D01*
X0090447Y0125915D02*
X0089279Y0125915D01*
X0089279Y0125926D02*
X0090447Y0125926D01*
X0090447Y0125937D02*
X0089279Y0125937D01*
X0089279Y0125948D02*
X0090447Y0125948D01*
X0090447Y0125959D02*
X0089279Y0125959D01*
X0089279Y0125970D02*
X0090447Y0125970D01*
X0090447Y0125981D02*
X0089279Y0125981D01*
X0089279Y0125992D02*
X0090447Y0125992D01*
X0090447Y0126003D02*
X0089279Y0126003D01*
X0089279Y0126014D02*
X0090447Y0126014D01*
X0090447Y0126025D02*
X0089279Y0126025D01*
X0089279Y0126036D02*
X0090447Y0126036D01*
X0090447Y0126047D02*
X0089279Y0126047D01*
X0089279Y0126058D02*
X0090447Y0126058D01*
X0090447Y0126069D02*
X0089279Y0126069D01*
X0089279Y0126080D02*
X0090447Y0126080D01*
X0090447Y0126091D02*
X0089279Y0126091D01*
X0089279Y0126102D02*
X0090447Y0126102D01*
X0090447Y0126113D02*
X0089279Y0126113D01*
X0089279Y0126124D02*
X0090447Y0126124D01*
X0090447Y0126135D02*
X0089279Y0126135D01*
X0089279Y0126146D02*
X0090447Y0126146D01*
X0090447Y0126157D02*
X0089279Y0126157D01*
X0089279Y0126168D02*
X0090447Y0126168D01*
X0090447Y0126179D02*
X0089279Y0126179D01*
X0089279Y0126190D02*
X0090447Y0126190D01*
X0090447Y0126201D02*
X0089279Y0126201D01*
X0089279Y0126212D02*
X0090447Y0126212D01*
X0090447Y0126223D02*
X0089279Y0126223D01*
X0089279Y0126234D02*
X0090447Y0126234D01*
X0090447Y0126245D02*
X0089279Y0126245D01*
X0089279Y0126256D02*
X0090447Y0126256D01*
X0090447Y0126267D02*
X0089279Y0126267D01*
X0089279Y0126278D02*
X0090447Y0126278D01*
X0090447Y0126289D02*
X0089279Y0126289D01*
X0089279Y0126300D02*
X0090447Y0126300D01*
X0090447Y0126311D02*
X0089279Y0126311D01*
X0089279Y0126322D02*
X0090447Y0126322D01*
X0090447Y0126333D02*
X0089279Y0126333D01*
X0089279Y0126344D02*
X0090447Y0126344D01*
X0090447Y0126355D02*
X0089279Y0126355D01*
X0089279Y0126366D02*
X0090447Y0126366D01*
X0090447Y0126377D02*
X0089279Y0126377D01*
X0089279Y0126388D02*
X0090447Y0126388D01*
X0090447Y0126399D02*
X0089279Y0126399D01*
X0089279Y0126410D02*
X0090447Y0126410D01*
X0090447Y0126421D02*
X0089279Y0126421D01*
X0089279Y0126432D02*
X0090447Y0126432D01*
X0090447Y0126443D02*
X0089279Y0126443D01*
X0089279Y0126454D02*
X0090447Y0126454D01*
X0090447Y0126465D02*
X0089279Y0126465D01*
X0089279Y0126476D02*
X0090447Y0126476D01*
X0090447Y0126487D02*
X0089279Y0126487D01*
X0089279Y0126498D02*
X0090447Y0126498D01*
X0090447Y0126509D02*
X0089279Y0126509D01*
X0089279Y0126520D02*
X0090447Y0126520D01*
X0090447Y0126531D02*
X0089279Y0126531D01*
X0089279Y0126542D02*
X0090447Y0126542D01*
X0090447Y0126553D02*
X0089279Y0126553D01*
X0089279Y0126564D02*
X0090447Y0126564D01*
X0090447Y0126575D02*
X0089279Y0126575D01*
X0089279Y0126586D02*
X0090447Y0126586D01*
X0090447Y0126597D02*
X0089279Y0126597D01*
X0089279Y0126608D02*
X0090447Y0126608D01*
X0090447Y0126619D02*
X0089279Y0126619D01*
X0089279Y0126630D02*
X0090447Y0126630D01*
X0090447Y0126641D02*
X0089279Y0126641D01*
X0089279Y0126652D02*
X0090447Y0126652D01*
X0090447Y0126663D02*
X0089279Y0126663D01*
X0089279Y0126674D02*
X0090447Y0126674D01*
X0090447Y0126685D02*
X0089279Y0126685D01*
X0089279Y0126696D02*
X0090447Y0126696D01*
X0090447Y0126707D02*
X0089279Y0126707D01*
X0089279Y0126718D02*
X0090447Y0126718D01*
X0090447Y0126729D02*
X0089279Y0126729D01*
X0089279Y0126740D02*
X0090447Y0126740D01*
X0090447Y0126751D02*
X0089279Y0126751D01*
X0089279Y0126762D02*
X0090447Y0126762D01*
X0090447Y0126773D02*
X0089279Y0126773D01*
X0089279Y0126784D02*
X0090447Y0126784D01*
X0090447Y0126795D02*
X0089279Y0126795D01*
X0089279Y0126806D02*
X0090447Y0126806D01*
X0090447Y0126817D02*
X0089279Y0126817D01*
X0089279Y0126828D02*
X0090447Y0126828D01*
X0090447Y0126839D02*
X0089279Y0126839D01*
X0089279Y0126850D02*
X0090447Y0126850D01*
X0090447Y0126861D02*
X0089279Y0126861D01*
X0089279Y0126872D02*
X0090447Y0126872D01*
X0090447Y0126883D02*
X0089279Y0126883D01*
X0089279Y0126894D02*
X0090447Y0126894D01*
X0090447Y0126905D02*
X0089279Y0126905D01*
X0089279Y0126916D02*
X0090447Y0126916D01*
X0090447Y0126927D02*
X0089279Y0126927D01*
X0089279Y0126938D02*
X0090447Y0126938D01*
X0090447Y0126949D02*
X0089279Y0126949D01*
X0089279Y0126960D02*
X0090447Y0126960D01*
X0090447Y0126971D02*
X0089279Y0126971D01*
X0089279Y0126982D02*
X0090447Y0126982D01*
X0090447Y0126993D02*
X0089279Y0126993D01*
X0089279Y0127004D02*
X0090447Y0127004D01*
X0090447Y0127015D02*
X0089279Y0127015D01*
X0089279Y0127026D02*
X0090447Y0127026D01*
X0090447Y0127037D02*
X0089279Y0127037D01*
X0089279Y0127048D02*
X0090447Y0127048D01*
X0090447Y0127059D02*
X0089279Y0127059D01*
X0089279Y0127070D02*
X0090447Y0127070D01*
X0090447Y0127081D02*
X0089279Y0127081D01*
X0089279Y0127092D02*
X0090447Y0127092D01*
X0090447Y0127103D02*
X0089279Y0127103D01*
X0089279Y0127114D02*
X0090447Y0127114D01*
X0090447Y0127125D02*
X0089279Y0127125D01*
X0089279Y0127136D02*
X0090447Y0127136D01*
X0090447Y0127147D02*
X0089279Y0127147D01*
X0089279Y0127158D02*
X0090447Y0127158D01*
X0090447Y0127169D02*
X0089279Y0127169D01*
X0089279Y0127180D02*
X0090447Y0127180D01*
X0090447Y0127191D02*
X0089279Y0127191D01*
X0089279Y0127202D02*
X0090447Y0127202D01*
X0090447Y0127213D02*
X0089279Y0127213D01*
X0089279Y0127224D02*
X0090447Y0127224D01*
X0090447Y0127235D02*
X0089279Y0127235D01*
X0089279Y0127246D02*
X0090447Y0127246D01*
X0090447Y0127257D02*
X0089279Y0127257D01*
X0089279Y0127268D02*
X0090447Y0127268D01*
X0090447Y0127279D02*
X0089279Y0127279D01*
X0089279Y0127290D02*
X0090447Y0127290D01*
X0090447Y0127301D02*
X0089279Y0127301D01*
X0089279Y0127312D02*
X0090447Y0127312D01*
X0090447Y0127323D02*
X0089279Y0127323D01*
X0089279Y0127334D02*
X0090447Y0127334D01*
X0090447Y0127345D02*
X0089279Y0127345D01*
X0089279Y0127356D02*
X0090447Y0127356D01*
X0090447Y0127367D02*
X0089279Y0127367D01*
X0089279Y0127378D02*
X0090447Y0127378D01*
X0090447Y0127389D02*
X0089279Y0127389D01*
X0089279Y0127400D02*
X0090447Y0127400D01*
X0090447Y0127411D02*
X0089279Y0127411D01*
X0089279Y0127422D02*
X0090447Y0127422D01*
X0090447Y0127433D02*
X0089279Y0127433D01*
X0089279Y0127444D02*
X0090447Y0127444D01*
X0090447Y0127455D02*
X0089279Y0127455D01*
X0089279Y0127466D02*
X0090447Y0127466D01*
X0090447Y0127477D02*
X0089279Y0127477D01*
X0089279Y0127488D02*
X0090447Y0127488D01*
X0090447Y0127499D02*
X0089279Y0127499D01*
X0089279Y0127510D02*
X0090447Y0127510D01*
X0090447Y0127521D02*
X0089279Y0127521D01*
X0089279Y0127532D02*
X0090447Y0127532D01*
X0090447Y0127543D02*
X0089279Y0127543D01*
X0089279Y0127554D02*
X0090447Y0127554D01*
X0090447Y0127565D02*
X0089279Y0127565D01*
X0089279Y0127576D02*
X0090447Y0127576D01*
X0090447Y0127587D02*
X0089279Y0127587D01*
X0089279Y0127598D02*
X0090447Y0127598D01*
X0090447Y0127609D02*
X0089279Y0127609D01*
X0089279Y0127620D02*
X0090447Y0127620D01*
X0090447Y0127631D02*
X0089279Y0127631D01*
X0089279Y0127642D02*
X0090447Y0127642D01*
X0090447Y0127653D02*
X0089279Y0127653D01*
X0089279Y0127664D02*
X0090447Y0127664D01*
X0090447Y0127675D02*
X0089279Y0127675D01*
X0089279Y0127686D02*
X0090447Y0127686D01*
X0090447Y0127697D02*
X0089279Y0127697D01*
X0089279Y0127708D02*
X0090447Y0127708D01*
X0090447Y0127719D02*
X0089279Y0127719D01*
X0089279Y0127730D02*
X0090447Y0127730D01*
X0090447Y0127741D02*
X0089279Y0127741D01*
X0089279Y0127752D02*
X0090447Y0127752D01*
X0090447Y0127763D02*
X0089279Y0127763D01*
X0089279Y0127774D02*
X0090447Y0127774D01*
X0090447Y0127785D02*
X0089279Y0127785D01*
X0089279Y0127796D02*
X0090447Y0127796D01*
X0090447Y0127807D02*
X0089279Y0127807D01*
X0089279Y0127818D02*
X0090447Y0127818D01*
X0090447Y0127829D02*
X0089279Y0127829D01*
X0089279Y0127840D02*
X0090447Y0127840D01*
X0090447Y0127851D02*
X0089279Y0127851D01*
X0089279Y0127862D02*
X0090447Y0127862D01*
X0090447Y0127873D02*
X0089279Y0127873D01*
X0089279Y0127884D02*
X0090447Y0127884D01*
X0090447Y0127895D02*
X0089279Y0127895D01*
X0089279Y0127906D02*
X0090447Y0127906D01*
X0090447Y0127917D02*
X0089279Y0127917D01*
X0089279Y0127928D02*
X0090447Y0127928D01*
X0090447Y0127939D02*
X0089279Y0127939D01*
X0089279Y0127950D02*
X0090447Y0127950D01*
X0090447Y0127961D02*
X0089279Y0127961D01*
X0089279Y0127972D02*
X0090447Y0127972D01*
X0090447Y0127983D02*
X0089279Y0127983D01*
X0089279Y0127994D02*
X0090447Y0127994D01*
X0090447Y0128005D02*
X0089279Y0128005D01*
X0089279Y0128016D02*
X0090447Y0128016D01*
X0090447Y0128027D02*
X0089279Y0128027D01*
X0089279Y0128038D02*
X0090447Y0128038D01*
X0090447Y0128049D02*
X0089279Y0128049D01*
X0089279Y0128060D02*
X0090447Y0128060D01*
X0090447Y0128071D02*
X0089279Y0128071D01*
X0089279Y0128082D02*
X0090447Y0128082D01*
X0090447Y0128093D02*
X0089279Y0128093D01*
X0089279Y0128104D02*
X0090447Y0128104D01*
X0090447Y0128115D02*
X0089279Y0128115D01*
X0089279Y0128126D02*
X0090447Y0128126D01*
X0090447Y0128137D02*
X0089279Y0128137D01*
X0089279Y0128148D02*
X0090447Y0128148D01*
X0090447Y0128159D02*
X0089279Y0128159D01*
X0089279Y0128170D02*
X0090447Y0128170D01*
X0090447Y0128181D02*
X0089279Y0128181D01*
X0089279Y0128192D02*
X0090447Y0128192D01*
X0090447Y0128203D02*
X0089279Y0128203D01*
X0089279Y0128214D02*
X0090447Y0128214D01*
X0090447Y0128225D02*
X0089279Y0128225D01*
X0089279Y0128236D02*
X0090447Y0128236D01*
X0090447Y0128247D02*
X0089279Y0128247D01*
X0089279Y0128258D02*
X0090447Y0128258D01*
X0090447Y0128269D02*
X0089279Y0128269D01*
X0089279Y0128280D02*
X0090447Y0128280D01*
X0090447Y0128291D02*
X0089279Y0128291D01*
X0089279Y0128302D02*
X0090447Y0128302D01*
X0090447Y0128313D02*
X0089279Y0128313D01*
X0089279Y0128324D02*
X0090447Y0128324D01*
X0090447Y0128335D02*
X0089279Y0128335D01*
X0089279Y0128346D02*
X0090447Y0128346D01*
X0090447Y0128357D02*
X0089279Y0128357D01*
X0089279Y0128368D02*
X0090447Y0128368D01*
X0090447Y0128379D02*
X0089279Y0128379D01*
X0089279Y0128390D02*
X0090447Y0128390D01*
X0090447Y0128401D02*
X0089279Y0128401D01*
X0089279Y0128412D02*
X0090447Y0128412D01*
X0090447Y0128423D02*
X0089279Y0128423D01*
X0089279Y0128434D02*
X0090447Y0128434D01*
X0090447Y0128445D02*
X0089279Y0128445D01*
X0089279Y0128456D02*
X0090447Y0128456D01*
X0090447Y0128467D02*
X0089279Y0128467D01*
X0089279Y0128478D02*
X0090447Y0128478D01*
X0090447Y0128489D02*
X0089279Y0128489D01*
D21*
X0111700Y0164000D03*
X0123100Y0164000D03*
D22*
X0119400Y0145000D03*
X0119400Y0109000D03*
D23*
X0091000Y0082146D03*
X0091000Y0075454D03*
X0082800Y0078154D03*
X0082800Y0084846D03*
X0089800Y0054346D03*
X0089800Y0047654D03*
X0081800Y0025346D03*
X0081800Y0018654D03*
X0056200Y0093054D03*
X0056200Y0099746D03*
D24*
X0060454Y0082600D03*
X0060546Y0073400D03*
X0053854Y0073400D03*
X0067146Y0082600D03*
X0068454Y0092000D03*
X0075146Y0092000D03*
X0078454Y0102000D03*
X0083454Y0092000D03*
X0085146Y0102000D03*
X0090146Y0092000D03*
X0080146Y0047000D03*
X0083454Y0037000D03*
X0090146Y0037000D03*
X0075146Y0037000D03*
X0068454Y0037000D03*
X0073454Y0047000D03*
X0075954Y0010000D03*
X0082646Y0010000D03*
X0040146Y0035600D03*
X0036146Y0026000D03*
X0029454Y0026000D03*
X0033454Y0035600D03*
X0030146Y0047000D03*
X0023454Y0047000D03*
X0023546Y0017400D03*
X0016854Y0017400D03*
D25*
X0034000Y0056313D03*
X0034000Y0070487D03*
D26*
X0102820Y0053877D03*
X0124474Y0053877D03*
X0124474Y0088523D03*
X0102820Y0088523D03*
D27*
X0100600Y0077499D03*
X0100600Y0074350D03*
X0100600Y0071200D03*
X0100600Y0068050D03*
X0100600Y0064901D03*
D28*
X0066446Y0058439D02*
X0063690Y0058439D01*
X0063690Y0055880D02*
X0066446Y0055880D01*
X0066446Y0053320D02*
X0063690Y0053320D01*
X0063690Y0050761D02*
X0066446Y0050761D01*
X0060639Y0047710D02*
X0060639Y0044954D01*
X0058080Y0044954D02*
X0058080Y0047710D01*
X0055520Y0047710D02*
X0055520Y0044954D01*
X0052961Y0044954D02*
X0052961Y0047710D01*
X0049910Y0050761D02*
X0047154Y0050761D01*
X0047154Y0053320D02*
X0049910Y0053320D01*
X0049910Y0055880D02*
X0047154Y0055880D01*
X0047154Y0058439D02*
X0049910Y0058439D01*
X0052961Y0061490D02*
X0052961Y0064246D01*
X0055520Y0064246D02*
X0055520Y0061490D01*
X0058080Y0061490D02*
X0058080Y0064246D01*
X0060639Y0064246D02*
X0060639Y0061490D01*
D29*
X0060343Y0058143D03*
X0056800Y0054600D03*
X0053257Y0051057D03*
X0053257Y0058143D03*
X0060343Y0051057D03*
D30*
X0066336Y0028137D03*
X0066336Y0026169D03*
X0066336Y0024200D03*
X0066336Y0022231D03*
X0066336Y0020263D03*
X0050864Y0020263D03*
X0050864Y0022231D03*
X0050864Y0024200D03*
X0050864Y0026169D03*
X0050864Y0028137D03*
D31*
X0054663Y0031936D03*
X0056631Y0031936D03*
X0058600Y0031936D03*
X0060569Y0031936D03*
X0062537Y0031936D03*
X0062537Y0016464D03*
X0060569Y0016464D03*
X0058600Y0016464D03*
X0056631Y0016464D03*
X0054663Y0016464D03*
D32*
X0058600Y0024200D03*
D33*
X0101633Y0025337D03*
X0101633Y0017463D03*
D34*
X0122106Y0008014D03*
X0122106Y0034786D03*
D35*
X0080740Y0062076D03*
X0077000Y0071524D03*
X0073260Y0062076D03*
D36*
X0097647Y0042000D03*
X0103553Y0042000D03*
X0103353Y0099200D03*
X0097447Y0099200D03*
X0019800Y0039953D03*
X0019800Y0034047D03*
D37*
X0013867Y0195287D03*
X0088670Y0195287D03*
D38*
X0084733Y0186626D03*
X0080796Y0186626D03*
X0076859Y0186626D03*
X0072922Y0186626D03*
X0068985Y0186626D03*
X0065048Y0186626D03*
X0061111Y0186626D03*
X0057174Y0186626D03*
X0053237Y0186626D03*
X0049300Y0186626D03*
X0045363Y0186626D03*
X0041426Y0186626D03*
X0037489Y0186626D03*
X0033552Y0186626D03*
X0029615Y0186626D03*
X0025678Y0186626D03*
X0021741Y0186626D03*
X0017804Y0186626D03*
D39*
X0064241Y0175248D03*
X0069359Y0175248D03*
X0069359Y0168752D03*
X0066800Y0168752D03*
X0064241Y0168752D03*
D40*
X0036919Y0168260D03*
X0036919Y0172000D03*
X0036919Y0175740D03*
X0026681Y0175740D03*
X0026681Y0168260D03*
D41*
X0005000Y0104062D02*
X0005000Y0005200D01*
X0014341Y0005200D01*
X0007688Y0012383D01*
X0007306Y0012764D01*
X0007284Y0012819D01*
X0007243Y0012863D01*
X0007056Y0013369D01*
X0006850Y0013867D01*
X0006850Y0013926D01*
X0006829Y0013982D01*
X0006850Y0014521D01*
X0006850Y0047768D01*
X0006810Y0047893D01*
X0006850Y0048361D01*
X0006850Y0048831D01*
X0006900Y0048951D01*
X0006911Y0049082D01*
X0007127Y0049499D01*
X0007306Y0049933D01*
X0007399Y0050026D01*
X0007459Y0050142D01*
X0007818Y0050445D01*
X0008150Y0050777D01*
X0008271Y0050827D01*
X0018060Y0059087D01*
X0024324Y0065351D01*
X0024091Y0065584D01*
X0023726Y0066466D01*
X0023726Y0074507D01*
X0024091Y0075389D01*
X0024766Y0076065D01*
X0025649Y0076430D01*
X0031163Y0076430D01*
X0031163Y0092582D01*
X0029300Y0092582D01*
X0029300Y0095957D01*
X0029300Y0095957D01*
X0025138Y0095957D01*
X0025138Y0097186D01*
X0024781Y0097334D01*
X0023966Y0098150D01*
X0016450Y0105665D01*
X0015837Y0104184D01*
X0014598Y0102945D01*
X0015837Y0101705D01*
X0016562Y0099955D01*
X0016562Y0098419D01*
X0018414Y0096567D01*
X0018871Y0095464D01*
X0018871Y0094271D01*
X0018571Y0093547D01*
X0018571Y0089406D01*
X0018160Y0088413D01*
X0017400Y0087654D01*
X0016057Y0086310D01*
X0016057Y0080868D01*
X0016427Y0080868D01*
X0017309Y0080502D01*
X0017984Y0079827D01*
X0018350Y0078945D01*
X0018350Y0072479D01*
X0017984Y0071596D01*
X0017309Y0070921D01*
X0016427Y0070556D01*
X0009173Y0070556D01*
X0008291Y0070921D01*
X0007616Y0071596D01*
X0007250Y0072479D01*
X0007250Y0078945D01*
X0007616Y0079827D01*
X0008291Y0080502D01*
X0009173Y0080868D01*
X0010057Y0080868D01*
X0010057Y0087351D01*
X0009619Y0087574D01*
X0009088Y0087959D01*
X0008625Y0088422D01*
X0008240Y0088952D01*
X0007943Y0089536D01*
X0007740Y0090159D01*
X0007638Y0090806D01*
X0007638Y0091134D01*
X0011800Y0091134D01*
X0011800Y0091134D01*
X0007638Y0091134D01*
X0007638Y0091461D01*
X0007740Y0092109D01*
X0007943Y0092732D01*
X0008240Y0093315D01*
X0008625Y0093845D01*
X0009088Y0094309D01*
X0009619Y0094694D01*
X0009687Y0094729D01*
X0009102Y0094971D01*
X0007763Y0096310D01*
X0007038Y0098061D01*
X0007038Y0099955D01*
X0007757Y0101691D01*
X0005000Y0104062D01*
X0005000Y0102706D02*
X0006576Y0102706D01*
X0007515Y0101108D02*
X0005000Y0101108D01*
X0005000Y0099509D02*
X0007038Y0099509D01*
X0007100Y0097911D02*
X0005000Y0097911D01*
X0005000Y0096312D02*
X0007762Y0096312D01*
X0009658Y0094714D02*
X0005000Y0094714D01*
X0005000Y0093115D02*
X0008138Y0093115D01*
X0007647Y0091517D02*
X0005000Y0091517D01*
X0005000Y0089918D02*
X0007819Y0089918D01*
X0008728Y0088320D02*
X0005000Y0088320D01*
X0005000Y0086721D02*
X0010057Y0086721D01*
X0010057Y0085123D02*
X0005000Y0085123D01*
X0005000Y0083524D02*
X0010057Y0083524D01*
X0010057Y0081926D02*
X0005000Y0081926D01*
X0005000Y0080327D02*
X0008116Y0080327D01*
X0007250Y0078729D02*
X0005000Y0078729D01*
X0005000Y0077130D02*
X0007250Y0077130D01*
X0007250Y0075532D02*
X0005000Y0075532D01*
X0005000Y0073933D02*
X0007250Y0073933D01*
X0007310Y0072334D02*
X0005000Y0072334D01*
X0005000Y0070736D02*
X0008738Y0070736D01*
X0009016Y0069137D02*
X0005000Y0069137D01*
X0005000Y0067539D02*
X0007850Y0067539D01*
X0007850Y0067681D02*
X0007850Y0065266D01*
X0012222Y0065266D01*
X0012222Y0064110D01*
X0013378Y0064110D01*
X0013378Y0060132D01*
X0016187Y0060132D01*
X0016644Y0060255D01*
X0017055Y0060492D01*
X0017390Y0060827D01*
X0017627Y0061237D01*
X0017750Y0061695D01*
X0017750Y0064110D01*
X0013378Y0064110D01*
X0013378Y0065266D01*
X0017750Y0065266D01*
X0017750Y0067681D01*
X0017627Y0068139D01*
X0017390Y0068549D01*
X0017055Y0068884D01*
X0016644Y0069121D01*
X0016187Y0069244D01*
X0013378Y0069244D01*
X0013378Y0065266D01*
X0012222Y0065266D01*
X0012222Y0069244D01*
X0009413Y0069244D01*
X0008956Y0069121D01*
X0008545Y0068884D01*
X0008210Y0068549D01*
X0007973Y0068139D01*
X0007850Y0067681D01*
X0007850Y0065940D02*
X0005000Y0065940D01*
X0005000Y0064342D02*
X0012222Y0064342D01*
X0012222Y0064110D02*
X0007850Y0064110D01*
X0007850Y0061695D01*
X0007973Y0061237D01*
X0008210Y0060827D01*
X0008545Y0060492D01*
X0008956Y0060255D01*
X0009413Y0060132D01*
X0012222Y0060132D01*
X0012222Y0064110D01*
X0013378Y0064342D02*
X0023315Y0064342D01*
X0023944Y0065940D02*
X0017750Y0065940D01*
X0017750Y0067539D02*
X0023726Y0067539D01*
X0023726Y0069137D02*
X0016584Y0069137D01*
X0016862Y0070736D02*
X0023726Y0070736D01*
X0023726Y0072334D02*
X0018290Y0072334D01*
X0018350Y0073933D02*
X0023726Y0073933D01*
X0024233Y0075532D02*
X0018350Y0075532D01*
X0018350Y0077130D02*
X0031163Y0077130D01*
X0031163Y0078729D02*
X0018350Y0078729D01*
X0017484Y0080327D02*
X0031163Y0080327D01*
X0031163Y0081926D02*
X0016057Y0081926D01*
X0016057Y0083524D02*
X0031163Y0083524D01*
X0031163Y0085123D02*
X0016057Y0085123D01*
X0016467Y0086721D02*
X0031163Y0086721D01*
X0031163Y0088320D02*
X0018066Y0088320D01*
X0018571Y0089918D02*
X0031163Y0089918D01*
X0031163Y0091517D02*
X0018571Y0091517D01*
X0018571Y0093115D02*
X0025659Y0093115D01*
X0025497Y0093277D02*
X0025833Y0092942D01*
X0026243Y0092705D01*
X0026701Y0092582D01*
X0029300Y0092582D01*
X0029300Y0095957D01*
X0021800Y0095957D01*
X0021800Y0092000D01*
X0018871Y0094714D02*
X0025138Y0094714D01*
X0025138Y0094145D02*
X0025260Y0093687D01*
X0025497Y0093277D01*
X0025138Y0094145D02*
X0025138Y0095957D01*
X0029300Y0095957D01*
X0029300Y0095957D01*
X0029300Y0094714D02*
X0029300Y0094714D01*
X0029300Y0093115D02*
X0029300Y0093115D01*
X0025138Y0096312D02*
X0018520Y0096312D01*
X0017071Y0097911D02*
X0024205Y0097911D01*
X0022606Y0099509D02*
X0016562Y0099509D01*
X0016085Y0101108D02*
X0021008Y0101108D01*
X0019409Y0102706D02*
X0014836Y0102706D01*
X0015887Y0104305D02*
X0017811Y0104305D01*
X0011800Y0114756D02*
X0017944Y0119100D01*
X0041800Y0119200D01*
X0044000Y0120300D01*
X0046376Y0120300D01*
X0052676Y0120300D02*
X0052800Y0119424D01*
X0052800Y0112000D01*
X0036800Y0112000D01*
X0029300Y0104500D01*
X0029300Y0103043D01*
X0034062Y0102706D02*
X0037850Y0102706D01*
X0037850Y0102693D02*
X0034062Y0102693D01*
X0034062Y0104737D01*
X0038125Y0108800D01*
X0039161Y0108800D01*
X0038956Y0108745D01*
X0038545Y0108508D01*
X0038210Y0108173D01*
X0037973Y0107762D01*
X0037850Y0107305D01*
X0037850Y0104890D01*
X0042222Y0104890D01*
X0042222Y0103734D01*
X0037850Y0103734D01*
X0037850Y0102693D01*
X0037850Y0105903D02*
X0035229Y0105903D01*
X0034062Y0104305D02*
X0042222Y0104305D01*
X0043378Y0104305D02*
X0048645Y0104305D01*
X0047750Y0103734D02*
X0047750Y0103409D01*
X0053140Y0108800D01*
X0046439Y0108800D01*
X0046644Y0108745D01*
X0047055Y0108508D01*
X0047390Y0108173D01*
X0047627Y0107762D01*
X0047750Y0107305D01*
X0047750Y0104890D01*
X0043378Y0104890D01*
X0043378Y0103734D01*
X0047750Y0103734D01*
X0047750Y0105903D02*
X0050243Y0105903D01*
X0051842Y0107502D02*
X0047697Y0107502D01*
X0056384Y0099931D02*
X0058112Y0099931D01*
X0058894Y0099607D01*
X0071946Y0099607D01*
X0071946Y0096138D01*
X0071800Y0096077D01*
X0071096Y0096368D01*
X0065811Y0096368D01*
X0064929Y0096003D01*
X0064254Y0095328D01*
X0063888Y0094446D01*
X0063888Y0089554D01*
X0064254Y0088672D01*
X0064929Y0087997D01*
X0065811Y0087631D01*
X0067847Y0087631D01*
X0067847Y0086368D01*
X0067331Y0086368D01*
X0067331Y0082784D01*
X0066962Y0082784D01*
X0066962Y0086368D01*
X0064744Y0086368D01*
X0064325Y0086256D01*
X0063978Y0086603D01*
X0063096Y0086968D01*
X0057811Y0086968D01*
X0057054Y0086655D01*
X0057054Y0088488D01*
X0058646Y0088488D01*
X0059528Y0088854D01*
X0060203Y0089529D01*
X0060568Y0090411D01*
X0060568Y0095696D01*
X0060203Y0096578D01*
X0059856Y0096925D01*
X0059968Y0097344D01*
X0059968Y0099562D01*
X0056384Y0099562D01*
X0056384Y0099931D01*
X0059968Y0099509D02*
X0071946Y0099509D01*
X0071946Y0097911D02*
X0059968Y0097911D01*
X0060313Y0096312D02*
X0065675Y0096312D01*
X0063999Y0094714D02*
X0060568Y0094714D01*
X0060568Y0093115D02*
X0063888Y0093115D01*
X0063888Y0091517D02*
X0060568Y0091517D01*
X0060364Y0089918D02*
X0063888Y0089918D01*
X0064606Y0088320D02*
X0057054Y0088320D01*
X0057054Y0086721D02*
X0057214Y0086721D01*
X0056200Y0093054D02*
X0053854Y0093054D01*
X0053854Y0073400D01*
X0052961Y0073400D01*
X0052961Y0062868D01*
X0048732Y0058468D01*
X0048532Y0058439D01*
X0052724Y0057159D02*
X0052999Y0057824D01*
X0052999Y0058289D01*
X0053106Y0058401D01*
X0053576Y0058401D01*
X0054241Y0058676D01*
X0054906Y0058401D01*
X0056135Y0058401D01*
X0056800Y0058676D01*
X0057465Y0058401D01*
X0058694Y0058401D01*
X0059829Y0058871D01*
X0060031Y0059073D01*
X0060393Y0059001D01*
X0060601Y0059001D01*
X0060601Y0057824D01*
X0060876Y0057159D01*
X0060601Y0056494D01*
X0060601Y0055265D01*
X0061071Y0054130D01*
X0061273Y0053928D01*
X0061201Y0053566D01*
X0061201Y0053321D01*
X0061880Y0053321D01*
X0061880Y0053320D01*
X0061201Y0053320D01*
X0061201Y0053075D01*
X0061273Y0052713D01*
X0061071Y0052511D01*
X0060601Y0051376D01*
X0060601Y0050799D01*
X0060024Y0050799D01*
X0058889Y0050329D01*
X0058687Y0050127D01*
X0058325Y0050199D01*
X0058080Y0050199D01*
X0058080Y0049520D01*
X0058079Y0049520D01*
X0058079Y0050199D01*
X0057834Y0050199D01*
X0057354Y0050104D01*
X0056901Y0049916D01*
X0056800Y0049849D01*
X0056699Y0049916D01*
X0056246Y0050104D01*
X0055766Y0050199D01*
X0055521Y0050199D01*
X0055521Y0046332D01*
X0055521Y0046332D01*
X0055591Y0046332D01*
X0057493Y0046332D01*
X0057493Y0046332D01*
X0055521Y0046332D01*
X0055520Y0046332D01*
X0055450Y0046332D01*
X0052962Y0046332D01*
X0052962Y0046332D01*
X0055520Y0046332D01*
X0055520Y0046332D01*
X0055520Y0050199D01*
X0055275Y0050199D01*
X0054794Y0050104D01*
X0054341Y0049916D01*
X0054241Y0049849D01*
X0054140Y0049916D01*
X0053687Y0050104D01*
X0053207Y0050199D01*
X0052999Y0050199D01*
X0052999Y0051376D01*
X0052724Y0052041D01*
X0052999Y0052706D01*
X0052999Y0053935D01*
X0052724Y0054600D01*
X0052999Y0055265D01*
X0052999Y0056494D01*
X0052724Y0057159D01*
X0052999Y0057948D02*
X0060601Y0057948D01*
X0060601Y0056349D02*
X0052999Y0056349D01*
X0052786Y0054751D02*
X0060814Y0054751D01*
X0061201Y0053152D02*
X0052999Y0053152D01*
X0052925Y0051554D02*
X0060675Y0051554D01*
X0061880Y0053320D02*
X0061880Y0053320D01*
X0058080Y0049955D02*
X0058079Y0049955D01*
X0056996Y0049955D02*
X0056604Y0049955D01*
X0055521Y0049955D02*
X0055520Y0049955D01*
X0054437Y0049955D02*
X0054045Y0049955D01*
X0055520Y0048357D02*
X0055521Y0048357D01*
X0055520Y0046758D02*
X0055521Y0046758D01*
X0052961Y0046332D02*
X0052961Y0046332D01*
X0050472Y0046332D01*
X0050472Y0045009D01*
X0047697Y0047672D01*
X0050472Y0047672D01*
X0050472Y0046332D01*
X0052961Y0046332D01*
X0050472Y0046758D02*
X0048649Y0046758D01*
X0050316Y0045160D02*
X0050472Y0045160D01*
X0040611Y0031231D02*
X0041143Y0030742D01*
X0041300Y0026150D01*
X0041300Y0025623D01*
X0041320Y0025576D01*
X0041321Y0025524D01*
X0041540Y0025044D01*
X0041594Y0024913D01*
X0040193Y0024300D01*
X0040112Y0024300D01*
X0040112Y0025816D01*
X0036331Y0025816D01*
X0036331Y0026184D01*
X0040112Y0026184D01*
X0040112Y0028205D01*
X0039989Y0028663D01*
X0039752Y0029074D01*
X0039417Y0029409D01*
X0039007Y0029646D01*
X0038549Y0029768D01*
X0036331Y0029768D01*
X0036331Y0026184D01*
X0035962Y0026184D01*
X0035962Y0029768D01*
X0033744Y0029768D01*
X0033325Y0029656D01*
X0032978Y0030003D01*
X0032096Y0030368D01*
X0026811Y0030368D01*
X0025929Y0030003D01*
X0025254Y0029328D01*
X0024888Y0028446D01*
X0024888Y0023554D01*
X0025254Y0022672D01*
X0025929Y0021997D01*
X0026554Y0021738D01*
X0026554Y0021618D01*
X0026189Y0021768D01*
X0020904Y0021768D01*
X0020022Y0021403D01*
X0019675Y0021056D01*
X0019256Y0021168D01*
X0017038Y0021168D01*
X0017038Y0017584D01*
X0016669Y0017584D01*
X0016669Y0021168D01*
X0016057Y0021168D01*
X0016057Y0026085D01*
X0020044Y0030072D01*
X0021852Y0030072D01*
X0022734Y0030438D01*
X0023409Y0031113D01*
X0023775Y0031995D01*
X0023775Y0033184D01*
X0028618Y0038295D01*
X0029629Y0038295D01*
X0029611Y0038263D01*
X0029488Y0037805D01*
X0029488Y0035784D01*
X0033269Y0035784D01*
X0033269Y0035416D01*
X0029488Y0035416D01*
X0029488Y0033395D01*
X0029611Y0032937D01*
X0029848Y0032526D01*
X0030183Y0032191D01*
X0030593Y0031954D01*
X0031051Y0031831D01*
X0033269Y0031831D01*
X0033269Y0035416D01*
X0033638Y0035416D01*
X0033638Y0031831D01*
X0035856Y0031831D01*
X0036275Y0031944D01*
X0036622Y0031597D01*
X0037504Y0031231D01*
X0040611Y0031231D01*
X0041109Y0030773D02*
X0023070Y0030773D01*
X0023775Y0032372D02*
X0030002Y0032372D01*
X0029488Y0033970D02*
X0024520Y0033970D01*
X0026034Y0035569D02*
X0033269Y0035569D01*
X0033269Y0033970D02*
X0033638Y0033970D01*
X0033638Y0032372D02*
X0033269Y0032372D01*
X0035962Y0029175D02*
X0036331Y0029175D01*
X0036331Y0027576D02*
X0035962Y0027576D01*
X0036331Y0025978D02*
X0041300Y0025978D01*
X0041251Y0027576D02*
X0040112Y0027576D01*
X0039651Y0029175D02*
X0041197Y0029175D01*
X0040374Y0024379D02*
X0040112Y0024379D01*
X0036800Y0017400D02*
X0036800Y0012000D01*
X0032519Y0011591D02*
X0020938Y0011591D01*
X0021230Y0011332D02*
X0032519Y0011332D01*
X0032519Y0012852D01*
X0033077Y0014200D01*
X0027799Y0014200D01*
X0027746Y0014072D01*
X0027071Y0013397D01*
X0026189Y0013031D01*
X0020904Y0013031D01*
X0020022Y0013397D01*
X0019675Y0013744D01*
X0019256Y0013631D01*
X0018636Y0013631D01*
X0021230Y0011332D01*
X0020522Y0013190D02*
X0019134Y0013190D01*
X0017038Y0017985D02*
X0016669Y0017985D01*
X0016669Y0019584D02*
X0017038Y0019584D01*
X0016057Y0021182D02*
X0019801Y0021182D01*
X0023546Y0017400D02*
X0036800Y0017400D01*
X0050864Y0017400D01*
X0050864Y0020263D01*
X0064958Y0012438D02*
X0058644Y0005200D01*
X0113013Y0005200D01*
X0113013Y0011641D01*
X0113378Y0012523D01*
X0114053Y0013198D01*
X0114935Y0013564D01*
X0128600Y0013564D01*
X0128600Y0029236D01*
X0114935Y0029236D01*
X0114053Y0029602D01*
X0113378Y0030277D01*
X0113013Y0031159D01*
X0113013Y0038413D01*
X0113378Y0039295D01*
X0114053Y0039970D01*
X0114935Y0040335D01*
X0128600Y0040335D01*
X0128600Y0047540D01*
X0119272Y0047540D01*
X0118390Y0047906D01*
X0117715Y0048581D01*
X0117350Y0049463D01*
X0117350Y0058292D01*
X0117715Y0059174D01*
X0118390Y0059849D01*
X0119272Y0060214D01*
X0128600Y0060214D01*
X0128600Y0082186D01*
X0119272Y0082186D01*
X0118390Y0082551D01*
X0117715Y0083226D01*
X0117350Y0084108D01*
X0117350Y0092937D01*
X0117715Y0093819D01*
X0118390Y0094494D01*
X0119272Y0094860D01*
X0128600Y0094860D01*
X0128600Y0100459D01*
X0125950Y0099362D01*
X0125950Y0097523D01*
X0125585Y0096641D01*
X0124909Y0095965D01*
X0124027Y0095600D01*
X0114773Y0095600D01*
X0113891Y0095965D01*
X0113215Y0096641D01*
X0113111Y0096893D01*
X0111615Y0096893D01*
X0111102Y0096870D01*
X0111041Y0096893D01*
X0110976Y0096893D01*
X0110501Y0097089D01*
X0110018Y0097265D01*
X0109970Y0097309D01*
X0109910Y0097334D01*
X0109546Y0097698D01*
X0106728Y0100283D01*
X0106728Y0099200D01*
X0103396Y0099200D01*
X0103396Y0099200D01*
X0106728Y0099200D01*
X0106728Y0097540D01*
X0106794Y0097568D01*
X0107169Y0097568D01*
X0107541Y0097613D01*
X0107702Y0097568D01*
X0107869Y0097568D01*
X0108215Y0097424D01*
X0108575Y0097324D01*
X0108707Y0097221D01*
X0108861Y0097157D01*
X0109126Y0096892D01*
X0109420Y0096661D01*
X0109502Y0096515D01*
X0110268Y0095750D01*
X0111028Y0094990D01*
X0111439Y0093998D01*
X0111439Y0084083D01*
X0111794Y0084230D01*
X0113532Y0084230D01*
X0115138Y0083565D01*
X0116366Y0082336D01*
X0117031Y0080730D01*
X0117031Y0078992D01*
X0116366Y0077387D01*
X0115138Y0076158D01*
X0113532Y0075493D01*
X0111794Y0075493D01*
X0111439Y0075640D01*
X0111439Y0071114D01*
X0111028Y0070121D01*
X0107543Y0066637D01*
X0107543Y0066589D01*
X0107496Y0066476D01*
X0107543Y0066362D01*
X0107543Y0063439D01*
X0107178Y0062557D01*
X0106503Y0061882D01*
X0105621Y0061517D01*
X0103011Y0061517D01*
X0102839Y0061102D01*
X0102762Y0061024D01*
X0102712Y0060926D01*
X0102342Y0060605D01*
X0101995Y0060258D01*
X0101894Y0060216D01*
X0101892Y0060214D01*
X0108022Y0060214D01*
X0108904Y0059849D01*
X0109579Y0059174D01*
X0109945Y0058292D01*
X0109945Y0049463D01*
X0109579Y0048581D01*
X0108904Y0047906D01*
X0108022Y0047540D01*
X0102915Y0047540D01*
X0103039Y0047416D01*
X0103133Y0047189D01*
X0104011Y0045975D01*
X0105605Y0045975D01*
X0106487Y0045609D01*
X0107162Y0044934D01*
X0107528Y0044052D01*
X0107528Y0039948D01*
X0107162Y0039066D01*
X0106487Y0038391D01*
X0105605Y0038025D01*
X0104352Y0038025D01*
X0101400Y0034015D01*
X0101400Y0029105D01*
X0101449Y0029105D01*
X0101449Y0025521D01*
X0101817Y0025521D01*
X0101817Y0029105D01*
X0110925Y0029105D01*
X0111383Y0028983D01*
X0111793Y0028746D01*
X0112129Y0028411D01*
X0112366Y0028000D01*
X0112488Y0027542D01*
X0112488Y0025521D01*
X0101817Y0025521D01*
X0101817Y0025153D01*
X0112488Y0025153D01*
X0112488Y0023132D01*
X0112366Y0022674D01*
X0112129Y0022263D01*
X0111793Y0021928D01*
X0111434Y0021720D01*
X0112048Y0021466D01*
X0112723Y0020791D01*
X0113088Y0019909D01*
X0113088Y0015017D01*
X0112723Y0014135D01*
X0112048Y0013460D01*
X0111166Y0013094D01*
X0103551Y0013094D01*
X0100710Y0010254D01*
X0100429Y0009575D01*
X0099225Y0008371D01*
X0097652Y0007719D01*
X0095948Y0007719D01*
X0094375Y0008371D01*
X0093171Y0009575D01*
X0092519Y0011148D01*
X0092519Y0012852D01*
X0092620Y0013094D01*
X0092101Y0013094D01*
X0091218Y0013460D01*
X0090543Y0014135D01*
X0090178Y0015017D01*
X0090178Y0019909D01*
X0090543Y0020791D01*
X0091218Y0021466D01*
X0091832Y0021720D01*
X0091473Y0021928D01*
X0091138Y0022263D01*
X0090901Y0022674D01*
X0090778Y0023132D01*
X0090778Y0023145D01*
X0090356Y0022948D01*
X0090290Y0022946D01*
X0090229Y0022920D01*
X0089696Y0022920D01*
X0089163Y0022898D01*
X0089101Y0022920D01*
X0086168Y0022920D01*
X0086168Y0022704D01*
X0085877Y0022000D01*
X0086168Y0021296D01*
X0086168Y0016011D01*
X0085803Y0015129D01*
X0085128Y0014454D01*
X0085000Y0014401D01*
X0085000Y0014368D01*
X0085289Y0014368D01*
X0086171Y0014003D01*
X0086846Y0013328D01*
X0087212Y0012446D01*
X0087212Y0007554D01*
X0086846Y0006672D01*
X0086171Y0005997D01*
X0085289Y0005631D01*
X0080004Y0005631D01*
X0079122Y0005997D01*
X0078775Y0006344D01*
X0078356Y0006231D01*
X0076138Y0006231D01*
X0076138Y0009816D01*
X0075769Y0009816D01*
X0071988Y0009816D01*
X0071988Y0007795D01*
X0072111Y0007337D01*
X0072348Y0006926D01*
X0072683Y0006591D01*
X0073093Y0006354D01*
X0073551Y0006231D01*
X0075769Y0006231D01*
X0075769Y0009816D01*
X0075769Y0010184D01*
X0071988Y0010184D01*
X0071988Y0012205D01*
X0072111Y0012663D01*
X0072348Y0013074D01*
X0072683Y0013409D01*
X0073093Y0013646D01*
X0073551Y0013768D01*
X0075769Y0013768D01*
X0075769Y0010184D01*
X0076138Y0010184D01*
X0076138Y0013768D01*
X0078356Y0013768D01*
X0078600Y0013703D01*
X0078600Y0014401D01*
X0078472Y0014454D01*
X0077797Y0015129D01*
X0077662Y0015454D01*
X0071163Y0015454D01*
X0069987Y0015941D01*
X0069236Y0016692D01*
X0069236Y0015887D01*
X0068795Y0014821D01*
X0067979Y0014005D01*
X0066913Y0013564D01*
X0065337Y0013564D01*
X0064958Y0012438D01*
X0065211Y0013190D02*
X0072464Y0013190D01*
X0071988Y0011591D02*
X0064219Y0011591D01*
X0062825Y0009993D02*
X0075769Y0009993D01*
X0075769Y0011591D02*
X0076138Y0011591D01*
X0076138Y0013190D02*
X0075769Y0013190D01*
X0078137Y0014788D02*
X0068762Y0014788D01*
X0069236Y0016387D02*
X0069541Y0016387D01*
X0071800Y0018654D02*
X0081800Y0018654D01*
X0081800Y0010000D01*
X0082646Y0010000D01*
X0085463Y0014788D02*
X0090273Y0014788D01*
X0090178Y0016387D02*
X0086168Y0016387D01*
X0086168Y0017985D02*
X0090178Y0017985D01*
X0090178Y0019584D02*
X0086168Y0019584D01*
X0086168Y0021182D02*
X0090934Y0021182D01*
X0090872Y0022781D02*
X0086168Y0022781D01*
X0081800Y0025346D02*
X0070044Y0025346D01*
X0067158Y0025346D01*
X0064076Y0039900D02*
X0062862Y0039900D01*
X0062904Y0040021D01*
X0063076Y0040414D01*
X0063078Y0040526D01*
X0063114Y0040632D01*
X0063089Y0041059D01*
X0063097Y0041488D01*
X0063057Y0041592D01*
X0062976Y0042924D01*
X0063257Y0043205D01*
X0063310Y0043332D01*
X0068929Y0043332D01*
X0069999Y0043775D01*
X0070183Y0043591D01*
X0070593Y0043354D01*
X0071051Y0043231D01*
X0073269Y0043231D01*
X0073269Y0046816D01*
X0073638Y0046816D01*
X0073638Y0043231D01*
X0075856Y0043231D01*
X0076275Y0043344D01*
X0076622Y0042997D01*
X0077504Y0042631D01*
X0078330Y0042631D01*
X0077067Y0041368D01*
X0072504Y0041368D01*
X0071800Y0041077D01*
X0071096Y0041368D01*
X0065811Y0041368D01*
X0064929Y0041003D01*
X0064254Y0040328D01*
X0064076Y0039900D01*
X0064290Y0040364D02*
X0063054Y0040364D01*
X0063034Y0041963D02*
X0077662Y0041963D01*
X0073638Y0043561D02*
X0073269Y0043561D01*
X0073269Y0045160D02*
X0073638Y0045160D01*
X0073638Y0046758D02*
X0073269Y0046758D01*
X0070235Y0043561D02*
X0069482Y0043561D01*
X0065068Y0058439D02*
X0065068Y0062076D01*
X0073260Y0062076D01*
X0070494Y0067099D02*
X0069932Y0066866D01*
X0069257Y0066191D01*
X0068891Y0065309D01*
X0068891Y0065276D01*
X0064431Y0065276D01*
X0063255Y0064788D01*
X0063099Y0064633D01*
X0063032Y0064972D01*
X0062844Y0065425D01*
X0062572Y0065832D01*
X0062225Y0066179D01*
X0061818Y0066451D01*
X0061365Y0066639D01*
X0060983Y0066715D01*
X0060983Y0069031D01*
X0063189Y0069031D01*
X0064071Y0069397D01*
X0064746Y0070072D01*
X0065112Y0070954D01*
X0065112Y0075846D01*
X0064746Y0076728D01*
X0064071Y0077403D01*
X0063798Y0077516D01*
X0063798Y0078522D01*
X0063978Y0078597D01*
X0064325Y0078944D01*
X0064744Y0078831D01*
X0066962Y0078831D01*
X0066962Y0082416D01*
X0067331Y0082416D01*
X0067331Y0078831D01*
X0067847Y0078831D01*
X0067847Y0070370D01*
X0068289Y0069305D01*
X0069105Y0068489D01*
X0070494Y0067099D01*
X0070054Y0067539D02*
X0060983Y0067539D01*
X0062464Y0065940D02*
X0069153Y0065940D01*
X0068456Y0069137D02*
X0063445Y0069137D01*
X0065021Y0070736D02*
X0067847Y0070736D01*
X0067847Y0072334D02*
X0065112Y0072334D01*
X0065112Y0073933D02*
X0067847Y0073933D01*
X0067847Y0075532D02*
X0065112Y0075532D01*
X0064344Y0077130D02*
X0067847Y0077130D01*
X0067847Y0078729D02*
X0064110Y0078729D01*
X0066962Y0080327D02*
X0067331Y0080327D01*
X0067331Y0081926D02*
X0066962Y0081926D01*
X0066962Y0083524D02*
X0067331Y0083524D01*
X0067331Y0085123D02*
X0066962Y0085123D01*
X0067847Y0086721D02*
X0063694Y0086721D01*
X0056200Y0093054D02*
X0042606Y0093054D01*
X0041800Y0093054D01*
X0041800Y0092000D01*
X0037903Y0107502D02*
X0036827Y0107502D01*
X0040500Y0129326D02*
X0018496Y0129326D01*
X0011800Y0122630D01*
X0011800Y0130504D02*
X0013772Y0132476D01*
X0040500Y0132476D01*
X0040500Y0135625D02*
X0028175Y0135625D01*
X0026800Y0137000D01*
X0013178Y0137000D01*
X0011800Y0138378D01*
X0011800Y0146252D02*
X0012548Y0147000D01*
X0021800Y0147000D01*
X0030025Y0138775D01*
X0040500Y0138775D01*
X0040500Y0141924D02*
X0031876Y0141924D01*
X0021800Y0152000D01*
X0013926Y0152000D01*
X0011800Y0154126D01*
X0011800Y0162000D02*
X0016800Y0162000D01*
X0033726Y0145074D01*
X0040500Y0145074D01*
X0045400Y0145866D02*
X0045479Y0145866D01*
X0045400Y0145945D02*
X0047352Y0143993D01*
X0048112Y0143234D01*
X0049104Y0142823D01*
X0069400Y0142823D01*
X0069400Y0140447D01*
X0069440Y0140350D01*
X0069400Y0140252D01*
X0069400Y0137297D01*
X0069440Y0137200D01*
X0069400Y0137103D01*
X0069400Y0134148D01*
X0069765Y0133266D01*
X0070000Y0133031D01*
X0070000Y0132476D01*
X0070718Y0132476D01*
X0070718Y0132476D01*
X0070718Y0132476D01*
X0070000Y0132476D01*
X0070000Y0131920D01*
X0069765Y0131685D01*
X0069400Y0130803D01*
X0069400Y0128724D01*
X0045806Y0128724D01*
X0045623Y0128773D01*
X0045400Y0128745D01*
X0045400Y0130803D01*
X0045360Y0130901D01*
X0045400Y0130998D01*
X0045400Y0133953D01*
X0045360Y0134050D01*
X0045400Y0134148D01*
X0045400Y0137103D01*
X0045360Y0137200D01*
X0045400Y0137297D01*
X0045400Y0140252D01*
X0045360Y0140350D01*
X0045400Y0140447D01*
X0045400Y0143402D01*
X0045360Y0143499D01*
X0045400Y0143597D01*
X0045400Y0145945D01*
X0045400Y0144268D02*
X0047078Y0144268D01*
X0045400Y0142669D02*
X0069400Y0142669D01*
X0069400Y0141070D02*
X0045400Y0141070D01*
X0045400Y0139472D02*
X0069400Y0139472D01*
X0069400Y0137873D02*
X0045400Y0137873D01*
X0045400Y0136275D02*
X0069400Y0136275D01*
X0069400Y0134676D02*
X0045400Y0134676D01*
X0045400Y0133078D02*
X0069953Y0133078D01*
X0069680Y0131479D02*
X0045400Y0131479D01*
X0045400Y0129881D02*
X0069400Y0129881D01*
X0063257Y0107000D02*
X0059882Y0107000D01*
X0059882Y0105607D01*
X0058894Y0105607D01*
X0058420Y0105410D01*
X0057953Y0105410D01*
X0059882Y0107339D01*
X0059882Y0107000D01*
X0063257Y0107000D01*
X0063257Y0107000D01*
X0059882Y0105903D02*
X0058446Y0105903D01*
X0071232Y0096312D02*
X0071946Y0096312D01*
X0075146Y0092000D02*
X0075146Y0102000D01*
X0078454Y0102000D01*
X0078346Y0097631D02*
X0081096Y0097631D01*
X0081978Y0097997D01*
X0082325Y0098344D01*
X0082744Y0098231D01*
X0084962Y0098231D01*
X0084962Y0101816D01*
X0085331Y0101816D01*
X0085331Y0102184D01*
X0089112Y0102184D01*
X0089112Y0104205D01*
X0088989Y0104663D01*
X0088752Y0105074D01*
X0088417Y0105409D01*
X0088007Y0105646D01*
X0087549Y0105768D01*
X0085331Y0105768D01*
X0085331Y0102184D01*
X0084962Y0102184D01*
X0084962Y0105768D01*
X0082744Y0105768D01*
X0082325Y0105656D01*
X0082222Y0105759D01*
X0084781Y0108318D01*
X0084903Y0108022D01*
X0085578Y0107347D01*
X0086460Y0106982D01*
X0089005Y0106982D01*
X0093028Y0102959D01*
X0093028Y0102564D01*
X0093522Y0101372D01*
X0093472Y0101252D01*
X0093472Y0099135D01*
X0092544Y0098750D01*
X0091489Y0097695D01*
X0090939Y0096368D01*
X0087504Y0096368D01*
X0086800Y0096077D01*
X0086096Y0096368D01*
X0080811Y0096368D01*
X0079929Y0096003D01*
X0079300Y0095374D01*
X0078671Y0096003D01*
X0078346Y0096138D01*
X0078346Y0097631D01*
X0078346Y0096312D02*
X0080675Y0096312D01*
X0081770Y0097911D02*
X0091704Y0097911D01*
X0093472Y0099509D02*
X0089035Y0099509D01*
X0088989Y0099337D02*
X0089112Y0099795D01*
X0089112Y0101816D01*
X0085331Y0101816D01*
X0085331Y0098231D01*
X0087549Y0098231D01*
X0088007Y0098354D01*
X0088417Y0098591D01*
X0088752Y0098926D01*
X0088989Y0099337D01*
X0089112Y0101108D02*
X0093472Y0101108D01*
X0093028Y0102706D02*
X0089112Y0102706D01*
X0089085Y0104305D02*
X0091683Y0104305D01*
X0090084Y0105903D02*
X0082366Y0105903D01*
X0083965Y0107502D02*
X0085424Y0107502D01*
X0085331Y0104305D02*
X0084962Y0104305D01*
X0084962Y0102706D02*
X0085331Y0102706D01*
X0085331Y0101108D02*
X0084962Y0101108D01*
X0084962Y0099509D02*
X0085331Y0099509D01*
X0086232Y0096312D02*
X0087368Y0096312D01*
X0090146Y0092000D02*
X0090146Y0082146D01*
X0091000Y0082146D01*
X0091184Y0075269D02*
X0091184Y0071488D01*
X0092419Y0071488D01*
X0093657Y0070251D01*
X0093657Y0069738D01*
X0093704Y0069625D01*
X0093657Y0069512D01*
X0093657Y0066589D01*
X0093704Y0066476D01*
X0093657Y0066362D01*
X0093657Y0063439D01*
X0094022Y0062557D01*
X0094679Y0061901D01*
X0094181Y0061469D01*
X0094079Y0061427D01*
X0093732Y0061080D01*
X0093362Y0060759D01*
X0093313Y0060661D01*
X0093235Y0060583D01*
X0093047Y0060130D01*
X0092828Y0059692D01*
X0092820Y0059582D01*
X0092778Y0059480D01*
X0092778Y0058990D01*
X0092758Y0058700D01*
X0092246Y0058912D01*
X0088147Y0058912D01*
X0086712Y0060346D01*
X0087646Y0060733D01*
X0088701Y0061788D01*
X0089272Y0063166D01*
X0089272Y0064658D01*
X0088701Y0066036D01*
X0088222Y0066515D01*
X0088222Y0071677D01*
X0088337Y0071611D01*
X0088795Y0071488D01*
X0090816Y0071488D01*
X0090816Y0075269D01*
X0091184Y0075269D01*
X0091184Y0073933D02*
X0090816Y0073933D01*
X0090816Y0072334D02*
X0091184Y0072334D01*
X0093171Y0070736D02*
X0088222Y0070736D01*
X0088222Y0069137D02*
X0093657Y0069137D01*
X0093657Y0067539D02*
X0088222Y0067539D01*
X0088740Y0065940D02*
X0093657Y0065940D01*
X0093657Y0064342D02*
X0089272Y0064342D01*
X0089097Y0062743D02*
X0093945Y0062743D01*
X0093797Y0061145D02*
X0088058Y0061145D01*
X0087512Y0059546D02*
X0092806Y0059546D01*
X0085431Y0053142D02*
X0085431Y0051704D01*
X0085797Y0050822D01*
X0086144Y0050475D01*
X0086031Y0050056D01*
X0086031Y0049068D01*
X0085415Y0049323D01*
X0084712Y0049323D01*
X0084712Y0049446D01*
X0084351Y0050318D01*
X0084800Y0051403D01*
X0084800Y0053773D01*
X0085431Y0053142D01*
X0085421Y0053152D02*
X0084800Y0053152D01*
X0084800Y0051554D02*
X0085494Y0051554D01*
X0086031Y0049955D02*
X0084501Y0049955D01*
X0087438Y0047838D02*
X0089616Y0047838D01*
X0089616Y0047469D01*
X0087591Y0047469D01*
X0087438Y0047838D01*
X0090331Y0037184D02*
X0094112Y0037184D01*
X0094112Y0038992D01*
X0094713Y0038391D01*
X0095595Y0038025D01*
X0096902Y0038025D01*
X0096118Y0036961D01*
X0095857Y0036699D01*
X0095768Y0036485D01*
X0095630Y0036298D01*
X0095542Y0035939D01*
X0095400Y0035597D01*
X0095400Y0035365D01*
X0095344Y0035139D01*
X0095400Y0034773D01*
X0095400Y0031798D01*
X0090041Y0031798D01*
X0089979Y0031821D01*
X0089447Y0031798D01*
X0088913Y0031798D01*
X0088853Y0031773D01*
X0088787Y0031770D01*
X0088304Y0031546D01*
X0087811Y0031342D01*
X0087764Y0031295D01*
X0087705Y0031267D01*
X0087344Y0030875D01*
X0086967Y0030498D01*
X0086942Y0030437D01*
X0086897Y0030388D01*
X0086714Y0029888D01*
X0086510Y0029395D01*
X0086510Y0029329D01*
X0086488Y0029268D01*
X0086502Y0028920D01*
X0085754Y0028920D01*
X0085128Y0029546D01*
X0084246Y0029912D01*
X0084213Y0029912D01*
X0084258Y0029957D01*
X0084700Y0031023D01*
X0084700Y0032631D01*
X0086096Y0032631D01*
X0086978Y0032997D01*
X0087325Y0033344D01*
X0087744Y0033231D01*
X0089962Y0033231D01*
X0089962Y0036816D01*
X0090331Y0036816D01*
X0090331Y0037184D01*
X0090331Y0037167D02*
X0096270Y0037167D01*
X0095400Y0035569D02*
X0094112Y0035569D01*
X0094112Y0034795D02*
X0094112Y0036816D01*
X0090331Y0036816D01*
X0090331Y0033231D01*
X0092549Y0033231D01*
X0093007Y0033354D01*
X0093417Y0033591D01*
X0093752Y0033926D01*
X0093989Y0034337D01*
X0094112Y0034795D01*
X0093778Y0033970D02*
X0095400Y0033970D01*
X0095400Y0032372D02*
X0084700Y0032372D01*
X0084596Y0030773D02*
X0087242Y0030773D01*
X0086492Y0029175D02*
X0085500Y0029175D01*
X0089962Y0033970D02*
X0090331Y0033970D01*
X0090331Y0035569D02*
X0089962Y0035569D01*
X0094112Y0038766D02*
X0094338Y0038766D01*
X0101400Y0033970D02*
X0113013Y0033970D01*
X0113013Y0032372D02*
X0101400Y0032372D01*
X0101400Y0030773D02*
X0113172Y0030773D01*
X0112479Y0027576D02*
X0128600Y0027576D01*
X0128600Y0025978D02*
X0112488Y0025978D01*
X0112488Y0024379D02*
X0128600Y0024379D01*
X0128600Y0022781D02*
X0112394Y0022781D01*
X0112332Y0021182D02*
X0128600Y0021182D01*
X0128600Y0019584D02*
X0113088Y0019584D01*
X0113088Y0017985D02*
X0128600Y0017985D01*
X0128600Y0016387D02*
X0113088Y0016387D01*
X0112993Y0014788D02*
X0128600Y0014788D01*
X0128600Y0029175D02*
X0101400Y0029175D01*
X0101449Y0027576D02*
X0101817Y0027576D01*
X0101817Y0025978D02*
X0101449Y0025978D01*
X0102544Y0035569D02*
X0113013Y0035569D01*
X0113013Y0037167D02*
X0103720Y0037167D01*
X0106862Y0038766D02*
X0113159Y0038766D01*
X0107528Y0040364D02*
X0128600Y0040364D01*
X0128600Y0041963D02*
X0107528Y0041963D01*
X0107528Y0043561D02*
X0128600Y0043561D01*
X0128600Y0045160D02*
X0106937Y0045160D01*
X0103445Y0046758D02*
X0128600Y0046758D01*
X0128600Y0061145D02*
X0116814Y0061145D01*
X0117031Y0061670D02*
X0116366Y0060064D01*
X0115138Y0058835D01*
X0113532Y0058170D01*
X0111794Y0058170D01*
X0110188Y0058835D01*
X0108960Y0060064D01*
X0108294Y0061670D01*
X0108294Y0063408D01*
X0108960Y0065013D01*
X0110188Y0066242D01*
X0111794Y0066907D01*
X0113532Y0066907D01*
X0115138Y0066242D01*
X0116366Y0065013D01*
X0117031Y0063408D01*
X0117031Y0061670D01*
X0117031Y0062743D02*
X0128600Y0062743D01*
X0128600Y0064342D02*
X0116644Y0064342D01*
X0115439Y0065940D02*
X0128600Y0065940D01*
X0128600Y0067539D02*
X0108445Y0067539D01*
X0107543Y0065940D02*
X0109887Y0065940D01*
X0108682Y0064342D02*
X0107543Y0064342D01*
X0107255Y0062743D02*
X0108294Y0062743D01*
X0108512Y0061145D02*
X0102857Y0061145D01*
X0109207Y0059546D02*
X0109477Y0059546D01*
X0109945Y0057948D02*
X0117350Y0057948D01*
X0117350Y0056349D02*
X0109945Y0056349D01*
X0109945Y0054751D02*
X0117350Y0054751D01*
X0117350Y0053152D02*
X0109945Y0053152D01*
X0109945Y0051554D02*
X0117350Y0051554D01*
X0117350Y0049955D02*
X0109945Y0049955D01*
X0109356Y0048357D02*
X0117939Y0048357D01*
X0118088Y0059546D02*
X0115849Y0059546D01*
X0110044Y0069137D02*
X0128600Y0069137D01*
X0128600Y0070736D02*
X0111282Y0070736D01*
X0111439Y0072334D02*
X0128600Y0072334D01*
X0128600Y0073933D02*
X0111439Y0073933D01*
X0111439Y0075532D02*
X0111701Y0075532D01*
X0113625Y0075532D02*
X0128600Y0075532D01*
X0128600Y0077130D02*
X0116110Y0077130D01*
X0116922Y0078729D02*
X0128600Y0078729D01*
X0128600Y0080327D02*
X0117031Y0080327D01*
X0116536Y0081926D02*
X0128600Y0081926D01*
X0128600Y0096312D02*
X0125256Y0096312D01*
X0125950Y0097911D02*
X0128600Y0097911D01*
X0128600Y0099509D02*
X0126306Y0099509D01*
X0118919Y0094714D02*
X0111142Y0094714D01*
X0111439Y0093115D02*
X0117423Y0093115D01*
X0117350Y0091517D02*
X0111439Y0091517D01*
X0111439Y0089918D02*
X0117350Y0089918D01*
X0117350Y0088320D02*
X0111439Y0088320D01*
X0111439Y0086721D02*
X0117350Y0086721D01*
X0117350Y0085123D02*
X0111439Y0085123D01*
X0115178Y0083524D02*
X0117592Y0083524D01*
X0113544Y0096312D02*
X0109705Y0096312D01*
X0109314Y0097911D02*
X0106728Y0097911D01*
X0106728Y0099509D02*
X0107571Y0099509D01*
X0106039Y0082186D02*
X0097619Y0082186D01*
X0097368Y0082290D01*
X0097368Y0080283D01*
X0100600Y0080283D01*
X0100600Y0077734D01*
X0100600Y0077734D01*
X0100600Y0080283D01*
X0105380Y0080283D01*
X0105838Y0080161D01*
X0106039Y0080045D01*
X0106039Y0082186D01*
X0106039Y0081926D02*
X0097368Y0081926D01*
X0097368Y0080327D02*
X0106039Y0080327D01*
X0100600Y0078729D02*
X0100600Y0078729D01*
X0082800Y0078154D02*
X0077000Y0078154D01*
X0077000Y0071524D01*
X0075146Y0092000D02*
X0083454Y0092000D01*
X0055520Y0062868D02*
X0052961Y0062868D01*
X0029488Y0037167D02*
X0027549Y0037167D01*
X0025190Y0029175D02*
X0019146Y0029175D01*
X0017548Y0027576D02*
X0024888Y0027576D01*
X0024888Y0025978D02*
X0016057Y0025978D01*
X0016057Y0024379D02*
X0024888Y0024379D01*
X0025209Y0022781D02*
X0016057Y0022781D01*
X0008421Y0011591D02*
X0005000Y0011591D01*
X0005000Y0009993D02*
X0009902Y0009993D01*
X0011383Y0008394D02*
X0005000Y0008394D01*
X0005000Y0006796D02*
X0012863Y0006796D01*
X0007122Y0013190D02*
X0005000Y0013190D01*
X0005000Y0014788D02*
X0006850Y0014788D01*
X0006850Y0016387D02*
X0005000Y0016387D01*
X0005000Y0017985D02*
X0006850Y0017985D01*
X0006850Y0019584D02*
X0005000Y0019584D01*
X0005000Y0021182D02*
X0006850Y0021182D01*
X0006850Y0022781D02*
X0005000Y0022781D01*
X0005000Y0024379D02*
X0006850Y0024379D01*
X0006850Y0025978D02*
X0005000Y0025978D01*
X0005000Y0027576D02*
X0006850Y0027576D01*
X0006850Y0029175D02*
X0005000Y0029175D01*
X0005000Y0030773D02*
X0006850Y0030773D01*
X0006850Y0032372D02*
X0005000Y0032372D01*
X0005000Y0033970D02*
X0006850Y0033970D01*
X0006850Y0035569D02*
X0005000Y0035569D01*
X0005000Y0037167D02*
X0006850Y0037167D01*
X0006850Y0038766D02*
X0005000Y0038766D01*
X0005000Y0040364D02*
X0006850Y0040364D01*
X0006850Y0041963D02*
X0005000Y0041963D01*
X0005000Y0043561D02*
X0006850Y0043561D01*
X0006850Y0045160D02*
X0005000Y0045160D01*
X0005000Y0046758D02*
X0006850Y0046758D01*
X0006849Y0048357D02*
X0005000Y0048357D01*
X0005000Y0049955D02*
X0007328Y0049955D01*
X0009132Y0051554D02*
X0005000Y0051554D01*
X0005000Y0053152D02*
X0011027Y0053152D01*
X0012921Y0054751D02*
X0005000Y0054751D01*
X0005000Y0056349D02*
X0014816Y0056349D01*
X0016710Y0057948D02*
X0005000Y0057948D01*
X0005000Y0059546D02*
X0018520Y0059546D01*
X0017573Y0061145D02*
X0020118Y0061145D01*
X0021717Y0062743D02*
X0017750Y0062743D01*
X0013378Y0062743D02*
X0012222Y0062743D01*
X0012222Y0061145D02*
X0013378Y0061145D01*
X0013378Y0065940D02*
X0012222Y0065940D01*
X0012222Y0067539D02*
X0013378Y0067539D01*
X0013378Y0069137D02*
X0012222Y0069137D01*
X0007850Y0062743D02*
X0005000Y0062743D01*
X0005000Y0061145D02*
X0008027Y0061145D01*
X0026571Y0013190D02*
X0032659Y0013190D01*
X0060036Y0006796D02*
X0072479Y0006796D01*
X0071988Y0008394D02*
X0061430Y0008394D01*
X0075769Y0008394D02*
X0076138Y0008394D01*
X0076138Y0006796D02*
X0075769Y0006796D01*
X0086898Y0006796D02*
X0113013Y0006796D01*
X0113013Y0008394D02*
X0099248Y0008394D01*
X0100602Y0009993D02*
X0113013Y0009993D01*
X0113013Y0011591D02*
X0102048Y0011591D01*
X0094352Y0008394D02*
X0087212Y0008394D01*
X0087212Y0009993D02*
X0092998Y0009993D01*
X0092519Y0011591D02*
X0087212Y0011591D01*
X0086904Y0013190D02*
X0091871Y0013190D01*
X0111395Y0013190D02*
X0114044Y0013190D01*
X0035600Y0148274D02*
X0035051Y0148274D01*
X0019513Y0163813D01*
X0018613Y0164713D01*
X0017437Y0165200D01*
X0016413Y0165200D01*
X0016197Y0165722D01*
X0015522Y0166397D01*
X0014640Y0166762D01*
X0013355Y0166762D01*
X0018310Y0171368D01*
X0020551Y0171368D01*
X0022115Y0170293D01*
X0021919Y0169820D01*
X0021919Y0166700D01*
X0022285Y0165818D01*
X0022960Y0165143D01*
X0023842Y0164777D01*
X0029521Y0164777D01*
X0030403Y0165143D01*
X0031078Y0165818D01*
X0031444Y0166700D01*
X0031444Y0169820D01*
X0031078Y0170702D01*
X0030403Y0171377D01*
X0029521Y0171743D01*
X0029208Y0171743D01*
X0029170Y0171946D01*
X0029001Y0172206D01*
X0028980Y0172257D01*
X0029521Y0172257D01*
X0030403Y0172623D01*
X0030620Y0172840D01*
X0032756Y0172840D01*
X0032756Y0172000D01*
X0032756Y0170937D01*
X0032522Y0170702D01*
X0032156Y0169820D01*
X0032156Y0166700D01*
X0032522Y0165818D01*
X0033197Y0165143D01*
X0034079Y0164777D01*
X0034277Y0164777D01*
X0034277Y0157650D01*
X0034688Y0156657D01*
X0039722Y0151624D01*
X0037523Y0151624D01*
X0036641Y0151258D01*
X0035965Y0150583D01*
X0035600Y0149701D01*
X0035600Y0148274D01*
X0035600Y0149063D02*
X0034262Y0149063D01*
X0032664Y0150662D02*
X0036044Y0150662D01*
X0037487Y0153859D02*
X0029467Y0153859D01*
X0031065Y0152260D02*
X0039085Y0152260D01*
X0042976Y0156006D02*
X0042976Y0157077D01*
X0043342Y0157959D01*
X0044017Y0158635D01*
X0044899Y0159000D01*
X0045229Y0159000D01*
X0046648Y0160420D01*
X0047408Y0161179D01*
X0048400Y0161590D01*
X0049148Y0161590D01*
X0049627Y0162069D01*
X0051006Y0162640D01*
X0052497Y0162640D01*
X0053876Y0162069D01*
X0054858Y0161087D01*
X0072731Y0161087D01*
X0073059Y0160951D01*
X0069134Y0164876D01*
X0068094Y0164876D01*
X0067212Y0165241D01*
X0066978Y0165476D01*
X0066800Y0165476D01*
X0066800Y0165653D01*
X0066800Y0165653D01*
X0066800Y0165653D01*
X0066800Y0165476D01*
X0066622Y0165476D01*
X0066388Y0165241D01*
X0065506Y0164876D01*
X0062976Y0164876D01*
X0062094Y0165241D01*
X0061999Y0165336D01*
X0052622Y0165336D01*
X0051629Y0165747D01*
X0050870Y0166507D01*
X0050166Y0167210D01*
X0050155Y0167238D01*
X0046204Y0167238D01*
X0045322Y0167603D01*
X0044647Y0168278D01*
X0044307Y0169100D01*
X0043823Y0169100D01*
X0042757Y0169541D01*
X0041081Y0171218D01*
X0041081Y0170937D01*
X0041315Y0170702D01*
X0041681Y0169820D01*
X0041681Y0166700D01*
X0041315Y0165818D01*
X0040640Y0165143D01*
X0039758Y0164777D01*
X0039677Y0164777D01*
X0039677Y0159305D01*
X0042976Y0156006D01*
X0042976Y0157056D02*
X0041927Y0157056D01*
X0040328Y0158654D02*
X0044064Y0158654D01*
X0046481Y0160253D02*
X0039677Y0160253D01*
X0039677Y0161851D02*
X0049409Y0161851D01*
X0050730Y0166647D02*
X0041659Y0166647D01*
X0041681Y0168245D02*
X0044680Y0168245D01*
X0042455Y0169844D02*
X0041671Y0169844D01*
X0040412Y0165048D02*
X0062560Y0165048D01*
X0065922Y0165048D02*
X0067678Y0165048D01*
X0070560Y0163450D02*
X0039677Y0163450D01*
X0034277Y0163450D02*
X0019876Y0163450D01*
X0021474Y0161851D02*
X0034277Y0161851D01*
X0034277Y0160253D02*
X0023073Y0160253D01*
X0024671Y0158654D02*
X0034277Y0158654D01*
X0034523Y0157056D02*
X0026270Y0157056D01*
X0027868Y0155457D02*
X0035888Y0155457D01*
X0033425Y0165048D02*
X0030175Y0165048D01*
X0031422Y0166647D02*
X0032178Y0166647D01*
X0032156Y0168245D02*
X0031444Y0168245D01*
X0031434Y0169844D02*
X0032166Y0169844D01*
X0032756Y0171442D02*
X0030246Y0171442D01*
X0032756Y0172000D02*
X0036918Y0172000D01*
X0036918Y0172000D01*
X0032756Y0172000D01*
X0023188Y0165048D02*
X0017803Y0165048D01*
X0014919Y0166647D02*
X0021941Y0166647D01*
X0021919Y0168245D02*
X0014950Y0168245D01*
X0016670Y0169844D02*
X0021929Y0169844D01*
X0018306Y0177368D02*
X0016681Y0177368D01*
X0015579Y0176911D01*
X0014735Y0176067D01*
X0014665Y0175898D01*
X0005000Y0166915D01*
X0005000Y0208800D01*
X0061213Y0208800D01*
X0060665Y0207477D01*
X0060665Y0205985D01*
X0061236Y0204607D01*
X0062291Y0203552D01*
X0063669Y0202981D01*
X0065161Y0202981D01*
X0066540Y0203552D01*
X0067019Y0204031D01*
X0072443Y0204031D01*
X0076388Y0200086D01*
X0076011Y0199709D01*
X0075440Y0198331D01*
X0075440Y0196839D01*
X0075613Y0196420D01*
X0072744Y0193550D01*
X0072744Y0194604D01*
X0072333Y0195597D01*
X0071573Y0196356D01*
X0068759Y0199170D01*
X0067767Y0199581D01*
X0057169Y0199581D01*
X0056690Y0200061D01*
X0055312Y0200631D01*
X0053820Y0200631D01*
X0052442Y0200061D01*
X0051387Y0199006D01*
X0050816Y0197627D01*
X0050816Y0196136D01*
X0051387Y0194757D01*
X0052442Y0193702D01*
X0053820Y0193131D01*
X0055312Y0193131D01*
X0056690Y0193702D01*
X0057169Y0194181D01*
X0061415Y0194181D01*
X0060196Y0192963D01*
X0059453Y0192963D01*
X0058570Y0192598D01*
X0058336Y0192363D01*
X0057174Y0192363D01*
X0056012Y0192363D01*
X0055778Y0192598D01*
X0054895Y0192963D01*
X0051579Y0192963D01*
X0051269Y0192835D01*
X0050958Y0192963D01*
X0047641Y0192963D01*
X0046759Y0192598D01*
X0046525Y0192363D01*
X0045363Y0192363D01*
X0045363Y0186626D01*
X0045363Y0186626D01*
X0045363Y0192363D01*
X0043945Y0192363D01*
X0043487Y0192240D01*
X0043394Y0192187D01*
X0043302Y0192240D01*
X0042844Y0192363D01*
X0041426Y0192363D01*
X0041426Y0186626D01*
X0044407Y0186626D01*
X0045363Y0186626D01*
X0045363Y0186626D01*
X0041426Y0186626D01*
X0041426Y0186626D01*
X0041426Y0186626D01*
X0041426Y0192363D01*
X0040008Y0192363D01*
X0039550Y0192240D01*
X0039457Y0192187D01*
X0039365Y0192240D01*
X0038907Y0192363D01*
X0037489Y0192363D01*
X0037489Y0186626D01*
X0040470Y0186626D01*
X0041426Y0186626D01*
X0041426Y0186626D01*
X0037489Y0186626D01*
X0037489Y0186626D01*
X0037489Y0186626D01*
X0037489Y0192363D01*
X0036071Y0192363D01*
X0035613Y0192240D01*
X0035520Y0192187D01*
X0035428Y0192240D01*
X0034970Y0192363D01*
X0033552Y0192363D01*
X0033552Y0186626D01*
X0036533Y0186626D01*
X0037489Y0186626D01*
X0037489Y0186626D01*
X0033552Y0186626D01*
X0033552Y0186626D01*
X0033552Y0186626D01*
X0033552Y0192363D01*
X0032390Y0192363D01*
X0032156Y0192598D01*
X0031273Y0192963D01*
X0027956Y0192963D01*
X0027646Y0192835D01*
X0027336Y0192963D01*
X0024019Y0192963D01*
X0023709Y0192835D01*
X0023399Y0192963D01*
X0020082Y0192963D01*
X0019772Y0192835D01*
X0019462Y0192963D01*
X0017645Y0192963D01*
X0017645Y0204426D01*
X0017279Y0205308D01*
X0016604Y0205983D01*
X0015722Y0206349D01*
X0012012Y0206349D01*
X0011129Y0205983D01*
X0010454Y0205308D01*
X0010089Y0204426D01*
X0010089Y0186149D01*
X0010454Y0185266D01*
X0011129Y0184591D01*
X0012012Y0184226D01*
X0014223Y0184226D01*
X0014223Y0182212D01*
X0014588Y0181329D01*
X0015263Y0180654D01*
X0016145Y0180289D01*
X0018770Y0180289D01*
X0018763Y0180282D01*
X0018762Y0180278D01*
X0018759Y0180276D01*
X0018533Y0179727D01*
X0018306Y0179179D01*
X0018306Y0179175D01*
X0018305Y0179172D01*
X0018306Y0178578D01*
X0018306Y0177368D01*
X0018306Y0177836D02*
X0005000Y0177836D01*
X0005000Y0176238D02*
X0014905Y0176238D01*
X0013310Y0174639D02*
X0005000Y0174639D01*
X0005000Y0173041D02*
X0011590Y0173041D01*
X0009871Y0171442D02*
X0005000Y0171442D01*
X0005000Y0169844D02*
X0008151Y0169844D01*
X0006431Y0168245D02*
X0005000Y0168245D01*
X0005000Y0179435D02*
X0018412Y0179435D01*
X0014884Y0181033D02*
X0005000Y0181033D01*
X0005000Y0182632D02*
X0014223Y0182632D01*
X0012001Y0184230D02*
X0005000Y0184230D01*
X0005000Y0185829D02*
X0010221Y0185829D01*
X0010089Y0187427D02*
X0005000Y0187427D01*
X0005000Y0189026D02*
X0010089Y0189026D01*
X0010089Y0190624D02*
X0005000Y0190624D01*
X0005000Y0192223D02*
X0010089Y0192223D01*
X0010089Y0193821D02*
X0005000Y0193821D01*
X0005000Y0195420D02*
X0010089Y0195420D01*
X0010089Y0197018D02*
X0005000Y0197018D01*
X0005000Y0198617D02*
X0010089Y0198617D01*
X0010089Y0200215D02*
X0005000Y0200215D01*
X0005000Y0201814D02*
X0010089Y0201814D01*
X0010089Y0203412D02*
X0005000Y0203412D01*
X0005000Y0205011D02*
X0010331Y0205011D01*
X0005000Y0206609D02*
X0060665Y0206609D01*
X0060968Y0208208D02*
X0005000Y0208208D01*
X0017403Y0205011D02*
X0061069Y0205011D01*
X0062628Y0203412D02*
X0017645Y0203412D01*
X0017645Y0201814D02*
X0074660Y0201814D01*
X0073062Y0203412D02*
X0066203Y0203412D01*
X0069312Y0198617D02*
X0075558Y0198617D01*
X0075440Y0197018D02*
X0070911Y0197018D01*
X0072406Y0195420D02*
X0074613Y0195420D01*
X0073015Y0193821D02*
X0072744Y0193821D01*
X0076259Y0200215D02*
X0056316Y0200215D01*
X0052815Y0200215D02*
X0017645Y0200215D01*
X0017645Y0198617D02*
X0051226Y0198617D01*
X0050816Y0197018D02*
X0017645Y0197018D01*
X0017645Y0195420D02*
X0051112Y0195420D01*
X0052323Y0193821D02*
X0017645Y0193821D01*
X0033552Y0192223D02*
X0033552Y0192223D01*
X0033552Y0190624D02*
X0033552Y0190624D01*
X0033552Y0189026D02*
X0033552Y0189026D01*
X0033552Y0187427D02*
X0033552Y0187427D01*
X0037489Y0187427D02*
X0037489Y0187427D01*
X0037489Y0189026D02*
X0037489Y0189026D01*
X0037489Y0190624D02*
X0037489Y0190624D01*
X0037489Y0192223D02*
X0037489Y0192223D01*
X0035583Y0192223D02*
X0035458Y0192223D01*
X0039395Y0192223D02*
X0039520Y0192223D01*
X0041426Y0192223D02*
X0041426Y0192223D01*
X0041426Y0190624D02*
X0041426Y0190624D01*
X0041426Y0189026D02*
X0041426Y0189026D01*
X0041426Y0187427D02*
X0041426Y0187427D01*
X0043332Y0192223D02*
X0043457Y0192223D01*
X0045363Y0192223D02*
X0045363Y0192223D01*
X0045363Y0190624D02*
X0045363Y0190624D01*
X0045363Y0189026D02*
X0045363Y0189026D01*
X0045363Y0187427D02*
X0045363Y0187427D01*
X0057174Y0187427D02*
X0057174Y0187427D01*
X0057174Y0186626D02*
X0057174Y0192363D01*
X0057174Y0186626D01*
X0057174Y0186626D01*
X0057174Y0189026D02*
X0057174Y0189026D01*
X0057174Y0190624D02*
X0057174Y0190624D01*
X0057174Y0192223D02*
X0057174Y0192223D01*
X0056809Y0193821D02*
X0061055Y0193821D01*
X0058336Y0180889D02*
X0058570Y0180654D01*
X0059453Y0180289D01*
X0062770Y0180289D01*
X0063080Y0180417D01*
X0063390Y0180289D01*
X0064101Y0180289D01*
X0064606Y0179784D01*
X0063946Y0179124D01*
X0062976Y0179124D01*
X0062094Y0178759D01*
X0061483Y0178148D01*
X0060793Y0178148D01*
X0057657Y0180889D01*
X0058336Y0180889D01*
X0059321Y0179435D02*
X0064257Y0179435D01*
X0072159Y0161851D02*
X0054094Y0161851D01*
X0083571Y0192363D02*
X0083493Y0192441D01*
X0084293Y0193241D01*
X0084704Y0194234D01*
X0084704Y0198826D01*
X0084365Y0199645D01*
X0084892Y0200173D01*
X0084892Y0192363D01*
X0084733Y0192363D01*
X0083571Y0192363D01*
X0084733Y0192363D02*
X0084733Y0186626D01*
X0084733Y0186626D01*
X0084733Y0192363D01*
X0084733Y0192223D02*
X0084733Y0192223D01*
X0084733Y0190624D02*
X0084733Y0190624D01*
X0084733Y0189026D02*
X0084733Y0189026D01*
X0084733Y0187427D02*
X0084733Y0187427D01*
X0084892Y0193821D02*
X0084533Y0193821D01*
X0084704Y0195420D02*
X0084892Y0195420D01*
X0084892Y0197018D02*
X0084704Y0197018D01*
X0084704Y0198617D02*
X0084892Y0198617D01*
X0092448Y0204426D02*
X0092083Y0205308D01*
X0091408Y0205983D01*
X0091025Y0206142D01*
X0104336Y0206142D01*
X0103928Y0205158D01*
X0103928Y0202221D01*
X0092448Y0190741D01*
X0092448Y0204426D01*
X0092206Y0205011D02*
X0103928Y0205011D01*
X0103928Y0203412D02*
X0092448Y0203412D01*
X0092448Y0201814D02*
X0103521Y0201814D01*
X0101922Y0200215D02*
X0092448Y0200215D01*
X0092448Y0198617D02*
X0100324Y0198617D01*
X0098725Y0197018D02*
X0092448Y0197018D01*
X0092448Y0195420D02*
X0097127Y0195420D01*
X0095528Y0193821D02*
X0092448Y0193821D01*
X0092448Y0192223D02*
X0093930Y0192223D01*
X0096771Y0187427D02*
X0102501Y0187427D01*
X0100903Y0185829D02*
X0095172Y0185829D01*
X0093574Y0184230D02*
X0099304Y0184230D01*
X0097771Y0182696D02*
X0092086Y0182696D01*
X0092086Y0182742D01*
X0107633Y0198289D01*
X0108298Y0197624D01*
X0105400Y0194727D01*
X0105400Y0190326D01*
X0097771Y0182696D01*
X0098369Y0189026D02*
X0104100Y0189026D01*
X0105400Y0190624D02*
X0099968Y0190624D01*
X0101566Y0192223D02*
X0105400Y0192223D01*
X0105400Y0193821D02*
X0103165Y0193821D01*
X0104763Y0195420D02*
X0106093Y0195420D01*
X0106362Y0197018D02*
X0107692Y0197018D01*
X0111300Y0198300D02*
X0111300Y0202000D01*
X0111700Y0202000D01*
X0111700Y0198300D01*
X0111300Y0198300D01*
X0111300Y0198617D02*
X0111700Y0198617D01*
X0111700Y0200215D02*
X0111300Y0200215D01*
X0111300Y0201814D02*
X0111700Y0201814D01*
X0115695Y0198617D02*
X0116456Y0198617D01*
X0116076Y0198998D02*
X0117873Y0197200D01*
X0116500Y0195827D01*
X0114702Y0197624D01*
X0116076Y0198998D01*
X0115308Y0197018D02*
X0117692Y0197018D01*
X0126066Y0188139D02*
X0127600Y0189673D01*
X0127600Y0194336D01*
X0128600Y0195336D01*
X0128600Y0153541D01*
X0125950Y0154638D01*
X0125950Y0156477D01*
X0125585Y0157359D01*
X0124909Y0158035D01*
X0124027Y0158400D01*
X0114773Y0158400D01*
X0113891Y0158035D01*
X0113215Y0157359D01*
X0112850Y0156477D01*
X0112850Y0154638D01*
X0111116Y0153920D01*
X0106662Y0157053D01*
X0106662Y0158909D01*
X0106540Y0159205D01*
X0107204Y0159869D01*
X0108245Y0158829D01*
X0110487Y0157900D01*
X0112913Y0157900D01*
X0115155Y0158829D01*
X0116871Y0160545D01*
X0117750Y0162667D01*
X0118003Y0161889D01*
X0118396Y0161117D01*
X0118905Y0160417D01*
X0119517Y0159805D01*
X0120217Y0159296D01*
X0120989Y0158903D01*
X0121812Y0158635D01*
X0122667Y0158500D01*
X0122900Y0158500D01*
X0122900Y0163800D01*
X0123300Y0163800D01*
X0123300Y0164200D01*
X0122900Y0164200D01*
X0122900Y0169500D01*
X0122667Y0169500D01*
X0121812Y0169365D01*
X0120989Y0169097D01*
X0120217Y0168704D01*
X0119517Y0168195D01*
X0118905Y0167583D01*
X0118396Y0166883D01*
X0118003Y0166111D01*
X0117750Y0165333D01*
X0116871Y0167455D01*
X0115155Y0169171D01*
X0113126Y0170012D01*
X0119214Y0176100D01*
X0125677Y0176100D01*
X0126559Y0176465D01*
X0127235Y0177141D01*
X0127600Y0178023D01*
X0127600Y0186377D01*
X0127235Y0187259D01*
X0126559Y0187935D01*
X0126066Y0188139D01*
X0127067Y0187427D02*
X0128600Y0187427D01*
X0128600Y0185829D02*
X0127600Y0185829D01*
X0127600Y0184230D02*
X0128600Y0184230D01*
X0128600Y0182632D02*
X0127600Y0182632D01*
X0127600Y0181033D02*
X0128600Y0181033D01*
X0128600Y0179435D02*
X0127600Y0179435D01*
X0127523Y0177836D02*
X0128600Y0177836D01*
X0128600Y0176238D02*
X0126010Y0176238D01*
X0128600Y0174639D02*
X0117753Y0174639D01*
X0116154Y0173041D02*
X0128600Y0173041D01*
X0128600Y0171442D02*
X0114556Y0171442D01*
X0113532Y0169844D02*
X0128600Y0169844D01*
X0128600Y0168245D02*
X0126614Y0168245D01*
X0126683Y0168195D02*
X0125983Y0168704D01*
X0125211Y0169097D01*
X0124388Y0169365D01*
X0123533Y0169500D01*
X0123300Y0169500D01*
X0123300Y0164200D01*
X0128600Y0164200D01*
X0128600Y0164433D01*
X0128465Y0165288D01*
X0128197Y0166111D01*
X0127804Y0166883D01*
X0127295Y0167583D01*
X0126683Y0168195D01*
X0127924Y0166647D02*
X0128600Y0166647D01*
X0128600Y0165048D02*
X0128503Y0165048D01*
X0128600Y0163800D02*
X0123300Y0163800D01*
X0123300Y0158500D01*
X0123533Y0158500D01*
X0124388Y0158635D01*
X0125211Y0158903D01*
X0125983Y0159296D01*
X0126683Y0159805D01*
X0127295Y0160417D01*
X0127804Y0161117D01*
X0128197Y0161889D01*
X0128465Y0162712D01*
X0128600Y0163567D01*
X0128600Y0163800D01*
X0128581Y0163450D02*
X0128600Y0163450D01*
X0128600Y0161851D02*
X0128178Y0161851D01*
X0128600Y0160253D02*
X0127131Y0160253D01*
X0128600Y0158654D02*
X0124445Y0158654D01*
X0123300Y0158654D02*
X0122900Y0158654D01*
X0121755Y0158654D02*
X0114734Y0158654D01*
X0113090Y0157056D02*
X0106662Y0157056D01*
X0106662Y0158654D02*
X0108666Y0158654D01*
X0108930Y0155457D02*
X0112850Y0155457D01*
X0116579Y0160253D02*
X0119069Y0160253D01*
X0118022Y0161851D02*
X0117412Y0161851D01*
X0117206Y0166647D02*
X0118276Y0166647D01*
X0119586Y0168245D02*
X0116082Y0168245D01*
X0122900Y0168245D02*
X0123300Y0168245D01*
X0123300Y0166647D02*
X0122900Y0166647D01*
X0122900Y0165048D02*
X0123300Y0165048D01*
X0123300Y0163450D02*
X0122900Y0163450D01*
X0122900Y0161851D02*
X0123300Y0161851D01*
X0123300Y0160253D02*
X0122900Y0160253D01*
X0125710Y0157056D02*
X0128600Y0157056D01*
X0128600Y0155457D02*
X0125950Y0155457D01*
X0127832Y0153859D02*
X0128600Y0153859D01*
X0128600Y0189026D02*
X0126952Y0189026D01*
X0127600Y0190624D02*
X0128600Y0190624D01*
X0128600Y0192223D02*
X0127600Y0192223D01*
X0127600Y0193821D02*
X0128600Y0193821D01*
X0097280Y0169692D02*
X0097534Y0169078D01*
X0097596Y0169016D01*
X0097360Y0168918D01*
X0093842Y0165400D01*
X0093747Y0165305D01*
X0093493Y0165918D01*
X0093493Y0166672D01*
X0092922Y0168050D01*
X0092334Y0168638D01*
X0094057Y0168638D01*
X0095868Y0168638D01*
X0096326Y0168760D01*
X0096737Y0168997D01*
X0097072Y0169333D01*
X0097280Y0169692D01*
X0096687Y0168245D02*
X0092727Y0168245D01*
X0094057Y0168638D02*
X0094057Y0172800D01*
X0094057Y0168638D01*
X0094057Y0169844D02*
X0094057Y0169844D01*
X0094057Y0171442D02*
X0094057Y0171442D01*
X0094057Y0172800D02*
X0094057Y0172800D01*
X0090682Y0172800D01*
X0090682Y0170201D01*
X0090805Y0169743D01*
X0090955Y0169482D01*
X0090489Y0169676D01*
X0088997Y0169676D01*
X0087619Y0169105D01*
X0086564Y0168050D01*
X0086469Y0167821D01*
X0086197Y0168478D01*
X0085522Y0169153D01*
X0084704Y0169491D01*
X0084704Y0173172D01*
X0085183Y0173651D01*
X0085754Y0175029D01*
X0085754Y0175889D01*
X0090823Y0175889D01*
X0090805Y0175857D01*
X0090682Y0175399D01*
X0090682Y0172800D01*
X0094057Y0172800D01*
X0094057Y0172800D01*
X0090778Y0169844D02*
X0084704Y0169844D01*
X0084704Y0171442D02*
X0090682Y0171442D01*
X0090682Y0173041D02*
X0084704Y0173041D01*
X0085592Y0174639D02*
X0090682Y0174639D01*
X0086759Y0168245D02*
X0086293Y0168245D01*
X0093493Y0166647D02*
X0095088Y0166647D01*
D42*
X0094057Y0172800D02*
X0087800Y0173000D01*
X0086800Y0172600D01*
X0096200Y0183800D02*
X0096200Y0186900D01*
X0111500Y0202200D01*
X0111500Y0182200D02*
X0111500Y0180843D01*
X0096800Y0202000D02*
X0086800Y0202000D01*
X0084733Y0199933D01*
X0084733Y0186626D01*
X0069359Y0171641D02*
X0069359Y0168752D01*
X0079654Y0158457D01*
X0081800Y0158457D01*
X0082004Y0158187D02*
X0086225Y0153965D01*
X0091150Y0153965D01*
X0095800Y0147800D02*
X0095769Y0147769D01*
X0095769Y0143061D01*
X0096800Y0132000D02*
X0095769Y0130969D01*
X0095769Y0125739D01*
X0096800Y0132000D02*
X0112800Y0131800D01*
X0118757Y0145000D02*
X0101900Y0156857D01*
X0118757Y0145000D02*
X0119400Y0145000D01*
X0103110Y0114567D02*
X0106731Y0110546D01*
X0106731Y0104214D01*
X0111553Y0099793D01*
X0115774Y0099793D01*
X0103353Y0099200D02*
X0102200Y0098047D01*
X0101400Y0093800D01*
X0100600Y0093800D01*
X0100600Y0082000D01*
X0100800Y0081800D01*
X0100600Y0082000D02*
X0100600Y0077499D01*
X0091000Y0075454D02*
X0091000Y0067800D01*
X0091800Y0067000D01*
X0089800Y0054346D02*
X0088469Y0054346D01*
X0085000Y0051000D02*
X0088546Y0047654D01*
X0089800Y0047654D01*
X0097647Y0042000D02*
X0081800Y0042000D01*
X0076800Y0037000D01*
X0075146Y0037000D01*
X0068454Y0037000D02*
X0060569Y0037000D01*
X0060569Y0031936D01*
X0058600Y0031936D02*
X0058600Y0038600D01*
X0058800Y0038800D01*
X0050000Y0038800D01*
X0041800Y0047000D01*
X0030146Y0047000D01*
X0023454Y0047000D02*
X0023454Y0039953D01*
X0019800Y0039953D01*
X0029454Y0026000D02*
X0029454Y0021600D01*
X0032400Y0021600D01*
X0032400Y0021400D01*
X0040800Y0021400D01*
X0047200Y0024200D01*
X0050864Y0024200D01*
X0050864Y0022231D02*
X0050864Y0020263D01*
X0050864Y0017400D02*
X0054663Y0017400D01*
X0054663Y0016464D01*
X0062537Y0016464D02*
X0066336Y0016464D01*
X0066336Y0020263D01*
X0066336Y0022200D02*
X0066336Y0022231D01*
X0066336Y0022200D02*
X0071800Y0022200D01*
X0071800Y0018654D01*
X0066336Y0028137D02*
X0066336Y0031600D01*
X0081800Y0031600D01*
X0081800Y0037000D01*
X0083454Y0037000D01*
X0090146Y0037000D02*
X0094200Y0032400D01*
X0101633Y0031833D02*
X0101633Y0025337D01*
X0101633Y0031833D02*
X0101800Y0032000D01*
X0101633Y0017463D02*
X0101633Y0016833D01*
X0081800Y0061016D02*
X0080740Y0062076D01*
X0076376Y0065319D02*
X0070747Y0070947D01*
X0070747Y0089239D01*
X0068637Y0091350D01*
X0063800Y0098800D02*
X0059054Y0099746D01*
X0056200Y0099746D01*
X0059000Y0106000D02*
X0059000Y0107000D01*
X0063257Y0107000D01*
X0066526Y0111049D02*
X0070044Y0107531D01*
X0070747Y0107531D02*
X0079893Y0107531D01*
X0086929Y0114567D01*
X0103110Y0114567D01*
X0100496Y0110449D02*
X0100496Y0096875D01*
X0096778Y0103310D02*
X0089743Y0110346D01*
X0091800Y0102000D02*
X0085146Y0102000D01*
X0075265Y0121699D02*
X0085115Y0129948D01*
X0074300Y0132476D02*
X0057276Y0132476D01*
X0056800Y0132000D01*
X0045420Y0125824D02*
X0042702Y0122306D01*
X0016574Y0122306D01*
X0015167Y0111049D02*
X0026424Y0099793D01*
X0048234Y0099793D01*
X0059491Y0111049D01*
X0066526Y0111049D01*
X0068637Y0120899D02*
X0075265Y0121699D01*
X0074265Y0125824D02*
X0045420Y0125824D01*
X0050800Y0108000D02*
X0049000Y0104312D01*
X0042800Y0104312D01*
X0060898Y0082204D02*
X0060898Y0073761D01*
X0058083Y0070947D02*
X0058083Y0063208D01*
X0056800Y0054600D02*
X0058080Y0053320D01*
X0065068Y0053320D01*
X0068600Y0046600D02*
X0068332Y0046332D01*
X0054663Y0031936D02*
X0052662Y0029935D01*
X0050864Y0028137D01*
X0051064Y0026200D02*
X0050864Y0026169D01*
X0051064Y0026200D02*
X0044200Y0026200D01*
X0044000Y0032054D01*
X0040146Y0035600D01*
X0048532Y0050761D02*
X0048532Y0053320D01*
X0040480Y0053320D02*
X0037302Y0056498D01*
X0036800Y0057000D01*
X0005925Y0106828D02*
X0005925Y0163815D01*
X0017278Y0174368D01*
X0021306Y0174368D02*
X0026424Y0170850D01*
X0026424Y0168740D01*
X0026800Y0162000D02*
X0031800Y0157000D01*
X0031800Y0172000D01*
X0036919Y0172000D01*
X0041800Y0172000D01*
X0046800Y0167000D01*
X0046800Y0162000D01*
X0066800Y0162000D01*
X0066800Y0168752D01*
X0064600Y0169111D02*
X0064241Y0168752D01*
X0064600Y0169111D02*
X0064600Y0172000D01*
X0069000Y0172000D01*
X0069359Y0171641D01*
X0064241Y0175248D02*
X0059552Y0175248D01*
X0059400Y0179400D02*
X0056800Y0182000D01*
X0056800Y0186252D01*
X0057174Y0186626D01*
X0053237Y0186626D02*
X0053200Y0185663D01*
X0049300Y0186626D02*
X0049200Y0186526D01*
X0049200Y0179600D01*
X0055343Y0173457D01*
X0055343Y0172000D01*
X0059400Y0179400D02*
X0061800Y0179400D01*
X0047530Y0178589D02*
X0035570Y0178589D01*
X0024313Y0178589D01*
X0026681Y0175740D02*
X0036919Y0175740D01*
X0037259Y0175400D01*
X0041000Y0175400D01*
X0044400Y0172000D01*
X0048257Y0172000D01*
X0054566Y0158187D02*
X0072154Y0158187D01*
X0041198Y0186626D02*
X0041198Y0191398D01*
X0041800Y0192000D01*
X0041800Y0202000D01*
X0021800Y0202000D01*
X0016800Y0207000D01*
X0006800Y0207000D01*
X0006800Y0177000D01*
D43*
X0026424Y0168740D02*
X0026681Y0168260D01*
X0035570Y0178589D02*
X0035570Y0179996D01*
X0041198Y0186626D02*
X0041198Y0187032D01*
X0041426Y0186626D01*
X0047530Y0178589D02*
X0052455Y0173665D01*
X0052455Y0168740D01*
X0053159Y0168036D01*
X0063008Y0168036D01*
X0063712Y0168740D01*
X0064241Y0168752D01*
X0064241Y0175248D02*
X0064415Y0175775D01*
X0067230Y0178589D01*
X0093964Y0178589D01*
X0099593Y0172961D01*
X0101000Y0172961D01*
X0101143Y0172800D01*
X0101000Y0166629D02*
X0098889Y0166629D01*
X0095371Y0163111D01*
X0095371Y0157483D01*
X0091854Y0153965D01*
X0091800Y0153457D01*
X0091150Y0153965D01*
X0089743Y0150448D02*
X0095371Y0150448D01*
X0101703Y0156780D01*
X0101900Y0156857D01*
X0102407Y0152558D02*
X0102407Y0140598D01*
X0099593Y0137784D01*
X0091854Y0137784D01*
X0089743Y0139894D01*
X0089743Y0142709D01*
X0089863Y0143061D01*
X0091831Y0143061D02*
X0091854Y0142709D01*
X0091854Y0139894D01*
X0092557Y0139191D01*
X0098889Y0139191D01*
X0099593Y0139894D01*
X0099593Y0147633D01*
X0096778Y0155372D02*
X0096778Y0157483D01*
X0100296Y0161001D01*
X0104517Y0161001D01*
X0106628Y0163111D01*
X0106628Y0167333D01*
X0121402Y0182107D01*
X0121500Y0182200D01*
X0116478Y0179996D02*
X0116478Y0196881D01*
X0111553Y0201806D01*
X0111500Y0202200D01*
X0106628Y0204620D02*
X0109442Y0207435D01*
X0116478Y0207435D01*
X0121402Y0202510D01*
X0121500Y0202200D01*
X0126327Y0204620D02*
X0122106Y0208842D01*
X0089743Y0208842D01*
X0080597Y0199696D01*
X0073561Y0206731D01*
X0064415Y0206731D01*
X0067230Y0196881D02*
X0070044Y0194067D01*
X0070044Y0187735D01*
X0069340Y0187032D01*
X0068985Y0186626D01*
X0065119Y0186328D02*
X0065119Y0183514D01*
X0065119Y0186328D02*
X0065048Y0186626D01*
X0061601Y0187032D02*
X0061601Y0190550D01*
X0064415Y0193364D01*
X0067230Y0193364D01*
X0067230Y0196881D02*
X0054566Y0196881D01*
X0061601Y0187032D02*
X0061111Y0186626D01*
X0068637Y0179996D02*
X0098889Y0179996D01*
X0110849Y0191957D01*
X0111500Y0192200D01*
X0111500Y0182200D02*
X0111553Y0180700D01*
X0111553Y0177182D01*
X0101000Y0166629D01*
X0102407Y0165926D02*
X0102407Y0164519D01*
X0101900Y0163943D01*
X0102407Y0165926D02*
X0116478Y0179996D01*
X0121500Y0192200D02*
X0122106Y0192660D01*
X0126327Y0196881D01*
X0126327Y0204620D01*
X0106628Y0204620D02*
X0106628Y0201103D01*
X0088336Y0182811D01*
X0082004Y0175775D02*
X0082004Y0165926D01*
X0081800Y0165543D01*
X0081800Y0158457D02*
X0082004Y0158187D01*
X0086225Y0153965D02*
X0082707Y0150448D01*
X0084818Y0149041D02*
X0086929Y0151151D01*
X0089743Y0150448D02*
X0086225Y0146930D01*
X0086225Y0142005D01*
X0082707Y0138487D01*
X0082707Y0132156D01*
X0079893Y0129341D01*
X0074969Y0129341D01*
X0074300Y0129326D01*
X0074300Y0126176D02*
X0074265Y0125824D01*
X0077576Y0120899D02*
X0072154Y0116678D01*
X0063712Y0116678D01*
X0062305Y0118085D01*
X0062305Y0120195D01*
X0062124Y0120300D01*
X0059491Y0120195D02*
X0059491Y0117381D01*
X0061601Y0115270D01*
X0072858Y0115270D01*
X0076969Y0117981D01*
X0089039Y0117381D01*
X0089300Y0118043D01*
X0092557Y0120899D02*
X0077576Y0120899D01*
X0085115Y0129948D02*
X0085618Y0130348D01*
X0089743Y0125824D01*
X0089863Y0125739D01*
X0091831Y0125739D02*
X0091854Y0125824D01*
X0091854Y0129341D01*
X0085522Y0135673D01*
X0086929Y0139191D02*
X0087632Y0139894D01*
X0087632Y0146226D01*
X0088336Y0146930D01*
X0093261Y0146930D01*
X0093964Y0146226D01*
X0093964Y0143412D01*
X0093800Y0143061D01*
X0084818Y0142709D02*
X0084818Y0149041D01*
X0079893Y0150448D02*
X0079893Y0141302D01*
X0080597Y0138487D02*
X0084818Y0142709D01*
X0080597Y0138487D02*
X0074969Y0138487D01*
X0074300Y0138775D01*
X0074300Y0135625D02*
X0074969Y0135673D01*
X0079893Y0135673D01*
X0074300Y0145074D02*
X0074265Y0145523D01*
X0049641Y0145523D01*
X0036977Y0158187D01*
X0036977Y0168036D01*
X0036919Y0168260D01*
X0046827Y0156780D02*
X0046827Y0154669D01*
X0046376Y0154100D01*
X0046827Y0156780D02*
X0048937Y0158890D01*
X0051752Y0158890D01*
X0053159Y0156780D02*
X0054566Y0158187D01*
X0053159Y0156780D02*
X0053159Y0154669D01*
X0052676Y0154100D01*
X0049641Y0153965D02*
X0049641Y0151855D01*
X0052455Y0149041D01*
X0059491Y0149041D01*
X0063008Y0148337D02*
X0074265Y0148337D01*
X0074300Y0148224D01*
X0072154Y0154669D02*
X0068637Y0154669D01*
X0068424Y0154100D01*
X0072154Y0158187D02*
X0079893Y0150448D01*
X0091150Y0164519D02*
X0089743Y0165926D01*
X0091150Y0164519D02*
X0091150Y0161001D01*
X0091800Y0160543D01*
X0076859Y0186626D02*
X0077079Y0187032D01*
X0077079Y0189846D01*
X0082004Y0194771D01*
X0082004Y0198289D01*
X0080597Y0199696D01*
X0079190Y0197585D02*
X0079190Y0196178D01*
X0073561Y0190550D01*
X0073561Y0187032D01*
X0072922Y0186626D01*
X0049526Y0154100D02*
X0049641Y0153965D01*
X0040500Y0126176D02*
X0040495Y0125824D01*
X0033459Y0125824D01*
X0032756Y0125120D01*
X0043309Y0104717D02*
X0042800Y0104312D01*
X0043309Y0104717D02*
X0048234Y0104717D01*
X0055269Y0111753D01*
X0055269Y0120195D01*
X0055825Y0120300D01*
X0058975Y0120300D02*
X0059491Y0120195D01*
X0065274Y0120300D02*
X0065822Y0120195D01*
X0067933Y0120195D01*
X0068424Y0120300D01*
X0068637Y0120899D01*
X0070044Y0107531D02*
X0070343Y0107000D01*
X0070747Y0107531D01*
X0074969Y0102607D02*
X0075146Y0102000D01*
X0068454Y0092000D02*
X0068637Y0091350D01*
X0060898Y0082204D02*
X0060454Y0082600D01*
X0060898Y0073761D02*
X0060546Y0073400D01*
X0060194Y0073058D01*
X0058083Y0070947D01*
X0058083Y0063208D02*
X0058080Y0062868D01*
X0060639Y0062868D02*
X0060898Y0062505D01*
X0060898Y0058283D01*
X0060343Y0058143D01*
X0065119Y0056173D02*
X0065068Y0055880D01*
X0065119Y0056173D02*
X0074265Y0056173D01*
X0076376Y0058283D01*
X0076376Y0065319D01*
X0078486Y0056876D02*
X0076376Y0054766D01*
X0072154Y0054766D01*
X0068637Y0051248D01*
X0065119Y0051248D01*
X0065068Y0050761D01*
X0060639Y0046332D02*
X0060194Y0046323D01*
X0060194Y0044213D01*
X0060387Y0041006D01*
X0050537Y0041206D01*
X0040695Y0050648D01*
X0025720Y0050648D01*
X0034000Y0056313D02*
X0034163Y0056173D01*
X0036977Y0056173D01*
X0037302Y0056498D01*
X0033459Y0070244D02*
X0034000Y0070487D01*
X0034163Y0070947D01*
X0042606Y0093054D02*
X0042606Y0093461D01*
X0042800Y0093288D01*
X0049434Y0097682D02*
X0053862Y0102710D01*
X0058787Y0102710D01*
X0059491Y0102607D01*
X0082800Y0084846D02*
X0083411Y0084315D01*
X0086929Y0087832D01*
X0089743Y0081500D02*
X0091000Y0082146D01*
X0089743Y0081500D02*
X0087632Y0079390D01*
X0087632Y0077279D01*
X0085522Y0075169D01*
X0085522Y0063912D01*
X0094668Y0073058D02*
X0096075Y0071651D01*
X0100296Y0071651D01*
X0100600Y0071200D01*
X0101000Y0068133D02*
X0100600Y0068050D01*
X0101000Y0068133D02*
X0105221Y0068133D01*
X0108739Y0071651D01*
X0108739Y0093461D01*
X0107331Y0094868D01*
X0104021Y0094468D01*
X0100496Y0096875D02*
X0094668Y0090646D01*
X0094668Y0073058D01*
X0100600Y0064901D02*
X0100296Y0064615D01*
X0095778Y0045716D02*
X0095371Y0045716D01*
X0094668Y0044213D01*
X0086929Y0044213D01*
X0084818Y0046323D01*
X0080597Y0046323D02*
X0080146Y0047000D01*
X0082004Y0025920D02*
X0081800Y0025346D01*
X0070044Y0025346D02*
X0070044Y0025920D01*
X0066907Y0025598D02*
X0066526Y0025217D01*
X0066526Y0024513D01*
X0066336Y0024200D01*
X0062537Y0016464D02*
X0062305Y0016071D01*
X0062305Y0013960D01*
X0060569Y0016464D02*
X0060194Y0016774D01*
X0058787Y0016774D01*
X0058600Y0016464D01*
X0058083Y0016774D01*
X0056676Y0016774D01*
X0056631Y0016464D01*
X0056676Y0016071D01*
X0056676Y0014664D01*
X0058600Y0024200D02*
X0058083Y0024513D01*
X0052662Y0029935D01*
X0043309Y0039288D01*
X0035570Y0039288D01*
X0020092Y0023810D01*
X0020092Y0014664D01*
X0021499Y0013257D01*
X0032052Y0013257D01*
X0020092Y0033659D02*
X0019800Y0034047D01*
X0019389Y0033659D01*
X0044013Y0041295D02*
X0047530Y0037177D01*
X0053159Y0037177D01*
X0054566Y0035770D01*
X0055269Y0035770D01*
X0054566Y0035770D02*
X0056676Y0033659D01*
X0056676Y0032252D01*
X0056631Y0031936D01*
X0013057Y0087129D02*
X0015871Y0089943D01*
X0015871Y0094868D01*
X0012353Y0098385D02*
X0011800Y0099008D01*
X0011650Y0099089D01*
X0011650Y0101903D01*
X0005925Y0106828D01*
X0010243Y0111049D02*
X0008132Y0113160D01*
X0008132Y0116678D01*
X0010243Y0118788D01*
X0013057Y0118788D01*
X0016574Y0122306D01*
X0015167Y0111049D02*
X0010243Y0111049D01*
X0013057Y0075872D02*
X0012800Y0075712D01*
X0089300Y0110957D02*
X0089743Y0110346D01*
X0094668Y0118788D02*
X0092557Y0120899D01*
X0094668Y0118788D02*
X0100296Y0118788D01*
X0100300Y0118543D01*
X0100300Y0111457D02*
X0100496Y0110449D01*
X0097447Y0099200D02*
X0096778Y0099089D01*
X0096778Y0097682D01*
X0094668Y0095571D01*
X0115774Y0099793D02*
X0119292Y0103310D01*
X0119292Y0108939D01*
X0119400Y0109000D01*
X0103553Y0042000D02*
X0103110Y0042102D01*
D44*
X0085522Y0063912D03*
X0078486Y0056876D03*
X0070044Y0025920D03*
X0055269Y0035770D03*
X0032052Y0013257D03*
X0086929Y0087832D03*
X0094668Y0095571D03*
X0096778Y0103310D03*
X0104021Y0094468D03*
X0085618Y0130348D03*
X0085522Y0135673D03*
X0086929Y0139191D03*
X0079893Y0141302D03*
X0079893Y0135673D03*
X0082707Y0150448D03*
X0086929Y0151151D03*
X0096778Y0155372D03*
X0099593Y0147633D03*
X0102407Y0152558D03*
X0089743Y0165926D03*
X0082004Y0175775D03*
X0088336Y0182811D03*
X0079190Y0197585D03*
X0067230Y0193364D03*
X0064415Y0206731D03*
X0054566Y0196881D03*
X0035570Y0179996D03*
X0051752Y0158890D03*
X0059491Y0149041D03*
X0063008Y0148337D03*
X0072154Y0154669D03*
X0032756Y0125120D03*
D45*
X0050800Y0108000D03*
X0059000Y0106000D03*
X0063800Y0098800D03*
X0056800Y0132000D03*
X0026800Y0162000D03*
X0006800Y0177000D03*
X0021800Y0092000D03*
X0068400Y0042400D03*
X0085000Y0051000D03*
X0091800Y0067000D03*
X0100800Y0081800D03*
X0091800Y0102000D03*
X0112800Y0131800D03*
X0095800Y0147800D03*
X0086800Y0172600D03*
X0096200Y0183800D03*
X0096800Y0202000D03*
X0061800Y0179400D03*
X0094200Y0032400D03*
X0101800Y0032000D03*
X0096800Y0012000D03*
X0036800Y0012000D03*
D46*
X0050344Y0008332D02*
X0020092Y0008332D01*
X0013057Y0014567D01*
X0013057Y0027328D01*
X0019389Y0033659D01*
X0020092Y0033659D02*
X0027328Y0041295D01*
X0044013Y0041295D01*
X0040480Y0053320D02*
X0048532Y0053320D01*
X0060639Y0046332D02*
X0068332Y0046332D01*
X0068600Y0046600D02*
X0068600Y0048800D01*
X0071800Y0052000D01*
X0081800Y0052000D01*
X0081800Y0061016D01*
X0080740Y0062076D02*
X0088469Y0054346D01*
X0084818Y0046323D02*
X0080597Y0046323D01*
X0073454Y0047000D02*
X0073454Y0044254D01*
X0071800Y0042600D01*
X0066200Y0042600D01*
X0068400Y0042400D01*
X0066336Y0026169D02*
X0066907Y0025598D01*
X0067158Y0025346D01*
X0062305Y0013960D02*
X0055469Y0006125D01*
X0017389Y0006325D01*
X0009850Y0014464D01*
X0009850Y0048234D01*
X0020092Y0056876D01*
X0025720Y0050648D01*
X0020092Y0056876D02*
X0033459Y0070244D01*
X0034163Y0070947D02*
X0034163Y0092757D01*
X0039088Y0097682D01*
X0049434Y0097682D01*
X0059491Y0102607D02*
X0074969Y0102607D01*
X0100296Y0064615D02*
X0100296Y0062801D01*
X0095778Y0058883D01*
X0095778Y0045716D01*
X0100496Y0045716D01*
X0103110Y0042102D01*
X0103553Y0042000D02*
X0098400Y0035000D01*
X0098400Y0028798D01*
X0089510Y0028798D01*
X0089632Y0025920D01*
X0082004Y0025920D01*
X0056676Y0014664D02*
X0050344Y0008332D01*
X0013057Y0075872D02*
X0013057Y0087129D01*
X0015871Y0094868D02*
X0012353Y0098385D01*
X0017278Y0174368D02*
X0021306Y0174368D01*
X0021306Y0178582D01*
X0024313Y0178589D01*
X0053200Y0180800D02*
X0053200Y0185663D01*
X0053200Y0180800D02*
X0059552Y0175248D01*
X0065119Y0183514D02*
X0068637Y0179996D01*
D47*
X0101633Y0016833D02*
X0096800Y0012000D01*
M02*
