G75*
%MOIN*%
%OFA0B0*%
%FSLAX25Y25*%
%IPPOS*%
%LPD*%
%AMOC8*
5,1,8,0,0,1.08239X$1,22.5*
%
%ADD10R,0.07400X0.07400*%
%ADD11OC8,0.07400*%
%ADD12C,0.06500*%
%ADD13C,0.07400*%
%ADD14C,0.15000*%
%ADD15C,0.12598*%
%ADD16C,0.04156*%
%ADD17C,0.04800*%
%ADD18R,0.06500X0.06500*%
%ADD19C,0.00600*%
%ADD20C,0.02700*%
%ADD21C,0.01600*%
D10*
X0011800Y0165000D03*
X0057000Y0175800D03*
D11*
X0031800Y0175000D03*
X0031800Y0165000D03*
X0021800Y0165000D03*
X0021800Y0175000D03*
X0011800Y0175000D03*
D12*
X0065100Y0151000D03*
X0065100Y0141000D03*
X0078900Y0141600D03*
X0078900Y0151600D03*
X0088800Y0161000D03*
X0093400Y0151600D03*
X0093400Y0141600D03*
D13*
X0092300Y0115000D03*
X0091300Y0105000D03*
X0092300Y0095000D03*
X0091300Y0085000D03*
X0092300Y0075000D03*
X0091300Y0065000D03*
X0092300Y0055000D03*
X0091300Y0045000D03*
X0092300Y0035000D03*
X0091300Y0025000D03*
X0071800Y0065000D03*
X0071800Y0080000D03*
X0041800Y0145000D03*
X0057000Y0165800D03*
X0031800Y0080000D03*
X0031800Y0065000D03*
X0012300Y0055000D03*
X0011300Y0065000D03*
X0012300Y0075000D03*
X0011300Y0085000D03*
X0012300Y0095000D03*
X0011300Y0105000D03*
X0012300Y0115000D03*
X0011800Y0145000D03*
X0011300Y0045000D03*
X0012300Y0035000D03*
X0011300Y0025000D03*
D14*
X0036052Y0020354D03*
X0067548Y0020354D03*
D15*
X0067548Y0038858D03*
X0036052Y0038858D03*
D16*
X0045501Y0043583D02*
X0045501Y0047739D01*
X0048650Y0038465D02*
X0048650Y0034309D01*
X0051800Y0043583D02*
X0051800Y0047739D01*
X0054950Y0038465D02*
X0054950Y0034309D01*
X0058099Y0043583D02*
X0058099Y0047739D01*
D17*
X0067300Y0195000D03*
X0086300Y0195000D03*
D18*
X0088800Y0171000D03*
D19*
X0088336Y0170408D01*
X0068637Y0170408D01*
X0068637Y0173222D01*
X0060898Y0180961D01*
X0020796Y0180961D01*
X0015167Y0175333D01*
X0012353Y0175333D01*
X0011800Y0175000D01*
X0031349Y0164780D02*
X0011650Y0145080D01*
X0011800Y0145000D01*
X0031349Y0164780D02*
X0031800Y0165000D01*
X0032052Y0158448D02*
X0032052Y0135934D01*
X0041902Y0144377D02*
X0041902Y0122567D01*
X0052455Y0112014D01*
X0052455Y0077540D01*
X0074969Y0055027D01*
X0074969Y0035328D01*
X0070044Y0030403D01*
X0074969Y0025478D01*
X0091150Y0025478D01*
X0091300Y0025000D01*
X0091300Y0045000D02*
X0091854Y0045177D01*
X0098889Y0052213D01*
X0098889Y0095832D01*
X0094668Y0100054D01*
X0089039Y0100054D01*
X0077079Y0112014D01*
X0077079Y0119439D01*
X0078097Y0126939D02*
X0083411Y0132253D01*
X0085911Y0152191D01*
X0079190Y0151412D02*
X0088336Y0160558D01*
X0088800Y0161000D01*
X0086225Y0165483D02*
X0065119Y0144377D01*
X0065119Y0141563D01*
X0065100Y0141000D01*
X0065119Y0140859D01*
X0065119Y0111310D01*
X0073561Y0102868D01*
X0073561Y0101461D01*
X0074265Y0105682D02*
X0074265Y0137341D01*
X0078486Y0141563D01*
X0078900Y0141600D01*
X0079190Y0151412D02*
X0078900Y0151600D01*
X0086225Y0165483D02*
X0091854Y0165483D01*
X0093261Y0166890D01*
X0093261Y0174629D01*
X0073561Y0194328D01*
X0067933Y0194328D01*
X0067300Y0195000D01*
X0068637Y0170408D02*
X0043309Y0145080D01*
X0041902Y0145080D01*
X0041800Y0145000D01*
X0041902Y0144377D01*
X0062305Y0135231D02*
X0047530Y0120456D01*
X0051048Y0119439D02*
X0051048Y0115531D01*
X0053862Y0112717D01*
X0053862Y0090907D01*
X0071690Y0073080D01*
X0072858Y0085279D02*
X0073561Y0085279D01*
X0084818Y0074022D01*
X0084818Y0055027D01*
X0089743Y0050102D01*
X0094668Y0050102D01*
X0097482Y0052916D01*
X0097482Y0069801D01*
X0092557Y0074726D01*
X0092300Y0075000D01*
X0086225Y0078947D02*
X0086225Y0060655D01*
X0091854Y0055027D01*
X0092300Y0055000D01*
X0086225Y0078947D02*
X0070747Y0094425D01*
X0070747Y0101461D01*
X0062305Y0112403D01*
X0062305Y0116939D01*
X0062305Y0121863D02*
X0053473Y0121863D01*
X0051048Y0119439D01*
X0053862Y0118735D02*
X0069340Y0100757D01*
X0069340Y0092315D01*
X0068637Y0085983D02*
X0056676Y0097943D01*
X0056676Y0109903D01*
X0059491Y0107089D02*
X0059491Y0098646D01*
X0072858Y0085279D01*
X0091300Y0105000D02*
X0091854Y0105682D01*
X0078097Y0126939D01*
X0057000Y0165800D02*
X0056676Y0166187D01*
X0048234Y0174629D01*
X0036977Y0174629D01*
X0036977Y0097943D01*
X0049641Y0087779D01*
X0049641Y0051509D01*
X0053159Y0051509D01*
X0058083Y0046584D01*
X0058083Y0043770D01*
X0058099Y0043583D01*
X0049641Y0051509D02*
X0037681Y0051509D01*
X0011650Y0025478D01*
X0011300Y0025000D01*
X0012300Y0035000D02*
X0012353Y0035328D01*
X0020092Y0043067D01*
X0027592Y0100518D01*
X0019778Y0089186D02*
X0017278Y0050806D01*
X0011650Y0045177D01*
X0011300Y0045000D01*
X0045420Y0043067D02*
X0045420Y0032513D01*
X0046827Y0031106D01*
X0069340Y0031106D01*
X0070044Y0030403D01*
X0045420Y0043067D02*
X0045501Y0043583D01*
X0036977Y0174629D02*
X0032052Y0174629D01*
X0031800Y0175000D01*
D20*
X0032052Y0158448D03*
X0032052Y0135934D03*
X0047530Y0120456D03*
X0053862Y0118735D03*
X0056676Y0109903D03*
X0059491Y0107089D03*
X0062305Y0116939D03*
X0062305Y0121863D03*
X0062305Y0135231D03*
X0077079Y0119439D03*
X0078097Y0126939D03*
X0074265Y0105682D03*
X0073561Y0101461D03*
X0069340Y0092315D03*
X0068637Y0085983D03*
X0071690Y0073080D03*
X0049641Y0087779D03*
X0027592Y0100518D03*
X0019778Y0089186D03*
X0085911Y0152191D03*
D21*
X0005400Y0042259D02*
X0005400Y0013600D01*
X0028240Y0013600D01*
X0027810Y0014030D01*
X0026454Y0016379D01*
X0025752Y0018998D01*
X0025752Y0021710D01*
X0026454Y0024330D01*
X0027810Y0026679D01*
X0029728Y0028596D01*
X0032076Y0029952D01*
X0033108Y0030229D01*
X0030898Y0031144D01*
X0028338Y0033704D01*
X0026953Y0037048D01*
X0026953Y0040668D01*
X0028338Y0044013D01*
X0030898Y0046572D01*
X0034242Y0047957D01*
X0037862Y0047957D01*
X0040623Y0046814D01*
X0040623Y0048709D01*
X0041365Y0050502D01*
X0042738Y0051874D01*
X0044530Y0052617D01*
X0046471Y0052617D01*
X0048264Y0051874D01*
X0048650Y0051487D01*
X0049037Y0051874D01*
X0050830Y0052617D01*
X0052770Y0052617D01*
X0054563Y0051874D01*
X0055663Y0050774D01*
X0056262Y0051175D01*
X0056968Y0051467D01*
X0057717Y0051617D01*
X0058099Y0051617D01*
X0058099Y0043583D01*
X0058099Y0043583D01*
X0058099Y0051617D01*
X0058481Y0051617D01*
X0059230Y0051467D01*
X0059936Y0051175D01*
X0060571Y0050751D01*
X0061111Y0050211D01*
X0061536Y0049575D01*
X0061828Y0048870D01*
X0061977Y0048121D01*
X0061977Y0046156D01*
X0062394Y0046572D01*
X0065738Y0047957D01*
X0069358Y0047957D01*
X0071869Y0046918D01*
X0071869Y0053743D01*
X0050699Y0074912D01*
X0049827Y0075784D01*
X0049355Y0076924D01*
X0049355Y0110730D01*
X0040146Y0119939D01*
X0039274Y0120811D01*
X0038802Y0121950D01*
X0038802Y0139206D01*
X0038118Y0139490D01*
X0036290Y0141318D01*
X0035300Y0143707D01*
X0035300Y0146293D01*
X0036290Y0148682D01*
X0038118Y0150510D01*
X0040507Y0151500D01*
X0043093Y0151500D01*
X0044685Y0150840D01*
X0054663Y0160818D01*
X0054117Y0161096D01*
X0053417Y0161605D01*
X0052805Y0162217D01*
X0052296Y0162917D01*
X0051903Y0163689D01*
X0051635Y0164512D01*
X0051500Y0165367D01*
X0051500Y0165600D01*
X0056800Y0165600D01*
X0056800Y0166000D01*
X0051500Y0166000D01*
X0051500Y0166233D01*
X0051635Y0167088D01*
X0051903Y0167911D01*
X0052296Y0168683D01*
X0052745Y0169300D01*
X0052743Y0169300D01*
X0051714Y0169726D01*
X0050926Y0170514D01*
X0050500Y0171543D01*
X0050500Y0177861D01*
X0036717Y0177861D01*
X0037300Y0177278D01*
X0037300Y0175200D01*
X0032000Y0175200D01*
X0032000Y0174800D01*
X0037300Y0174800D01*
X0037300Y0172722D01*
X0035285Y0170707D01*
X0038300Y0167692D01*
X0038300Y0162308D01*
X0035928Y0159936D01*
X0036202Y0159273D01*
X0036202Y0157622D01*
X0035571Y0156097D01*
X0035152Y0155679D01*
X0035152Y0138703D01*
X0035571Y0138285D01*
X0036202Y0136760D01*
X0036202Y0135109D01*
X0035571Y0133583D01*
X0034403Y0132416D01*
X0032878Y0131784D01*
X0031227Y0131784D01*
X0029702Y0132416D01*
X0028534Y0133583D01*
X0027902Y0135109D01*
X0027902Y0136760D01*
X0028534Y0138285D01*
X0028952Y0138703D01*
X0028952Y0155679D01*
X0028534Y0156097D01*
X0028100Y0157146D01*
X0017991Y0147038D01*
X0018300Y0146293D01*
X0018300Y0143707D01*
X0017310Y0141318D01*
X0015482Y0139490D01*
X0013093Y0138500D01*
X0010507Y0138500D01*
X0008118Y0139490D01*
X0006290Y0141318D01*
X0005400Y0143466D01*
X0005400Y0107741D01*
X0005790Y0108682D01*
X0007608Y0110500D01*
X0006790Y0111318D01*
X0005800Y0113707D01*
X0005800Y0116293D01*
X0006790Y0118682D01*
X0008618Y0120510D01*
X0011007Y0121500D01*
X0013593Y0121500D01*
X0015982Y0120510D01*
X0017810Y0118682D01*
X0018800Y0116293D01*
X0018800Y0113707D01*
X0017810Y0111318D01*
X0015992Y0109500D01*
X0016810Y0108682D01*
X0017800Y0106293D01*
X0017800Y0103707D01*
X0016810Y0101318D01*
X0015992Y0100500D01*
X0017810Y0098682D01*
X0018800Y0096293D01*
X0018800Y0093707D01*
X0018583Y0093183D01*
X0018952Y0093336D01*
X0020603Y0093336D01*
X0022129Y0092704D01*
X0023294Y0091539D01*
X0024149Y0098092D01*
X0024074Y0098167D01*
X0023442Y0099693D01*
X0023442Y0101344D01*
X0024074Y0102869D01*
X0025241Y0104036D01*
X0026767Y0104668D01*
X0028418Y0104668D01*
X0029943Y0104036D01*
X0031110Y0102869D01*
X0031742Y0101344D01*
X0031742Y0099693D01*
X0031110Y0098167D01*
X0030307Y0097364D01*
X0028796Y0085791D01*
X0030507Y0086500D01*
X0033093Y0086500D01*
X0035482Y0085510D01*
X0037310Y0083682D01*
X0038300Y0081293D01*
X0038300Y0078707D01*
X0037310Y0076318D01*
X0035482Y0074490D01*
X0033093Y0073500D01*
X0030507Y0073500D01*
X0028118Y0074490D01*
X0027413Y0075195D01*
X0026603Y0068996D01*
X0028118Y0070510D01*
X0030507Y0071500D01*
X0033093Y0071500D01*
X0035482Y0070510D01*
X0037310Y0068682D01*
X0038300Y0066293D01*
X0038300Y0063707D01*
X0037310Y0061318D01*
X0035482Y0059490D01*
X0033093Y0058500D01*
X0030507Y0058500D01*
X0028118Y0059490D01*
X0026290Y0061318D01*
X0025766Y0062582D01*
X0023192Y0042865D01*
X0023192Y0042450D01*
X0023113Y0042259D01*
X0023086Y0042054D01*
X0022879Y0041694D01*
X0022720Y0041311D01*
X0022574Y0041164D01*
X0022471Y0040985D01*
X0022142Y0040732D01*
X0018479Y0037069D01*
X0018800Y0036293D01*
X0018800Y0033707D01*
X0017810Y0031318D01*
X0015982Y0029490D01*
X0014997Y0029081D01*
X0015495Y0028583D01*
X0016004Y0027883D01*
X0016397Y0027111D01*
X0016665Y0026288D01*
X0016800Y0025433D01*
X0016800Y0025200D01*
X0011500Y0025200D01*
X0011500Y0024800D01*
X0016800Y0024800D01*
X0016800Y0024567D01*
X0016665Y0023712D01*
X0016397Y0022889D01*
X0016004Y0022117D01*
X0015495Y0021417D01*
X0014883Y0020805D01*
X0014183Y0020296D01*
X0013411Y0019903D01*
X0012588Y0019635D01*
X0011733Y0019500D01*
X0011500Y0019500D01*
X0011500Y0024800D01*
X0011100Y0024800D01*
X0011100Y0019500D01*
X0010867Y0019500D01*
X0010012Y0019635D01*
X0009189Y0019903D01*
X0008417Y0020296D01*
X0007717Y0020805D01*
X0007105Y0021417D01*
X0006596Y0022117D01*
X0006203Y0022889D01*
X0005935Y0023712D01*
X0005800Y0024567D01*
X0005800Y0024800D01*
X0011100Y0024800D01*
X0011100Y0025200D01*
X0005800Y0025200D01*
X0005800Y0025433D01*
X0005935Y0026288D01*
X0006203Y0027111D01*
X0006596Y0027883D01*
X0007105Y0028583D01*
X0007717Y0029195D01*
X0008409Y0029698D01*
X0006790Y0031318D01*
X0005800Y0033707D01*
X0005800Y0036293D01*
X0006790Y0038682D01*
X0007608Y0039500D01*
X0005790Y0041318D01*
X0005400Y0042259D01*
X0005400Y0041970D02*
X0005519Y0041970D01*
X0005400Y0040372D02*
X0006736Y0040372D01*
X0006881Y0038773D02*
X0005400Y0038773D01*
X0005400Y0037175D02*
X0006165Y0037175D01*
X0005800Y0035576D02*
X0005400Y0035576D01*
X0005400Y0033978D02*
X0005800Y0033978D01*
X0005400Y0032379D02*
X0006350Y0032379D01*
X0005400Y0030781D02*
X0007327Y0030781D01*
X0007704Y0029182D02*
X0005400Y0029182D01*
X0005400Y0027584D02*
X0006444Y0027584D01*
X0005887Y0025985D02*
X0005400Y0025985D01*
X0005400Y0024387D02*
X0005829Y0024387D01*
X0006254Y0022788D02*
X0005400Y0022788D01*
X0005400Y0021190D02*
X0007332Y0021190D01*
X0005400Y0019591D02*
X0010292Y0019591D01*
X0011100Y0019591D02*
X0011500Y0019591D01*
X0012308Y0019591D02*
X0025752Y0019591D01*
X0025752Y0021190D02*
X0015268Y0021190D01*
X0016346Y0022788D02*
X0026041Y0022788D01*
X0026487Y0024387D02*
X0016771Y0024387D01*
X0016713Y0025985D02*
X0027409Y0025985D01*
X0028715Y0027584D02*
X0016156Y0027584D01*
X0015240Y0029182D02*
X0030742Y0029182D01*
X0031776Y0030781D02*
X0017273Y0030781D01*
X0018250Y0032379D02*
X0029663Y0032379D01*
X0028225Y0033978D02*
X0018800Y0033978D01*
X0018800Y0035576D02*
X0027563Y0035576D01*
X0026953Y0037175D02*
X0018584Y0037175D01*
X0020183Y0038773D02*
X0026953Y0038773D01*
X0026953Y0040372D02*
X0021781Y0040372D01*
X0023038Y0041970D02*
X0027492Y0041970D01*
X0028154Y0043569D02*
X0023284Y0043569D01*
X0023493Y0045167D02*
X0029493Y0045167D01*
X0031365Y0046766D02*
X0023701Y0046766D01*
X0023910Y0048364D02*
X0040623Y0048364D01*
X0041142Y0049963D02*
X0024119Y0049963D01*
X0024327Y0051561D02*
X0042425Y0051561D01*
X0037145Y0061152D02*
X0064459Y0061152D01*
X0062860Y0062751D02*
X0037904Y0062751D01*
X0038300Y0064349D02*
X0061262Y0064349D01*
X0059663Y0065948D02*
X0038300Y0065948D01*
X0037781Y0067546D02*
X0058065Y0067546D01*
X0056466Y0069145D02*
X0036847Y0069145D01*
X0034919Y0070743D02*
X0054868Y0070743D01*
X0053269Y0072342D02*
X0027040Y0072342D01*
X0027249Y0073940D02*
X0029444Y0073940D01*
X0028681Y0070743D02*
X0026831Y0070743D01*
X0026753Y0069145D02*
X0026623Y0069145D01*
X0026455Y0061152D02*
X0025579Y0061152D01*
X0025371Y0059554D02*
X0028054Y0059554D01*
X0025162Y0057955D02*
X0067656Y0057955D01*
X0066057Y0059554D02*
X0035546Y0059554D01*
X0034156Y0073940D02*
X0051671Y0073940D01*
X0050072Y0075539D02*
X0036531Y0075539D01*
X0037650Y0077137D02*
X0049355Y0077137D01*
X0049355Y0078736D02*
X0038300Y0078736D01*
X0038300Y0080334D02*
X0049355Y0080334D01*
X0049355Y0081933D02*
X0038035Y0081933D01*
X0037373Y0083532D02*
X0049355Y0083532D01*
X0049355Y0085130D02*
X0035862Y0085130D01*
X0029962Y0094721D02*
X0049355Y0094721D01*
X0049355Y0093123D02*
X0029753Y0093123D01*
X0029544Y0091524D02*
X0049355Y0091524D01*
X0049355Y0089926D02*
X0029336Y0089926D01*
X0029127Y0088327D02*
X0049355Y0088327D01*
X0049355Y0086729D02*
X0028918Y0086729D01*
X0030170Y0096320D02*
X0049355Y0096320D01*
X0049355Y0097918D02*
X0030861Y0097918D01*
X0031669Y0099517D02*
X0049355Y0099517D01*
X0049355Y0101115D02*
X0031742Y0101115D01*
X0031175Y0102714D02*
X0049355Y0102714D01*
X0049355Y0104312D02*
X0029277Y0104312D01*
X0025907Y0104312D02*
X0017800Y0104312D01*
X0017800Y0105911D02*
X0049355Y0105911D01*
X0049355Y0107509D02*
X0017296Y0107509D01*
X0016385Y0109108D02*
X0049355Y0109108D01*
X0049355Y0110706D02*
X0017199Y0110706D01*
X0018219Y0112305D02*
X0047780Y0112305D01*
X0046182Y0113903D02*
X0018800Y0113903D01*
X0018800Y0115502D02*
X0044583Y0115502D01*
X0042985Y0117100D02*
X0018466Y0117100D01*
X0017794Y0118699D02*
X0041386Y0118699D01*
X0039788Y0120297D02*
X0016195Y0120297D01*
X0008405Y0120297D02*
X0005400Y0120297D01*
X0005400Y0118699D02*
X0006806Y0118699D01*
X0006134Y0117100D02*
X0005400Y0117100D01*
X0005400Y0115502D02*
X0005800Y0115502D01*
X0005800Y0113903D02*
X0005400Y0113903D01*
X0005400Y0112305D02*
X0006381Y0112305D01*
X0005400Y0110706D02*
X0007401Y0110706D01*
X0006215Y0109108D02*
X0005400Y0109108D01*
X0005400Y0102259D02*
X0005400Y0087741D01*
X0005790Y0088682D01*
X0007608Y0090500D01*
X0006790Y0091318D01*
X0005800Y0093707D01*
X0005800Y0096293D01*
X0006790Y0098682D01*
X0007608Y0099500D01*
X0005790Y0101318D01*
X0005400Y0102259D01*
X0005400Y0101115D02*
X0005992Y0101115D01*
X0005400Y0099517D02*
X0007591Y0099517D01*
X0006473Y0097918D02*
X0005400Y0097918D01*
X0005400Y0096320D02*
X0005811Y0096320D01*
X0005800Y0094721D02*
X0005400Y0094721D01*
X0005400Y0093123D02*
X0006042Y0093123D01*
X0005400Y0091524D02*
X0006704Y0091524D01*
X0007033Y0089926D02*
X0005400Y0089926D01*
X0005400Y0088327D02*
X0005643Y0088327D01*
X0005400Y0082259D02*
X0005400Y0067741D01*
X0005790Y0068682D01*
X0007608Y0070500D01*
X0006790Y0071318D01*
X0005800Y0073707D01*
X0005800Y0076293D01*
X0006790Y0078682D01*
X0007608Y0079500D01*
X0005790Y0081318D01*
X0005400Y0082259D01*
X0005400Y0081933D02*
X0005535Y0081933D01*
X0005400Y0080334D02*
X0006773Y0080334D01*
X0006844Y0078736D02*
X0005400Y0078736D01*
X0005400Y0077137D02*
X0006150Y0077137D01*
X0005800Y0075539D02*
X0005400Y0075539D01*
X0005400Y0073940D02*
X0005800Y0073940D01*
X0005400Y0072342D02*
X0006365Y0072342D01*
X0005400Y0070743D02*
X0007364Y0070743D01*
X0006253Y0069145D02*
X0005400Y0069145D01*
X0005400Y0062259D02*
X0005400Y0047741D01*
X0005790Y0048682D01*
X0007608Y0050500D01*
X0006790Y0051318D01*
X0005800Y0053707D01*
X0005800Y0056293D01*
X0006790Y0058682D01*
X0007608Y0059500D01*
X0005790Y0061318D01*
X0005400Y0062259D01*
X0005400Y0061152D02*
X0005955Y0061152D01*
X0005400Y0059554D02*
X0007554Y0059554D01*
X0006489Y0057955D02*
X0005400Y0057955D01*
X0005400Y0056357D02*
X0005826Y0056357D01*
X0005800Y0054758D02*
X0005400Y0054758D01*
X0005400Y0053160D02*
X0006027Y0053160D01*
X0005400Y0051561D02*
X0006689Y0051561D01*
X0007070Y0049963D02*
X0005400Y0049963D01*
X0005400Y0048364D02*
X0005658Y0048364D01*
X0011100Y0024387D02*
X0011500Y0024387D01*
X0011500Y0022788D02*
X0011100Y0022788D01*
X0011100Y0021190D02*
X0011500Y0021190D01*
X0005400Y0017993D02*
X0026021Y0017993D01*
X0026450Y0016394D02*
X0005400Y0016394D01*
X0005400Y0014796D02*
X0027368Y0014796D01*
X0038996Y0030229D02*
X0041206Y0031144D01*
X0042320Y0032258D01*
X0042320Y0031897D01*
X0042792Y0030757D01*
X0043664Y0029885D01*
X0045071Y0028478D01*
X0046210Y0028006D01*
X0060634Y0028006D01*
X0059306Y0026679D01*
X0057950Y0024330D01*
X0057248Y0021710D01*
X0057248Y0018998D01*
X0057950Y0016379D01*
X0059306Y0014030D01*
X0059736Y0013600D01*
X0043864Y0013600D01*
X0044294Y0014030D01*
X0045650Y0016379D01*
X0046352Y0018998D01*
X0046352Y0021710D01*
X0045650Y0024330D01*
X0044294Y0026679D01*
X0042376Y0028596D01*
X0040028Y0029952D01*
X0038996Y0030229D01*
X0040328Y0030781D02*
X0042782Y0030781D01*
X0041362Y0029182D02*
X0044367Y0029182D01*
X0043389Y0027584D02*
X0060211Y0027584D01*
X0058906Y0025985D02*
X0044694Y0025985D01*
X0045617Y0024387D02*
X0057983Y0024387D01*
X0057537Y0022788D02*
X0046063Y0022788D01*
X0046352Y0021190D02*
X0057248Y0021190D01*
X0057248Y0019591D02*
X0046352Y0019591D01*
X0046082Y0017993D02*
X0057518Y0017993D01*
X0057946Y0016394D02*
X0045654Y0016394D01*
X0044736Y0014796D02*
X0058864Y0014796D01*
X0058099Y0045167D02*
X0058099Y0045167D01*
X0058099Y0046766D02*
X0058099Y0046766D01*
X0058099Y0048364D02*
X0058099Y0048364D01*
X0058099Y0049963D02*
X0058099Y0049963D01*
X0058099Y0051561D02*
X0058099Y0051561D01*
X0057440Y0051561D02*
X0054876Y0051561D01*
X0058759Y0051561D02*
X0071869Y0051561D01*
X0071869Y0049963D02*
X0061277Y0049963D01*
X0061929Y0048364D02*
X0071869Y0048364D01*
X0071869Y0053160D02*
X0024536Y0053160D01*
X0024745Y0054758D02*
X0070853Y0054758D01*
X0069254Y0056357D02*
X0024953Y0056357D01*
X0016099Y0080394D02*
X0015992Y0080500D01*
X0016113Y0080621D01*
X0016099Y0080394D01*
X0021119Y0093123D02*
X0023500Y0093123D01*
X0023709Y0094721D02*
X0018800Y0094721D01*
X0018789Y0096320D02*
X0023918Y0096320D01*
X0024126Y0097918D02*
X0018127Y0097918D01*
X0016976Y0099517D02*
X0023515Y0099517D01*
X0023442Y0101115D02*
X0016608Y0101115D01*
X0017388Y0102714D02*
X0024010Y0102714D01*
X0038825Y0121896D02*
X0005400Y0121896D01*
X0005400Y0123494D02*
X0038802Y0123494D01*
X0038802Y0125093D02*
X0005400Y0125093D01*
X0005400Y0126691D02*
X0038802Y0126691D01*
X0038802Y0128290D02*
X0005400Y0128290D01*
X0005400Y0129888D02*
X0038802Y0129888D01*
X0038802Y0131487D02*
X0005400Y0131487D01*
X0005400Y0133085D02*
X0029032Y0133085D01*
X0028078Y0134684D02*
X0005400Y0134684D01*
X0005400Y0136282D02*
X0027902Y0136282D01*
X0028367Y0137881D02*
X0005400Y0137881D01*
X0005400Y0139479D02*
X0008143Y0139479D01*
X0006530Y0141078D02*
X0005400Y0141078D01*
X0005400Y0142676D02*
X0005727Y0142676D01*
X0005400Y0146534D02*
X0005400Y0160502D01*
X0005726Y0159714D01*
X0006514Y0158926D01*
X0007543Y0158500D01*
X0016057Y0158500D01*
X0017086Y0158926D01*
X0017874Y0159714D01*
X0017880Y0159728D01*
X0019108Y0158500D01*
X0020685Y0158500D01*
X0013512Y0151327D01*
X0013093Y0151500D01*
X0010507Y0151500D01*
X0008118Y0150510D01*
X0006290Y0148682D01*
X0005400Y0146534D01*
X0005400Y0147472D02*
X0005788Y0147472D01*
X0005400Y0149070D02*
X0006678Y0149070D01*
X0005400Y0150669D02*
X0008501Y0150669D01*
X0005400Y0152268D02*
X0014453Y0152268D01*
X0016051Y0153866D02*
X0005400Y0153866D01*
X0005400Y0155465D02*
X0017650Y0155465D01*
X0019248Y0157063D02*
X0005400Y0157063D01*
X0005400Y0158662D02*
X0007153Y0158662D01*
X0005500Y0160260D02*
X0005400Y0160260D01*
X0005400Y0169498D02*
X0005400Y0172208D01*
X0006528Y0171080D01*
X0006514Y0171074D01*
X0005726Y0170286D01*
X0005400Y0169498D01*
X0005400Y0169851D02*
X0005546Y0169851D01*
X0005400Y0171450D02*
X0006158Y0171450D01*
X0005400Y0177792D02*
X0005400Y0211400D01*
X0098200Y0211400D01*
X0098200Y0153169D01*
X0098080Y0153539D01*
X0097719Y0154247D01*
X0097252Y0154890D01*
X0096690Y0155452D01*
X0096047Y0155919D01*
X0095339Y0156280D01*
X0094583Y0156526D01*
X0093797Y0156650D01*
X0093400Y0156650D01*
X0093400Y0151600D01*
X0093400Y0151600D01*
X0093400Y0156650D01*
X0093003Y0156650D01*
X0092217Y0156526D01*
X0091461Y0156280D01*
X0090753Y0155919D01*
X0090110Y0155452D01*
X0089548Y0154890D01*
X0089352Y0154619D01*
X0088262Y0155709D01*
X0086737Y0156341D01*
X0085086Y0156341D01*
X0083560Y0155709D01*
X0082746Y0154895D01*
X0082190Y0155452D01*
X0081547Y0155919D01*
X0081215Y0156088D01*
X0084143Y0159017D01*
X0084481Y0158353D01*
X0084948Y0157710D01*
X0085510Y0157148D01*
X0086153Y0156681D01*
X0086861Y0156320D01*
X0087617Y0156074D01*
X0088403Y0155950D01*
X0088800Y0155950D01*
X0089197Y0155950D01*
X0089983Y0156074D01*
X0090739Y0156320D01*
X0091447Y0156681D01*
X0092090Y0157148D01*
X0092652Y0157710D01*
X0093119Y0158353D01*
X0093480Y0159061D01*
X0093726Y0159817D01*
X0093850Y0160603D01*
X0093850Y0161000D01*
X0093850Y0161397D01*
X0093726Y0162183D01*
X0093519Y0162818D01*
X0093610Y0162855D01*
X0094482Y0163727D01*
X0095889Y0165134D01*
X0096361Y0166274D01*
X0096361Y0175246D01*
X0095889Y0176385D01*
X0095017Y0177257D01*
X0075317Y0196956D01*
X0074178Y0197428D01*
X0071923Y0197428D01*
X0071708Y0197946D01*
X0070246Y0199408D01*
X0068334Y0200200D01*
X0066266Y0200200D01*
X0064354Y0199408D01*
X0062892Y0197946D01*
X0062100Y0196034D01*
X0062100Y0193966D01*
X0062892Y0192054D01*
X0064354Y0190592D01*
X0066266Y0189800D01*
X0068334Y0189800D01*
X0070246Y0190592D01*
X0070882Y0191228D01*
X0072277Y0191228D01*
X0086456Y0177050D01*
X0084993Y0177050D01*
X0083964Y0176624D01*
X0083176Y0175836D01*
X0082750Y0174807D01*
X0082750Y0173508D01*
X0071737Y0173508D01*
X0071737Y0173839D01*
X0071265Y0174978D01*
X0062654Y0183589D01*
X0061514Y0184061D01*
X0060281Y0184061D01*
X0020179Y0184061D01*
X0019040Y0183589D01*
X0018168Y0182717D01*
X0015721Y0180271D01*
X0014492Y0181500D01*
X0009108Y0181500D01*
X0005400Y0177792D01*
X0005400Y0177844D02*
X0005451Y0177844D01*
X0005400Y0179442D02*
X0007050Y0179442D01*
X0008648Y0181041D02*
X0005400Y0181041D01*
X0005400Y0182639D02*
X0018090Y0182639D01*
X0016491Y0181041D02*
X0014952Y0181041D01*
X0005400Y0184238D02*
X0079268Y0184238D01*
X0077669Y0185836D02*
X0005400Y0185836D01*
X0005400Y0187435D02*
X0076071Y0187435D01*
X0074472Y0189033D02*
X0005400Y0189033D01*
X0005400Y0190632D02*
X0064314Y0190632D01*
X0062819Y0192230D02*
X0005400Y0192230D01*
X0005400Y0193829D02*
X0062157Y0193829D01*
X0062100Y0195427D02*
X0005400Y0195427D01*
X0005400Y0197026D02*
X0062511Y0197026D01*
X0063570Y0198624D02*
X0005400Y0198624D01*
X0005400Y0200223D02*
X0098200Y0200223D01*
X0098200Y0201821D02*
X0005400Y0201821D01*
X0005400Y0203420D02*
X0098200Y0203420D01*
X0098200Y0205018D02*
X0005400Y0205018D01*
X0005400Y0206617D02*
X0098200Y0206617D01*
X0098200Y0208215D02*
X0005400Y0208215D01*
X0005400Y0209814D02*
X0098200Y0209814D01*
X0098200Y0198624D02*
X0090030Y0198624D01*
X0090708Y0197946D02*
X0089246Y0199408D01*
X0087334Y0200200D01*
X0085266Y0200200D01*
X0083354Y0199408D01*
X0081892Y0197946D01*
X0081100Y0196034D01*
X0081100Y0193966D01*
X0081892Y0192054D01*
X0083354Y0190592D01*
X0085266Y0189800D01*
X0087334Y0189800D01*
X0089246Y0190592D01*
X0090708Y0192054D01*
X0091500Y0193966D01*
X0091500Y0196034D01*
X0090708Y0197946D01*
X0091089Y0197026D02*
X0098200Y0197026D01*
X0098200Y0195427D02*
X0091500Y0195427D01*
X0091443Y0193829D02*
X0098200Y0193829D01*
X0098200Y0192230D02*
X0090781Y0192230D01*
X0089286Y0190632D02*
X0098200Y0190632D01*
X0098200Y0189033D02*
X0083241Y0189033D01*
X0083314Y0190632D02*
X0081642Y0190632D01*
X0081819Y0192230D02*
X0080044Y0192230D01*
X0081157Y0193829D02*
X0078445Y0193829D01*
X0076846Y0195427D02*
X0081100Y0195427D01*
X0081511Y0197026D02*
X0075150Y0197026D01*
X0072874Y0190632D02*
X0070286Y0190632D01*
X0071030Y0198624D02*
X0082570Y0198624D01*
X0084839Y0187435D02*
X0098200Y0187435D01*
X0098200Y0185836D02*
X0086438Y0185836D01*
X0088036Y0184238D02*
X0098200Y0184238D01*
X0098200Y0182639D02*
X0089635Y0182639D01*
X0091233Y0181041D02*
X0098200Y0181041D01*
X0098200Y0179442D02*
X0092832Y0179442D01*
X0094430Y0177844D02*
X0098200Y0177844D01*
X0098200Y0176245D02*
X0095947Y0176245D01*
X0096361Y0174647D02*
X0098200Y0174647D01*
X0098200Y0173048D02*
X0096361Y0173048D01*
X0096361Y0171450D02*
X0098200Y0171450D01*
X0098200Y0169851D02*
X0096361Y0169851D01*
X0096361Y0168253D02*
X0098200Y0168253D01*
X0098200Y0166654D02*
X0096361Y0166654D01*
X0095810Y0165056D02*
X0098200Y0165056D01*
X0098200Y0163457D02*
X0094212Y0163457D01*
X0093777Y0161859D02*
X0098200Y0161859D01*
X0098200Y0160260D02*
X0093796Y0160260D01*
X0093850Y0161000D02*
X0088800Y0161000D01*
X0093850Y0161000D01*
X0093276Y0158662D02*
X0098200Y0158662D01*
X0098200Y0157063D02*
X0091973Y0157063D01*
X0093400Y0155465D02*
X0093400Y0155465D01*
X0093400Y0153866D02*
X0093400Y0153866D01*
X0093400Y0152268D02*
X0093400Y0152268D01*
X0090490Y0147472D02*
X0088444Y0147472D01*
X0089548Y0148310D02*
X0089081Y0148953D01*
X0088899Y0149310D01*
X0088642Y0149053D01*
X0088079Y0144563D01*
X0088271Y0145027D01*
X0089973Y0146729D01*
X0091001Y0147155D01*
X0090753Y0147281D01*
X0090110Y0147748D01*
X0089548Y0148310D01*
X0089021Y0149070D02*
X0088660Y0149070D01*
X0088243Y0145873D02*
X0089117Y0145873D01*
X0087508Y0140014D02*
X0088271Y0138173D01*
X0089973Y0136471D01*
X0092197Y0135550D01*
X0094603Y0135550D01*
X0096827Y0136471D01*
X0098200Y0137844D01*
X0098200Y0117741D01*
X0097810Y0118682D01*
X0095982Y0120510D01*
X0093593Y0121500D01*
X0091007Y0121500D01*
X0088618Y0120510D01*
X0086998Y0118890D01*
X0082247Y0126232D01*
X0082247Y0126705D01*
X0085466Y0129924D01*
X0085800Y0130183D01*
X0085898Y0130356D01*
X0086039Y0130497D01*
X0086201Y0130888D01*
X0086410Y0131255D01*
X0086435Y0131452D01*
X0086511Y0131636D01*
X0086511Y0132059D01*
X0087508Y0140014D01*
X0087441Y0139479D02*
X0087730Y0139479D01*
X0087241Y0137881D02*
X0088563Y0137881D01*
X0087041Y0136282D02*
X0090428Y0136282D01*
X0086840Y0134684D02*
X0098200Y0134684D01*
X0098200Y0136282D02*
X0096372Y0136282D01*
X0098200Y0133085D02*
X0086640Y0133085D01*
X0086449Y0131487D02*
X0098200Y0131487D01*
X0098200Y0129888D02*
X0085431Y0129888D01*
X0083832Y0128290D02*
X0098200Y0128290D01*
X0098200Y0126691D02*
X0082247Y0126691D01*
X0082984Y0125093D02*
X0098200Y0125093D01*
X0098200Y0123494D02*
X0084018Y0123494D01*
X0085053Y0121896D02*
X0098200Y0121896D01*
X0098200Y0120297D02*
X0096195Y0120297D01*
X0097794Y0118699D02*
X0098200Y0118699D01*
X0098200Y0112259D02*
X0098200Y0100905D01*
X0097097Y0102009D01*
X0097800Y0103707D01*
X0097800Y0106293D01*
X0096810Y0108682D01*
X0095992Y0109500D01*
X0097810Y0111318D01*
X0098200Y0112259D01*
X0098200Y0110706D02*
X0097199Y0110706D01*
X0096385Y0109108D02*
X0098200Y0109108D01*
X0098200Y0107509D02*
X0097296Y0107509D01*
X0097800Y0105911D02*
X0098200Y0105911D01*
X0098200Y0104312D02*
X0097800Y0104312D01*
X0098200Y0102714D02*
X0097388Y0102714D01*
X0097990Y0101115D02*
X0098200Y0101115D01*
X0088405Y0120297D02*
X0086087Y0120297D01*
X0082840Y0113903D02*
X0080179Y0113903D01*
X0080179Y0113298D02*
X0080179Y0116670D01*
X0080597Y0117088D01*
X0080668Y0117259D01*
X0086051Y0108943D01*
X0085790Y0108682D01*
X0085498Y0107979D01*
X0080179Y0113298D01*
X0081172Y0112305D02*
X0083875Y0112305D01*
X0084909Y0110706D02*
X0082771Y0110706D01*
X0084369Y0109108D02*
X0085944Y0109108D01*
X0081995Y0102714D02*
X0077534Y0102714D01*
X0077426Y0102974D02*
X0077783Y0103331D01*
X0078415Y0104856D01*
X0078415Y0106294D01*
X0086411Y0098298D01*
X0086566Y0098143D01*
X0085800Y0096293D01*
X0085800Y0093707D01*
X0086790Y0091318D01*
X0087608Y0090500D01*
X0085790Y0088682D01*
X0084800Y0086293D01*
X0084800Y0084756D01*
X0073847Y0095709D01*
X0073847Y0097311D01*
X0074387Y0097311D01*
X0075912Y0097942D01*
X0077080Y0099110D01*
X0077711Y0100635D01*
X0077711Y0102286D01*
X0077426Y0102974D01*
X0078190Y0104312D02*
X0080397Y0104312D01*
X0078798Y0105911D02*
X0078415Y0105911D01*
X0077711Y0101115D02*
X0083594Y0101115D01*
X0085192Y0099517D02*
X0077248Y0099517D01*
X0075853Y0097918D02*
X0086473Y0097918D01*
X0085811Y0096320D02*
X0073847Y0096320D01*
X0074835Y0094721D02*
X0085800Y0094721D01*
X0086042Y0093123D02*
X0076434Y0093123D01*
X0078032Y0091524D02*
X0086704Y0091524D01*
X0087033Y0089926D02*
X0079631Y0089926D01*
X0081229Y0088327D02*
X0085643Y0088327D01*
X0084980Y0086729D02*
X0082828Y0086729D01*
X0084426Y0085130D02*
X0084800Y0085130D01*
X0078918Y0075539D02*
X0076531Y0075539D01*
X0077310Y0076318D02*
X0075564Y0074571D01*
X0075840Y0073905D01*
X0075840Y0072254D01*
X0075208Y0070729D01*
X0075134Y0070655D01*
X0075482Y0070510D01*
X0077310Y0068682D01*
X0078300Y0066293D01*
X0078300Y0063707D01*
X0077310Y0061318D01*
X0075482Y0059490D01*
X0075063Y0059316D01*
X0077597Y0056783D01*
X0078068Y0055643D01*
X0078068Y0034711D01*
X0077597Y0033572D01*
X0076725Y0032700D01*
X0076724Y0032700D01*
X0074428Y0030403D01*
X0076253Y0028578D01*
X0085746Y0028578D01*
X0085790Y0028682D01*
X0087608Y0030500D01*
X0086790Y0031318D01*
X0085800Y0033707D01*
X0085800Y0036293D01*
X0086790Y0038682D01*
X0087608Y0039500D01*
X0085790Y0041318D01*
X0084800Y0043707D01*
X0084800Y0046293D01*
X0085790Y0048682D01*
X0086284Y0049177D01*
X0082190Y0053271D01*
X0081718Y0054410D01*
X0081718Y0072738D01*
X0077553Y0076904D01*
X0077310Y0076318D01*
X0075825Y0073940D02*
X0080516Y0073940D01*
X0081718Y0072342D02*
X0075840Y0072342D01*
X0075214Y0070743D02*
X0081718Y0070743D01*
X0081718Y0069145D02*
X0076847Y0069145D01*
X0077781Y0067546D02*
X0081718Y0067546D01*
X0081718Y0065948D02*
X0078300Y0065948D01*
X0078300Y0064349D02*
X0081718Y0064349D01*
X0081718Y0062751D02*
X0077904Y0062751D01*
X0077145Y0061152D02*
X0081718Y0061152D01*
X0081718Y0059554D02*
X0075546Y0059554D01*
X0076424Y0057955D02*
X0081718Y0057955D01*
X0081718Y0056357D02*
X0077773Y0056357D01*
X0078068Y0054758D02*
X0081718Y0054758D01*
X0082301Y0053160D02*
X0078068Y0053160D01*
X0078068Y0051561D02*
X0083900Y0051561D01*
X0085498Y0049963D02*
X0078068Y0049963D01*
X0078068Y0048364D02*
X0085658Y0048364D01*
X0084996Y0046766D02*
X0078068Y0046766D01*
X0078068Y0045167D02*
X0084800Y0045167D01*
X0084857Y0043569D02*
X0078068Y0043569D01*
X0078068Y0041970D02*
X0085519Y0041970D01*
X0086736Y0040372D02*
X0078068Y0040372D01*
X0078068Y0038773D02*
X0086881Y0038773D01*
X0086165Y0037175D02*
X0078068Y0037175D01*
X0078068Y0035576D02*
X0085800Y0035576D01*
X0085800Y0033978D02*
X0077765Y0033978D01*
X0076404Y0032379D02*
X0086350Y0032379D01*
X0087327Y0030781D02*
X0074806Y0030781D01*
X0075648Y0029182D02*
X0086290Y0029182D01*
X0085351Y0022378D02*
X0085790Y0021318D01*
X0087618Y0019490D01*
X0090007Y0018500D01*
X0092593Y0018500D01*
X0094982Y0019490D01*
X0096810Y0021318D01*
X0097800Y0023707D01*
X0097800Y0026293D01*
X0096810Y0028682D01*
X0095992Y0029500D01*
X0097810Y0031318D01*
X0098200Y0032259D01*
X0098200Y0013600D01*
X0075360Y0013600D01*
X0075790Y0014030D01*
X0077146Y0016379D01*
X0077848Y0018998D01*
X0077848Y0021710D01*
X0077669Y0022378D01*
X0085351Y0022378D01*
X0085918Y0021190D02*
X0077848Y0021190D01*
X0077848Y0019591D02*
X0087517Y0019591D01*
X0095083Y0019591D02*
X0098200Y0019591D01*
X0098200Y0017993D02*
X0077579Y0017993D01*
X0077150Y0016394D02*
X0098200Y0016394D01*
X0098200Y0014796D02*
X0076232Y0014796D01*
X0062861Y0046766D02*
X0061977Y0046766D01*
X0066116Y0068263D02*
X0055555Y0078824D01*
X0055555Y0084831D01*
X0067540Y0072846D01*
X0067540Y0072254D01*
X0068172Y0070729D01*
X0068311Y0070590D01*
X0068118Y0070510D01*
X0066290Y0068682D01*
X0066116Y0068263D01*
X0066753Y0069145D02*
X0065234Y0069145D01*
X0063636Y0070743D02*
X0068166Y0070743D01*
X0067540Y0072342D02*
X0062037Y0072342D01*
X0060439Y0073940D02*
X0066445Y0073940D01*
X0064847Y0075539D02*
X0058840Y0075539D01*
X0057242Y0077137D02*
X0063248Y0077137D01*
X0061650Y0078736D02*
X0055643Y0078736D01*
X0055555Y0080334D02*
X0060051Y0080334D01*
X0058453Y0081933D02*
X0055555Y0081933D01*
X0055555Y0083532D02*
X0056854Y0083532D01*
X0059228Y0089926D02*
X0060310Y0089926D01*
X0060827Y0088327D02*
X0061908Y0088327D01*
X0062425Y0086729D02*
X0063507Y0086729D01*
X0064487Y0085749D02*
X0064487Y0085157D01*
X0064833Y0084321D01*
X0056962Y0092192D01*
X0056962Y0093273D01*
X0064487Y0085749D01*
X0064498Y0085130D02*
X0064024Y0085130D01*
X0058711Y0091524D02*
X0057630Y0091524D01*
X0057113Y0093123D02*
X0056962Y0093123D01*
X0062591Y0099931D02*
X0062591Y0103846D01*
X0066240Y0099606D01*
X0066240Y0096281D01*
X0062591Y0099931D01*
X0063004Y0099517D02*
X0066240Y0099517D01*
X0066240Y0097918D02*
X0064603Y0097918D01*
X0064941Y0101115D02*
X0062591Y0101115D01*
X0062591Y0102714D02*
X0063565Y0102714D01*
X0066201Y0096320D02*
X0066240Y0096320D01*
X0071165Y0109648D02*
X0068219Y0112594D01*
X0068219Y0135743D01*
X0068527Y0135871D01*
X0070229Y0137573D01*
X0071150Y0139797D01*
X0071150Y0142203D01*
X0070229Y0144427D01*
X0069891Y0144765D01*
X0074412Y0149285D01*
X0074581Y0148953D01*
X0075048Y0148310D01*
X0075610Y0147748D01*
X0076253Y0147281D01*
X0076501Y0147155D01*
X0075473Y0146729D01*
X0073771Y0145027D01*
X0072850Y0142803D01*
X0072850Y0140397D01*
X0072875Y0140336D01*
X0071637Y0139097D01*
X0071165Y0137958D01*
X0071165Y0109648D01*
X0071165Y0110706D02*
X0070107Y0110706D01*
X0071165Y0112305D02*
X0068508Y0112305D01*
X0068219Y0113903D02*
X0071165Y0113903D01*
X0071165Y0115502D02*
X0068219Y0115502D01*
X0068219Y0117100D02*
X0071165Y0117100D01*
X0071165Y0118699D02*
X0068219Y0118699D01*
X0068219Y0120297D02*
X0071165Y0120297D01*
X0071165Y0121896D02*
X0068219Y0121896D01*
X0068219Y0123494D02*
X0071165Y0123494D01*
X0071165Y0125093D02*
X0068219Y0125093D01*
X0068219Y0126691D02*
X0071165Y0126691D01*
X0071165Y0128290D02*
X0068219Y0128290D01*
X0068219Y0129888D02*
X0071165Y0129888D01*
X0071165Y0131487D02*
X0068219Y0131487D01*
X0068219Y0133085D02*
X0071165Y0133085D01*
X0071165Y0134684D02*
X0068219Y0134684D01*
X0068938Y0136282D02*
X0071165Y0136282D01*
X0071165Y0137881D02*
X0070356Y0137881D01*
X0071019Y0139479D02*
X0072019Y0139479D01*
X0072850Y0141078D02*
X0071150Y0141078D01*
X0070954Y0142676D02*
X0072850Y0142676D01*
X0073460Y0144275D02*
X0070292Y0144275D01*
X0071000Y0145873D02*
X0074617Y0145873D01*
X0075990Y0147472D02*
X0072598Y0147472D01*
X0074197Y0149070D02*
X0074521Y0149070D01*
X0071823Y0155465D02*
X0067461Y0155465D01*
X0067747Y0155319D02*
X0067039Y0155680D01*
X0066283Y0155926D01*
X0065497Y0156050D01*
X0065100Y0156050D01*
X0065100Y0151000D01*
X0065100Y0151000D01*
X0065100Y0151000D01*
X0060050Y0151000D01*
X0060050Y0151397D01*
X0060174Y0152183D01*
X0060420Y0152939D01*
X0060781Y0153647D01*
X0061248Y0154290D01*
X0061810Y0154852D01*
X0062453Y0155319D01*
X0063161Y0155680D01*
X0063917Y0155926D01*
X0064703Y0156050D01*
X0065100Y0156050D01*
X0065100Y0151000D01*
X0060050Y0151000D01*
X0060050Y0150603D01*
X0060174Y0149817D01*
X0060420Y0149061D01*
X0060781Y0148353D01*
X0061248Y0147710D01*
X0061810Y0147148D01*
X0062453Y0146681D01*
X0062701Y0146555D01*
X0061673Y0146129D01*
X0059971Y0144427D01*
X0059050Y0142203D01*
X0059050Y0139797D01*
X0059622Y0138417D01*
X0058787Y0137581D01*
X0058155Y0136056D01*
X0058155Y0135465D01*
X0047296Y0124606D01*
X0046705Y0124606D01*
X0045180Y0123974D01*
X0045029Y0123824D01*
X0045002Y0123851D01*
X0045002Y0139291D01*
X0045482Y0139490D01*
X0047310Y0141318D01*
X0048300Y0143707D01*
X0048300Y0145687D01*
X0069921Y0167308D01*
X0082750Y0167308D01*
X0082750Y0167193D01*
X0082985Y0166627D01*
X0069617Y0153259D01*
X0069419Y0153647D01*
X0068952Y0154290D01*
X0068390Y0154852D01*
X0067747Y0155319D01*
X0069260Y0153866D02*
X0070224Y0153866D01*
X0073421Y0157063D02*
X0059676Y0157063D01*
X0061274Y0158662D02*
X0075020Y0158662D01*
X0076618Y0160260D02*
X0062873Y0160260D01*
X0064471Y0161859D02*
X0078217Y0161859D01*
X0079815Y0163457D02*
X0066070Y0163457D01*
X0067668Y0165056D02*
X0081414Y0165056D01*
X0082973Y0166654D02*
X0069267Y0166654D01*
X0065294Y0171450D02*
X0063461Y0171450D01*
X0063500Y0171543D02*
X0063500Y0173975D01*
X0065537Y0171938D01*
X0065537Y0171692D01*
X0061982Y0168137D01*
X0061704Y0168683D01*
X0061255Y0169300D01*
X0061257Y0169300D01*
X0062286Y0169726D01*
X0063074Y0170514D01*
X0063500Y0171543D01*
X0063500Y0173048D02*
X0064426Y0173048D01*
X0063696Y0169851D02*
X0062411Y0169851D01*
X0062097Y0168253D02*
X0061923Y0168253D01*
X0066801Y0179442D02*
X0084063Y0179442D01*
X0085662Y0177844D02*
X0068399Y0177844D01*
X0069998Y0176245D02*
X0083585Y0176245D01*
X0082750Y0174647D02*
X0071402Y0174647D01*
X0065202Y0181041D02*
X0082465Y0181041D01*
X0080866Y0182639D02*
X0063603Y0182639D01*
X0053163Y0161859D02*
X0037851Y0161859D01*
X0038300Y0163457D02*
X0052021Y0163457D01*
X0051549Y0165056D02*
X0038300Y0165056D01*
X0038300Y0166654D02*
X0051567Y0166654D01*
X0052077Y0168253D02*
X0037740Y0168253D01*
X0036141Y0169851D02*
X0051589Y0169851D01*
X0050539Y0171450D02*
X0036028Y0171450D01*
X0037300Y0173048D02*
X0050500Y0173048D01*
X0050500Y0174647D02*
X0037300Y0174647D01*
X0037300Y0176245D02*
X0050500Y0176245D01*
X0050500Y0177844D02*
X0036734Y0177844D01*
X0028315Y0170707D02*
X0026800Y0169192D01*
X0025992Y0170000D01*
X0027507Y0171515D01*
X0028315Y0170707D01*
X0027572Y0171450D02*
X0027442Y0171450D01*
X0027459Y0169851D02*
X0026141Y0169851D01*
X0028016Y0157063D02*
X0028134Y0157063D01*
X0028952Y0155465D02*
X0026418Y0155465D01*
X0024819Y0153866D02*
X0028952Y0153866D01*
X0028952Y0152268D02*
X0023221Y0152268D01*
X0021622Y0150669D02*
X0028952Y0150669D01*
X0028952Y0149070D02*
X0020024Y0149070D01*
X0018425Y0147472D02*
X0028952Y0147472D01*
X0028952Y0145873D02*
X0018300Y0145873D01*
X0018300Y0144275D02*
X0028952Y0144275D01*
X0028952Y0142676D02*
X0017873Y0142676D01*
X0017070Y0141078D02*
X0028952Y0141078D01*
X0028952Y0139479D02*
X0015457Y0139479D01*
X0016447Y0158662D02*
X0018946Y0158662D01*
X0035072Y0133085D02*
X0038802Y0133085D01*
X0038802Y0134684D02*
X0036026Y0134684D01*
X0036202Y0136282D02*
X0038802Y0136282D01*
X0038802Y0137881D02*
X0035738Y0137881D01*
X0035152Y0139479D02*
X0038143Y0139479D01*
X0036530Y0141078D02*
X0035152Y0141078D01*
X0035152Y0142676D02*
X0035727Y0142676D01*
X0035300Y0144275D02*
X0035152Y0144275D01*
X0035152Y0145873D02*
X0035300Y0145873D01*
X0035152Y0147472D02*
X0035788Y0147472D01*
X0035152Y0149070D02*
X0036678Y0149070D01*
X0035152Y0150669D02*
X0038501Y0150669D01*
X0035152Y0152268D02*
X0046112Y0152268D01*
X0047711Y0153866D02*
X0035152Y0153866D01*
X0035152Y0155465D02*
X0049309Y0155465D01*
X0050908Y0157063D02*
X0035971Y0157063D01*
X0036202Y0158662D02*
X0052506Y0158662D01*
X0054105Y0160260D02*
X0036252Y0160260D01*
X0045457Y0139479D02*
X0059181Y0139479D01*
X0059086Y0137881D02*
X0045002Y0137881D01*
X0045002Y0136282D02*
X0058248Y0136282D01*
X0057374Y0134684D02*
X0045002Y0134684D01*
X0045002Y0133085D02*
X0055775Y0133085D01*
X0054177Y0131487D02*
X0045002Y0131487D01*
X0045002Y0129888D02*
X0052578Y0129888D01*
X0050980Y0128290D02*
X0045002Y0128290D01*
X0045002Y0126691D02*
X0049381Y0126691D01*
X0047783Y0125093D02*
X0045002Y0125093D01*
X0047070Y0141078D02*
X0059050Y0141078D01*
X0059246Y0142676D02*
X0047873Y0142676D01*
X0048300Y0144275D02*
X0059908Y0144275D01*
X0061417Y0145873D02*
X0048486Y0145873D01*
X0050085Y0147472D02*
X0061486Y0147472D01*
X0060417Y0149070D02*
X0051683Y0149070D01*
X0053282Y0150669D02*
X0060050Y0150669D01*
X0060202Y0152268D02*
X0054880Y0152268D01*
X0056479Y0153866D02*
X0060940Y0153866D01*
X0062739Y0155465D02*
X0058077Y0155465D01*
X0065100Y0155465D02*
X0065100Y0155465D01*
X0065100Y0153866D02*
X0065100Y0153866D01*
X0065100Y0152268D02*
X0065100Y0152268D01*
X0062019Y0130561D02*
X0056421Y0124963D01*
X0059536Y0124963D01*
X0059954Y0125382D01*
X0061479Y0126013D01*
X0062019Y0126013D01*
X0062019Y0130561D01*
X0062019Y0129888D02*
X0061346Y0129888D01*
X0062019Y0128290D02*
X0059748Y0128290D01*
X0058149Y0126691D02*
X0062019Y0126691D01*
X0059665Y0125093D02*
X0056551Y0125093D01*
X0058012Y0118763D02*
X0058569Y0118763D01*
X0058361Y0118261D01*
X0058012Y0118666D01*
X0058012Y0118763D01*
X0058012Y0118699D02*
X0058542Y0118699D01*
X0077365Y0131089D02*
X0077365Y0135687D01*
X0077697Y0135550D01*
X0080103Y0135550D01*
X0080733Y0135811D01*
X0080467Y0133693D01*
X0077863Y0131089D01*
X0077365Y0131089D01*
X0077365Y0131487D02*
X0078261Y0131487D01*
X0077365Y0133085D02*
X0079860Y0133085D01*
X0080592Y0134684D02*
X0077365Y0134684D01*
X0082113Y0146818D02*
X0081299Y0147155D01*
X0081547Y0147281D01*
X0082190Y0147748D01*
X0082235Y0147794D01*
X0082113Y0146818D01*
X0082195Y0147472D02*
X0081810Y0147472D01*
X0082173Y0155465D02*
X0083316Y0155465D01*
X0082189Y0157063D02*
X0085627Y0157063D01*
X0084324Y0158662D02*
X0083788Y0158662D01*
X0088800Y0158662D02*
X0088800Y0158662D01*
X0088800Y0160260D02*
X0088800Y0160260D01*
X0088800Y0161000D02*
X0088800Y0155950D01*
X0088800Y0161000D01*
X0088800Y0161000D01*
X0088800Y0161000D01*
X0088800Y0157063D02*
X0088800Y0157063D01*
X0088506Y0155465D02*
X0090127Y0155465D01*
X0096673Y0155465D02*
X0098200Y0155465D01*
X0098200Y0153866D02*
X0097913Y0153866D01*
X0098200Y0150031D02*
X0098200Y0145356D01*
X0096827Y0146729D01*
X0095799Y0147155D01*
X0096047Y0147281D01*
X0096690Y0147748D01*
X0097252Y0148310D01*
X0097719Y0148953D01*
X0098080Y0149661D01*
X0098200Y0150031D01*
X0098200Y0149070D02*
X0097779Y0149070D01*
X0098200Y0147472D02*
X0096310Y0147472D01*
X0097683Y0145873D02*
X0098200Y0145873D01*
X0081806Y0115502D02*
X0080179Y0115502D01*
X0080602Y0117100D02*
X0080771Y0117100D01*
X0048724Y0051561D02*
X0048577Y0051561D01*
X0095992Y0040500D02*
X0096810Y0041318D01*
X0097800Y0043707D01*
X0097800Y0046293D01*
X0097669Y0046609D01*
X0098200Y0047140D01*
X0098200Y0037741D01*
X0097810Y0038682D01*
X0095992Y0040500D01*
X0096121Y0040372D02*
X0098200Y0040372D01*
X0098200Y0041970D02*
X0097081Y0041970D01*
X0097743Y0043569D02*
X0098200Y0043569D01*
X0098200Y0045167D02*
X0097800Y0045167D01*
X0097826Y0046766D02*
X0098200Y0046766D01*
X0098200Y0038773D02*
X0097719Y0038773D01*
X0097273Y0030781D02*
X0098200Y0030781D01*
X0098200Y0029182D02*
X0096310Y0029182D01*
X0097265Y0027584D02*
X0098200Y0027584D01*
X0098200Y0025985D02*
X0097800Y0025985D01*
X0097800Y0024387D02*
X0098200Y0024387D01*
X0098200Y0022788D02*
X0097419Y0022788D01*
X0096682Y0021190D02*
X0098200Y0021190D01*
M02*
