%
M48
M72
T01C0.0130
T02C0.0157
T03C0.0315
T04C0.0394
T05C0.0400
%
T01
X2500Y2580
X4840Y3160
X5280Y3670
X6090Y1280
X7300Y1780
X8500Y2780
X7100Y4780
X7869Y5418
X8672Y6371
X9040Y7000
X8300Y7180
X7800Y8180
X8813Y8763
X9347Y9687
X9300Y10180
X9538Y10651
X10500Y10580
X11282Y9487
X10110Y8160
X10100Y3980
X12500Y2180
X8622Y12555
X8672Y13347
X8813Y13699
X8109Y13547
X8059Y14460
X8613Y15195
X8291Y15375
X9094Y16573
X9798Y15457
X9700Y14760
X10079Y14743
X10361Y15236
X11400Y13160
X8320Y17458
X9019Y18324
X9740Y18360
X9800Y20180
X8039Y19739
X6982Y19913
X6443Y19316
X5577Y19668
X6200Y17920
X5295Y15869
X6069Y14884
X6601Y14814
X7335Y15447
X7054Y13547
X5700Y11180
X5690Y10530
X5100Y8780
X4300Y8180
X3396Y12492
X2820Y16120
X4217Y17980
X800Y17680
T02
X5446Y5794
X5800Y5440
X6154Y5086
X6154Y5794
X5446Y5086
T03
X1300Y9093
X1300Y9881
X1300Y10668
X1300Y11456
X1300Y12243
X1300Y13030
X1300Y13818
X1300Y14605
X1300Y15393
X1300Y16180
T04
X11386Y7966
X11386Y6234
T05
X11290Y16380
X12430Y16380
X12270Y18200
X12270Y19200
X12270Y20200
X11270Y20200
X11270Y19200
X11270Y18200
M30
