G75*
%MOIN*%
%OFA0B0*%
%FSLAX25Y25*%
%IPPOS*%
%LPD*%
%AMOC8*
5,1,8,0,0,1.08239X$1,22.5*
%
%ADD10C,0.00300*%
%ADD11C,0.00400*%
%ADD12C,0.00600*%
%ADD13C,0.00500*%
%ADD14C,0.00800*%
%ADD15C,0.00100*%
%ADD16C,0.01600*%
D10*
X0006901Y0015767D02*
X0007518Y0015150D01*
X0008752Y0015150D01*
X0009369Y0015767D01*
X0009369Y0017002D01*
X0008135Y0017002D01*
X0009369Y0018236D02*
X0008752Y0018853D01*
X0007518Y0018853D01*
X0006901Y0018236D01*
X0006901Y0015767D01*
X0010584Y0015150D02*
X0010584Y0018853D01*
X0013052Y0015150D01*
X0013052Y0018853D01*
X0014267Y0018853D02*
X0016118Y0018853D01*
X0016736Y0018236D01*
X0016736Y0015767D01*
X0016118Y0015150D01*
X0014267Y0015150D01*
X0014267Y0018853D01*
X0017950Y0034150D02*
X0017950Y0037052D01*
X0019401Y0037052D01*
X0019885Y0036569D01*
X0019885Y0035601D01*
X0019401Y0035117D01*
X0017950Y0035117D01*
X0020897Y0034634D02*
X0021380Y0034150D01*
X0022348Y0034150D01*
X0022831Y0034634D01*
X0023843Y0034634D02*
X0023843Y0034150D01*
X0023843Y0034634D02*
X0025778Y0036569D01*
X0025778Y0037052D01*
X0023843Y0037052D01*
X0022831Y0036569D02*
X0022348Y0037052D01*
X0021380Y0037052D01*
X0020897Y0036569D01*
X0020897Y0034634D01*
X0021380Y0044150D02*
X0020897Y0044634D01*
X0020897Y0046569D01*
X0021380Y0047052D01*
X0022348Y0047052D01*
X0022831Y0046569D01*
X0023843Y0045601D02*
X0023843Y0044634D01*
X0024327Y0044150D01*
X0025294Y0044150D01*
X0025778Y0044634D01*
X0025778Y0045117D01*
X0025294Y0045601D01*
X0023843Y0045601D01*
X0024811Y0046569D01*
X0025778Y0047052D01*
X0022831Y0044634D02*
X0022348Y0044150D01*
X0021380Y0044150D01*
X0019885Y0045601D02*
X0019401Y0045117D01*
X0017950Y0045117D01*
X0017950Y0044150D02*
X0017950Y0047052D01*
X0019401Y0047052D01*
X0019885Y0046569D01*
X0019885Y0045601D01*
X0021380Y0054150D02*
X0022348Y0054150D01*
X0022831Y0054634D01*
X0023843Y0054634D02*
X0024327Y0054150D01*
X0025294Y0054150D01*
X0025778Y0054634D01*
X0025778Y0055601D01*
X0025294Y0056085D01*
X0024811Y0056085D01*
X0023843Y0055601D01*
X0023843Y0057052D01*
X0025778Y0057052D01*
X0022831Y0056569D02*
X0022348Y0057052D01*
X0021380Y0057052D01*
X0020897Y0056569D01*
X0020897Y0054634D01*
X0021380Y0054150D01*
X0019885Y0055601D02*
X0019885Y0056569D01*
X0019401Y0057052D01*
X0017950Y0057052D01*
X0017950Y0054150D01*
X0017950Y0055117D02*
X0019401Y0055117D01*
X0019885Y0055601D01*
X0021380Y0063150D02*
X0020897Y0063634D01*
X0020897Y0065569D01*
X0021380Y0066052D01*
X0022348Y0066052D01*
X0022831Y0065569D01*
X0023843Y0064601D02*
X0025778Y0064601D01*
X0025294Y0063150D02*
X0025294Y0066052D01*
X0023843Y0064601D01*
X0022831Y0063634D02*
X0022348Y0063150D01*
X0021380Y0063150D01*
X0019885Y0064601D02*
X0019401Y0064117D01*
X0017950Y0064117D01*
X0017950Y0063150D02*
X0017950Y0066052D01*
X0019401Y0066052D01*
X0019885Y0065569D01*
X0019885Y0064601D01*
X0018950Y0074150D02*
X0018950Y0077052D01*
X0020401Y0077052D01*
X0020885Y0076569D01*
X0020885Y0075601D01*
X0020401Y0075117D01*
X0018950Y0075117D01*
X0021897Y0074634D02*
X0022380Y0074150D01*
X0023348Y0074150D01*
X0023831Y0074634D01*
X0024843Y0074150D02*
X0026778Y0076085D01*
X0026778Y0076569D01*
X0026294Y0077052D01*
X0025327Y0077052D01*
X0024843Y0076569D01*
X0023831Y0076569D02*
X0023348Y0077052D01*
X0022380Y0077052D01*
X0021897Y0076569D01*
X0021897Y0074634D01*
X0024843Y0074150D02*
X0026778Y0074150D01*
X0023843Y0083150D02*
X0023843Y0083634D01*
X0025778Y0085569D01*
X0025778Y0086052D01*
X0023843Y0086052D01*
X0022831Y0085569D02*
X0022831Y0085085D01*
X0022348Y0084601D01*
X0020897Y0084601D01*
X0019885Y0084601D02*
X0019401Y0084117D01*
X0017950Y0084117D01*
X0017950Y0083150D02*
X0017950Y0086052D01*
X0019401Y0086052D01*
X0019885Y0085569D01*
X0019885Y0084601D01*
X0020897Y0083150D02*
X0022348Y0083150D01*
X0022831Y0083634D01*
X0022831Y0084117D01*
X0022348Y0084601D01*
X0022831Y0085569D02*
X0022348Y0086052D01*
X0020897Y0086052D01*
X0020897Y0083150D01*
X0020897Y0093150D02*
X0022348Y0093150D01*
X0022831Y0093634D01*
X0022831Y0094117D01*
X0022348Y0094601D01*
X0020897Y0094601D01*
X0019885Y0094601D02*
X0019885Y0095569D01*
X0019401Y0096052D01*
X0017950Y0096052D01*
X0017950Y0093150D01*
X0017950Y0094117D02*
X0019401Y0094117D01*
X0019885Y0094601D01*
X0020897Y0093150D02*
X0020897Y0096052D01*
X0022348Y0096052D01*
X0022831Y0095569D01*
X0022831Y0095085D01*
X0022348Y0094601D01*
X0023843Y0094601D02*
X0025294Y0094601D01*
X0025778Y0094117D01*
X0025778Y0093634D01*
X0025294Y0093150D01*
X0024327Y0093150D01*
X0023843Y0093634D01*
X0023843Y0094601D01*
X0024811Y0095569D01*
X0025778Y0096052D01*
X0025327Y0103150D02*
X0024843Y0103634D01*
X0025327Y0103150D02*
X0026294Y0103150D01*
X0026778Y0103634D01*
X0026778Y0104601D01*
X0026294Y0105085D01*
X0025811Y0105085D01*
X0024843Y0104601D01*
X0024843Y0106052D01*
X0026778Y0106052D01*
X0023831Y0105569D02*
X0023831Y0105085D01*
X0023348Y0104601D01*
X0021897Y0104601D01*
X0020885Y0104601D02*
X0020401Y0104117D01*
X0018950Y0104117D01*
X0018950Y0103150D02*
X0018950Y0106052D01*
X0020401Y0106052D01*
X0020885Y0105569D01*
X0020885Y0104601D01*
X0021897Y0103150D02*
X0023348Y0103150D01*
X0023831Y0103634D01*
X0023831Y0104117D01*
X0023348Y0104601D01*
X0023831Y0105569D02*
X0023348Y0106052D01*
X0021897Y0106052D01*
X0021897Y0103150D01*
X0016294Y0121150D02*
X0016294Y0124052D01*
X0014843Y0122601D01*
X0016778Y0122601D01*
X0013831Y0122117D02*
X0013831Y0121634D01*
X0013348Y0121150D01*
X0011897Y0121150D01*
X0011897Y0124052D01*
X0013348Y0124052D01*
X0013831Y0123569D01*
X0013831Y0123085D01*
X0013348Y0122601D01*
X0011897Y0122601D01*
X0010885Y0122601D02*
X0010401Y0122117D01*
X0008950Y0122117D01*
X0008950Y0121150D02*
X0008950Y0124052D01*
X0010401Y0124052D01*
X0010885Y0123569D01*
X0010885Y0122601D01*
X0013348Y0122601D02*
X0013831Y0122117D01*
X0054993Y0089852D02*
X0055960Y0089852D01*
X0055476Y0089852D02*
X0055476Y0086950D01*
X0054993Y0086950D02*
X0055960Y0086950D01*
X0056957Y0087434D02*
X0056957Y0089369D01*
X0057441Y0089852D01*
X0058408Y0089852D01*
X0058892Y0089369D01*
X0059903Y0088885D02*
X0060871Y0089852D01*
X0060871Y0086950D01*
X0061838Y0086950D02*
X0059903Y0086950D01*
X0058892Y0087434D02*
X0058408Y0086950D01*
X0057441Y0086950D01*
X0056957Y0087434D01*
X0077950Y0086052D02*
X0077950Y0083150D01*
X0077950Y0084117D02*
X0079401Y0084117D01*
X0079885Y0084601D01*
X0079885Y0085569D01*
X0079401Y0086052D01*
X0077950Y0086052D01*
X0080897Y0086052D02*
X0080897Y0083150D01*
X0082348Y0083150D01*
X0082831Y0083634D01*
X0082831Y0085569D01*
X0082348Y0086052D01*
X0080897Y0086052D01*
X0083843Y0086052D02*
X0083843Y0084601D01*
X0084811Y0085085D01*
X0085294Y0085085D01*
X0085778Y0084601D01*
X0085778Y0083634D01*
X0085294Y0083150D01*
X0084327Y0083150D01*
X0083843Y0083634D01*
X0083843Y0086052D02*
X0085778Y0086052D01*
X0085294Y0093150D02*
X0084327Y0093150D01*
X0083843Y0093634D01*
X0083843Y0094601D01*
X0085294Y0094601D01*
X0085778Y0094117D01*
X0085778Y0093634D01*
X0085294Y0093150D01*
X0083843Y0094601D02*
X0084811Y0095569D01*
X0085778Y0096052D01*
X0082831Y0095569D02*
X0082831Y0093634D01*
X0082348Y0093150D01*
X0080897Y0093150D01*
X0080897Y0096052D01*
X0082348Y0096052D01*
X0082831Y0095569D01*
X0079885Y0095569D02*
X0079885Y0094601D01*
X0079401Y0094117D01*
X0077950Y0094117D01*
X0077950Y0093150D02*
X0077950Y0096052D01*
X0079401Y0096052D01*
X0079885Y0095569D01*
X0080897Y0103150D02*
X0082348Y0103150D01*
X0082831Y0103634D01*
X0082831Y0105569D01*
X0082348Y0106052D01*
X0080897Y0106052D01*
X0080897Y0103150D01*
X0079885Y0104601D02*
X0079401Y0104117D01*
X0077950Y0104117D01*
X0077950Y0103150D02*
X0077950Y0106052D01*
X0079401Y0106052D01*
X0079885Y0105569D01*
X0079885Y0104601D01*
X0083843Y0103634D02*
X0083843Y0103150D01*
X0083843Y0103634D02*
X0085778Y0105569D01*
X0085778Y0106052D01*
X0083843Y0106052D01*
X0084327Y0113150D02*
X0083843Y0113634D01*
X0085778Y0115569D01*
X0085778Y0113634D01*
X0085294Y0113150D01*
X0084327Y0113150D01*
X0083843Y0113634D02*
X0083843Y0115569D01*
X0084327Y0116052D01*
X0085294Y0116052D01*
X0085778Y0115569D01*
X0082831Y0115569D02*
X0082831Y0115085D01*
X0082348Y0114601D01*
X0080897Y0114601D01*
X0079885Y0114601D02*
X0079885Y0115569D01*
X0079401Y0116052D01*
X0077950Y0116052D01*
X0077950Y0113150D01*
X0077950Y0114117D02*
X0079401Y0114117D01*
X0079885Y0114601D01*
X0080897Y0113150D02*
X0080897Y0116052D01*
X0082348Y0116052D01*
X0082831Y0115569D01*
X0082348Y0114601D02*
X0082831Y0114117D01*
X0082831Y0113634D01*
X0082348Y0113150D01*
X0080897Y0113150D01*
X0080897Y0076052D02*
X0082348Y0076052D01*
X0082831Y0075569D01*
X0082831Y0073634D01*
X0082348Y0073150D01*
X0080897Y0073150D01*
X0080897Y0076052D01*
X0079885Y0075569D02*
X0079885Y0074601D01*
X0079401Y0074117D01*
X0077950Y0074117D01*
X0077950Y0073150D02*
X0077950Y0076052D01*
X0079401Y0076052D01*
X0079885Y0075569D01*
X0083843Y0074601D02*
X0085778Y0074601D01*
X0085294Y0073150D02*
X0085294Y0076052D01*
X0083843Y0074601D01*
X0084327Y0066052D02*
X0083843Y0065569D01*
X0084327Y0066052D02*
X0085294Y0066052D01*
X0085778Y0065569D01*
X0085778Y0065085D01*
X0085294Y0064601D01*
X0085778Y0064117D01*
X0085778Y0063634D01*
X0085294Y0063150D01*
X0084327Y0063150D01*
X0083843Y0063634D01*
X0082831Y0063634D02*
X0082831Y0065569D01*
X0082348Y0066052D01*
X0080897Y0066052D01*
X0080897Y0063150D01*
X0082348Y0063150D01*
X0082831Y0063634D01*
X0084811Y0064601D02*
X0085294Y0064601D01*
X0085294Y0056052D02*
X0084327Y0056052D01*
X0083843Y0055569D01*
X0082831Y0055569D02*
X0082831Y0053634D01*
X0082348Y0053150D01*
X0080897Y0053150D01*
X0080897Y0056052D01*
X0082348Y0056052D01*
X0082831Y0055569D01*
X0083843Y0053150D02*
X0085778Y0055085D01*
X0085778Y0055569D01*
X0085294Y0056052D01*
X0085778Y0053150D02*
X0083843Y0053150D01*
X0079885Y0054601D02*
X0079401Y0054117D01*
X0077950Y0054117D01*
X0077950Y0053150D02*
X0077950Y0056052D01*
X0079401Y0056052D01*
X0079885Y0055569D01*
X0079885Y0054601D01*
X0079401Y0046052D02*
X0077950Y0046052D01*
X0077950Y0043150D01*
X0077950Y0044117D02*
X0079401Y0044117D01*
X0079885Y0044601D01*
X0079885Y0045569D01*
X0079401Y0046052D01*
X0080897Y0046052D02*
X0080897Y0043150D01*
X0082348Y0043150D01*
X0082831Y0043634D01*
X0082831Y0045569D01*
X0082348Y0046052D01*
X0080897Y0046052D01*
X0083843Y0045085D02*
X0084811Y0046052D01*
X0084811Y0043150D01*
X0085778Y0043150D02*
X0083843Y0043150D01*
X0084327Y0036052D02*
X0083843Y0035569D01*
X0083843Y0033634D01*
X0085778Y0035569D01*
X0085778Y0033634D01*
X0085294Y0033150D01*
X0084327Y0033150D01*
X0083843Y0033634D01*
X0082831Y0033634D02*
X0082831Y0035569D01*
X0082348Y0036052D01*
X0080897Y0036052D01*
X0080897Y0033150D01*
X0082348Y0033150D01*
X0082831Y0033634D01*
X0084327Y0036052D02*
X0085294Y0036052D01*
X0085778Y0035569D01*
X0079885Y0035569D02*
X0079885Y0034601D01*
X0079401Y0034117D01*
X0077950Y0034117D01*
X0077950Y0033150D02*
X0077950Y0036052D01*
X0079401Y0036052D01*
X0079885Y0035569D01*
X0086950Y0018853D02*
X0086950Y0016384D01*
X0088184Y0015150D01*
X0089419Y0016384D01*
X0089419Y0018853D01*
X0090633Y0018236D02*
X0090633Y0015767D01*
X0091250Y0015150D01*
X0092485Y0015150D01*
X0093102Y0015767D01*
X0094316Y0015767D02*
X0094316Y0018236D01*
X0094933Y0018853D01*
X0096168Y0018853D01*
X0096785Y0018236D01*
X0096785Y0015767D02*
X0096168Y0015150D01*
X0094933Y0015150D01*
X0094316Y0015767D01*
X0093102Y0018236D02*
X0092485Y0018853D01*
X0091250Y0018853D01*
X0090633Y0018236D01*
X0077950Y0063150D02*
X0077950Y0066052D01*
X0079401Y0066052D01*
X0079885Y0065569D01*
X0079885Y0064601D01*
X0079401Y0064117D01*
X0077950Y0064117D01*
D11*
X0053214Y0047523D02*
X0050145Y0047523D01*
X0051679Y0047523D02*
X0051679Y0052127D01*
X0050145Y0050592D01*
X0048610Y0052127D02*
X0048610Y0047523D01*
X0045541Y0052127D01*
X0045541Y0047523D01*
X0044006Y0048290D02*
X0043239Y0047523D01*
X0041704Y0047523D01*
X0040937Y0048290D01*
X0040937Y0051359D01*
X0041704Y0052127D01*
X0043239Y0052127D01*
X0044006Y0051359D01*
X0047712Y0009700D02*
X0047713Y0009700D01*
X0034584Y0130200D02*
X0033383Y0130200D01*
X0032782Y0130801D01*
X0032782Y0132002D01*
X0034584Y0132002D01*
X0035184Y0131401D01*
X0035184Y0130801D01*
X0034584Y0130200D01*
X0032782Y0132002D02*
X0033983Y0133203D01*
X0035184Y0133803D01*
X0034610Y0135200D02*
X0035811Y0135200D01*
X0036412Y0135801D01*
X0037693Y0135801D02*
X0038293Y0136401D01*
X0040095Y0136401D01*
X0040095Y0137002D02*
X0040095Y0135200D01*
X0038293Y0135200D01*
X0037693Y0135801D01*
X0038293Y0137602D02*
X0039494Y0137602D01*
X0040095Y0137002D01*
X0041376Y0137602D02*
X0041376Y0135200D01*
X0041376Y0136401D02*
X0042577Y0137602D01*
X0043178Y0137602D01*
X0044445Y0138803D02*
X0045046Y0138803D01*
X0045046Y0135200D01*
X0045646Y0135200D02*
X0044445Y0135200D01*
X0046901Y0135200D02*
X0048702Y0135200D01*
X0049303Y0135801D01*
X0048702Y0136401D01*
X0047501Y0136401D01*
X0046901Y0137002D01*
X0047501Y0137602D01*
X0049303Y0137602D01*
X0050584Y0137002D02*
X0050584Y0135801D01*
X0051184Y0135200D01*
X0052385Y0135200D01*
X0052986Y0135801D01*
X0052986Y0137002D01*
X0052385Y0137602D01*
X0051184Y0137602D01*
X0050584Y0137002D01*
X0054267Y0137602D02*
X0054267Y0135200D01*
X0054267Y0137602D02*
X0056069Y0137602D01*
X0056669Y0137002D01*
X0056669Y0135200D01*
X0036412Y0138203D02*
X0035811Y0138803D01*
X0034610Y0138803D01*
X0034010Y0138203D01*
X0034010Y0135801D01*
X0034610Y0135200D01*
X0031501Y0130200D02*
X0029099Y0130200D01*
X0030300Y0130200D02*
X0030300Y0133803D01*
X0029099Y0132602D01*
X0027818Y0133203D02*
X0027818Y0130801D01*
X0027217Y0130200D01*
X0026016Y0130200D01*
X0025416Y0130801D01*
X0027818Y0133203D01*
X0027217Y0133803D01*
X0026016Y0133803D01*
X0025416Y0133203D01*
X0025416Y0130801D01*
X0024135Y0130200D02*
X0021733Y0130200D01*
X0024135Y0132602D01*
X0024135Y0133203D01*
X0023534Y0133803D01*
X0022333Y0133803D01*
X0021733Y0133203D01*
X0021679Y0135200D02*
X0021679Y0137002D01*
X0021079Y0137602D01*
X0019878Y0137602D01*
X0019277Y0137002D01*
X0019277Y0138803D02*
X0019277Y0135200D01*
X0018023Y0135200D02*
X0017422Y0135801D01*
X0017422Y0138203D01*
X0016822Y0137602D02*
X0018023Y0137602D01*
X0015567Y0137602D02*
X0014366Y0137602D01*
X0014967Y0138203D02*
X0014967Y0135801D01*
X0015567Y0135200D01*
X0014366Y0132602D02*
X0015567Y0130200D01*
X0016768Y0132602D01*
X0013085Y0132002D02*
X0012485Y0132602D01*
X0011284Y0132602D01*
X0010683Y0132002D01*
X0010683Y0130801D01*
X0011284Y0130200D01*
X0012485Y0130200D01*
X0013085Y0130801D01*
X0013085Y0132002D01*
X0013085Y0135200D02*
X0011284Y0135200D01*
X0010683Y0135801D01*
X0011284Y0136401D01*
X0013085Y0136401D01*
X0013085Y0137002D02*
X0013085Y0135200D01*
X0013085Y0137002D02*
X0012485Y0137602D01*
X0011284Y0137602D01*
X0009402Y0138803D02*
X0009402Y0135200D01*
X0009402Y0133803D02*
X0009402Y0130200D01*
X0007000Y0133803D01*
X0007000Y0130200D01*
X0007000Y0135200D02*
X0007000Y0138803D01*
X0008201Y0137602D01*
X0009402Y0138803D01*
X0022960Y0137002D02*
X0022960Y0135801D01*
X0023561Y0135200D01*
X0024762Y0135200D01*
X0025362Y0136401D02*
X0022960Y0136401D01*
X0022960Y0137002D02*
X0023561Y0137602D01*
X0024762Y0137602D01*
X0025362Y0137002D01*
X0025362Y0136401D01*
X0026643Y0135801D02*
X0027244Y0135200D01*
X0027844Y0135801D01*
X0028445Y0135200D01*
X0029045Y0135801D01*
X0029045Y0137602D01*
X0026643Y0137602D02*
X0026643Y0135801D01*
D12*
X0026466Y0143800D02*
X0026466Y0147203D01*
X0025052Y0146636D02*
X0025052Y0144367D01*
X0024485Y0143800D01*
X0023350Y0143800D01*
X0022783Y0144367D01*
X0025052Y0146636D01*
X0024485Y0147203D01*
X0023350Y0147203D01*
X0022783Y0146636D01*
X0022783Y0144367D01*
X0021369Y0143800D02*
X0019100Y0143800D01*
X0019100Y0146069D02*
X0020234Y0147203D01*
X0020234Y0143800D01*
X0026466Y0144934D02*
X0028168Y0146069D01*
X0026466Y0144934D02*
X0028168Y0143800D01*
X0038001Y0123799D02*
X0065599Y0123799D01*
X0065599Y0097598D01*
X0064202Y0096201D01*
X0038001Y0096201D01*
X0038001Y0123799D01*
X0061186Y0099200D02*
X0061188Y0099275D01*
X0061194Y0099349D01*
X0061204Y0099423D01*
X0061217Y0099496D01*
X0061235Y0099569D01*
X0061256Y0099640D01*
X0061281Y0099711D01*
X0061310Y0099780D01*
X0061343Y0099847D01*
X0061379Y0099912D01*
X0061418Y0099976D01*
X0061460Y0100037D01*
X0061506Y0100096D01*
X0061555Y0100153D01*
X0061607Y0100206D01*
X0061661Y0100257D01*
X0061718Y0100306D01*
X0061778Y0100350D01*
X0061840Y0100392D01*
X0061904Y0100431D01*
X0061970Y0100466D01*
X0062037Y0100497D01*
X0062107Y0100525D01*
X0062177Y0100549D01*
X0062249Y0100570D01*
X0062322Y0100586D01*
X0062395Y0100599D01*
X0062470Y0100608D01*
X0062544Y0100613D01*
X0062619Y0100614D01*
X0062693Y0100611D01*
X0062768Y0100604D01*
X0062841Y0100593D01*
X0062915Y0100579D01*
X0062987Y0100560D01*
X0063058Y0100538D01*
X0063128Y0100512D01*
X0063197Y0100482D01*
X0063263Y0100449D01*
X0063328Y0100412D01*
X0063391Y0100372D01*
X0063452Y0100328D01*
X0063510Y0100282D01*
X0063566Y0100232D01*
X0063619Y0100180D01*
X0063670Y0100125D01*
X0063717Y0100067D01*
X0063761Y0100007D01*
X0063802Y0099944D01*
X0063840Y0099880D01*
X0063874Y0099814D01*
X0063905Y0099745D01*
X0063932Y0099676D01*
X0063955Y0099605D01*
X0063974Y0099533D01*
X0063990Y0099460D01*
X0064002Y0099386D01*
X0064010Y0099312D01*
X0064014Y0099237D01*
X0064014Y0099163D01*
X0064010Y0099088D01*
X0064002Y0099014D01*
X0063990Y0098940D01*
X0063974Y0098867D01*
X0063955Y0098795D01*
X0063932Y0098724D01*
X0063905Y0098655D01*
X0063874Y0098586D01*
X0063840Y0098520D01*
X0063802Y0098456D01*
X0063761Y0098393D01*
X0063717Y0098333D01*
X0063670Y0098275D01*
X0063619Y0098220D01*
X0063566Y0098168D01*
X0063510Y0098118D01*
X0063452Y0098072D01*
X0063391Y0098028D01*
X0063328Y0097988D01*
X0063263Y0097951D01*
X0063197Y0097918D01*
X0063128Y0097888D01*
X0063058Y0097862D01*
X0062987Y0097840D01*
X0062915Y0097821D01*
X0062841Y0097807D01*
X0062768Y0097796D01*
X0062693Y0097789D01*
X0062619Y0097786D01*
X0062544Y0097787D01*
X0062470Y0097792D01*
X0062395Y0097801D01*
X0062322Y0097814D01*
X0062249Y0097830D01*
X0062177Y0097851D01*
X0062107Y0097875D01*
X0062037Y0097903D01*
X0061970Y0097934D01*
X0061904Y0097969D01*
X0061840Y0098008D01*
X0061778Y0098050D01*
X0061718Y0098094D01*
X0061661Y0098143D01*
X0061607Y0098194D01*
X0061555Y0098247D01*
X0061506Y0098304D01*
X0061460Y0098363D01*
X0061418Y0098424D01*
X0061379Y0098488D01*
X0061343Y0098553D01*
X0061310Y0098620D01*
X0061281Y0098689D01*
X0061256Y0098760D01*
X0061235Y0098831D01*
X0061217Y0098904D01*
X0061204Y0098977D01*
X0061194Y0099051D01*
X0061188Y0099125D01*
X0061186Y0099200D01*
X0065300Y0188000D02*
X0088300Y0188000D01*
X0088470Y0188002D01*
X0088641Y0188008D01*
X0088811Y0188019D01*
X0088981Y0188033D01*
X0089150Y0188052D01*
X0089319Y0188075D01*
X0089488Y0188101D01*
X0089655Y0188132D01*
X0089822Y0188167D01*
X0089988Y0188207D01*
X0090153Y0188250D01*
X0090317Y0188297D01*
X0090479Y0188348D01*
X0090641Y0188403D01*
X0090801Y0188462D01*
X0090959Y0188525D01*
X0091116Y0188591D01*
X0091271Y0188662D01*
X0091425Y0188736D01*
X0091576Y0188814D01*
X0091726Y0188896D01*
X0091874Y0188981D01*
X0092019Y0189070D01*
X0092162Y0189162D01*
X0092303Y0189258D01*
X0092442Y0189357D01*
X0092578Y0189460D01*
X0092712Y0189565D01*
X0092843Y0189674D01*
X0092971Y0189787D01*
X0093097Y0189902D01*
X0093220Y0190020D01*
X0093339Y0190141D01*
X0093456Y0190266D01*
X0093570Y0190393D01*
X0093681Y0190522D01*
X0093788Y0190655D01*
X0093892Y0190790D01*
X0093993Y0190927D01*
X0094091Y0191067D01*
X0094185Y0191209D01*
X0094275Y0191353D01*
X0094362Y0191500D01*
X0094446Y0191649D01*
X0094525Y0191799D01*
X0094601Y0191952D01*
X0094674Y0192106D01*
X0094742Y0192262D01*
X0094807Y0192420D01*
X0094868Y0192579D01*
X0094925Y0192740D01*
X0094978Y0192902D01*
X0095027Y0193065D01*
X0095072Y0193229D01*
X0095113Y0193395D01*
X0095151Y0193561D01*
X0095184Y0193729D01*
X0095212Y0193897D01*
X0095237Y0194065D01*
X0095258Y0194234D01*
X0095275Y0194404D01*
X0095287Y0194574D01*
X0095295Y0194744D01*
X0095299Y0194915D01*
X0095299Y0195085D01*
X0095295Y0195256D01*
X0095287Y0195426D01*
X0095275Y0195596D01*
X0095258Y0195766D01*
X0095237Y0195935D01*
X0095212Y0196103D01*
X0095184Y0196271D01*
X0095151Y0196439D01*
X0095113Y0196605D01*
X0095072Y0196771D01*
X0095027Y0196935D01*
X0094978Y0197098D01*
X0094925Y0197260D01*
X0094868Y0197421D01*
X0094807Y0197580D01*
X0094742Y0197738D01*
X0094674Y0197894D01*
X0094601Y0198048D01*
X0094525Y0198201D01*
X0094446Y0198351D01*
X0094362Y0198500D01*
X0094275Y0198647D01*
X0094185Y0198791D01*
X0094091Y0198933D01*
X0093993Y0199073D01*
X0093892Y0199210D01*
X0093788Y0199345D01*
X0093681Y0199478D01*
X0093570Y0199607D01*
X0093456Y0199734D01*
X0093339Y0199859D01*
X0093220Y0199980D01*
X0093097Y0200098D01*
X0092971Y0200213D01*
X0092843Y0200326D01*
X0092712Y0200435D01*
X0092578Y0200540D01*
X0092442Y0200643D01*
X0092303Y0200742D01*
X0092162Y0200838D01*
X0092019Y0200930D01*
X0091874Y0201019D01*
X0091726Y0201104D01*
X0091576Y0201186D01*
X0091425Y0201264D01*
X0091271Y0201338D01*
X0091116Y0201409D01*
X0090959Y0201475D01*
X0090801Y0201538D01*
X0090641Y0201597D01*
X0090479Y0201652D01*
X0090317Y0201703D01*
X0090153Y0201750D01*
X0089988Y0201793D01*
X0089822Y0201833D01*
X0089655Y0201868D01*
X0089488Y0201899D01*
X0089319Y0201925D01*
X0089150Y0201948D01*
X0088981Y0201967D01*
X0088811Y0201981D01*
X0088641Y0201992D01*
X0088470Y0201998D01*
X0088300Y0202000D01*
X0065300Y0202000D01*
X0065130Y0201998D01*
X0064959Y0201992D01*
X0064789Y0201981D01*
X0064619Y0201967D01*
X0064450Y0201948D01*
X0064281Y0201925D01*
X0064112Y0201899D01*
X0063945Y0201868D01*
X0063778Y0201833D01*
X0063612Y0201793D01*
X0063447Y0201750D01*
X0063283Y0201703D01*
X0063121Y0201652D01*
X0062959Y0201597D01*
X0062799Y0201538D01*
X0062641Y0201475D01*
X0062484Y0201409D01*
X0062329Y0201338D01*
X0062175Y0201264D01*
X0062024Y0201186D01*
X0061874Y0201104D01*
X0061726Y0201019D01*
X0061581Y0200930D01*
X0061438Y0200838D01*
X0061297Y0200742D01*
X0061158Y0200643D01*
X0061022Y0200540D01*
X0060888Y0200435D01*
X0060757Y0200326D01*
X0060629Y0200213D01*
X0060503Y0200098D01*
X0060380Y0199980D01*
X0060261Y0199859D01*
X0060144Y0199734D01*
X0060030Y0199607D01*
X0059919Y0199478D01*
X0059812Y0199345D01*
X0059708Y0199210D01*
X0059607Y0199073D01*
X0059509Y0198933D01*
X0059415Y0198791D01*
X0059325Y0198647D01*
X0059238Y0198500D01*
X0059154Y0198351D01*
X0059075Y0198201D01*
X0058999Y0198048D01*
X0058926Y0197894D01*
X0058858Y0197738D01*
X0058793Y0197580D01*
X0058732Y0197421D01*
X0058675Y0197260D01*
X0058622Y0197098D01*
X0058573Y0196935D01*
X0058528Y0196771D01*
X0058487Y0196605D01*
X0058449Y0196439D01*
X0058416Y0196271D01*
X0058388Y0196103D01*
X0058363Y0195935D01*
X0058342Y0195766D01*
X0058325Y0195596D01*
X0058313Y0195426D01*
X0058305Y0195256D01*
X0058301Y0195085D01*
X0058301Y0194915D01*
X0058305Y0194744D01*
X0058313Y0194574D01*
X0058325Y0194404D01*
X0058342Y0194234D01*
X0058363Y0194065D01*
X0058388Y0193897D01*
X0058416Y0193729D01*
X0058449Y0193561D01*
X0058487Y0193395D01*
X0058528Y0193229D01*
X0058573Y0193065D01*
X0058622Y0192902D01*
X0058675Y0192740D01*
X0058732Y0192579D01*
X0058793Y0192420D01*
X0058858Y0192262D01*
X0058926Y0192106D01*
X0058999Y0191952D01*
X0059075Y0191799D01*
X0059154Y0191649D01*
X0059238Y0191500D01*
X0059325Y0191353D01*
X0059415Y0191209D01*
X0059509Y0191067D01*
X0059607Y0190927D01*
X0059708Y0190790D01*
X0059812Y0190655D01*
X0059919Y0190522D01*
X0060030Y0190393D01*
X0060144Y0190266D01*
X0060261Y0190141D01*
X0060380Y0190020D01*
X0060503Y0189902D01*
X0060629Y0189787D01*
X0060757Y0189674D01*
X0060888Y0189565D01*
X0061022Y0189460D01*
X0061158Y0189357D01*
X0061297Y0189258D01*
X0061438Y0189162D01*
X0061581Y0189070D01*
X0061726Y0188981D01*
X0061874Y0188896D01*
X0062024Y0188814D01*
X0062175Y0188736D01*
X0062329Y0188662D01*
X0062484Y0188591D01*
X0062641Y0188525D01*
X0062799Y0188462D01*
X0062959Y0188403D01*
X0063121Y0188348D01*
X0063283Y0188297D01*
X0063447Y0188250D01*
X0063612Y0188207D01*
X0063778Y0188167D01*
X0063945Y0188132D01*
X0064112Y0188101D01*
X0064281Y0188075D01*
X0064450Y0188052D01*
X0064619Y0188033D01*
X0064789Y0188019D01*
X0064959Y0188008D01*
X0065130Y0188002D01*
X0065300Y0188000D01*
X0071800Y0195000D02*
X0074300Y0195000D01*
X0074300Y0198500D01*
X0075800Y0198500D02*
X0077800Y0198500D01*
X0077800Y0191500D01*
X0075800Y0191500D01*
X0075800Y0198500D01*
X0074300Y0195000D02*
X0074300Y0191500D01*
X0079300Y0191500D02*
X0079300Y0195000D01*
X0081800Y0195000D01*
X0079300Y0195000D02*
X0079300Y0198500D01*
D13*
X0087842Y0183254D02*
X0087842Y0182503D01*
X0089343Y0181002D01*
X0089343Y0178750D01*
X0089343Y0181002D02*
X0090845Y0182503D01*
X0090845Y0183254D01*
X0092446Y0181753D02*
X0093947Y0183254D01*
X0093947Y0178750D01*
X0092446Y0178750D02*
X0095449Y0178750D01*
X0069000Y0180800D02*
X0069000Y0160800D01*
X0047000Y0160800D01*
X0047000Y0165800D01*
X0052000Y0165800D01*
X0052000Y0175800D01*
X0047000Y0175800D01*
X0047000Y0180800D01*
X0069000Y0180800D01*
X0047000Y0175800D02*
X0047000Y0165800D01*
X0023750Y0118949D02*
X0023750Y0115946D01*
X0020747Y0118949D01*
X0019997Y0118949D01*
X0019246Y0118198D01*
X0019246Y0116697D01*
X0019997Y0115946D01*
X0019246Y0114345D02*
X0019246Y0112843D01*
X0019246Y0113594D02*
X0022999Y0113594D01*
X0023750Y0112843D01*
X0023750Y0112093D01*
X0022999Y0111342D01*
X0055157Y0080802D02*
X0055607Y0081252D01*
X0056508Y0081252D01*
X0056959Y0080802D01*
X0056959Y0080352D01*
X0055157Y0078550D01*
X0056959Y0078550D01*
X0058103Y0078550D02*
X0059905Y0080352D01*
X0059905Y0080802D01*
X0059455Y0081252D01*
X0058554Y0081252D01*
X0058103Y0080802D01*
X0058103Y0078550D02*
X0059905Y0078550D01*
X0060008Y0072252D02*
X0058657Y0072252D01*
X0058657Y0069550D01*
X0058657Y0070451D02*
X0060008Y0070451D01*
X0060459Y0070901D01*
X0060459Y0071802D01*
X0060008Y0072252D01*
X0061603Y0071802D02*
X0062054Y0072252D01*
X0062955Y0072252D01*
X0063405Y0071802D01*
X0063405Y0071352D01*
X0062955Y0070901D01*
X0063405Y0070451D01*
X0063405Y0070000D01*
X0062955Y0069550D01*
X0062054Y0069550D01*
X0061603Y0070000D01*
X0060459Y0069550D02*
X0059558Y0070451D01*
X0062504Y0070901D02*
X0062955Y0070901D01*
X0059455Y0066252D02*
X0059905Y0065802D01*
X0059905Y0065352D01*
X0058103Y0063550D01*
X0059905Y0063550D01*
X0059455Y0066252D02*
X0058554Y0066252D01*
X0058103Y0065802D01*
X0056959Y0065802D02*
X0056508Y0066252D01*
X0055607Y0066252D01*
X0055157Y0065802D01*
X0056959Y0065352D02*
X0055157Y0063550D01*
X0056959Y0063550D01*
X0056959Y0065352D02*
X0056959Y0065802D01*
X0058657Y0057252D02*
X0060008Y0057252D01*
X0060459Y0056802D01*
X0060459Y0055901D01*
X0060008Y0055451D01*
X0058657Y0055451D01*
X0059558Y0055451D02*
X0060459Y0054550D01*
X0061603Y0054550D02*
X0063405Y0056352D01*
X0063405Y0056802D01*
X0062955Y0057252D01*
X0062054Y0057252D01*
X0061603Y0056802D01*
X0061603Y0054550D02*
X0063405Y0054550D01*
X0058657Y0054550D02*
X0058657Y0057252D01*
X0060068Y0041614D02*
X0064398Y0041614D01*
X0067154Y0031772D02*
X0067154Y0023504D01*
X0067154Y0005394D02*
X0036446Y0005394D01*
X0036446Y0021142D02*
X0036446Y0031772D01*
X0039202Y0041614D02*
X0043532Y0041614D01*
X0079846Y0026806D02*
X0079846Y0025305D01*
X0080597Y0024554D01*
X0079846Y0022953D02*
X0079846Y0021451D01*
X0079846Y0022202D02*
X0083599Y0022202D01*
X0084350Y0021451D01*
X0084350Y0020701D01*
X0083599Y0019950D01*
X0083599Y0024554D02*
X0084350Y0025305D01*
X0084350Y0026806D01*
X0083599Y0027556D01*
X0082849Y0027556D01*
X0082098Y0026806D01*
X0082098Y0026055D01*
X0082098Y0026806D02*
X0081347Y0027556D01*
X0080597Y0027556D01*
X0079846Y0026806D01*
X0014656Y0182750D02*
X0011654Y0182750D01*
X0011654Y0185753D02*
X0013155Y0187254D01*
X0013155Y0182750D01*
X0010053Y0187254D02*
X0008551Y0187254D01*
X0009302Y0187254D02*
X0009302Y0183501D01*
X0008551Y0182750D01*
X0007801Y0182750D01*
X0007050Y0183501D01*
D14*
X0016800Y0148000D02*
X0016800Y0145000D01*
X0015800Y0145000D01*
X0016800Y0145000D02*
X0016800Y0142000D01*
X0036800Y0142000D01*
X0036800Y0145000D01*
X0037800Y0145000D01*
X0036800Y0145000D02*
X0036800Y0148000D01*
X0016800Y0148000D01*
X0014300Y0120000D02*
X0009300Y0120000D01*
X0006800Y0117500D01*
X0006800Y0112500D01*
X0009300Y0110000D01*
X0006800Y0107500D01*
X0006800Y0102500D01*
X0009300Y0100000D01*
X0006800Y0097500D01*
X0006800Y0092500D01*
X0009300Y0090000D01*
X0006800Y0087500D01*
X0006800Y0082500D01*
X0009300Y0080000D01*
X0006800Y0077500D01*
X0006800Y0072500D01*
X0009300Y0070000D01*
X0006800Y0067500D01*
X0006800Y0062500D01*
X0009300Y0060000D01*
X0006800Y0057500D01*
X0006800Y0052500D01*
X0009300Y0050000D01*
X0006800Y0047500D01*
X0006800Y0042500D01*
X0009300Y0040000D01*
X0006800Y0037500D01*
X0006800Y0032500D01*
X0009300Y0030000D01*
X0006800Y0027500D01*
X0006800Y0022500D01*
X0009300Y0020000D01*
X0014300Y0020000D01*
X0016800Y0022500D01*
X0016800Y0027500D01*
X0014300Y0030000D01*
X0016800Y0032500D01*
X0016800Y0037500D01*
X0014300Y0040000D01*
X0016800Y0042500D01*
X0016800Y0047500D01*
X0014300Y0050000D01*
X0016800Y0052500D01*
X0016800Y0057500D01*
X0014300Y0060000D01*
X0016800Y0062500D01*
X0016800Y0067500D01*
X0014300Y0070000D01*
X0016800Y0072500D01*
X0016800Y0077500D01*
X0014300Y0080000D01*
X0016800Y0082500D01*
X0016800Y0087500D01*
X0014300Y0090000D01*
X0016800Y0092500D01*
X0016800Y0097500D01*
X0014300Y0100000D01*
X0016800Y0102500D01*
X0016800Y0107500D01*
X0014300Y0110000D01*
X0016800Y0112500D01*
X0016800Y0117500D01*
X0014300Y0120000D01*
X0039398Y0084724D02*
X0039398Y0075276D01*
X0064202Y0075276D01*
X0064202Y0084724D01*
X0039398Y0084724D01*
X0039398Y0069724D02*
X0064202Y0069724D01*
X0064202Y0060276D01*
X0039398Y0060276D01*
X0039398Y0069724D01*
X0062600Y0146000D02*
X0067600Y0146000D01*
X0076400Y0146600D02*
X0081400Y0146600D01*
X0083300Y0159000D02*
X0083300Y0163000D01*
X0078957Y0166000D02*
X0078960Y0166242D01*
X0078969Y0166483D01*
X0078984Y0166724D01*
X0079004Y0166965D01*
X0079031Y0167205D01*
X0079064Y0167444D01*
X0079102Y0167683D01*
X0079146Y0167920D01*
X0079196Y0168157D01*
X0079252Y0168392D01*
X0079314Y0168625D01*
X0079381Y0168857D01*
X0079454Y0169088D01*
X0079532Y0169316D01*
X0079617Y0169542D01*
X0079706Y0169767D01*
X0079801Y0169989D01*
X0079902Y0170208D01*
X0080008Y0170426D01*
X0080119Y0170640D01*
X0080236Y0170852D01*
X0080357Y0171060D01*
X0080484Y0171266D01*
X0080616Y0171468D01*
X0080753Y0171668D01*
X0080894Y0171863D01*
X0081040Y0172056D01*
X0081191Y0172244D01*
X0081347Y0172429D01*
X0081507Y0172610D01*
X0081671Y0172787D01*
X0081840Y0172960D01*
X0082013Y0173129D01*
X0082190Y0173293D01*
X0082371Y0173453D01*
X0082556Y0173609D01*
X0082744Y0173760D01*
X0082937Y0173906D01*
X0083132Y0174047D01*
X0083332Y0174184D01*
X0083534Y0174316D01*
X0083740Y0174443D01*
X0083948Y0174564D01*
X0084160Y0174681D01*
X0084374Y0174792D01*
X0084592Y0174898D01*
X0084811Y0174999D01*
X0085033Y0175094D01*
X0085258Y0175183D01*
X0085484Y0175268D01*
X0085712Y0175346D01*
X0085943Y0175419D01*
X0086175Y0175486D01*
X0086408Y0175548D01*
X0086643Y0175604D01*
X0086880Y0175654D01*
X0087117Y0175698D01*
X0087356Y0175736D01*
X0087595Y0175769D01*
X0087835Y0175796D01*
X0088076Y0175816D01*
X0088317Y0175831D01*
X0088558Y0175840D01*
X0088800Y0175843D01*
X0089042Y0175840D01*
X0089283Y0175831D01*
X0089524Y0175816D01*
X0089765Y0175796D01*
X0090005Y0175769D01*
X0090244Y0175736D01*
X0090483Y0175698D01*
X0090720Y0175654D01*
X0090957Y0175604D01*
X0091192Y0175548D01*
X0091425Y0175486D01*
X0091657Y0175419D01*
X0091888Y0175346D01*
X0092116Y0175268D01*
X0092342Y0175183D01*
X0092567Y0175094D01*
X0092789Y0174999D01*
X0093008Y0174898D01*
X0093226Y0174792D01*
X0093440Y0174681D01*
X0093652Y0174564D01*
X0093860Y0174443D01*
X0094066Y0174316D01*
X0094268Y0174184D01*
X0094468Y0174047D01*
X0094663Y0173906D01*
X0094856Y0173760D01*
X0095044Y0173609D01*
X0095229Y0173453D01*
X0095410Y0173293D01*
X0095587Y0173129D01*
X0095760Y0172960D01*
X0095929Y0172787D01*
X0096093Y0172610D01*
X0096253Y0172429D01*
X0096409Y0172244D01*
X0096560Y0172056D01*
X0096706Y0171863D01*
X0096847Y0171668D01*
X0096984Y0171468D01*
X0097116Y0171266D01*
X0097243Y0171060D01*
X0097364Y0170852D01*
X0097481Y0170640D01*
X0097592Y0170426D01*
X0097698Y0170208D01*
X0097799Y0169989D01*
X0097894Y0169767D01*
X0097983Y0169542D01*
X0098068Y0169316D01*
X0098146Y0169088D01*
X0098219Y0168857D01*
X0098286Y0168625D01*
X0098348Y0168392D01*
X0098404Y0168157D01*
X0098454Y0167920D01*
X0098498Y0167683D01*
X0098536Y0167444D01*
X0098569Y0167205D01*
X0098596Y0166965D01*
X0098616Y0166724D01*
X0098631Y0166483D01*
X0098640Y0166242D01*
X0098643Y0166000D01*
X0098640Y0165758D01*
X0098631Y0165517D01*
X0098616Y0165276D01*
X0098596Y0165035D01*
X0098569Y0164795D01*
X0098536Y0164556D01*
X0098498Y0164317D01*
X0098454Y0164080D01*
X0098404Y0163843D01*
X0098348Y0163608D01*
X0098286Y0163375D01*
X0098219Y0163143D01*
X0098146Y0162912D01*
X0098068Y0162684D01*
X0097983Y0162458D01*
X0097894Y0162233D01*
X0097799Y0162011D01*
X0097698Y0161792D01*
X0097592Y0161574D01*
X0097481Y0161360D01*
X0097364Y0161148D01*
X0097243Y0160940D01*
X0097116Y0160734D01*
X0096984Y0160532D01*
X0096847Y0160332D01*
X0096706Y0160137D01*
X0096560Y0159944D01*
X0096409Y0159756D01*
X0096253Y0159571D01*
X0096093Y0159390D01*
X0095929Y0159213D01*
X0095760Y0159040D01*
X0095587Y0158871D01*
X0095410Y0158707D01*
X0095229Y0158547D01*
X0095044Y0158391D01*
X0094856Y0158240D01*
X0094663Y0158094D01*
X0094468Y0157953D01*
X0094268Y0157816D01*
X0094066Y0157684D01*
X0093860Y0157557D01*
X0093652Y0157436D01*
X0093440Y0157319D01*
X0093226Y0157208D01*
X0093008Y0157102D01*
X0092789Y0157001D01*
X0092567Y0156906D01*
X0092342Y0156817D01*
X0092116Y0156732D01*
X0091888Y0156654D01*
X0091657Y0156581D01*
X0091425Y0156514D01*
X0091192Y0156452D01*
X0090957Y0156396D01*
X0090720Y0156346D01*
X0090483Y0156302D01*
X0090244Y0156264D01*
X0090005Y0156231D01*
X0089765Y0156204D01*
X0089524Y0156184D01*
X0089283Y0156169D01*
X0089042Y0156160D01*
X0088800Y0156157D01*
X0088558Y0156160D01*
X0088317Y0156169D01*
X0088076Y0156184D01*
X0087835Y0156204D01*
X0087595Y0156231D01*
X0087356Y0156264D01*
X0087117Y0156302D01*
X0086880Y0156346D01*
X0086643Y0156396D01*
X0086408Y0156452D01*
X0086175Y0156514D01*
X0085943Y0156581D01*
X0085712Y0156654D01*
X0085484Y0156732D01*
X0085258Y0156817D01*
X0085033Y0156906D01*
X0084811Y0157001D01*
X0084592Y0157102D01*
X0084374Y0157208D01*
X0084160Y0157319D01*
X0083948Y0157436D01*
X0083740Y0157557D01*
X0083534Y0157684D01*
X0083332Y0157816D01*
X0083132Y0157953D01*
X0082937Y0158094D01*
X0082744Y0158240D01*
X0082556Y0158391D01*
X0082371Y0158547D01*
X0082190Y0158707D01*
X0082013Y0158871D01*
X0081840Y0159040D01*
X0081671Y0159213D01*
X0081507Y0159390D01*
X0081347Y0159571D01*
X0081191Y0159756D01*
X0081040Y0159944D01*
X0080894Y0160137D01*
X0080753Y0160332D01*
X0080616Y0160532D01*
X0080484Y0160734D01*
X0080357Y0160940D01*
X0080236Y0161148D01*
X0080119Y0161360D01*
X0080008Y0161574D01*
X0079902Y0161792D01*
X0079801Y0162011D01*
X0079706Y0162233D01*
X0079617Y0162458D01*
X0079532Y0162684D01*
X0079454Y0162912D01*
X0079381Y0163143D01*
X0079314Y0163375D01*
X0079252Y0163608D01*
X0079196Y0163843D01*
X0079146Y0164080D01*
X0079102Y0164317D01*
X0079064Y0164556D01*
X0079031Y0164795D01*
X0079004Y0165035D01*
X0078984Y0165276D01*
X0078969Y0165517D01*
X0078960Y0165758D01*
X0078957Y0166000D01*
X0090900Y0146600D02*
X0095900Y0146600D01*
X0094300Y0120000D02*
X0089300Y0120000D01*
X0086800Y0117500D01*
X0086800Y0112500D01*
X0089300Y0110000D01*
X0086800Y0107500D01*
X0086800Y0102500D01*
X0089300Y0100000D01*
X0086800Y0097500D01*
X0086800Y0092500D01*
X0089300Y0090000D01*
X0086800Y0087500D01*
X0086800Y0082500D01*
X0089300Y0080000D01*
X0086800Y0077500D01*
X0086800Y0072500D01*
X0089300Y0070000D01*
X0086800Y0067500D01*
X0086800Y0062500D01*
X0089300Y0060000D01*
X0086800Y0057500D01*
X0086800Y0052500D01*
X0089300Y0050000D01*
X0086800Y0047500D01*
X0086800Y0042500D01*
X0089300Y0040000D01*
X0086800Y0037500D01*
X0086800Y0032500D01*
X0089300Y0030000D01*
X0086800Y0027500D01*
X0086800Y0022500D01*
X0089300Y0020000D01*
X0094300Y0020000D01*
X0096800Y0022500D01*
X0096800Y0027500D01*
X0094300Y0030000D01*
X0096800Y0032500D01*
X0096800Y0037500D01*
X0094300Y0040000D01*
X0096800Y0042500D01*
X0096800Y0047500D01*
X0094300Y0050000D01*
X0096800Y0052500D01*
X0096800Y0057500D01*
X0094300Y0060000D01*
X0096800Y0062500D01*
X0096800Y0067500D01*
X0094300Y0070000D01*
X0096800Y0072500D01*
X0096800Y0077500D01*
X0094300Y0080000D01*
X0096800Y0082500D01*
X0096800Y0087500D01*
X0094300Y0090000D01*
X0096800Y0092500D01*
X0096800Y0097500D01*
X0094300Y0100000D01*
X0096800Y0102500D01*
X0096800Y0107500D01*
X0094300Y0110000D01*
X0096800Y0112500D01*
X0096800Y0117500D01*
X0094300Y0120000D01*
X0039406Y0192294D02*
X0027594Y0192294D01*
X0027594Y0204106D02*
X0039406Y0204106D01*
X0037100Y0195000D02*
X0037102Y0195040D01*
X0037108Y0195079D01*
X0037118Y0195118D01*
X0037131Y0195155D01*
X0037149Y0195191D01*
X0037170Y0195225D01*
X0037194Y0195257D01*
X0037221Y0195286D01*
X0037251Y0195313D01*
X0037283Y0195336D01*
X0037318Y0195356D01*
X0037354Y0195372D01*
X0037392Y0195385D01*
X0037431Y0195394D01*
X0037470Y0195399D01*
X0037510Y0195400D01*
X0037550Y0195397D01*
X0037589Y0195390D01*
X0037627Y0195379D01*
X0037665Y0195365D01*
X0037700Y0195346D01*
X0037733Y0195325D01*
X0037765Y0195300D01*
X0037793Y0195272D01*
X0037819Y0195242D01*
X0037841Y0195209D01*
X0037860Y0195174D01*
X0037876Y0195137D01*
X0037888Y0195099D01*
X0037896Y0195060D01*
X0037900Y0195020D01*
X0037900Y0194980D01*
X0037896Y0194940D01*
X0037888Y0194901D01*
X0037876Y0194863D01*
X0037860Y0194826D01*
X0037841Y0194791D01*
X0037819Y0194758D01*
X0037793Y0194728D01*
X0037765Y0194700D01*
X0037733Y0194675D01*
X0037700Y0194654D01*
X0037665Y0194635D01*
X0037627Y0194621D01*
X0037589Y0194610D01*
X0037550Y0194603D01*
X0037510Y0194600D01*
X0037470Y0194601D01*
X0037431Y0194606D01*
X0037392Y0194615D01*
X0037354Y0194628D01*
X0037318Y0194644D01*
X0037283Y0194664D01*
X0037251Y0194687D01*
X0037221Y0194714D01*
X0037194Y0194743D01*
X0037170Y0194775D01*
X0037149Y0194809D01*
X0037131Y0194845D01*
X0037118Y0194882D01*
X0037108Y0194921D01*
X0037102Y0194960D01*
X0037100Y0195000D01*
D15*
X0037202Y0191235D02*
X0037202Y0188966D01*
X0036919Y0189250D02*
X0037486Y0189250D01*
X0037769Y0189534D01*
X0037769Y0189817D01*
X0037486Y0190101D01*
X0036919Y0190101D01*
X0036635Y0190384D01*
X0036635Y0190668D01*
X0036919Y0190951D01*
X0037486Y0190951D01*
X0037769Y0190668D01*
X0038293Y0190384D02*
X0038860Y0190951D01*
X0038860Y0189250D01*
X0038293Y0189250D02*
X0039427Y0189250D01*
X0036919Y0189250D02*
X0036635Y0189534D01*
X0036112Y0189534D02*
X0036112Y0190951D01*
X0034978Y0190951D02*
X0034978Y0189534D01*
X0035261Y0189250D01*
X0035828Y0189250D01*
X0036112Y0189534D01*
X0018824Y0151551D02*
X0018824Y0150050D01*
X0019324Y0150050D02*
X0018323Y0150050D01*
X0017851Y0150050D02*
X0017350Y0150550D01*
X0017601Y0150550D02*
X0016850Y0150550D01*
X0016850Y0150050D02*
X0016850Y0151551D01*
X0017601Y0151551D01*
X0017851Y0151301D01*
X0017851Y0150801D01*
X0017601Y0150550D01*
X0018323Y0151051D02*
X0018824Y0151551D01*
X0058549Y0145274D02*
X0058549Y0144773D01*
X0058799Y0144523D01*
X0058799Y0144051D02*
X0058549Y0143801D01*
X0058549Y0143300D01*
X0058799Y0143050D01*
X0059800Y0143050D01*
X0060050Y0143300D01*
X0060050Y0143801D01*
X0059800Y0144051D01*
X0060050Y0144523D02*
X0059049Y0145524D01*
X0058799Y0145524D01*
X0058549Y0145274D01*
X0060050Y0145524D02*
X0060050Y0144523D01*
X0072349Y0144401D02*
X0072349Y0143900D01*
X0072599Y0143650D01*
X0073600Y0143650D01*
X0073850Y0143900D01*
X0073850Y0144401D01*
X0073600Y0144651D01*
X0073600Y0145123D02*
X0073850Y0145373D01*
X0073850Y0145874D01*
X0073600Y0146124D01*
X0073350Y0146124D01*
X0073099Y0145874D01*
X0073099Y0145624D01*
X0073099Y0145874D02*
X0072849Y0146124D01*
X0072599Y0146124D01*
X0072349Y0145874D01*
X0072349Y0145373D01*
X0072599Y0145123D01*
X0072599Y0144651D02*
X0072349Y0144401D01*
X0081499Y0162550D02*
X0082500Y0162550D01*
X0082750Y0162800D01*
X0082750Y0163301D01*
X0082500Y0163551D01*
X0081999Y0164023D02*
X0081999Y0165024D01*
X0081249Y0164774D02*
X0082750Y0164774D01*
X0081999Y0164023D02*
X0081249Y0164774D01*
X0081499Y0163551D02*
X0081249Y0163301D01*
X0081249Y0162800D01*
X0081499Y0162550D01*
X0086849Y0145624D02*
X0088350Y0145624D01*
X0088350Y0146124D02*
X0088350Y0145123D01*
X0088100Y0144651D02*
X0088350Y0144401D01*
X0088350Y0143900D01*
X0088100Y0143650D01*
X0087099Y0143650D01*
X0086849Y0143900D01*
X0086849Y0144401D01*
X0087099Y0144651D01*
X0087349Y0145123D02*
X0086849Y0145624D01*
D16*
X0088300Y0186000D02*
X0065300Y0186000D01*
X0065081Y0186003D01*
X0064862Y0186011D01*
X0064643Y0186024D01*
X0064425Y0186043D01*
X0064207Y0186067D01*
X0063990Y0186096D01*
X0063773Y0186130D01*
X0063558Y0186170D01*
X0063343Y0186215D01*
X0063130Y0186266D01*
X0062918Y0186321D01*
X0062707Y0186382D01*
X0062498Y0186447D01*
X0062291Y0186518D01*
X0062085Y0186594D01*
X0061881Y0186675D01*
X0061679Y0186760D01*
X0061480Y0186851D01*
X0061283Y0186946D01*
X0061088Y0187047D01*
X0060895Y0187152D01*
X0060705Y0187261D01*
X0060518Y0187375D01*
X0060334Y0187494D01*
X0060153Y0187617D01*
X0059975Y0187745D01*
X0059799Y0187877D01*
X0059628Y0188013D01*
X0059459Y0188153D01*
X0059294Y0188297D01*
X0059133Y0188445D01*
X0058975Y0188597D01*
X0058821Y0188753D01*
X0058671Y0188913D01*
X0058524Y0189076D01*
X0058382Y0189243D01*
X0058244Y0189413D01*
X0058110Y0189587D01*
X0057980Y0189763D01*
X0057855Y0189943D01*
X0057734Y0190126D01*
X0057618Y0190312D01*
X0057506Y0190500D01*
X0057399Y0190691D01*
X0057296Y0190885D01*
X0057198Y0191081D01*
X0057105Y0191279D01*
X0057017Y0191480D01*
X0056934Y0191683D01*
X0056855Y0191888D01*
X0056782Y0192094D01*
X0056714Y0192302D01*
X0056651Y0192512D01*
X0056593Y0192724D01*
X0056540Y0192936D01*
X0056492Y0193150D01*
X0056450Y0193365D01*
X0056413Y0193581D01*
X0056381Y0193798D01*
X0056354Y0194016D01*
X0056333Y0194234D01*
X0056317Y0194452D01*
X0056306Y0194671D01*
X0056301Y0194890D01*
X0056301Y0195110D01*
X0056306Y0195329D01*
X0056317Y0195548D01*
X0056333Y0195766D01*
X0056354Y0195984D01*
X0056381Y0196202D01*
X0056413Y0196419D01*
X0056450Y0196635D01*
X0056492Y0196850D01*
X0056540Y0197064D01*
X0056593Y0197276D01*
X0056651Y0197488D01*
X0056714Y0197698D01*
X0056782Y0197906D01*
X0056855Y0198112D01*
X0056934Y0198317D01*
X0057017Y0198520D01*
X0057105Y0198721D01*
X0057198Y0198919D01*
X0057296Y0199115D01*
X0057399Y0199309D01*
X0057506Y0199500D01*
X0057618Y0199688D01*
X0057734Y0199874D01*
X0057855Y0200057D01*
X0057980Y0200237D01*
X0058110Y0200413D01*
X0058244Y0200587D01*
X0058382Y0200757D01*
X0058524Y0200924D01*
X0058671Y0201087D01*
X0058821Y0201247D01*
X0058975Y0201403D01*
X0059133Y0201555D01*
X0059294Y0201703D01*
X0059459Y0201847D01*
X0059628Y0201987D01*
X0059799Y0202123D01*
X0059975Y0202255D01*
X0060153Y0202383D01*
X0060334Y0202506D01*
X0060518Y0202625D01*
X0060705Y0202739D01*
X0060895Y0202848D01*
X0061088Y0202953D01*
X0061283Y0203054D01*
X0061480Y0203149D01*
X0061679Y0203240D01*
X0061881Y0203325D01*
X0062085Y0203406D01*
X0062291Y0203482D01*
X0062498Y0203553D01*
X0062707Y0203618D01*
X0062918Y0203679D01*
X0063130Y0203734D01*
X0063343Y0203785D01*
X0063558Y0203830D01*
X0063773Y0203870D01*
X0063990Y0203904D01*
X0064207Y0203933D01*
X0064425Y0203957D01*
X0064643Y0203976D01*
X0064862Y0203989D01*
X0065081Y0203997D01*
X0065300Y0204000D01*
X0088300Y0204000D01*
X0088519Y0203997D01*
X0088738Y0203989D01*
X0088957Y0203976D01*
X0089175Y0203957D01*
X0089393Y0203933D01*
X0089610Y0203904D01*
X0089827Y0203870D01*
X0090042Y0203830D01*
X0090257Y0203785D01*
X0090470Y0203734D01*
X0090682Y0203679D01*
X0090893Y0203618D01*
X0091102Y0203553D01*
X0091309Y0203482D01*
X0091515Y0203406D01*
X0091719Y0203325D01*
X0091921Y0203240D01*
X0092120Y0203149D01*
X0092317Y0203054D01*
X0092512Y0202953D01*
X0092705Y0202848D01*
X0092895Y0202739D01*
X0093082Y0202625D01*
X0093266Y0202506D01*
X0093447Y0202383D01*
X0093625Y0202255D01*
X0093801Y0202123D01*
X0093972Y0201987D01*
X0094141Y0201847D01*
X0094306Y0201703D01*
X0094467Y0201555D01*
X0094625Y0201403D01*
X0094779Y0201247D01*
X0094929Y0201087D01*
X0095076Y0200924D01*
X0095218Y0200757D01*
X0095356Y0200587D01*
X0095490Y0200413D01*
X0095620Y0200237D01*
X0095745Y0200057D01*
X0095866Y0199874D01*
X0095982Y0199688D01*
X0096094Y0199500D01*
X0096201Y0199309D01*
X0096304Y0199115D01*
X0096402Y0198919D01*
X0096495Y0198721D01*
X0096583Y0198520D01*
X0096666Y0198317D01*
X0096745Y0198112D01*
X0096818Y0197906D01*
X0096886Y0197698D01*
X0096949Y0197488D01*
X0097007Y0197276D01*
X0097060Y0197064D01*
X0097108Y0196850D01*
X0097150Y0196635D01*
X0097187Y0196419D01*
X0097219Y0196202D01*
X0097246Y0195984D01*
X0097267Y0195766D01*
X0097283Y0195548D01*
X0097294Y0195329D01*
X0097299Y0195110D01*
X0097299Y0194890D01*
X0097294Y0194671D01*
X0097283Y0194452D01*
X0097267Y0194234D01*
X0097246Y0194016D01*
X0097219Y0193798D01*
X0097187Y0193581D01*
X0097150Y0193365D01*
X0097108Y0193150D01*
X0097060Y0192936D01*
X0097007Y0192724D01*
X0096949Y0192512D01*
X0096886Y0192302D01*
X0096818Y0192094D01*
X0096745Y0191888D01*
X0096666Y0191683D01*
X0096583Y0191480D01*
X0096495Y0191279D01*
X0096402Y0191081D01*
X0096304Y0190885D01*
X0096201Y0190691D01*
X0096094Y0190500D01*
X0095982Y0190312D01*
X0095866Y0190126D01*
X0095745Y0189943D01*
X0095620Y0189763D01*
X0095490Y0189587D01*
X0095356Y0189413D01*
X0095218Y0189243D01*
X0095076Y0189076D01*
X0094929Y0188913D01*
X0094779Y0188753D01*
X0094625Y0188597D01*
X0094467Y0188445D01*
X0094306Y0188297D01*
X0094141Y0188153D01*
X0093972Y0188013D01*
X0093801Y0187877D01*
X0093625Y0187745D01*
X0093447Y0187617D01*
X0093266Y0187494D01*
X0093082Y0187375D01*
X0092895Y0187261D01*
X0092705Y0187152D01*
X0092512Y0187047D01*
X0092317Y0186946D01*
X0092120Y0186851D01*
X0091921Y0186760D01*
X0091719Y0186675D01*
X0091515Y0186594D01*
X0091309Y0186518D01*
X0091102Y0186447D01*
X0090893Y0186382D01*
X0090682Y0186321D01*
X0090470Y0186266D01*
X0090257Y0186215D01*
X0090042Y0186170D01*
X0089827Y0186130D01*
X0089610Y0186096D01*
X0089393Y0186067D01*
X0089175Y0186043D01*
X0088957Y0186024D01*
X0088738Y0186011D01*
X0088519Y0186003D01*
X0088300Y0186000D01*
M02*
