G75*
%MOIN*%
%OFA0B0*%
%FSLAX25Y25*%
%IPPOS*%
%LPD*%
%AMOC8*
5,1,8,0,0,1.08239X$1,22.5*
%
%ADD10C,0.08200*%
%ADD11R,0.03543X0.18110*%
%ADD12R,0.03162X0.08674*%
%ADD13C,0.04800*%
D10*
X0018848Y0014867D03*
X0028848Y0014867D03*
X0038848Y0014867D03*
X0048848Y0014867D03*
X0058848Y0014867D03*
X0068848Y0014867D03*
X0078848Y0014867D03*
X0088848Y0014867D03*
X0098848Y0014867D03*
X0098848Y0064867D03*
X0088848Y0064867D03*
X0078848Y0064867D03*
X0068848Y0064867D03*
X0058848Y0064867D03*
X0048848Y0064867D03*
X0038848Y0064867D03*
X0028848Y0064867D03*
X0018848Y0064867D03*
D11*
X0019478Y0039079D03*
X0019478Y0039079D03*
X0094281Y0039079D03*
D12*
X0090344Y0047741D03*
X0086407Y0047741D03*
X0082470Y0047741D03*
X0078533Y0047741D03*
X0074596Y0047741D03*
X0070659Y0047741D03*
X0066722Y0047741D03*
X0062785Y0047741D03*
X0058848Y0047741D03*
X0054911Y0047741D03*
X0050974Y0047741D03*
X0047037Y0047741D03*
X0043100Y0047741D03*
X0039163Y0047741D03*
X0035226Y0047741D03*
X0031289Y0047741D03*
X0027352Y0047741D03*
X0023415Y0047741D03*
D13*
X0055098Y0039867D03*
X0061348Y0039867D03*
X0066348Y0037367D03*
X0072598Y0039867D03*
X0077598Y0037367D03*
X0081348Y0033617D03*
X0088848Y0038617D03*
X0095098Y0051117D03*
X0085098Y0024867D03*
M02*
