%
M48
M72
T01C0.0240
T02C0.0400
%
T01
X5510Y3987
X6135Y3987
X6635Y3737
X7260Y3987
X7760Y3737
X8135Y3362
X8885Y3862
X9510Y5112
X8510Y2487
T02
X1885Y1487
X2885Y1487
X3885Y1487
X4885Y1487
X5885Y1487
X6885Y1487
X7885Y1487
X8885Y1487
X9885Y1487
X9885Y6487
X8885Y6487
X7885Y6487
X6885Y6487
X5885Y6487
X4885Y6487
X3885Y6487
X2885Y6487
X1885Y6487
M30
