G75*
%MOIN*%
%OFA0B0*%
%FSLAX25Y25*%
%IPPOS*%
%LPD*%
%AMOC8*
5,1,8,0,0,1.08239X$1,22.5*
%
%ADD10C,0.07400*%
%ADD11C,0.01000*%
%ADD12C,0.04000*%
D10*
X0018848Y0014867D03*
X0028848Y0014867D03*
X0038848Y0014867D03*
X0048848Y0014867D03*
X0058848Y0014867D03*
X0068848Y0014867D03*
X0078848Y0014867D03*
X0088848Y0014867D03*
X0098848Y0014867D03*
X0098848Y0064867D03*
X0088848Y0064867D03*
X0078848Y0064867D03*
X0068848Y0064867D03*
X0058848Y0064867D03*
X0048848Y0064867D03*
X0038848Y0064867D03*
X0028848Y0064867D03*
X0018848Y0064867D03*
D11*
X0018848Y0058617D01*
X0072598Y0058617D01*
X0078848Y0064867D01*
X0085098Y0061117D02*
X0088848Y0064867D01*
X0085098Y0061117D02*
X0085098Y0037367D01*
X0081348Y0033617D01*
X0077598Y0037367D02*
X0072598Y0032367D01*
X0072598Y0018617D01*
X0068848Y0014867D01*
X0078848Y0014867D02*
X0078848Y0018617D01*
X0085098Y0024867D01*
X0088848Y0014867D02*
X0088848Y0038617D01*
X0098848Y0047367D02*
X0098848Y0014867D01*
X0070098Y0026117D02*
X0058848Y0014867D01*
X0055098Y0021117D02*
X0038848Y0021117D01*
X0038848Y0014867D01*
X0028848Y0014867D02*
X0028848Y0023617D01*
X0045098Y0023617D01*
X0061348Y0039867D01*
X0066348Y0037367D02*
X0061348Y0032367D01*
X0061348Y0027367D01*
X0055098Y0021117D01*
X0070098Y0026117D02*
X0070098Y0037367D01*
X0072598Y0039867D01*
X0055098Y0039867D02*
X0018848Y0039867D01*
X0018848Y0014867D01*
X0095098Y0051117D02*
X0098848Y0047367D01*
D12*
X0095098Y0051117D03*
X0088848Y0038617D03*
X0081348Y0033617D03*
X0077598Y0037367D03*
X0072598Y0039867D03*
X0066348Y0037367D03*
X0061348Y0039867D03*
X0055098Y0039867D03*
X0085098Y0024867D03*
M02*
